<?xml version="1.0" encoding="utf-8"?>
<!-- Generator: Adobe Illustrator 20.1.0, SVG Export Plug-In . SVG Version: 6.00 Build 0)  -->
<!DOCTYPE svg PUBLIC "-//W3C//DTD SVG 1.1//EN" "http://www.w3.org/Graphics/SVG/1.1/DTD/svg11.dtd">
<svg version="1.1" xmlns="http://www.w3.org/2000/svg" xmlns:xlink="http://www.w3.org/1999/xlink" x="0px" y="0px"
	 viewBox="0 0 64 64" style="enable-background:new 0 0 64 64;" xml:space="preserve">
<g id="bulb">
</g>
<g id="bulb-on">
</g>
<g id="bulb-alt">
</g>
<g id="bulb-on-alt">
</g>
<g id="energy-bulb">
</g>
<g id="toasting">
</g>
<g id="toasted">
</g>
<g id="binoculars">
</g>
<g id="gift">
</g>
<g id="shaver">
</g>
<g id="candle">
</g>
<g id="shower">
</g>
<g id="bomb">
</g>
<g id="joystick">
</g>
<g id="megaphone">
</g>
<g id="chestdraw">
</g>
<g id="armchair">
</g>
<g id="cardboard-box">
</g>
<g id="bath-shower">
</g>
<g id="diamond">
</g>
<g id="cassette">
</g>
<g id="iron">
</g>
<g id="wash">
</g>
<g id="keyboard-keys">
</g>
<g id="earphones">
</g>
<g id="lifebuoy">
</g>
<g id="calculator">
</g>
<g id="safe">
</g>
<g id="balloon">
</g>
<g id="cake">
</g>
<g id="baseball">
</g>
<g id="football-american">
</g>
<g id="football">
</g>
<g id="anchor">
</g>
<g id="compact-disc">
</g>
<g id="bbq">
</g>
<g id="coffee-machine">
</g>
<g id="teapot">
</g>
<g id="outdoor-stove">
</g>
<g id="pram">
</g>
<g id="paintbrush">
</g>
<g id="stamp">
</g>
<g id="eyedrop">
</g>
<g id="musical-note">
</g>
<g id="magnet">
</g>
<g id="alarm-bell">
	<g>
		<ellipse cx="55.9" cy="8.2" rx="2.1" ry="2.1"/>
		<ellipse cx="8.1" cy="8.2" rx="2.1" ry="2.1"/>
		<ellipse cx="55.9" cy="55.8" rx="2.1" ry="2.1"/>
		<ellipse cx="8.1" cy="55.8" rx="2.1" ry="2.1"/>
		<path d="M32,25.3c-3.7,0-6.8,3-6.8,6.7s3,6.7,6.8,6.7s6.8-3,6.8-6.7S35.7,25.3,32,25.3z M32,35.7c-2.1,0-3.8-1.7-3.8-3.7
			s1.7-3.7,3.8-3.7s3.8,1.7,3.8,3.7S34.1,35.7,32,35.7z"/>
		<path d="M32,8.5C19,8.5,8.4,19,8.4,32S19,55.5,32,55.5C45,55.5,55.6,45,55.6,32S45,8.5,32,8.5z M32,52.5
			c-11.4,0-20.6-9.2-20.6-20.5S20.6,11.5,32,11.5S52.6,20.7,52.6,32S43.4,52.5,32,52.5z"/>
		<path d="M57.7,46.1c2.4-4.3,3.7-9.2,3.7-14.1c0-4.9-1.3-9.8-3.7-14.1l3.9-3.9c1.5-1.5,2.4-3.6,2.4-5.7c0-2.2-0.8-4.2-2.4-5.7
			c-3.2-3.2-8.3-3.2-11.5,0l-4,3.9C41.8,4,36.9,2.8,32,2.8c-4.9,0-9.8,1.3-14.2,3.7l-4-3.9c-3.2-3.2-8.3-3.2-11.5,0
			C0.8,4,0,6.1,0,8.2c0,2.2,0.8,4.2,2.4,5.7l3.9,3.9C3.9,22.2,2.7,27.1,2.7,32c0,4.9,1.3,9.8,3.7,14.1L2.4,50
			C0.8,51.6,0,53.6,0,55.8c0,2.2,0.8,4.2,2.4,5.7C4,63.1,6,63.9,8.1,63.9c2.1,0,4.2-0.8,5.7-2.4l4-3.9c4.3,2.4,9.2,3.7,14.2,3.7
			c4.9,0,9.8-1.3,14.2-3.7l4,3.9c3.2,3.2,8.3,3.2,11.5,0c1.5-1.5,2.4-3.6,2.4-5.7c0-2.2-0.8-4.2-2.4-5.7L57.7,46.1z M59.5,59.4
			c-2,2-5.3,2-7.3,0l-4.8-4.7c-0.5-0.5-1.2-0.6-1.8-0.2c-4.1,2.5-8.8,3.8-13.6,3.8c-4.8,0-9.5-1.3-13.6-3.8
			c-0.6-0.4-1.3-0.3-1.8,0.2l-4.8,4.7c-2,2-5.3,2-7.3,0c-1-1-1.5-2.2-1.5-3.6c0-1.4,0.5-2.6,1.5-3.6l4.8-4.7
			c0.5-0.5,0.6-1.3,0.2-1.8C7,41.5,5.7,36.8,5.7,32c0-4.8,1.3-9.5,3.8-13.6c0.4-0.6,0.3-1.4-0.2-1.8l-4.8-4.7c-1-1-1.5-2.2-1.5-3.6
			c0-1.4,0.5-2.6,1.5-3.6c1-1,2.3-1.5,3.6-1.5s2.6,0.5,3.6,1.5l4.8,4.7c0.5,0.5,1.2,0.6,1.8,0.2c4.1-2.5,8.8-3.8,13.6-3.8
			c4.8,0,9.5,1.3,13.6,3.8c0.6,0.4,1.3,0.3,1.8-0.2l4.8-4.7c2-2,5.3-2,7.3,0c1,1,1.5,2.2,1.5,3.6c0,1.4-0.5,2.6-1.5,3.6l-4.8,4.7
			c-0.5,0.5-0.6,1.3-0.2,1.8c2.5,4.1,3.8,8.8,3.8,13.6c0,4.8-1.3,9.5-3.8,13.6c-0.4,0.6-0.3,1.4,0.2,1.8l4.8,4.7
			c1,1,1.5,2.2,1.5,3.6C61,57.1,60.5,58.4,59.5,59.4z"/>
	</g>
</g>
<g id="globe">
</g>
<g id="key">
</g>
<g id="ink">
</g>
<g id="paperclip">
</g>
<g id="paint-roller">
</g>
<g id="keyboard">
</g>
</svg>
