<?xml version="1.0" encoding="utf-8"?>
<!-- Generator: Adobe Illustrator 20.1.0, SVG Export Plug-In . SVG Version: 6.00 Build 0)  -->
<!DOCTYPE svg PUBLIC "-//W3C//DTD SVG 1.1//EN" "http://www.w3.org/Graphics/SVG/1.1/DTD/svg11.dtd">
<svg version="1.1" xmlns="http://www.w3.org/2000/svg" xmlns:xlink="http://www.w3.org/1999/xlink" x="0px" y="0px"
	 viewBox="0 0 64 64" style="enable-background:new 0 0 64 64;" xml:space="preserve">
<style type="text/css">
	.st0{fill:none;stroke:#000000;stroke-width:3;stroke-linecap:round;stroke-linejoin:round;}
</style>
<g id="cupcake">
</g>
<g id="turkey">
</g>
<g id="hot-service">
</g>
<g id="mug">
</g>
<g id="mug-hot">
</g>
<g id="bottle">
</g>
<g id="cherries">
</g>
<g id="cocktail">
</g>
<g id="cocktail-alt">
</g>
<g id="wine-glass">
</g>
<g id="wine-glass-alt">
</g>
<g id="aubergine">
	<path d="M45.1,33.8l-0.7-1.3c-1.6-2.9-3.1-6.1-3.3-9.3c1.4-0.2,2.7-0.7,3.8-1.4c0.1,0,0.1-0.1,0.2-0.1c0.7-0.5,0.8-1.4,0.4-2.1
		c-0.5-0.7-1.4-0.8-2.1-0.4c0,0,0,0,0,0c-0.1,0.1-0.5,0-0.7-0.2c-0.3-0.3-0.6-0.9-0.7-1.7c0-0.3-0.1-0.7-0.1-1
		c0-0.6-0.1-1.2-0.2-1.9c-0.4-2.1-1.7-3.9-3.5-5c-1.2-0.8-2.9-1.2-4.5-1.2c0.1-0.8,0.2-1.5,0.5-2.2C35,4.1,37.6,2.8,40,3
		c0.8,0.1,1.5-0.6,1.6-1.4S41.1,0.1,40.2,0c-3.7-0.3-7.4,1.7-8.8,4.6c-0.6,1.2-0.8,2.4-0.9,3.5c-1.6,0-3.3,0.4-4.6,1.2
		c-1.8,1.1-3.1,3-3.5,5c-0.1,0.7-0.2,1.3-0.2,1.9c0,0.3-0.1,0.7-0.1,1c-0.1,0.8-0.3,1.4-0.7,1.7c-0.2,0.2-0.6,0.3-0.7,0.2
		c0,0,0,0,0,0c-0.7-0.5-1.6-0.3-2.1,0.4c-0.5,0.7-0.3,1.6,0.4,2.1c0.1,0,0.1,0.1,0.2,0.1c1.1,0.7,2.4,1.2,3.8,1.4
		c-0.2,3.2-1.7,6.4-3.3,9.3l-0.7,1.3c-2.2,3.9-4.4,7.9-4.6,12.6c-0.2,6.5,3.5,12.9,9.2,15.8c2.3,1.1,4.9,1.7,7.7,1.7h1.5
		c2.8,0,5.5-0.6,7.7-1.7c5.7-2.9,9.4-9.3,9.2-15.8C49.6,41.7,47.3,37.7,45.1,33.8z M25,17.7c0.1-0.4,0.1-0.8,0.1-1.2
		c0-0.5,0.1-1,0.2-1.5c0.3-1.3,1.1-2.4,2.2-3.1c1.1-0.7,2.8-1,4.1-0.6c0.2,0,0.4,0,0.7,0c1.3-0.3,3,0,4.1,0.6
		c1.1,0.7,1.9,1.9,2.2,3.1c0.1,0.5,0.1,1,0.2,1.5c0,0.4,0.1,0.8,0.1,1.2c0.1,1,0.4,1.9,0.9,2.6c-0.7,0-1.3,0-2-0.2
		c-1.9-0.4-3.6-1.6-4.6-3.2c-0.3-0.4-0.8-0.7-1.3-0.7s-1,0.3-1.3,0.7c-1,1.6-2.7,2.8-4.6,3.2c-0.7,0.1-1.3,0.2-2,0.2
		C24.6,19.6,24.9,18.8,25,17.7z M39.1,59.6c-1.8,0.9-4,1.4-6.4,1.4h-1.5c-2.3,0-4.5-0.5-6.4-1.4c-4.7-2.4-7.8-7.6-7.6-13
		c0.1-4,2.2-7.7,4.2-11.3l0.7-1.3c1.8-3.3,3.5-6.9,3.7-10.8c0.3,0,0.6-0.1,0.9-0.1c2-0.4,3.8-1.5,5.2-2.9c1.4,1.5,3.2,2.5,5.2,2.9
		c0.3,0.1,0.6,0.1,0.9,0.1c0.2,3.9,1.9,7.4,3.7,10.8l0.7,1.3c2,3.6,4.1,7.2,4.2,11.3C46.9,52,43.9,57.2,39.1,59.6z"/>
</g>
<g id="lettuce-leaf">
</g>
<g id="cup">
</g>
<g id="noodles">
</g>
<g id="icelolly">
</g>
<g id="cutlery">
</g>
<g id="hotdog">
</g>
</svg>
