<?xml version="1.0" encoding="utf-8"?>
<!-- Generator: Adobe Illustrator 20.1.0, SVG Export Plug-In . SVG Version: 6.00 Build 0)  -->
<!DOCTYPE svg PUBLIC "-//W3C//DTD SVG 1.1//EN" "http://www.w3.org/Graphics/SVG/1.1/DTD/svg11.dtd">
<svg version="1.1" xmlns="http://www.w3.org/2000/svg" xmlns:xlink="http://www.w3.org/1999/xlink" x="0px" y="0px"
	 viewBox="0 0 64 64" style="enable-background:new 0 0 64 64;" xml:space="preserve">
<g id="text-height">
</g>
<g id="font">
</g>
<g id="text">
</g>
<g id="italic">
</g>
<g id="strikethrough">
</g>
<g id="paragraph">
</g>
<g id="bold">
</g>
<g id="quote-right">
</g>
<g id="hashtag">
</g>
<g id="anchor-handle">
	<path d="M62.5,31H47.8c2.7-1.3,5-3,7-5.2c7.6-8.7,6.6-21.4,6.6-21.9c-0.1-0.8-0.8-1.4-1.6-1.4c-0.8,0.1-1.4,0.8-1.4,1.6
		c0,0.1,0.9,11.9-5.9,19.7c-3.3,3.7-7.8,5.9-13.6,6.5v-1.4c0-0.6-0.4-1-1-1h-7.2c-0.6,0-1,0.4-1,1v1.7c-1,0.1-1.9,0.2-2.8,0.4H8
		c-0.4-1.8-2-3.1-4-3.1C1.8,27.9,0,29.7,0,32s1.8,4.1,4.1,4.1c1.5,0,2.8-0.8,3.5-2.1h11c-1.9,1.1-3.6,2.5-5,4.1
		c-7.7,8.7-6.7,21.4-6.7,22c0.1,0.8,0.7,1.4,1.5,1.4c0,0,0.1,0,0.1,0c0.8-0.1,1.4-0.8,1.4-1.6c0-0.1-0.9-12.1,5.9-19.7
		c2.8-3.2,6.6-5.2,11.3-6.1h2.6v2.1c0,0.6,0.4,1,1,1H38c0.6,0,1-0.4,1-1V34h23.5c0.8,0,1.5-0.7,1.5-1.5S63.3,31,62.5,31z"/>
</g>
<g id="box">
</g>
<g id="fullscreen">
</g>
<g id="fullscreen-alt">
</g>
<g id="golden-ratio">
</g>
<g id="hexgrid">
</g>
<g id="box-points">
</g>
<g id="box-points-move">
</g>
<g id="box-points-move-alt">
</g>
<g id="hex_1_">
</g>
<g id="hex-diamond">
</g>
<g id="artboards-vertical">
</g>
<g id="artboards">
</g>
<g id="artboards-alt-vertical">
</g>
<g id="artboards-alt">
</g>
<g id="scale">
</g>
<g id="pencil">
</g>
<g id="fill">
</g>
<g id="artist-mug">
</g>
<g id="pen">
</g>
<g id="calligraphy-pen-tip">
</g>
<g id="calligraphy-pen_1_">
</g>
<g id="paint-pallette">
</g>
<g id="tools-cross">
</g>
<g id="edit-tools">
</g>
<g id="pencil-ruler">
</g>
<g id="ruler-measure">
</g>
<g id="measure">
</g>
<g id="code">
</g>
<g id="move">
</g>
<g id="external">
</g>
<g id="terminal">
</g>
<g id="thumbnails">
</g>
</svg>
