<?xml version="1.0" encoding="utf-8"?>
<!-- Generator: Adobe Illustrator 20.1.0, SVG Export Plug-In . SVG Version: 6.00 Build 0)  -->
<!DOCTYPE svg PUBLIC "-//W3C//DTD SVG 1.1//EN" "http://www.w3.org/Graphics/SVG/1.1/DTD/svg11.dtd">
<svg version="1.1" xmlns="http://www.w3.org/2000/svg" xmlns:xlink="http://www.w3.org/1999/xlink" x="0px" y="0px"
	 viewBox="0 0 64 64" style="enable-background:new 0 0 64 64;" xml:space="preserve">
<g id="dial">
</g>
<g id="dial-alt">
</g>
<g id="connections">
</g>
<g id="atom">
</g>
<g id="atom-alt">
	<path d="M52.4,32c6.9-7,9-13.2,6.9-16.7c-1.9-3.1-6.6-4-13.3-2.7c-1.2,0.2-2.4,0.6-3.7,1c-0.1-0.4-0.2-0.7-0.3-1.1
		c1.1-0.8,1.8-2.1,1.8-3.6c0-2.5-2.1-4.6-4.6-4.6c-0.2,0-0.4,0-0.7,0.1C36.2,0.8,33.7,0,32,0c-3.9,0-8,4.7-10.4,13.6
		c-1.3-0.4-2.5-0.7-3.7-0.9c-6.7-1.4-11.4-0.4-13.3,2.7c-2.1,3.5,0,9.7,7,16.7c-0.5,0.5-1,1-1.4,1.5c-0.2-0.1-0.3-0.1-0.5-0.2
		c-1.2-0.3-2.4-0.1-3.5,0.5c-2.2,1.3-2.8,4.1-1.5,6.3c0.1,0.2,0.3,0.4,0.4,0.5c-1.9,3.9-1.2,6.5-0.4,7.9c1.3,2.2,4,3.3,7.8,3.3
		c1.6,0,3.4-0.2,5.4-0.6c1.2-0.2,2.4-0.6,3.7-0.9C24,59.3,28.1,64,32,64c3.9,0,8-4.7,10.4-13.6c0.4,0.1,0.7,0.2,1,0.3
		c0.2,1.3,0.9,2.6,2.1,3.4c0.7,0.4,1.5,0.7,2.4,0.7c0.4,0,0.7,0,1.1-0.1c1.2-0.3,2.2-1,2.8-2.1c0.1-0.2,0.2-0.4,0.3-0.6
		c4.3-0.2,6.3-1.8,7.2-3.3C61.4,45.2,59.3,38.9,52.4,32z M46.6,15.6c5.2-1.1,9-0.6,10.1,1.3c1.5,2.4-0.9,7.4-6.5,13
		c-1.8-1.6-3.8-3.2-6-4.8c-0.2-3-0.7-5.9-1.2-8.6C44.3,16.1,45.5,15.8,46.6,15.6z M37,40.1c-1.6,1-3.3,1.9-4.9,2.8
		c-1.7-0.9-3.3-1.8-5-2.8c-1.5-0.9-3-1.9-4.4-2.9c-0.1-1.7-0.2-3.4-0.2-5.3c0-1.8,0.1-3.6,0.2-5.2c1.4-1,2.9-2,4.4-2.9
		c1.6-1,3.3-1.9,4.9-2.8c1.6,0.9,3.3,1.8,4.9,2.8c1.5,0.9,3,1.9,4.4,2.9c0.1,1.7,0.2,3.5,0.2,5.3c0,1.8-0.1,3.6-0.2,5.2
		C40,38.2,38.5,39.2,37,40.1z M41,41.1c-0.2,1.9-0.5,3.7-0.8,5.4c-1.6-0.6-3.2-1.2-4.8-2c1.1-0.6,2.1-1.2,3.2-1.8
		C39.4,42.2,40.2,41.6,41,41.1z M28.7,44.5c-1.6,0.8-3.3,1.4-4.9,2c-0.3-1.7-0.6-3.5-0.8-5.4c0.8,0.5,1.6,1.1,2.5,1.6
		C26.6,43.3,27.6,43.9,28.7,44.5z M19.5,35c-1.3-1-2.4-2-3.5-2.9c1.1-1,2.3-2,3.5-2.9c0,1,0,1.9,0,2.9C19.5,33,19.5,34,19.5,35z
		 M23,22.9c0.2-1.9,0.5-3.7,0.8-5.4c1.6,0.6,3.2,1.2,4.8,2c-1.1,0.6-2.1,1.2-3.2,1.8C24.6,21.8,23.8,22.4,23,22.9z M35.3,19.5
		c1.6-0.8,3.3-1.4,4.8-2c0.3,1.7,0.6,3.5,0.8,5.4c-0.8-0.5-1.6-1-2.5-1.6C37.4,20.7,36.4,20.1,35.3,19.5z M44.5,29
		c1.3,1,2.5,2,3.5,3c-1.1,1-2.3,2-3.5,3c0-1,0-1.9,0-2.9C44.5,31,44.5,30,44.5,29z M40.8,9c0,0.9-0.7,1.6-1.6,1.6
		c-0.9,0-1.6-0.7-1.6-1.6s0.7-1.6,1.6-1.6C40.1,7.4,40.8,8.1,40.8,9z M32,3c1.3,0,2.6,1,3.9,2.8c-0.8,0.8-1.3,1.9-1.3,3.1
		c0,2.5,2.1,4.6,4.6,4.6c0.1,0.3,0.2,0.7,0.3,1c-2.4,0.9-4.9,1.9-7.5,3.2c-2.5-1.3-5-2.3-7.5-3.2C26.4,7.3,29.3,3,32,3z M7.2,16.9
		c1.1-1.9,4.9-2.4,10.1-1.3c1.2,0.2,2.4,0.6,3.6,0.9c-0.5,2.6-0.9,5.5-1.2,8.6c-2.1,1.6-4.1,3.2-5.9,4.8C8.2,24.4,5.8,19.3,7.2,16.9
		z M7.8,36.5c0.3-0.2,0.5-0.2,0.8-0.2c0.1,0,0.3,0,0.4,0c0.4,0.1,0.8,0.4,1,0.7c0.5,0.7,0.2,1.7-0.5,2.2c-0.4,0.2-0.8,0.3-1.2,0.2
		c-0.4-0.1-0.8-0.4-1-0.7C6.8,38,7,37,7.8,36.5z M17.4,48.4c-5.2,1.1-8.9,0.6-10.1-1.3c-0.7-1.1-0.5-2.7,0.4-4.8
		c0.3,0.1,0.6,0.1,0.9,0.1c0.8,0,1.7-0.2,2.4-0.7c2.2-1.3,2.8-4.1,1.5-6.3c0.4-0.4,0.8-0.9,1.3-1.4c1.7,1.6,3.7,3.2,5.9,4.8
		c0.2,3.2,0.6,6,1.2,8.6C19.7,47.9,18.5,48.2,17.4,48.4z M32,61c-2.7,0-5.6-4.3-7.5-11.5c2.4-0.9,5-1.9,7.5-3.2
		c2.5,1.2,5,2.3,7.5,3.2C37.6,56.7,34.7,61,32,61z M49.3,50.9c-0.2,0.4-0.6,0.6-1,0.7c-0.4,0.1-0.8,0-1.2-0.2
		c-0.7-0.5-1-1.4-0.5-2.2c0.2-0.4,0.6-0.6,1-0.7c0.1,0,0.3,0,0.4,0c0.3,0,0.6,0.1,0.8,0.2C49.5,49.2,49.8,50.2,49.3,50.9z
		 M56.8,47.1c-0.7,1.1-2.2,1.7-4.4,1.8c-0.3-1.1-1-2.1-2-2.7c-1-0.6-2.3-0.8-3.5-0.5c-1.2,0.3-2.2,1-2.8,2.1c-0.3-0.1-0.6-0.2-1-0.3
		c0.5-2.6,0.9-5.4,1.2-8.6c2.2-1.6,4.2-3.2,6-4.8C55.8,39.7,58.2,44.7,56.8,47.1z"/>
</g>
<g id="cosmic">
</g>
<g id="cosmic-alt">
</g>
<g id="workflows">
</g>
<g id="positive">
</g>
<g id="neuron">
</g>
<g id="sitemap">
</g>
<g id="conditional">
</g>
<g id="sitemap-alt">
</g>
<g id="neuron-alt">
</g>
<g id="flask">
</g>
<g id="clone">
</g>
<g id="infinity">
</g>
<g id="f42">
</g>
</svg>
