<?xml version="1.0" encoding="utf-8"?>
<!-- Generator: Adobe Illustrator 20.1.0, SVG Export Plug-In . SVG Version: 6.00 Build 0)  -->
<!DOCTYPE svg PUBLIC "-//W3C//DTD SVG 1.1//EN" "http://www.w3.org/Graphics/SVG/1.1/DTD/svg11.dtd">
<svg version="1.1" xmlns="http://www.w3.org/2000/svg" xmlns:xlink="http://www.w3.org/1999/xlink" x="0px" y="0px"
	 viewBox="0 0 64 64" style="enable-background:new 0 0 64 64;" xml:space="preserve">
<g id="dial">
</g>
<g id="dial-alt">
</g>
<g id="connections">
</g>
<g id="atom">
	<path d="M59.3,15.3c-1.9-3.1-6.6-4-13.3-2.7c-1.2,0.2-2.4,0.6-3.7,0.9C40,4.7,35.9,0,32,0s-8,4.7-10.4,13.6
		c-1.3-0.4-2.5-0.7-3.7-0.9c-6.7-1.4-11.4-0.4-13.3,2.7c-2.1,3.5,0,9.7,6.9,16.7c-6.9,7-9,13.2-6.9,16.7c1.3,2.2,4,3.3,7.9,3.3
		c1.6,0,3.4-0.2,5.4-0.6c1.2-0.2,2.4-0.6,3.7-0.9C24,59.3,28.1,64,32,64s8-4.7,10.4-13.6c1.3,0.4,2.5,0.7,3.7,0.9
		c2,0.4,3.8,0.6,5.4,0.6c3.8,0,6.5-1.1,7.9-3.3c2.1-3.5,0-9.7-6.9-16.7C59.3,25,61.4,18.8,59.3,15.3z M46.7,15.6
		c1.8-0.4,3.4-0.5,4.8-0.5c2.6,0,4.5,0.6,5.2,1.9c1.5,2.4-0.9,7.4-6.5,13c-1.7-1.6-3.7-3.2-6-4.8c-0.2-3.2-0.6-6-1.2-8.6
		C44.3,16.1,45.5,15.8,46.7,15.6z M38.5,42.7c0.9-0.5,1.7-1.1,2.5-1.6c-0.2,1.9-0.5,3.7-0.8,5.4c-1.6-0.6-3.2-1.2-4.8-2
		C36.4,43.9,37.4,43.3,38.5,42.7z M36.9,40.1c-1.6,1-3.3,1.9-4.9,2.8c-1.6-0.9-3.3-1.8-4.9-2.8c-1.5-0.9-3-1.9-4.4-2.9
		c-0.1-1.7-0.2-3.4-0.2-5.2s0.1-3.6,0.2-5.2c1.4-1,2.8-1.9,4.4-2.9c1.6-1,3.3-1.9,4.9-2.8c1.6,0.9,3.3,1.8,4.9,2.8
		c1.5,0.9,3,1.9,4.4,2.9c0.1,1.7,0.2,3.4,0.2,5.2s-0.1,3.6-0.2,5.2C40,38.2,38.5,39.2,36.9,40.1z M28.7,44.5c-1.6,0.8-3.3,1.4-4.8,2
		c-0.3-1.7-0.6-3.5-0.8-5.4c0.8,0.5,1.6,1.1,2.5,1.6C26.6,43.3,27.6,43.9,28.7,44.5z M19.5,35c-1.3-1-2.4-2-3.5-3c1.1-1,2.3-2,3.5-3
		c0,1,0,1.9,0,3S19.5,34,19.5,35z M23,22.9c0.2-1.9,0.5-3.7,0.8-5.4c1.6,0.6,3.2,1.2,4.8,2c-1.1,0.6-2.1,1.2-3.2,1.8
		C24.6,21.8,23.8,22.4,23,22.9z M35.3,19.5c1.6-0.8,3.3-1.4,4.8-2c0.3,1.7,0.6,3.5,0.8,5.4c-0.8-0.5-1.6-1.1-2.5-1.6
		C37.4,20.7,36.4,20.1,35.3,19.5z M44.5,29c1.3,1,2.4,2,3.5,3c-1.1,1-2.3,2-3.5,3c0-1,0-1.9,0-3S44.5,30,44.5,29z M32,3
		c2.7,0,5.6,4.3,7.5,11.5c-2.4,0.9-4.9,1.9-7.5,3.2c-2.5-1.3-5.1-2.3-7.5-3.2C26.4,7.3,29.3,3,32,3z M7.3,16.9
		c1.1-1.9,4.9-2.4,10.1-1.3c1.1,0.2,2.4,0.6,3.6,0.9c-0.5,2.6-0.9,5.5-1.2,8.6c-2.2,1.6-4.2,3.2-6,4.8C8.2,24.3,5.8,19.3,7.3,16.9z
		 M17.3,48.4c-5.2,1.1-9,0.6-10.1-1.3c-1.5-2.4,0.9-7.4,6.5-13c1.7,1.6,3.7,3.2,6,4.8c0.2,3.2,0.6,6,1.2,8.6
		C19.7,47.9,18.5,48.2,17.3,48.4z M32,61c-2.7,0-5.6-4.3-7.5-11.5c2.4-0.9,4.9-1.9,7.5-3.2c2.5,1.3,5.1,2.3,7.5,3.2
		C37.6,56.7,34.7,61,32,61z M56.7,47.1c-1.1,1.9-4.9,2.4-10.1,1.3c-1.1-0.2-2.4-0.6-3.6-0.9c0.5-2.6,0.9-5.5,1.2-8.6
		c2.2-1.6,4.2-3.2,6-4.8C55.8,39.7,58.2,44.7,56.7,47.1z"/>
</g>
<g id="atom-alt">
</g>
<g id="cosmic">
</g>
<g id="cosmic-alt">
</g>
<g id="workflows">
</g>
<g id="positive">
</g>
<g id="neuron">
</g>
<g id="sitemap">
</g>
<g id="conditional">
</g>
<g id="sitemap-alt">
</g>
<g id="neuron-alt">
</g>
<g id="flask">
</g>
<g id="clone">
</g>
<g id="infinity">
</g>
<g id="f42">
</g>
</svg>
