<?xml version="1.0" encoding="utf-8"?>
<!-- Generator: Adobe Illustrator 20.1.0, SVG Export Plug-In . SVG Version: 6.00 Build 0)  -->
<!DOCTYPE svg PUBLIC "-//W3C//DTD SVG 1.1//EN" "http://www.w3.org/Graphics/SVG/1.1/DTD/svg11.dtd">
<svg version="1.1" xmlns="http://www.w3.org/2000/svg" xmlns:xlink="http://www.w3.org/1999/xlink" x="0px" y="0px"
	 viewBox="0 0 64 64" style="enable-background:new 0 0 64 64;" xml:space="preserve">
<g id="text-height">
</g>
<g id="font">
</g>
<g id="text">
</g>
<g id="italic">
</g>
<g id="strikethrough">
</g>
<g id="paragraph">
</g>
<g id="bold">
</g>
<g id="quote-right">
</g>
<g id="hashtag">
</g>
<g id="anchor-handle">
</g>
<g id="box">
</g>
<g id="fullscreen">
</g>
<g id="fullscreen-alt">
</g>
<g id="golden-ratio">
</g>
<g id="hexgrid">
</g>
<g id="box-points">
</g>
<g id="box-points-move">
</g>
<g id="box-points-move-alt">
</g>
<g id="hex_1_">
</g>
<g id="hex-diamond">
</g>
<g id="artboards-vertical">
</g>
<g id="artboards">
	<g>
		<path d="M49.5,41.5c-0.8,0-1.5,0.7-1.5,1.5v1H16V20h5c0.8,0,1.5-0.7,1.5-1.5S21.8,17,21,17h-6.5c-0.8,0-1.5,0.7-1.5,1.5v27
			c0,0.8,0.7,1.5,1.5,1.5h35c0.8,0,1.5-0.7,1.5-1.5V43C51,42.2,50.3,41.5,49.5,41.5z"/>
		<path d="M62.5,7h-36C25.7,7,25,7.7,25,8.5v27c0,0.8,0.7,1.5,1.5,1.5h36c0.8,0,1.5-0.7,1.5-1.5v-27C64,7.7,63.3,7,62.5,7z M61,34
			H28V10h33V34z"/>
		<path d="M37.5,50.5c-0.8,0-1.5,0.7-1.5,1.5v2H3V30h5c0.8,0,1.5-0.7,1.5-1.5S8.8,27,8,27H1.5C0.7,27,0,27.7,0,28.5v27
			C0,56.3,0.7,57,1.5,57h36c0.8,0,1.5-0.7,1.5-1.5V52C39,51.2,38.3,50.5,37.5,50.5z"/>
	</g>
</g>
<g id="artboards-alt-vertical">
</g>
<g id="artboards-alt">
</g>
<g id="scale">
</g>
<g id="pencil">
</g>
<g id="fill">
</g>
<g id="artist-mug">
</g>
<g id="pen">
</g>
<g id="calligraphy-pen-tip">
</g>
<g id="calligraphy-pen_1_">
</g>
<g id="paint-pallette">
</g>
<g id="tools-cross">
</g>
<g id="edit-tools">
</g>
<g id="pencil-ruler">
</g>
<g id="ruler-measure">
</g>
<g id="measure">
</g>
<g id="code">
</g>
<g id="move">
</g>
<g id="external">
</g>
<g id="terminal">
</g>
<g id="thumbnails">
</g>
</svg>
