<?xml version="1.0" encoding="utf-8"?>
<!-- Generator: Adobe Illustrator 20.1.0, SVG Export Plug-In . SVG Version: 6.00 Build 0)  -->
<!DOCTYPE svg PUBLIC "-//W3C//DTD SVG 1.1//EN" "http://www.w3.org/Graphics/SVG/1.1/DTD/svg11.dtd">
<svg version="1.1" xmlns="http://www.w3.org/2000/svg" xmlns:xlink="http://www.w3.org/1999/xlink" x="0px" y="0px"
	 viewBox="0 0 64 64" style="enable-background:new 0 0 64 64;" xml:space="preserve">
<g id="behance">
</g>
<g id="twitter">
</g>
<g id="vimeo">
</g>
<g id="wordpress">
</g>
<g id="Layer_179">
</g>
<g id="xing">
</g>
<g id="youtube">
</g>
<g id="whatsapp">
</g>
<g id="flickr">
</g>
<g id="dribbble">
</g>
<g id="facebook">
</g>
<g id="foursquare">
</g>
<g id="github">
</g>
<g id="github-alt">
</g>
<g id="google-plus">
</g>
<g id="google">
</g>
<g id="joomla">
</g>
<g id="soundcloud">
</g>
<g id="instagram">
</g>
<g id="linkedin">
</g>
<g id="pagekit">
</g>
<g id="pinterest">
</g>
<g id="windows">
</g>
<g id="bronzelabs">
</g>
<g id="apple">
</g>
<g id="android">
	<g>
		<path d="M10.1,21.3c-1,0-2.1,0.4-2.8,1.1C6.5,23.2,6,24,6,25v15.7c0,1,0.5,1.9,1.3,2.7C8,44.1,9,44.5,10,44.5c1,0,2.1-0.4,2.8-1.1
			c0.7-0.7,1.2-1.6,1.2-2.7V25c0-1-0.5-1.9-1.2-2.6C12.1,21.7,11.1,21.3,10.1,21.3z"/>
		<path d="M15,46.3c0,1.1,0.5,1.9,1.3,2.7c0.8,0.8,1.9,1,3,1H22l0,8.4c0,1,0.4,2,1.1,2.7c0.7,0.7,1.6,1.1,2.6,1.1
			c1,0,1.7-0.3,2.4-1.1c0.7-0.7,0.8-1.6,0.8-2.6V50h6v8.5c0,1,0.1,1.9,0.8,2.7c0.7,0.7,1.5,1.1,2.5,1.1c1,0,1.9-0.4,2.6-1.1
			c0.7-0.7,1-1.6,1-2.7V50h2.7c1.1,0,2.2-0.2,2.9-1c0.8-0.8,1.3-1.6,1.3-2.7V22H15V46.3z"/>
		<path d="M46.5,13c-1.6-2.4-3.6-4.4-6.2-5.7l2.6-4.8C43,2.2,43,1.9,42.7,1.8c-0.3-0.1-0.6-0.1-0.7,0.2l-2.6,4.8
			c-2.3-1-4.7-1.5-7.3-1.5c-2.6,0-5,0.5-7.3,1.5L22.1,2c-0.2-0.3-0.4-0.4-0.7-0.2C21,1.9,21,2.2,21.1,2.5l2.6,4.8
			c-2.6,1.3-4.7,3.3-6.3,5.7c-1.6,2.4-2.3,5-2.3,8h33.7C48.8,18,48,15.4,46.5,13z M25.3,14.2c-0.3,0.3-0.6,0.4-1,0.4
			c-0.4,0-0.7-0.1-1-0.4c-0.3-0.3-0.4-0.6-0.4-1s0.1-0.7,0.4-1c0.3-0.3,0.6-0.4,1-0.4c0.4,0,0.7,0.1,1,0.4c0.3,0.3,0.4,0.6,0.4,1
			S25.6,13.9,25.3,14.2z M40.7,14.2c-0.3,0.3-0.6,0.4-1,0.4s-0.7-0.1-1-0.4c-0.3-0.3-0.4-0.6-0.4-1s0.1-0.7,0.4-1
			c0.3-0.3,0.6-0.4,1-0.4s0.7,0.1,1,0.4c0.3,0.3,0.4,0.6,0.4,1S40.9,13.9,40.7,14.2z"/>
		<path d="M56.7,22.4C56,21.7,55,21.3,54,21.3c-1,0-2,0.4-2.8,1.1C50.5,23.1,50,24,50,25v15.7c0,1,0.5,1.9,1.2,2.7
			c0.7,0.7,1.6,1.1,2.7,1.1c1,0,2.1-0.4,2.9-1.1c0.7-0.7,1.3-1.6,1.3-2.7V25C58,24,57.5,23.1,56.7,22.4z"/>
	</g>
</g>
<g id="mwkr-alt">
</g>
<g id="mwkr">
</g>
<g id="deviantart">
</g>
<g id="deviantart-alt">
</g>
</svg>
