<?xml version="1.0" encoding="utf-8"?>
<!-- Generator: Adobe Illustrator 20.1.0, SVG Export Plug-In . SVG Version: 6.00 Build 0)  -->
<!DOCTYPE svg PUBLIC "-//W3C//DTD SVG 1.1//EN" "http://www.w3.org/Graphics/SVG/1.1/DTD/svg11.dtd">
<svg version="1.1" xmlns="http://www.w3.org/2000/svg" xmlns:xlink="http://www.w3.org/1999/xlink" x="0px" y="0px"
	 viewBox="0 0 64 64" style="enable-background:new 0 0 64 64;" xml:space="preserve">
<g id="file">
</g>
<g id="copy">
</g>
<g id="file-edit">
</g>
<g id="folder">
</g>
<g id="subdirectory">
</g>
<g id="album">
</g>
<g id="push">
</g>
<g id="pull">
</g>
<g id="database">
</g>
<g id="server">
</g>
<g id="upload">
</g>
<g id="download">
</g>
<g id="cloud-download">
</g>
<g id="cloud-upload">
</g>
<g id="cloud">
</g>
<g id="cloud-no-access">
</g>
<g id="cloud-signal-up">
</g>
<g id="cloud-signal-down">
</g>
<g id="checklist">
</g>
<g id="file-folded">
</g>
<g id="file-folded-text">
</g>
<g id="inbox">
</g>
<g id="zip-folder">
</g>
<g id="image-folder">
</g>
<g id="image-album">
</g>
<g id="image">
</g>
<g id="images">
</g>
<g id="invoice">
</g>
<g id="book">
</g>
<g id="layers">
</g>
<g id="media-upload">
</g>
<g id="addresses">
	<g>
		<path d="M40.2,12H22c-0.8,0-1.5,0.7-1.5,1.5v14.4c0,0.8,0.7,1.5,1.5,1.5h18.1c0.8,0,1.5-0.7,1.5-1.5V13.5C41.7,12.6,41,12,40.2,12
			z M38.7,26.3H23.5V15h15.1V26.3z"/>
		<path d="M61.9,4.8h-8.2V1.5c0-0.8-0.7-1.5-1.5-1.5H7.5C6.7,0,6,0.7,6,1.5v5.7H2.1c-0.8,0-1.5,0.7-1.5,1.5s0.7,1.5,1.5,1.5H6v6.6
			H2.1c-0.8,0-1.5,0.7-1.5,1.5s0.7,1.5,1.5,1.5H6v6.6H2.1c-0.8,0-1.5,0.7-1.5,1.5s0.7,1.5,1.5,1.5H6v5.4H2.1c-0.8,0-1.5,0.7-1.5,1.5
			s0.7,1.5,1.5,1.5H6v6.6H2.1c-0.8,0-1.5,0.7-1.5,1.5s0.7,1.5,1.5,1.5H6v6.6H2.1c-0.8,0-1.5,0.7-1.5,1.5s0.7,1.5,1.5,1.5H6v5.7
			C6,63.3,6.7,64,7.5,64h44.7c0.8,0,1.5-0.7,1.5-1.5v-8.1h8.2c0.8,0,1.5-0.7,1.5-1.5V41V30.2v-12v-12C63.4,5.5,62.7,4.8,61.9,4.8z
			 M60.4,28.7h-6.7v-9h6.7V28.7z M53.7,31.7h6.7v7.8h-6.7V31.7z M60.4,7.8v9h-6.7v-9H60.4z M50.7,61H9v-4.2h2.7
			c0.8,0,1.5-0.7,1.5-1.5s-0.7-1.5-1.5-1.5H9v-6.6h2.7c0.8,0,1.5-0.7,1.5-1.5s-0.7-1.5-1.5-1.5H9v-6.6h2.7c0.8,0,1.5-0.7,1.5-1.5
			s-0.7-1.5-1.5-1.5H9v-5.4h2.7c0.8,0,1.5-0.7,1.5-1.5s-0.7-1.5-1.5-1.5H9v-6.6h2.7c0.8,0,1.5-0.7,1.5-1.5s-0.7-1.5-1.5-1.5H9v-6.6
			h2.7c0.8,0,1.5-0.7,1.5-1.5s-0.7-1.5-1.5-1.5H9V3h41.7v3.3v12v12V41v12V61z M60.4,51.4h-6.7v-9h6.7V51.4z"/>
	</g>
</g>
<g id="floppy">
</g>
<g id="link">
</g>
<g id="link-add">
</g>
<g id="link-remove">
</g>
<g id="table">
</g>
<g id="download-book">
</g>
<g id="clipboard">
</g>
<g id="clipboard-chart">
</g>
<g id="clipboard-text">
</g>
<g id="clipboard-check">
</g>
<g id="clipboard-cross">
</g>
<g id="bookmark">
</g>
<g id="bookmark-add">
</g>
<g id="bookmark-remove">
</g>
<g id="clipboard-horizontal">
</g>
<g id="clipboard-text-horizontal">
</g>
<g id="trash">
</g>
<g id="unlock">
</g>
<g id="lock">
</g>
<g id="link-add-circle">
</g>
<g id="link-remove-circle">
</g>
<g id="sort-up">
</g>
<g id="sort-down">
</g>
<g id="list">
</g>
</svg>
