<?xml version="1.0" encoding="utf-8"?>
<!-- Generator: Adobe Illustrator 20.1.0, SVG Export Plug-In . SVG Version: 6.00 Build 0)  -->
<!DOCTYPE svg PUBLIC "-//W3C//DTD SVG 1.1//EN" "http://www.w3.org/Graphics/SVG/1.1/DTD/svg11.dtd">
<svg version="1.1" xmlns="http://www.w3.org/2000/svg" xmlns:xlink="http://www.w3.org/1999/xlink" x="0px" y="0px"
	 viewBox="0 0 64 64" style="enable-background:new 0 0 64 64;" xml:space="preserve">
<g id="calendar">
</g>
<g id="calendar-check">
</g>
<g id="day">
</g>
<g id="week">
</g>
<g id="time-forward">
</g>
<g id="time-reverse">
</g>
<g id="time">
</g>
<g id="clock">
</g>
<g id="clocks">
</g>
<g id="alarm-clock">
</g>
<g id="alarm-clock-add">
</g>
<g id="alarm-clock-off">
	<g>
		<path d="M63.3,9.2l-8.8-8.8c-0.6-0.6-1.5-0.6-2.1,0c-0.6,0.6-0.6,1.5,0,2.1l8.8,8.8c0.3,0.3,0.7,0.4,1.1,0.4
			c0.4,0,0.8-0.1,1.1-0.4C63.9,10.7,63.9,9.8,63.3,9.2z"/>
		<path d="M32.1,2.5c-7.9,0-15.1,2.9-20.5,7.8L7.7,6.5l3.9-3.9c0.6-0.6,0.6-1.5,0-2.1c-0.6-0.6-1.5-0.6-2.1,0L5.6,4.4L4.5,3.3
			C3.9,2.7,3,2.7,2.4,3.3c-0.6,0.6-0.6,1.5,0,2.1l2.1,2.1v0c0,0,0,0,0,0l4.9,4.9c-5.1,5.5-8.2,12.8-8.2,20.9C1.1,50.2,15,64,32.1,64
			c8.1,0,15.4-3.1,20.9-8.1l6.7,6.7c0.3,0.3,0.7,0.4,1.1,0.4c0.4,0,0.8-0.1,1.1-0.4c0.6-0.6,0.6-1.5,0-2.1l-6.7-6.7
			C60,48.3,63,41.1,63,33.3C63,16.3,49.1,2.5,32.1,2.5z M32.1,61C16.7,61,4.1,48.6,4.1,33.3c0-7.2,2.8-13.8,7.4-18.8l39.4,39.3
			C45.9,58.3,39.3,61,32.1,61z M13.7,12.4C18.6,8.1,25,5.5,32.1,5.5C47.5,5.5,60,18,60,33.3c0,7-2.7,13.5-7,18.4L13.7,12.4z"/>
	</g>
</g>
<g id="alarm-clock-set">
</g>
</svg>
