<?xml version="1.0" encoding="utf-8"?>
<!-- Generator: Adobe Illustrator 20.1.0, SVG Export Plug-In . SVG Version: 6.00 Build 0)  -->
<!DOCTYPE svg PUBLIC "-//W3C//DTD SVG 1.1//EN" "http://www.w3.org/Graphics/SVG/1.1/DTD/svg11.dtd">
<svg version="1.1" xmlns="http://www.w3.org/2000/svg" xmlns:xlink="http://www.w3.org/1999/xlink" x="0px" y="0px"
	 viewBox="0 0 64 64" style="enable-background:new 0 0 64 64;" xml:space="preserve">
<g id="arrow-left-curved">
</g>
<g id="arrow-right-curved">
</g>
<g id="expand">
</g>
<g id="shrink">
</g>
<g id="expand-all">
</g>
<g id="arrows">
</g>
<g id="arrow-up">
</g>
<g id="arrow-down">
</g>
<g id="arrow-left">
</g>
<g id="arrow-right">
</g>
<g id="chevron-up">
</g>
<g id="chevron-down">
</g>
<g id="chevron-left">
</g>
<g id="chevron-right">
</g>
<g id="chevron-up-double">
</g>
<g id="chevron-down-double">
</g>
<g id="chevron-left-double">
</g>
<g id="chevron-right-double">
</g>
<g id="triangle-up">
</g>
<g id="triangle-down">
</g>
<g id="triangle-right">
</g>
<g id="triangle-right_1_">
</g>
<g id="arrow-up-circle">
</g>
<g id="arrow-down-circle">
</g>
<g id="arrow-left-circle">
</g>
<g id="arrow-right-circle">
</g>
<g id="chevron-up-circle">
</g>
<g id="chevron-down-circle">
</g>
<g id="chevron-left-circle">
</g>
<g id="chevron-right-circle">
</g>
<g id="chevron-up-double-circle">
</g>
<g id="chevron-down-double-circle">
</g>
<g id="chevron-left-double-circle">
</g>
<g id="chevron-right-double-circle">
</g>
<g id="arrow-up-box">
</g>
<g id="arrow-down-box">
</g>
<g id="arrow-left-box">
</g>
<g id="arrow-right-box">
</g>
<g id="chevron-up-box">
</g>
<g id="chevron-down-box">
</g>
<g id="chevron-left-box">
</g>
<g id="chevron-right-box">
</g>
<g id="chevron-up-double-box">
</g>
<g id="chevron-down-double-box">
</g>
<g id="chevron-left-double-box">
</g>
<g id="chevron-right-double-box">
</g>
<g id="grid">
</g>
<g id="grid-dots">
</g>
<g id="more-circle">
</g>
<g id="more-vertical-circle">
</g>
<g id="dashbord">
</g>
<g id="dashboard-alt">
</g>
<g id="hamburger">
</g>
<g id="more">
</g>
<g id="more-vertical">
</g>
<g id="login">
</g>
<g id="logout">
</g>
<g id="search">
</g>
<g id="arrow-up-dashed-circle">
</g>
<g id="arrow-down-dashed-circle">
</g>
<g id="arrow-left-dashed-circle">
	<g>
		<path d="M58.8,20.9c0.2,0.6,0.8,0.9,1.4,0.9c0.2,0,0.4,0,0.6-0.1c0.8-0.3,1.1-1.2,0.8-2c-1.6-3.9-4-7.4-7-10.4
			c-0.6-0.6-1.5-0.6-2.1,0s-0.6,1.5,0,2.1C55.2,14.2,57.3,17.3,58.8,20.9z"/>
		<path d="M10.4,11.9c0.4,0,0.8-0.1,1.1-0.4c2.7-2.7,5.9-4.8,9.4-6.3c0.8-0.3,1.1-1.2,0.8-2c-0.3-0.8-1.2-1.1-2-0.8
			c-3.9,1.6-7.4,4-10.4,6.9c-0.6,0.6-0.6,1.5,0,2.1C9.7,11.8,10,11.9,10.4,11.9z"/>
		<path d="M5.2,43.2c-0.3-0.8-1.2-1.1-2-0.8c-0.8,0.3-1.1,1.2-0.8,2c1.6,3.9,4,7.4,7,10.3c0.3,0.3,0.7,0.4,1.1,0.4
			c0.4,0,0.8-0.1,1.1-0.4c0.6-0.6,0.6-1.5,0-2.1C8.8,49.9,6.7,46.7,5.2,43.2z"/>
		<path d="M32,3c3.8,0,7.6,0.7,11.1,2.2c0.2,0.1,0.4,0.1,0.6,0.1c0.6,0,1.1-0.3,1.4-0.9c0.3-0.8,0-1.6-0.8-2C40.3,0.8,36.2,0,32,0h0
			c-0.8,0-1.5,0.7-1.5,1.5S31.2,3,32,3z"/>
		<path d="M3,32.1V32c0-3.8,0.7-7.6,2.2-11.1c0.3-0.8,0-1.6-0.8-2c-0.8-0.3-1.6,0-2,0.8C0.8,23.6,0,27.8,0,32v0.1
			c0,0.8,0.7,1.5,1.5,1.5S3,33,3,32.1z"/>
		<path d="M64,31.9c0-0.8-0.7-1.5-1.5-1.5c-0.8,0-1.5,0.7-1.5,1.5c0,3.8-0.7,7.5-2.2,11c-0.3,0.8,0,1.6,0.8,2
			c0.2,0.1,0.4,0.1,0.6,0.1c0.6,0,1.1-0.4,1.4-0.9C63.2,40.3,64,36.2,64,31.9h-1.5H64z"/>
		<path d="M32,61c-3.8,0-7.5-0.7-11-2.2c-0.8-0.3-1.6,0.1-2,0.8c-0.3,0.8,0.1,1.6,0.8,2C23.7,63.2,27.8,64,32,64l0.1-1.5V64
			c0.8,0,1.5-0.7,1.5-1.5C33.6,61.7,32.8,61,32,61z"/>
		<path d="M52.6,52.5c-2.7,2.7-5.9,4.8-9.4,6.3c-0.8,0.3-1.1,1.2-0.8,2c0.2,0.6,0.8,0.9,1.4,0.9c0.2,0,0.4,0,0.6-0.1
			c3.9-1.6,7.4-4,10.4-7c0.6-0.6,0.6-1.5,0-2.1C54.1,51.9,53.2,51.9,52.6,52.5z"/>
		<path d="M29.6,45.6c0.3,0.3,0.6,0.4,1,0.4c0.4,0,0.8-0.2,1.1-0.5c0.6-0.6,0.5-1.6-0.1-2.1l-10.9-9.8l26.6,0c0.8,0,1.5-0.7,1.5-1.5
			c0-0.8-0.7-1.5-1.5-1.5c0,0,0,0,0,0l-26.7,0l11-9.9c0.6-0.6,0.7-1.5,0.1-2.1c-0.6-0.6-1.5-0.7-2.1-0.1L15.8,30.9
			c-0.3,0.3-0.5,0.7-0.5,1.1c0,0,0,0,0,0c0,0,0,0,0,0c0,0.6,0.3,1,0.8,1.3L29.6,45.6z"/>
	</g>
</g>
<g id="arrow-right-dashed-circle">
</g>
<g id="chevron-up-dashed-circle">
</g>
<g id="chevron-down-dashed-circle">
</g>
<g id="chevron-left-dashed-circle">
</g>
<g id="chevron-right-dashed-circle">
</g>
<g id="chevron-up-double-dashed-circle">
</g>
<g id="chevron-down-double-dashed-circle">
</g>
<g id="chevron-left-double-dashed-circle">
</g>
<g id="chevron-right-double-dashed-circle">
</g>
</svg>
