<?xml version="1.0" encoding="utf-8"?>
<!-- Generator: Adobe Illustrator 20.1.0, SVG Export Plug-In . SVG Version: 6.00 Build 0)  -->
<!DOCTYPE svg PUBLIC "-//W3C//DTD SVG 1.1//EN" "http://www.w3.org/Graphics/SVG/1.1/DTD/svg11.dtd">
<svg version="1.1" xmlns="http://www.w3.org/2000/svg" xmlns:xlink="http://www.w3.org/1999/xlink" x="0px" y="0px"
	 viewBox="0 0 64 64" style="enable-background:new 0 0 64 64;" xml:space="preserve">
<g id="arrow-left-curved">
</g>
<g id="arrow-right-curved">
</g>
<g id="expand">
</g>
<g id="shrink">
</g>
<g id="expand-all">
</g>
<g id="arrows">
</g>
<g id="arrow-up">
</g>
<g id="arrow-down">
</g>
<g id="arrow-left">
</g>
<g id="arrow-right">
	<path d="M64,31.9c0-0.6-0.4-1.1-0.9-1.4L35.8,5c-0.6-0.6-1.6-0.5-2.1,0.1c-0.6,0.6-0.5,1.6,0.1,2.1l24.8,23.2L1.5,30.5
		C0.7,30.5,0,31.2,0,32c0,0.8,0.7,1.5,1.5,1.5c0,0,0,0,0,0l57.3-0.1L33.7,56.8c-0.6,0.6-0.6,1.5-0.1,2.1c0.3,0.3,0.7,0.5,1.1,0.5
		c0.4,0,0.7-0.1,1-0.4l27.7-25.9c0.3-0.3,0.5-0.7,0.5-1.1C64,32,64,32,64,31.9C64,31.9,64,31.9,64,31.9z"/>
</g>
<g id="chevron-up">
</g>
<g id="chevron-down">
</g>
<g id="chevron-left">
</g>
<g id="chevron-right">
</g>
<g id="chevron-up-double">
</g>
<g id="chevron-down-double">
</g>
<g id="chevron-left-double">
</g>
<g id="chevron-right-double">
</g>
<g id="triangle-up">
</g>
<g id="triangle-down">
</g>
<g id="triangle-right">
</g>
<g id="triangle-right_1_">
</g>
<g id="arrow-up-circle">
</g>
<g id="arrow-down-circle">
</g>
<g id="arrow-left-circle">
</g>
<g id="arrow-right-circle">
</g>
<g id="chevron-up-circle">
</g>
<g id="chevron-down-circle">
</g>
<g id="chevron-left-circle">
</g>
<g id="chevron-right-circle">
</g>
<g id="chevron-up-double-circle">
</g>
<g id="chevron-down-double-circle">
</g>
<g id="chevron-left-double-circle">
</g>
<g id="chevron-right-double-circle">
</g>
<g id="arrow-up-box">
</g>
<g id="arrow-down-box">
</g>
<g id="arrow-left-box">
</g>
<g id="arrow-right-box">
</g>
<g id="chevron-up-box">
</g>
<g id="chevron-down-box">
</g>
<g id="chevron-left-box">
</g>
<g id="chevron-right-box">
</g>
<g id="chevron-up-double-box">
</g>
<g id="chevron-down-double-box">
</g>
<g id="chevron-left-double-box">
</g>
<g id="chevron-right-double-box">
</g>
<g id="grid">
</g>
<g id="grid-dots">
</g>
<g id="more-circle">
</g>
<g id="more-vertical-circle">
</g>
<g id="dashbord">
</g>
<g id="dashboard-alt">
</g>
<g id="hamburger">
</g>
<g id="more">
</g>
<g id="more-vertical">
</g>
<g id="login">
</g>
<g id="logout">
</g>
<g id="search">
</g>
<g id="arrow-up-dashed-circle">
</g>
<g id="arrow-down-dashed-circle">
</g>
<g id="arrow-left-dashed-circle">
</g>
<g id="arrow-right-dashed-circle">
</g>
<g id="chevron-up-dashed-circle">
</g>
<g id="chevron-down-dashed-circle">
</g>
<g id="chevron-left-dashed-circle">
</g>
<g id="chevron-right-dashed-circle">
</g>
<g id="chevron-up-double-dashed-circle">
</g>
<g id="chevron-down-double-dashed-circle">
</g>
<g id="chevron-left-double-dashed-circle">
</g>
<g id="chevron-right-double-dashed-circle">
</g>
</svg>
