<?xml version="1.0" encoding="utf-8"?>
<!-- Generator: Adobe Illustrator 20.1.0, SVG Export Plug-In . SVG Version: 6.00 Build 0)  -->
<!DOCTYPE svg PUBLIC "-//W3C//DTD SVG 1.1//EN" "http://www.w3.org/Graphics/SVG/1.1/DTD/svg11.dtd">
<svg version="1.1" xmlns="http://www.w3.org/2000/svg" xmlns:xlink="http://www.w3.org/1999/xlink" x="0px" y="0px"
	 viewBox="0 0 64 64" style="enable-background:new 0 0 64 64;" xml:space="preserve">
<g id="calendar">
</g>
<g id="calendar-check">
</g>
<g id="day">
</g>
<g id="week">
</g>
<g id="time-forward">
</g>
<g id="time-reverse">
</g>
<g id="time">
</g>
<g id="clock">
</g>
<g id="clocks">
</g>
<g id="alarm-clock">
</g>
<g id="alarm-clock-add">
	<g>
		<path d="M63.3,9.2l-8.8-8.8c-0.6-0.6-1.5-0.6-2.1,0c-0.6,0.6-0.6,1.5,0,2.1l8.8,8.8c0.3,0.3,0.7,0.4,1.1,0.4
			c0.4,0,0.8-0.1,1.1-0.4C63.9,10.7,63.9,9.8,63.3,9.2z"/>
		<path d="M2.8,11.3l8.8-8.8c0.6-0.6,0.6-1.5,0-2.1c-0.6-0.6-1.5-0.6-2.1,0L0.7,9.2c-0.6,0.6-0.6,1.5,0,2.1c0.3,0.3,0.7,0.4,1.1,0.4
			C2.1,11.8,2.5,11.6,2.8,11.3z"/>
		<path d="M32.1,2.5C15,2.5,1.1,16.3,1.1,33.3S15,64,32.1,64S63,50.2,63,33.3S49.1,2.5,32.1,2.5z M32.1,61
			C16.7,61,4.1,48.6,4.1,33.3S16.7,5.5,32.1,5.5S60,18,60,33.3S47.5,61,32.1,61z"/>
		<path d="M45.5,30.8h-12v-12c0-0.8-0.7-1.5-1.5-1.5s-1.5,0.7-1.5,1.5v12h-12c-0.8,0-1.5,0.7-1.5,1.5s0.7,1.5,1.5,1.5h12v12
			c0,0.8,0.7,1.5,1.5,1.5s1.5-0.7,1.5-1.5v-12h12c0.8,0,1.5-0.7,1.5-1.5S46.3,30.8,45.5,30.8z"/>
	</g>
</g>
<g id="alarm-clock-off">
</g>
<g id="alarm-clock-set">
</g>
</svg>
