<?xml version="1.0" encoding="utf-8"?>
<!-- Generator: Adobe Illustrator 20.1.0, SVG Export Plug-In . SVG Version: 6.00 Build 0)  -->
<!DOCTYPE svg PUBLIC "-//W3C//DTD SVG 1.1//EN" "http://www.w3.org/Graphics/SVG/1.1/DTD/svg11.dtd">
<svg version="1.1" xmlns="http://www.w3.org/2000/svg" xmlns:xlink="http://www.w3.org/1999/xlink" x="0px" y="0px"
	 viewBox="0 0 64 64" style="enable-background:new 0 0 64 64;" xml:space="preserve">
<g id="behance">
</g>
<g id="twitter">
</g>
<g id="vimeo">
</g>
<g id="wordpress">
</g>
<g id="Layer_179">
</g>
<g id="xing">
</g>
<g id="youtube">
</g>
<g id="whatsapp">
</g>
<g id="flickr">
</g>
<g id="dribbble">
</g>
<g id="facebook">
</g>
<g id="foursquare">
</g>
<g id="github">
</g>
<g id="github-alt">
</g>
<g id="google-plus">
</g>
<g id="google">
</g>
<g id="joomla">
</g>
<g id="soundcloud">
</g>
<g id="instagram">
</g>
<g id="linkedin">
</g>
<g id="pagekit">
</g>
<g id="pinterest">
</g>
<g id="windows">
</g>
<g id="bronzelabs">
</g>
<g id="apple">
	<g>
		<path d="M51.6,41.4c-1.7-2.4-2.5-5.1-2.5-8.1c0-2.7,0.8-5.3,2.4-7.5c0.8-1.2,2.2-2.7,4.2-4.3c-1.3-1.6-2.5-2.8-3.8-3.6
			c-2.3-1.6-4.9-2.4-7.8-2.4c-1.7,0-3.8,0.4-6.3,1.2c-2.4,0.8-4.1,1.2-5.2,1.2c-0.8,0-2.5-0.4-5-1.1c-2.5-0.7-4.7-1.1-6.4-1.1
			c-4.2,0-7.6,1.7-10.3,5.2C8,24.5,6.6,29,6.6,34.5c0,5.9,1.8,12,5.4,18.3c3.6,6.3,7.3,9.4,11,9.4c1.2,0,2.8-0.4,4.8-1.2
			c2-0.8,3.7-1.2,5.2-1.2c1.6,0,3.4,0.4,5.5,1.2c2.2,0.8,3.9,1.2,5.1,1.2c3.1,0,6.2-2.4,9.4-7.1c2-3,3.5-6.1,4.5-9.1
			C55.2,45.3,53.3,43.8,51.6,41.4z"/>
		<path d="M39.2,13.2c1.5-1.5,2.7-3.2,3.4-5c0.7-1.8,1.1-3.5,1.1-5c0-0.1,0-0.2,0-0.4c0-0.1,0-0.3,0-0.4c0-0.1-0.1-0.2-0.1-0.4
			c0-0.2-0.1-0.3-0.1-0.4c-4.3,1-7.3,2.8-9.1,5.4c-1.8,2.6-2.8,5.7-2.8,9.4c1.6-0.1,2.9-0.4,3.8-0.6C36.6,15.4,37.9,14.5,39.2,13.2z
			"/>
	</g>
</g>
<g id="android">
</g>
<g id="mwkr-alt">
</g>
<g id="mwkr">
</g>
<g id="deviantart">
</g>
<g id="deviantart-alt">
</g>
</svg>
