<?xml version="1.0" encoding="utf-8"?>
<!-- Generator: Adobe Illustrator 20.1.0, SVG Export Plug-In . SVG Version: 6.00 Build 0)  -->
<!DOCTYPE svg PUBLIC "-//W3C//DTD SVG 1.1//EN" "http://www.w3.org/Graphics/SVG/1.1/DTD/svg11.dtd">
<svg version="1.1" xmlns="http://www.w3.org/2000/svg" xmlns:xlink="http://www.w3.org/1999/xlink" x="0px" y="0px"
	 viewBox="0 0 64 64" style="enable-background:new 0 0 64 64;" xml:space="preserve">
<g id="user">
</g>
<g id="users">
</g>
<g id="comment">
</g>
<g id="commenting">
</g>
<g id="comments">
</g>
<g id="comments-alt">
</g>
<g id="commenting-alt">
</g>
<g id="comment-alt">
</g>
<g id="face-happy">
</g>
<g id="face-ok">
</g>
<g id="face-unhappy">
</g>
<g id="mail">
</g>
<g id="phone">
</g>
<g id="fingerprint">
</g>
<g id="info">
</g>
<g id="question">
</g>
<g id="warning">
</g>
<g id="alert">
	<g>
		<ellipse cx="32" cy="46.9" rx="2.7" ry="2.7"/>
		<path d="M32,22.5c-1.4,0.1-2.6,1.2-2.6,2.7c0,0-0.2,1.5,0,4.7c0.4,4.9,1.1,9.7,1.1,9.7c0.2,1.6,0.7,1.9,1.5,1.9
			c0.8,0,1.4-0.4,1.5-1.9c0,0,0.8-4.7,1.1-9.7c0.2-3.2,0-4.7,0-4.7C34.6,23.7,33.4,22.5,32,22.5z"/>
		<path d="M63.5,54.8C63.5,54.8,63.5,54.8,63.5,54.8L35.2,5.1C34.6,4,33.3,3.2,32,3.2c-1.3,0-2.6,0.7-3.2,1.9L0.5,54.8
			c-0.7,1.1-0.6,2.8,0,3.9c0.6,1,1.7,2.1,3.2,2.1h56.6c1.5,0,2.6-1.1,3.2-2.1C64.2,57.6,64.2,55.9,63.5,54.8z M60.9,57.2
			c-0.2,0.4-0.5,0.6-0.6,0.6l-56.6,0c-0.1,0-0.4-0.2-0.6-0.6c-0.1-0.2-0.1-0.7,0-0.9L31.4,6.6c0.1-0.2,0.4-0.4,0.6-0.4
			c0.3,0,0.5,0.1,0.6,0.4l28.3,49.7C61.1,56.5,61,57,60.9,57.2z"/>
	</g>
</g>
<g id="headset">
</g>
<g id="skull">
</g>
<g id="baby">
</g>
<g id="eye">
</g>
<g id="id-card">
</g>
<g id="microphone">
</g>
<g id="eye-cross">
</g>
<g id="user-commenting">
</g>
<g id="user-commenting-alt">
</g>
<g id="user-file">
</g>
<g id="user-check">
</g>
<g id="tap">
</g>
<g id="swipe">
</g>
<g id="slide">
</g>
<g id="foot">
</g>
<g id="share-social">
</g>
<g id="ghost">
</g>
</svg>
