<?xml version="1.0" encoding="utf-8"?>
<!-- Generator: Adobe Illustrator 20.1.0, SVG Export Plug-In . SVG Version: 6.00 Build 0)  -->
<!DOCTYPE svg PUBLIC "-//W3C//DTD SVG 1.1//EN" "http://www.w3.org/Graphics/SVG/1.1/DTD/svg11.dtd">
<svg version="1.1" xmlns="http://www.w3.org/2000/svg" xmlns:xlink="http://www.w3.org/1999/xlink" x="0px" y="0px"
	 viewBox="0 0 64 64" style="enable-background:new 0 0 64 64;" xml:space="preserve">
<g id="arrow-left-curved">
</g>
<g id="arrow-right-curved">
</g>
<g id="expand">
</g>
<g id="shrink">
</g>
<g id="expand-all">
</g>
<g id="arrows">
</g>
<g id="arrow-up">
</g>
<g id="arrow-down">
</g>
<g id="arrow-left">
</g>
<g id="arrow-right">
</g>
<g id="chevron-up">
</g>
<g id="chevron-down">
</g>
<g id="chevron-left">
</g>
<g id="chevron-right">
</g>
<g id="chevron-up-double">
</g>
<g id="chevron-down-double">
</g>
<g id="chevron-left-double">
</g>
<g id="chevron-right-double">
</g>
<g id="triangle-up">
</g>
<g id="triangle-down">
</g>
<g id="triangle-right">
</g>
<g id="triangle-right_1_">
</g>
<g id="arrow-up-circle">
</g>
<g id="arrow-down-circle">
</g>
<g id="arrow-left-circle">
</g>
<g id="arrow-right-circle">
</g>
<g id="chevron-up-circle">
</g>
<g id="chevron-down-circle">
</g>
<g id="chevron-left-circle">
</g>
<g id="chevron-right-circle">
</g>
<g id="chevron-up-double-circle">
</g>
<g id="chevron-down-double-circle">
</g>
<g id="chevron-left-double-circle">
</g>
<g id="chevron-right-double-circle">
</g>
<g id="arrow-up-box">
</g>
<g id="arrow-down-box">
</g>
<g id="arrow-left-box">
</g>
<g id="arrow-right-box">
</g>
<g id="chevron-up-box">
</g>
<g id="chevron-down-box">
</g>
<g id="chevron-left-box">
</g>
<g id="chevron-right-box">
</g>
<g id="chevron-up-double-box">
</g>
<g id="chevron-down-double-box">
</g>
<g id="chevron-left-double-box">
</g>
<g id="chevron-right-double-box">
</g>
<g id="grid">
</g>
<g id="grid-dots">
</g>
<g id="more-circle">
</g>
<g id="more-vertical-circle">
</g>
<g id="dashbord">
</g>
<g id="dashboard-alt">
</g>
<g id="hamburger">
</g>
<g id="more">
</g>
<g id="more-vertical">
</g>
<g id="login">
</g>
<g id="logout">
</g>
<g id="search">
</g>
<g id="arrow-up-dashed-circle">
</g>
<g id="arrow-down-dashed-circle">
	<g>
		<path d="M3,32c0-3.8,0.7-7.6,2.2-11.1c0.3-0.8,0-1.6-0.8-2c-0.8-0.3-1.6,0-2,0.8C0.8,23.7,0,27.8,0,32v0c0,0.8,0.7,1.5,1.5,1.5
			S3,32.8,3,32z"/>
		<path d="M32,3c3.8,0,7.5,0.7,11,2.2c0.2,0.1,0.4,0.1,0.6,0.1c0.6,0,1.1-0.4,1.4-0.9c0.3-0.8,0-1.6-0.8-2C40.3,0.8,36.2,0,32,0
			h-0.1c-0.8,0-1.5,0.7-1.5,1.5S31.2,3,32,3z"/>
		<path d="M10.4,12c0.4,0,0.8-0.1,1.1-0.4c2.7-2.7,5.9-4.8,9.4-6.3c0.8-0.3,1.1-1.2,0.8-2c-0.3-0.8-1.2-1.1-2-0.8
			c-3.9,1.6-7.4,4-10.4,7c-0.6,0.6-0.6,1.5,0,2.1C9.6,11.8,10,12,10.4,12z"/>
		<path d="M58.8,20.8c0.2,0.6,0.8,0.9,1.4,0.9c0.2,0,0.4,0,0.6-0.1c0.8-0.3,1.1-1.2,0.8-2c-1.6-3.9-4-7.4-7-10.4
			c-0.6-0.6-1.5-0.6-2.1,0c-0.6,0.6-0.6,1.5,0,2.1C55.2,14.1,57.3,17.3,58.8,20.8z"/>
		<path d="M52.6,52.4c-2.7,2.7-5.9,4.8-9.4,6.3c-0.8,0.3-1.1,1.2-0.8,2c0.2,0.6,0.8,0.9,1.4,0.9c0.2,0,0.4,0,0.6-0.1
			c3.9-1.6,7.4-4,10.4-7c0.6-0.6,0.6-1.5,0-2.1C54.1,51.8,53.2,51.8,52.6,52.4z"/>
		<path d="M62.5,30.5c-0.8,0-1.5,0.7-1.5,1.5c0,3.8-0.7,7.5-2.2,11c-0.3,0.8,0.1,1.6,0.8,2c0.2,0.1,0.4,0.1,0.6,0.1
			c0.6,0,1.2-0.4,1.4-0.9C63.2,40.3,64,36.2,64,32v-0.1C64,31.1,63.4,30.5,62.5,30.5z"/>
		<path d="M32.1,61L32,61c-3.8,0-7.6-0.7-11.1-2.2c-0.8-0.3-1.6,0-2,0.8c-0.3,0.8,0,1.6,0.8,2c3.9,1.6,8,2.4,12.3,2.4l0.1,0
			c0.8,0,1.5-0.7,1.5-1.5S33,61,32.1,61z"/>
		<path d="M5.2,43.1c-0.3-0.8-1.2-1.1-2-0.8c-0.8,0.3-1.1,1.2-0.8,2c1.6,3.9,4,7.4,7,10.4c0.3,0.3,0.7,0.4,1.1,0.4s0.8-0.1,1.1-0.4
			c0.6-0.6,0.6-1.5,0-2.1C8.8,49.8,6.7,46.6,5.2,43.1z"/>
		<path d="M31,48.3c0,0,0.1,0.1,0.1,0.1c0,0,0.1,0.1,0.1,0.1c0.1,0,0.1,0.1,0.2,0.1c0,0,0.1,0,0.1,0c0.1,0,0.1,0.1,0.2,0.1
			c0,0,0,0,0.1,0c0.1,0,0.2,0,0.3,0c0,0,0,0,0,0c0,0,0,0,0,0c0.4,0,0.7-0.1,1-0.4c0,0,0.1,0,0.1-0.1c0,0,0,0,0,0l12.4-13.9
			c0.6-0.6,0.5-1.6-0.1-2.1c-0.6-0.6-1.6-0.5-2.1,0.1l-9.8,11l0-26.6c0-0.8-0.7-1.5-1.5-1.5c0,0,0,0,0,0c-0.8,0-1.5,0.7-1.5,1.5
			l0,26.6l-9.9-11c-0.6-0.6-1.5-0.7-2.1-0.1c-0.6,0.6-0.7,1.5-0.1,2.1L31,48.3C31,48.3,31,48.3,31,48.3z"/>
	</g>
</g>
<g id="arrow-left-dashed-circle">
</g>
<g id="arrow-right-dashed-circle">
</g>
<g id="chevron-up-dashed-circle">
</g>
<g id="chevron-down-dashed-circle">
</g>
<g id="chevron-left-dashed-circle">
</g>
<g id="chevron-right-dashed-circle">
</g>
<g id="chevron-up-double-dashed-circle">
</g>
<g id="chevron-down-double-dashed-circle">
</g>
<g id="chevron-left-double-dashed-circle">
</g>
<g id="chevron-right-double-dashed-circle">
</g>
</svg>
