<?xml version="1.0" encoding="utf-8"?>
<!-- Generator: Adobe Illustrator 20.1.0, SVG Export Plug-In . SVG Version: 6.00 Build 0)  -->
<!DOCTYPE svg PUBLIC "-//W3C//DTD SVG 1.1//EN" "http://www.w3.org/Graphics/SVG/1.1/DTD/svg11.dtd">
<svg version="1.1" xmlns="http://www.w3.org/2000/svg" xmlns:xlink="http://www.w3.org/1999/xlink" x="0px" y="0px"
	 viewBox="0 0 64.2 64" style="enable-background:new 0 0 64.2 64;" xml:space="preserve">
<g id="check">
</g>
<g id="check-done">
</g>
<g id="close">
</g>
<g id="plus">
</g>
<g id="minus">
</g>
<g id="divide">
</g>
<g id="equal">
</g>
<g id="asterisk">
</g>
<g id="check-circle">
</g>
<g id="close-circle">
</g>
<g id="plus-circle">
</g>
<g id="minus-circle">
</g>
<g id="divide-circle">
</g>
<g id="equal-circle">
</g>
<g id="asterisk-circle">
	<g>
		<path d="M32.1,0C14.4,0,0,14.4,0,32s14.4,32,32.1,32s32.1-14.4,32.1-32S49.8,0,32.1,0z M32.1,61C16,61,3,48,3,32S16,3,32.1,3
			s29.1,13,29.1,29S48.1,61,32.1,61z"/>
		<path d="M46.8,23.9c-0.4-0.7-1.3-1-2-0.6l-11.7,6.4V17c0-0.8-0.7-1.5-1.5-1.5s-1.5,0.7-1.5,1.5v12.2l-10.7-5.9
			c-0.7-0.4-1.6-0.1-2,0.6c-0.4,0.7-0.1,1.6,0.6,2l11,6l-11,6c-0.7,0.4-1,1.3-0.6,2c0.3,0.5,0.8,0.8,1.3,0.8c0.2,0,0.5-0.1,0.7-0.2
			l10.7-5.9V47c0,0.8,0.7,1.5,1.5,1.5s1.5-0.7,1.5-1.5V34.3l11.7,6.4c0.2,0.1,0.5,0.2,0.7,0.2c0.5,0,1-0.3,1.3-0.8
			c0.4-0.7,0.1-1.6-0.6-2l-11-6l11-6C46.9,25.6,47.2,24.7,46.8,23.9z"/>
	</g>
</g>
<g id="check-box">
</g>
<g id="close-box">
</g>
<g id="plus-box">
</g>
<g id="minus-box">
</g>
<g id="divide-box">
</g>
<g id="equal-box">
</g>
<g id="asterisk-box">
</g>
</svg>
