<?xml version="1.0" encoding="utf-8"?>
<!-- Generator: Adobe Illustrator 20.1.0, SVG Export Plug-In . SVG Version: 6.00 Build 0)  -->
<!DOCTYPE svg PUBLIC "-//W3C//DTD SVG 1.1//EN" "http://www.w3.org/Graphics/SVG/1.1/DTD/svg11.dtd">
<svg version="1.1" id="Layer_1" xmlns="http://www.w3.org/2000/svg" xmlns:xlink="http://www.w3.org/1999/xlink" x="0px" y="0px"
	 viewBox="0 0 64 64" style="enable-background:new 0 0 64 64;" xml:space="preserve">
<path d="M62.4,52.2l-3.3-10.5c-0.2-0.8-1.1-1.2-1.9-1L46.7,44c-0.8,0.2-1.2,1.1-1,1.9s1.1,1.2,1.9,1l7.9-2.5
	c-3.3,9.3-11.9,15.7-21.8,16.3l-0.1-41.5c4.6-0.7,8.2-4.7,8.2-9.5C41.7,4.3,37.4,0,32,0c-5.4,0-9.7,4.3-9.7,9.7
	c0,4.8,3.6,8.8,8.2,9.5l0.1,41.5c-9.9-0.6-18.5-7-21.8-16.2l7.6,2.4c0.8,0.2,1.6-0.2,1.9-1c0.2-0.8-0.2-1.6-1-1.9L6.8,40.7
	c-0.8-0.2-1.6,0.2-1.9,1L1.6,52.2c-0.2,0.8,0.2,1.6,1,1.9c0.1,0,0.3,0.1,0.4,0.1c0.6,0,1.2-0.4,1.4-1.1l2-6.3
	C10.7,57,20.8,64,32.2,64c0,0,0,0,0,0c0,0,0,0,0,0c11.2,0,21.1-6.8,25.5-16.8l1.9,6c0.2,0.6,0.8,1,1.4,1c0.1,0,0.3,0,0.4-0.1
	C62.2,53.8,62.6,53,62.4,52.2z M25.3,9.7C25.3,6,28.3,3,32,3c3.7,0,6.7,3,6.7,6.7s-3,6.7-6.7,6.7C28.3,16.3,25.3,13.3,25.3,9.7z"/>
</svg>
