<?xml version="1.0" encoding="utf-8"?>
<!-- Generator: Adobe Illustrator 20.1.0, SVG Export Plug-In . SVG Version: 6.00 Build 0)  -->
<!DOCTYPE svg PUBLIC "-//W3C//DTD SVG 1.1//EN" "http://www.w3.org/Graphics/SVG/1.1/DTD/svg11.dtd">
<svg version="1.1" xmlns="http://www.w3.org/2000/svg" xmlns:xlink="http://www.w3.org/1999/xlink" x="0px" y="0px"
	 viewBox="0 0 64 64" style="enable-background:new 0 0 64 64;" xml:space="preserve">
<g id="arrow-left-curved">
</g>
<g id="arrow-right-curved">
	<path d="M63.8,29.2C63.9,29.1,63.9,29.1,63.8,29.2c0.1-0.1,0.1-0.2,0.1-0.3c0,0,0,0,0,0c0-0.1,0-0.2,0-0.3c0,0,0,0,0,0c0,0,0,0,0,0
		c0,0,0-0.1,0-0.1c0-0.1,0-0.1,0-0.2c0,0,0-0.1,0-0.1c0-0.1,0-0.1-0.1-0.2c0,0,0-0.1,0-0.1c0-0.1-0.1-0.1-0.1-0.2c0,0,0-0.1-0.1-0.1
		c0,0-0.1-0.1-0.1-0.1c0,0,0,0,0,0L40.1,5.7c-0.6-0.6-1.6-0.5-2.1,0.1c-0.6,0.6-0.5,1.6,0.1,2.1L58.6,27c-3.6,0-10.2,0-22,0
		c-9.2,0-18.4,5.2-26.8,14.9c-6.2,7.3-9.6,14.4-9.8,14.7c-0.4,0.7,0,1.6,0.7,2c0.2,0.1,0.4,0.1,0.6,0.1c0.6,0,1.1-0.3,1.4-0.9
		C3,57.6,16.5,29.9,36.7,29.9c11.7,0,18.4,0,22,0L38,48.9c-0.6,0.6-0.7,1.5-0.1,2.1c0.3,0.3,0.7,0.5,1.1,0.5c0.4,0,0.7-0.1,1-0.4
		l23.5-21.5c0,0,0,0,0,0c0,0,0.1-0.1,0.1-0.1c0,0,0-0.1,0.1-0.1C63.8,29.3,63.8,29.2,63.8,29.2z"/>
</g>
<g id="expand">
</g>
<g id="shrink">
</g>
<g id="expand-all">
</g>
<g id="arrows">
</g>
<g id="arrow-up">
</g>
<g id="arrow-down">
</g>
<g id="arrow-left">
</g>
<g id="arrow-right">
</g>
<g id="chevron-up">
</g>
<g id="chevron-down">
</g>
<g id="chevron-left">
</g>
<g id="chevron-right">
</g>
<g id="chevron-up-double">
</g>
<g id="chevron-down-double">
</g>
<g id="chevron-left-double">
</g>
<g id="chevron-right-double">
</g>
<g id="triangle-up">
</g>
<g id="triangle-down">
</g>
<g id="triangle-right">
</g>
<g id="triangle-right_1_">
</g>
<g id="arrow-up-circle">
</g>
<g id="arrow-down-circle">
</g>
<g id="arrow-left-circle">
</g>
<g id="arrow-right-circle">
</g>
<g id="chevron-up-circle">
</g>
<g id="chevron-down-circle">
</g>
<g id="chevron-left-circle">
</g>
<g id="chevron-right-circle">
</g>
<g id="chevron-up-double-circle">
</g>
<g id="chevron-down-double-circle">
</g>
<g id="chevron-left-double-circle">
</g>
<g id="chevron-right-double-circle">
</g>
<g id="arrow-up-box">
</g>
<g id="arrow-down-box">
</g>
<g id="arrow-left-box">
</g>
<g id="arrow-right-box">
</g>
<g id="chevron-up-box">
</g>
<g id="chevron-down-box">
</g>
<g id="chevron-left-box">
</g>
<g id="chevron-right-box">
</g>
<g id="chevron-up-double-box">
</g>
<g id="chevron-down-double-box">
</g>
<g id="chevron-left-double-box">
</g>
<g id="chevron-right-double-box">
</g>
<g id="grid">
</g>
<g id="grid-dots">
</g>
<g id="more-circle">
</g>
<g id="more-vertical-circle">
</g>
<g id="dashbord">
</g>
<g id="dashboard-alt">
</g>
<g id="hamburger">
</g>
<g id="more">
</g>
<g id="more-vertical">
</g>
<g id="login">
</g>
<g id="logout">
</g>
<g id="search">
</g>
<g id="arrow-up-dashed-circle">
</g>
<g id="arrow-down-dashed-circle">
</g>
<g id="arrow-left-dashed-circle">
</g>
<g id="arrow-right-dashed-circle">
</g>
<g id="chevron-up-dashed-circle">
</g>
<g id="chevron-down-dashed-circle">
</g>
<g id="chevron-left-dashed-circle">
</g>
<g id="chevron-right-dashed-circle">
</g>
<g id="chevron-up-double-dashed-circle">
</g>
<g id="chevron-down-double-dashed-circle">
</g>
<g id="chevron-left-double-dashed-circle">
</g>
<g id="chevron-right-double-dashed-circle">
</g>
</svg>
