<?xml version="1.0" encoding="utf-8"?>
<!-- Generator: Adobe Illustrator 20.1.0, SVG Export Plug-In . SVG Version: 6.00 Build 0)  -->
<!DOCTYPE svg PUBLIC "-//W3C//DTD SVG 1.1//EN" "http://www.w3.org/Graphics/SVG/1.1/DTD/svg11.dtd">
<svg version="1.1" xmlns="http://www.w3.org/2000/svg" xmlns:xlink="http://www.w3.org/1999/xlink" x="0px" y="0px"
	 viewBox="0 0 64 64" style="enable-background:new 0 0 64 64;" xml:space="preserve">
<g id="bulb">
</g>
<g id="bulb-on">
</g>
<g id="bulb-alt">
</g>
<g id="bulb-on-alt">
</g>
<g id="energy-bulb">
</g>
<g id="toasting">
</g>
<g id="toasted">
</g>
<g id="binoculars">
</g>
<g id="gift">
</g>
<g id="shaver">
</g>
<g id="candle">
</g>
<g id="shower">
</g>
<g id="bomb">
</g>
<g id="joystick">
</g>
<g id="megaphone">
</g>
<g id="chestdraw">
</g>
<g id="armchair">
	<g>
		<path d="M57,31.3c-1.5,0-3,0.3-4.4,0.9l1.9-12.7c0.8-5-0.6-9.7-3.8-13.4C47.5,2.2,42.6,0,37.3,0H26.7c-5.3,0-10.3,2.2-13.6,6.1
			C10,9.8,8.6,14.5,9.4,19.5l1.9,12.8c-1.4-0.6-2.9-1-4.4-1c-4.2,0-6.9,4-6.9,6.8c0,2.8,1.8,5.6,4.3,6.7c0.2,0.1,0.3,0.1,0.5,0.2
			c1.4,0.6,1.9,0.9,1.9,1.6v5.3c0,6.1,3.1,9.5,8.4,9.5h0v1.2c0,0.8,0.7,1.5,1.5,1.5s1.5-0.7,1.5-1.5v-1.2h27.7v1.2
			c0,0.8,0.7,1.5,1.5,1.5s1.5-0.7,1.5-1.5v-1.2h0c5.4,0,8.4-3.5,8.4-9.5v-5.3c0-0.7,0.5-1,2-1.6c0.2-0.1,0.4-0.1,0.5-0.2
			c2.4-1,4.2-3.8,4.2-6.7C64,35,60.9,31.3,57,31.3z M12.4,19c-0.6-4.1,0.5-8,3.1-11c2.7-3.2,6.8-5,11.3-5h10.6c4.4,0,8.6,1.8,11.3,5
			c2.6,3,3.7,7,3.1,11l-2.3,15.4c-2.1,2-3.5,4.8-3.5,7.9v1.8c-2.3-0.9-6.6-1.9-13.9-1.9s-11.5,1-13.9,1.9v-1.8c0-3-1.4-5.8-3.5-7.8
			L12.4,19z M58.6,42c-0.1,0.1-0.3,0.1-0.4,0.2c-1.4,0.5-3.9,1.5-3.9,4.4v5.3c0,4.4-1.8,6.5-5.4,6.5H15.1c-3.7,0-5.4-2.1-5.4-6.5
			v-5.3c0-2.9-2.5-3.9-3.8-4.4C5.7,42.1,5.5,42,5.4,42C4.1,41.4,3,39.7,3,38.1c0-1.3,1.6-3.8,3.9-3.8c4.4,0,8.2,3.7,8.2,8v4.2
			c0,0.6,0.3,1.1,0.8,1.3c0.5,0.3,1.1,0.2,1.6-0.2c0,0,3.4-2.5,14.4-2.5s14.4,2.5,14.4,2.5c0.4,0.4,1.1,0.4,1.6,0.2
			c0.5-0.2,0.9-0.8,0.9-1.4v-4.2c0-4.3,3.8-8,8.2-8c2.3,0,4,2.5,4,3.8C61,39.7,60,41.4,58.6,42z"/>
		<path d="M23.5,27.5c0.3,0.3,0.7,0.4,1.1,0.4c0.4,0,0.8-0.1,1.1-0.4l1.4-1.4c1,1.7,2.8,2.9,5,2.9c2.1,0,4-1.2,5-2.9l1.4,1.4
			c0.3,0.3,0.7,0.4,1.1,0.4c0.4,0,0.8-0.1,1.1-0.4c0.6-0.6,0.6-1.5,0-2.1l-2.1-2.1l2.1-2.1c0.6-0.6,0.6-1.5,0-2.1
			c-0.6-0.6-1.5-0.6-2.1,0L37,20.4c-1-1.7-2.8-2.9-5-2.9c-2.1,0-4,1.2-5,2.9L25.7,19c-0.6-0.6-1.5-0.6-2.1,0c-0.6,0.6-0.6,1.5,0,2.1
			l2.1,2.1l-2.1,2.1C23,26,23,26.9,23.5,27.5z M32,20.5c1.5,0,2.7,1.2,2.7,2.7S33.5,26,32,26s-2.7-1.2-2.7-2.7S30.5,20.5,32,20.5z"
			/>
	</g>
</g>
<g id="cardboard-box">
</g>
<g id="bath-shower">
</g>
<g id="diamond">
</g>
<g id="cassette">
</g>
<g id="iron">
</g>
<g id="wash">
</g>
<g id="keyboard-keys">
</g>
<g id="earphones">
</g>
<g id="lifebuoy">
</g>
<g id="calculator">
</g>
<g id="safe">
</g>
<g id="balloon">
</g>
<g id="cake">
</g>
<g id="baseball">
</g>
<g id="football-american">
</g>
<g id="football">
</g>
<g id="anchor">
</g>
<g id="compact-disc">
</g>
<g id="bbq">
</g>
<g id="coffee-machine">
</g>
<g id="teapot">
</g>
<g id="outdoor-stove">
</g>
<g id="pram">
</g>
<g id="paintbrush">
</g>
<g id="stamp">
</g>
<g id="eyedrop">
</g>
<g id="musical-note">
</g>
<g id="magnet">
</g>
<g id="alarm-bell">
</g>
<g id="globe">
</g>
<g id="key">
</g>
<g id="ink">
</g>
<g id="paperclip">
</g>
<g id="paint-roller">
</g>
<g id="keyboard">
</g>
</svg>
