<?xml version="1.0" encoding="utf-8"?>
<!-- Generator: Adobe Illustrator 20.1.0, SVG Export Plug-In . SVG Version: 6.00 Build 0)  -->
<!DOCTYPE svg PUBLIC "-//W3C//DTD SVG 1.1//EN" "http://www.w3.org/Graphics/SVG/1.1/DTD/svg11.dtd">
<svg version="1.1" xmlns="http://www.w3.org/2000/svg" xmlns:xlink="http://www.w3.org/1999/xlink" x="0px" y="0px"
	 viewBox="0 0 64 64" style="enable-background:new 0 0 64 64;" xml:space="preserve">
<g id="text-height">
</g>
<g id="font">
</g>
<g id="text">
</g>
<g id="italic">
</g>
<g id="strikethrough">
</g>
<g id="paragraph">
</g>
<g id="bold">
</g>
<g id="quote-right">
</g>
<g id="hashtag">
</g>
<g id="anchor-handle">
</g>
<g id="box">
</g>
<g id="fullscreen">
</g>
<g id="fullscreen-alt">
</g>
<g id="golden-ratio">
</g>
<g id="hexgrid">
</g>
<g id="box-points">
</g>
<g id="box-points-move">
</g>
<g id="box-points-move-alt">
</g>
<g id="hex_1_">
</g>
<g id="hex-diamond">
</g>
<g id="artboards-vertical">
</g>
<g id="artboards">
</g>
<g id="artboards-alt-vertical">
</g>
<g id="artboards-alt">
</g>
<g id="scale">
</g>
<g id="pencil">
</g>
<g id="fill">
</g>
<g id="artist-mug">
	<path d="M48.2,32H47v-3.5c0-0.8-0.7-1.5-1.5-1.5h-0.1l3.4-9.1c0.9-0.2,1.8-0.6,2.5-1.2c2.2-1.9,3.1-5.4,2.3-8.9
		C52.7,4,50,1.3,46.1,0.3c-0.6-0.1-1.2,0.1-1.6,0.6c-0.4,0.5-0.4,1.2,0,1.7c1.3,2,0.6,3.2-0.9,5.1c-0.6,0.7-1.1,1.4-1.5,2.2
		c-0.6,1.5-0.7,3.1-0.1,4.5c0.2,0.6,0.6,1.1,1.1,1.6L38,25.1V1.5C38,0.7,37.3,0,36.5,0h-12C23.7,0,23,0.7,23,1.5V27h0l-5.9-11.6
		c-0.1-0.3-0.3-0.5-0.6-0.6l-7.3-4.1c-0.5-0.3-1.1-0.2-1.6,0.1c-0.5,0.3-0.7,0.9-0.6,1.4l1,8.3C8,20.7,8,20.8,8.1,21l3.1,6.1
		c-0.7,0.1-1.2,0.7-1.2,1.5v28.7c0,3.8,3.1,6.8,6.8,6.8h23.1c3.9,0,7.1-3.1,7.1-6.8V49h1.2c5.2,0,8.8-3.5,8.8-8.5S53.5,32,48.2,32z
		 M40.4,27l5.2-9.4c0.1,0,0.1,0,0.2,0.1L42.2,27H40.4z M44.9,11c0.2-0.4,0.6-0.9,1-1.5c0.9-1.2,2.3-2.8,2.3-5c1.6,1.2,2.3,2.9,2.6,4
		c0.5,2.3,0,4.8-1.3,5.9c-0.8,0.7-1.8,0.7-3,0.2c-0.8-0.3-1.4-0.9-1.6-1.5C44.5,12.6,44.5,11.8,44.9,11z M26,3h9v3h-5
		c-0.8,0-1.5,0.7-1.5,1.5S29.2,9,30,9h5v2h-2c-0.8,0-1.5,0.7-1.5,1.5S32.2,14,33,14h2v2h-5c-0.8,0-1.5,0.7-1.5,1.5S29.2,19,30,19h5
		v2h-2c-0.8,0-1.5,0.7-1.5,1.5S32.2,24,33,24h2v3h-9V3z M10.3,14.7l4.3,2.4l5,9.9h-5l-3.7-7.2L10.3,14.7z M44,57.2
		c0,2.3-2.1,3.8-4.1,3.8H16.8c-2.1,0-3.8-1.7-3.8-3.8V30h0.7H22h2.5h12H44V57.2z M48.2,46H47V35h1.2c3.5,0,5.8,2.2,5.8,5.5
		S51.8,46,48.2,46z"/>
</g>
<g id="pen">
</g>
<g id="calligraphy-pen-tip">
</g>
<g id="calligraphy-pen_1_">
</g>
<g id="paint-pallette">
</g>
<g id="tools-cross">
</g>
<g id="edit-tools">
</g>
<g id="pencil-ruler">
</g>
<g id="ruler-measure">
</g>
<g id="measure">
</g>
<g id="code">
</g>
<g id="move">
</g>
<g id="external">
</g>
<g id="terminal">
</g>
<g id="thumbnails">
</g>
</svg>
