<?xml version="1.0" encoding="utf-8"?>
<!-- Generator: Adobe Illustrator 20.1.0, SVG Export Plug-In . SVG Version: 6.00 Build 0)  -->
<!DOCTYPE svg PUBLIC "-//W3C//DTD SVG 1.1//EN" "http://www.w3.org/Graphics/SVG/1.1/DTD/svg11.dtd">
<svg version="1.1" xmlns="http://www.w3.org/2000/svg" xmlns:xlink="http://www.w3.org/1999/xlink" x="0px" y="0px"
	 viewBox="0 0 64 64" style="enable-background:new 0 0 64 64;" xml:space="preserve">
<g id="truck">
</g>
<g id="car">
</g>
<g id="taxi">
</g>
<g id="rocket">
</g>
<g id="tardis">
</g>
<g id="bus">
</g>
<g id="tram">
</g>
<g id="speedo">
</g>
<g id="air-machine">
	<g>
		<path d="M61,61h-9V1.5C52,0.7,51.3,0,50.5,0h-37C12.7,0,12,0.7,12,1.5v9.1c-0.2-0.1-0.3-0.1-0.5-0.1c-0.8,0-1.5,0.7-1.5,1.5v3.3
			c-0.8,2.4-6.9,21.2-6.5,28c0.2,2.8,1.5,5.2,3.7,6.9c1.4,1.1,3.1,1.8,4.8,2.2V61H3c-0.8,0-1.5,0.7-1.5,1.5S2.2,64,3,64h58
			c0.8,0,1.5-0.7,1.5-1.5S61.8,61,61,61z M9,47.8c-1.6-1.2-2.4-2.8-2.5-4.7C6.2,38.7,9.2,28,11.2,21.5c0.1,0,0.2,0,0.3,0
			c0.2,0,0.3,0,0.5-0.1v27.8C10.9,48.9,9.8,48.4,9,47.8z M15,52.8c0.3,0,0.6,0,0.9,0c1.2,0,2.4-0.1,3.4-0.4
			c5.1-1.2,5.8-8.3,5.8-12.2c0.7-0.5,1.1-1.3,1.1-2.2c0-1.5-1.2-2.7-2.7-2.7c-1.5,0-2.7,1.2-2.7,2.7c0,1,0.5,1.8,1.3,2.3
			c0,3.4-0.7,8.5-3.5,9.2c-1.2,0.3-2.4,0.3-3.7,0.3V3h34v58H15V52.8z"/>
		<path d="M45,27.5v-19C45,7.7,44.3,7,43.5,7h-23C19.7,7,19,7.7,19,8.5v19c0,0.8,0.7,1.5,1.5,1.5h23C44.3,29,45,28.3,45,27.5z
			 M42,26H22V10h20V26z"/>
		<path d="M44,35h-7c-0.8,0-1.5,0.7-1.5,1.5S36.2,38,37,38h7c0.8,0,1.5-0.7,1.5-1.5S44.8,35,44,35z"/>
	</g>
</g>
<g id="speedo-alt">
</g>
<g id="motorcycle">
</g>
<g id="car-battery">
</g>
<g id="ufo">
</g>
<g id="arrivals">
</g>
<g id="petrol-pump">
</g>
<g id="gear-shift">
</g>
<g id="car-battery-alt">
</g>
<g id="road">
</g>
<g id="siren">
</g>
<g id="plane">
</g>
<g id="lorry">
</g>
<g id="train">
</g>
<g id="forklift">
</g>
<g id="bicycle">
</g>
<g id="underground">
</g>
<g id="paper-plane">
</g>
<g id="hotair-balloon">
</g>
</svg>
