<?xml version="1.0" encoding="utf-8"?>
<!-- Generator: Adobe Illustrator 20.1.0, SVG Export Plug-In . SVG Version: 6.00 Build 0)  -->
<!DOCTYPE svg PUBLIC "-//W3C//DTD SVG 1.1//EN" "http://www.w3.org/Graphics/SVG/1.1/DTD/svg11.dtd">
<svg version="1.1" xmlns="http://www.w3.org/2000/svg" xmlns:xlink="http://www.w3.org/1999/xlink" x="0px" y="0px"
	 viewBox="0 0 64 64" style="enable-background:new 0 0 64 64;" xml:space="preserve">
<g id="bulb">
</g>
<g id="bulb-on">
</g>
<g id="bulb-alt">
</g>
<g id="bulb-on-alt">
</g>
<g id="energy-bulb">
</g>
<g id="toasting">
</g>
<g id="toasted">
</g>
<g id="binoculars">
	<g>
		<path d="M63.6,2.9c-0.3-0.3-0.7-0.5-1.1-0.5H38.1c-0.4,0-0.8,0.2-1.1,0.5c-0.3,0.3-0.4,0.7-0.4,1.1l1.3,16.4H26.1l1.3-16.4
			c0-0.4-0.1-0.8-0.4-1.1c-0.3-0.3-0.7-0.5-1.1-0.5H1.5c-0.4,0-0.8,0.2-1.1,0.5C0.1,3.2,0,3.7,0,4.1l4.1,50.8
			c0.1,0.8,0.7,1.4,1.5,1.4h0.1V60c0,0.8,0.7,1.5,1.5,1.5h12.7c0.8,0,1.5-0.7,1.5-1.5v-3.8h0.5c0.8,0,1.4-0.6,1.5-1.4l0.9-11.3h15.5
			l0.9,11.3c0.1,0.8,0.7,1.4,1.5,1.4h0.5V60c0,0.8,0.7,1.5,1.5,1.5h12.7c0.8,0,1.5-0.7,1.5-1.5v-3.8h0.1c0.8,0,1.4-0.6,1.5-1.4
			L64,4.1C64,3.7,63.9,3.2,63.6,2.9z M60.9,5.5l-0.4,5.5H40.2l-0.4-5.5H60.9z M24.3,5.5l-0.4,5.5H3.6L3.1,5.5H24.3z M18.4,58.5H8.7
			v-2.3h9.7V58.5z M20.4,53.2H7L3.8,13.9h19.8L20.4,53.2z M24.5,40.6l1.4-17.1h12.3l1.4,17.1H24.5z M55.3,58.5h-9.7v-2.3h9.7V58.5z
			 M57,53.2H43.6l-3.1-39.3h19.8L57,53.2z"/>
		<ellipse cx="32" cy="32" rx="3.1" ry="3.1"/>
	</g>
</g>
<g id="gift">
</g>
<g id="shaver">
</g>
<g id="candle">
</g>
<g id="shower">
</g>
<g id="bomb">
</g>
<g id="joystick">
</g>
<g id="megaphone">
</g>
<g id="chestdraw">
</g>
<g id="armchair">
</g>
<g id="cardboard-box">
</g>
<g id="bath-shower">
</g>
<g id="diamond">
</g>
<g id="cassette">
</g>
<g id="iron">
</g>
<g id="wash">
</g>
<g id="keyboard-keys">
</g>
<g id="earphones">
</g>
<g id="lifebuoy">
</g>
<g id="calculator">
</g>
<g id="safe">
</g>
<g id="balloon">
</g>
<g id="cake">
</g>
<g id="baseball">
</g>
<g id="football-american">
</g>
<g id="football">
</g>
<g id="anchor">
</g>
<g id="compact-disc">
</g>
<g id="bbq">
</g>
<g id="coffee-machine">
</g>
<g id="teapot">
</g>
<g id="outdoor-stove">
</g>
<g id="pram">
</g>
<g id="paintbrush">
</g>
<g id="stamp">
</g>
<g id="eyedrop">
</g>
<g id="musical-note">
</g>
<g id="magnet">
</g>
<g id="alarm-bell">
</g>
<g id="globe">
</g>
<g id="key">
</g>
<g id="ink">
</g>
<g id="paperclip">
</g>
<g id="paint-roller">
</g>
<g id="keyboard">
</g>
</svg>
