<?xml version="1.0" encoding="utf-8"?>
<!-- Generator: Adobe Illustrator 20.1.0, SVG Export Plug-In . SVG Version: 6.00 Build 0)  -->
<!DOCTYPE svg PUBLIC "-//W3C//DTD SVG 1.1//EN" "http://www.w3.org/Graphics/SVG/1.1/DTD/svg11.dtd">
<svg version="1.1" xmlns="http://www.w3.org/2000/svg" xmlns:xlink="http://www.w3.org/1999/xlink" x="0px" y="0px"
	 viewBox="0 0 64 64" style="enable-background:new 0 0 64 64;" xml:space="preserve">
<g id="bulb">
</g>
<g id="bulb-on">
</g>
<g id="bulb-alt">
</g>
<g id="bulb-on-alt">
</g>
<g id="energy-bulb">
</g>
<g id="toasting">
</g>
<g id="toasted">
</g>
<g id="binoculars">
</g>
<g id="gift">
</g>
<g id="shaver">
</g>
<g id="candle">
</g>
<g id="shower">
</g>
<g id="bomb">
</g>
<g id="joystick">
</g>
<g id="megaphone">
</g>
<g id="chestdraw">
</g>
<g id="armchair">
</g>
<g id="cardboard-box">
</g>
<g id="bath-shower">
</g>
<g id="diamond">
</g>
<g id="cassette">
</g>
<g id="iron">
</g>
<g id="wash">
</g>
<g id="keyboard-keys">
</g>
<g id="earphones">
</g>
<g id="lifebuoy">
</g>
<g id="calculator">
</g>
<g id="safe">
</g>
<g id="balloon">
</g>
<g id="cake">
</g>
<g id="baseball">
</g>
<g id="football-american">
</g>
<g id="football">
</g>
<g id="anchor">
</g>
<g id="compact-disc">
</g>
<g id="bbq">
	<g>
		<path d="M42.1,32.4c8.5-0.8,14.3-6.8,14.3-15.1c0-8.4-6-14.5-14.8-15.1V1.5C41.7,0.7,41,0,40.2,0s-1.5,0.7-1.5,1.5v2.1
			c0,0,0,0,0,0.1c0,0,0,0,0,0.1V30H9.1c-0.8,0-1.5,0.7-1.5,1.5c0,6.3,3.4,12.9,9.3,16.2l-2.9,14.5c-0.2,0.8,0.4,1.6,1.2,1.8
			c0.1,0,0.2,0,0.3,0c0.7,0,1.3-0.5,1.5-1.2l2-9.7h12.3c-2.1,0.9-3.5,2.9-3.5,5.3c0,3.1,2.6,5.7,5.7,5.7s5.7-2.6,5.7-5.7
			c0-2.7-1.9-5-4.5-5.6l-1.3-5.1C38.6,44.4,41.8,38.3,42.1,32.4z M53.4,17.4c0,6.8-4.7,11.5-11.8,12.1V5.3
			C48.8,5.8,53.4,10.6,53.4,17.4z M10.6,33h28.5c-0.7,6.9-6,13.8-14.2,13.8S11.3,39.9,10.6,33z M36,58.3c0,1.5-1.2,2.7-2.7,2.7
			s-2.7-1.2-2.7-2.7c0-1.5,1.2-2.7,2.7-2.7c0,0,0,0,0,0c0,0,0,0,0,0C34.8,55.6,36,56.8,36,58.3z M30.7,50H19.4l0.2-1.1
			c1.6,0.5,3.4,0.8,5.2,0.8c2,0,3.9-0.3,5.6-0.9L30.7,50z"/>
		<path d="M11.1,26.7h25.4c0.8,0,1.5-0.7,1.5-1.5s-0.7-1.5-1.5-1.5H11.1c-0.8,0-1.5,0.7-1.5,1.5S10.3,26.7,11.1,26.7z"/>
	</g>
</g>
<g id="coffee-machine">
</g>
<g id="teapot">
</g>
<g id="outdoor-stove">
</g>
<g id="pram">
</g>
<g id="paintbrush">
</g>
<g id="stamp">
</g>
<g id="eyedrop">
</g>
<g id="musical-note">
</g>
<g id="magnet">
</g>
<g id="alarm-bell">
</g>
<g id="globe">
</g>
<g id="key">
</g>
<g id="ink">
</g>
<g id="paperclip">
</g>
<g id="paint-roller">
</g>
<g id="keyboard">
</g>
</svg>
