<?xml version="1.0" encoding="utf-8"?>
<!-- Generator: Adobe Illustrator 20.1.0, SVG Export Plug-In . SVG Version: 6.00 Build 0)  -->
<!DOCTYPE svg PUBLIC "-//W3C//DTD SVG 1.1//EN" "http://www.w3.org/Graphics/SVG/1.1/DTD/svg11.dtd">
<svg version="1.1" xmlns="http://www.w3.org/2000/svg" xmlns:xlink="http://www.w3.org/1999/xlink" x="0px" y="0px"
	 viewBox="0 0 64 64" style="enable-background:new 0 0 64 64;" xml:space="preserve">
<g id="suitcase">
</g>
<g id="backpack">
	<path d="M53,42h-3V29.6c1.3-0.6,2-1.9,2-3.9V9.9C52,3.7,48.5,0,42.5,0h-21C15.5,0,12,3.7,12,9.9v15.8c0,2,0.7,3.3,2,3.9V42h-3
		c-3,0-6,2.9-6,5.8v12.6C5,62.6,6.5,64,8.9,64h6.6h6h21h6h6.6c2.4,0,3.9-1.4,3.9-3.6V47.9C59,44.9,56,42,53,42z M53,45
		c1.2,0,3,1.5,3,2.9V50h-6v-5H53z M15,9.9C15,5.3,17.2,3,21.5,3h21C46.8,3,49,5.3,49,9.9v15.8c0,1-0.2,1.2-0.2,1.2
		c0,0-0.2,0.2-1.1,0.2H42v-7c0-0.8-0.7-1.5-1.5-1.5S39,19.2,39,20v7H25v-7c0-0.8-0.7-1.5-1.5-1.5S22,19.2,22,20v7h-5.8
		c-0.9,0-1.1-0.2-1.1-0.2c0,0-0.2-0.2-0.2-1.2V9.9z M11,45h3v5H8v-2.2C8,46.6,9.7,45,11,45z M8,60.4V53h6v8H8.9C8,61,8,60.8,8,60.4z
		 M17,43.5V30h5v4c0,0.8,0.7,1.5,1.5,1.5S25,34.8,25,34v-4h14v4c0,0.8,0.7,1.5,1.5,1.5S42,34.8,42,34v-4h5v13.5V61h-3V47.8
		c0-3.2-2.1-5.8-4.7-5.8H24.7c-2.6,0-4.7,2.5-4.7,5.8V61h-3V43.5z M41,50H23v-2.2c0-1.5,0.8-2.8,1.7-2.8h14.6c0.9,0,1.7,1.3,1.7,2.8
		V50z M23,61v-8h18v8H23z M55.1,61H50v-8h6v7.4C56,60.8,56,61,55.1,61z"/>
</g>
<g id="chef-hat">
</g>
<g id="work-jacket">
</g>
<g id="tshirt">
</g>
<g id="handbag">
</g>
<g id="coat-hanger">
</g>
<g id="measuring-tape">
</g>
<g id="pants">
</g>
<g id="t-shirt-ale">
</g>
<g id="watch">
</g>
<g id="glasses">
</g>
<g id="graduation-hat">
</g>
<g id="scuba-gear">
</g>
<g id="shoe">
</g>
<g id="crown">
</g>
<g id="wand">
</g>
<g id="crown-alt">
</g>
</svg>
