<?xml version="1.0" encoding="utf-8"?>
<!-- Generator: Adobe Illustrator 20.1.0, SVG Export Plug-In . SVG Version: 6.00 Build 0)  -->
<!DOCTYPE svg PUBLIC "-//W3C//DTD SVG 1.1//EN" "http://www.w3.org/Graphics/SVG/1.1/DTD/svg11.dtd">
<svg version="1.1" id="Layer_1" xmlns="http://www.w3.org/2000/svg" xmlns:xlink="http://www.w3.org/1999/xlink" x="0px" y="0px"
	 viewBox="0 0 64 64" style="enable-background:new 0 0 64 64;" xml:space="preserve">
<g id="bulb">
</g>
<g id="bulb-on">
</g>
<g id="bulb-on-alt">
</g>
<g id="energy-bulb">
</g>
<g id="toasting">
</g>
<g id="toasted">
</g>
<g id="binoculars">
</g>
<g id="gift">
</g>
<g id="shaver">
</g>
<g id="candle">
</g>
<g id="shower">
</g>
<g id="bomb">
</g>
<g id="joystick">
</g>
<g id="megaphone">
</g>
<g id="chestdraw">
</g>
<g id="armchair">
</g>
<g id="cardboard-box">
</g>
<g id="bath-shower">
</g>
<g id="diamond">
</g>
<g id="cassette">
</g>
<g id="iron">
</g>
<g id="wash">
</g>
<g id="keyboard-keys">
</g>
<g id="earphones">
</g>
<g id="lifebuoy">
</g>
<g id="calculator">
</g>
<g id="safe">
</g>
<g id="balloon">
</g>
<g id="cake">
</g>
<g id="baseball">
</g>
<g id="football-american">
</g>
<g id="football">
</g>
<g id="anchor">
</g>
<g id="compact-disc">
</g>
<g id="bbq">
</g>
<g id="coffee-machine">
</g>
<g id="teapot">
</g>
<g id="outdoor-stove">
</g>
<g id="pram">
</g>
<g id="paintbrush">
</g>
<g id="stamp">
</g>
<g id="eyedrop">
</g>
<g id="musical-note">
</g>
<g id="magnet">
</g>
<g id="alarm-bell">
</g>
<g id="globe">
</g>
<g id="key">
</g>
<g id="ink">
</g>
<g id="paperclip">
</g>
<g id="paint-roller">
</g>
<g id="keyboard">
</g>
<path d="M32,0C19.6,0,9.5,10,9.5,22.2c0,7.3,3.8,14.3,9.9,18.5V51c0,0.8,0.7,1.5,1.5,1.5h0.8v4.3c0,0.8,0.7,1.5,1.5,1.5h0.8v4.3
	c0,0.8,0.7,1.5,1.5,1.5h12.8c0.8,0,1.5-0.7,1.5-1.5v-4.3h0.8c0.8,0,1.5-0.7,1.5-1.5v-4.3h0.8c0.8,0,1.5-0.7,1.5-1.5V40.7
	c6.1-4.2,9.9-11.2,9.9-18.5C54.5,10,44.4,0,32,0z M27.3,29.2l0.8,0.6c0.6,0.4,1.3,0.4,1.9-0.1l2.1-1.8l2.1,1.8
	c0.5,0.5,1.3,0.5,1.9,0.1l0.8-0.6l-2,13.3h-5.5L27.3,29.2z M41.6,45.5v3.9h-0.8H23.2h-0.8v-3.9H41.6z M36.9,61h-9.8v-2.8h9.8V61z
	 M39.3,55.2h-0.8H25.6h-0.8v-2.8h14.5V55.2z M42.3,38.6c-0.4,0.3-0.7,0.8-0.7,1.3v2.7h-3.8l2.5-16.4c0.1-0.6-0.2-1.2-0.7-1.5
	c-0.5-0.3-1.2-0.3-1.7,0.1l-2.7,2L33,24.8c0,0,0,0,0,0c0,0-0.1-0.1-0.1-0.1c0,0-0.1-0.1-0.1-0.1c0,0-0.1,0-0.1-0.1c0,0-0.1,0-0.1,0
	c0,0-0.1,0-0.1,0c0,0-0.1,0-0.1,0c0,0-0.1,0-0.1,0c0,0-0.1,0-0.1,0c0,0-0.1,0-0.1,0c0,0-0.1,0-0.1,0c0,0-0.1,0-0.1,0
	c0,0-0.1,0-0.1,0.1c0,0-0.1,0-0.1,0.1c0,0-0.1,0.1-0.1,0.1c0,0,0,0,0,0l-2.2,1.9l-2.7-2c-0.5-0.4-1.1-0.4-1.7-0.1
	c-0.5,0.3-0.8,0.9-0.7,1.5l2.5,16.4h-3.8v-2.7c0-0.5-0.3-1-0.7-1.3c-5.7-3.5-9.2-9.8-9.2-16.4C12.5,11.6,21.2,3,32,3
	c10.8,0,19.5,8.6,19.5,19.2C51.5,28.8,48,35,42.3,38.6z"/>
</svg>
