<?xml version="1.0" encoding="utf-8"?>
<!-- Generator: Adobe Illustrator 20.1.0, SVG Export Plug-In . SVG Version: 6.00 Build 0)  -->
<!DOCTYPE svg PUBLIC "-//W3C//DTD SVG 1.1//EN" "http://www.w3.org/Graphics/SVG/1.1/DTD/svg11.dtd">
<svg version="1.1" xmlns="http://www.w3.org/2000/svg" xmlns:xlink="http://www.w3.org/1999/xlink" x="0px" y="0px"
	 viewBox="0 0 64 64" style="enable-background:new 0 0 64 64;" xml:space="preserve">
<g id="desktop">
</g>
<g id="tablet">
</g>
<g id="tablet-landscape">
</g>
<g id="desktop-alt">
</g>
<g id="smartphone">
</g>
<g id="smartphone-landscape">
</g>
<g id="laptop">
</g>
<g id="laptops">
</g>
<g id="desktops">
</g>
<g id="printer">
</g>
<g id="smartphones">
</g>
<g id="smartphone-mail">
</g>
<g id="smartphone-search">
</g>
<g id="desktop-chart">
</g>
<g id="pc">
</g>
<g id="remote-control-alt">
</g>
<g id="remote-control">
</g>
<g id="smartphone-signal">
</g>
<g id="battery-charge">
</g>
<g id="battery-charge-half">
</g>
<g id="battery-charge-full">
</g>
<g id="battery-charging">
</g>
<g id="filter">
</g>
<g id="network-web">
</g>
<g id="chip">
</g>
<g id="preferences-box">
</g>
<g id="preferences-vertical-box">
</g>
<g id="preferences-vertical-box-alt">
</g>
<g id="preferences-box-alt">
</g>
<g id="preferences">
</g>
<g id="preferences-vertical">
</g>
<g id="preferences-vertical-alt">
</g>
<g id="preferences-alt">
</g>
<g id="bluetooth">
</g>
<g id="signal-strength">
</g>
<g id="signal-no">
</g>
<g id="signal-tower-no">
</g>
<g id="signal-tower">
</g>
<g id="signal-no-alt">
</g>
<g id="nut">
</g>
<g id="cogs">
</g>
<g id="cog">
</g>
<g id="cog-dash-left">
</g>
<g id="cog-dash-right">
</g>
<g id="cog-fall">
</g>
<g id="io">
</g>
<g id="browser">
</g>
<g id="browser-add">
	<g>
		<path d="M62.5,2.8h-61C0.7,2.8,0,3.5,0,4.3v44c0,0.8,0.7,1.5,1.5,1.5h26.2c0.8,0,1.5-0.7,1.5-1.5s-0.7-1.5-1.5-1.5H3V22h58v13
			c0,0.8,0.7,1.5,1.5,1.5S64,35.8,64,35V4.3C64,3.5,63.3,2.8,62.5,2.8z M3,19V5.8h58V19H3z"/>
		<ellipse cx="8.8" cy="12" rx="2.3" ry="2.3"/>
		<ellipse cx="16" cy="12" rx="2.3" ry="2.3"/>
		<ellipse cx="23.1" cy="12" rx="2.3" ry="2.3"/>
		<path d="M62.5,46.9h-9.2v-9.8c0-0.8-0.7-1.5-1.5-1.5s-1.5,0.7-1.5,1.5v9.8h-9.2c-0.8,0-1.5,0.7-1.5,1.5s0.7,1.5,1.5,1.5h9.2v9.8
			c0,0.8,0.7,1.5,1.5,1.5s1.5-0.7,1.5-1.5v-9.8h9.2c0.8,0,1.5-0.7,1.5-1.5S63.3,46.9,62.5,46.9z"/>
	</g>
</g>
<g id="rss">
</g>
<g id="no-access">
</g>
<g id="notification">
</g>
<g id="devices">
</g>
<g id="notification-alert">
</g>
</svg>
