<?xml version="1.0" encoding="utf-8"?>
<!-- Generator: Adobe Illustrator 20.1.0, SVG Export Plug-In . SVG Version: 6.00 Build 0)  -->
<!DOCTYPE svg PUBLIC "-//W3C//DTD SVG 1.1//EN" "http://www.w3.org/Graphics/SVG/1.1/DTD/svg11.dtd">
<svg version="1.1" xmlns="http://www.w3.org/2000/svg" xmlns:xlink="http://www.w3.org/1999/xlink" x="0px" y="0px"
	 viewBox="0 0 64 64" style="enable-background:new 0 0 64 64;" xml:space="preserve">
<g id="credit-card">
</g>
<g id="tag">
</g>
<g id="trolley">
</g>
<g id="trolley-out">
</g>
<g id="trolley-in">
</g>
<g id="wallet">
</g>
<g id="shopping-bag">
</g>
<g id="basket">
	<g>
		<path d="M63.7,22.6C63.4,22.2,63,22,62.5,22H55v-4.8C55,11.7,50.1,7,44.3,7H19.7C13.9,7,9,11.7,9,17.2V22H1.5
			c-0.5,0-0.9,0.2-1.2,0.6C0,23-0.1,23.5,0.1,24l11,32c0.2,0.6,0.8,1,1.4,1h38.9c0.6,0,1.2-0.4,1.4-1l11-32
			C64.1,23.5,64,23,63.7,22.6z M27,10h10v0.4c0,0.7-0.6,1.6-1.2,1.6h-7.6c-0.6,0-1.2-0.8-1.2-1.6V10z M12,17.2
			c0-3.8,3.6-7.2,7.6-7.2H24v0.4c0,2.2,1.7,4.6,4.2,4.6h7.6c2.5,0,4.2-2.4,4.2-4.6V10h4.4c4.1,0,7.6,3.4,7.6,7.2V22H12V17.2z
			 M50.4,54H13.6l-10-29h56.8L50.4,54z"/>
		<path d="M16,30c-0.2-0.8-1-1.3-1.8-1.1c-0.8,0.2-1.3,1-1.1,1.8L16.9,48c0.2,0.7,0.8,1.2,1.5,1.2c0.1,0,0.2,0,0.3,0
			c0.8-0.2,1.3-1,1.1-1.8L16,30z"/>
		<path d="M27.2,30c-0.1-0.8-0.8-1.4-1.7-1.3c-0.8,0.1-1.4,0.8-1.3,1.7L26.2,48c0.1,0.8,0.7,1.3,1.5,1.3c0.1,0,0.1,0,0.2,0
			c0.8-0.1,1.4-0.8,1.3-1.7L27.2,30z"/>
		<path d="M49.7,28.8c-0.8-0.2-1.6,0.3-1.8,1.1l-3.8,17.4c-0.2,0.8,0.3,1.6,1.1,1.8c0.1,0,0.2,0,0.3,0c0.7,0,1.3-0.5,1.5-1.2
			l3.8-17.4C51.1,29.8,50.5,29,49.7,28.8z"/>
		<path d="M38.5,28.6c-0.8-0.1-1.6,0.5-1.7,1.3l-1.9,17.7c-0.1,0.8,0.5,1.6,1.3,1.7c0.1,0,0.1,0,0.2,0c0.8,0,1.4-0.6,1.5-1.3
			l1.9-17.7C39.9,29.5,39.3,28.7,38.5,28.6z"/>
	</g>
</g>
<g id="dollar-circle">
</g>
<g id="pound-circle">
</g>
<g id="euro-circle">
</g>
<g id="yen-circle">
</g>
<g id="purse">
</g>
<g id="banknote">
</g>
</svg>
