<?xml version="1.0" encoding="utf-8"?>
<!-- Generator: Adobe Illustrator 20.1.0, SVG Export Plug-In . SVG Version: 6.00 Build 0)  -->
<!DOCTYPE svg PUBLIC "-//W3C//DTD SVG 1.1//EN" "http://www.w3.org/Graphics/SVG/1.1/DTD/svg11.dtd">
<svg version="1.1" xmlns="http://www.w3.org/2000/svg" xmlns:xlink="http://www.w3.org/1999/xlink" x="0px" y="0px"
	 viewBox="0 0 64 64" style="enable-background:new 0 0 64 64;" xml:space="preserve">
<style type="text/css">
	.st0{fill:none;stroke:#000000;stroke-width:3;stroke-linecap:round;stroke-linejoin:round;}
</style>
<g id="cupcake">
</g>
<g id="turkey">
</g>
<g id="hot-service">
</g>
<g id="mug">
</g>
<g id="mug-hot">
</g>
<g id="bottle">
	<path d="M45.4,33.2l-6.9-12.8c-0.3-0.5-0.4-1.2-0.4-2.2V8.6c0.3-0.3,0.5-0.7,0.5-1.1S38.3,6.7,38,6.4V1.5C38,0.7,37.3,0,36.5,0h-9
		C26.7,0,26,0.7,26,1.5v4.9c-0.3,0.3-0.5,0.7-0.5,1.1s0.2,0.8,0.5,1.1v9.6c0,0.8,0,1.6-0.4,2.2l-7.1,12.8c-1.7,3-2.5,6.3-2.5,9.6
		v19.7c0,0.8,0.7,1.5,1.5,1.5h29c0.8,0,1.5-0.7,1.5-1.5V42.8C48,39.7,47.1,36.3,45.4,33.2z M19,43h26v11H19V43z M35,3v3h-6V3H35z
		 M28.3,21.9c0.7-1.2,0.7-2.5,0.7-3.7V9h6v9.2c0,1,0.1,2.4,0.8,3.7l6.9,12.8c1,1.7,1.6,3.5,2,5.3H19.3c0.3-1.8,1-3.6,1.9-5.3
		L28.3,21.9z M19,61v-4h26v4H19z"/>
</g>
<g id="cherries">
</g>
<g id="cocktail">
</g>
<g id="cocktail-alt">
</g>
<g id="wine-glass">
</g>
<g id="wine-glass-alt">
</g>
<g id="aubergine">
</g>
<g id="lettuce-leaf">
</g>
<g id="cup">
</g>
<g id="noodles">
</g>
<g id="icelolly">
</g>
<g id="cutlery">
</g>
<g id="hotdog">
</g>
</svg>
