<?xml version="1.0" encoding="utf-8"?>
<!-- Generator: Adobe Illustrator 20.1.0, SVG Export Plug-In . SVG Version: 6.00 Build 0)  -->
<!DOCTYPE svg PUBLIC "-//W3C//DTD SVG 1.1//EN" "http://www.w3.org/Graphics/SVG/1.1/DTD/svg11.dtd">
<svg version="1.1" xmlns="http://www.w3.org/2000/svg" xmlns:xlink="http://www.w3.org/1999/xlink" x="0px" y="0px"
	 viewBox="0 0 64 64" style="enable-background:new 0 0 64 64;" xml:space="preserve">
<g id="truck">
</g>
<g id="car">
</g>
<g id="taxi">
</g>
<g id="rocket">
</g>
<g id="tardis">
</g>
<g id="bus">
</g>
<g id="tram">
</g>
<g id="speedo">
</g>
<g id="air-machine">
</g>
<g id="speedo-alt">
</g>
<g id="motorcycle">
</g>
<g id="car-battery">
</g>
<g id="ufo">
</g>
<g id="arrivals">
</g>
<g id="petrol-pump">
</g>
<g id="gear-shift">
</g>
<g id="car-battery-alt">
</g>
<g id="road">
</g>
<g id="siren">
</g>
<g id="plane">
</g>
<g id="lorry">
</g>
<g id="train">
</g>
<g id="forklift">
</g>
<g id="bicycle">
	<path d="M51.5,25.6c-2,0-3.9,0.5-5.5,1.3l-6.2-9.4H48c-0.1,0.3-0.3,0.7-0.5,1c-0.5,0.6-1.3,0.9-2.4,1c-0.8,0-1.5,0.8-1.4,1.6
		c0,0.8,0.7,1.4,1.5,1.4c0,0,0.1,0,0.1,0c1.9-0.1,3.4-0.8,4.5-2c1.6-1.9,1.4-4.3,1.3-4.6c-0.1-0.8-0.7-1.3-1.5-1.3H37.2
		c0,0-0.1,0-0.1,0c-0.3,0-0.6,0-0.9,0.2c-0.7,0.5-0.9,1.4-0.4,2.1l2.6,4H23.1l-2.4-4.1h4.2c0.8,0,1.5-0.7,1.5-1.5s-0.7-1.5-1.5-1.5
		H14.7c-0.8,0-1.5,0.7-1.5,1.5s0.7,1.5,1.5,1.5h2.5l3.1,5.3c0,0,0,0.1,0,0.1l-2.7,4.5c-1.6-0.7-3.3-1.1-5.1-1.1
		C5.6,25.6,0,31.2,0,38.1s5.6,12.5,12.5,12.5c6.2,0,11.4-4.6,12.3-10.5h10.3c0,0.1-0.1,0.2-0.2,0.4c-0.5,0.6-1.6,0.8-2.4,0.9
		c-0.8,0-1.5,0.8-1.4,1.6c0,0.8,0.7,1.4,1.5,1.4c0,0,0.1,0,0.1,0c2.1-0.1,3.6-0.8,4.6-2.1c1.3-1.7,0.9-3.6,0.8-3.9c0,0,0,0,0,0
		c0,0,0,0,0,0c0,0,0-0.1,0-0.1c0-0.1,0-0.1-0.1-0.2c0,0,0-0.1-0.1-0.1c0,0,0-0.1-0.1-0.1c0,0-0.1-0.1-0.1-0.1c0,0-0.1-0.1-0.1-0.1
		c0,0,0,0-0.1,0c-0.3-0.2-0.6-0.4-1-0.4h-2.9l7-12.5l2.6,4c-2.7,2.3-4.4,5.7-4.4,9.5c0,6.9,5.6,12.5,12.5,12.5
		C58.4,50.6,64,45,64,38.1S58.4,25.6,51.5,25.6z M37.8,23.8l-6.3,11.3l-6.6-11.3H37.8z M22.1,25l7.1,12.1H25
		c-0.3-3.6-2.1-6.7-4.8-8.8L22.1,25z M21.9,37.1h-7.1l3.8-6.2C20.4,32.4,21.7,34.6,21.9,37.1z M12.5,47.6c-5.2,0-9.5-4.3-9.5-9.5
		s4.3-9.5,9.5-9.5c1.3,0,2.5,0.3,3.6,0.7l-4.8,8c-0.3,0.5-0.3,1.1,0,1.5c0.1,0.7,0.7,1.2,1.5,1.2h9.1C20.9,44.4,17.1,47.6,12.5,47.6
		z M51.5,47.6c-5.2,0-9.5-4.3-9.5-9.5c0-2.8,1.2-5.3,3.1-7l5.1,7.8c0.3,0.4,0.8,0.7,1.3,0.7c0.3,0,0.6-0.1,0.8-0.2
		c0.7-0.5,0.9-1.4,0.4-2.1l-5.1-7.8c1.2-0.5,2.5-0.8,3.9-0.8c5.2,0,9.5,4.3,9.5,9.5S56.7,47.6,51.5,47.6z"/>
</g>
<g id="underground">
</g>
<g id="paper-plane">
</g>
<g id="hotair-balloon">
</g>
</svg>
