<?xml version="1.0" encoding="utf-8"?>
<!-- Generator: Adobe Illustrator 20.1.0, SVG Export Plug-In . SVG Version: 6.00 Build 0)  -->
<!DOCTYPE svg PUBLIC "-//W3C//DTD SVG 1.1//EN" "http://www.w3.org/Graphics/SVG/1.1/DTD/svg11.dtd">
<svg version="1.1" xmlns="http://www.w3.org/2000/svg" xmlns:xlink="http://www.w3.org/1999/xlink" x="0px" y="0px"
	 viewBox="0 0 64 64" style="enable-background:new 0 0 64 64;" xml:space="preserve">
<g id="text-height">
</g>
<g id="font">
</g>
<g id="text">
</g>
<g id="italic">
</g>
<g id="strikethrough">
</g>
<g id="paragraph">
</g>
<g id="bold">
	<path d="M39.1,30.4v-0.6c11.1-2.2,14.7-9.2,14.7-14.4C53.8,7.4,47.7,0,28.4,0H7.1v4c2.8,0,5.6,1.2,5.6,4.2v47.7
		c0,2.5-1.4,4.1-5.6,4.1v4h21.6c20.8,0,28.3-8.2,28.3-18.4C56.9,38.9,51.6,31.3,39.1,30.4z M21,4.2h7.7c12.2,0,15.1,4.4,15.1,11.6
		c-0.3,7.9-3.5,12.1-15.1,12.1H21V4.2z M29.6,59.8H21V32h7.7c12.6,0,18,6.2,18,13.8C46.6,53.3,44.4,58.4,29.6,59.8z"/>
</g>
<g id="quote-right">
</g>
<g id="hashtag">
</g>
<g id="anchor-handle">
</g>
<g id="box">
</g>
<g id="fullscreen">
</g>
<g id="fullscreen-alt">
</g>
<g id="golden-ratio">
</g>
<g id="hexgrid">
</g>
<g id="box-points">
</g>
<g id="box-points-move">
</g>
<g id="box-points-move-alt">
</g>
<g id="hex_1_">
</g>
<g id="hex-diamond">
</g>
<g id="artboards-vertical">
</g>
<g id="artboards">
</g>
<g id="artboards-alt-vertical">
</g>
<g id="artboards-alt">
</g>
<g id="scale">
</g>
<g id="pencil">
</g>
<g id="fill">
</g>
<g id="artist-mug">
</g>
<g id="pen">
</g>
<g id="calligraphy-pen-tip">
</g>
<g id="calligraphy-pen_1_">
</g>
<g id="paint-pallette">
</g>
<g id="tools-cross">
</g>
<g id="edit-tools">
</g>
<g id="pencil-ruler">
</g>
<g id="ruler-measure">
</g>
<g id="measure">
</g>
<g id="code">
</g>
<g id="move">
</g>
<g id="external">
</g>
<g id="terminal">
</g>
<g id="thumbnails">
</g>
</svg>
