<?xml version="1.0" encoding="utf-8"?>
<!-- Generator: Adobe Illustrator 20.1.0, SVG Export Plug-In . SVG Version: 6.00 Build 0)  -->
<!DOCTYPE svg PUBLIC "-//W3C//DTD SVG 1.1//EN" "http://www.w3.org/Graphics/SVG/1.1/DTD/svg11.dtd">
<svg version="1.1" xmlns="http://www.w3.org/2000/svg" xmlns:xlink="http://www.w3.org/1999/xlink" x="0px" y="0px"
	 viewBox="0 0 64 64" style="enable-background:new 0 0 64 64;" xml:space="preserve">
<g id="text-height">
</g>
<g id="font">
</g>
<g id="text">
</g>
<g id="italic">
</g>
<g id="strikethrough">
</g>
<g id="paragraph">
</g>
<g id="bold">
</g>
<g id="quote-right">
</g>
<g id="hashtag">
</g>
<g id="anchor-handle">
</g>
<g id="box">
</g>
<g id="fullscreen">
</g>
<g id="fullscreen-alt">
</g>
<g id="golden-ratio">
</g>
<g id="hexgrid">
</g>
<g id="box-points">
	<path d="M62.5,12.3c0.8,0,1.5-0.7,1.5-1.5V1.4c0-0.8-0.7-1.5-1.5-1.5h-9.3c-0.8,0-1.5,0.7-1.5,1.5v3.2H12.3V1.4
		c0-0.8-0.7-1.5-1.5-1.5H1.5C0.7-0.1,0,0.6,0,1.4v9.3c0,0.8,0.7,1.5,1.5,1.5h3.2v39.5H1.5c-0.8,0-1.5,0.7-1.5,1.5v9.3
		c0,0.8,0.7,1.5,1.5,1.5h9.3c0.8,0,1.5-0.7,1.5-1.5v-3h39.4v3c0,0.8,0.7,1.5,1.5,1.5h9.3c0.8,0,1.5-0.7,1.5-1.5v-9.3
		c0-0.8-0.7-1.5-1.5-1.5h-3.2V12.3H62.5z M54.7,2.9H61v6.3h-6.3V2.9z M3,2.9h6.3v6.3H3V2.9z M9.3,61.1H3v-6.3h6.3V61.1z M61,61.1
		h-6.3v-6.3H61V61.1z M56.3,51.7h-3.2c-0.8,0-1.5,0.7-1.5,1.5v3.3H12.3v-3.3c0-0.8-0.7-1.5-1.5-1.5H7.7V12.3h3.2
		c0.8,0,1.5-0.7,1.5-1.5V7.6h39.4v3.2c0,0.8,0.7,1.5,1.5,1.5h3.2V51.7z"/>
</g>
<g id="box-points-move">
</g>
<g id="box-points-move-alt">
</g>
<g id="hex_1_">
</g>
<g id="hex-diamond">
</g>
<g id="artboards-vertical">
</g>
<g id="artboards">
</g>
<g id="artboards-alt-vertical">
</g>
<g id="artboards-alt">
</g>
<g id="scale">
</g>
<g id="pencil">
</g>
<g id="fill">
</g>
<g id="artist-mug">
</g>
<g id="pen">
</g>
<g id="calligraphy-pen-tip">
</g>
<g id="calligraphy-pen_1_">
</g>
<g id="paint-pallette">
</g>
<g id="tools-cross">
</g>
<g id="edit-tools">
</g>
<g id="pencil-ruler">
</g>
<g id="ruler-measure">
</g>
<g id="measure">
</g>
<g id="code">
</g>
<g id="move">
</g>
<g id="external">
</g>
<g id="terminal">
</g>
<g id="thumbnails">
</g>
</svg>
