<?xml version="1.0" encoding="utf-8"?>
<!-- Generator: Adobe Illustrator 20.1.0, SVG Export Plug-In . SVG Version: 6.00 Build 0)  -->
<!DOCTYPE svg PUBLIC "-//W3C//DTD SVG 1.1//EN" "http://www.w3.org/Graphics/SVG/1.1/DTD/svg11.dtd">
<svg version="1.1" xmlns="http://www.w3.org/2000/svg" xmlns:xlink="http://www.w3.org/1999/xlink" x="0px" y="0px"
	 viewBox="0 0 64 64" style="enable-background:new 0 0 64 64;" xml:space="preserve">
<g id="text-height">
</g>
<g id="font">
</g>
<g id="text">
</g>
<g id="italic">
</g>
<g id="strikethrough">
</g>
<g id="paragraph">
</g>
<g id="bold">
</g>
<g id="quote-right">
</g>
<g id="hashtag">
</g>
<g id="anchor-handle">
</g>
<g id="box">
</g>
<g id="fullscreen">
</g>
<g id="fullscreen-alt">
</g>
<g id="golden-ratio">
</g>
<g id="hexgrid">
</g>
<g id="box-points">
</g>
<g id="box-points-move">
	<path d="M62.4,0h-9.3c-0.8,0-1.5,0.7-1.5,1.5v2.8H12.3V1.5c0-0.8-0.7-1.5-1.5-1.5H1.6C0.7,0,0.1,0.7,0.1,1.5v9.3
		c0,0.8,0.7,1.5,1.5,1.5h2.9l0.2,39.4H1.6c-0.8,0-1.5,0.7-1.5,1.5v9.3c0,0.8,0.7,1.5,1.5,1.5h9.3c0.8,0,1.5-0.7,1.5-1.5v-3.9
		l23.2-13.2c0,0,0,0,0.1,0h8.3c0.8,0,1.5-0.7,1.5-1.5v-8.3c0,0,0,0,0,0l13.2-23.3h3.9c0.8,0,1.5-0.7,1.5-1.5V1.5
		C63.9,0.7,63.3,0,62.4,0z M3.1,3h6.3v6.3H5.9c0,0,0,0,0,0H3.1V3z M9.3,61H3.1v-6.3h3.1c0,0,0,0,0,0h3.1V61z M42.4,42.4h-5.3v-5.3
		h5.3V42.4z M42.7,34.1h-7.1c-0.8,0-1.5,0.7-1.5,1.5v7.1L12.3,55.1v-1.9c0-0.8-0.7-1.5-1.5-1.5H7.7L7.4,12.3h3.4
		c0.8,0,1.5-0.7,1.5-1.5V7.3h39.3v3.5c0,0.8,0.7,1.5,1.5,1.5h2L42.7,34.1z M60.9,9.3h-6.3V3h6.3V9.3z"/>
</g>
<g id="box-points-move-alt">
</g>
<g id="hex_1_">
</g>
<g id="hex-diamond">
</g>
<g id="artboards-vertical">
</g>
<g id="artboards">
</g>
<g id="artboards-alt-vertical">
</g>
<g id="artboards-alt">
</g>
<g id="scale">
</g>
<g id="pencil">
</g>
<g id="fill">
</g>
<g id="artist-mug">
</g>
<g id="pen">
</g>
<g id="calligraphy-pen-tip">
</g>
<g id="calligraphy-pen_1_">
</g>
<g id="paint-pallette">
</g>
<g id="tools-cross">
</g>
<g id="edit-tools">
</g>
<g id="pencil-ruler">
</g>
<g id="ruler-measure">
</g>
<g id="measure">
</g>
<g id="code">
</g>
<g id="move">
</g>
<g id="external">
</g>
<g id="terminal">
</g>
<g id="thumbnails">
</g>
</svg>
