<?xml version="1.0" encoding="utf-8"?>
<!-- Generator: Adobe Illustrator 20.1.0, SVG Export Plug-In . SVG Version: 6.00 Build 0)  -->
<!DOCTYPE svg PUBLIC "-//W3C//DTD SVG 1.1//EN" "http://www.w3.org/Graphics/SVG/1.1/DTD/svg11.dtd">
<svg version="1.1" xmlns="http://www.w3.org/2000/svg" xmlns:xlink="http://www.w3.org/1999/xlink" x="0px" y="0px"
	 viewBox="0 0 64 64" style="enable-background:new 0 0 64 64;" xml:space="preserve">
<g id="bulb">
</g>
<g id="bulb-on">
</g>
<g id="bulb-alt">
</g>
<g id="bulb-on-alt">
</g>
<g id="energy-bulb">
</g>
<g id="toasting">
</g>
<g id="toasted">
</g>
<g id="binoculars">
</g>
<g id="gift">
</g>
<g id="shaver">
</g>
<g id="candle">
</g>
<g id="shower">
</g>
<g id="bomb">
</g>
<g id="joystick">
</g>
<g id="megaphone">
</g>
<g id="chestdraw">
</g>
<g id="armchair">
</g>
<g id="cardboard-box">
</g>
<g id="bath-shower">
	<g>
		<path d="M61.3,29.1H10.4V9.9c0-3.6,3.1-6.6,6.8-6.6c2.4,0,4.5,1.3,5.7,3.4c-4,1.2-7,4.9-7,9.2c0,0.8,0.7,1.5,1.5,1.5h16.2
			c0.8,0,1.5-0.7,1.5-1.5c0-5-4.1-9.3-9-9.6c-1.4-3.6-4.9-6-8.8-6c-5.3,0-9.8,4.4-9.8,9.6v19.3H2.7c-1.5,0-2.7,1.2-2.7,2.7v6
			c0,1.3,0.9,2.4,2.1,2.6v10c0,7.6,5.7,13.3,13.2,13.3h32.4c7.5,0,13.2-5.7,13.2-13.3v-9.9h0.5c1.5,0,2.7-1.2,2.7-2.7v-6
			C64,30.3,62.8,29.1,61.3,29.1z M31.8,14.4H19c0.7-2.9,3.4-5.1,6.4-5.1C28.4,9.2,31.1,11.5,31.8,14.4z M57.8,50.5
			c0,6-4.3,10.3-10.2,10.3H15.3c-5.9,0-10.2-4.3-10.2-10.3v-9.9h52.7V50.5z M61,37.6H3v-5.4h58V37.6z"/>
		<path d="M16.8,20.6v4.2c0,0.8,0.7,1.5,1.5,1.5s1.5-0.7,1.5-1.5v-4.2c0-0.8-0.7-1.5-1.5-1.5S16.8,19.8,16.8,20.6z"/>
		<path d="M30.5,20.6v4.2c0,0.8,0.7,1.5,1.5,1.5s1.5-0.7,1.5-1.5v-4.2c0-0.8-0.7-1.5-1.5-1.5S30.5,19.8,30.5,20.6z"/>
		<path d="M21,20.6v2.1c0,0.8,0.7,1.5,1.5,1.5s1.5-0.7,1.5-1.5v-2.1c0-0.8-0.7-1.5-1.5-1.5S21,19.8,21,20.6z"/>
		<path d="M26.3,20.6v2.1c0,0.8,0.7,1.5,1.5,1.5s1.5-0.7,1.5-1.5v-2.1c0-0.8-0.7-1.5-1.5-1.5S26.3,19.8,26.3,20.6z"/>
	</g>
</g>
<g id="diamond">
</g>
<g id="cassette">
</g>
<g id="iron">
</g>
<g id="wash">
</g>
<g id="keyboard-keys">
</g>
<g id="earphones">
</g>
<g id="lifebuoy">
</g>
<g id="calculator">
</g>
<g id="safe">
</g>
<g id="balloon">
</g>
<g id="cake">
</g>
<g id="baseball">
</g>
<g id="football-american">
</g>
<g id="football">
</g>
<g id="anchor">
</g>
<g id="compact-disc">
</g>
<g id="bbq">
</g>
<g id="coffee-machine">
</g>
<g id="teapot">
</g>
<g id="outdoor-stove">
</g>
<g id="pram">
</g>
<g id="paintbrush">
</g>
<g id="stamp">
</g>
<g id="eyedrop">
</g>
<g id="musical-note">
</g>
<g id="magnet">
</g>
<g id="alarm-bell">
</g>
<g id="globe">
</g>
<g id="key">
</g>
<g id="ink">
</g>
<g id="paperclip">
</g>
<g id="paint-roller">
</g>
<g id="keyboard">
</g>
</svg>
