<?xml version="1.0" encoding="utf-8"?>
<!-- Generator: Adobe Illustrator 20.1.0, SVG Export Plug-In . SVG Version: 6.00 Build 0)  -->
<!DOCTYPE svg PUBLIC "-//W3C//DTD SVG 1.1//EN" "http://www.w3.org/Graphics/SVG/1.1/DTD/svg11.dtd">
<svg version="1.1" xmlns="http://www.w3.org/2000/svg" xmlns:xlink="http://www.w3.org/1999/xlink" x="0px" y="0px"
	 viewBox="0 0 64 64" style="enable-background:new 0 0 64 64;" xml:space="preserve">
<g id="bulb">
</g>
<g id="bulb-on">
</g>
<g id="bulb-alt">
</g>
<g id="bulb-on-alt">
	<g>
		<path d="M32,8.3c-10.8,0-19.5,8.7-19.5,19.4c0,6.4,3.2,12.5,8.5,16.1v8.6c0,0.8,0.7,1.5,1.5,1.5H23v3.5c0,0.8,0.7,1.5,1.5,1.5H25
			v3.5c0,0.8,0.7,1.5,1.5,1.5h11c0.8,0,1.5-0.7,1.5-1.5V59h0.5c0.8,0,1.5-0.7,1.5-1.5V54h0.5c0.8,0,1.5-0.7,1.5-1.5v-8.6
			c5.3-3.6,8.5-9.7,8.5-16.1C51.5,17,42.8,8.3,32,8.3z M28.2,34l0.3,0.2c0.6,0.4,1.4,0.4,1.9-0.1l1.6-1.4l1.6,1.4
			c0.5,0.5,1.3,0.5,1.9,0.1l0.3-0.2l-1.6,11h-4.3L28.2,34z M40,48v3h-0.5h-15H24v-3H40z M36,61h-8v-2h8V61z M38,56h-0.5h-11H26v-2
			h12V56z M40.7,41.8C40.3,42.1,40,42.5,40,43v2h-2.8l2.1-14.1c0.1-0.6-0.2-1.2-0.7-1.5c-0.5-0.3-1.2-0.3-1.7,0.1l-2.2,1.6L33,29.5
			c0,0,0,0-0.1,0c0,0-0.1-0.1-0.1-0.1c0,0-0.1-0.1-0.1-0.1c0,0-0.1,0-0.1-0.1c0,0-0.1,0-0.1,0c0,0-0.1,0-0.1,0c0,0-0.1,0-0.1,0
			c0,0-0.1,0-0.1,0c0,0-0.1,0-0.1,0c0,0-0.1,0-0.1,0c0,0-0.1,0-0.1,0c0,0-0.1,0-0.1,0c0,0-0.1,0-0.1,0.1c0,0-0.1,0-0.1,0.1
			c0,0-0.1,0.1-0.1,0.1c0,0,0,0,0,0l-1.7,1.5l-2.2-1.6c-0.5-0.4-1.1-0.4-1.7-0.1c-0.5,0.3-0.8,0.9-0.7,1.5L26.8,45H24v-2
			c0-0.5-0.3-1-0.7-1.3c-4.8-3-7.8-8.4-7.8-14c0-9.1,7.4-16.4,16.5-16.4c9.1,0,16.5,7.4,16.5,16.4C48.5,33.4,45.5,38.7,40.7,41.8z"
			/>
		<path d="M23.9,6.4c0.2,0.6,0.8,0.9,1.4,0.9c0.2,0,0.4,0,0.6-0.1c0.8-0.3,1.1-1.2,0.8-2l-1.8-4.4c-0.3-0.8-1.2-1.1-2-0.8
			c-0.8,0.3-1.1,1.2-0.8,2L23.9,6.4z"/>
		<path d="M13.2,16.9c0.3-0.8-0.1-1.6-0.8-2L8,13.2c-0.8-0.3-1.6,0.1-2,0.8c-0.3,0.8,0.1,1.6,0.8,2l4.4,1.8c0.2,0.1,0.4,0.1,0.6,0.1
			C12.4,17.8,13,17.5,13.2,16.9z"/>
		<path d="M8.9,29.9L4.2,30c-0.8,0-1.5,0.7-1.5,1.5c0,0.8,0.7,1.5,1.5,1.5c0,0,0,0,0,0L9,32.9c0.8,0,1.5-0.7,1.5-1.5
			C10.4,30.5,9.8,29.9,8.9,29.9z"/>
		<path d="M38.1,7.3c0.2,0.1,0.4,0.1,0.6,0.1c0.6,0,1.2-0.4,1.4-0.9l1.8-4.4c0.3-0.8-0.1-1.6-0.8-2c-0.8-0.3-1.6,0.1-2,0.8l-1.8,4.4
			C37,6.1,37.4,6.9,38.1,7.3z"/>
		<path d="M57.9,14c-0.3-0.8-1.2-1.1-2-0.8l-4.4,1.8c-0.8,0.3-1.1,1.2-0.8,2c0.2,0.6,0.8,0.9,1.4,0.9c0.2,0,0.4,0,0.6-0.1l4.4-1.8
			C57.9,15.7,58.2,14.8,57.9,14z"/>
		<path d="M59.8,30l-4.7-0.1c-0.8,0-1.5,0.7-1.5,1.5c0,0.8,0.7,1.5,1.5,1.5l4.7,0.1c0,0,0,0,0,0c0.8,0,1.5-0.7,1.5-1.5
			C61.3,30.7,60.6,30,59.8,30z"/>
	</g>
</g>
<g id="energy-bulb">
</g>
<g id="toasting">
</g>
<g id="toasted">
</g>
<g id="binoculars">
</g>
<g id="gift">
</g>
<g id="shaver">
</g>
<g id="candle">
</g>
<g id="shower">
</g>
<g id="bomb">
</g>
<g id="joystick">
</g>
<g id="megaphone">
</g>
<g id="chestdraw">
</g>
<g id="armchair">
</g>
<g id="cardboard-box">
</g>
<g id="bath-shower">
</g>
<g id="diamond">
</g>
<g id="cassette">
</g>
<g id="iron">
</g>
<g id="wash">
</g>
<g id="keyboard-keys">
</g>
<g id="earphones">
</g>
<g id="lifebuoy">
</g>
<g id="calculator">
</g>
<g id="safe">
</g>
<g id="balloon">
</g>
<g id="cake">
</g>
<g id="baseball">
</g>
<g id="football-american">
</g>
<g id="football">
</g>
<g id="anchor">
</g>
<g id="compact-disc">
</g>
<g id="bbq">
</g>
<g id="coffee-machine">
</g>
<g id="teapot">
</g>
<g id="outdoor-stove">
</g>
<g id="pram">
</g>
<g id="paintbrush">
</g>
<g id="stamp">
</g>
<g id="eyedrop">
</g>
<g id="musical-note">
</g>
<g id="magnet">
</g>
<g id="alarm-bell">
</g>
<g id="globe">
</g>
<g id="key">
</g>
<g id="ink">
</g>
<g id="paperclip">
</g>
<g id="paint-roller">
</g>
<g id="keyboard">
</g>
</svg>
