<?xml version="1.0" encoding="utf-8"?>
<!-- Generator: Adobe Illustrator 20.1.0, SVG Export Plug-In . SVG Version: 6.00 Build 0)  -->
<!DOCTYPE svg PUBLIC "-//W3C//DTD SVG 1.1//EN" "http://www.w3.org/Graphics/SVG/1.1/DTD/svg11.dtd">
<svg version="1.1" xmlns="http://www.w3.org/2000/svg" xmlns:xlink="http://www.w3.org/1999/xlink" x="0px" y="0px"
	 viewBox="0 0 64 64" style="enable-background:new 0 0 64 64;" xml:space="preserve">
<g id="bulb">
</g>
<g id="bulb-on">
</g>
<g id="bulb-alt">
</g>
<g id="bulb-on-alt">
</g>
<g id="energy-bulb">
</g>
<g id="toasting">
</g>
<g id="toasted">
</g>
<g id="binoculars">
</g>
<g id="gift">
</g>
<g id="shaver">
</g>
<g id="candle">
</g>
<g id="shower">
</g>
<g id="bomb">
</g>
<g id="joystick">
</g>
<g id="megaphone">
</g>
<g id="chestdraw">
</g>
<g id="armchair">
</g>
<g id="cardboard-box">
</g>
<g id="bath-shower">
</g>
<g id="diamond">
</g>
<g id="cassette">
</g>
<g id="iron">
</g>
<g id="wash">
</g>
<g id="keyboard-keys">
</g>
<g id="earphones">
</g>
<g id="lifebuoy">
</g>
<g id="calculator">
</g>
<g id="safe">
</g>
<g id="balloon">
</g>
<g id="cake">
</g>
<g id="baseball">
	<path d="M54.6,9.4C42.1-3,21.9-3,9.4,9.4c-6,6-9.4,14-9.4,22.6s3.3,16.5,9.4,22.6c6.2,6.2,14.4,9.3,22.6,9.3s16.4-3.1,22.6-9.3
		c6-6,9.4-14,9.4-22.6S60.7,15.5,54.6,9.4z M11.5,11.6c4.9-4.9,11.1-7.6,17.5-8.3c0.4,1.3,0.7,2.7,0.8,4.1l-1.6-0.1
		c-0.8-0.1-1.6,0.5-1.6,1.4c-0.1,0.8,0.5,1.6,1.4,1.6l1.9,0.2c-0.1,1.9-0.5,3.7-1.1,5.4l-2.6-1.2c-0.8-0.4-1.6,0-2,0.7
		c-0.3,0.8,0,1.6,0.7,2l2.7,1.3c-0.8,1.5-1.7,2.8-2.8,4.1L23,20.9c-0.6-0.6-1.5-0.6-2.1,0c-0.6,0.6-0.6,1.5,0,2.1l1.8,1.8
		c-1.3,1.1-2.6,2-4.1,2.8l-1.3-2.7c-0.4-0.8-1.2-1.1-2-0.7c-0.8,0.4-1.1,1.2-0.7,2l1.2,2.6c-1.8,0.6-3.6,0.9-5.5,1.1l-0.2-1.9
		c-0.1-0.8-0.8-1.4-1.6-1.4c-0.8,0.1-1.4,0.8-1.4,1.6l0.1,1.6c-1.4-0.1-2.8-0.4-4.1-0.8C3.8,22.4,6.7,16.3,11.5,11.6z M3,32
		c1.5,0.4,3,0.6,4.6,0.7l0.3,3.4c0.1,0.8,0.7,1.4,1.5,1.4c0,0,0.1,0,0.1,0c0.8-0.1,1.4-0.8,1.4-1.6l-0.3-3.2
		c2.2-0.1,4.4-0.6,6.5-1.3l0.9,2c0.3,0.5,0.8,0.9,1.4,0.9c0.2,0,0.4,0,0.6-0.1c0.8-0.4,1.1-1.2,0.7-2l-0.9-1.9c1.8-0.9,3.4-2,5-3.4
		l1.9,1.9c0.3,0.3,0.7,0.4,1.1,0.4c0.4,0,0.8-0.1,1.1-0.4c0.6-0.6,0.6-1.5,0-2.1l-1.9-1.9c1.3-1.5,2.5-3.2,3.4-4.9l1.9,0.9
		c0.2,0.1,0.4,0.1,0.6,0.1c0.6,0,1.1-0.3,1.4-0.9c0.3-0.8,0-1.6-0.7-2l-2-0.9c0.7-2.1,1.2-4.2,1.3-6.4l3.2,0.3c0,0,0.1,0,0.1,0
		c0.8,0,1.4-0.6,1.5-1.4C37.6,8.7,37,8,36.2,7.9l-3.4-0.3c-0.1-1.5-0.3-3-0.7-4.5c7.4,0,14.8,2.8,20.5,8.5C57.9,17,61,24.2,61,31.8
		c-1.5-0.4-3-0.6-4.6-0.7l-0.3-3.3c-0.1-0.8-0.8-1.4-1.6-1.4c-0.8,0.1-1.4,0.8-1.4,1.6l0.3,3c-2.2,0.1-4.4,0.6-6.5,1.3L46,30.6
		c-0.4-0.8-1.2-1.1-2-0.7c-0.8,0.4-1.1,1.2-0.7,2l0.8,1.8c-1.8,0.9-3.5,2-5,3.4l-1.8-1.8c-0.6-0.6-1.5-0.6-2.1,0
		c-0.6,0.6-0.6,1.5,0,2.1l1.8,1.7c-1.3,1.5-2.5,3.2-3.4,5l-1.8-0.8c-0.8-0.3-1.6,0-2,0.7c-0.3,0.8,0,1.6,0.7,2l1.9,0.9
		c-0.7,2.1-1.2,4.3-1.3,6.5l-3-0.3c-0.8-0.1-1.6,0.5-1.6,1.4c-0.1,0.8,0.5,1.6,1.4,1.6l3.3,0.3c0.1,1.5,0.3,3,0.7,4.5
		c-7.4,0-14.7-2.9-20.3-8.4C6,47,3,39.7,3,32z M52.5,52.4c-4.9,4.9-11.2,7.7-17.6,8.3c-0.4-1.3-0.7-2.7-0.8-4.1l1.8,0.2
		c0,0,0.1,0,0.1,0c0.8,0,1.4-0.6,1.5-1.4c0.1-0.8-0.5-1.6-1.4-1.6l-2.1-0.2c0.1-1.9,0.5-3.7,1.1-5.5l2.8,1.3
		c0.2,0.1,0.4,0.1,0.6,0.1c0.6,0,1.1-0.3,1.4-0.9c0.3-0.8,0-1.6-0.7-2l-2.9-1.3c0.8-1.5,1.7-2.9,2.8-4.1l1.9,1.9
		c0.3,0.3,0.7,0.4,1.1,0.4c0.4,0,0.8-0.1,1.1-0.4c0.6-0.6,0.6-1.5,0-2.1l-1.9-1.9c1.3-1.1,2.7-2,4.1-2.8l1.3,2.9
		c0.3,0.5,0.8,0.9,1.4,0.9c0.2,0,0.4,0,0.6-0.1c0.8-0.4,1.1-1.2,0.7-2l-1.3-2.7c1.8-0.6,3.6-1,5.5-1.1l0.2,2.1
		c0.1,0.8,0.7,1.4,1.5,1.4c0,0,0.1,0,0.1,0c0.8-0.1,1.4-0.8,1.4-1.6l-0.2-1.8c1.4,0.1,2.8,0.4,4.2,0.8
		C60.2,41.5,57.3,47.7,52.5,52.4z"/>
</g>
<g id="football-american">
</g>
<g id="football">
</g>
<g id="anchor">
</g>
<g id="compact-disc">
</g>
<g id="bbq">
</g>
<g id="coffee-machine">
</g>
<g id="teapot">
</g>
<g id="outdoor-stove">
</g>
<g id="pram">
</g>
<g id="paintbrush">
</g>
<g id="stamp">
</g>
<g id="eyedrop">
</g>
<g id="musical-note">
</g>
<g id="magnet">
</g>
<g id="alarm-bell">
</g>
<g id="globe">
</g>
<g id="key">
</g>
<g id="ink">
</g>
<g id="paperclip">
</g>
<g id="paint-roller">
</g>
<g id="keyboard">
</g>
</svg>
