<?xml version="1.0" encoding="utf-8"?>
<!-- Generator: Adobe Illustrator 20.1.0, SVG Export Plug-In . SVG Version: 6.00 Build 0)  -->
<!DOCTYPE svg PUBLIC "-//W3C//DTD SVG 1.1//EN" "http://www.w3.org/Graphics/SVG/1.1/DTD/svg11.dtd">
<svg version="1.1" xmlns="http://www.w3.org/2000/svg" xmlns:xlink="http://www.w3.org/1999/xlink" x="0px" y="0px"
	 viewBox="0 0 64 64" style="enable-background:new 0 0 64 64;" xml:space="preserve">
<g id="chart">
</g>
<g id="line-chart">
</g>
<g id="bar-chart">
	<g>
		<path d="M62.5,28.5c-0.8,0-1.5,0.7-1.5,1.5v21c0,0.8,0.7,1.5,1.5,1.5S64,51.8,64,51V30C64,29.2,63.3,28.5,62.5,28.5z"/>
		<path d="M42.5,11.5c-0.8,0-1.5,0.7-1.5,1.5v38c0,0.8,0.7,1.5,1.5,1.5S44,51.8,44,51V13C44,12.2,43.3,11.5,42.5,11.5z"/>
		<path d="M21.5,23.5c-0.8,0-1.5,0.7-1.5,1.5v26c0,0.8,0.7,1.5,1.5,1.5S23,51.8,23,51V25C23,24.2,22.3,23.5,21.5,23.5z"/>
		<path d="M1.5,37.5C0.7,37.5,0,38.2,0,39v12c0,0.8,0.7,1.5,1.5,1.5S3,51.8,3,51V39C3,38.2,2.3,37.5,1.5,37.5z"/>
	</g>
</g>
<g id="bar-horizontal-chart">
</g>
<g id="area-chart">
</g>
<g id="pie-chart">
</g>
<g id="donut-chart">
</g>
</svg>
