<?xml version="1.0" encoding="utf-8"?>
<!-- Generator: Adobe Illustrator 21.1.0, SVG Export Plug-In . SVG Version: 6.00 Build 0)  -->
<!DOCTYPE svg PUBLIC "-//W3C//DTD SVG 1.1//EN" "http://www.w3.org/Graphics/SVG/1.1/DTD/svg11.dtd">
<svg version="1.1" id="Layer_1" xmlns="http://www.w3.org/2000/svg" xmlns:xlink="http://www.w3.org/1999/xlink" x="0px" y="0px"
	 viewBox="0 0 64 64" style="enable-background:new 0 0 64 64;" xml:space="preserve">
<g id="file">
</g>
<g id="copy">
</g>
<g id="file-edit">
</g>
<g id="folder">
</g>
<g id="subdirectory">
</g>
<g id="album">
</g>
<g id="push">
</g>
<g id="pull">
</g>
<g id="database">
</g>
<g id="server">
</g>
<g id="upload">
</g>
<g id="download">
</g>
<g id="cloud-download">
</g>
<g id="cloud-upload">
</g>
<g id="cloud">
</g>
<g id="cloud-no-access">
</g>
<g id="cloud-signal-up">
</g>
<g id="cloud-signal-down">
</g>
<g id="checklist">
</g>
<g id="file-folded">
</g>
<g id="file-folded-text">
</g>
<g id="inbox">
</g>
<g id="zip-folder">
</g>
<g id="image-folder">
</g>
<g id="image-album">
</g>
<g id="image">
</g>
<g id="images">
</g>
<g id="invoice">
</g>
<g id="book">
</g>
<g id="layers">
</g>
<g id="media-upload">
</g>
<g id="floppy">
</g>
<g id="link">
</g>
<g id="link-add">
</g>
<g id="link-remove">
</g>
<g id="table">
</g>
<g id="download-book">
</g>
<g id="clipboard">
</g>
<g id="clipboard-chart">
</g>
<g id="clipboard-text">
</g>
<g id="clipboard-check">
</g>
<g id="clipboard-cross">
</g>
<g id="bookmark">
</g>
<g id="bookmark-add">
</g>
<g id="bookmark-remove">
</g>
<g id="clipboard-horizontal">
</g>
<g id="clipboard-text-horizontal">
</g>
<g id="trash">
</g>
<g id="unlock">
</g>
<g id="lock">
</g>
<g id="link-add-circle">
</g>
<g id="link-remove-circle">
</g>
<g id="sort-up">
</g>
<g id="sort-down">
</g>
<g id="list">
</g>
<g>
	<path d="M42.8,18.6c0-0.8-0.7-1.5-1.5-1.5H22.7c-0.8,0-1.5,0.7-1.5,1.5s0.7,1.5,1.5,1.5h18.7C42.2,20.1,42.8,19.4,42.8,18.6z"/>
	<path d="M62,57.5c-1.3,0-2.7,0.6-4.1,1.1c-1,0.4-2.1,0.8-2.7,0.9c-0.8,0-2.3-0.5-3.6-0.9c-1.5-0.5-3-1-4.2-1.1
		c-1.3-0.1-2.7,0.5-4.3,1.1c-1.1,0.4-2.4,0.9-3,0.9c0,0,0,0,0,0c-0.7,0-2.1-0.5-3.3-0.9c-1.6-0.6-3.1-1.1-4.3-1.1
		c-1.2,0-2.6,0.5-4.1,1.1c-1.1,0.4-2.4,0.9-3.1,0.9c-0.7,0-2.1-0.5-3.4-0.9c-1.6-0.5-3.1-1.1-4.3-1.1c-1.3,0-2.9,0.5-4.5,1.1
		c-1.3,0.4-2.8,0.9-3.6,0.9c-0.8,0-2.4-0.6-3.7-1c-1.7-0.6-2.8-1-3.7-1c-0.8,0-1.5,0.7-1.5,1.5s0.7,1.5,1.5,1.5
		c0.4,0,1.8,0.5,2.7,0.8c1.7,0.6,3.4,1.2,4.7,1.2c1.3,0,2.9-0.5,4.6-1.1c1.3-0.4,2.8-0.9,3.6-0.9c0.7,0,2.1,0.5,3.3,0.9
		c1.6,0.6,3.1,1.1,4.4,1.1c1.2,0,2.6-0.5,4.1-1.1c1.1-0.4,2.4-0.9,3.1-0.9c0.8,0,2.1,0.5,3.3,0.9c1.6,0.6,3.1,1.1,4.3,1.1
		c0,0,0,0,0,0c1.2,0,2.6-0.5,4-1.1c1.1-0.4,2.5-0.9,3.2-0.9c0.8,0,2.1,0.5,3.3,0.9c1.7,0.6,3.2,1.1,4.5,1.1c0,0,0.1,0,0.1,0
		c1.1,0,2.4-0.5,3.8-1.1c1.1-0.4,2.3-0.9,3-0.9c0.8,0,1.5-0.7,1.5-1.5S62.8,57.5,62,57.5z"/>
	<path d="M2,54.2c0.4,0,1.8,0.5,2.7,0.8c1.7,0.6,3.4,1.2,4.7,1.2c1.3,0,2.9-0.5,4.6-1.1c1.3-0.4,2.7-0.9,3.5-0.9c0,0,0,0,0,0
		c0.7,0,2.1,0.5,3.3,0.9c1.6,0.6,3.1,1.1,4.4,1.1c1.2,0,2.6-0.5,4.1-1.1c1.1-0.4,2.4-0.9,3.1-0.9c0,0,0,0,0,0c0.7,0,2.1,0.5,3.3,0.9
		c1.6,0.6,3.1,1.1,4.3,1.1c1.2,0,2.6-0.5,4-1.1c1.1-0.4,2.5-0.9,3.2-0.9c0.8,0,2.1,0.5,3.3,0.9c1.7,0.6,3.2,1.1,4.5,1.1
		c0,0,0.1,0,0.1,0c1.1,0,2.4-0.5,3.8-1.1c1.1-0.4,2.3-0.9,3-0.9c0.8,0,1.5-0.7,1.5-1.5s-0.7-1.5-1.5-1.5c-1.3,0-2.7,0.6-4.1,1.1
		c-1,0.4-2.1,0.8-2.7,0.9c-0.8,0-2.3-0.5-3.6-0.9c-0.1,0-0.2-0.1-0.3-0.1l3.8-20.3c0.1-0.7-0.3-1.4-1-1.7l-6.4-2.4V13.6
		c0-0.8-0.7-1.5-1.5-1.5h-6V8.5c0-0.8-0.7-1.5-1.5-1.5h-3.5v-4c0-0.8-0.7-1.5-1.5-1.5c-0.8,0-1.5,0.7-1.5,1.5v4h-6.9
		c-0.8,0-1.5,0.7-1.5,1.5v3.5h-6c-0.8,0-1.5,0.7-1.5,1.5v14.3l-6.4,2.3c-0.7,0.3-1.1,1-1,1.7l3.9,20.5c-1.2,0.4-2.6,0.8-3.3,0.8
		c-0.8,0-2.4-0.6-3.7-1c-1.7-0.6-2.8-1-3.7-1c-0.8,0-1.5,0.7-1.5,1.5S1.2,54.2,2,54.2z M26.8,10h10.4v2H26.8V10z M19.3,15.1h25.5
		v11.6l-12.2-4.5c-0.3-0.1-0.7-0.1-1,0l-12.3,4.5V15.1z M32.1,25.2l19.9,7.3l-3.6,18.8c-0.3-0.1-0.6-0.1-0.9-0.1
		c-1.3-0.1-2.7,0.5-4.3,1.1c-1.1,0.4-2.4,0.9-3,0.9c0,0,0,0,0,0c-0.7,0-2.1-0.5-3.3-0.9c-1.2-0.4-2.3-0.8-3.3-1V32l12.2,4.1
		c0.2,0.1,0.3,0.1,0.5,0.1c0.6,0,1.2-0.4,1.4-1c0.3-0.8-0.2-1.6-0.9-1.9l-14.1-4.8c0,0-0.1,0-0.1,0c-0.1,0-0.1,0-0.2,0
		c0,0-0.1,0-0.1,0c0,0-0.1,0-0.1,0c0,0,0,0-0.1,0c0,0-0.1,0-0.1,0c-0.1,0-0.1,0-0.2,0c0,0-0.1,0-0.1,0c-0.1,0-0.1,0-0.2,0.1
		c0,0-0.1,0-0.1,0.1c-0.1,0-0.1,0.1-0.2,0.1c0,0-0.1,0-0.1,0.1c0,0-0.1,0.1-0.1,0.1c0,0-0.1,0.1-0.1,0.1c0,0-0.1,0.1-0.1,0.1
		c0,0,0,0.1-0.1,0.1c0,0.1-0.1,0.1-0.1,0.2c0,0,0,0,0,0c0,0,0,0.1,0,0.1c0,0.1,0,0.1,0,0.2c0,0.1,0,0.1,0,0.2c0,0,0,0.1,0,0.1v21.6
		c-0.7,0.2-1.4,0.5-2.2,0.8c-1.1,0.4-2.4,0.9-3.1,0.9c0,0,0,0,0,0c-0.7,0-2.1-0.5-3.4-0.9c-1.6-0.5-3.1-1.1-4.3-1.1
		c-0.6,0-1.2,0.1-1.9,0.3l-3.6-18.9L32.1,25.2z"/>
</g>
</svg>
