<?xml version="1.0" encoding="utf-8"?>
<!-- Generator: Adobe Illustrator 20.1.0, SVG Export Plug-In . SVG Version: 6.00 Build 0)  -->
<!DOCTYPE svg PUBLIC "-//W3C//DTD SVG 1.1//EN" "http://www.w3.org/Graphics/SVG/1.1/DTD/svg11.dtd">
<svg version="1.1" xmlns="http://www.w3.org/2000/svg" xmlns:xlink="http://www.w3.org/1999/xlink" x="0px" y="0px"
	 viewBox="0 0 64 64" style="enable-background:new 0 0 64 64;" xml:space="preserve">
<g id="bulb">
</g>
<g id="bulb-on">
	<g>
		<path d="M32,9.1c-11.4,0-20.7,9.2-20.7,20.5c0,6.7,3.5,13.2,9.1,17.1v9.5c0,0.8,0.7,1.5,1.5,1.5h20.2c0.8,0,1.5-0.7,1.5-1.5v-9.5
			c5.6-3.9,9.1-10.3,9.1-17.1C52.7,18.3,43.4,9.1,32,9.1z M41.3,44.6c-0.4,0.3-0.7,0.8-0.7,1.3v8.8H23.4v-8.8c0-0.5-0.3-1-0.7-1.3
			c-5.2-3.2-8.4-9-8.4-15c0-9.7,7.9-17.5,17.7-17.5c9.7,0,17.7,7.9,17.7,17.5C49.7,35.6,46.5,41.3,41.3,44.6z"/>
		<path d="M37.3,61H26.7c-0.8,0-1.5,0.7-1.5,1.5s0.7,1.5,1.5,1.5h10.6c0.8,0,1.5-0.7,1.5-1.5S38.2,61,37.3,61z"/>
		<path d="M23.5,6.7c0.2,0.6,0.8,0.9,1.4,0.9c0.2,0,0.4,0,0.6-0.1c0.8-0.3,1.1-1.2,0.8-2l-1.9-4.6c-0.3-0.8-1.2-1.1-2-0.8
			c-0.8,0.3-1.1,1.2-0.8,2L23.5,6.7z"/>
		<path d="M11.9,17.8c0.3-0.8-0.1-1.6-0.8-2L6.4,14c-0.8-0.3-1.6,0.1-2,0.8c-0.3,0.8,0.1,1.6,0.8,2l4.6,1.9c0.2,0.1,0.4,0.1,0.6,0.1
			C11.1,18.7,11.7,18.4,11.9,17.8z"/>
		<path d="M7.4,31.7l-5,0.1c-0.8,0-1.5,0.7-1.5,1.5c0,0.8,0.7,1.5,1.5,1.5c0,0,0,0,0,0l5-0.1C8.3,34.7,9,34,9,33.2
			C8.9,32.4,8.3,31.7,7.4,31.7z"/>
		<path d="M38.6,7.5c0.2,0.1,0.4,0.1,0.6,0.1c0.6,0,1.2-0.4,1.4-0.9l1.9-4.6c0.3-0.8-0.1-1.6-0.8-2c-0.8-0.3-1.6,0.1-2,0.8l-1.9,4.6
			C37.4,6.3,37.8,7.2,38.6,7.5z"/>
		<path d="M59.5,14.8c-0.3-0.8-1.2-1.1-2-0.8l-4.6,1.9c-0.8,0.3-1.1,1.2-0.8,2c0.2,0.6,0.8,0.9,1.4,0.9c0.2,0,0.4,0,0.6-0.1l4.6-1.9
			C59.5,16.5,59.8,15.6,59.5,14.8z"/>
		<path d="M61.6,31.8l-5-0.1c-0.8,0-1.5,0.7-1.5,1.5c0,0.8,0.7,1.5,1.5,1.5l5,0.1c0,0,0,0,0,0c0.8,0,1.5-0.7,1.5-1.5
			C63.1,32.5,62.4,31.8,61.6,31.8z"/>
	</g>
</g>
<g id="bulb-alt">
</g>
<g id="bulb-on-alt">
</g>
<g id="energy-bulb">
</g>
<g id="toasting">
</g>
<g id="toasted">
</g>
<g id="binoculars">
</g>
<g id="gift">
</g>
<g id="shaver">
</g>
<g id="candle">
</g>
<g id="shower">
</g>
<g id="bomb">
</g>
<g id="joystick">
</g>
<g id="megaphone">
</g>
<g id="chestdraw">
</g>
<g id="armchair">
</g>
<g id="cardboard-box">
</g>
<g id="bath-shower">
</g>
<g id="diamond">
</g>
<g id="cassette">
</g>
<g id="iron">
</g>
<g id="wash">
</g>
<g id="keyboard-keys">
</g>
<g id="earphones">
</g>
<g id="lifebuoy">
</g>
<g id="calculator">
</g>
<g id="safe">
</g>
<g id="balloon">
</g>
<g id="cake">
</g>
<g id="baseball">
</g>
<g id="football-american">
</g>
<g id="football">
</g>
<g id="anchor">
</g>
<g id="compact-disc">
</g>
<g id="bbq">
</g>
<g id="coffee-machine">
</g>
<g id="teapot">
</g>
<g id="outdoor-stove">
</g>
<g id="pram">
</g>
<g id="paintbrush">
</g>
<g id="stamp">
</g>
<g id="eyedrop">
</g>
<g id="musical-note">
</g>
<g id="magnet">
</g>
<g id="alarm-bell">
</g>
<g id="globe">
</g>
<g id="key">
</g>
<g id="ink">
</g>
<g id="paperclip">
</g>
<g id="paint-roller">
</g>
<g id="keyboard">
</g>
</svg>
