<?xml version="1.0" encoding="utf-8"?>
<!-- Generator: Adobe Illustrator 20.1.0, SVG Export Plug-In . SVG Version: 6.00 Build 0)  -->
<!DOCTYPE svg PUBLIC "-//W3C//DTD SVG 1.1//EN" "http://www.w3.org/Graphics/SVG/1.1/DTD/svg11.dtd">
<svg version="1.1" xmlns="http://www.w3.org/2000/svg" xmlns:xlink="http://www.w3.org/1999/xlink" x="0px" y="0px"
	 viewBox="0 0 64 64" style="enable-background:new 0 0 64 64;" xml:space="preserve">
<g id="file">
</g>
<g id="copy">
</g>
<g id="file-edit">
</g>
<g id="folder">
</g>
<g id="subdirectory">
</g>
<g id="album">
</g>
<g id="push">
</g>
<g id="pull">
</g>
<g id="database">
</g>
<g id="server">
</g>
<g id="upload">
</g>
<g id="download">
</g>
<g id="cloud-download">
</g>
<g id="cloud-upload">
</g>
<g id="cloud">
</g>
<g id="cloud-no-access">
</g>
<g id="cloud-signal-up">
</g>
<g id="cloud-signal-down">
</g>
<g id="checklist">
</g>
<g id="file-folded">
</g>
<g id="file-folded-text">
</g>
<g id="inbox">
</g>
<g id="zip-folder">
</g>
<g id="image-folder">
</g>
<g id="image-album">
</g>
<g id="image">
</g>
<g id="images">
</g>
<g id="invoice">
</g>
<g id="book">
	<g>
		<path d="M61.7,4.6c-0.4-0.3-1-0.3-1.4-0.1L32,17.3L3.7,4.5c-0.5-0.2-1-0.2-1.4,0.1C1.8,4.9,1.6,5.3,1.6,5.9v42.5
			c0,0.6,0.3,1.1,0.8,1.3l28.9,14.2c0.2,0.1,0.4,0.2,0.7,0.2s0.5-0.1,0.7-0.2l28.9-14.2c0.5-0.3,0.8-0.8,0.8-1.3V5.9
			C62.4,5.3,62.2,4.9,61.7,4.6z M4.6,8.2l25.9,11.7c0,0.1,0,0.1,0,0.2v40L4.6,47.4V8.2z M59.4,47.4L33.5,60.1v-40c0-0.1,0-0.1,0-0.2
			L59.4,8.2V47.4z"/>
		<path d="M9.4,2.8l21.9,10.9c0.2,0.1,0.4,0.2,0.7,0.2s0.5-0.1,0.7-0.2L54.6,2.8c0.7-0.4,1-1.3,0.7-2c-0.4-0.7-1.3-1-2-0.7L32,10.7
			L10.7,0.2c-0.7-0.4-1.6-0.1-2,0.7C8.3,1.6,8.7,2.5,9.4,2.8z"/>
	</g>
</g>
<g id="layers">
</g>
<g id="media-upload">
</g>
<g id="addresses">
</g>
<g id="floppy">
</g>
<g id="link">
</g>
<g id="link-add">
</g>
<g id="link-remove">
</g>
<g id="table">
</g>
<g id="download-book">
</g>
<g id="clipboard">
</g>
<g id="clipboard-chart">
</g>
<g id="clipboard-text">
</g>
<g id="clipboard-check">
</g>
<g id="clipboard-cross">
</g>
<g id="bookmark">
</g>
<g id="bookmark-add">
</g>
<g id="bookmark-remove">
</g>
<g id="clipboard-horizontal">
</g>
<g id="clipboard-text-horizontal">
</g>
<g id="trash">
</g>
<g id="unlock">
</g>
<g id="lock">
</g>
<g id="link-add-circle">
</g>
<g id="link-remove-circle">
</g>
<g id="sort-up">
</g>
<g id="sort-down">
</g>
<g id="list">
</g>
</svg>
