<?xml version="1.0" encoding="utf-8"?>
<!-- Generator: Adobe Illustrator 20.1.0, SVG Export Plug-In . SVG Version: 6.00 Build 0)  -->
<!DOCTYPE svg PUBLIC "-//W3C//DTD SVG 1.1//EN" "http://www.w3.org/Graphics/SVG/1.1/DTD/svg11.dtd">
<svg version="1.1" xmlns="http://www.w3.org/2000/svg" xmlns:xlink="http://www.w3.org/1999/xlink" x="0px" y="0px"
	 viewBox="0 0 64 64" style="enable-background:new 0 0 64 64;" xml:space="preserve">
<g id="home">
</g>
<g id="shop">
</g>
<g id="buildings">
	<g>
		<path d="M55.1,12l-25-11.8c-0.5-0.2-1-0.2-1.4,0.1C28.3,0.5,28,1,28,1.5V12H9.5C8.7,12,8,12.6,8,13.5v49C8,63.3,8.7,64,9.5,64h20
			h25c0.8,0,1.5-0.7,1.5-1.5V13.3C56,12.7,55.7,12.2,55.1,12z M11,15h17v46H11V15z M53,61H31V13.5V3.9l22,10.4V61z"/>
		<rect x="39" y="47" width="6" height="6"/>
		<rect x="39" y="35" width="6" height="6"/>
		<rect x="39" y="23" width="6" height="6"/>
		<rect x="15" y="47" width="10" height="6"/>
		<rect x="15" y="35" width="10" height="6"/>
		<rect x="15" y="23" width="10" height="6"/>
	</g>
</g>
<g id="solar-panel">
</g>
<g id="towers">
</g>
<g id="stadium">
</g>
<g id="station">
</g>
<g id="shop-alt">
</g>
<g id="home-alt">
</g>
<g id="factory">
</g>
<g id="rig">
</g>
<g id="shipping-container">
</g>
<g id="official-building">
</g>
</svg>
