<?xml version="1.0" encoding="utf-8"?>
<!-- Generator: Adobe Illustrator 20.1.0, SVG Export Plug-In . SVG Version: 6.00 Build 0)  -->
<!DOCTYPE svg PUBLIC "-//W3C//DTD SVG 1.1//EN" "http://www.w3.org/Graphics/SVG/1.1/DTD/svg11.dtd">
<svg version="1.1" xmlns="http://www.w3.org/2000/svg" xmlns:xlink="http://www.w3.org/1999/xlink" x="0px" y="0px"
	 viewBox="0 0 64 64" style="enable-background:new 0 0 64 64;" xml:space="preserve">
<g id="bulb">
</g>
<g id="bulb-on">
</g>
<g id="bulb-alt">
</g>
<g id="bulb-on-alt">
</g>
<g id="energy-bulb">
</g>
<g id="toasting">
</g>
<g id="toasted">
</g>
<g id="binoculars">
</g>
<g id="gift">
</g>
<g id="shaver">
</g>
<g id="candle">
</g>
<g id="shower">
</g>
<g id="bomb">
</g>
<g id="joystick">
</g>
<g id="megaphone">
</g>
<g id="chestdraw">
</g>
<g id="armchair">
</g>
<g id="cardboard-box">
</g>
<g id="bath-shower">
</g>
<g id="diamond">
</g>
<g id="cassette">
</g>
<g id="iron">
</g>
<g id="wash">
</g>
<g id="keyboard-keys">
</g>
<g id="earphones">
</g>
<g id="lifebuoy">
</g>
<g id="calculator">
</g>
<g id="safe">
</g>
<g id="balloon">
	<path d="M43.6,13.5C43.6,6.1,38.4,0,32,0S20.4,6.1,20.4,13.5c0,6.5,4,12,9.3,13.2l-2.1,4.1c-0.2,0.5-0.2,1,0.1,1.5
		C28,32.7,28.5,33,29,33h0.7c-0.2,0.3-0.3,0.7-0.5,1c-0.6,1.4-1.1,2.7-1.3,4c-0.5,2.6-0.3,5.2,0.7,7.5c0.7,1.6,1.4,2.9,2.2,4
		l0.4,0.6c0.7,0.9,1.3,1.8,1.7,2.8c1.4,3.3-0.1,6.6-1.6,8.8c-0.5,0.7-0.3,1.6,0.4,2.1c0.3,0.2,0.6,0.3,0.8,0.3c0.5,0,1-0.2,1.2-0.7
		c2.7-4,3.4-8.2,1.9-11.7c-0.5-1.2-1.3-2.3-2-3.3l-0.4-0.6c-0.7-1-1.3-2-1.9-3.5c-0.7-1.7-0.9-3.6-0.5-5.7c0.2-1.1,0.6-2.2,1.1-3.4
		c0.2-0.5,0.5-1,0.8-1.6c0-0.1,0.1-0.2,0.1-0.2c0.1-0.1,0.2-0.3,0.2-0.4H35c0.5,0,1-0.3,1.3-0.7c0.3-0.4,0.3-1,0.1-1.5l-2.1-4.1
		C39.6,25.5,43.6,20,43.6,13.5z M31.4,30l0.6-1.2l0.6,1.2H31.4z M32.1,24c0,0-0.1,0-0.1,0s-0.1,0-0.1,0c-4.7-0.1-8.5-4.8-8.5-10.5
		C23.4,7.7,27.3,3,32,3s8.6,4.7,8.6,10.5C40.6,19.2,36.8,23.9,32.1,24z"/>
</g>
<g id="cake">
</g>
<g id="baseball">
</g>
<g id="football-american">
</g>
<g id="football">
</g>
<g id="anchor">
</g>
<g id="compact-disc">
</g>
<g id="bbq">
</g>
<g id="coffee-machine">
</g>
<g id="teapot">
</g>
<g id="outdoor-stove">
</g>
<g id="pram">
</g>
<g id="paintbrush">
</g>
<g id="stamp">
</g>
<g id="eyedrop">
</g>
<g id="musical-note">
</g>
<g id="magnet">
</g>
<g id="alarm-bell">
</g>
<g id="globe">
</g>
<g id="key">
</g>
<g id="ink">
</g>
<g id="paperclip">
</g>
<g id="paint-roller">
</g>
<g id="keyboard">
</g>
</svg>
