<?xml version="1.0" encoding="utf-8"?>
<!-- Generator: Adobe Illustrator 20.1.0, SVG Export Plug-In . SVG Version: 6.00 Build 0)  -->
<!DOCTYPE svg PUBLIC "-//W3C//DTD SVG 1.1//EN" "http://www.w3.org/Graphics/SVG/1.1/DTD/svg11.dtd">
<svg version="1.1" xmlns="http://www.w3.org/2000/svg" xmlns:xlink="http://www.w3.org/1999/xlink" x="0px" y="0px"
	 viewBox="0 0 64 64" style="enable-background:new 0 0 64 64;" xml:space="preserve">
<g id="behance">
	<g>
		<path d="M25.3,30c5.4-3.2,7-10.2,2.2-15c-2.6-2.6-7.4-2.6-10.9-2.6c-5.4,0-11.2,0-16.6,0v38.4c5.4,0,10.9,0,16.6,0
			c3.2,0,6.7,0,9.9-1.6c6.1-2.9,7-10.2,3.8-15.7C29.1,31.9,27.5,30.7,25.3,30z M8.3,19.1h9.6c5.8,0,5.8,8.6-0.3,8.6
			c-3.2,0-6.4,0-9.3,0V19.1z M18.9,44.1L8.3,43.8v-9.9c3.5,0,6.7,0,10.2,0C25.3,33.9,25.3,44.1,18.9,44.1z"/>
		<path d="M45.1,44.1c-1.3-1.3-1.9-3.5-1.9-5.4H64c0-1.6-0.3-4.2-0.3-4.2C63,29.1,59.8,23.9,54.4,22C41,17.9,31,32.9,37.4,44.7
			c2.9,5.4,9,7.4,15,6.7c5.4-0.6,9.3-4.2,10.9-9.3h-7C55,46.3,48.6,47,45.1,44.1z M54.4,29.1c1.3,1.3,1.6,2.9,1.9,4.5H43.2
			C43.2,28.4,50.6,24.9,54.4,29.1z"/>
		<rect x="41.6" y="12.4" width="16" height="4.5"/>
	</g>
</g>
<g id="twitter">
</g>
<g id="vimeo">
</g>
<g id="wordpress">
</g>
<g id="Layer_179">
</g>
<g id="xing">
</g>
<g id="youtube">
</g>
<g id="whatsapp">
</g>
<g id="flickr">
</g>
<g id="dribbble">
</g>
<g id="facebook">
</g>
<g id="foursquare">
</g>
<g id="github">
</g>
<g id="github-alt">
</g>
<g id="google-plus">
</g>
<g id="google">
</g>
<g id="joomla">
</g>
<g id="soundcloud">
</g>
<g id="instagram">
</g>
<g id="linkedin">
</g>
<g id="pagekit">
</g>
<g id="pinterest">
</g>
<g id="windows">
</g>
<g id="bronzelabs">
</g>
<g id="apple">
</g>
<g id="android">
</g>
<g id="mwkr-alt">
</g>
<g id="mwkr">
</g>
<g id="deviantart">
</g>
<g id="deviantart-alt">
</g>
</svg>
