<?xml version="1.0" encoding="utf-8"?>
<!-- Generator: Adobe Illustrator 20.1.0, SVG Export Plug-In . SVG Version: 6.00 Build 0)  -->
<!DOCTYPE svg PUBLIC "-//W3C//DTD SVG 1.1//EN" "http://www.w3.org/Graphics/SVG/1.1/DTD/svg11.dtd">
<svg version="1.1" xmlns="http://www.w3.org/2000/svg" xmlns:xlink="http://www.w3.org/1999/xlink" x="0px" y="0px"
	 viewBox="0 0 64 64" style="enable-background:new 0 0 64 64;" xml:space="preserve">
<g id="credit-card">
</g>
<g id="tag">
</g>
<g id="trolley">
</g>
<g id="trolley-out">
</g>
<g id="trolley-in">
</g>
<g id="wallet">
</g>
<g id="shopping-bag">
</g>
<g id="basket">
</g>
<g id="dollar-circle">
</g>
<g id="pound-circle">
</g>
<g id="euro-circle">
</g>
<g id="yen-circle">
</g>
<g id="purse">
</g>
<g id="banknote">
	<g>
		<path d="M61.3,12.5c-1.6-1-3.8-1.1-5.5-0.2c-2.6,1.4-5.4,2-8.5,2c-4.4,0-8.9-1.2-13.8-2.5C28.1,10.5,22.6,9,16.8,9
			c-5,0-9.5,1.1-13.8,3.3c-1.8,1-3,2.9-3,5v29.3c0,2,1,3.8,2.7,4.8c1.7,1,3.8,1.1,5.5,0.1c2.6-1.4,5.4-2,8.5-2c0,0,0,0,0,0
			c4.4,0,8.9,1.2,13.8,2.5c5.3,1.4,10.8,2.9,16.6,2.9c5,0,9.5-1.1,13.8-3.3c1.8-1,3-2.9,3-5V17.4C64,15.4,63,13.6,61.3,12.5z
			 M61,46.6c0,1-0.5,1.9-1.4,2.3c-3.8,2-7.9,3-12.4,3c-5.4,0-10.7-1.4-15.9-2.8c-5-1.3-9.8-2.6-14.5-2.6c0,0,0,0,0,0
			c-3.6,0-6.9,0.8-9.9,2.4c-0.8,0.4-1.8,0.4-2.6-0.1C3.5,48.4,3,47.6,3,46.6V17.4c0-1,0.5-1.9,1.4-2.3c3.8-2,7.9-3,12.4-3
			c5.4,0,10.8,1.4,15.9,2.8c4.8,1.3,9.8,2.6,14.5,2.6c0,0,0,0,0,0c3.6,0,6.9-0.8,9.9-2.4c0.8-0.4,1.8-0.4,2.6,0.1
			c0.8,0.5,1.3,1.3,1.3,2.3V46.6z"/>
		<path d="M55.3,23.2l-2.4,0.4c-1.4,0.2-2.9,0.3-4.4,0.3c-1.4,0-2.9-0.1-4.7-0.4c-0.8-0.1-1.6,0.5-1.7,1.3c-0.1,0.8,0.5,1.6,1.3,1.7
			c1.9,0.2,3.6,0.4,5.1,0.4c1.6,0,3.3-0.1,4.9-0.4l2.4-0.4c0.8-0.1,1.4-0.9,1.2-1.7C56.9,23.7,56.1,23.1,55.3,23.2z"/>
		<path d="M32,23.9c-4.5,0-8.1,3.6-8.1,8.1s3.6,8.1,8.1,8.1s8.1-3.6,8.1-8.1S36.5,23.9,32,23.9z M32,37.1c-2.8,0-5.1-2.3-5.1-5.1
			s2.3-5.1,5.1-5.1s5.1,2.3,5.1,5.1S34.8,37.1,32,37.1z"/>
		<path d="M20.7,37.7c-1.4-0.2-3.2-0.4-5.1-0.4c-1.7,0-3.3,0.1-4.9,0.4L8.4,38c-0.8,0.1-1.4,0.9-1.2,1.7C7.2,40.5,7.9,41,8.6,41
			c0.1,0,0.2,0,0.2,0l2.4-0.4c1.4-0.2,2.9-0.3,4.4-0.3c1.7,0,3.4,0.2,4.7,0.4c0.8,0.1,1.6-0.5,1.7-1.3
			C22.1,38.5,21.5,37.8,20.7,37.7z"/>
	</g>
</g>
</svg>
