<?xml version="1.0" encoding="utf-8"?>
<!-- Generator: Adobe Illustrator 20.1.0, SVG Export Plug-In . SVG Version: 6.00 Build 0)  -->
<!DOCTYPE svg PUBLIC "-//W3C//DTD SVG 1.1//EN" "http://www.w3.org/Graphics/SVG/1.1/DTD/svg11.dtd">
<svg version="1.1" xmlns="http://www.w3.org/2000/svg" xmlns:xlink="http://www.w3.org/1999/xlink" x="0px" y="0px"
	 viewBox="0 0 64 64" style="enable-background:new 0 0 64 64;" xml:space="preserve">
<g id="bulb">
</g>
<g id="bulb-on">
</g>
<g id="bulb-alt">
</g>
<g id="bulb-on-alt">
</g>
<g id="energy-bulb">
</g>
<g id="toasting">
</g>
<g id="toasted">
</g>
<g id="binoculars">
</g>
<g id="gift">
</g>
<g id="shaver">
</g>
<g id="candle">
</g>
<g id="shower">
</g>
<g id="bomb">
	<g>
		<path d="M56,3c-1.7,0-3.6,1.5-3.6,4.9c0,2.5-1.5,4-3.9,4c-2.4,0-3.9-1.5-3.9-4c0-4.5-3.5-8-8.2-8C31.6,0,28,3.4,28,8v5.1h-4.9
			c-0.8,0-1.5,0.7-1.5,1.5v4.3c-9,3.4-15.2,12.3-15.2,21.8C6.5,53.5,17,64,29.9,64c13,0,23.6-10.4,23.6-23.3
			c0-9.6-6.1-18.4-15.1-21.8v-4.3c0-0.8-0.7-1.5-1.5-1.5H31V8c0-2.9,2.3-5,5.4-5c3.1,0,5.2,2,5.2,5c0,4.1,2.9,7,6.9,7
			c4.1,0,6.9-2.9,6.9-7c0-1.3,0.4-1.8,0.6-1.9c0.8,0,1.5-0.7,1.5-1.5C57.5,3.7,56.8,3,56,3z M36.5,21.4c8.3,2.7,14,10.7,14,19.4
			c0,11.2-9.2,20.3-20.6,20.3C18.7,61,9.5,51.9,9.5,40.7c0-8.7,5.8-16.6,14.1-19.4c0.6-0.2,1-0.8,1-1.4v-3.8h10.8v3.8
			C35.4,20.6,35.9,21.2,36.5,21.4z"/>
		<path d="M22.8,25.6c-4.1,1.9-7.1,5.3-8.6,9.5c-1.5,4.2-1.3,8.7,0.7,12.8c0.3,0.5,0.8,0.9,1.4,0.9c0.2,0,0.4,0,0.6-0.1
			c0.7-0.4,1.1-1.3,0.7-2c-1.6-3.3-1.8-7-0.5-10.5c1.2-3.5,3.8-6.2,7.1-7.8c0.7-0.4,1.1-1.2,0.7-2C24.4,25.5,23.5,25.2,22.8,25.6z"
			/>
	</g>
</g>
<g id="joystick">
</g>
<g id="megaphone">
</g>
<g id="chestdraw">
</g>
<g id="armchair">
</g>
<g id="cardboard-box">
</g>
<g id="bath-shower">
</g>
<g id="diamond">
</g>
<g id="cassette">
</g>
<g id="iron">
</g>
<g id="wash">
</g>
<g id="keyboard-keys">
</g>
<g id="earphones">
</g>
<g id="lifebuoy">
</g>
<g id="calculator">
</g>
<g id="safe">
</g>
<g id="balloon">
</g>
<g id="cake">
</g>
<g id="baseball">
</g>
<g id="football-american">
</g>
<g id="football">
</g>
<g id="anchor">
</g>
<g id="compact-disc">
</g>
<g id="bbq">
</g>
<g id="coffee-machine">
</g>
<g id="teapot">
</g>
<g id="outdoor-stove">
</g>
<g id="pram">
</g>
<g id="paintbrush">
</g>
<g id="stamp">
</g>
<g id="eyedrop">
</g>
<g id="musical-note">
</g>
<g id="magnet">
</g>
<g id="alarm-bell">
</g>
<g id="globe">
</g>
<g id="key">
</g>
<g id="ink">
</g>
<g id="paperclip">
</g>
<g id="paint-roller">
</g>
<g id="keyboard">
</g>
</svg>
