<?xml version="1.0" encoding="utf-8"?>
<!-- Generator: Adobe Illustrator 20.1.0, SVG Export Plug-In . SVG Version: 6.00 Build 0)  -->
<!DOCTYPE svg PUBLIC "-//W3C//DTD SVG 1.1//EN" "http://www.w3.org/Graphics/SVG/1.1/DTD/svg11.dtd">
<svg version="1.1" xmlns="http://www.w3.org/2000/svg" xmlns:xlink="http://www.w3.org/1999/xlink" x="0px" y="0px"
	 viewBox="0 0 64 64" style="enable-background:new 0 0 64 64;" xml:space="preserve">
<g id="fairground">
</g>
<g id="tent">
</g>
<g id="tree">
</g>
<g id="trees">
</g>
<g id="tree-alt">
</g>
<g id="butterfly">
	<g>
		<path d="M62.2,18c-1.8-2.3-5-3.6-8.4-3.2c-2.5,0.3-5,1.3-7.9,3.2c-3.8,2.5-7.1,5.7-9.8,9.5c-0.3-0.9-0.6-1.7-1-2.4
			c1.6-1,2.6-2.7,2.6-4.7c0-1.1-0.3-2.1-0.8-2.9c2.4-3.8,5.5-6.9,9.2-9c0.7-0.4,1-1.3,0.6-2c-0.4-0.7-1.3-1-2-0.6
			c-4,2.3-7.4,5.6-10,9.5c-0.8-0.4-1.6-0.6-2.5-0.6s-1.7,0.2-2.5,0.6c-2.6-4-6-7.2-10-9.5c-0.7-0.4-1.6-0.2-2,0.6
			c-0.4,0.7-0.2,1.6,0.6,2c3.7,2.1,6.9,5.2,9.2,9c-0.5,0.8-0.8,1.8-0.8,2.9c0,2,1,3.7,2.6,4.7c-0.4,0.7-0.7,1.5-1,2.4
			c-2.7-3.7-6-6.9-9.8-9.5c-2.9-1.9-5.4-2.9-7.9-3.2c-3.4-0.3-6.6,0.9-8.4,3.2c-1.4,1.8-2,4.3-1.8,7.2c0.3,4.2,2.1,8.3,5,11.3
			c2.3,2.4,5.3,4.2,8.5,5.1c-0.8,1-1.6,2.2-2.2,3.4c-1.2,2.4-1.6,5-0.9,7.2c0.8,2.7,3.1,4.8,6,5.7c1,0.3,2,0.4,3.1,0.4
			c1.6,0,3.3-0.3,4.9-1c1.4-0.6,2.7-1.4,4-2.4c0.8,2,1.9,3.4,3.5,3.4c1.6,0,2.7-1.4,3.5-3.4c1.3,1,2.6,1.8,4,2.4
			c1.6,0.7,3.3,1,4.9,1c1.1,0,2.1-0.1,3.1-0.4c2.9-0.9,5.2-3.1,6-5.7c0.7-2.2,0.3-4.7-0.9-7.2c-0.6-1.2-1.4-2.4-2.2-3.4
			c3.3-0.9,6.2-2.7,8.5-5.1c2.9-3.1,4.7-7.1,5-11.3C64.2,22.3,63.5,19.8,62.2,18z M34.5,37.6c-1.6,0.7-3.4,0.7-5,0
			c0-1,0.1-1.9,0.2-2.8c0.7,0.2,1.5,0.3,2.3,0.3c0.8,0,1.5-0.1,2.3-0.3C34.4,35.6,34.4,36.6,34.5,37.6z M30.1,31.7
			c0.5-3.2,1.3-5.1,1.9-5.7c0.6,0.6,1.3,2.6,1.9,5.7C32.7,32.1,31.3,32.1,30.1,31.7z M29.4,40.7c0.8,0.2,1.7,0.4,2.6,0.4
			s1.7-0.1,2.6-0.4c0,1,0,2-0.1,2.9c-1.6,0.7-3.4,0.7-5,0C29.5,42.7,29.4,41.7,29.4,40.7z M34.6,20.3c0,1.4-1.2,2.6-2.6,2.6
			c-1.4,0-2.6-1.1-2.6-2.6s1.2-2.6,2.6-2.6C33.4,17.8,34.6,18.9,34.6,20.3z M23.3,54.6c-2.1,0.8-4.2,1-6,0.5c-1.9-0.6-3.5-2-4-3.7
			c-0.4-1.4-0.2-3.2,0.7-4.9c0.9-1.8,2.2-3.3,3.5-4.7c0.4-0.4,0.5-1,0.3-1.5s-0.7-0.9-1.2-1c-3.5-0.5-6.9-2.2-9.4-4.8
			c-2.4-2.5-4-6-4.2-9.5c-0.1-1.5,0-3.6,1.2-5.1s3.4-2.3,5.8-2.1c2,0.2,4.1,1.1,6.6,2.7c4.3,2.8,7.9,6.6,10.5,11
			c-0.6,4.1-0.7,8.2-0.7,9.1c0,1,0.1,6.6,1.1,11.2C26.1,53.1,24.7,54,23.3,54.6z M29.8,46.9c0.7,0.2,1.5,0.3,2.2,0.3
			c0.8,0,1.5-0.1,2.2-0.3c-0.5,4.7-1.5,7.6-2.2,8.4C31.3,54.5,30.3,51.6,29.8,46.9z M61,25c-0.2,3.5-1.8,6.9-4.2,9.5
			c-2.4,2.6-5.8,4.3-9.4,4.8c-0.6,0.1-1,0.4-1.2,1s-0.1,1.1,0.3,1.5c1.3,1.4,2.6,2.9,3.5,4.7c0.9,1.7,1.1,3.5,0.7,4.9
			c-0.5,1.7-2.1,3.1-4,3.7c-1.8,0.6-4,0.4-6-0.5c-1.4-0.6-2.8-1.5-4.2-2.7c1-4.6,1.1-10.2,1.1-11.2c0-0.9,0-5-0.7-9.1
			c2.6-4.4,6.3-8.2,10.5-11c2.5-1.6,4.6-2.5,6.6-2.7c2.3-0.2,4.6,0.6,5.8,2.1C61,21.4,61.1,23.5,61,25z"/>
		<path d="M9.6,21.9c-1.4,0-2.5,1.1-2.5,2.5s1.1,2.5,2.5,2.5s2.5-1.1,2.5-2.5S11,21.9,9.6,21.9z M9.6,24.9c-0.3,0-0.5-0.2-0.5-0.5
			s0.2-0.5,0.5-0.5s0.5,0.2,0.5,0.5S9.9,24.9,9.6,24.9z"/>
		<path d="M54.4,21.9c-1.4,0-2.5,1.1-2.5,2.5s1.1,2.5,2.5,2.5s2.5-1.1,2.5-2.5S55.8,21.9,54.4,21.9z M54.4,24.9
			c-0.3,0-0.5-0.2-0.5-0.5s0.2-0.5,0.5-0.5s0.5,0.2,0.5,0.5S54.6,24.9,54.4,24.9z"/>
		<path d="M44.2,46.2c-1.4,0-2.5,1.1-2.5,2.5s1.1,2.5,2.5,2.5s2.5-1.1,2.5-2.5S45.6,46.2,44.2,46.2z M44.2,49.2
			c-0.3,0-0.5-0.2-0.5-0.5s0.2-0.5,0.5-0.5c0.3,0,0.5,0.2,0.5,0.5S44.5,49.2,44.2,49.2z"/>
		<path d="M19.8,46.2c-1.4,0-2.5,1.1-2.5,2.5s1.1,2.5,2.5,2.5s2.5-1.1,2.5-2.5S21.2,46.2,19.8,46.2z M19.8,49.2
			c-0.3,0-0.5-0.2-0.5-0.5s0.2-0.5,0.5-0.5c0.3,0,0.5,0.2,0.5,0.5S20.1,49.2,19.8,49.2z"/>
	</g>
</g>
<g id="sunrise">
</g>
<g id="waterdrop">
</g>
<g id="map">
</g>
<g id="map-alt">
</g>
<g id="earth">
</g>
<g id="earth-no">
</g>
<g id="meteor">
</g>
<g id="sun">
</g>
<g id="sun-dim">
</g>
<g id="umbrella">
</g>
<g id="umbrella-alt">
</g>
<g id="gps">
</g>
<g id="fire">
</g>
<g id="target-sight">
</g>
<g id="gps-area">
</g>
<g id="gps-alt">
</g>
<g id="target">
</g>
<g id="star">
</g>
<g id="lightning">
</g>
</svg>
