<?xml version="1.0" encoding="utf-8"?>
<!-- Generator: Adobe Illustrator 20.1.0, SVG Export Plug-In . SVG Version: 6.00 Build 0)  -->
<!DOCTYPE svg PUBLIC "-//W3C//DTD SVG 1.1//EN" "http://www.w3.org/Graphics/SVG/1.1/DTD/svg11.dtd">
<svg version="1.1" xmlns="http://www.w3.org/2000/svg" xmlns:xlink="http://www.w3.org/1999/xlink" x="0px" y="0px"
	 viewBox="0 0 64 64" style="enable-background:new 0 0 64 64;" xml:space="preserve">
<g id="behance">
</g>
<g id="twitter">
</g>
<g id="vimeo">
</g>
<g id="wordpress">
</g>
<g id="Layer_179">
</g>
<g id="xing">
</g>
<g id="youtube">
</g>
<g id="whatsapp">
</g>
<g id="flickr">
</g>
<g id="dribbble">
</g>
<g id="facebook">
</g>
<g id="foursquare">
</g>
<g id="github">
</g>
<g id="github-alt">
</g>
<g id="google-plus">
</g>
<g id="google">
</g>
<g id="joomla">
</g>
<g id="soundcloud">
</g>
<g id="instagram">
</g>
<g id="linkedin">
</g>
<g id="pagekit">
</g>
<g id="pinterest">
</g>
<g id="windows">
</g>
<g id="bronzelabs">
	<g>
		<path d="M38.2,27.6l-5.5-3.2c-0.4-0.2-1-0.2-1.4,0l-5.5,3.2c-0.4,0.2-0.7,0.8-0.7,1.2v6.3c0,0.5,0.3,1,0.7,1.2l5.5,3.2
			c0.4,0.2,1,0.2,1.4,0l5.5-3.2c0.4-0.2,0.7-0.8,0.7-1.2v-6.3C38.9,28.4,38.6,27.8,38.2,27.6z"/>
		<path d="M55.7,14.2L35.6,2.5c-2-1.1-5.2-1.1-7.1,0L8.3,14.2c-2,1.1-3.6,3.9-3.6,6.2v23.3c0,2.3,1.6,5,3.6,6.2l20.2,11.6
			c2,1.1,5.2,1.1,7.1,0l20.2-11.6c2-1.1,3.6-3.9,3.6-6.2V20.4C59.3,18.1,57.7,15.3,55.7,14.2z M45.8,39.1c0,0.5-0.3,1-0.7,1.2
			l-12.4,7.1c-0.4,0.2-1,0.2-1.4,0l-12.4-7.1c-0.4-0.2-0.7-0.8-0.7-1.2V24.9c0-0.5,0-0.8,0-0.8c0,0,0-0.4,0-0.8v-5.3
			c0-0.6,0.5-1.1,1.1-1.1c0.2,0,0.3,0.1,0.5,0.1c0.1,0,4.6,2.7,4.6,2.7c0.4,0.2,0.7,0.4,0.7,0.4c0,0,0.3-0.2,0.7-0.4l5.5-3.2
			c0.4-0.2,1-0.2,1.4,0l12.4,7.1c0.4,0.2,0.7,0.8,0.7,1.2V39.1z"/>
	</g>
</g>
<g id="apple">
</g>
<g id="android">
</g>
<g id="mwkr-alt">
</g>
<g id="mwkr">
</g>
<g id="deviantart">
</g>
<g id="deviantart-alt">
</g>
</svg>
