<?xml version="1.0" encoding="utf-8"?>
<!-- Generator: Adobe Illustrator 20.1.0, SVG Export Plug-In . SVG Version: 6.00 Build 0)  -->
<!DOCTYPE svg PUBLIC "-//W3C//DTD SVG 1.1//EN" "http://www.w3.org/Graphics/SVG/1.1/DTD/svg11.dtd">
<svg version="1.1" xmlns="http://www.w3.org/2000/svg" xmlns:xlink="http://www.w3.org/1999/xlink" x="0px" y="0px"
	 viewBox="0 0 64 64" style="enable-background:new 0 0 64 64;" xml:space="preserve">
<g id="user">
</g>
<g id="users">
</g>
<g id="comment">
</g>
<g id="commenting">
</g>
<g id="comments">
	<g>
		<path d="M53.8,6.9h-49C2.2,6.9,0,9.2,0,11.8v32.5c0,2.6,2.1,4.6,4.8,4.6h11.6l0,11.7c0,0.6,0.4,1.2,0.9,1.4
			c0.2,0.1,0.4,0.1,0.6,0.1c0.4,0,0.8-0.2,1.1-0.5l12.1-12.7h22.7c2.5,0,5.2-1.9,5.2-4.6V11.8C59,9.2,56.5,6.9,53.8,6.9z M56,44.3
			c0,0.9-1.2,1.6-2.2,1.6H30.4c-0.4,0-0.8,0.2-1.1,0.5l-10,10.5l0-9.5c0-0.8-0.7-1.5-1.5-1.5H4.8c-1,0-1.8-0.7-1.8-1.6V11.8
			c0-1,0.8-1.9,1.8-1.9h49c1,0,2.2,1,2.2,1.9V44.3z"/>
		<path d="M59.2,1.9H10c-0.8,0-1.5,0.7-1.5,1.5S9.2,4.9,10,4.9h49.2c0.9,0,1.8,0.4,1.8,1.4v32.6c0,0.8,0.7,1.5,1.5,1.5
			s1.5-0.7,1.5-1.5V6.3C64,3.8,62,1.9,59.2,1.9z"/>
	</g>
</g>
<g id="comments-alt">
</g>
<g id="commenting-alt">
</g>
<g id="comment-alt">
</g>
<g id="face-happy">
</g>
<g id="face-ok">
</g>
<g id="face-unhappy">
</g>
<g id="mail">
</g>
<g id="phone">
</g>
<g id="fingerprint">
</g>
<g id="info">
</g>
<g id="question">
</g>
<g id="warning">
</g>
<g id="alert">
</g>
<g id="headset">
</g>
<g id="skull">
</g>
<g id="baby">
</g>
<g id="eye">
</g>
<g id="id-card">
</g>
<g id="microphone">
</g>
<g id="eye-cross">
</g>
<g id="user-commenting">
</g>
<g id="user-commenting-alt">
</g>
<g id="user-file">
</g>
<g id="user-check">
</g>
<g id="tap">
</g>
<g id="swipe">
</g>
<g id="slide">
</g>
<g id="foot">
</g>
<g id="share-social">
</g>
<g id="ghost">
</g>
</svg>
