<?xml version="1.0" encoding="utf-8"?>
<!-- Generator: Adobe Illustrator 20.1.0, SVG Export Plug-In . SVG Version: 6.00 Build 0)  -->
<!DOCTYPE svg PUBLIC "-//W3C//DTD SVG 1.1//EN" "http://www.w3.org/Graphics/SVG/1.1/DTD/svg11.dtd">
<svg version="1.1" xmlns="http://www.w3.org/2000/svg" xmlns:xlink="http://www.w3.org/1999/xlink" x="0px" y="0px"
	 viewBox="0 0 64 64" style="enable-background:new 0 0 64 64;" xml:space="preserve">
<g id="suitcase">
</g>
<g id="backpack">
</g>
<g id="chef-hat">
	<path d="M51.6,7.4c-2.8-1.1-5.7-1.1-8-0.1C42.3,3.5,38.1,0,32,0c-6.1,0-10.3,3.5-11.6,7.4c-2.3-1.1-5.3-1.1-8,0.1
		c-4.4,1.8-7,5.9-7,10.9c0,5.6,5.3,9.2,10.6,9.8v34.3c0,0.8,0.7,1.5,1.5,1.5h29c0.8,0,1.5-0.7,1.5-1.5V28.2
		c5.4-0.6,10.6-4.2,10.6-9.8C58.6,13.3,56,9.3,51.6,7.4z M19,61v-8h26v8H19z M46.5,25.2c-0.8,0-1.5,0.7-1.5,1.5V50h-5v-9
		c0-0.8-0.7-1.5-1.5-1.5S37,40.2,37,41v9h-3.5V39c0-0.8-0.7-1.5-1.5-1.5s-1.5,0.7-1.5,1.5v11H27v-9c0-0.8-0.7-1.5-1.5-1.5
		S24,40.2,24,41v9h-5V26.7c0-0.8-0.7-1.5-1.5-1.5c-4.4,0-9.1-2.8-9.1-6.9c0-3.7,1.9-6.8,5.2-8.1c2.6-1.1,5.3-0.8,6.9,0.8
		c0.4,0.4,1.1,0.6,1.6,0.3c0.6-0.2,0.9-0.8,0.9-1.4C23,6.6,26.4,3,32,3c5.5,0,9,3.6,9,6.9c0,0.6,0.4,1.2,0.9,1.4
		c0.6,0.2,1.2,0.1,1.6-0.3c1.5-1.5,4.3-1.8,6.9-0.8c3.2,1.3,5.2,4.4,5.2,8.1C55.6,22.5,50.9,25.2,46.5,25.2z"/>
</g>
<g id="work-jacket">
</g>
<g id="tshirt">
</g>
<g id="handbag">
</g>
<g id="coat-hanger">
</g>
<g id="measuring-tape">
</g>
<g id="pants">
</g>
<g id="t-shirt-ale">
</g>
<g id="watch">
</g>
<g id="glasses">
</g>
<g id="graduation-hat">
</g>
<g id="scuba-gear">
</g>
<g id="shoe">
</g>
<g id="crown">
</g>
<g id="wand">
</g>
<g id="crown-alt">
</g>
</svg>
