<?xml version="1.0" encoding="utf-8"?>
<!-- Generator: Adobe Illustrator 20.1.0, SVG Export Plug-In . SVG Version: 6.00 Build 0)  -->
<!DOCTYPE svg PUBLIC "-//W3C//DTD SVG 1.1//EN" "http://www.w3.org/Graphics/SVG/1.1/DTD/svg11.dtd">
<svg version="1.1" xmlns="http://www.w3.org/2000/svg" xmlns:xlink="http://www.w3.org/1999/xlink" x="0px" y="0px"
	 viewBox="0 0 64 64" style="enable-background:new 0 0 64 64;" xml:space="preserve">
<style type="text/css">
	.st0{fill:none;stroke:#000000;stroke-width:3;stroke-linecap:round;stroke-linejoin:round;}
</style>
<g id="cupcake">
	<path d="M39.5,9c0.1-0.5,0.1-0.9,0.1-1.4C39.6,3.4,36.2,0,32,0s-7.6,3.4-7.6,7.6c0,0.5,0.1,0.9,0.1,1.4
		C13.6,11.5,6.1,19.1,6.1,27.9c0,3.8,1.4,7.4,4,10.6l4.1,24.2c0.1,0.7,0.7,1.2,1.5,1.2h30.5c0.7,0,1.3-0.5,1.5-1.1l6.2-24.3
		c2.7-3.2,4.1-6.9,4.1-10.7C57.9,19.1,50.4,11.5,39.5,9z M32,3c2.5,0,4.6,2.1,4.6,4.6c0,0.3,0,0.6-0.1,0.8c-3-0.4-6-0.4-9,0
		c-0.1-0.3-0.1-0.6-0.1-0.8C27.4,5.1,29.5,3,32,3z M45.1,61H17l-3.5-20.3c0.1,0.1,0.2,0.3,0.4,0.4c0.9,1.1,2.1,2.6,4.5,2.6
		c2.4,0,3.6-1.5,4.5-2.6c0.8-1,1.3-1.5,2.2-1.5s1.4,0.5,2.2,1.5c0.9,1.1,2.1,2.6,4.5,2.6c2.4,0,3.6-1.5,4.5-2.6
		c0.8-1,1.3-1.5,2.2-1.5c1,0,1.4,0.5,2.2,1.5c0.9,1.1,2.1,2.6,4.5,2.6s3.6-1.5,4.5-2.6c0,0,0,0,0,0L45.1,61z M51.5,36.7
		c-1.9,0.3-3,1.6-3.7,2.5c-0.8,1-1.3,1.5-2.2,1.5s-1.4-0.5-2.2-1.5c-0.9-1.1-2.1-2.6-4.5-2.6c-2.4,0-3.6,1.5-4.5,2.6
		c-0.8,1-1.3,1.5-2.2,1.5c-0.9,0-1.4-0.5-2.2-1.5c-0.9-1.1-2.1-2.6-4.5-2.6s-3.6,1.5-4.5,2.6c-0.8,1-1.3,1.5-2.2,1.5
		c-0.9,0-1.4-0.5-2.2-1.5c-0.8-1-1.9-2.2-3.7-2.5C10.3,34,9.1,31,9.1,27.9c0-7.8,7.2-14.5,17.6-16.3c3.6-0.6,7-0.6,10.6,0h0
		c10.4,1.8,17.6,8.5,17.6,16.3C54.9,31,53.7,34,51.5,36.7z"/>
</g>
<g id="turkey">
</g>
<g id="hot-service">
</g>
<g id="mug">
</g>
<g id="mug-hot">
</g>
<g id="bottle">
</g>
<g id="cherries">
</g>
<g id="cocktail">
</g>
<g id="cocktail-alt">
</g>
<g id="wine-glass">
</g>
<g id="wine-glass-alt">
</g>
<g id="aubergine">
</g>
<g id="lettuce-leaf">
</g>
<g id="cup">
</g>
<g id="noodles">
</g>
<g id="icelolly">
</g>
<g id="cutlery">
</g>
<g id="hotdog">
</g>
</svg>
