<?xml version="1.0" encoding="utf-8"?>
<!-- Generator: Adobe Illustrator 20.1.0, SVG Export Plug-In . SVG Version: 6.00 Build 0)  -->
<!DOCTYPE svg PUBLIC "-//W3C//DTD SVG 1.1//EN" "http://www.w3.org/Graphics/SVG/1.1/DTD/svg11.dtd">
<svg version="1.1" xmlns="http://www.w3.org/2000/svg" xmlns:xlink="http://www.w3.org/1999/xlink" x="0px" y="0px"
	 viewBox="0 0 64 64" style="enable-background:new 0 0 64 64;" xml:space="preserve">
<g id="file">
</g>
<g id="copy">
</g>
<g id="file-edit">
</g>
<g id="folder">
</g>
<g id="subdirectory">
</g>
<g id="album">
</g>
<g id="push">
</g>
<g id="pull">
</g>
<g id="database">
</g>
<g id="server">
</g>
<g id="upload">
</g>
<g id="download">
</g>
<g id="cloud-download">
</g>
<g id="cloud-upload">
</g>
<g id="cloud">
</g>
<g id="cloud-no-access">
</g>
<g id="cloud-signal-up">
</g>
<g id="cloud-signal-down">
	<g>
		<path d="M49.7,20.3c-1.4,0-2.8,0.2-4.2,0.6c-2.6-7.4-9.6-12.5-17.7-12.5c-9.8,0-17.8,7.4-18.7,17C3.8,26.7,0,31.5,0,37
			c0,6.6,5.4,11.9,11.9,11.9c0.8,0,1.5-0.7,1.5-1.5s-0.7-1.5-1.5-1.5C7,45.9,3,41.9,3,37c0-4.4,3.3-8.2,7.7-8.8
			c0.7-0.1,1.3-0.7,1.3-1.4c0.2-8.6,7.2-15.3,15.8-15.3c7.3,0,13.5,4.9,15.3,11.8c0.1,0.4,0.4,0.8,0.8,1c0.4,0.2,0.9,0.2,1.3,0
			c1.5-0.6,3-1,4.6-1c6.3,0,11.3,5.1,11.3,11.3c0,6.2-5.1,11.3-11.3,11.3c-0.8,0-1.5,0.7-1.5,1.5s0.7,1.5,1.5,1.5
			c7.9,0,14.3-6.4,14.3-14.3C64,26.7,57.6,20.3,49.7,20.3z"/>
		<path d="M38.1,39.9c0.6-0.6,0.6-1.5,0-2.1c-0.6-0.6-1.5-0.6-2.1,0c-1,1-3.2,2.1-5.2,2.1c-2.1,0-4.2-1.1-5.2-2.1
			c-0.6-0.6-1.5-0.6-2.1,0c-0.6,0.6-0.6,1.5,0,2.1c1.5,1.5,4.3,3,7.4,3S36.6,41.4,38.1,39.9z"/>
		<path d="M19.6,42.8c-0.6,0.6-0.6,1.5,0,2.1c3.1,3.1,6.1,4.2,11.2,4.2s8.1-1.1,11.2-4.2c0.6-0.6,0.6-1.5,0-2.1
			c-0.6-0.6-1.5-0.6-2.1,0c-2.2,2.2-4.3,3.4-9,3.4s-6.9-1.2-9-3.4C21.1,42.3,20.2,42.3,19.6,42.8z"/>
		<path d="M43.6,47.9c-3.4,3.4-6.8,4.6-12.8,4.6s-9.4-1.2-12.8-4.6c-0.6-0.6-1.5-0.6-2.1,0c-0.6,0.6-0.6,1.5,0,2.1
			c4,4,8,5.5,14.9,5.5c6.9,0,10.9-1.5,14.9-5.5c0.6-0.6,0.6-1.5,0-2.1C45.1,47.3,44.2,47.3,43.6,47.9z"/>
	</g>
</g>
<g id="checklist">
</g>
<g id="file-folded">
</g>
<g id="file-folded-text">
</g>
<g id="inbox">
</g>
<g id="zip-folder">
</g>
<g id="image-folder">
</g>
<g id="image-album">
</g>
<g id="image">
</g>
<g id="images">
</g>
<g id="invoice">
</g>
<g id="book">
</g>
<g id="layers">
</g>
<g id="media-upload">
</g>
<g id="addresses">
</g>
<g id="floppy">
</g>
<g id="link">
</g>
<g id="link-add">
</g>
<g id="link-remove">
</g>
<g id="table">
</g>
<g id="download-book">
</g>
<g id="clipboard">
</g>
<g id="clipboard-chart">
</g>
<g id="clipboard-text">
</g>
<g id="clipboard-check">
</g>
<g id="clipboard-cross">
</g>
<g id="bookmark">
</g>
<g id="bookmark-add">
</g>
<g id="bookmark-remove">
</g>
<g id="clipboard-horizontal">
</g>
<g id="clipboard-text-horizontal">
</g>
<g id="trash">
</g>
<g id="unlock">
</g>
<g id="lock">
</g>
<g id="link-add-circle">
</g>
<g id="link-remove-circle">
</g>
<g id="sort-up">
</g>
<g id="sort-down">
</g>
<g id="list">
</g>
</svg>
