<?xml version="1.0" encoding="utf-8"?>
<!-- Generator: Adobe Illustrator 20.1.0, SVG Export Plug-In . SVG Version: 6.00 Build 0)  -->
<!DOCTYPE svg PUBLIC "-//W3C//DTD SVG 1.1//EN" "http://www.w3.org/Graphics/SVG/1.1/DTD/svg11.dtd">
<svg version="1.1" xmlns="http://www.w3.org/2000/svg" xmlns:xlink="http://www.w3.org/1999/xlink" x="0px" y="0px"
	 viewBox="0 0 64 64" style="enable-background:new 0 0 64 64;" xml:space="preserve">
<g id="bulb">
</g>
<g id="bulb-on">
</g>
<g id="bulb-alt">
</g>
<g id="bulb-on-alt">
</g>
<g id="energy-bulb">
</g>
<g id="toasting">
</g>
<g id="toasted">
</g>
<g id="binoculars">
</g>
<g id="gift">
</g>
<g id="shaver">
</g>
<g id="candle">
</g>
<g id="shower">
</g>
<g id="bomb">
</g>
<g id="joystick">
</g>
<g id="megaphone">
</g>
<g id="chestdraw">
</g>
<g id="armchair">
</g>
<g id="cardboard-box">
</g>
<g id="bath-shower">
</g>
<g id="diamond">
</g>
<g id="cassette">
	<g>
		<path d="M60.5,9.9h-57C1.6,9.9,0,11.5,0,13.4v37.2c0,1.9,1.6,3.5,3.5,3.5h3.8h49.5h3.8c1.9,0,3.5-1.6,3.5-3.5V13.4
			C64,11.5,62.4,9.9,60.5,9.9z M8.3,51.1v-6.5h47.5v6.5H8.3z M61,50.6c0,0.3-0.2,0.5-0.5,0.5h-1.8v-7.5c0-1.1-0.9-2-2-2H7.3
			c-1.1,0-2,0.9-2,2v7.5H3.5c-0.3,0-0.5-0.2-0.5-0.5V13.4c0-0.3,0.2-0.5,0.5-0.5h57c0.3,0,0.5,0.2,0.5,0.5V50.6z"/>
		<path d="M19.8,23c-4.2,0-7.6,3.4-7.6,7.6c0,4.2,3.4,7.6,7.6,7.6s7.6-3.4,7.6-7.6C27.4,26.5,24,23,19.8,23z M19.8,35.2
			c-2.5,0-4.6-2.1-4.6-4.6c0-2.5,2.1-4.6,4.6-4.6s4.6,2.1,4.6,4.6C24.4,33.2,22.4,35.2,19.8,35.2z"/>
		<path d="M44.2,23c-4.2,0-7.6,3.4-7.6,7.6c0,4.2,3.4,7.6,7.6,7.6s7.6-3.4,7.6-7.6C51.7,26.5,48.3,23,44.2,23z M44.2,35.2
			c-2.5,0-4.6-2.1-4.6-4.6c0-2.5,2.1-4.6,4.6-4.6s4.6,2.1,4.6,4.6C48.7,33.2,46.7,35.2,44.2,35.2z"/>
		<path d="M50.9,17.3H13.1c-0.8,0-1.5,0.7-1.5,1.5s0.7,1.5,1.5,1.5h37.9c0.8,0,1.5-0.7,1.5-1.5S51.8,17.3,50.9,17.3z"/>
	</g>
</g>
<g id="iron">
</g>
<g id="wash">
</g>
<g id="keyboard-keys">
</g>
<g id="earphones">
</g>
<g id="lifebuoy">
</g>
<g id="calculator">
</g>
<g id="safe">
</g>
<g id="balloon">
</g>
<g id="cake">
</g>
<g id="baseball">
</g>
<g id="football-american">
</g>
<g id="football">
</g>
<g id="anchor">
</g>
<g id="compact-disc">
</g>
<g id="bbq">
</g>
<g id="coffee-machine">
</g>
<g id="teapot">
</g>
<g id="outdoor-stove">
</g>
<g id="pram">
</g>
<g id="paintbrush">
</g>
<g id="stamp">
</g>
<g id="eyedrop">
</g>
<g id="musical-note">
</g>
<g id="magnet">
</g>
<g id="alarm-bell">
</g>
<g id="globe">
</g>
<g id="key">
</g>
<g id="ink">
</g>
<g id="paperclip">
</g>
<g id="paint-roller">
</g>
<g id="keyboard">
</g>
</svg>
