<?xml version="1.0" encoding="utf-8"?>
<!-- Generator: Adobe Illustrator 20.1.0, SVG Export Plug-In . SVG Version: 6.00 Build 0)  -->
<!DOCTYPE svg PUBLIC "-//W3C//DTD SVG 1.1//EN" "http://www.w3.org/Graphics/SVG/1.1/DTD/svg11.dtd">
<svg version="1.1" xmlns="http://www.w3.org/2000/svg" xmlns:xlink="http://www.w3.org/1999/xlink" x="0px" y="0px"
	 viewBox="0 0 64 64" style="enable-background:new 0 0 64 64;" xml:space="preserve">
<g id="bulb">
</g>
<g id="bulb-on">
</g>
<g id="bulb-alt">
</g>
<g id="bulb-on-alt">
</g>
<g id="energy-bulb">
</g>
<g id="toasting">
</g>
<g id="toasted">
</g>
<g id="binoculars">
</g>
<g id="gift">
</g>
<g id="shaver">
</g>
<g id="candle">
</g>
<g id="shower">
</g>
<g id="bomb">
</g>
<g id="joystick">
</g>
<g id="megaphone">
</g>
<g id="chestdraw">
</g>
<g id="armchair">
</g>
<g id="cardboard-box">
</g>
<g id="bath-shower">
</g>
<g id="diamond">
</g>
<g id="cassette">
</g>
<g id="iron">
</g>
<g id="wash">
</g>
<g id="keyboard-keys">
</g>
<g id="earphones">
</g>
<g id="lifebuoy">
</g>
<g id="calculator">
	<g>
		<path d="M52,0H12C10,0,8.3,1.7,8.3,3.8v56.5C8.3,62.3,10,64,12,64H52c2.1,0,3.8-1.7,3.8-3.8V3.8C55.7,1.7,54,0,52,0z M52.7,60.2
			c0,0.4-0.3,0.8-0.8,0.8H12c-0.4,0-0.8-0.3-0.8-0.8V3.8C11.3,3.3,11.6,3,12,3H52c0.4,0,0.8,0.3,0.8,0.8V60.2z"/>
		<path d="M47.4,9H17.8c-0.8,0-1.5,0.7-1.5,1.5v11.3c0,0.8,0.7,1.5,1.5,1.5h29.6c0.8,0,1.5-0.7,1.5-1.5V10.5C48.9,9.7,48.2,9,47.4,9
			z M45.9,20.3H19.3V12h26.6V20.3z"/>
		<ellipse cx="20.8" cy="29.7" rx="3.4" ry="3.4"/>
		<ellipse cx="32.2" cy="29.7" rx="3.4" ry="3.4"/>
		<ellipse cx="43.6" cy="29.7" rx="3.4" ry="3.4"/>
		<ellipse cx="20.8" cy="40.5" rx="3.4" ry="3.4"/>
		<ellipse cx="32.2" cy="40.5" rx="3.4" ry="3.4"/>
		<ellipse cx="43.6" cy="40.5" rx="3.4" ry="3.4"/>
		<ellipse cx="20.8" cy="51.3" rx="3.4" ry="3.4"/>
		<path d="M45.9,48.4H29.5c-0.5,0-0.9,0.4-0.9,0.9v4.9c0,0.5,0.4,0.9,0.9,0.9h16.4c0.5,0,0.9-0.4,0.9-0.9v-4.9
			C46.8,48.8,46.4,48.4,45.9,48.4z"/>
	</g>
</g>
<g id="safe">
</g>
<g id="balloon">
</g>
<g id="cake">
</g>
<g id="baseball">
</g>
<g id="football-american">
</g>
<g id="football">
</g>
<g id="anchor">
</g>
<g id="compact-disc">
</g>
<g id="bbq">
</g>
<g id="coffee-machine">
</g>
<g id="teapot">
</g>
<g id="outdoor-stove">
</g>
<g id="pram">
</g>
<g id="paintbrush">
</g>
<g id="stamp">
</g>
<g id="eyedrop">
</g>
<g id="musical-note">
</g>
<g id="magnet">
</g>
<g id="alarm-bell">
</g>
<g id="globe">
</g>
<g id="key">
</g>
<g id="ink">
</g>
<g id="paperclip">
</g>
<g id="paint-roller">
</g>
<g id="keyboard">
</g>
</svg>
