<?xml version="1.0" encoding="utf-8"?>
<!-- Generator: Adobe Illustrator 20.1.0, SVG Export Plug-In . SVG Version: 6.00 Build 0)  -->
<!DOCTYPE svg PUBLIC "-//W3C//DTD SVG 1.1//EN" "http://www.w3.org/Graphics/SVG/1.1/DTD/svg11.dtd">
<svg version="1.1" xmlns="http://www.w3.org/2000/svg" xmlns:xlink="http://www.w3.org/1999/xlink" x="0px" y="0px"
	 viewBox="0 0 64 64.5" style="enable-background:new 0 0 64 64.5;" xml:space="preserve">
<style type="text/css">
	.st0{fill:none;stroke:#000000;stroke-width:3;stroke-linecap:round;stroke-linejoin:round;}
</style>
<g id="cupcake">
</g>
<g id="turkey">
</g>
<g id="hot-service">
</g>
<g id="mug">
</g>
<g id="mug-hot">
</g>
<g id="bottle">
</g>
<g id="cherries">
</g>
<g id="cocktail">
</g>
<g id="cocktail-alt">
</g>
<g id="wine-glass">
</g>
<g id="wine-glass-alt">
</g>
<g id="aubergine">
</g>
<g id="lettuce-leaf">
</g>
<g id="cup">
</g>
<g id="noodles">
</g>
<g id="icelolly">
</g>
<g id="cutlery">
	<g>
		<path d="M41.3,0.5c-0.8,0-1.5,0.7-1.5,1.5v38.9c-0.3,0.3-0.5,0.7-0.5,1.1s0.2,0.8,0.5,1.1v19.4c0,0.8,0.7,1.5,1.5,1.5
			s1.5-0.7,1.5-1.5v-19h6.9c0.8,0,1.5-0.7,1.5-1.5C51.2,25.3,48,0.5,41.3,0.5z M42.8,40.5V5.4C45.1,10,48,23,48.2,40.5H42.8z"/>
		<path d="M30.3,0c-0.8,0-1.5,0.7-1.5,1.5v15.2c0,3.4-2.1,6.1-5,6.7v-22c0-0.8-0.7-1.5-1.5-1.5s-1.5,0.7-1.5,1.5v22
			c-2.9-0.7-5-3.3-5-6.7V1.5c0-0.8-0.7-1.5-1.5-1.5s-1.5,0.7-1.5,1.5v15.2c0,5,3.4,9.1,8,9.8v36c0,0.8,0.7,1.5,1.5,1.5
			s1.5-0.7,1.5-1.5v-36c4.6-0.7,8-4.8,8-9.8V1.5C31.8,0.7,31.1,0,30.3,0z"/>
	</g>
</g>
<g id="hotdog">
</g>
</svg>
