<?xml version="1.0" encoding="utf-8"?>
<!-- Generator: Adobe Illustrator 20.1.0, SVG Export Plug-In . SVG Version: 6.00 Build 0)  -->
<!DOCTYPE svg PUBLIC "-//W3C//DTD SVG 1.1//EN" "http://www.w3.org/Graphics/SVG/1.1/DTD/svg11.dtd">
<svg version="1.1" xmlns="http://www.w3.org/2000/svg" xmlns:xlink="http://www.w3.org/1999/xlink" x="0px" y="0px"
	 viewBox="0 0 64 64" style="enable-background:new 0 0 64 64;" xml:space="preserve">
<g id="desktop">
</g>
<g id="tablet">
</g>
<g id="tablet-landscape">
</g>
<g id="desktop-alt">
</g>
<g id="smartphone">
</g>
<g id="smartphone-landscape">
</g>
<g id="laptop">
</g>
<g id="laptops">
</g>
<g id="desktops">
</g>
<g id="printer">
</g>
<g id="smartphones">
</g>
<g id="smartphone-mail">
</g>
<g id="smartphone-search">
</g>
<g id="desktop-chart">
</g>
<g id="pc">
</g>
<g id="remote-control-alt">
</g>
<g id="remote-control">
</g>
<g id="smartphone-signal">
</g>
<g id="battery-charge">
</g>
<g id="battery-charge-half">
</g>
<g id="battery-charge-full">
</g>
<g id="battery-charging">
</g>
<g id="filter">
</g>
<g id="network-web">
</g>
<g id="chip">
</g>
<g id="preferences-box">
</g>
<g id="preferences-vertical-box">
</g>
<g id="preferences-vertical-box-alt">
</g>
<g id="preferences-box-alt">
</g>
<g id="preferences">
</g>
<g id="preferences-vertical">
</g>
<g id="preferences-vertical-alt">
</g>
<g id="preferences-alt">
</g>
<g id="bluetooth">
</g>
<g id="signal-strength">
</g>
<g id="signal-no">
</g>
<g id="signal-tower-no">
</g>
<g id="signal-tower">
</g>
<g id="signal-no-alt">
</g>
<g id="nut">
</g>
<g id="cogs">
</g>
<g id="cog">
</g>
<g id="cog-dash-left">
</g>
<g id="cog-dash-right">
</g>
<g id="cog-fall">
	<g>
		<path d="M32,33.7c-5,0-9.1,4.1-9.1,9.1s4.1,9.1,9.1,9.1s9.1-4.1,9.1-9.1S37,33.7,32,33.7z M32,48.9c-3.4,0-6.1-2.7-6.1-6.1
			s2.8-6.1,6.1-6.1s6.1,2.7,6.1,6.1S35.4,48.9,32,48.9z"/>
		<path d="M52.2,46.7c-2-0.8-3.2-2.2-3.2-3.8c0-1.6,1.3-3.1,3.2-3.8c0.4-0.2,0.7-0.5,0.9-0.9c0.1-0.4,0.1-0.9-0.1-1.3l-5.2-9
			c-0.2-0.4-0.6-0.6-1-0.7c-0.4-0.1-0.9,0-1.2,0.3c-1.7,1.4-3.7,1.8-5,1c-1.5-0.9-2-3-1.7-4.5c0.1-0.4,0-0.9-0.3-1.3
			c-0.3-0.4-0.7-0.6-1.2-0.6H26.8c-0.5,0-0.9,0.2-1.2,0.6c-0.3,0.3-0.4,0.8-0.3,1.2c0.3,1.5-0.3,3.6-1.7,4.5c-1.4,0.8-3.3,0.4-5-1
			c-0.3-0.3-0.8-0.4-1.2-0.3c-0.4,0.1-0.8,0.3-1,0.7l-5.2,9c-0.2,0.4-0.3,0.8-0.1,1.3c0.1,0.4,0.5,0.7,0.9,0.9
			c2,0.7,3.2,2.2,3.2,3.9c0,1.6-1.2,3.1-3.2,3.8c-0.4,0.2-0.7,0.5-0.9,0.9c-0.1,0.4-0.1,0.9,0.1,1.3l5.3,9.1c0.2,0.4,0.6,0.6,1,0.7
			c0.4,0.1,0.9,0,1.2-0.3c1.6-1.3,3.6-1.7,5-0.8c1.1,0.6,2.1,1.7,1.7,4.8c-0.1,0.4,0.1,0.9,0.4,1.2c0.3,0.3,0.7,0.5,1.1,0.5h10.4
			c0.4,0,0.8-0.2,1.1-0.5c0.3-0.3,0.4-0.8,0.4-1.2c-0.4-3.1,0.6-4.1,1.7-4.8c1.4-0.8,3.4-0.5,5,0.8c0.3,0.3,0.8,0.4,1.2,0.3
			c0.4-0.1,0.8-0.3,1-0.7l5.3-9.1c0.2-0.4,0.3-0.8,0.1-1.3S52.6,46.8,52.2,46.7z M45.9,55c-2.3-1.3-4.9-1.3-7-0.1
			c-2.2,1.3-3.3,3.3-3.3,6.1h-7.2c0-2.8-1.1-4.8-3.3-6.1c-2.1-1.2-4.7-1.1-7,0.1l-3.7-6.3c2.2-1.4,3.6-3.5,3.6-5.9
			c0-2.4-1.3-4.6-3.6-5.9l3.6-6.2c2.4,1.3,4.9,1.5,7,0.3c2.1-1.2,3.2-3.7,3.3-5.9h7.3c0.1,2.2,1.1,4.6,3.3,5.9c2.1,1.2,4.7,1,7-0.3
			l3.6,6.2c-2.2,1.3-3.6,3.5-3.6,5.8c0,2.4,1.3,4.5,3.6,5.9L45.9,55z"/>
		<path d="M31.5,17c0.8,0,1.5-0.7,1.5-1.5v-14C33,0.7,32.3,0,31.5,0S30,0.7,30,1.5v14C30,16.4,30.6,17,31.5,17z"/>
		<path d="M17.3,22.4c0.8,0,1.5-0.7,1.5-1.5v-14c0-0.8-0.7-1.5-1.5-1.5s-1.5,0.7-1.5,1.5v14C15.8,21.8,16.5,22.4,17.3,22.4z"/>
		<path d="M45.6,22.4c0.8,0,1.5-0.7,1.5-1.5v-14c0-0.8-0.7-1.5-1.5-1.5s-1.5,0.7-1.5,1.5v14C44.1,21.8,44.7,22.4,45.6,22.4z"/>
	</g>
</g>
<g id="io">
</g>
<g id="browser">
</g>
<g id="browser-add">
</g>
<g id="rss">
</g>
<g id="no-access">
</g>
<g id="notification">
</g>
<g id="devices">
</g>
<g id="notification-alert">
</g>
</svg>
