<?xml version="1.0" encoding="utf-8"?>
<!-- Generator: Adobe Illustrator 20.1.0, SVG Export Plug-In . SVG Version: 6.00 Build 0)  -->
<!DOCTYPE svg PUBLIC "-//W3C//DTD SVG 1.1//EN" "http://www.w3.org/Graphics/SVG/1.1/DTD/svg11.dtd">
<svg version="1.1" xmlns="http://www.w3.org/2000/svg" xmlns:xlink="http://www.w3.org/1999/xlink" x="0px" y="0px"
	 viewBox="0 0 64 64" style="enable-background:new 0 0 64 64;" xml:space="preserve">
<g id="suitcase">
</g>
<g id="backpack">
</g>
<g id="chef-hat">
</g>
<g id="work-jacket">
</g>
<g id="tshirt">
</g>
<g id="handbag">
</g>
<g id="coat-hanger">
	<path d="M63.5,52.6l-30-27.2v-0.3c3.8-0.7,6.7-4.1,6.7-8.1c0-4.5-3.7-8.2-8.2-8.2s-8.2,3.7-8.2,8.2c0,0.8,0.7,1.5,1.5,1.5
		s1.5-0.7,1.5-1.5c0-2.9,2.3-5.2,5.2-5.2s5.2,2.3,5.2,5.2s-2.3,5.2-5.2,5.2c-0.8,0-1.5,0.7-1.5,1.5v2.4c0,0,0,0,0,0.1c0,0,0,0,0,0.1
		c0,0.2,0.1,0.3,0.1,0.5c0,0,0,0,0,0c0.1,0.2,0.2,0.3,0.3,0.4c0,0,0,0,0,0l27.6,25.1H5.4l23.8-21.3c0.6-0.6,0.7-1.5,0.1-2.1
		c-0.6-0.6-1.5-0.7-2.1-0.1L0.5,52.6C0,53-0.1,53.7,0.1,54.3c0.2,0.6,0.8,1,1.4,1h61c0.6,0,1.2-0.4,1.4-1C64.1,53.7,64,53,63.5,52.6
		z"/>
</g>
<g id="measuring-tape">
</g>
<g id="pants">
</g>
<g id="t-shirt-ale">
</g>
<g id="watch">
</g>
<g id="glasses">
</g>
<g id="graduation-hat">
</g>
<g id="scuba-gear">
</g>
<g id="shoe">
</g>
<g id="crown">
</g>
<g id="wand">
</g>
<g id="crown-alt">
</g>
</svg>
