<?xml version="1.0" encoding="utf-8"?>
<!-- Generator: Adobe Illustrator 20.1.0, SVG Export Plug-In . SVG Version: 6.00 Build 0)  -->
<!DOCTYPE svg PUBLIC "-//W3C//DTD SVG 1.1//EN" "http://www.w3.org/Graphics/SVG/1.1/DTD/svg11.dtd">
<svg version="1.1" xmlns="http://www.w3.org/2000/svg" xmlns:xlink="http://www.w3.org/1999/xlink" x="0px" y="0px"
	 viewBox="0 0 64 64" style="enable-background:new 0 0 64 64;" xml:space="preserve">
<g id="user">
</g>
<g id="users">
</g>
<g id="comment">
	<g>
		<g>
			<path d="M19.4,62.9c-0.2,0-0.4,0-0.6-0.1c-0.6-0.2-0.9-0.8-0.9-1.4l-0.1-13.2h-13c-2.7,0-4.8-2.2-4.8-5.2V6.6
				C0,4,1.8,1.1,4.8,1.1h54.4c3,0,4.8,2.9,4.8,5.5v36.3c0,3-2.1,5.2-4.8,5.2H33.9L20.4,62.4C20.2,62.7,19.8,62.9,19.4,62.9z
				 M4.8,4.1C3.7,4.1,3,5.4,3,6.6v36.3c0,1.1,0.6,2.2,1.8,2.2h14.5c0.8,0,1.5,0.7,1.5,1.5l0,11l11.4-12c0.3-0.3,0.7-0.5,1.1-0.5
				h25.9c1.2,0,1.8-1.2,1.8-2.2V6.6c0-1.2-0.7-2.5-1.8-2.5H4.8z"/>
		</g>
	</g>
</g>
<g id="commenting">
</g>
<g id="comments">
</g>
<g id="comments-alt">
</g>
<g id="commenting-alt">
</g>
<g id="comment-alt">
</g>
<g id="face-happy">
</g>
<g id="face-ok">
</g>
<g id="face-unhappy">
</g>
<g id="mail">
</g>
<g id="phone">
</g>
<g id="fingerprint">
</g>
<g id="info">
</g>
<g id="question">
</g>
<g id="warning">
</g>
<g id="alert">
</g>
<g id="headset">
</g>
<g id="skull">
</g>
<g id="baby">
</g>
<g id="eye">
</g>
<g id="id-card">
</g>
<g id="microphone">
</g>
<g id="eye-cross">
</g>
<g id="user-commenting">
</g>
<g id="user-commenting-alt">
</g>
<g id="user-file">
</g>
<g id="user-check">
</g>
<g id="tap">
</g>
<g id="swipe">
</g>
<g id="slide">
</g>
<g id="foot">
</g>
<g id="share-social">
</g>
<g id="ghost">
</g>
</svg>
