<?xml version="1.0" encoding="utf-8"?>
<!-- Generator: Adobe Illustrator 20.1.0, SVG Export Plug-In . SVG Version: 6.00 Build 0)  -->
<!DOCTYPE svg PUBLIC "-//W3C//DTD SVG 1.1//EN" "http://www.w3.org/Graphics/SVG/1.1/DTD/svg11.dtd">
<svg version="1.1" xmlns="http://www.w3.org/2000/svg" xmlns:xlink="http://www.w3.org/1999/xlink" x="0px" y="0px"
	 viewBox="0 0 64 64" style="enable-background:new 0 0 64 64;" xml:space="preserve">
<g id="user">
</g>
<g id="users">
</g>
<g id="comment">
</g>
<g id="commenting">
</g>
<g id="comments">
</g>
<g id="comments-alt">
	<g>
		<path d="M59.2,6.9h-49C7.5,6.9,5,9.2,5,11.8v32.5c0,2.8,2.7,4.6,5.2,4.6h22.7L45,61.6c0.3,0.3,0.7,0.5,1.1,0.5
			c0.2,0,0.4,0,0.6-0.1c0.6-0.2,0.9-0.8,0.9-1.4l0-11.7h11.6c2.7,0,4.8-2,4.8-4.6V11.8C64,9.2,61.8,6.9,59.2,6.9z M61,44.3
			c0,0.9-0.8,1.6-1.8,1.6H46.2c-0.8,0-1.5,0.7-1.5,1.5l0,9.5l-10-10.5c-0.3-0.3-0.7-0.5-1.1-0.5H10.2c-1,0-2.2-0.7-2.2-1.6V11.8
			c0-0.9,1.2-1.9,2.2-1.9h49c0.9,0,1.8,0.9,1.8,1.9V44.3z"/>
		<path d="M55.5,3.4c0-0.8-0.7-1.5-1.5-1.5H4.8C2,1.9,0,3.8,0,6.3v32.6c0,0.8,0.7,1.5,1.5,1.5S3,39.7,3,38.9V6.3
			c0-1,0.9-1.4,1.8-1.4H54C54.8,4.9,55.5,4.2,55.5,3.4z"/>
	</g>
</g>
<g id="commenting-alt">
</g>
<g id="comment-alt">
</g>
<g id="face-happy">
</g>
<g id="face-ok">
</g>
<g id="face-unhappy">
</g>
<g id="mail">
</g>
<g id="phone">
</g>
<g id="fingerprint">
</g>
<g id="info">
</g>
<g id="question">
</g>
<g id="warning">
</g>
<g id="alert">
</g>
<g id="headset">
</g>
<g id="skull">
</g>
<g id="baby">
</g>
<g id="eye">
</g>
<g id="id-card">
</g>
<g id="microphone">
</g>
<g id="eye-cross">
</g>
<g id="user-commenting">
</g>
<g id="user-commenting-alt">
</g>
<g id="user-file">
</g>
<g id="user-check">
</g>
<g id="tap">
</g>
<g id="swipe">
</g>
<g id="slide">
</g>
<g id="foot">
</g>
<g id="share-social">
</g>
<g id="ghost">
</g>
</svg>
