<?xml version="1.0" encoding="utf-8"?>
<!-- Generator: Adobe Illustrator 20.1.0, SVG Export Plug-In . SVG Version: 6.00 Build 0)  -->
<!DOCTYPE svg PUBLIC "-//W3C//DTD SVG 1.1//EN" "http://www.w3.org/Graphics/SVG/1.1/DTD/svg11.dtd">
<svg version="1.1" xmlns="http://www.w3.org/2000/svg" xmlns:xlink="http://www.w3.org/1999/xlink" x="0px" y="0px"
	 viewBox="0 0 64 64" style="enable-background:new 0 0 64 64;" xml:space="preserve">
<g id="chart">
	<path d="M54.7,7.6H33.5V1.5C33.5,0.7,32.8,0,32,0s-1.5,0.7-1.5,1.5v6.1H9.3c-0.8,0-1.5,0.7-1.5,1.5v29.2c0,0.8,0.7,1.5,1.5,1.5
		h15.1l-11.2,22c-0.4,0.7-0.1,1.6,0.7,2c0.2,0.1,0.5,0.2,0.7,0.2c0.5,0,1.1-0.3,1.3-0.8l11.9-23.4h8.4l11.9,23.4
		c0.3,0.5,0.8,0.8,1.3,0.8c0.2,0,0.5-0.1,0.7-0.2c0.7-0.4,1-1.3,0.7-2l-11.2-22h15.1c0.8,0,1.5-0.7,1.5-1.5V9.1
		C56.2,8.2,55.5,7.6,54.7,7.6z M53.2,36.8H10.8V10.6h42.4V36.8z"/>
</g>
<g id="line-chart">
</g>
<g id="bar-chart">
</g>
<g id="bar-horizontal-chart">
</g>
<g id="area-chart">
</g>
<g id="pie-chart">
</g>
<g id="donut-chart">
</g>
</svg>
