<?xml version="1.0" encoding="utf-8"?>
<!-- Generator: Adobe Illustrator 20.1.0, SVG Export Plug-In . SVG Version: 6.00 Build 0)  -->
<!DOCTYPE svg PUBLIC "-//W3C//DTD SVG 1.1//EN" "http://www.w3.org/Graphics/SVG/1.1/DTD/svg11.dtd">
<svg version="1.1" xmlns="http://www.w3.org/2000/svg" xmlns:xlink="http://www.w3.org/1999/xlink" x="0px" y="0px"
	 viewBox="0 0 64 64" style="enable-background:new 0 0 64 64;" xml:space="preserve">
<g id="desktop">
</g>
<g id="tablet">
</g>
<g id="tablet-landscape">
</g>
<g id="desktop-alt">
</g>
<g id="smartphone">
</g>
<g id="smartphone-landscape">
</g>
<g id="laptop">
</g>
<g id="laptops">
</g>
<g id="desktops">
</g>
<g id="printer">
</g>
<g id="smartphones">
</g>
<g id="smartphone-mail">
</g>
<g id="smartphone-search">
</g>
<g id="desktop-chart">
</g>
<g id="pc">
</g>
<g id="remote-control-alt">
</g>
<g id="remote-control">
</g>
<g id="smartphone-signal">
</g>
<g id="battery-charge">
</g>
<g id="battery-charge-half">
</g>
<g id="battery-charge-full">
</g>
<g id="battery-charging">
</g>
<g id="filter">
</g>
<g id="network-web">
</g>
<g id="chip">
</g>
<g id="preferences-box">
</g>
<g id="preferences-vertical-box">
</g>
<g id="preferences-vertical-box-alt">
</g>
<g id="preferences-box-alt">
</g>
<g id="preferences">
</g>
<g id="preferences-vertical">
</g>
<g id="preferences-vertical-alt">
</g>
<g id="preferences-alt">
</g>
<g id="bluetooth">
</g>
<g id="signal-strength">
</g>
<g id="signal-no">
</g>
<g id="signal-tower-no">
</g>
<g id="signal-tower">
</g>
<g id="signal-no-alt">
</g>
<g id="nut">
</g>
<g id="cogs">
</g>
<g id="cog">
</g>
<g id="cog-dash-left">
</g>
<g id="cog-dash-right">
	<g>
		<path d="M42.5,22.9c-5.1,0-9.2,4.1-9.2,9.1s4.1,9.1,9.2,9.1s9.2-4.1,9.2-9.1S47.6,22.9,42.5,22.9z M42.5,38.1
			c-3.4,0-6.2-2.8-6.2-6.1s2.8-6.1,6.2-6.1c3.4,0,6.2,2.8,6.2,6.1S46,38.1,42.5,38.1z"/>
		<path d="M63.7,36.8c-0.1-0.4-0.5-0.7-0.9-0.9c-2-0.8-3.3-2.3-3.3-3.9c0-1.6,1.3-3.1,3.2-3.9c0.4-0.2,0.7-0.5,0.9-0.9
			c0.1-0.4,0.1-0.9-0.1-1.3l-5.3-9c-0.2-0.4-0.6-0.6-1-0.7c-0.4-0.1-0.9,0-1.2,0.3c-1.7,1.4-3.7,1.8-5.1,1c-1.4-0.8-2.1-3.1-1.7-4.5
			c0.1-0.4,0-0.9-0.3-1.3c-0.3-0.4-0.7-0.6-1.2-0.6H37.3c-0.5,0-0.9,0.2-1.2,0.6c-0.3,0.4-0.4,0.8-0.3,1.3c0.3,1.4-0.4,3.7-1.7,4.5
			c-1.4,0.8-3.4,0.4-5.1-1c-0.3-0.3-0.8-0.4-1.2-0.3c-0.4,0.1-0.8,0.3-1,0.7L21.6,26c-0.2,0.4-0.3,0.8-0.1,1.3
			c0.1,0.4,0.5,0.7,0.9,0.9c2,0.7,3.2,2.2,3.2,3.9c0,1.6-1.2,3.1-3.2,3.9c-0.4,0.2-0.7,0.5-0.9,0.9s-0.1,0.9,0.1,1.3l5.3,9.1
			c0.2,0.4,0.6,0.6,1,0.7c0.4,0.1,0.9,0,1.2-0.3c1.7-1.4,3.6-1.8,5-1c1.4,0.8,2.1,3,1.7,4.5c-0.1,0.4,0,0.9,0.3,1.3s0.7,0.6,1.2,0.6
			h10.5c0.5,0,0.9-0.2,1.2-0.6c0.3-0.4,0.4-0.8,0.3-1.3c-0.3-1.4,0.4-3.7,1.7-4.5c1.4-0.8,3.3-0.4,5,1c0.3,0.3,0.8,0.4,1.2,0.3
			c0.4-0.1,0.8-0.3,1-0.7l5.3-9.1C63.8,37.7,63.8,37.2,63.7,36.8z M56.5,44.3c-2.4-1.4-5-1.5-7-0.3c-2.1,1.2-3.2,3.7-3.3,5.9h-7.2
			c-0.1-2.2-1.2-4.7-3.3-5.9c-2.1-1.2-4.7-1.1-7,0.3L25,37.9c2.2-1.4,3.6-3.5,3.6-5.9c0-2.4-1.4-4.6-3.6-6l3.6-6.3
			c2.4,1.3,4.9,1.5,7,0.3c2.1-1.2,3.2-3.7,3.3-5.9h7.3c0.1,2.2,1.2,4.7,3.3,6c2.1,1.2,4.7,1,7-0.3l3.6,6.3c-2.2,1.3-3.6,3.5-3.6,5.9
			c0,2.4,1.4,4.5,3.6,5.9L56.5,44.3z"/>
		<path d="M22.6,17.6c0-0.8-0.7-1.5-1.5-1.5H7.2c-0.8,0-1.5,0.7-1.5,1.5s0.7,1.5,1.5,1.5h13.9C21.9,19.1,22.6,18.5,22.6,17.6z"/>
		<path d="M15.1,25H1.2c-0.8,0-1.5,0.7-1.5,1.5S0.4,28,1.2,28h13.9c0.8,0,1.5-0.7,1.5-1.5S16,25,15.1,25z"/>
		<path d="M15.1,35h-3c-0.8,0-1.5,0.7-1.5,1.5s0.7,1.5,1.5,1.5h3c0.8,0,1.5-0.7,1.5-1.5S16,35,15.1,35z"/>
	</g>
</g>
<g id="cog-fall">
</g>
<g id="io">
</g>
<g id="browser">
</g>
<g id="browser-add">
</g>
<g id="rss">
</g>
<g id="no-access">
</g>
<g id="notification">
</g>
<g id="devices">
</g>
<g id="notification-alert">
</g>
</svg>
