<?xml version="1.0" encoding="utf-8"?>
<!-- Generator: Adobe Illustrator 20.1.0, SVG Export Plug-In . SVG Version: 6.00 Build 0)  -->
<!DOCTYPE svg PUBLIC "-//W3C//DTD SVG 1.1//EN" "http://www.w3.org/Graphics/SVG/1.1/DTD/svg11.dtd">
<svg version="1.1" xmlns="http://www.w3.org/2000/svg" xmlns:xlink="http://www.w3.org/1999/xlink" x="0px" y="0px"
	 viewBox="0 0 64 64" style="enable-background:new 0 0 64 64;" xml:space="preserve">
<g id="dial">
</g>
<g id="dial-alt">
</g>
<g id="connections">
</g>
<g id="atom">
</g>
<g id="atom-alt">
</g>
<g id="cosmic">
</g>
<g id="cosmic-alt">
</g>
<g id="workflows">
</g>
<g id="positive">
</g>
<g id="neuron">
</g>
<g id="sitemap">
</g>
<g id="conditional">
</g>
<g id="sitemap-alt">
</g>
<g id="neuron-alt">
</g>
<g id="flask">
</g>
<g id="clone">
	<path d="M62.7,17.8c-2-5.5-6-10-11.3-12.5c-11-5.2-24.1-0.5-29.3,10.4c-0.2,0.4-0.3,0.8-0.5,1.2c-8.1,0.2-15.8,4.8-19.5,12.5
		c-2.5,5.3-2.8,11.2-0.9,16.8c2,5.5,6,10,11.3,12.5c3,1.4,6.2,2.1,9.4,2.1c8.2,0,16.1-4.6,19.9-12.5c0.2-0.4,0.3-0.8,0.5-1.2
		c8.1-0.2,15.8-4.8,19.5-12.5C64.4,29.3,64.7,23.3,62.7,17.8z M40.3,44c-2.2-0.2-4.4-0.7-6.5-1.7c-4.6-2.2-8.1-6-9.8-10.8
		c-1.3-3.7-1.4-7.7-0.4-11.5c2.2,0.2,4.4,0.8,6.5,1.8c4.6,2.2,8.1,6,9.8,10.8C41.2,36.3,41.4,40.2,40.3,44z M13.9,56
		c-4.6-2.2-8.1-6-9.8-10.8c-1.7-4.8-1.4-9.9,0.7-14.5c3-6.4,9.2-10.3,15.8-10.8c-1,4.1-0.8,8.4,0.7,12.5c2,5.5,6,10,11.3,12.5
		c2.2,1,4.4,1.7,6.7,1.9c0,0,0,0.1,0,0.1C34.7,56.4,23.3,60.5,13.9,56z M59.2,33.3c-3,6.4-9.2,10.2-15.8,10.7
		c1-4.1,0.8-8.4-0.7-12.5c-2-5.5-6-10-11.3-12.5c-2.2-1-4.4-1.7-6.7-1.9c0,0,0-0.1,0-0.1C28.1,10.2,34.9,6.2,42,6.2
		c2.7,0,5.5,0.6,8.1,1.8c4.6,2.2,8.1,6,9.8,10.8C61.6,23.6,61.3,28.7,59.2,33.3z"/>
</g>
<g id="infinity">
</g>
<g id="f42">
</g>
</svg>
