<?xml version="1.0" encoding="utf-8"?>
<!-- Generator: Adobe Illustrator 20.1.0, SVG Export Plug-In . SVG Version: 6.00 Build 0)  -->
<!DOCTYPE svg PUBLIC "-//W3C//DTD SVG 1.1//EN" "http://www.w3.org/Graphics/SVG/1.1/DTD/svg11.dtd">
<svg version="1.1" xmlns="http://www.w3.org/2000/svg" xmlns:xlink="http://www.w3.org/1999/xlink" x="0px" y="0px"
	 viewBox="0 0 64 64" style="enable-background:new 0 0 64 64;" xml:space="preserve">
<g id="file">
</g>
<g id="copy">
</g>
<g id="file-edit">
</g>
<g id="folder">
</g>
<g id="subdirectory">
</g>
<g id="album">
</g>
<g id="push">
</g>
<g id="pull">
</g>
<g id="database">
</g>
<g id="server">
</g>
<g id="upload">
</g>
<g id="download">
</g>
<g id="cloud-download">
</g>
<g id="cloud-upload">
</g>
<g id="cloud">
</g>
<g id="cloud-no-access">
</g>
<g id="cloud-signal-up">
</g>
<g id="cloud-signal-down">
</g>
<g id="checklist">
</g>
<g id="file-folded">
</g>
<g id="file-folded-text">
</g>
<g id="inbox">
</g>
<g id="zip-folder">
</g>
<g id="image-folder">
</g>
<g id="image-album">
</g>
<g id="image">
</g>
<g id="images">
</g>
<g id="invoice">
</g>
<g id="book">
</g>
<g id="layers">
</g>
<g id="media-upload">
</g>
<g id="addresses">
</g>
<g id="floppy">
</g>
<g id="link">
</g>
<g id="link-add">
</g>
<g id="link-remove">
</g>
<g id="table">
</g>
<g id="download-book">
</g>
<g id="clipboard">
</g>
<g id="clipboard-chart">
</g>
<g id="clipboard-text">
</g>
<g id="clipboard-check">
</g>
<g id="clipboard-cross">
</g>
<g id="bookmark">
</g>
<g id="bookmark-add">
</g>
<g id="bookmark-remove">
</g>
<g id="clipboard-horizontal">
	<g>
		<path d="M21,21.1H43c0.8,0,1.5-0.7,1.5-1.5v-7.9c0-0.8-0.7-1.5-1.5-1.5H36c0.6-0.9,1-1.9,1-3C37,4.3,34.8,2,32,2s-5,2.3-5,5.1
			c0,1.1,0.4,2.2,1,3H21c-0.8,0-1.5,0.7-1.5,1.5v7.9C19.5,20.4,20.1,21.1,21,21.1z M32,5c1.1,0,2,0.9,2,2.1s-0.9,2.1-2,2.1
			s-2-0.9-2-2.1S30.9,5,32,5z M22.5,13.2h19.1v4.9H22.5V13.2z"/>
		<path d="M62.5,11.5H50.2c-0.8,0-1.5,0.7-1.5,1.5s0.7,1.5,1.5,1.5H61V59H3V14.5h10.8c0.8,0,1.5-0.7,1.5-1.5s-0.7-1.5-1.5-1.5H1.5
			C0.7,11.5,0,12.2,0,13v47.5C0,61.3,0.7,62,1.5,62h61c0.8,0,1.5-0.7,1.5-1.5V13C64,12.2,63.3,11.5,62.5,11.5z"/>
	</g>
</g>
<g id="clipboard-text-horizontal">
</g>
<g id="trash">
</g>
<g id="unlock">
</g>
<g id="lock">
</g>
<g id="link-add-circle">
</g>
<g id="link-remove-circle">
</g>
<g id="sort-up">
</g>
<g id="sort-down">
</g>
<g id="list">
</g>
</svg>
