<?xml version="1.0" encoding="utf-8"?>
<!-- Generator: Adobe Illustrator 20.1.0, SVG Export Plug-In . SVG Version: 6.00 Build 0)  -->
<!DOCTYPE svg PUBLIC "-//W3C//DTD SVG 1.1//EN" "http://www.w3.org/Graphics/SVG/1.1/DTD/svg11.dtd">
<svg version="1.1" xmlns="http://www.w3.org/2000/svg" xmlns:xlink="http://www.w3.org/1999/xlink" x="0px" y="0px"
	 viewBox="0 0 64 64" style="enable-background:new 0 0 64 64;" xml:space="preserve">
<g id="check">
</g>
<g id="check-done">
	<g>
		<path d="M27.6,38.5c0.4,0,0.8-0.1,1.1-0.4l22-21.9c0.6-0.6,0.6-1.5,0-2.1c-0.6-0.6-1.5-0.6-2.1,0l-22,21.9c-0.6,0.6-0.6,1.5,0,2.1
			C26.9,38.3,27.2,38.5,27.6,38.5z"/>
		<path d="M2.6,33.8c-0.6-0.6-1.5-0.6-2.1,0c-0.6,0.6-0.6,1.5,0,2.1l14.1,14c0.3,0.3,0.7,0.4,1.1,0.4c0.4,0,0.8-0.1,1.1-0.4
			c0.6-0.6,0.6-1.5,0-2.1L2.6,33.8z"/>
		<path d="M63.6,14.1c-0.6-0.6-1.5-0.6-2.1,0l-33,32.7l-13.1-13c-0.6-0.6-1.5-0.6-2.1,0c-0.6,0.6-0.6,1.5,0,2.1l14.1,14
			c0.1,0.1,0.2,0.1,0.3,0.2c0.1,0,0.1,0.1,0.2,0.1c0.2,0.1,0.4,0.1,0.6,0.1s0.4,0,0.6-0.1c0.1,0,0.1-0.1,0.2-0.1
			c0.1-0.1,0.2-0.1,0.3-0.2l34-33.8C64.1,15.6,64.1,14.7,63.6,14.1z"/>
	</g>
</g>
<g id="close">
</g>
<g id="plus">
</g>
<g id="minus">
</g>
<g id="divide">
</g>
<g id="equal">
</g>
<g id="asterisk">
</g>
<g id="check-circle">
</g>
<g id="close-circle">
</g>
<g id="plus-circle">
</g>
<g id="minus-circle">
</g>
<g id="divide-circle">
</g>
<g id="equal-circle">
</g>
<g id="asterisk-circle">
</g>
<g id="check-box">
</g>
<g id="close-box">
</g>
<g id="plus-box">
</g>
<g id="minus-box">
</g>
<g id="divide-box">
</g>
<g id="equal-box">
</g>
<g id="asterisk-box">
</g>
</svg>
