<?xml version="1.0" encoding="utf-8"?>
<!-- Generator: Adobe Illustrator 20.1.0, SVG Export Plug-In . SVG Version: 6.00 Build 0)  -->
<!DOCTYPE svg PUBLIC "-//W3C//DTD SVG 1.1//EN" "http://www.w3.org/Graphics/SVG/1.1/DTD/svg11.dtd">
<svg version="1.1" xmlns="http://www.w3.org/2000/svg" xmlns:xlink="http://www.w3.org/1999/xlink" x="0px" y="0px"
	 viewBox="0 0 64 64" style="enable-background:new 0 0 64 64;" xml:space="preserve">
<g id="dial">
</g>
<g id="dial-alt">
</g>
<g id="connections">
</g>
<g id="atom">
</g>
<g id="atom-alt">
</g>
<g id="cosmic">
	<path d="M61,11.3c0.8-1,1.3-2.2,1.3-3.6c0-3.2-2.6-5.8-5.8-5.8c-3.2,0-5.8,2.6-5.8,5.8s2.6,5.8,5.8,5.8c0.8,0,1.5-0.2,2.2-0.4
		c2.1,3.9,2.9,8.5,2.4,13.3c-2.1-4.9-5.4-9.6-9.5-13.7c-4.2-4.2-8.9-7.3-13.7-9.4c2.9-0.3,5.7-0.1,8.4,0.5c0.8,0.2,1.6-0.3,1.8-1.1
		c0.2-0.8-0.3-1.6-1.1-1.8C42.2-0.3,37.1-0.1,32,1.2C22.4-1.3,12.9,0.3,6.6,6.6c-6.2,6.2-8,15.7-5.4,25.4C0.4,34.8,0,37.6,0,40.4
		c0,6.8,2.3,12.7,6.6,17c4.4,4.4,10.4,6.5,17,6.5c2.7,0,5.6-0.4,8.4-1.1c2.9,0.8,5.7,1.2,8.5,1.2c6.6,0,12.6-2.2,17-6.6
		c4.3-4.3,6.6-10.2,6.6-17c0-2.8-0.4-5.6-1.1-8.4C64.8,24.6,64.3,17.2,61,11.3z M53.5,7.7c0-1.6,1.3-2.8,2.8-2.8
		c1.6,0,2.8,1.3,2.8,2.8s-1.3,2.8-2.8,2.8C54.8,10.5,53.5,9.2,53.5,7.7z M8.7,8.7c4.5-4.5,10.8-6.2,17.7-5.6
		c-4.9,2.1-9.7,5.3-13.8,9.4c-4.1,4.1-7.3,8.8-9.5,13.6C2.5,19.5,4.3,13.1,8.7,8.7z M8.7,55.3C5,51.5,3,46.4,3,40.4
		c0-0.9,0.1-1.8,0.1-2.7c1.4,3.2,3.3,6.4,5.6,9.4c-0.7,0.9-1.1,2.1-1.1,3.3c0,3.2,2.6,5.8,5.8,5.8c3.2,0,5.8-2.6,5.8-5.8
		s-2.6-5.8-5.8-5.8c-0.9,0-1.7,0.2-2.5,0.6C7.8,41,5.5,36.5,4.3,32C6,25.9,9.7,19.8,14.7,14.7C19.8,9.7,25.9,6.1,32,4.3
		C38,6,44.1,9.6,49.3,14.7c5,5,8.7,11.2,10.5,17.4c-1.8,6-5.3,12-10.5,17.2C44.1,54.5,38,58,32,59.7c-3.1-0.9-6.2-2.3-9.2-4.1
		c-0.7-0.4-1.6-0.2-2.1,0.5c-0.4,0.7-0.2,1.6,0.5,2.1c1.7,1,3.4,1.9,5.1,2.7C19.5,61.5,13.1,59.7,8.7,55.3z M13.6,47.6
		c1.6,0,2.8,1.3,2.8,2.8s-1.3,2.8-2.8,2.8c-1.6,0-2.8-1.3-2.8-2.8S12,47.6,13.6,47.6z M61,40.4c0,6-2,11.1-5.7,14.8
		c-4.4,4.4-10.7,6.2-17.6,5.6c4.8-2.1,9.6-5.3,13.7-9.4c4.1-4.1,7.3-8.8,9.4-13.6C60.9,38.7,61,39.5,61,40.4z"/>
</g>
<g id="cosmic-alt">
</g>
<g id="workflows">
</g>
<g id="positive">
</g>
<g id="neuron">
</g>
<g id="sitemap">
</g>
<g id="conditional">
</g>
<g id="sitemap-alt">
</g>
<g id="neuron-alt">
</g>
<g id="flask">
</g>
<g id="clone">
</g>
<g id="infinity">
</g>
<g id="f42">
</g>
</svg>
