<?xml version="1.0" encoding="utf-8"?>
<!-- Generator: Adobe Illustrator 20.1.0, SVG Export Plug-In . SVG Version: 6.00 Build 0)  -->
<!DOCTYPE svg PUBLIC "-//W3C//DTD SVG 1.1//EN" "http://www.w3.org/Graphics/SVG/1.1/DTD/svg11.dtd">
<svg version="1.1" xmlns="http://www.w3.org/2000/svg" xmlns:xlink="http://www.w3.org/1999/xlink" x="0px" y="0px"
	 viewBox="0 0 64 64" style="enable-background:new 0 0 64 64;" xml:space="preserve">
<g id="check">
	<path d="M63.6,9.2c-0.6-0.6-1.5-0.6-2.1,0l-42,42.5l-16.8-17c-0.6-0.6-1.5-0.6-2.1,0c-0.6,0.6-0.6,1.5,0,2.1l17.9,18.1c0,0,0,0,0,0
		c0,0,0,0,0,0c0.1,0.1,0.2,0.2,0.3,0.2c0.1,0,0.1,0.1,0.2,0.1c0.2,0.1,0.4,0.1,0.6,0.1s0.4,0,0.6-0.1c0.1,0,0.1-0.1,0.2-0.1
		c0.1-0.1,0.2-0.1,0.3-0.2c0,0,0,0,0,0c0,0,0,0,0,0l43.1-43.5C64.1,10.7,64.1,9.7,63.6,9.2z"/>
</g>
<g id="check-done">
</g>
<g id="close">
</g>
<g id="plus">
</g>
<g id="minus">
</g>
<g id="divide">
</g>
<g id="equal">
</g>
<g id="asterisk">
</g>
<g id="check-circle">
</g>
<g id="close-circle">
</g>
<g id="plus-circle">
</g>
<g id="minus-circle">
</g>
<g id="divide-circle">
</g>
<g id="equal-circle">
</g>
<g id="asterisk-circle">
</g>
<g id="check-box">
</g>
<g id="close-box">
</g>
<g id="plus-box">
</g>
<g id="minus-box">
</g>
<g id="divide-box">
</g>
<g id="equal-box">
</g>
<g id="asterisk-box">
</g>
</svg>
