<?xml version="1.0" encoding="utf-8"?>
<!-- Generator: Adobe Illustrator 20.1.0, SVG Export Plug-In . SVG Version: 6.00 Build 0)  -->
<!DOCTYPE svg PUBLIC "-//W3C//DTD SVG 1.1//EN" "http://www.w3.org/Graphics/SVG/1.1/DTD/svg11.dtd">
<svg version="1.1" xmlns="http://www.w3.org/2000/svg" xmlns:xlink="http://www.w3.org/1999/xlink" x="0px" y="0px"
	 viewBox="0 0 64 64" style="enable-background:new 0 0 64 64;" xml:space="preserve">
<g id="file">
</g>
<g id="copy">
</g>
<g id="file-edit">
</g>
<g id="folder">
</g>
<g id="subdirectory">
</g>
<g id="album">
</g>
<g id="push">
</g>
<g id="pull">
</g>
<g id="database">
</g>
<g id="server">
</g>
<g id="upload">
</g>
<g id="download">
</g>
<g id="cloud-download">
	<g>
		<path d="M49.7,17.5c-1.4,0-2.8,0.2-4.2,0.6c-2.6-7.4-9.6-12.5-17.7-12.5c-9.8,0-17.8,7.4-18.7,17C3.8,23.8,0,28.6,0,34.1
			c0,6.5,5.4,11.8,11.9,11.8h8.3c0.8,0,1.5-0.7,1.5-1.5s-0.7-1.5-1.5-1.5h-8.3C7,42.8,3,38.9,3,34.1c0-4.4,3.3-8.2,7.7-8.7
			c0.7-0.1,1.3-0.7,1.3-1.4c0.2-8.6,7.2-15.3,15.8-15.3c7.2,0,13.5,4.9,15.3,11.8c0.1,0.4,0.4,0.8,0.8,1c0.4,0.2,0.9,0.2,1.3,0
			c1.4-0.6,3-1,4.6-1c6.3,0,11.3,5,11.3,11.2c0,6.2-5.1,11.2-11.3,11.2h-9.1c-0.8,0-1.5,0.7-1.5,1.5s0.7,1.5,1.5,1.5h9.1
			c7.9,0,14.3-6.4,14.3-14.2C64,23.8,57.6,17.5,49.7,17.5z"/>
		<path d="M36.6,48.6l-4.7,4.7V28.8c0-0.8-0.7-1.5-1.5-1.5s-1.5,0.7-1.5,1.5v24.5l-4.7-4.7c-0.6-0.6-1.5-0.6-2.1,0
			c-0.6,0.6-0.6,1.5,0,2.1l7.2,7.2c0.3,0.3,0.7,0.4,1.1,0.4s0.8-0.2,1.1-0.4l7.2-7.2c0.6-0.6,0.6-1.5,0-2.1
			C38.1,48,37.1,48,36.6,48.6z"/>
	</g>
</g>
<g id="cloud-upload">
</g>
<g id="cloud">
</g>
<g id="cloud-no-access">
</g>
<g id="cloud-signal-up">
</g>
<g id="cloud-signal-down">
</g>
<g id="checklist">
</g>
<g id="file-folded">
</g>
<g id="file-folded-text">
</g>
<g id="inbox">
</g>
<g id="zip-folder">
</g>
<g id="image-folder">
</g>
<g id="image-album">
</g>
<g id="image">
</g>
<g id="images">
</g>
<g id="invoice">
</g>
<g id="book">
</g>
<g id="layers">
</g>
<g id="media-upload">
</g>
<g id="addresses">
</g>
<g id="floppy">
</g>
<g id="link">
</g>
<g id="link-add">
</g>
<g id="link-remove">
</g>
<g id="table">
</g>
<g id="download-book">
</g>
<g id="clipboard">
</g>
<g id="clipboard-chart">
</g>
<g id="clipboard-text">
</g>
<g id="clipboard-check">
</g>
<g id="clipboard-cross">
</g>
<g id="bookmark">
</g>
<g id="bookmark-add">
</g>
<g id="bookmark-remove">
</g>
<g id="clipboard-horizontal">
</g>
<g id="clipboard-text-horizontal">
</g>
<g id="trash">
</g>
<g id="unlock">
</g>
<g id="lock">
</g>
<g id="link-add-circle">
</g>
<g id="link-remove-circle">
</g>
<g id="sort-up">
</g>
<g id="sort-down">
</g>
<g id="list">
</g>
</svg>
