<?xml version="1.0" encoding="utf-8"?>
<!-- Generator: Adobe Illustrator 20.1.0, SVG Export Plug-In . SVG Version: 6.00 Build 0)  -->
<!DOCTYPE svg PUBLIC "-//W3C//DTD SVG 1.1//EN" "http://www.w3.org/Graphics/SVG/1.1/DTD/svg11.dtd">
<svg version="1.1" xmlns="http://www.w3.org/2000/svg" xmlns:xlink="http://www.w3.org/1999/xlink" x="0px" y="0px"
	 viewBox="0 0 64 64" style="enable-background:new 0 0 64 64;" xml:space="preserve">
<g id="bulb">
</g>
<g id="bulb-on">
</g>
<g id="bulb-alt">
</g>
<g id="bulb-on-alt">
</g>
<g id="energy-bulb">
</g>
<g id="toasting">
</g>
<g id="toasted">
</g>
<g id="binoculars">
</g>
<g id="gift">
</g>
<g id="shaver">
</g>
<g id="candle">
	<path d="M61.7,54.4c-0.2-0.5-0.8-0.9-1.4-0.9H43.6V16.8c0-0.8-0.7-1.5-1.5-1.5h-5.7c1.3-1.2,2.1-3,2.1-5c0-3.3-4.5-8.7-5.4-9.8
		c-0.6-0.7-1.7-0.7-2.3,0C30,1.6,25.4,7,25.4,10.3c0,2,0.8,3.7,2.1,5h-5.7c-0.8,0-1.5,0.7-1.5,1.5v36.8H3.7c-0.6,0-1.1,0.3-1.4,0.9
		S2.2,55.6,2.5,56l6.1,7.4C8.9,63.8,9.3,64,9.8,64h44.5c0.5,0,0.9-0.2,1.2-0.6l6.1-7.4C61.8,55.6,61.9,54.9,61.7,54.4z M32,3.9
		c1.7,2.2,3.6,5.1,3.6,6.4c0,2.1-1.6,3.8-3.6,3.8s-3.6-1.7-3.6-3.8C28.4,9,30.3,6.1,32,3.9z M23.4,18.3h17.3v35.3H23.4V18.3z
		 M53.5,61h-43l-3.6-4.4h15h20.3h15L53.5,61z"/>
</g>
<g id="shower">
</g>
<g id="bomb">
</g>
<g id="joystick">
</g>
<g id="megaphone">
</g>
<g id="chestdraw">
</g>
<g id="armchair">
</g>
<g id="cardboard-box">
</g>
<g id="bath-shower">
</g>
<g id="diamond">
</g>
<g id="cassette">
</g>
<g id="iron">
</g>
<g id="wash">
</g>
<g id="keyboard-keys">
</g>
<g id="earphones">
</g>
<g id="lifebuoy">
</g>
<g id="calculator">
</g>
<g id="safe">
</g>
<g id="balloon">
</g>
<g id="cake">
</g>
<g id="baseball">
</g>
<g id="football-american">
</g>
<g id="football">
</g>
<g id="anchor">
</g>
<g id="compact-disc">
</g>
<g id="bbq">
</g>
<g id="coffee-machine">
</g>
<g id="teapot">
</g>
<g id="outdoor-stove">
</g>
<g id="pram">
</g>
<g id="paintbrush">
</g>
<g id="stamp">
</g>
<g id="eyedrop">
</g>
<g id="musical-note">
</g>
<g id="magnet">
</g>
<g id="alarm-bell">
</g>
<g id="globe">
</g>
<g id="key">
</g>
<g id="ink">
</g>
<g id="paperclip">
</g>
<g id="paint-roller">
</g>
<g id="keyboard">
</g>
</svg>
