<?xml version="1.0" encoding="utf-8"?>
<!-- Generator: Adobe Illustrator 20.1.0, SVG Export Plug-In . SVG Version: 6.00 Build 0)  -->
<!DOCTYPE svg PUBLIC "-//W3C//DTD SVG 1.1//EN" "http://www.w3.org/Graphics/SVG/1.1/DTD/svg11.dtd">
<svg version="1.1" xmlns="http://www.w3.org/2000/svg" xmlns:xlink="http://www.w3.org/1999/xlink" x="0px" y="0px"
	 viewBox="0 0 64 64" style="enable-background:new 0 0 64 64;" xml:space="preserve">
<g id="dial">
</g>
<g id="dial-alt">
</g>
<g id="connections">
</g>
<g id="atom">
</g>
<g id="atom-alt">
</g>
<g id="cosmic">
</g>
<g id="cosmic-alt">
</g>
<g id="workflows">
</g>
<g id="positive">
</g>
<g id="neuron">
</g>
<g id="sitemap">
</g>
<g id="conditional">
	<path d="M46.5,40h16c0.8,0,1.5-0.7,1.5-1.5v-17c0-0.8-0.7-1.5-1.5-1.5h-16c-0.8,0-1.5,0.7-1.5,1.5V29H11v-7h6.5
		c0.8,0,1.5-0.7,1.5-1.5v-17C19,2.7,18.3,2,17.5,2h-16C0.7,2,0,2.7,0,3.5v17C0,21.3,0.7,22,1.5,22H8v30.5C8,53.3,8.7,54,9.5,54H45
		v6.5c0,0.8,0.7,1.5,1.5,1.5h16c0.8,0,1.5-0.7,1.5-1.5v-17c0-0.8-0.7-1.5-1.5-1.5h-16c-0.8,0-1.5,0.7-1.5,1.5V51H11V32h34v6.5
		C45,39.3,45.7,40,46.5,40z M3,5h13v14H3V5z M48,45h13v14H48V45z M48,23h13v14H48V23z"/>
</g>
<g id="sitemap-alt">
</g>
<g id="neuron-alt">
</g>
<g id="flask">
</g>
<g id="clone">
</g>
<g id="infinity">
</g>
<g id="f42">
</g>
</svg>
