<?xml version="1.0" encoding="utf-8"?>
<!-- Generator: Adobe Illustrator 20.1.0, SVG Export Plug-In . SVG Version: 6.00 Build 0)  -->
<!DOCTYPE svg PUBLIC "-//W3C//DTD SVG 1.1//EN" "http://www.w3.org/Graphics/SVG/1.1/DTD/svg11.dtd">
<svg version="1.1" xmlns="http://www.w3.org/2000/svg" xmlns:xlink="http://www.w3.org/1999/xlink" x="0px" y="0px"
	 viewBox="0 0 64 64" style="enable-background:new 0 0 64 64;" xml:space="preserve">
<g id="text-height">
</g>
<g id="font">
</g>
<g id="text">
</g>
<g id="italic">
</g>
<g id="strikethrough">
</g>
<g id="paragraph">
</g>
<g id="bold">
</g>
<g id="quote-right">
</g>
<g id="hashtag">
</g>
<g id="anchor-handle">
</g>
<g id="box">
</g>
<g id="fullscreen">
</g>
<g id="fullscreen-alt">
</g>
<g id="golden-ratio">
</g>
<g id="hexgrid">
</g>
<g id="box-points">
</g>
<g id="box-points-move">
</g>
<g id="box-points-move-alt">
</g>
<g id="hex_1_">
</g>
<g id="hex-diamond">
</g>
<g id="artboards-vertical">
</g>
<g id="artboards">
</g>
<g id="artboards-alt-vertical">
</g>
<g id="artboards-alt">
</g>
<g id="scale">
</g>
<g id="pencil">
</g>
<g id="fill">
</g>
<g id="artist-mug">
</g>
<g id="pen">
</g>
<g id="calligraphy-pen-tip">
	<path d="M38,17v-3h0.3c0.7,0,1.3-0.4,1.4-1.1l3.1-11c0.1-0.5,0-0.9-0.2-1.3C42.3,0.2,41.9,0,41.4,0H22.6c-0.5,0-0.9,0.2-1.2,0.6
		C21.1,1,21,1.5,21.1,1.9l3.1,11c0.2,0.6,0.8,1.1,1.4,1.1H26v3c-6,2.4-10.2,8.2-10.2,15c0,8.4,13.3,30.3,13.8,31.2
		c0.3,0.4,0.8,0.7,1.3,0.7H33c0.5,0,1-0.3,1.3-0.7c1.4-2.4,13.8-24,13.8-31.2C48.2,25.3,44,19.4,38,17z M24.6,3h14.9l-2.3,8H26.8
		L24.6,3z M29,14h6v2.2c-1-0.2-2-0.3-3-0.3s-2,0.1-3,0.3V14z M32,36.8c-1.5,0-2.7-1.2-2.7-2.7s1.2-2.7,2.7-2.7s2.7,1.2,2.7,2.7
		S33.5,36.8,32,36.8z M33.5,58.7V39.6c2.4-0.7,4.2-2.9,4.2-5.5c0-3.1-2.6-5.7-5.7-5.7s-5.7,2.6-5.7,5.7c0,2.6,1.8,4.8,4.2,5.5v19.2
		c-4.4-7.5-11.7-21.3-11.7-26.7c0-7.1,6-13.2,13.2-13.2s13.2,6,13.2,13.2C45.2,36.7,37.9,50.8,33.5,58.7z"/>
</g>
<g id="calligraphy-pen_1_">
</g>
<g id="paint-pallette">
</g>
<g id="tools-cross">
</g>
<g id="edit-tools">
</g>
<g id="pencil-ruler">
</g>
<g id="ruler-measure">
</g>
<g id="measure">
</g>
<g id="code">
</g>
<g id="move">
</g>
<g id="external">
</g>
<g id="terminal">
</g>
<g id="thumbnails">
</g>
</svg>
