<?xml version="1.0" encoding="utf-8"?>
<!-- Generator: Adobe Illustrator 20.1.0, SVG Export Plug-In . SVG Version: 6.00 Build 0)  -->
<!DOCTYPE svg PUBLIC "-//W3C//DTD SVG 1.1//EN" "http://www.w3.org/Graphics/SVG/1.1/DTD/svg11.dtd">
<svg version="1.1" xmlns="http://www.w3.org/2000/svg" xmlns:xlink="http://www.w3.org/1999/xlink" x="0px" y="0px"
	 viewBox="0 0 64 64" style="enable-background:new 0 0 64 64;" xml:space="preserve">
<style type="text/css">
	.st0{fill:none;stroke:#000000;stroke-width:3;stroke-linecap:round;stroke-linejoin:round;}
</style>
<g id="cupcake">
</g>
<g id="turkey">
</g>
<g id="hot-service">
</g>
<g id="mug">
</g>
<g id="mug-hot">
</g>
<g id="bottle">
</g>
<g id="cherries">
</g>
<g id="cocktail">
	<path d="M55,15.3c0.4-0.5,0.4-1.1,0.2-1.6c-0.3-0.5-0.8-0.8-1.3-0.8H43.7l2.4-2.4c0.6,0.3,1.2,0.4,1.9,0.4c2.5,0,4.5-2,4.5-4.5
		c0-0.7-0.2-1.3-0.4-1.9l2-2C54.6,2,54.6,1,54,0.4c-0.6-0.6-1.5-0.6-2.1,0l-2,2C49.3,2.1,48.7,2,48,2c-2.5,0-4.5,2-4.5,4.5
		c0,0.7,0.2,1.3,0.4,1.9l-4.5,4.5H10.2c-0.6,0-1.1,0.3-1.3,0.8c-0.3,0.5-0.2,1.1,0.2,1.6l21.5,27.4V61h-6.4c-0.8,0-1.5,0.7-1.5,1.5
		s0.7,1.5,1.5,1.5h15.9c0.8,0,1.5-0.7,1.5-1.5S40.8,61,39.9,61h-6.4V42.7L55,15.3z M48,5c0.4,0,0.8,0.2,1,0.4c0.3,0.3,0.4,0.6,0.4,1
		c0,0.8-0.7,1.5-1.5,1.5c-0.4,0-0.8-0.2-1-0.4c-0.3-0.3-0.4-0.6-0.4-1C46.5,5.6,47.2,5,48,5z M37.7,15.9c0.1,0.2,0.2,0.4,0.3,0.6
		c0.3,0.3,0.7,0.4,1.1,0.4c0.4,0,0.8-0.1,1.1-0.4l0.6-0.6h10L32,39.7L13.3,15.9H37.7z"/>
</g>
<g id="cocktail-alt">
</g>
<g id="wine-glass">
</g>
<g id="wine-glass-alt">
</g>
<g id="aubergine">
</g>
<g id="lettuce-leaf">
</g>
<g id="cup">
</g>
<g id="noodles">
</g>
<g id="icelolly">
</g>
<g id="cutlery">
</g>
<g id="hotdog">
</g>
</svg>
