<?xml version="1.0" encoding="utf-8"?>
<!-- Generator: Adobe Illustrator 20.1.0, SVG Export Plug-In . SVG Version: 6.00 Build 0)  -->
<!DOCTYPE svg PUBLIC "-//W3C//DTD SVG 1.1//EN" "http://www.w3.org/Graphics/SVG/1.1/DTD/svg11.dtd">
<svg version="1.1" xmlns="http://www.w3.org/2000/svg" xmlns:xlink="http://www.w3.org/1999/xlink" x="0px" y="0px"
	 viewBox="0 0 64 64" style="enable-background:new 0 0 64 64;" xml:space="preserve">
<g id="file">
</g>
<g id="copy">
</g>
<g id="file-edit">
</g>
<g id="folder">
</g>
<g id="subdirectory">
</g>
<g id="album">
</g>
<g id="push">
</g>
<g id="pull">
</g>
<g id="database">
</g>
<g id="server">
</g>
<g id="upload">
</g>
<g id="download">
</g>
<g id="cloud-download">
</g>
<g id="cloud-upload">
</g>
<g id="cloud">
</g>
<g id="cloud-no-access">
</g>
<g id="cloud-signal-up">
</g>
<g id="cloud-signal-down">
</g>
<g id="checklist">
</g>
<g id="file-folded">
</g>
<g id="file-folded-text">
</g>
<g id="inbox">
</g>
<g id="zip-folder">
</g>
<g id="image-folder">
</g>
<g id="image-album">
</g>
<g id="image">
</g>
<g id="images">
</g>
<g id="invoice">
</g>
<g id="book">
</g>
<g id="layers">
</g>
<g id="media-upload">
</g>
<g id="addresses">
</g>
<g id="floppy">
</g>
<g id="link">
</g>
<g id="link-add">
</g>
<g id="link-remove">
</g>
<g id="table">
</g>
<g id="download-book">
</g>
<g id="clipboard">
	<g>
		<path d="M22.4,15.9h19.2c0.8,0,1.5-0.7,1.5-1.5V8.8c0-0.8-0.7-1.5-1.5-1.5h-6c0.6-0.8,1-1.7,1-2.8C36.6,2,34.5,0,32,0
			s-4.6,2-4.6,4.5c0,1.1,0.4,2,1,2.8h-6c-0.8,0-1.5,0.7-1.5,1.5v5.6C20.9,15.3,21.6,15.9,22.4,15.9z M32,3c0.9,0,1.6,0.7,1.6,1.5
			c0,0.8-0.7,1.5-1.6,1.5s-1.6-0.7-1.6-1.5C30.4,3.7,31.1,3,32,3z M23.9,10.3h16.2v2.6H23.9V10.3z"/>
		<path d="M52.9,8.5h-5.1c-0.8,0-1.5,0.7-1.5,1.5s0.7,1.5,1.5,1.5h3.6V61H12.6V11.5h3.6c0.8,0,1.5-0.7,1.5-1.5S17,8.5,16.2,8.5h-5.1
			c-0.8,0-1.5,0.7-1.5,1.5v52.5c0,0.8,0.7,1.5,1.5,1.5h41.7c0.8,0,1.5-0.7,1.5-1.5V10C54.4,9.1,53.7,8.5,52.9,8.5z"/>
	</g>
</g>
<g id="clipboard-chart">
</g>
<g id="clipboard-text">
</g>
<g id="clipboard-check">
</g>
<g id="clipboard-cross">
</g>
<g id="bookmark">
</g>
<g id="bookmark-add">
</g>
<g id="bookmark-remove">
</g>
<g id="clipboard-horizontal">
</g>
<g id="clipboard-text-horizontal">
</g>
<g id="trash">
</g>
<g id="unlock">
</g>
<g id="lock">
</g>
<g id="link-add-circle">
</g>
<g id="link-remove-circle">
</g>
<g id="sort-up">
</g>
<g id="sort-down">
</g>
<g id="list">
</g>
</svg>
