<?xml version="1.0" encoding="utf-8"?>
<!-- Generator: Adobe Illustrator 20.1.0, SVG Export Plug-In . SVG Version: 6.00 Build 0)  -->
<!DOCTYPE svg PUBLIC "-//W3C//DTD SVG 1.1//EN" "http://www.w3.org/Graphics/SVG/1.1/DTD/svg11.dtd">
<svg version="1.1" xmlns="http://www.w3.org/2000/svg" xmlns:xlink="http://www.w3.org/1999/xlink" x="0px" y="0px"
	 viewBox="0 0 64 64" style="enable-background:new 0 0 64 64;" xml:space="preserve">
<g id="text-height">
</g>
<g id="font">
</g>
<g id="text">
</g>
<g id="italic">
</g>
<g id="strikethrough">
</g>
<g id="paragraph">
</g>
<g id="bold">
</g>
<g id="quote-right">
</g>
<g id="hashtag">
</g>
<g id="anchor-handle">
</g>
<g id="box">
</g>
<g id="fullscreen">
</g>
<g id="fullscreen-alt">
</g>
<g id="golden-ratio">
</g>
<g id="hexgrid">
</g>
<g id="box-points">
</g>
<g id="box-points-move">
</g>
<g id="box-points-move-alt">
</g>
<g id="hex_1_">
</g>
<g id="hex-diamond">
</g>
<g id="artboards-vertical">
</g>
<g id="artboards">
</g>
<g id="artboards-alt-vertical">
</g>
<g id="artboards-alt">
</g>
<g id="scale">
</g>
<g id="pencil">
</g>
<g id="fill">
</g>
<g id="artist-mug">
</g>
<g id="pen">
</g>
<g id="calligraphy-pen-tip">
</g>
<g id="calligraphy-pen_1_">
	<path d="M63.6,7.8l-7.4-7.4c-0.6-0.6-1.5-0.6-2.1,0l-1.2,1.2c-1.1-0.7-2.3-1.1-3.6-1.1c-1.8,0-3.5,0.7-4.7,2L29.9,17.3
		c-0.6,0.6-0.6,1.5,0,2.1c0.3,0.3,0.7,0.4,1.1,0.4s0.8-0.1,1.1-0.4L46.7,4.7c1.1-1.1,2.6-1.3,3.9-0.8L38.3,16.2L12,42.5
		c-0.3,0.3-0.4,0.7-0.4,1.1c0,0.2,0,0.4,0.1,0.6c-2.1-0.1-4.2,0.8-6,2.6C2.6,49.8,0.3,60.9,0,62.2c0,0.1,0,0.2,0,0.2
		c0,0,0,0.1,0,0.1c0,0.2,0,0.3,0.1,0.5c0,0,0,0.1,0,0.1c0.1,0.2,0.2,0.3,0.3,0.4c0.1,0.1,0.3,0.3,0.5,0.3c0,0,0,0,0,0
		C1.1,64,1.3,64,1.5,64c0.1,0,0.2,0,0.3,0c1.3-0.3,12.4-2.6,15.5-5.7c1.7-1.7,2.6-3.7,2.6-5.8c0-0.1,0-0.1,0-0.2
		c0.2,0.1,0.4,0.1,0.6,0.1c0.4,0,0.8-0.1,1.1-0.4l26.3-26.3L63.6,9.9C63.8,9.6,64,9.3,64,8.9S63.8,8.1,63.6,7.8z M15.2,56.2
		c-1.2,1.2-5.1,2.6-8.8,3.6l4.7-4.7c0.6-0.6,0.6-1.5,0-2.1s-1.5-0.6-2.1,0l-4.7,4.7c1-3.7,2.4-7.6,3.6-8.8c1.1-1.1,2.4-1.7,3.7-1.7
		c1.3,0,2.5,0.6,3.7,1.7c1.1,1.1,1.7,2.4,1.7,3.7S16.3,55.1,15.2,56.2z M20.4,48.8l-5.2-5.2l24.2-24.2l5.2,5.2L20.4,48.8z
		 M46.7,22.5l-5.2-5.2L54.1,4.7c0,0,0,0,0,0s0,0,0,0l1-1l5.2,5.2L46.7,22.5z"/>
</g>
<g id="paint-pallette">
</g>
<g id="tools-cross">
</g>
<g id="edit-tools">
</g>
<g id="pencil-ruler">
</g>
<g id="ruler-measure">
</g>
<g id="measure">
</g>
<g id="code">
</g>
<g id="move">
</g>
<g id="external">
</g>
<g id="terminal">
</g>
<g id="thumbnails">
</g>
</svg>
