<?xml version="1.0" encoding="utf-8"?>
<!-- Generator: Adobe Illustrator 20.1.0, SVG Export Plug-In . SVG Version: 6.00 Build 0)  -->
<!DOCTYPE svg PUBLIC "-//W3C//DTD SVG 1.1//EN" "http://www.w3.org/Graphics/SVG/1.1/DTD/svg11.dtd">
<svg version="1.1" xmlns="http://www.w3.org/2000/svg" xmlns:xlink="http://www.w3.org/1999/xlink" x="0px" y="0px"
	 viewBox="0 0 64 64" style="enable-background:new 0 0 64 64;" xml:space="preserve">
<g id="user">
</g>
<g id="users">
</g>
<g id="comment">
</g>
<g id="commenting">
	<g>
		<ellipse cx="32.1" cy="25" rx="3.6" ry="3.6"/>
		<ellipse cx="17.5" cy="25" rx="3.6" ry="3.6"/>
		<ellipse cx="46.6" cy="25" rx="3.6" ry="3.6"/>
		<path d="M59.2,1.1H4.8C1.8,1.1,0,4,0,6.6v36.3c0,3,2.1,5.2,4.8,5.2h13l0.1,13.2c0,0.6,0.4,1.2,0.9,1.4c0.2,0.1,0.4,0.1,0.6,0.1
			c0.4,0,0.8-0.2,1.1-0.5l13.5-14.3h25.3c2.7,0,4.8-2.2,4.8-5.2V6.6C64,4,62.2,1.1,59.2,1.1z M61,42.9c0,1.1-0.6,2.2-1.8,2.2H33.3
			c-0.4,0-0.8,0.2-1.1,0.5l-11.4,12l0-11c0-0.8-0.7-1.5-1.5-1.5H4.8C3.6,45.2,3,44,3,42.9V6.6c0-1.2,0.7-2.5,1.8-2.5h54.4
			c1.1,0,1.8,1.3,1.8,2.5V42.9z"/>
	</g>
</g>
<g id="comments">
</g>
<g id="comments-alt">
</g>
<g id="commenting-alt">
</g>
<g id="comment-alt">
</g>
<g id="face-happy">
</g>
<g id="face-ok">
</g>
<g id="face-unhappy">
</g>
<g id="mail">
</g>
<g id="phone">
</g>
<g id="fingerprint">
</g>
<g id="info">
</g>
<g id="question">
</g>
<g id="warning">
</g>
<g id="alert">
</g>
<g id="headset">
</g>
<g id="skull">
</g>
<g id="baby">
</g>
<g id="eye">
</g>
<g id="id-card">
</g>
<g id="microphone">
</g>
<g id="eye-cross">
</g>
<g id="user-commenting">
</g>
<g id="user-commenting-alt">
</g>
<g id="user-file">
</g>
<g id="user-check">
</g>
<g id="tap">
</g>
<g id="swipe">
</g>
<g id="slide">
</g>
<g id="foot">
</g>
<g id="share-social">
</g>
<g id="ghost">
</g>
</svg>
