<?xml version="1.0" encoding="utf-8"?>
<!-- Generator: Adobe Illustrator 20.1.0, SVG Export Plug-In . SVG Version: 6.00 Build 0)  -->
<!DOCTYPE svg PUBLIC "-//W3C//DTD SVG 1.1//EN" "http://www.w3.org/Graphics/SVG/1.1/DTD/svg11.dtd">
<svg version="1.1" xmlns="http://www.w3.org/2000/svg" xmlns:xlink="http://www.w3.org/1999/xlink" x="0px" y="0px"
	 viewBox="0 0 64 64" style="enable-background:new 0 0 64 64;" xml:space="preserve">
<g id="truck">
</g>
<g id="car">
</g>
<g id="taxi">
</g>
<g id="rocket">
</g>
<g id="tardis">
</g>
<g id="bus">
</g>
<g id="tram">
</g>
<g id="speedo">
</g>
<g id="air-machine">
</g>
<g id="speedo-alt">
</g>
<g id="motorcycle">
</g>
<g id="car-battery">
	<g>
		<path d="M62.5,16H44V9.5C44,8.7,43.3,8,42.5,8h-21C20.7,8,20,8.7,20,9.5V16H1.5C0.7,16,0,16.7,0,17.5v8C0,26.3,0.7,27,1.5,27H4
			v27.5C4,55.3,4.7,56,5.5,56h53c0.8,0,1.5-0.7,1.5-1.5V27h2.5c0.8,0,1.5-0.7,1.5-1.5v-8C64,16.7,63.3,16,62.5,16z M23,11h18v5H23
			V11z M57,53H7V27h50V53z M61,24H3v-5h58V24z"/>
		<path d="M24,41h6.5v6.5c0,0.8,0.7,1.5,1.5,1.5s1.5-0.7,1.5-1.5V41H40c0.8,0,1.5-0.7,1.5-1.5S40.8,38,40,38h-6.5v-6.5
			c0-0.8-0.7-1.5-1.5-1.5s-1.5,0.7-1.5,1.5V38H24c-0.8,0-1.5,0.7-1.5,1.5S23.2,41,24,41z"/>
	</g>
</g>
<g id="ufo">
</g>
<g id="arrivals">
</g>
<g id="petrol-pump">
</g>
<g id="gear-shift">
</g>
<g id="car-battery-alt">
</g>
<g id="road">
</g>
<g id="siren">
</g>
<g id="plane">
</g>
<g id="lorry">
</g>
<g id="train">
</g>
<g id="forklift">
</g>
<g id="bicycle">
</g>
<g id="underground">
</g>
<g id="paper-plane">
</g>
<g id="hotair-balloon">
</g>
</svg>
