<?xml version="1.0" encoding="utf-8"?>
<!-- Generator: Adobe Illustrator 20.1.0, SVG Export Plug-In . SVG Version: 6.00 Build 0)  -->
<!DOCTYPE svg PUBLIC "-//W3C//DTD SVG 1.1//EN" "http://www.w3.org/Graphics/SVG/1.1/DTD/svg11.dtd">
<svg version="1.1" xmlns="http://www.w3.org/2000/svg" xmlns:xlink="http://www.w3.org/1999/xlink" x="0px" y="0px"
	 viewBox="0 0 64 64" style="enable-background:new 0 0 64 64;" xml:space="preserve">
<g id="calendar">
</g>
<g id="calendar-check">
</g>
<g id="day">
</g>
<g id="week">
</g>
<g id="time-forward">
</g>
<g id="time-reverse">
</g>
<g id="time">
</g>
<g id="clock">
</g>
<g id="clocks">
	<g>
		<path d="M62.4,4.9c-0.8,0-1.5,0.7-1.5,1.5V61H6.4c-0.8,0-1.5,0.7-1.5,1.5S5.6,64,6.4,64h56c0.8,0,1.5-0.7,1.5-1.5V6.4
			C63.9,5.6,63.2,4.9,62.4,4.9z"/>
		<path d="M57.1,55.8V1.5c0-0.8-0.7-1.5-1.5-1.5h-54C0.8,0,0.1,0.7,0.1,1.5v54.3c0,0.8,0.7,1.5,1.5,1.5h54
			C56.4,57.3,57.1,56.6,57.1,55.8z M54.1,54.3h-51V3h51V54.3z"/>
		<path d="M28.7,51C41,51,51,41,51,28.6S41,6.3,28.7,6.3S6.4,16.3,6.4,28.6S16.4,51,28.7,51z M28.7,9.3C39.3,9.3,48,18,48,28.6
			C48,39.3,39.3,48,28.7,48C18,48,9.4,39.3,9.4,28.6C9.4,18,18,9.3,28.7,9.3z"/>
		<path d="M27.1,28.6L27.1,28.6c0,0.2,0,0.4,0.1,0.5c0,0,0,0,0,0c0.1,0.2,0.2,0.3,0.3,0.5c0,0,0,0,0,0l8.2,8.3
			c0.3,0.3,0.7,0.4,1.1,0.4c0.4,0,0.8-0.1,1.1-0.4c0.6-0.6,0.6-1.5,0-2.1L30.1,28V13.6c0-0.8-0.7-1.5-1.5-1.5s-1.5,0.7-1.5,1.5V28.6
			C27.1,28.6,27.1,28.6,27.1,28.6z"/>
	</g>
</g>
<g id="alarm-clock">
</g>
<g id="alarm-clock-add">
</g>
<g id="alarm-clock-off">
</g>
<g id="alarm-clock-set">
</g>
</svg>
