<?xml version="1.0" encoding="utf-8"?>
<!-- Generator: Adobe Illustrator 20.1.0, SVG Export Plug-In . SVG Version: 6.00 Build 0)  -->
<!DOCTYPE svg PUBLIC "-//W3C//DTD SVG 1.1//EN" "http://www.w3.org/Graphics/SVG/1.1/DTD/svg11.dtd">
<svg version="1.1" xmlns="http://www.w3.org/2000/svg" xmlns:xlink="http://www.w3.org/1999/xlink" x="0px" y="0px"
	 viewBox="0 0 64 64" style="enable-background:new 0 0 64 64;" xml:space="preserve">
<style type="text/css">
	.st0{fill:none;stroke:#000000;stroke-width:3;stroke-linecap:round;stroke-linejoin:round;}
</style>
<g id="cupcake">
</g>
<g id="turkey">
</g>
<g id="hot-service">
</g>
<g id="mug">
</g>
<g id="mug-hot">
</g>
<g id="bottle">
</g>
<g id="cherries">
</g>
<g id="cocktail">
</g>
<g id="cocktail-alt">
</g>
<g id="wine-glass">
</g>
<g id="wine-glass-alt">
</g>
<g id="aubergine">
</g>
<g id="lettuce-leaf">
</g>
<g id="cup">
	<g>
		<path d="M56.1,9.7l-2-6.1c-0.7-2.2-2.7-3.6-5-3.6H14.8c-2.3,0-4.3,1.5-5,3.6l-2,6.1C5.6,10.4,4,12.4,4,14.8v5.7
			c0,3,2.3,5.4,5.1,5.4h0.5l3.7,33.3C13.7,62,16,64,18.7,64h26.7c2.7,0,5-2,5.3-4.7L54.3,26h0.6c2.9,0,5.1-2.4,5.1-5.4v-5.7
			C60,12.4,58.4,10.3,56.1,9.7z M12.6,4.6C13,3.6,13.9,3,14.8,3h34.3c1,0,1.8,0.6,2.1,1.6l1.8,5.4H10.9L12.6,4.6z M47.6,58.9
			c-0.1,1.2-1.1,2.1-2.3,2.1H18.7c-1.2,0-2.2-0.9-2.3-2l-3.7-33h38.6L47.6,58.9z M57,20.6c0,1.2-0.8,2.4-2.1,2.4H53h-0.1H11.1H11
			H9.1C7.8,23,7,21.8,7,20.6v-5.7c0-0.9,0.5-1.7,1.2-2.1C8.5,12.9,8.7,13,9,13h46c0.3,0,0.5-0.1,0.8-0.2c0.8,0.4,1.2,1.1,1.2,2.1
			V20.6z"/>
		<path d="M45.3,32H18.7c-0.4,0-0.8,0.2-1.1,0.5c-0.3,0.3-0.4,0.7-0.4,1.2l1.7,16c0.1,0.8,0.7,1.3,1.5,1.3h23.1
			c0.8,0,1.4-0.6,1.5-1.3l1.7-16c0-0.4-0.1-0.8-0.4-1.2C46.1,32.2,45.7,32,45.3,32z M42.2,48H21.8l-1.4-13h23.2L42.2,48z"/>
	</g>
</g>
<g id="noodles">
</g>
<g id="icelolly">
</g>
<g id="cutlery">
</g>
<g id="hotdog">
</g>
</svg>
