<?xml version="1.0" encoding="utf-8"?>
<!-- Generator: Adobe Illustrator 20.1.0, SVG Export Plug-In . SVG Version: 6.00 Build 0)  -->
<!DOCTYPE svg PUBLIC "-//W3C//DTD SVG 1.1//EN" "http://www.w3.org/Graphics/SVG/1.1/DTD/svg11.dtd">
<svg version="1.1" xmlns="http://www.w3.org/2000/svg" xmlns:xlink="http://www.w3.org/1999/xlink" x="0px" y="0px"
	 viewBox="0 0 64 64" style="enable-background:new 0 0 64 64;" xml:space="preserve">
<g id="dial">
</g>
<g id="dial-alt">
</g>
<g id="connections">
</g>
<g id="atom">
</g>
<g id="atom-alt">
</g>
<g id="cosmic">
</g>
<g id="cosmic-alt">
	<path d="M58.8,32.3c4.8-8.9,6.3-17.6,3.7-23.7c0.6-0.9,0.9-2,0.9-3.1c0-1.5-0.6-2.9-1.6-3.9c-2.2-2.2-5.7-2.2-7.8,0
		c-1,1-1.6,2.4-1.6,3.9c0,1.5,0.6,2.9,1.6,3.9c1.1,1.1,2.5,1.6,3.9,1.6c0.7,0,1.5-0.2,2.2-0.4c1.7,4.8,0.5,11.5-3,18.6
		c-2.6-4.2-5.9-8.3-9.7-12.2c-3.9-3.9-8-7.2-12.1-9.7c4.6-2.3,9.1-3.6,13.1-3.7c0.8,0,1.5-0.7,1.5-1.5c0-0.8-0.7-1.5-1.5-1.5
		c-4.9,0.2-10.5,1.9-16.1,4.9C21-0.4,10.3-1.1,4.4,4.8c-5.7,5.7-5.1,16.4,0.8,27.5c-1.5,2.8-2.7,5.6-3.5,8.4
		C-0.8,49,0.1,55.8,4.3,60c2.7,2.7,6.5,4,10.9,4c5,0,10.9-1.7,16.8-4.9c5.9,3.1,11.7,4.8,16.6,4.8c4.5,0,8.3-1.3,11-4
		c4.2-4.2,5.2-11.1,2.7-19.3C61.4,37.8,60.2,35,58.8,32.3z M56,7.3c-0.5-0.5-0.7-1.1-0.7-1.8s0.3-1.3,0.7-1.8c1-1,2.6-1,3.6,0
		c0.5,0.5,0.7,1.1,0.7,1.8s-0.3,1.3-0.7,1.8C58.6,8.3,57,8.3,56,7.3z M6.6,6.9C11.1,2.3,19.7,2.8,29,7.3c-4.2,2.6-8.4,5.9-12.2,9.7
		c-3.8,3.8-7.1,8-9.8,12.2C2.5,20,2,11.4,6.6,6.9z M6.4,57.9c-3.4-3.4-4-9.2-1.8-16.3c0.6-2,1.4-4.1,2.4-6.1
		c1.6,2.6,3.5,5.2,5.6,7.7C12.1,44,11.8,45,11.8,46c0,1.5,0.6,2.9,1.6,3.9c1.1,1.1,2.5,1.6,3.9,1.6s2.8-0.5,3.9-1.6
		c1-1,1.6-2.4,1.6-3.9c0-1.5-0.6-2.9-1.6-3.9c-1.8-1.8-4.4-2.1-6.5-0.9c-2.4-2.9-4.5-5.8-6.2-8.7c2.6-4.5,6.1-9,10.2-13.2
		C23,15,27.5,11.6,32,9c4.4,2.6,8.9,6,13.1,10.2c4.1,4.1,7.6,8.6,10.2,13.1c-2.6,4.5-6,9-10.2,13.2c-4.2,4.2-8.7,7.7-13.2,10.2
		c-1.5-0.9-3.1-1.9-4.6-2.9c-0.7-0.5-1.6-0.3-2.1,0.4c-0.5,0.7-0.3,1.6,0.4,2.1c1.1,0.8,2.2,1.5,3.3,2.1C19.6,61.9,11,62.5,6.4,57.9
		z M19.2,44.2c0.5,0.5,0.7,1.1,0.7,1.8s-0.3,1.3-0.7,1.8c-1,1-2.6,1-3.6,0c-0.5-0.5-0.7-1.1-0.7-1.8s0.3-1.3,0.7-1.8
		C16.6,43.2,18.2,43.2,19.2,44.2z M57.4,57.7c-4.4,4.4-13,4.1-22.3-0.4c4.1-2.6,8.2-5.8,12.2-9.8c3.9-3.9,7.1-8,9.7-12.2
		c1,2,1.8,4,2.4,6C61.5,48.5,60.8,54.3,57.4,57.7z"/>
</g>
<g id="workflows">
</g>
<g id="positive">
</g>
<g id="neuron">
</g>
<g id="sitemap">
</g>
<g id="conditional">
</g>
<g id="sitemap-alt">
</g>
<g id="neuron-alt">
</g>
<g id="flask">
</g>
<g id="clone">
</g>
<g id="infinity">
</g>
<g id="f42">
</g>
</svg>
