<?xml version="1.0" encoding="utf-8"?>
<!-- Generator: Adobe Illustrator 20.1.0, SVG Export Plug-In . SVG Version: 6.00 Build 0)  -->
<!DOCTYPE svg PUBLIC "-//W3C//DTD SVG 1.1//EN" "http://www.w3.org/Graphics/SVG/1.1/DTD/svg11.dtd">
<svg version="1.1" xmlns="http://www.w3.org/2000/svg" xmlns:xlink="http://www.w3.org/1999/xlink" x="0px" y="0px"
	 viewBox="0 0 64 64" style="enable-background:new 0 0 64 64;" xml:space="preserve">
<g id="dial">
</g>
<g id="dial-alt">
</g>
<g id="connections">
	<path d="M46.3,42c-2.7,0-5.1,1-7,2.5l-8.2-7.5c1.6-2.2,2.6-5,2.6-8c0-3.2-1.1-6.1-3-8.5l5.7-5.7c1.3,0.9,2.9,1.4,4.6,1.4
		c4.5,0,8.2-3.7,8.2-8.2S45.7,0,41.2,0S33,3.7,33,8.2c0,1.7,0.5,3.3,1.4,4.6l-5.7,5.7c-2.3-1.9-5.3-3-8.4-3
		c-7.5,0-13.5,6.1-13.5,13.5c0,7.5,6.1,13.5,13.5,13.5c3.4,0,6.5-1.3,8.9-3.4l8.2,7.5c-1.2,1.8-2,3.9-2,6.2c0,6.1,4.9,11,11,11
		c6.1,0,11-4.9,11-11S52.4,42,46.3,42z M41.2,3c2.9,0,5.2,2.3,5.2,5.2s-2.3,5.2-5.2,5.2S36,11,36,8.2S38.3,3,41.2,3z M9.7,29.1
		c0-5.8,4.7-10.5,10.5-10.5s10.5,4.7,10.5,10.5c0,5.8-4.7,10.5-10.5,10.5S9.7,34.9,9.7,29.1z M46.3,61c-4.4,0-8-3.6-8-8s3.6-8,8-8
		c4.4,0,8,3.6,8,8S50.7,61,46.3,61z"/>
</g>
<g id="atom">
</g>
<g id="atom-alt">
</g>
<g id="cosmic">
</g>
<g id="cosmic-alt">
</g>
<g id="workflows">
</g>
<g id="positive">
</g>
<g id="neuron">
</g>
<g id="sitemap">
</g>
<g id="conditional">
</g>
<g id="sitemap-alt">
</g>
<g id="neuron-alt">
</g>
<g id="flask">
</g>
<g id="clone">
</g>
<g id="infinity">
</g>
<g id="f42">
</g>
</svg>
