<?xml version="1.0" encoding="utf-8"?>
<!-- Generator: Adobe Illustrator 20.1.0, SVG Export Plug-In . SVG Version: 6.00 Build 0)  -->
<!DOCTYPE svg PUBLIC "-//W3C//DTD SVG 1.1//EN" "http://www.w3.org/Graphics/SVG/1.1/DTD/svg11.dtd">
<svg version="1.1" xmlns="http://www.w3.org/2000/svg" xmlns:xlink="http://www.w3.org/1999/xlink" x="0px" y="0px"
	 viewBox="0 0 64 64" style="enable-background:new 0 0 64 64;" xml:space="preserve">
<g id="desktop">
</g>
<g id="tablet">
</g>
<g id="tablet-landscape">
</g>
<g id="desktop-alt">
</g>
<g id="smartphone">
</g>
<g id="smartphone-landscape">
</g>
<g id="laptop">
</g>
<g id="laptops">
</g>
<g id="desktops">
</g>
<g id="printer">
</g>
<g id="smartphones">
</g>
<g id="smartphone-mail">
</g>
<g id="smartphone-search">
</g>
<g id="desktop-chart">
</g>
<g id="pc">
</g>
<g id="remote-control-alt">
</g>
<g id="remote-control">
</g>
<g id="smartphone-signal">
</g>
<g id="battery-charge">
</g>
<g id="battery-charge-half">
</g>
<g id="battery-charge-full">
</g>
<g id="battery-charging">
</g>
<g id="filter">
</g>
<g id="network-web">
</g>
<g id="chip">
</g>
<g id="preferences-box">
</g>
<g id="preferences-vertical-box">
</g>
<g id="preferences-vertical-box-alt">
</g>
<g id="preferences-box-alt">
</g>
<g id="preferences">
</g>
<g id="preferences-vertical">
</g>
<g id="preferences-vertical-alt">
</g>
<g id="preferences-alt">
</g>
<g id="bluetooth">
</g>
<g id="signal-strength">
</g>
<g id="signal-no">
</g>
<g id="signal-tower-no">
</g>
<g id="signal-tower">
</g>
<g id="signal-no-alt">
</g>
<g id="nut">
</g>
<g id="cogs">
	<g>
		<path d="M42.7,32.4c-5.1,0-9.2,4.1-9.2,9.2c0,5.1,4.1,9.2,9.2,9.2s9.2-4.1,9.2-9.2C51.9,36.5,47.8,32.4,42.7,32.4z M42.7,47.9
			c-3.4,0-6.2-2.8-6.2-6.2s2.8-6.2,6.2-6.2s6.2,2.8,6.2,6.2S46.1,47.9,42.7,47.9z"/>
		<path d="M63.9,46.5c-0.1-0.4-0.5-0.7-0.9-0.9c-2-0.8-3.3-2.3-3.3-3.9c0-1.7,1.2-3.2,3.3-3.9c0.4-0.2,0.7-0.5,0.9-0.9
			s0.1-0.9-0.1-1.3l-5.3-9.1c-0.2-0.4-0.6-0.6-1-0.7c-0.4-0.1-0.9,0-1.2,0.3c-1.7,1.4-3.7,1.7-5.1,0.9c-1.4-0.8-2.1-3.1-1.7-4.6
			c0.1-0.4,0-0.9-0.3-1.3c-0.3-0.4-0.7-0.6-1.2-0.6H37.4c-0.5,0-0.9,0.2-1.2,0.6c-0.3,0.4-0.4,0.8-0.3,1.3c0.3,1.5-0.3,3.8-1.7,4.6
			c-1.4,0.8-3.4,0.4-5.1-1c-0.3-0.3-0.8-0.4-1.2-0.3c-0.4,0.1-0.8,0.3-1,0.7l-5.3,9.2c-0.2,0.4-0.3,0.8-0.1,1.3
			c0.1,0.4,0.5,0.7,0.9,0.9c2,0.8,3.2,2.3,3.3,3.9c0,1.6-1.3,3.2-3.3,4c-0.4,0.2-0.7,0.5-0.9,0.9c-0.1,0.4-0.1,0.9,0.1,1.2l5.3,9.2
			c0.2,0.4,0.6,0.7,1,0.7c0.4,0.1,0.9,0,1.2-0.3c1.6-1.4,3.6-1.7,5.1-0.9c1,0.6,2.2,1.7,1.7,4.9c-0.1,0.4,0.1,0.9,0.3,1.2
			c0.3,0.3,0.7,0.5,1.1,0.5h10.5c0.4,0,0.9-0.2,1.1-0.5c0.3-0.3,0.4-0.8,0.3-1.2c-0.5-3.2,0.8-4.3,1.7-4.9c1.5-0.9,3.5-0.5,5.1,0.8
			c0.3,0.3,0.8,0.4,1.2,0.3c0.4-0.1,0.8-0.3,1-0.7l5.3-9.2C64,47.3,64.1,46.9,63.9,46.5z M56.7,54c-2.3-1.3-4.9-1.3-7-0.1
			c-1.6,0.9-3.4,2.7-3.3,6.2h-7.3c0-3.5-1.7-5.3-3.3-6.2c-2.1-1.2-4.7-1.2-7.1,0.1L25,47.6c2.3-1.4,3.6-3.6,3.6-6
			c0-2.4-1.4-4.6-3.6-5.9l3.7-6.4c2.4,1.3,5,1.5,7.1,0.3c2.1-1.2,3.2-3.8,3.3-6.1h7.3c0.1,2.3,1.2,4.8,3.3,6c2.1,1.2,4.7,1.1,7-0.2
			l3.7,6.3c-2.3,1.4-3.7,3.6-3.6,6c0,2.4,1.4,4.6,3.6,5.9L56.7,54z"/>
		<path d="M16.8,10.5c-1.2-0.7-2.6-0.9-3.9-0.6c-2.8,0.7-4.4,3.5-3.7,6.3c0.3,1.3,1.2,2.5,2.4,3.2c0.8,0.5,1.7,0.7,2.6,0.7
			c0.4,0,0.9-0.1,1.3-0.2c2.8-0.7,4.4-3.5,3.7-6.3C18.8,12.4,17.9,11.3,16.8,10.5z M14.6,17.1c-0.6,0.1-1.1,0.1-1.6-0.2
			c-0.5-0.3-0.9-0.8-1-1.3c-0.3-1.2,0.4-2.3,1.6-2.6c0.2,0,0.4-0.1,0.5-0.1c0.4,0,0.8,0.1,1.1,0.3c0.5,0.3,0.9,0.8,1,1.3
			C16.5,15.6,15.8,16.8,14.6,17.1z"/>
		<path d="M21.6,25.4c-0.4-1-0.4-1.9,0.2-2.5c0.6-0.5,1.5-0.6,2.5-0.1c0.4,0.2,0.9,0.2,1.3,0c0.4-0.2,0.7-0.5,0.8-1l1.8-6.3
			c0.1-0.4,0-0.9-0.2-1.2s-0.6-0.6-1.1-0.7c-1.1-0.1-1.9-0.7-2-1.4c-0.2-0.7,0.2-1.6,1.1-2.2c0.4-0.3,0.6-0.6,0.6-1.1
			c0-0.4-0.1-0.9-0.4-1.2l-4.5-4.7c-0.3-0.3-0.7-0.5-1.2-0.5c-0.4,0-0.8,0.3-1.1,0.6c-0.6,0.9-1.5,1.3-2.3,1.1
			c-0.7-0.2-1.3-1-1.3-2.1c0-0.4-0.3-0.8-0.6-1.1c-0.4-0.3-0.8-0.3-1.2-0.2L7.6,2.5c-0.4,0.1-0.8,0.4-1,0.8c-0.2,0.4-0.2,0.9,0,1.3
			C7,5.6,7,6.5,6.4,7.1C5.9,7.6,4.9,7.7,3.9,7.2C3.5,7,3,7,2.6,7.2c-0.4,0.2-0.7,0.5-0.8,1l-1.8,6.3c-0.1,0.4,0,0.9,0.2,1.2
			c0.2,0.4,0.6,0.6,1.1,0.7c1.1,0.1,1.8,0.7,2,1.4c0.2,0.7-0.3,1.6-1.1,2.2c-0.4,0.3-0.6,0.6-0.6,1.1c0,0.4,0.1,0.9,0.4,1.2l4.6,4.7
			c0.3,0.3,0.7,0.5,1.2,0.5c0.4,0,0.9-0.3,1.1-0.6c0.6-0.9,1.5-1.3,2.3-1.1c0.7,0.2,1.3,1,1.3,2.1c0,0.4,0.3,0.9,0.6,1.1
			c0.3,0.2,0.6,0.3,0.9,0.3c0.1,0,0.2,0,0.4,0l6.3-1.6c0.4-0.1,0.8-0.4,1-0.8C21.8,26.3,21.8,25.8,21.6,25.4z M19.7,20.8
			c-1.1,1-1.5,2.6-1.3,4.1l-3.3,0.8c-0.6-1.5-1.7-2.6-3.1-3c-0.4-0.1-0.8-0.2-1.2-0.2c-1.1,0-2.2,0.4-3.1,1.1l-2.4-2.5
			c1-1.3,1.4-2.8,1-4.3c-0.4-1.5-1.5-2.6-2.9-3.2l0.9-3.3c1.6,0.3,3.1-0.2,4.2-1.2C9.6,8.1,10.1,6.6,9.8,5l3.3-0.8
			c0.6,1.5,1.7,2.6,3.1,3c1.5,0.4,3,0,4.3-0.9L23,8.8c-1,1.2-1.4,2.8-1,4.3c0.4,1.4,1.5,2.6,2.9,3.2l-0.9,3.4
			C22.3,19.3,20.8,19.7,19.7,20.8z"/>
	</g>
</g>
<g id="cog">
</g>
<g id="cog-dash-left">
</g>
<g id="cog-dash-right">
</g>
<g id="cog-fall">
</g>
<g id="io">
</g>
<g id="browser">
</g>
<g id="browser-add">
</g>
<g id="rss">
</g>
<g id="no-access">
</g>
<g id="notification">
</g>
<g id="devices">
</g>
<g id="notification-alert">
</g>
</svg>
