<?xml version="1.0" encoding="utf-8"?>
<!-- Generator: Adobe Illustrator 20.1.0, SVG Export Plug-In . SVG Version: 6.00 Build 0)  -->
<!DOCTYPE svg PUBLIC "-//W3C//DTD SVG 1.1//EN" "http://www.w3.org/Graphics/SVG/1.1/DTD/svg11.dtd">
<svg version="1.1" xmlns="http://www.w3.org/2000/svg" xmlns:xlink="http://www.w3.org/1999/xlink" x="0px" y="0px"
	 viewBox="0 0 64 64" style="enable-background:new 0 0 64 64;" xml:space="preserve">
<g id="bulb">
</g>
<g id="bulb-on">
</g>
<g id="bulb-alt">
</g>
<g id="bulb-on-alt">
</g>
<g id="energy-bulb">
</g>
<g id="toasting">
</g>
<g id="toasted">
</g>
<g id="binoculars">
</g>
<g id="gift">
</g>
<g id="shaver">
</g>
<g id="candle">
</g>
<g id="shower">
</g>
<g id="bomb">
</g>
<g id="joystick">
</g>
<g id="megaphone">
</g>
<g id="chestdraw">
</g>
<g id="armchair">
</g>
<g id="cardboard-box">
</g>
<g id="bath-shower">
</g>
<g id="diamond">
</g>
<g id="cassette">
</g>
<g id="iron">
</g>
<g id="wash">
</g>
<g id="keyboard-keys">
</g>
<g id="earphones">
</g>
<g id="lifebuoy">
</g>
<g id="calculator">
</g>
<g id="safe">
</g>
<g id="balloon">
</g>
<g id="cake">
</g>
<g id="baseball">
</g>
<g id="football-american">
</g>
<g id="football">
</g>
<g id="anchor">
</g>
<g id="compact-disc">
	<g>
		<path d="M43.9,2.3C36-0.9,27.3-0.8,19.5,2.6C11.6,6,5.5,12.2,2.4,20.1c-6.5,16.4,1.4,35,17.8,41.6h0C24,63.2,28,64,32,64
			c4.3,0,8.5-0.9,12.6-2.6c7.8-3.4,13.9-9.6,17.1-17.5C68.2,27.5,60.2,8.9,43.9,2.3z M58.9,42.8C56,50,50.5,55.6,43.4,58.6
			c-7.1,3.1-15,3.2-22.1,0.3h0C6.4,53-0.8,36.1,5.1,21.2C8,14,13.5,8.4,20.6,5.3c7.1-3,15-3.1,22.1-0.3C57.6,11,64.8,27.9,58.9,42.8
			z"/>
		<path d="M33.7,27.7c-2.3-0.9-5,0.2-6,2.6c-0.9,2.4,0.2,5.1,2.6,6c0.6,0.2,1.1,0.3,1.7,0.3c0.6,0,1.2-0.1,1.8-0.4
			c1.1-0.5,2-1.4,2.5-2.5C37.2,31.3,36.1,28.6,33.7,27.7z M33.5,32.6c-0.2,0.4-0.5,0.7-0.9,0.9c-0.4,0.2-0.8,0.2-1.2,0c0,0,0,0,0,0
			c-0.8-0.3-1.2-1.3-0.9-2.1c0.3-0.6,0.9-1,1.5-1c0.2,0,0.4,0,0.6,0.1C33.4,30.8,33.8,31.8,33.5,32.6z"/>
		<path d="M41.5,35.8c2.1-5.2-0.5-11.2-5.7-13.3c-2.5-1-5.3-1-7.8,0.1c-2.5,1.1-4.5,3.1-5.5,5.6c-2.1,5.2,0.5,11.2,5.7,13.3
			c0,0,0,0,0,0c1.2,0.5,2.5,0.7,3.8,0.7C36,42.2,39.9,39.8,41.5,35.8z M38.7,34.7c-1.5,3.7-5.7,5.5-9.4,4c-3.7-1.5-5.5-5.7-4-9.4
			c0.7-1.8,2.1-3.2,3.9-4c1.8-0.8,3.7-0.8,5.5-0.1C38.4,26.8,40.2,31,38.7,34.7z"/>
		<path d="M40.1,52.8c-0.2,0.1-0.5,0.2-0.6,0.4c-0.6,0.6-0.6,1.5,0,2.1c0.3,0.3,0.7,0.4,1.1,0.4c0.3,0,0.6-0.1,0.8-0.2
			c6.7-2.9,11.8-8.3,14.5-15c0.3-0.8-0.1-1.6-0.8-1.9c-0.8-0.3-1.6,0.1-1.9,0.8C50.6,45.5,46,50.3,40.1,52.8z"/>
		<path d="M50.5,37.5c0.3-0.8-0.1-1.6-0.8-1.9c-0.8-0.3-1.6,0.1-1.9,0.8c-2,5-5.8,8.9-10.8,11.1c-0.1,0-0.2,0.1-0.3,0.2
			c-0.5,0.4-0.8,1.1-0.5,1.8c0.2,0.6,0.8,1,1.4,1c0.2,0,0.4,0,0.5-0.1c0.1,0,0.2-0.1,0.2-0.1C43.9,47.7,48.2,43.2,50.5,37.5z"/>
		<path d="M23.9,11.2c0.2-0.1,0.5-0.2,0.6-0.4c0.6-0.6,0.6-1.5,0-2.1c-0.5-0.5-1.3-0.6-1.9-0.2c-6.7,2.9-11.8,8.3-14.5,15
			c-0.3,0.8,0.1,1.6,0.8,1.9c0.2,0.1,0.4,0.1,0.6,0.1c0.6,0,1.2-0.4,1.4-0.9C13.4,18.5,18,13.7,23.9,11.2z"/>
		<path d="M27.4,16.3c0.5-0.4,0.8-1.1,0.5-1.8c-0.3-0.8-1.2-1.2-1.9-0.9c-0.1,0-0.2,0.1-0.2,0.1c-5.6,2.5-10,7-12.2,12.6
			c-0.3,0.8,0.1,1.6,0.8,1.9c0.2,0.1,0.4,0.1,0.6,0.1c0.6,0,1.2-0.4,1.4-0.9c2-5,5.8-8.9,10.8-11.1C27.2,16.5,27.3,16.4,27.4,16.3z"
			/>
	</g>
</g>
<g id="bbq">
</g>
<g id="coffee-machine">
</g>
<g id="teapot">
</g>
<g id="outdoor-stove">
</g>
<g id="pram">
</g>
<g id="paintbrush">
</g>
<g id="stamp">
</g>
<g id="eyedrop">
</g>
<g id="musical-note">
</g>
<g id="magnet">
</g>
<g id="alarm-bell">
</g>
<g id="globe">
</g>
<g id="key">
</g>
<g id="ink">
</g>
<g id="paperclip">
</g>
<g id="paint-roller">
</g>
<g id="keyboard">
</g>
</svg>
