<?xml version="1.0" encoding="utf-8"?>
<!-- Generator: Adobe Illustrator 20.1.0, SVG Export Plug-In . SVG Version: 6.00 Build 0)  -->
<!DOCTYPE svg PUBLIC "-//W3C//DTD SVG 1.1//EN" "http://www.w3.org/Graphics/SVG/1.1/DTD/svg11.dtd">
<svg version="1.1" xmlns="http://www.w3.org/2000/svg" xmlns:xlink="http://www.w3.org/1999/xlink" x="0px" y="0px"
	 viewBox="0 0 64 64" style="enable-background:new 0 0 64 64;" xml:space="preserve">
<g id="suitcase">
</g>
<g id="backpack">
</g>
<g id="chef-hat">
</g>
<g id="work-jacket">
</g>
<g id="tshirt">
</g>
<g id="handbag">
</g>
<g id="coat-hanger">
</g>
<g id="measuring-tape">
</g>
<g id="pants">
</g>
<g id="t-shirt-ale">
</g>
<g id="watch">
</g>
<g id="glasses">
</g>
<g id="graduation-hat">
</g>
<g id="scuba-gear">
</g>
<g id="shoe">
</g>
<g id="crown">
	<path d="M58.4,51.6c3.7-3.3,5.6-7.4,5.6-12.1c0-10.3-7-17.8-16.8-17.8c-2.9,0-5.3,0.9-7.3,1.8c-2-0.9-4.2-1.5-6.5-1.7V17
		c3.7-0.7,6.5-4,6.5-7.9c0-4.4-3.6-8-8-8s-8,3.6-8,8c0,3.9,2.8,7.2,6.5,7.9v4.8C28.2,22,26,22.6,24,23.5c-1.9-0.9-4.3-1.8-7.2-1.8
		C7,21.7,0,29.2,0,39.5c0,4.6,1.9,8.7,5.6,12.1c-2.1,1-3.2,3.2-3.2,5.4c0,3,2.1,6,6,6h47.1c3.9,0,6-3,6-6
		C61.5,54.8,60.5,52.7,58.4,51.6z M27,9.1c0-2.8,2.3-5,5-5s5,2.3,5,5c0,2.8-2.3,5-5,5S27,11.8,27,9.1z M3,39.5
		c0-8.5,5.8-14.7,13.8-14.7c1.4,0,2.7,0.2,4.1,0.7c-4.2,3.2-6.8,8.2-6.8,13.9c0,2,0.3,4,1,6c0.3,0.8,1.1,1.2,1.9,0.9
		c0.8-0.3,1.2-1.1,0.9-1.9c-0.6-1.6-0.8-3.3-0.8-5c0-5.6,3-10.3,7.6-12.8c0.1,0,0.1-0.1,0.2-0.1c2.1-1.1,4.6-1.7,7.2-1.7
		c8.4,0,15,6.4,15,14.6c0,1.7-0.3,3.4-0.9,5.1c-0.3,0.8,0.1,1.6,0.9,1.9c0.2,0.1,0.3,0.1,0.5,0.1c0.6,0,1.2-0.4,1.4-1
		c0.7-1.9,1.1-4,1.1-6.1c0-5.7-2.7-10.7-6.8-13.9c1.4-0.5,2.7-0.8,4.1-0.8c8,0,13.8,6.2,13.8,14.8c0,4.6-2.2,8.5-6.6,11.5H9.6
		C5.2,47.8,3,43.9,3,39.5z M55.5,60H8.5c-2.2,0-3-1.6-3-3s0.8-3,3-3h0.7h45.8h0.7c2.2,0,3,1.6,3,3S57.7,60,55.5,60z"/>
</g>
<g id="wand">
</g>
<g id="crown-alt">
</g>
</svg>
