<?xml version="1.0" encoding="utf-8"?>
<!-- Generator: Adobe Illustrator 20.1.0, SVG Export Plug-In . SVG Version: 6.00 Build 0)  -->
<!DOCTYPE svg PUBLIC "-//W3C//DTD SVG 1.1//EN" "http://www.w3.org/Graphics/SVG/1.1/DTD/svg11.dtd">
<svg version="1.1" xmlns="http://www.w3.org/2000/svg" xmlns:xlink="http://www.w3.org/1999/xlink" x="0px" y="0px"
	 viewBox="0 0 64 64" style="enable-background:new 0 0 64 64;" xml:space="preserve">
<g id="check">
</g>
<g id="check-done">
</g>
<g id="close">
</g>
<g id="plus">
</g>
<g id="minus">
</g>
<g id="divide">
</g>
<g id="equal">
</g>
<g id="asterisk">
</g>
<g id="check-circle">
	<g>
		<path d="M32,0C14.4,0,0,14.4,0,32s14.4,32,32,32s32-14.4,32-32S49.6,0,32,0z M32,61C16,61,3,48,3,32S16,3,32,3s29,13,29,29
			S48,61,32,61z"/>
		<path d="M46.2,20.2L25.7,40.7l-7.9-7.9c-0.6-0.6-1.5-0.6-2.1,0c-0.6,0.6-0.6,1.5,0,2.1l8.9,8.9c0,0,0,0,0,0c0,0,0,0,0,0
			c0.1,0.1,0.2,0.1,0.3,0.2c0.1,0,0.1,0.1,0.2,0.1c0.2,0.1,0.4,0.1,0.6,0.1s0.4,0,0.6-0.1c0.1,0,0.1-0.1,0.2-0.1
			c0.1-0.1,0.2-0.1,0.3-0.2c0,0,0,0,0,0c0,0,0,0,0,0l21.5-21.6c0.6-0.6,0.6-1.5,0-2.1C47.7,19.6,46.8,19.6,46.2,20.2z"/>
	</g>
</g>
<g id="close-circle">
</g>
<g id="plus-circle">
</g>
<g id="minus-circle">
</g>
<g id="divide-circle">
</g>
<g id="equal-circle">
</g>
<g id="asterisk-circle">
</g>
<g id="check-box">
</g>
<g id="close-box">
</g>
<g id="plus-box">
</g>
<g id="minus-box">
</g>
<g id="divide-box">
</g>
<g id="equal-box">
</g>
<g id="asterisk-box">
</g>
</svg>
