<?xml version="1.0" encoding="utf-8"?>
<!-- Generator: Adobe Illustrator 20.1.0, SVG Export Plug-In . SVG Version: 6.00 Build 0)  -->
<!DOCTYPE svg PUBLIC "-//W3C//DTD SVG 1.1//EN" "http://www.w3.org/Graphics/SVG/1.1/DTD/svg11.dtd">
<svg version="1.1" xmlns="http://www.w3.org/2000/svg" xmlns:xlink="http://www.w3.org/1999/xlink" x="0px" y="0px"
	 viewBox="0 0 64 64" style="enable-background:new 0 0 64 64;" xml:space="preserve">
<g id="bulb">
</g>
<g id="bulb-on">
</g>
<g id="bulb-alt">
</g>
<g id="bulb-on-alt">
</g>
<g id="energy-bulb">
</g>
<g id="toasting">
</g>
<g id="toasted">
</g>
<g id="binoculars">
</g>
<g id="gift">
</g>
<g id="shaver">
</g>
<g id="candle">
</g>
<g id="shower">
</g>
<g id="bomb">
</g>
<g id="joystick">
</g>
<g id="megaphone">
</g>
<g id="chestdraw">
	<g>
		<path d="M60.5,7.5h-57C1.6,7.5,0,9.1,0,11v37.2c0,1.9,1.6,3.5,3.5,3.5h4.9V55c0,0.8,0.7,1.5,1.5,1.5s1.5-0.7,1.5-1.5v-3.2h40.1V55
			c0,0.8,0.7,1.5,1.5,1.5s1.5-0.7,1.5-1.5v-3.2h6c1.9,0,3.5-1.6,3.5-3.5V11C64,9.1,62.4,7.5,60.5,7.5z M3.5,10.5h57
			c0.3,0,0.5,0.2,0.5,0.5v16.6H3V11C3,10.8,3.2,10.5,3.5,10.5z M60.5,48.7h-57c-0.3,0-0.5-0.2-0.5-0.5V30.6h58v17.6
			C61,48.5,60.8,48.7,60.5,48.7z"/>
		<path d="M28.3,22.2h6.3c0.8,0,1.5-0.7,1.5-1.5s-0.7-1.5-1.5-1.5h-6.3c-0.8,0-1.5,0.7-1.5,1.5S27.5,22.2,28.3,22.2z"/>
		<path d="M34.6,39.2h-6.3c-0.8,0-1.5,0.7-1.5,1.5s0.7,1.5,1.5,1.5h6.3c0.8,0,1.5-0.7,1.5-1.5S35.5,39.2,34.6,39.2z"/>
	</g>
</g>
<g id="armchair">
</g>
<g id="cardboard-box">
</g>
<g id="bath-shower">
</g>
<g id="diamond">
</g>
<g id="cassette">
</g>
<g id="iron">
</g>
<g id="wash">
</g>
<g id="keyboard-keys">
</g>
<g id="earphones">
</g>
<g id="lifebuoy">
</g>
<g id="calculator">
</g>
<g id="safe">
</g>
<g id="balloon">
</g>
<g id="cake">
</g>
<g id="baseball">
</g>
<g id="football-american">
</g>
<g id="football">
</g>
<g id="anchor">
</g>
<g id="compact-disc">
</g>
<g id="bbq">
</g>
<g id="coffee-machine">
</g>
<g id="teapot">
</g>
<g id="outdoor-stove">
</g>
<g id="pram">
</g>
<g id="paintbrush">
</g>
<g id="stamp">
</g>
<g id="eyedrop">
</g>
<g id="musical-note">
</g>
<g id="magnet">
</g>
<g id="alarm-bell">
</g>
<g id="globe">
</g>
<g id="key">
</g>
<g id="ink">
</g>
<g id="paperclip">
</g>
<g id="paint-roller">
</g>
<g id="keyboard">
</g>
</svg>
