<?xml version="1.0" encoding="utf-8"?>
<!-- Generator: Adobe Illustrator 20.1.0, SVG Export Plug-In . SVG Version: 6.00 Build 0)  -->
<!DOCTYPE svg PUBLIC "-//W3C//DTD SVG 1.1//EN" "http://www.w3.org/Graphics/SVG/1.1/DTD/svg11.dtd">
<svg version="1.1" xmlns="http://www.w3.org/2000/svg" xmlns:xlink="http://www.w3.org/1999/xlink" x="0px" y="0px"
	 viewBox="0 0 64 64" style="enable-background:new 0 0 64 64;" xml:space="preserve">
<g id="desktop">
</g>
<g id="tablet">
</g>
<g id="tablet-landscape">
</g>
<g id="desktop-alt">
</g>
<g id="smartphone">
</g>
<g id="smartphone-landscape">
</g>
<g id="laptop">
</g>
<g id="laptops">
</g>
<g id="desktops">
</g>
<g id="printer">
</g>
<g id="smartphones">
</g>
<g id="smartphone-mail">
</g>
<g id="smartphone-search">
</g>
<g id="desktop-chart">
</g>
<g id="pc">
</g>
<g id="remote-control-alt">
</g>
<g id="remote-control">
</g>
<g id="smartphone-signal">
</g>
<g id="battery-charge">
</g>
<g id="battery-charge-half">
</g>
<g id="battery-charge-full">
</g>
<g id="battery-charging">
</g>
<g id="filter">
</g>
<g id="network-web">
</g>
<g id="chip">
</g>
<g id="preferences-box">
</g>
<g id="preferences-vertical-box">
</g>
<g id="preferences-vertical-box-alt">
</g>
<g id="preferences-box-alt">
</g>
<g id="preferences">
</g>
<g id="preferences-vertical">
</g>
<g id="preferences-vertical-alt">
</g>
<g id="preferences-alt">
</g>
<g id="bluetooth">
</g>
<g id="signal-strength">
</g>
<g id="signal-no">
</g>
<g id="signal-tower-no">
</g>
<g id="signal-tower">
</g>
<g id="signal-no-alt">
</g>
<g id="nut">
</g>
<g id="cogs">
</g>
<g id="cog">
	<g>
		<path d="M32,18.5c-7.4,0-13.4,6-13.4,13.5s6,13.5,13.4,13.5s13.4-6,13.4-13.5S39.4,18.5,32,18.5z M32,42.5
			c-5.7,0-10.4-4.7-10.4-10.5S26.3,21.5,32,21.5S42.4,26.2,42.4,32S37.7,42.5,32,42.5z"/>
		<path d="M63.9,39.8c-0.1-0.4-0.5-0.7-0.9-0.9c-3.4-1.3-5.6-3.9-5.6-6.8c0-2.9,2.1-5.6,5.6-6.9c0.4-0.2,0.7-0.5,0.9-0.9
			c0.1-0.4,0.1-0.9-0.1-1.3L55.7,8.9c-0.2-0.4-0.6-0.6-1-0.7c-0.4-0.1-0.9,0-1.2,0.3c-2.8,2.3-6.3,2.9-8.7,1.5
			c-2.6-1.5-3.6-5.3-3.1-8.1c0.1-0.4,0-0.9-0.3-1.2c-0.3-0.3-0.7-0.5-1.2-0.5H23.9c-0.5,0-0.9,0.2-1.2,0.6c-0.3,0.4-0.4,0.8-0.3,1.3
			c0.6,2.7-0.4,6.6-3,8.1c-2.5,1.4-5.9,0.8-8.8-1.6C10.3,8.1,9.8,8,9.4,8.1c-0.4,0.1-0.8,0.3-1,0.7L0.2,23c-0.2,0.4-0.3,0.8-0.1,1.3
			S0.6,25,1,25.1c3.4,1.3,5.5,3.9,5.6,6.8c0,2.9-2.1,5.5-5.6,6.9c-0.4,0.2-0.7,0.5-0.9,0.9C-0.1,40.1,0,40.6,0.2,41l8.2,14.2
			c0.2,0.4,0.6,0.7,1,0.7c0.4,0.1,0.9,0,1.2-0.3c2.8-2.4,6.2-3,8.7-1.5c2.6,1.5,3.6,5.4,3.1,8c-0.1,0.4,0,0.9,0.3,1.3
			c0.3,0.4,0.7,0.6,1.2,0.6h16.2c0.5,0,0.9-0.2,1.2-0.6c0.3-0.4,0.4-0.8,0.3-1.3c-0.6-2.7,0.5-6.5,3.1-8c2.4-1.4,5.9-0.8,8.7,1.6
			c0.3,0.3,0.8,0.4,1.2,0.3c0.4-0.1,0.8-0.3,1-0.7L63.8,41C64,40.6,64.1,40.2,63.9,39.8z M53.8,52.3c-3.5-2.3-7.6-2.7-10.7-0.9
			c-3.4,1.9-4.8,6-4.7,9.4H25.6c0.1-3.4-1.3-7.5-4.7-9.4c-3.2-1.9-7.2-1.5-10.8,0.8L3.6,40.9c3.7-2,5.9-5.3,5.9-9
			c0-3.7-2.3-7-5.9-8.9l6.5-11.3c3.5,2.3,7.6,2.7,10.8,0.9c3.4-2,4.8-6,4.7-9.5h12.9c-0.1,3.5,1.4,7.5,4.7,9.5
			c3.1,1.8,7.2,1.5,10.7-0.7l6.5,11.2c-3.7,1.9-5.9,5.3-5.9,9c0,3.7,2.2,7,5.9,8.9L53.8,52.3z"/>
	</g>
</g>
<g id="cog-dash-left">
</g>
<g id="cog-dash-right">
</g>
<g id="cog-fall">
</g>
<g id="io">
</g>
<g id="browser">
</g>
<g id="browser-add">
</g>
<g id="rss">
</g>
<g id="no-access">
</g>
<g id="notification">
</g>
<g id="devices">
</g>
<g id="notification-alert">
</g>
</svg>
