<?xml version="1.0" encoding="utf-8"?>
<!-- Generator: Adobe Illustrator 20.1.0, SVG Export Plug-In . SVG Version: 6.00 Build 0)  -->
<!DOCTYPE svg PUBLIC "-//W3C//DTD SVG 1.1//EN" "http://www.w3.org/Graphics/SVG/1.1/DTD/svg11.dtd">
<svg version="1.1" xmlns="http://www.w3.org/2000/svg" xmlns:xlink="http://www.w3.org/1999/xlink" x="0px" y="0px"
	 viewBox="0 0 64 64" style="enable-background:new 0 0 64 64;" xml:space="preserve">
<g id="suitcase">
</g>
<g id="backpack">
</g>
<g id="chef-hat">
</g>
<g id="work-jacket">
</g>
<g id="tshirt">
</g>
<g id="handbag">
</g>
<g id="coat-hanger">
</g>
<g id="measuring-tape">
</g>
<g id="pants">
</g>
<g id="t-shirt-ale">
</g>
<g id="watch">
</g>
<g id="glasses">
</g>
<g id="graduation-hat">
</g>
<g id="scuba-gear">
</g>
<g id="shoe">
</g>
<g id="crown">
</g>
<g id="wand">
</g>
<g id="crown-alt">
	<g>
		<path d="M64,18.5c0-0.8-0.6-1.4-1.3-1.5c-0.5-0.1-0.9,0.1-1.2,0.4l-19.3,9.2L33.4,5.8c-0.2-0.6-0.8-0.9-1.4-0.9s-1.1,0.4-1.4,0.9
			l-8.8,20.8L2.5,17.4C2.2,17.1,1.8,17,1.3,17C0.6,17.1,0,17.8,0,18.6c0,0.2,0,0.4,0.1,0.6l7.8,29H7.6c-3.1,0-5.6,2.5-5.6,5.5
			s2.5,5.5,5.6,5.5h48.8c3.1,0,5.6-2.5,5.6-5.5s-2.5-5.5-5.6-5.5h-0.3L63.9,19C64,18.8,64,18.7,64,18.5z M59,53.7
			c0,1.4-1.1,2.5-2.6,2.5H7.6c-1.4,0-2.6-1.1-2.6-2.5s1.1-2.5,2.6-2.5h48.8C57.8,51.2,59,52.3,59,53.7z M53,48.2H11L3.8,21.3L22,30
			c0.4,0.2,0.8,0.2,1.2,0c0.4-0.1,0.7-0.4,0.8-0.8l8-19l8,19c0.2,0.4,0.5,0.7,0.8,0.8c0.4,0.1,0.8,0.1,1.2,0l18.1-8.6L53,48.2z"/>
		<ellipse cx="15.7" cy="41.8" rx="1" ry="1"/>
		<ellipse cx="48.3" cy="41.8" rx="1" ry="1"/>
		<ellipse cx="40.1" cy="41.8" rx="1" ry="1"/>
		<ellipse cx="32" cy="41.8" rx="1" ry="1"/>
		<ellipse cx="23.9" cy="41.8" rx="1" ry="1"/>
	</g>
</g>
</svg>
