<?xml version="1.0" encoding="utf-8"?>
<!-- Generator: Adobe Illustrator 20.1.0, SVG Export Plug-In . SVG Version: 6.00 Build 0)  -->
<!DOCTYPE svg PUBLIC "-//W3C//DTD SVG 1.1//EN" "http://www.w3.org/Graphics/SVG/1.1/DTD/svg11.dtd">
<svg version="1.1" xmlns="http://www.w3.org/2000/svg" xmlns:xlink="http://www.w3.org/1999/xlink" x="0px" y="0px"
	 viewBox="0 0 64 64" style="enable-background:new 0 0 64 64;" xml:space="preserve">
<style type="text/css">
	.st0{fill:none;stroke:#000000;stroke-width:3;stroke-linecap:round;stroke-linejoin:round;}
</style>
<g id="cupcake">
</g>
<g id="turkey">
</g>
<g id="hot-service">
</g>
<g id="mug">
</g>
<g id="mug-hot">
</g>
<g id="bottle">
</g>
<g id="cherries">
</g>
<g id="cocktail">
</g>
<g id="cocktail-alt">
	<path d="M54.3,2.8c-5.4,0-9.7,4.3-9.7,9.7c0,0.2,0,0.4,0,0.5h-23l-9.3-9.5c-0.3-0.3-0.7-0.4-1.1-0.4H1.5C0.7,3.1,0,3.8,0,4.6
		s0.7,1.5,1.5,1.5h9.1l6.8,6.9h-4.1c-0.6,0-1.2,0.4-1.4,0.9c-0.2,0.6-0.1,1.2,0.3,1.6l20.1,20v22.6h-8.9c-0.8,0-1.5,0.7-1.5,1.5
		s0.7,1.5,1.5,1.5h20.8c0.8,0,1.5-0.7,1.5-1.5s-0.7-1.5-1.5-1.5h-8.9V35.6l14.6-14.5c1.4,0.7,2.9,1.1,4.5,1.1c5.4,0,9.7-4.3,9.7-9.7
		C64,7.2,59.6,2.8,54.3,2.8z M20.4,16l2.6,2.6c0.3,0.3,0.7,0.4,1.1,0.4c0.4,0,0.8-0.1,1.1-0.4c0.6-0.6,0.6-1.5,0-2.1L24.6,16h26.1
		L33.8,32.8L16.9,16H20.4z M54.3,19.2c-0.7,0-1.5-0.1-2.2-0.4l3.2-3.2c0.4-0.4,0.6-1.1,0.3-1.6c-0.2-0.6-0.8-0.9-1.4-0.9h-6.7
		c0-0.2,0-0.4,0-0.5c0-3.7,3-6.7,6.7-6.7c3.7,0,6.7,3,6.7,6.7S58,19.2,54.3,19.2z"/>
</g>
<g id="wine-glass">
</g>
<g id="wine-glass-alt">
</g>
<g id="aubergine">
</g>
<g id="lettuce-leaf">
</g>
<g id="cup">
</g>
<g id="noodles">
</g>
<g id="icelolly">
</g>
<g id="cutlery">
</g>
<g id="hotdog">
</g>
</svg>
