<?xml version="1.0" encoding="utf-8"?>
<!-- Generator: Adobe Illustrator 20.1.0, SVG Export Plug-In . SVG Version: 6.00 Build 0)  -->
<!DOCTYPE svg PUBLIC "-//W3C//DTD SVG 1.1//EN" "http://www.w3.org/Graphics/SVG/1.1/DTD/svg11.dtd">
<svg version="1.1" xmlns="http://www.w3.org/2000/svg" xmlns:xlink="http://www.w3.org/1999/xlink" x="0px" y="0px"
	 viewBox="0 0 64 64" style="enable-background:new 0 0 64 64;" xml:space="preserve">
<g id="bulb">
</g>
<g id="bulb-on">
</g>
<g id="bulb-alt">
</g>
<g id="bulb-on-alt">
</g>
<g id="energy-bulb">
</g>
<g id="toasting">
</g>
<g id="toasted">
</g>
<g id="binoculars">
</g>
<g id="gift">
</g>
<g id="shaver">
</g>
<g id="candle">
</g>
<g id="shower">
</g>
<g id="bomb">
</g>
<g id="joystick">
</g>
<g id="megaphone">
</g>
<g id="chestdraw">
</g>
<g id="armchair">
</g>
<g id="cardboard-box">
	<g>
		<path d="M63.6,19.7L53.8,3.6c-0.4-0.6-1.3-1.6-3.1-1.6H13.4c-1.4,0-2.4,0.5-3,1.6l-9.9,16c0,0,0,0,0,0C-0.1,20.3,0,20.9,0,21.3
			c0,0.1,0,0.1,0,0.2v37c0,2.1,1.3,3.4,3.3,3.4h57.4c2,0,3.3-1.3,3.3-3.4v-37c0-0.1,0-0.1,0-0.2C64,21,64.1,20.4,63.6,19.7z
			 M51.2,5.2l8.6,14H33.5V5.1h17.1C50.8,5.1,51.2,5.1,51.2,5.2z M12.9,5.2c0.1-0.1,0.1-0.2,0.5-0.2h17.1v14.2H4.1L12.9,5.2z
			 M60.9,58.9c0,0-0.1,0-0.2,0H3.3c-0.1,0-0.2,0-0.2,0c0-0.1,0-0.2,0-0.3V22.2h58v36.4C61,58.8,61,58.9,60.9,58.9z"/>
		<path d="M42.2,26.7H21.8c-0.8,0-1.5,0.7-1.5,1.5v7.5c0,0.8,0.7,1.5,1.5,1.5h20.3c0.8,0,1.5-0.7,1.5-1.5v-7.5
			C43.7,27.4,43,26.7,42.2,26.7z M40.7,34.3H23.3v-4.5h17.3V34.3z"/>
	</g>
</g>
<g id="bath-shower">
</g>
<g id="diamond">
</g>
<g id="cassette">
</g>
<g id="iron">
</g>
<g id="wash">
</g>
<g id="keyboard-keys">
</g>
<g id="earphones">
</g>
<g id="lifebuoy">
</g>
<g id="calculator">
</g>
<g id="safe">
</g>
<g id="balloon">
</g>
<g id="cake">
</g>
<g id="baseball">
</g>
<g id="football-american">
</g>
<g id="football">
</g>
<g id="anchor">
</g>
<g id="compact-disc">
</g>
<g id="bbq">
</g>
<g id="coffee-machine">
</g>
<g id="teapot">
</g>
<g id="outdoor-stove">
</g>
<g id="pram">
</g>
<g id="paintbrush">
</g>
<g id="stamp">
</g>
<g id="eyedrop">
</g>
<g id="musical-note">
</g>
<g id="magnet">
</g>
<g id="alarm-bell">
</g>
<g id="globe">
</g>
<g id="key">
</g>
<g id="ink">
</g>
<g id="paperclip">
</g>
<g id="paint-roller">
</g>
<g id="keyboard">
</g>
</svg>
