<?xml version="1.0" encoding="utf-8"?>
<!-- Generator: Adobe Illustrator 20.1.0, SVG Export Plug-In . SVG Version: 6.00 Build 0)  -->
<!DOCTYPE svg PUBLIC "-//W3C//DTD SVG 1.1//EN" "http://www.w3.org/Graphics/SVG/1.1/DTD/svg11.dtd">
<svg version="1.1" xmlns="http://www.w3.org/2000/svg" xmlns:xlink="http://www.w3.org/1999/xlink" x="0px" y="0px"
	 viewBox="0 0 64 64" style="enable-background:new 0 0 64 64;" xml:space="preserve">
<g id="check">
</g>
<g id="check-done">
</g>
<g id="close">
</g>
<g id="plus">
</g>
<g id="minus">
</g>
<g id="divide">
</g>
<g id="equal">
</g>
<g id="asterisk">
</g>
<g id="check-circle">
</g>
<g id="close-circle">
</g>
<g id="plus-circle">
</g>
<g id="minus-circle">
</g>
<g id="divide-circle">
</g>
<g id="equal-circle">
</g>
<g id="asterisk-circle">
</g>
<g id="check-box">
</g>
<g id="close-box">
	<g>
		<path d="M20.5,43.5c0.3,0.3,0.7,0.4,1.1,0.4c0.4,0,0.8-0.1,1.1-0.4l9.4-9.4l9.4,9.4c0.3,0.3,0.7,0.4,1.1,0.4
			c0.4,0,0.8-0.1,1.1-0.4c0.6-0.6,0.6-1.5,0-2.1L34.1,32l9.4-9.4c0.6-0.6,0.6-1.5,0-2.1s-1.5-0.6-2.1,0L32,29.9l-9.4-9.4
			c-0.6-0.6-1.5-0.6-2.1,0s-0.6,1.5,0,2.1l9.4,9.4l-9.4,9.4C19.9,42,19.9,42.9,20.5,43.5z"/>
		<path d="M61.5,1h-59C1.7,1,1,1.7,1,2.5v59C1,62.3,1.7,63,2.5,63h59c0.8,0,1.5-0.7,1.5-1.5v-59C63,1.7,62.3,1,61.5,1z M60,60H4V4
			h56V60z"/>
	</g>
</g>
<g id="plus-box">
</g>
<g id="minus-box">
</g>
<g id="divide-box">
</g>
<g id="equal-box">
</g>
<g id="asterisk-box">
</g>
</svg>
