<?xml version="1.0" encoding="utf-8"?>
<!-- Generator: Adobe Illustrator 20.1.0, SVG Export Plug-In . SVG Version: 6.00 Build 0)  -->
<!DOCTYPE svg PUBLIC "-//W3C//DTD SVG 1.1//EN" "http://www.w3.org/Graphics/SVG/1.1/DTD/svg11.dtd">
<svg version="1.1" xmlns="http://www.w3.org/2000/svg" xmlns:xlink="http://www.w3.org/1999/xlink" x="0px" y="0px"
	 viewBox="0 0 64 64" style="enable-background:new 0 0 64 64;" xml:space="preserve">
<g id="file">
</g>
<g id="copy">
</g>
<g id="file-edit">
</g>
<g id="folder">
</g>
<g id="subdirectory">
</g>
<g id="album">
</g>
<g id="push">
</g>
<g id="pull">
</g>
<g id="database">
</g>
<g id="server">
</g>
<g id="upload">
</g>
<g id="download">
</g>
<g id="cloud-download">
</g>
<g id="cloud-upload">
</g>
<g id="cloud">
</g>
<g id="cloud-no-access">
</g>
<g id="cloud-signal-up">
	<g>
		<path d="M49.7,21c-1.4,0-2.8,0.2-4.2,0.6c-2.6-7.4-9.6-12.5-17.7-12.5c-9.8,0-17.8,7.4-18.7,17C3.8,27.4,0,32.2,0,37.7
			c0,6.6,5.4,11.9,11.9,11.9c0.8,0,1.5-0.7,1.5-1.5s-0.7-1.5-1.5-1.5c-4.9,0-8.9-4-8.9-8.9c0-4.4,3.3-8.2,7.7-8.8
			c0.7-0.1,1.3-0.7,1.3-1.4c0.2-8.6,7.2-15.3,15.8-15.3C35,12.1,41.3,17,43,23.9c0.1,0.4,0.4,0.8,0.8,1c0.4,0.2,0.9,0.2,1.3,0
			c1.5-0.6,3-1,4.6-1C55.9,24,61,29,61,35.2s-5.1,11.3-11.3,11.3c-0.8,0-1.5,0.7-1.5,1.5s0.7,1.5,1.5,1.5c7.9,0,14.3-6.4,14.3-14.3
			S57.6,21,49.7,21z"/>
		<path d="M30.8,49.4c-3,0-5.9,1.5-7.4,3c-0.6,0.6-0.6,1.5,0,2.1c0.6,0.6,1.5,0.6,2.1,0c1-1,3.2-2.1,5.2-2.1c2.1,0,4.2,1.1,5.2,2.1
			c0.3,0.3,0.7,0.4,1.1,0.4c0.4,0,0.8-0.1,1.1-0.4c0.6-0.6,0.6-1.5,0-2.1C36.6,50.9,33.8,49.4,30.8,49.4z"/>
		<path d="M30.8,43c-5.1,0-8.1,1.1-11.2,4.2c-0.6,0.6-0.6,1.5,0,2.1c0.3,0.3,0.7,0.4,1.1,0.4c0.4,0,0.8-0.1,1.1-0.4
			c2.2-2.2,4.3-3.4,9-3.4c4.8,0,6.9,1.2,9,3.4c0.6,0.6,1.5,0.6,2.1,0c0.6-0.6,0.6-1.5,0-2.1C38.8,44.2,35.8,43,30.8,43z"/>
		<path d="M30.8,36.7c-6.9,0-10.9,1.5-14.9,5.5c-0.6,0.6-0.6,1.5,0,2.1c0.6,0.6,1.5,0.6,2.1,0c3.4-3.4,6.8-4.6,12.8-4.6
			s9.4,1.2,12.8,4.6c0.3,0.3,0.7,0.4,1.1,0.4c0.4,0,0.8-0.1,1.1-0.4c0.6-0.6,0.6-1.5,0-2.1C41.7,38.2,37.6,36.7,30.8,36.7z"/>
	</g>
</g>
<g id="cloud-signal-down">
</g>
<g id="checklist">
</g>
<g id="file-folded">
</g>
<g id="file-folded-text">
</g>
<g id="inbox">
</g>
<g id="zip-folder">
</g>
<g id="image-folder">
</g>
<g id="image-album">
</g>
<g id="image">
</g>
<g id="images">
</g>
<g id="invoice">
</g>
<g id="book">
</g>
<g id="layers">
</g>
<g id="media-upload">
</g>
<g id="addresses">
</g>
<g id="floppy">
</g>
<g id="link">
</g>
<g id="link-add">
</g>
<g id="link-remove">
</g>
<g id="table">
</g>
<g id="download-book">
</g>
<g id="clipboard">
</g>
<g id="clipboard-chart">
</g>
<g id="clipboard-text">
</g>
<g id="clipboard-check">
</g>
<g id="clipboard-cross">
</g>
<g id="bookmark">
</g>
<g id="bookmark-add">
</g>
<g id="bookmark-remove">
</g>
<g id="clipboard-horizontal">
</g>
<g id="clipboard-text-horizontal">
</g>
<g id="trash">
</g>
<g id="unlock">
</g>
<g id="lock">
</g>
<g id="link-add-circle">
</g>
<g id="link-remove-circle">
</g>
<g id="sort-up">
</g>
<g id="sort-down">
</g>
<g id="list">
</g>
</svg>
