<?xml version="1.0" encoding="utf-8"?>
<!-- Generator: Adobe Illustrator 20.1.0, SVG Export Plug-In . SVG Version: 6.00 Build 0)  -->
<!DOCTYPE svg PUBLIC "-//W3C//DTD SVG 1.1//EN" "http://www.w3.org/Graphics/SVG/1.1/DTD/svg11.dtd">
<svg version="1.1" xmlns="http://www.w3.org/2000/svg" xmlns:xlink="http://www.w3.org/1999/xlink" x="0px" y="0px"
	 viewBox="0 0 64 64" style="enable-background:new 0 0 64 64;" xml:space="preserve">
<g id="bulb">
</g>
<g id="bulb-on">
</g>
<g id="bulb-alt">
</g>
<g id="bulb-on-alt">
</g>
<g id="energy-bulb">
</g>
<g id="toasting">
</g>
<g id="toasted">
</g>
<g id="binoculars">
</g>
<g id="gift">
</g>
<g id="shaver">
</g>
<g id="candle">
</g>
<g id="shower">
</g>
<g id="bomb">
</g>
<g id="joystick">
</g>
<g id="megaphone">
</g>
<g id="chestdraw">
</g>
<g id="armchair">
</g>
<g id="cardboard-box">
</g>
<g id="bath-shower">
</g>
<g id="diamond">
</g>
<g id="cassette">
</g>
<g id="iron">
</g>
<g id="wash">
</g>
<g id="keyboard-keys">
</g>
<g id="earphones">
</g>
<g id="lifebuoy">
</g>
<g id="calculator">
</g>
<g id="safe">
</g>
<g id="balloon">
</g>
<g id="cake">
</g>
<g id="baseball">
</g>
<g id="football-american">
</g>
<g id="football">
</g>
<g id="anchor">
</g>
<g id="compact-disc">
</g>
<g id="bbq">
</g>
<g id="coffee-machine">
	<g>
		<path d="M62.5,20.6c0.8,0,1.5-0.7,1.5-1.5s-0.7-1.5-1.5-1.5h-0.1v-3.2h0.1c0.8,0,1.5-0.7,1.5-1.5s-0.7-1.5-1.5-1.5h-0.1V7.3
			C62.4,3.4,60,1,56.1,1H10.3C9.4,1,8.8,1.7,8.8,2.5v26.9c0,0.8,0.7,1.5,1.5,1.5h2.6v1.8h-0.6c-0.8,0-1.5,0.7-1.5,1.5v0.6H1.5
			c-0.8,0-1.5,0.7-1.5,1.5s0.7,1.5,1.5,1.5h9.3v2.6c0,0.8,0.7,1.5,1.5,1.5H16V43c0,0.8,0.7,1.5,1.5,1.5S19,43.8,19,43v-1.1h3.7
			c0.8,0,1.5-0.7,1.5-1.5v-6.2c0-0.8-0.7-1.5-1.5-1.5h-0.6v-1.8h5.3v20.8H2c-0.8,0-1.5,0.7-1.5,1.5v8.3C0.5,62.3,1.2,63,2,63h58.8
			c0.8,0,1.5-0.7,1.5-1.5V26.8h0.1c0.8,0,1.5-0.7,1.5-1.5s-0.7-1.5-1.5-1.5h-0.1v-3.2H62.5z M21.2,38.9h-7.3v-3.2h7.3V38.9z
			 M19.1,32.7h-3.2v-1.8h3.2V32.7z M50,60V34h9.4v26H50z M59.4,23.8H46.9c-0.8,0-1.5,0.7-1.5,1.5s0.7,1.5,1.5,1.5h12.4V31H48.5
			c-0.8,0-1.5,0.7-1.5,1.5V60H3.5v-5.3h25.3c0.8,0,1.5-0.7,1.5-1.5V29.4c0-0.8-0.7-1.5-1.5-1.5H11.8V4h44.4c2.3,0,3.2,1,3.2,3.2v4.1
			H46.9c-0.8,0-1.5,0.7-1.5,1.5s0.7,1.5,1.5,1.5h12.4v3.2H46.9c-0.8,0-1.5,0.7-1.5,1.5s0.7,1.5,1.5,1.5h12.4V23.8z"/>
		<path d="M18.1,4.7c-3.1,0-5.6,2.5-5.6,5.6S15,16,18.1,16s5.6-2.5,5.6-5.6S21.2,4.7,18.1,4.7z M18.1,13c-1.4,0-2.6-1.2-2.6-2.6
			s1.2-2.6,2.6-2.6s2.6,1.2,2.6,2.6S19.5,13,18.1,13z"/>
	</g>
</g>
<g id="teapot">
</g>
<g id="outdoor-stove">
</g>
<g id="pram">
</g>
<g id="paintbrush">
</g>
<g id="stamp">
</g>
<g id="eyedrop">
</g>
<g id="musical-note">
</g>
<g id="magnet">
</g>
<g id="alarm-bell">
</g>
<g id="globe">
</g>
<g id="key">
</g>
<g id="ink">
</g>
<g id="paperclip">
</g>
<g id="paint-roller">
</g>
<g id="keyboard">
</g>
</svg>
