<?xml version="1.0" encoding="utf-8"?>
<!-- Generator: Adobe Illustrator 20.1.0, SVG Export Plug-In . SVG Version: 6.00 Build 0)  -->
<!DOCTYPE svg PUBLIC "-//W3C//DTD SVG 1.1//EN" "http://www.w3.org/Graphics/SVG/1.1/DTD/svg11.dtd">
<svg version="1.1" xmlns="http://www.w3.org/2000/svg" xmlns:xlink="http://www.w3.org/1999/xlink" x="0px" y="0px"
	 viewBox="0 0 64 64" style="enable-background:new 0 0 64 64;" xml:space="preserve">
<g id="desktop">
</g>
<g id="tablet">
</g>
<g id="tablet-landscape">
</g>
<g id="desktop-alt">
</g>
<g id="smartphone">
</g>
<g id="smartphone-landscape">
</g>
<g id="laptop">
</g>
<g id="laptops">
</g>
<g id="desktops">
</g>
<g id="printer">
</g>
<g id="smartphones">
</g>
<g id="smartphone-mail">
</g>
<g id="smartphone-search">
</g>
<g id="desktop-chart">
</g>
<g id="pc">
</g>
<g id="remote-control-alt">
</g>
<g id="remote-control">
</g>
<g id="smartphone-signal">
</g>
<g id="battery-charge">
</g>
<g id="battery-charge-half">
</g>
<g id="battery-charge-full">
</g>
<g id="battery-charging">
</g>
<g id="filter">
</g>
<g id="network-web">
</g>
<g id="chip">
</g>
<g id="preferences-box">
</g>
<g id="preferences-vertical-box">
</g>
<g id="preferences-vertical-box-alt">
</g>
<g id="preferences-box-alt">
</g>
<g id="preferences">
</g>
<g id="preferences-vertical">
</g>
<g id="preferences-vertical-alt">
</g>
<g id="preferences-alt">
</g>
<g id="bluetooth">
</g>
<g id="signal-strength">
</g>
<g id="signal-no">
</g>
<g id="signal-tower-no">
</g>
<g id="signal-tower">
</g>
<g id="signal-no-alt">
</g>
<g id="nut">
</g>
<g id="cogs">
</g>
<g id="cog">
</g>
<g id="cog-dash-left">
	<g>
		<path d="M21.5,22.7c-5.1,0-9.3,4.2-9.3,9.3s4.2,9.3,9.3,9.3c5.1,0,9.3-4.2,9.3-9.3S26.7,22.7,21.5,22.7z M21.5,38.3
			c-3.5,0-6.3-2.8-6.3-6.3s2.8-6.3,6.3-6.3c3.5,0,6.3,2.8,6.3,6.3S25,38.3,21.5,38.3z"/>
		<path d="M42.1,36c-2-0.8-3.3-2.3-3.3-3.9c0-1.7,1.3-3.2,3.3-4c0.4-0.2,0.7-0.5,0.9-0.9c0.1-0.4,0.1-0.9-0.1-1.3l-5.3-9.2
			c-0.2-0.4-0.6-0.6-1-0.7c-0.4-0.1-0.9,0-1.2,0.3c-1.7,1.4-3.7,1.8-5.2,0.9c-1.4-0.8-2.1-3.1-1.8-4.6c0.1-0.4,0-0.9-0.3-1.3
			c-0.3-0.4-0.7-0.6-1.2-0.6H16.2c-0.5,0-0.9,0.2-1.2,0.6s-0.4,0.8-0.3,1.3c0.3,1.5-0.4,3.8-1.8,4.6c-1.4,0.8-3.5,0.4-5.2-1.1
			c-0.3-0.3-0.8-0.4-1.2-0.3c-0.4,0.1-0.8,0.3-1,0.7l-5.3,9.2c-0.2,0.4-0.3,0.8-0.1,1.3C0.2,27.5,0.6,27.9,1,28
			c2,0.8,3.3,2.3,3.3,3.9c0,1.7-1.3,3.2-3.3,4c-0.4,0.2-0.7,0.5-0.9,0.9c-0.1,0.4-0.1,0.9,0.1,1.3l5.4,9.3c0.2,0.4,0.6,0.6,1,0.7
			c0.4,0.1,0.9,0,1.2-0.3c1.7-1.4,3.7-1.8,5.1-1c1.4,0.8,2.1,3.1,1.8,4.6c-0.1,0.4,0,0.9,0.3,1.3s0.7,0.6,1.2,0.6h10.6
			c0.5,0,0.9-0.2,1.2-0.6c0.3-0.4,0.4-0.8,0.3-1.3c-0.3-1.5,0.4-3.8,1.8-4.6c1.4-0.8,3.4-0.4,5.1,1.1c0.3,0.3,0.8,0.4,1.2,0.3
			c0.4-0.1,0.8-0.3,1-0.7l5.4-9.3c0.2-0.4,0.3-0.8,0.1-1.3C42.8,36.5,42.5,36.1,42.1,36z M35.7,44.5c-2.4-1.4-5-1.5-7.1-0.4
			c-2.1,1.2-3.3,3.7-3.4,6h-7.4c-0.1-2.2-1.2-4.8-3.3-6c-2.1-1.2-4.8-1.1-7.1,0.3L3.6,38c2.3-1.4,3.7-3.6,3.7-6c0-2.4-1.4-4.6-3.7-6
			l3.7-6.4c2.4,1.4,5.1,1.5,7.2,0.4c2.1-1.2,3.2-3.8,3.3-6.1h7.5c0.1,2.3,1.2,4.8,3.3,6c2.1,1.2,4.7,1.1,7.1-0.2l3.7,6.4
			c-2.3,1.4-3.7,3.6-3.7,6c0,2.4,1.4,4.6,3.7,6L35.7,44.5z"/>
		<path d="M59,17.4c0-0.8-0.7-1.5-1.5-1.5H43.3c-0.8,0-1.5,0.7-1.5,1.5s0.7,1.5,1.5,1.5h14.1C58.3,18.9,59,18.2,59,17.4z"/>
		<path d="M62.5,25H49.4c-0.8,0-1.5,0.7-1.5,1.5s0.7,1.5,1.5,1.5h13.1c0.8,0,1.5-0.7,1.5-1.5S63.3,25,62.5,25z"/>
		<path d="M52.4,35h-3c-0.8,0-1.5,0.7-1.5,1.5s0.7,1.5,1.5,1.5h3c0.8,0,1.5-0.7,1.5-1.5S53.2,35,52.4,35z"/>
	</g>
</g>
<g id="cog-dash-right">
</g>
<g id="cog-fall">
</g>
<g id="io">
</g>
<g id="browser">
</g>
<g id="browser-add">
</g>
<g id="rss">
</g>
<g id="no-access">
</g>
<g id="notification">
</g>
<g id="devices">
</g>
<g id="notification-alert">
</g>
</svg>
