<?xml version="1.0" encoding="utf-8"?>
<!-- Generator: Adobe Illustrator 20.1.0, SVG Export Plug-In . SVG Version: 6.00 Build 0)  -->
<!DOCTYPE svg PUBLIC "-//W3C//DTD SVG 1.1//EN" "http://www.w3.org/Graphics/SVG/1.1/DTD/svg11.dtd">
<svg version="1.1" xmlns="http://www.w3.org/2000/svg" xmlns:xlink="http://www.w3.org/1999/xlink" x="0px" y="0px"
	 viewBox="0 0 64 64" style="enable-background:new 0 0 64 64;" xml:space="preserve">
<g id="desktop">
</g>
<g id="tablet">
</g>
<g id="tablet-landscape">
</g>
<g id="desktop-alt">
</g>
<g id="smartphone">
</g>
<g id="smartphone-landscape">
</g>
<g id="laptop">
</g>
<g id="laptops">
</g>
<g id="desktops">
</g>
<g id="printer">
</g>
<g id="smartphones">
</g>
<g id="smartphone-mail">
</g>
<g id="smartphone-search">
</g>
<g id="desktop-chart">
</g>
<g id="pc">
</g>
<g id="remote-control-alt">
</g>
<g id="remote-control">
</g>
<g id="smartphone-signal">
</g>
<g id="battery-charge">
</g>
<g id="battery-charge-half">
</g>
<g id="battery-charge-full">
</g>
<g id="battery-charging">
</g>
<g id="filter">
</g>
<g id="network-web">
</g>
<g id="chip">
	<g>
		<path d="M52.2,10.4H12.8c-1.4,0-2.5,1.1-2.5,2.5v39.2c0,1.4,1.1,2.5,2.5,2.5h39.4c1.4,0,2.5-1.1,2.5-2.5V12.9
			C54.7,11.6,53.6,10.4,52.2,10.4z M51.7,51.6H13.3V13.4h38.4V51.6z"/>
		<ellipse cx="17.6" cy="17.7" rx="2" ry="2"/>
		<ellipse cx="46.4" cy="17.7" rx="2" ry="2"/>
		<ellipse cx="46.4" cy="46.3" rx="2" ry="2"/>
		<ellipse cx="17.6" cy="46.3" rx="2" ry="2"/>
		<path d="M32,6.3c0.8,0,1.5-0.7,1.5-1.5V1.5C33.5,0.7,32.8,0,32,0s-1.5,0.7-1.5,1.5v3.3C30.5,5.6,31.2,6.3,32,6.3z"/>
		<path d="M25.7,6.3c0.8,0,1.5-0.7,1.5-1.5V1.5c0-0.8-0.7-1.5-1.5-1.5s-1.5,0.7-1.5,1.5v3.3C24.2,5.6,24.9,6.3,25.7,6.3z"/>
		<path d="M19.4,6.3c0.8,0,1.5-0.7,1.5-1.5V1.5c0-0.8-0.7-1.5-1.5-1.5s-1.5,0.7-1.5,1.5v3.3C17.9,5.6,18.6,6.3,19.4,6.3z"/>
		<path d="M38.3,6.3c0.8,0,1.5-0.7,1.5-1.5V1.5c0-0.8-0.7-1.5-1.5-1.5s-1.5,0.7-1.5,1.5v3.3C36.8,5.6,37.5,6.3,38.3,6.3z"/>
		<path d="M44.6,6.3c0.8,0,1.5-0.7,1.5-1.5V1.5c0-0.8-0.7-1.5-1.5-1.5s-1.5,0.7-1.5,1.5v3.3C43.1,5.6,43.7,6.3,44.6,6.3z"/>
		<path d="M32,57.7c-0.8,0-1.5,0.7-1.5,1.5v3.3c0,0.8,0.7,1.5,1.5,1.5s1.5-0.7,1.5-1.5v-3.3C33.5,58.4,32.8,57.7,32,57.7z"/>
		<path d="M25.7,57.7c-0.8,0-1.5,0.7-1.5,1.5v3.3c0,0.8,0.7,1.5,1.5,1.5s1.5-0.7,1.5-1.5v-3.3C27.2,58.4,26.5,57.7,25.7,57.7z"/>
		<path d="M19.4,57.7c-0.8,0-1.5,0.7-1.5,1.5v3.3c0,0.8,0.7,1.5,1.5,1.5s1.5-0.7,1.5-1.5v-3.3C20.9,58.4,20.3,57.7,19.4,57.7z"/>
		<path d="M38.3,57.7c-0.8,0-1.5,0.7-1.5,1.5v3.3c0,0.8,0.7,1.5,1.5,1.5s1.5-0.7,1.5-1.5v-3.3C39.8,58.4,39.1,57.7,38.3,57.7z"/>
		<path d="M44.6,57.7c-0.8,0-1.5,0.7-1.5,1.5v3.3c0,0.8,0.7,1.5,1.5,1.5s1.5-0.7,1.5-1.5v-3.3C46.1,58.4,45.4,57.7,44.6,57.7z"/>
		<path d="M62.5,30.5h-3.3c-0.8,0-1.5,0.7-1.5,1.5s0.7,1.5,1.5,1.5h3.3c0.8,0,1.5-0.7,1.5-1.5S63.3,30.5,62.5,30.5z"/>
		<path d="M62.5,24.2h-3.3c-0.8,0-1.5,0.7-1.5,1.5s0.7,1.5,1.5,1.5h3.3c0.8,0,1.5-0.7,1.5-1.5S63.3,24.2,62.5,24.2z"/>
		<path d="M59.2,20.9h3.3c0.8,0,1.5-0.7,1.5-1.5s-0.7-1.5-1.5-1.5h-3.3c-0.8,0-1.5,0.7-1.5,1.5S58.4,20.9,59.2,20.9z"/>
		<path d="M62.5,36.8h-3.3c-0.8,0-1.5,0.7-1.5,1.5s0.7,1.5,1.5,1.5h3.3c0.8,0,1.5-0.7,1.5-1.5S63.3,36.8,62.5,36.8z"/>
		<path d="M62.5,43.1h-3.3c-0.8,0-1.5,0.7-1.5,1.5s0.7,1.5,1.5,1.5h3.3c0.8,0,1.5-0.7,1.5-1.5S63.3,43.1,62.5,43.1z"/>
		<path d="M4.8,30.5H1.5C0.7,30.5,0,31.2,0,32s0.7,1.5,1.5,1.5h3.3c0.8,0,1.5-0.7,1.5-1.5S5.6,30.5,4.8,30.5z"/>
		<path d="M4.8,24.2H1.5c-0.8,0-1.5,0.7-1.5,1.5s0.7,1.5,1.5,1.5h3.3c0.8,0,1.5-0.7,1.5-1.5S5.6,24.2,4.8,24.2z"/>
		<path d="M4.8,17.9H1.5c-0.8,0-1.5,0.7-1.5,1.5s0.7,1.5,1.5,1.5h3.3c0.8,0,1.5-0.7,1.5-1.5S5.6,17.9,4.8,17.9z"/>
		<path d="M4.8,36.8H1.5c-0.8,0-1.5,0.7-1.5,1.5s0.7,1.5,1.5,1.5h3.3c0.8,0,1.5-0.7,1.5-1.5S5.6,36.8,4.8,36.8z"/>
		<path d="M4.8,43.1H1.5c-0.8,0-1.5,0.7-1.5,1.5s0.7,1.5,1.5,1.5h3.3c0.8,0,1.5-0.7,1.5-1.5S5.6,43.1,4.8,43.1z"/>
	</g>
</g>
<g id="preferences-box">
</g>
<g id="preferences-vertical-box">
</g>
<g id="preferences-vertical-box-alt">
</g>
<g id="preferences-box-alt">
</g>
<g id="preferences">
</g>
<g id="preferences-vertical">
</g>
<g id="preferences-vertical-alt">
</g>
<g id="preferences-alt">
</g>
<g id="bluetooth">
</g>
<g id="signal-strength">
</g>
<g id="signal-no">
</g>
<g id="signal-tower-no">
</g>
<g id="signal-tower">
</g>
<g id="signal-no-alt">
</g>
<g id="nut">
</g>
<g id="cogs">
</g>
<g id="cog">
</g>
<g id="cog-dash-left">
</g>
<g id="cog-dash-right">
</g>
<g id="cog-fall">
</g>
<g id="io">
</g>
<g id="browser">
</g>
<g id="browser-add">
</g>
<g id="rss">
</g>
<g id="no-access">
</g>
<g id="notification">
</g>
<g id="devices">
</g>
<g id="notification-alert">
</g>
</svg>
