<?xml version="1.0" encoding="utf-8"?>
<!-- Generator: Adobe Illustrator 20.1.0, SVG Export Plug-In . SVG Version: 6.00 Build 0)  -->
<!DOCTYPE svg PUBLIC "-//W3C//DTD SVG 1.1//EN" "http://www.w3.org/Graphics/SVG/1.1/DTD/svg11.dtd">
<svg version="1.1" xmlns="http://www.w3.org/2000/svg" xmlns:xlink="http://www.w3.org/1999/xlink" x="0px" y="0px"
	 viewBox="0 0 64 64" style="enable-background:new 0 0 64 64;" xml:space="preserve">
<g id="credit-card">
</g>
<g id="tag">
</g>
<g id="trolley">
</g>
<g id="trolley-out">
</g>
<g id="trolley-in">
</g>
<g id="wallet">
</g>
<g id="shopping-bag">
</g>
<g id="basket">
</g>
<g id="dollar-circle">
	<g>
		<path d="M32,0C14.4,0,0,14.4,0,32s14.4,32,32,32s32-14.3,32-32S49.6,0,32,0z M32,61C16,61,3,48,3,32S16,3,32,3s29,13,29,29
			S48,61,32,61z"/>
		<path d="M37.6,32.3c-1.1-0.5-2.6-1.1-4.5-1.6c-1.6-0.5-2.9-0.9-3.7-1.3c-0.9-0.4-1.5-0.8-1.9-1.3C27.2,27.7,27,27,27,26.3
			c0-1.2,0.4-2,1.3-2.6c0.9-0.6,2.1-0.9,3.6-0.9c1.4,0,2.6,0.3,3.5,1c0.9,0.6,1.5,1.4,1.6,2.4c0,0.2,0.2,0.5,0.3,0.6
			c0.2,0.1,0.3,0.3,0.5,0.3h1.7c0.2,0,0.3-0.2,0.5-0.3c0.1-0.1,0.2-0.4,0.2-0.6c0-0.8-0.4-1.7-0.9-2.5c-0.5-0.8-1.4-1.6-2.4-2.2
			c-1-0.6-1.8-1-3.8-1.2v-2.3c0-0.2,0.1-0.4,0-0.6c-0.1-0.1-0.1-0.2-0.4-0.2h-1.2c-0.2,0-0.2,0.1-0.4,0.2c-0.1,0.1,0,0.3,0,0.6v2.3
			c-3,0.2-4,0.9-5.2,2c-1.2,1.1-2,2.5-2,4.2c0,1.2,0.3,2.3,0.8,3.1c0.5,0.8,1.3,1.5,2.3,2c1,0.6,2.4,1.1,4.1,1.6
			c1.8,0.5,3.1,1,4,1.3c0.9,0.4,1.6,0.8,2,1.3c0.5,0.5,0.7,1.1,0.7,1.9c0,1.2-0.5,2.1-1.4,2.8c-0.9,0.7-2.3,1-4.2,1
			c-1.8,0-3.1-0.4-4-1c-0.9-0.7-1.5-1.5-1.7-2.4c-0.2-0.4-0.4-0.7-0.9-0.7h-1.6c-0.2,0-0.3,0.1-0.5,0.3c-0.1,0.1-0.2,0.3-0.2,0.5
			c0,1,0.4,1.9,1,2.8c0.6,0.9,1.5,1.6,2.6,2.2c1.1,0.6,2.2,0.9,4.2,1.1v2.3c0,0.2-0.1,0.4,0,0.6c0.1,0.1,0.2,0.2,0.4,0.2h1.2
			c0.2,0,0.2-0.1,0.4-0.2c0.1-0.1,0-0.3,0-0.6v-2.3c3-0.2,4.3-0.8,5.7-2c1.3-1.2,2.2-2.7,2.2-4.5c0-1.2-0.3-2.3-0.8-3
			C39.5,33.5,38.7,32.9,37.6,32.3z"/>
	</g>
</g>
<g id="pound-circle">
</g>
<g id="euro-circle">
</g>
<g id="yen-circle">
</g>
<g id="purse">
</g>
<g id="banknote">
</g>
</svg>
