<?xml version="1.0" encoding="utf-8"?>
<!-- Generator: Adobe Illustrator 20.1.0, SVG Export Plug-In . SVG Version: 6.00 Build 0)  -->
<!DOCTYPE svg PUBLIC "-//W3C//DTD SVG 1.1//EN" "http://www.w3.org/Graphics/SVG/1.1/DTD/svg11.dtd">
<svg version="1.1" xmlns="http://www.w3.org/2000/svg" xmlns:xlink="http://www.w3.org/1999/xlink" x="0px" y="0px"
	 viewBox="0 0 64 64" style="enable-background:new 0 0 64 64;" xml:space="preserve">
<g id="file">
</g>
<g id="copy">
</g>
<g id="file-edit">
</g>
<g id="folder">
</g>
<g id="subdirectory">
</g>
<g id="album">
</g>
<g id="push">
</g>
<g id="pull">
</g>
<g id="database">
</g>
<g id="server">
</g>
<g id="upload">
</g>
<g id="download">
</g>
<g id="cloud-download">
</g>
<g id="cloud-upload">
</g>
<g id="cloud">
</g>
<g id="cloud-no-access">
</g>
<g id="cloud-signal-up">
</g>
<g id="cloud-signal-down">
</g>
<g id="checklist">
</g>
<g id="file-folded">
</g>
<g id="file-folded-text">
</g>
<g id="inbox">
</g>
<g id="zip-folder">
</g>
<g id="image-folder">
</g>
<g id="image-album">
</g>
<g id="image">
</g>
<g id="images">
</g>
<g id="invoice">
</g>
<g id="book">
</g>
<g id="layers">
</g>
<g id="media-upload">
</g>
<g id="addresses">
</g>
<g id="floppy">
</g>
<g id="link">
</g>
<g id="link-add">
</g>
<g id="link-remove">
</g>
<g id="table">
</g>
<g id="download-book">
	<g>
		<path d="M27.3,60.8H6.9c-2.2,0-3.9-1.6-3.9-3.6V13.6c1.3,1,3,1.5,4.9,1.5h43.6v7.4c0,0.8,0.7,1.5,1.5,1.5s1.5-0.7,1.5-1.5v-8.9
			c0-0.8-0.7-1.5-1.5-1.5H7.9C5.1,12.1,3,10.2,3,7.7s2.1-4.4,4.9-4.4h44.5c0.8,0,1.5-0.7,1.5-1.5s-0.7-1.5-1.5-1.5H7.9
			C3.4,0.2,0,3.4,0,7.7c0,0.1,0,0.2,0,0.2C0,8,0,8.1,0,8.3v48.9c0,3.7,3,6.6,6.9,6.6h20.4c0.8,0,1.5-0.7,1.5-1.5
			S28.1,60.8,27.3,60.8z"/>
		<path d="M8.1,6.2c-0.8,0-1.5,0.7-1.5,1.5s0.7,1.5,1.5,1.5H50c0.8,0,1.5-0.7,1.5-1.5S50.9,6.2,50,6.2H8.1z"/>
		<path d="M46,27.8c-9.9,0-18,8-18,17.8c0,9.8,8.1,17.8,18,17.8s18-8,18-17.8C64,35.8,55.9,27.8,46,27.8z M46,60.5
			c-8.3,0-15-6.6-15-14.8c0-8.2,6.7-14.8,15-14.8s15,6.6,15,14.8C61,53.8,54.3,60.5,46,60.5z"/>
		<path d="M51.8,45.6l-4.2,4.8V36.7c0-0.8-0.7-1.5-1.5-1.5s-1.5,0.7-1.5,1.5v13.7l-4.2-4.8c-0.5-0.6-1.5-0.7-2.1-0.1
			C37.5,46,37.5,47,38,47.6l6.6,7.5c0.2,0.6,0.8,1,1.4,1s1.2-0.4,1.4-1l6.6-7.5c0.5-0.6,0.5-1.6-0.1-2.1
			C53.3,44.9,52.3,45,51.8,45.6z"/>
	</g>
</g>
<g id="clipboard">
</g>
<g id="clipboard-chart">
</g>
<g id="clipboard-text">
</g>
<g id="clipboard-check">
</g>
<g id="clipboard-cross">
</g>
<g id="bookmark">
</g>
<g id="bookmark-add">
</g>
<g id="bookmark-remove">
</g>
<g id="clipboard-horizontal">
</g>
<g id="clipboard-text-horizontal">
</g>
<g id="trash">
</g>
<g id="unlock">
</g>
<g id="lock">
</g>
<g id="link-add-circle">
</g>
<g id="link-remove-circle">
</g>
<g id="sort-up">
</g>
<g id="sort-down">
</g>
<g id="list">
</g>
</svg>
