<?xml version="1.0" encoding="utf-8"?>
<!-- Generator: Adobe Illustrator 20.1.0, SVG Export Plug-In . SVG Version: 6.00 Build 0)  -->
<!DOCTYPE svg PUBLIC "-//W3C//DTD SVG 1.1//EN" "http://www.w3.org/Graphics/SVG/1.1/DTD/svg11.dtd">
<svg version="1.1" xmlns="http://www.w3.org/2000/svg" xmlns:xlink="http://www.w3.org/1999/xlink" x="0px" y="0px"
	 viewBox="0 0 64 64" style="enable-background:new 0 0 64 64;" xml:space="preserve">
<g id="check">
</g>
<g id="check-done">
</g>
<g id="close">
</g>
<g id="plus">
</g>
<g id="minus">
</g>
<g id="divide">
</g>
<g id="equal">
</g>
<g id="asterisk">
</g>
<g id="check-circle">
</g>
<g id="close-circle">
</g>
<g id="plus-circle">
</g>
<g id="minus-circle">
</g>
<g id="divide-circle">
</g>
<g id="equal-circle">
</g>
<g id="asterisk-circle">
</g>
<g id="check-box">
</g>
<g id="close-box">
</g>
<g id="plus-box">
</g>
<g id="minus-box">
</g>
<g id="divide-box">
	<g>
		<path d="M17,33h30c0.8,0,1.5-0.7,1.5-1.5S47.8,30,47,30H17c-0.8,0-1.5,0.7-1.5,1.5S16.2,33,17,33z"/>
		<ellipse cx="32" cy="20.8" rx="2.7" ry="2.6"/>
		<ellipse cx="32" cy="42.8" rx="2.7" ry="2.6"/>
		<path d="M62.5,0h-61C0.7,0,0,0.7,0,1.5v61C0,63.3,0.7,64,1.5,64h61c0.8,0,1.5-0.7,1.5-1.5v-61C64,0.7,63.3,0,62.5,0z M61,61H3V3
			h58V61z"/>
	</g>
</g>
<g id="equal-box">
</g>
<g id="asterisk-box">
</g>
</svg>
