<?xml version="1.0" encoding="utf-8"?>
<!-- Generator: Adobe Illustrator 20.1.0, SVG Export Plug-In . SVG Version: 6.00 Build 0)  -->
<!DOCTYPE svg PUBLIC "-//W3C//DTD SVG 1.1//EN" "http://www.w3.org/Graphics/SVG/1.1/DTD/svg11.dtd">
<svg version="1.1" xmlns="http://www.w3.org/2000/svg" xmlns:xlink="http://www.w3.org/1999/xlink" x="0px" y="0px"
	 viewBox="0 0 64 64" style="enable-background:new 0 0 64 64;" xml:space="preserve">
<g id="file">
</g>
<g id="copy">
</g>
<g id="file-edit">
</g>
<g id="folder">
</g>
<g id="subdirectory">
</g>
<g id="album">
</g>
<g id="push">
</g>
<g id="pull">
</g>
<g id="database">
	<path d="M62.5,13.2c0-0.1,0-0.2,0-0.3C61.9,5.6,48.7,0,32,0C14.9,0,1.5,5.9,1.5,13.5c0,0.3,0,0.7,0.1,1v11.7
		c-0.1,0.2-0.1,0.3-0.1,0.5c0,0.3,0,0.7,0.1,1v10.5c-0.1,0.2-0.1,0.3-0.1,0.5c0,0.3,0,0.7,0.1,1v10.9C1.5,58.1,14.9,64,32.1,64
		s30.5-5.9,30.5-13.5L62.5,13.2z M59.5,26.6c0,0,0,0.1,0,0.1c0,6.2-14.5,10.5-27.5,10.5c-12.5,0-26.3-3.9-27.4-9.7v-8
		C9.5,24,19.8,27,32,27c12.3,0,22.7-3.1,27.5-7.6L59.5,26.6z M4.5,32.7c4.9,4.5,15.2,7.5,27.4,7.5c12.3,0,22.7-3.1,27.6-7.6l0,5.9
		c0,0.1,0,0.1,0,0.2c0,6.2-14.5,10.5-27.5,10.5c-12.5,0-26.3-3.9-27.4-9.7V32.7z M32,3c13,0,27.5,4.3,27.5,10.5
		C59.5,19.7,45,24,32,24C19.5,24,5.7,20,4.5,14.3V13c0-0.1,0-0.1,0-0.2C5.6,7,19.5,3,32,3z M32.1,61C19,61,4.5,56.7,4.5,50.6v-5.9
		c4.9,4.5,15.2,7.5,27.4,7.5c12.3,0,22.7-3.1,27.6-7.6l0,5.8C59.6,56.7,45.1,61,32.1,61z"/>
</g>
<g id="server">
</g>
<g id="upload">
</g>
<g id="download">
</g>
<g id="cloud-download">
</g>
<g id="cloud-upload">
</g>
<g id="cloud">
</g>
<g id="cloud-no-access">
</g>
<g id="cloud-signal-up">
</g>
<g id="cloud-signal-down">
</g>
<g id="checklist">
</g>
<g id="file-folded">
</g>
<g id="file-folded-text">
</g>
<g id="inbox">
</g>
<g id="zip-folder">
</g>
<g id="image-folder">
</g>
<g id="image-album">
</g>
<g id="image">
</g>
<g id="images">
</g>
<g id="invoice">
</g>
<g id="book">
</g>
<g id="layers">
</g>
<g id="media-upload">
</g>
<g id="addresses">
</g>
<g id="floppy">
</g>
<g id="link">
</g>
<g id="link-add">
</g>
<g id="link-remove">
</g>
<g id="table">
</g>
<g id="download-book">
</g>
<g id="clipboard">
</g>
<g id="clipboard-chart">
</g>
<g id="clipboard-text">
</g>
<g id="clipboard-check">
</g>
<g id="clipboard-cross">
</g>
<g id="bookmark">
</g>
<g id="bookmark-add">
</g>
<g id="bookmark-remove">
</g>
<g id="clipboard-horizontal">
</g>
<g id="clipboard-text-horizontal">
</g>
<g id="trash">
</g>
<g id="unlock">
</g>
<g id="lock">
</g>
<g id="link-add-circle">
</g>
<g id="link-remove-circle">
</g>
<g id="sort-up">
</g>
<g id="sort-down">
</g>
<g id="list">
</g>
</svg>
