<?xml version="1.0" encoding="utf-8"?>
<!-- Generator: Adobe Illustrator 20.1.0, SVG Export Plug-In . SVG Version: 6.00 Build 0)  -->
<!DOCTYPE svg PUBLIC "-//W3C//DTD SVG 1.1//EN" "http://www.w3.org/Graphics/SVG/1.1/DTD/svg11.dtd">
<svg version="1.1" xmlns="http://www.w3.org/2000/svg" xmlns:xlink="http://www.w3.org/1999/xlink" x="0px" y="0px"
	 viewBox="0 0 64 64" style="enable-background:new 0 0 64 64;" xml:space="preserve">
<g id="desktop">
</g>
<g id="tablet">
</g>
<g id="tablet-landscape">
</g>
<g id="desktop-alt">
</g>
<g id="smartphone">
</g>
<g id="smartphone-landscape">
</g>
<g id="laptop">
</g>
<g id="laptops">
</g>
<g id="desktops">
</g>
<g id="printer">
</g>
<g id="smartphones">
</g>
<g id="smartphone-mail">
</g>
<g id="smartphone-search">
</g>
<g id="desktop-chart">
	<g>
		<path d="M62.5,9.5h-61C0.7,9.5,0,10.2,0,11v35.5C0,47.3,0.7,48,1.5,48h61c0.8,0,1.5-0.7,1.5-1.5V11C64,10.2,63.3,9.5,62.5,9.5z
			 M61,45H3V12.5h58V45z"/>
		<path d="M40.6,51.5H23.4c-0.8,0-1.5,0.7-1.5,1.5s0.7,1.5,1.5,1.5h17.1c0.8,0,1.5-0.7,1.5-1.5S41.4,51.5,40.6,51.5z"/>
		<path d="M15.1,36.9c0.3,0.2,0.6,0.3,0.9,0.3c0.4,0,0.9-0.2,1.2-0.6l10-12.4c1.6,1.6,3.2,3.1,4.8,4.6c2,1.8,4,3.7,5.8,5.7
			c0.3,0.3,0.8,0.5,1.3,0.5c0.5-0.1,0.9-0.3,1.1-0.7c0.7-1.2,1.3-2.2,1.8-3.2c0.2-0.4,0.4-0.8,0.7-1.2c1.2,1.5,2.6,3,4.3,4.7
			c0.6,0.6,1.5,0.6,2.1,0c0.6-0.6,0.6-1.5,0-2.1c-2.3-2.3-4-4.3-5.4-6.2c-0.3-0.4-0.8-0.6-1.3-0.6c-0.5,0-1,0.3-1.2,0.7
			c-0.7,1.2-1.3,2.2-1.8,3.2c-0.3,0.5-0.5,0.9-0.8,1.4c-1.5-1.5-3.1-3-4.6-4.4c-2-1.8-4-3.7-5.8-5.7c-0.3-0.3-0.7-0.5-1.2-0.5
			c-0.4,0-0.8,0.2-1.1,0.6l-11,13.8C14.3,35.4,14.4,36.3,15.1,36.9z"/>
	</g>
</g>
<g id="pc">
</g>
<g id="remote-control-alt">
</g>
<g id="remote-control">
</g>
<g id="smartphone-signal">
</g>
<g id="battery-charge">
</g>
<g id="battery-charge-half">
</g>
<g id="battery-charge-full">
</g>
<g id="battery-charging">
</g>
<g id="filter">
</g>
<g id="network-web">
</g>
<g id="chip">
</g>
<g id="preferences-box">
</g>
<g id="preferences-vertical-box">
</g>
<g id="preferences-vertical-box-alt">
</g>
<g id="preferences-box-alt">
</g>
<g id="preferences">
</g>
<g id="preferences-vertical">
</g>
<g id="preferences-vertical-alt">
</g>
<g id="preferences-alt">
</g>
<g id="bluetooth">
</g>
<g id="signal-strength">
</g>
<g id="signal-no">
</g>
<g id="signal-tower-no">
</g>
<g id="signal-tower">
</g>
<g id="signal-no-alt">
</g>
<g id="nut">
</g>
<g id="cogs">
</g>
<g id="cog">
</g>
<g id="cog-dash-left">
</g>
<g id="cog-dash-right">
</g>
<g id="cog-fall">
</g>
<g id="io">
</g>
<g id="browser">
</g>
<g id="browser-add">
</g>
<g id="rss">
</g>
<g id="no-access">
</g>
<g id="notification">
</g>
<g id="devices">
</g>
<g id="notification-alert">
</g>
</svg>
