<?xml version="1.0" encoding="utf-8"?>
<!-- Generator: Adobe Illustrator 20.1.0, SVG Export Plug-In . SVG Version: 6.00 Build 0)  -->
<!DOCTYPE svg PUBLIC "-//W3C//DTD SVG 1.1//EN" "http://www.w3.org/Graphics/SVG/1.1/DTD/svg11.dtd">
<svg version="1.1" xmlns="http://www.w3.org/2000/svg" xmlns:xlink="http://www.w3.org/1999/xlink" x="0px" y="0px"
	 viewBox="0 0 64 64" style="enable-background:new 0 0 64 64;" xml:space="preserve">
<g id="bulb">
</g>
<g id="bulb-on">
</g>
<g id="bulb-alt">
</g>
<g id="bulb-on-alt">
</g>
<g id="energy-bulb">
</g>
<g id="toasting">
</g>
<g id="toasted">
</g>
<g id="binoculars">
</g>
<g id="gift">
</g>
<g id="shaver">
</g>
<g id="candle">
</g>
<g id="shower">
</g>
<g id="bomb">
</g>
<g id="joystick">
</g>
<g id="megaphone">
</g>
<g id="chestdraw">
</g>
<g id="armchair">
</g>
<g id="cardboard-box">
</g>
<g id="bath-shower">
</g>
<g id="diamond">
	<path d="M63.9,24.5c0.1-0.1,0.1-0.3,0.1-0.4c0,0,0-0.1,0-0.1c0,0,0,0,0-0.1c0-0.1,0-0.2,0-0.3c0,0,0,0,0-0.1c0-0.1-0.1-0.3-0.2-0.4
		c0,0,0,0,0,0l0,0c0,0,0,0,0,0L51.6,4.6c-0.3-0.4-0.7-0.7-1.3-0.7H13.7c-0.5,0-1,0.3-1.3,0.7L0.3,23.1c0,0,0,0,0,0l0,0c0,0,0,0,0,0
		c-0.1,0.1-0.1,0.3-0.2,0.4c0,0,0,0,0,0.1c0,0.1,0,0.2,0,0.3c0,0,0,0,0,0.1c0,0,0,0.1,0,0.1c0,0.1,0,0.3,0.1,0.4c0,0,0,0,0,0
		c0.1,0.1,0.1,0.3,0.2,0.4c0,0,0,0,0,0l30.5,34.7c0,0,0,0,0.1,0.1c0,0,0.1,0.1,0.1,0.1c0,0,0,0,0.1,0.1c0,0,0,0,0,0
		c0,0,0.1,0.1,0.1,0.1c0,0,0.1,0,0.1,0.1c0,0,0,0,0.1,0c0,0,0,0,0,0c0,0,0,0,0.1,0c0.1,0,0.3,0.1,0.4,0.1c0,0,0,0,0,0s0,0,0,0
		c0.1,0,0.3,0,0.4-0.1c0,0,0,0,0.1,0c0,0,0,0,0,0c0,0,0,0,0.1,0c0,0,0.1,0,0.1-0.1c0,0,0.1-0.1,0.1-0.1c0,0,0,0,0,0c0,0,0,0,0.1-0.1
		c0,0,0.1-0.1,0.1-0.1c0,0,0,0,0.1-0.1L63.6,25c0,0,0,0,0,0C63.7,24.8,63.8,24.7,63.9,24.5C63.9,24.5,63.9,24.5,63.9,24.5z
		 M13.2,8.9l4.7,13.6H4.3L13.2,8.9z M41.9,25.5L32,54l-9.9-28.6H41.9z M22,22.5l10-14l10,14H22z M43.8,19.9l-9.3-13h13.8L43.8,19.9z
		 M20.2,19.9l-4.5-13h13.8L20.2,19.9z M18.9,25.5l9.2,26.4L4.8,25.5H18.9z M45.1,25.5h14.1L35.9,51.9L45.1,25.5z M46.1,22.5
		l4.7-13.6l8.9,13.6H46.1z"/>
</g>
<g id="cassette">
</g>
<g id="iron">
</g>
<g id="wash">
</g>
<g id="keyboard-keys">
</g>
<g id="earphones">
</g>
<g id="lifebuoy">
</g>
<g id="calculator">
</g>
<g id="safe">
</g>
<g id="balloon">
</g>
<g id="cake">
</g>
<g id="baseball">
</g>
<g id="football-american">
</g>
<g id="football">
</g>
<g id="anchor">
</g>
<g id="compact-disc">
</g>
<g id="bbq">
</g>
<g id="coffee-machine">
</g>
<g id="teapot">
</g>
<g id="outdoor-stove">
</g>
<g id="pram">
</g>
<g id="paintbrush">
</g>
<g id="stamp">
</g>
<g id="eyedrop">
</g>
<g id="musical-note">
</g>
<g id="magnet">
</g>
<g id="alarm-bell">
</g>
<g id="globe">
</g>
<g id="key">
</g>
<g id="ink">
</g>
<g id="paperclip">
</g>
<g id="paint-roller">
</g>
<g id="keyboard">
</g>
</svg>
