<?xml version="1.0" encoding="utf-8"?>
<!-- Generator: Adobe Illustrator 20.1.0, SVG Export Plug-In . SVG Version: 6.00 Build 0)  -->
<!DOCTYPE svg PUBLIC "-//W3C//DTD SVG 1.1//EN" "http://www.w3.org/Graphics/SVG/1.1/DTD/svg11.dtd">
<svg version="1.1" xmlns="http://www.w3.org/2000/svg" xmlns:xlink="http://www.w3.org/1999/xlink" x="0px" y="0px"
	 viewBox="0 0 64 64" style="enable-background:new 0 0 64 64;" xml:space="preserve">
<g id="desktop">
</g>
<g id="tablet">
</g>
<g id="tablet-landscape">
</g>
<g id="desktop-alt">
</g>
<g id="smartphone">
</g>
<g id="smartphone-landscape">
</g>
<g id="laptop">
</g>
<g id="laptops">
</g>
<g id="desktops">
</g>
<g id="printer">
</g>
<g id="smartphones">
</g>
<g id="smartphone-mail">
</g>
<g id="smartphone-search">
</g>
<g id="desktop-chart">
</g>
<g id="pc">
</g>
<g id="remote-control-alt">
</g>
<g id="remote-control">
</g>
<g id="smartphone-signal">
</g>
<g id="battery-charge">
</g>
<g id="battery-charge-half">
</g>
<g id="battery-charge-full">
</g>
<g id="battery-charging">
</g>
<g id="filter">
</g>
<g id="network-web">
</g>
<g id="chip">
</g>
<g id="preferences-box">
</g>
<g id="preferences-vertical-box">
</g>
<g id="preferences-vertical-box-alt">
</g>
<g id="preferences-box-alt">
</g>
<g id="preferences">
</g>
<g id="preferences-vertical">
</g>
<g id="preferences-vertical-alt">
</g>
<g id="preferences-alt">
</g>
<g id="bluetooth">
</g>
<g id="signal-strength">
</g>
<g id="signal-no">
</g>
<g id="signal-tower-no">
</g>
<g id="signal-tower">
</g>
<g id="signal-no-alt">
</g>
<g id="nut">
</g>
<g id="cogs">
</g>
<g id="cog">
</g>
<g id="cog-dash-left">
</g>
<g id="cog-dash-right">
</g>
<g id="cog-fall">
</g>
<g id="io">
</g>
<g id="browser">
</g>
<g id="browser-add">
</g>
<g id="rss">
</g>
<g id="no-access">
</g>
<g id="notification">
</g>
<g id="devices">
	<g>
		<path d="M57.9,3.3H35.4c-3.4,0-6.2,2.9-6.2,6.2v3H7.1c-0.8,0-1.5,0.7-1.5,1.5v29.8c0,0.8,0.7,1.5,1.5,1.5h22.1v3.2H1.5
			C0.7,48.5,0,49.1,0,50s0.7,1.5,1.5,1.5h27.7v3c0,3.4,2.8,6.2,6.2,6.2h22.5c3.4,0,6.1-2.8,6.1-6.2V9.5C64,6.1,61.3,3.3,57.9,3.3z
			 M8.6,42.3V15.5h20.6v26.8H8.6z M61,54.5c0,1.8-1.4,3.2-3.1,3.2H35.4c-1.7,0-3.2-1.5-3.2-3.2V9.5c0-1.8,1.5-3.2,3.2-3.2h22.5
			c1.7,0,3.1,1.5,3.1,3.2V54.5z"/>
		<ellipse cx="46.7" cy="52.9" rx="2.6" ry="2.6"/>
	</g>
</g>
<g id="notification-alert">
</g>
</svg>
