<?xml version="1.0" encoding="utf-8"?>
<!-- Generator: Adobe Illustrator 20.1.0, SVG Export Plug-In . SVG Version: 6.00 Build 0)  -->
<!DOCTYPE svg PUBLIC "-//W3C//DTD SVG 1.1//EN" "http://www.w3.org/Graphics/SVG/1.1/DTD/svg11.dtd">
<svg version="1.1" xmlns="http://www.w3.org/2000/svg" xmlns:xlink="http://www.w3.org/1999/xlink" x="0px" y="0px"
	 viewBox="0 0 64 64" style="enable-background:new 0 0 64 64;" xml:space="preserve">
<g id="dial">
</g>
<g id="dial-alt">
	<g>
		<path d="M32,0.1C14.4,0.1,0,14.4,0,32s14.4,31.9,32,31.9S64,49.6,64,32S49.6,0.1,32,0.1z M32,60.9c-16,0-29-13-29-28.9
			S16,3.1,32,3.1s29,13,29,28.9S48,60.9,32,60.9z"/>
		<path d="M53.2,23.1C49.8,14.7,41.6,9.2,32,9.2s-17.8,5.4-21.2,13.9c-2.1,0.6-3.8,2.7-3.8,5v7.6c0,2.3,1.7,4.5,3.8,5
			c3.4,8.5,11.6,13.9,21.2,13.9s17.8-5.4,21.2-13.9c2.1-0.6,3.8-2.7,3.8-5v-7.6C57,25.9,55.3,23.7,53.2,23.1z M32,12.2
			c7.8,0,14.6,4.2,17.8,10.8H14.2C17.4,16.4,24.2,12.2,32,12.2z M32,51.8c-7.8,0-14.6-4.2-17.8-10.8h35.7
			C46.6,47.6,39.8,51.8,32,51.8z M54,35.8c0,1.1-1,2.2-1.9,2.2H11.9C11,38,10,36.9,10,35.8v-7.6c0-1.1,1-2.2,1.9-2.2h40.2
			c0,0,0,0,0,0c0,0,0,0,0,0c0.9,0,1.9,1.1,1.9,2.2V35.8z"/>
	</g>
</g>
<g id="connections">
</g>
<g id="atom">
</g>
<g id="atom-alt">
</g>
<g id="cosmic">
</g>
<g id="cosmic-alt">
</g>
<g id="workflows">
</g>
<g id="positive">
</g>
<g id="neuron">
</g>
<g id="sitemap">
</g>
<g id="conditional">
</g>
<g id="sitemap-alt">
</g>
<g id="neuron-alt">
</g>
<g id="flask">
</g>
<g id="clone">
</g>
<g id="infinity">
</g>
<g id="f42">
</g>
</svg>
