<?xml version="1.0" encoding="utf-8"?>
<!-- Generator: Adobe Illustrator 20.1.0, SVG Export Plug-In . SVG Version: 6.00 Build 0)  -->
<!DOCTYPE svg PUBLIC "-//W3C//DTD SVG 1.1//EN" "http://www.w3.org/Graphics/SVG/1.1/DTD/svg11.dtd">
<svg version="1.1" xmlns="http://www.w3.org/2000/svg" xmlns:xlink="http://www.w3.org/1999/xlink" x="0px" y="0px"
	 viewBox="0 0 64 64" style="enable-background:new 0 0 64 64;" xml:space="preserve">
<g id="behance">
</g>
<g id="twitter">
</g>
<g id="vimeo">
</g>
<g id="wordpress">
</g>
<g id="Layer_179">
</g>
<g id="xing">
</g>
<g id="youtube">
</g>
<g id="whatsapp">
</g>
<g id="flickr">
</g>
<g id="dribbble">
	<path d="M63.8,33.7c0-0.6,0-1.1,0-1.7c0-8.5-3.3-16.2-8.8-21.9c0-0.4-0.2-0.9-0.6-1.2c-0.3-0.2-0.6-0.3-0.9-0.3
		C47.9,3.4,40.3,0.2,32,0.2C14.5,0.2,0.2,14.5,0.2,32S14.5,63.8,32,63.8c16.7,0,30.4-12.9,31.7-29.2c0-0.1,0.1-0.2,0.1-0.3
		C63.8,34.1,63.8,33.9,63.8,33.7z M60.8,32.2c-3.4-0.6-11-1.6-18.5-1c-0.9,0.1-1.9,0.3-2.9,0.5c-0.9-2.3-1.7-4.3-2.3-5.6
		c-0.2-0.4-0.3-0.8-0.5-1.2c3.4-1.3,6.3-2.9,9.5-5.2c3.1-2.4,5.8-5.3,7.3-7c4.6,5.1,7.5,11.9,7.5,19.3
		C60.8,32.1,60.8,32.2,60.8,32.2z M51.2,10.6c-1.4,1.6-4,4.4-7,6.7c-3,2.1-5.8,3.6-9,4.9c-3.4-6.3-9-14.4-11.4-17.8
		c2.6-0.8,5.3-1.2,8.1-1.2C39.4,3.2,46.1,6,51.2,10.6z M20.9,5.4c1.9,2.7,7.9,11.3,11.4,17.7c-0.4,0.1-0.7,0.2-1.1,0.3
		c-10.1,3.1-23.9,3.3-27.5,3.3C5.5,17.1,12.1,9.1,20.9,5.4z M3.2,32c0-0.7,0-1.5,0.1-2.2c0.2,0,0.4,0,0.7,0c4.2,0,17.7-0.3,28.1-3.4
		c0.6-0.2,1.1-0.3,1.7-0.5c0.2,0.5,0.4,0.9,0.6,1.4c0.5,1.2,1.3,3,2.1,5.1c-5.1,1.4-10.1,3.7-14.1,6.6c-4.8,3.7-9.2,10-11.1,13
		C6.2,46.7,3.2,39.7,3.2,32z M13.4,54c1.6-2.5,6.1-9.1,10.7-12.7c3.8-2.7,8.6-4.9,13.4-6.2c1.1,2.9,2.2,6.2,3.1,9.4
		c1.6,5.4,2.6,11.7,2.9,13.8c-3.5,1.6-7.4,2.4-11.5,2.4C24.9,60.8,18.4,58.2,13.4,54z M46.4,56.9c-0.4-2.8-1.3-8.3-2.8-13.2
		c-0.9-3.1-2-6.3-3.1-9.2c0.7-0.1,1.4-0.2,2.1-0.3c7.4-0.5,15,0.6,18.1,1.1C59.6,44.5,54.1,52.5,46.4,56.9z"/>
</g>
<g id="facebook">
</g>
<g id="foursquare">
</g>
<g id="github">
</g>
<g id="github-alt">
</g>
<g id="google-plus">
</g>
<g id="google">
</g>
<g id="joomla">
</g>
<g id="soundcloud">
</g>
<g id="instagram">
</g>
<g id="linkedin">
</g>
<g id="pagekit">
</g>
<g id="pinterest">
</g>
<g id="windows">
</g>
<g id="bronzelabs">
</g>
<g id="apple">
</g>
<g id="android">
</g>
<g id="mwkr-alt">
</g>
<g id="mwkr">
</g>
<g id="deviantart">
</g>
<g id="deviantart-alt">
</g>
</svg>
