<?xml version="1.0" encoding="utf-8"?>
<!-- Generator: Adobe Illustrator 20.1.0, SVG Export Plug-In . SVG Version: 6.00 Build 0)  -->
<!DOCTYPE svg PUBLIC "-//W3C//DTD SVG 1.1//EN" "http://www.w3.org/Graphics/SVG/1.1/DTD/svg11.dtd">
<svg version="1.1" xmlns="http://www.w3.org/2000/svg" xmlns:xlink="http://www.w3.org/1999/xlink" x="0px" y="0px"
	 viewBox="0 0 64 64" style="enable-background:new 0 0 64 64;" xml:space="preserve">
<g id="dial">
	<g>
		<path d="M62.5,31.1h-4.9c-0.1-2.6-0.6-5-1.4-7.3l5-2.1c0.8-0.3,1.1-1.2,0.8-2c-0.3-0.8-1.2-1.1-2-0.8l-5,2.1c-1-2.1-2.3-4-3.8-5.8
			l3.9-3.9c0.6-0.6,0.6-1.5,0-2.1c-0.6-0.6-1.5-0.6-2.1,0L49.2,13c-1.7-1.5-3.6-2.8-5.7-3.9L45.6,4c0.3-0.8-0.1-1.6-0.8-2
			c-0.8-0.3-1.6,0.1-2,0.8L40.7,8c-2.3-0.8-4.7-1.3-7.2-1.4c0,0,0,0,0,0V1.5C33.5,0.7,32.8,0,32,0s-1.5,0.7-1.5,1.5v5.1
			c0,0,0,0,0,0.1c-2.2,0.2-4.2,0.6-6.2,1.3l-2.1-5.1c-0.3-0.8-1.2-1.1-2-0.8c-0.8,0.3-1.1,1.2-0.8,2l2.1,5.1c-2.1,1-4,2.3-5.7,3.9
			L12,9.1c-0.6-0.6-1.5-0.6-2.1,0c-0.6,0.6-0.6,1.5,0,2.1l3.9,3.9c-1.5,1.7-2.8,3.7-3.8,5.8l-5-2.1c-0.8-0.3-1.6,0-2,0.8
			c-0.3,0.8,0,1.6,0.8,2l5,2.1C8,26,7.5,28.5,7.4,31.1H1.5c-0.8,0-1.5,0.7-1.5,1.5s0.7,1.5,1.5,1.5h6c0.2,2.2,0.6,4.3,1.3,6.3
			l-5,2.1c-0.8,0.3-1.1,1.2-0.8,2c0.2,0.6,0.8,0.9,1.4,0.9c0.2,0,0.4,0,0.6-0.1l5-2.1c1,2.1,2.3,4,3.8,5.8l-3.9,3.9
			c-0.6,0.6-0.6,1.5,0,2.1c0.3,0.3,0.7,0.4,1.1,0.4c0.4,0,0.8-0.1,1.1-0.4l3.8-3.9c1.7,1.5,3.6,2.8,5.7,3.9L19.4,60
			c-0.3,0.8,0.1,1.6,0.8,2c0.2,0.1,0.4,0.1,0.6,0.1c0.6,0,1.2-0.4,1.4-0.9l2.1-5.1c2,0.7,4.1,1.1,6.2,1.3c0,0,0,0,0,0.1v5.1
			c0,0.8,0.7,1.5,1.5,1.5s1.5-0.7,1.5-1.5v-5.1c0,0,0,0,0,0c2.5-0.1,4.9-0.6,7.2-1.4l2.1,5.1c0.2,0.6,0.8,0.9,1.4,0.9
			c0.2,0,0.4,0,0.6-0.1c0.8-0.3,1.1-1.2,0.8-2l-2.1-5.1c2.1-1,4-2.3,5.7-3.9L53,55c0.3,0.3,0.7,0.4,1.1,0.4c0.4,0,0.8-0.1,1.1-0.4
			c0.6-0.6,0.6-1.5,0-2.1l-3.9-3.9c1.5-1.7,2.8-3.7,3.8-5.8l5,2.1c0.2,0.1,0.4,0.1,0.6,0.1c0.6,0,1.1-0.3,1.4-0.9
			c0.3-0.8,0-1.6-0.8-2l-5-2.1c0.7-2,1.1-4.1,1.3-6.3h5c0.8,0,1.5-0.7,1.5-1.5S63.3,31.1,62.5,31.1z M32.5,54.5
			c-12.2,0-22.1-10.1-22.1-22.4S20.3,9.6,32.5,9.6S54.6,19.7,54.6,32S44.7,54.5,32.5,54.5z"/>
		<path d="M43.5,22.9h-22c-0.8,0-1.5,0.7-1.5,1.5s0.7,1.5,1.5,1.5h22c0.8,0,1.5-0.7,1.5-1.5S44.3,22.9,43.5,22.9z"/>
		<path d="M43.5,38.2h-22c-0.8,0-1.5,0.7-1.5,1.5s0.7,1.5,1.5,1.5h22c0.8,0,1.5-0.7,1.5-1.5S44.3,38.2,43.5,38.2z"/>
	</g>
</g>
<g id="dial-alt">
</g>
<g id="connections">
</g>
<g id="atom">
</g>
<g id="atom-alt">
</g>
<g id="cosmic">
</g>
<g id="cosmic-alt">
</g>
<g id="workflows">
</g>
<g id="positive">
</g>
<g id="neuron">
</g>
<g id="sitemap">
</g>
<g id="conditional">
</g>
<g id="sitemap-alt">
</g>
<g id="neuron-alt">
</g>
<g id="flask">
</g>
<g id="clone">
</g>
<g id="infinity">
</g>
<g id="f42">
</g>
</svg>
