<?xml version="1.0" encoding="utf-8"?>
<!-- Generator: Adobe Illustrator 20.1.0, SVG Export Plug-In . SVG Version: 6.00 Build 0)  -->
<!DOCTYPE svg PUBLIC "-//W3C//DTD SVG 1.1//EN" "http://www.w3.org/Graphics/SVG/1.1/DTD/svg11.dtd">
<svg version="1.1" xmlns="http://www.w3.org/2000/svg" xmlns:xlink="http://www.w3.org/1999/xlink" x="0px" y="0px"
	 viewBox="0 0 64 64" style="enable-background:new 0 0 64 64;" xml:space="preserve">
<g id="fairground">
</g>
<g id="tent">
</g>
<g id="tree">
</g>
<g id="trees">
</g>
<g id="tree-alt">
</g>
<g id="butterfly">
</g>
<g id="sunrise">
</g>
<g id="waterdrop">
</g>
<g id="map">
</g>
<g id="map-alt">
</g>
<g id="earth">
	<path d="M32,0C14.4,0,0,14.4,0,32s14.4,32,32,32s32-14.3,32-32S49.6,0,32,0z M61,31.6c-0.1,0.1-0.3,0.2-0.4,0.3
		c-0.2,0.3-0.5,0.5-0.8,0.8c-0.3-0.3-0.6-0.4-0.8-0.4c-0.1-0.1-0.3-0.3-0.5-0.6c-0.1-0.2-0.3-0.4-0.5-0.6c-0.8-0.9-1.3-1.3-1.7-1.5
		c-0.1-0.1-0.2-0.1-0.3-0.2l-0.1-0.1c-0.4-0.3-1.7-1.3-3.2-0.3c-0.9,0.6-1.1,1.7-1.4,2.6c-0.1,0.3-0.1,0.6-0.2,0.8
		c-0.3,0.7-0.3,1-0.4,1.4c0,0.2-0.1,0.5-0.2,1c-0.1,0.5-0.2,0.9-0.2,1.2c-0.1,0.5-0.1,0.9-0.4,2c-0.4,1.6-0.5,1.9-1.3,3.7l-0.1,0.2
		c-0.6,1.2-0.6,1.7-0.7,2.3c0,0.2,0,0.5-0.3,1.2c-0.2,0.6-0.3,0.9-0.4,1.1c0,0.1-0.1,0.2-0.1,0.3c-0.1,0.1-0.2,0.3-0.3,0.7
		c-0.3,0.5-0.4,0.6-0.8,0.9c-0.3,0.2-0.6,0.5-1,0.9c-0.2,0.2-0.3,0.4-0.4,0.4c-0.1,0-0.1,0-0.2,0l-0.3,0.1c-0.1,0-0.2,0-0.3,0.1
		c-0.2-0.2-0.4-0.6-0.7-1.2c-0.1-0.3-0.2-0.6-0.4-1.1c-0.1-0.4-0.3-0.9-0.5-1.6c-0.3-0.8-0.5-1.3-0.7-1.7c-0.1-0.3-0.2-0.5-0.3-0.8
		c-0.1-0.3-0.2-0.5-0.3-0.8c-0.1-0.2-0.2-0.4-0.3-0.6c-0.1-0.4-0.3-1.3-1.2-1.4c-0.2-0.1-0.3-0.2-0.5-0.2c-0.2-0.1-0.3-0.1-0.4-0.3
		c-0.7-0.6-1.1-0.8-1.5-1.1c0,0-0.1-0.1-0.1-0.2c-0.2-0.3-0.6-0.8-1.3-1.5c-1.1-1.1-2.1-1.2-3.1-0.4c-0.1,0-0.2,0-0.3,0
		c0,0,0,0,0-0.1c-0.1-0.1-0.3-0.3-0.5-0.5c-0.3-0.3-0.3-0.3-0.3-0.3c0-0.1,0-0.4,0-0.7c0-0.2,0-0.5,0-0.8c-0.1-1.5-0.8-2.8-1.3-3.8
		c-0.1-0.3-0.3-0.6-0.4-0.7c-0.2-0.5-0.4-1-0.9-1.3c0-0.1,0-0.1,0-0.2c0-0.4-0.1-0.9-0.1-1.5c0-0.3,0-0.5,0-0.5c0,0,0.1-0.1,0.1-0.1
		c0.2-0.2,0.4-0.4,0.7-0.7c0.2-0.3,0.4-0.5,0.6-0.8c0.3-0.5,0.6-0.8,0.9-1.2c0.8-0.8,1.1-2.1,1.1-4.4c0-0.1,0.1-0.2,0.2-0.3
		c0.1,0.1,0.1,0.1,0.2,0.2c0.2,0.2,0.5,0.5,0.8,0.7c0.5,0.3,1.1,1,1.9,1.9l0.3,0.3c0.8,0.9,1.6,0.8,2,0.6c0.6,0,1.1-0.2,1.5-0.6
		c0.5-0.5,0.4-1.1,0.4-1.5c0.1-0.4,0.2-0.8,0.3-1.2c0-0.2,0.1-0.4,0.1-0.5c0.2-0.3,0.6-1,0.3-2.8c0.2,0.1,0.5,0.2,0.7,0.2l0.2,0.1
		c0.7,0.2,1.2,0.2,1.6,0.1c0.1,0,0.1,0,0.2,0c0.6,0,1.3-0.2,2.8-1.4c0.6-0.4,0.9-1.2,1.1-2.4c0-0.2,0-0.4,0-0.6L46,9.5
		c-0.1-0.4-0.4-1.6-0.5-2.3c0-0.2,0.1-0.5,0.2-0.8C54.7,11.3,60.8,20.7,61,31.6z M26.2,6.2c0.1,0.6,0.4,1.1,0.7,1.5
		c0,0.1,0.1,0.1,0.1,0.2c0,0.1,0,0.2,0,0.3c-0.2,0.1-0.5,0.3-0.6,0.4c-0.5-0.1-1.1,0-1.8,0.1c-0.1-0.1-0.3-0.2-0.4-0.3
		c-0.8-0.4-1.7-0.1-2.9,0.5c-0.6,0.3-1.1,0.5-1.6,0.7c0.1-0.3,0.1-0.6,0-1c0-0.2-0.1-0.7-0.4-1c-0.1-0.3-0.1-0.5-0.1-0.7
		c0,0,0,0,0,0c0.1-0.2,0.2-0.4,0.3-0.5c0.1-0.2,0.2-0.3,0.3-0.5c2.1-1,4.4-1.8,6.8-2.2c-0.1,0.2-0.2,0.4-0.2,0.6
		C26,4.8,26,5.4,26.2,6.2z M8.4,15.2c0,0,0,0.1,0,0.1c-0.2,0.4-0.3,1.2-0.1,3.2l-0.1,1.7c0,0,0,1.1,0,2.2c0,0.4,0.1,0.7,0.1,1
		c0.1,0.5,0.1,0.6,0,0.8C8,25,8.1,25.7,8.2,26.2c0,0.1,0.1,0.4,0.1,0.4c-0.3,1,0.1,1.8,0.3,2.2c0,0.1,0.1,0.1,0.1,0.1
		c0,0.3,0,0.6,0,0.9c-0.3,0.3-0.7,0.8-1.1,1.3c-0.2,0.3-0.8,0.6-1.2,0.8H5.5C4.7,32,4,32.7,4,33.5v0.7l-0.8,1C3.1,34.2,3,33.1,3,32
		C3,25.7,5,19.9,8.4,15.2z M4.1,39.9l0.5,0.4c0,0,0.3-0.3,1.1-0.5c0.4-0.1,0.8-0.2,1-0.2c0.2,0.2,0.3,0.6,0.4,1.2c0.1,0.3,0,0.7,0,1
		c-0.1,0.6-0.2,1.3,0.1,2c0,0.1,0.1,0.2,0.1,0.3c0.2,0.5,0.5,1.5,2.1,2c0.9,0.3,2.1,0.7,2.2,0.7c0.1,0,0.2,0.1,0.4,0.1
		c0.3,0,0.8,0.1,1.2,0.2c0.6,0.7,1.5,0.7,2.1,0.6c0.5,0,1,0,1.4,0c0.5,0,1,0.1,1.6,0c0.2,0,0.9,0,1.4,0.8c0.8,1,0.8,1.1,0.8,1.2
		c0,0,0,0.1,0,0.1c-0.1,0.4-0.3,1.1,0.1,2.1c0.2,0.4,0.5,0.8,0.6,1c0.2,0.3,0.2,0.3,0.2,0.6c-0.2,1.4,0,3.4,0.5,4.3
		c0,0.3,0,0.8,0,1.5C13.2,55.9,6.6,48.7,4.1,39.9z M32,61c-2.5,0-4.9-0.3-7.2-0.9c0.2-2.9-0.1-3.5-0.3-3.8c-0.1-0.4-0.3-1.5-0.2-2.5
		c0.3-1.7-0.4-2.5-0.8-3c-0.1-0.1-0.2-0.2-0.2-0.3c0,0,0-0.1,0-0.1c0.1-0.3,0.2-0.7,0.1-1.2c-0.2-1.1-0.6-1.6-1.4-2.7
		c-1-1.4-2.6-2.1-4.2-1.9c-0.3,0-0.6,0-1,0c-0.5,0-1-0.1-1.7,0c-0.2-0.1-0.4-0.3-0.6-0.4c-0.7-0.3-1.6-0.4-2-0.4
		C12,43.6,11,43.2,10.2,43c0,0,0,0,0,0c0,0,0,0,0,0c0-0.1-0.1-0.3-0.2-0.4c0-0.1,0-0.3,0-0.5c0.1-0.5,0.1-1.1,0-1.9
		c-0.2-1.3-0.6-2.1-1.2-2.9c-0.8-1-1.8-1-2.9-0.8l0.7-0.9C6.8,35.5,6.9,35.2,7,35c0.1,0,0.2,0,0.3-0.1c0.3-0.1,1.9-0.8,2.7-2
		c0.6-0.8,1.2-1.5,1.2-1.5c0.3-0.3,0.4-0.7,0.4-1.1c0,0,0-0.9,0-1.5c0-0.6-0.2-1.1-0.4-1.5c0,0,0-0.1-0.1-0.1c0.1-0.6,0.1-1.2,0-1.6
		c0-0.2-0.1-0.4-0.1-0.5c0.3-0.9,0.3-1.6,0.2-2.2c0-0.2-0.1-0.4-0.1-0.7c0-0.9,0-1.9,0-1.9l0.1-1.8c0-0.1,0-0.2,0-0.3
		c-0.1-0.7-0.1-1.5-0.1-1.9c0.3-0.7,0.2-1.4,0.1-1.8c0-0.1,0-0.1,0-0.2c0.1-0.3,0.4-0.8,0.6-1.2c0.4-0.6,0.2-1.4-0.3-1.8
		c1.4-1.4,2.9-2.6,4.5-3.6c0,0.1,0,0.2,0.1,0.3c0,0.2,0.1,0.6,0.2,0.9c-0.1,0.1-0.1,0.2-0.2,0.4c-0.2,0.3-0.2,0.3-0.3,0.5
		c-0.2,0.2-0.4,0.4-0.7,0.9c-0.6,0.9-0.6,1.8,0,2.5c0.4,0.5,1.1,0.8,1.8,0.8c0.3,0,0.7-0.1,1-0.2c0.5-0.2,1-0.4,1.3-0.8
		c0.4-0.2,1.2-0.7,3.1-1.4c0.2-0.1,0.3-0.1,0.4-0.2c0.4,0.3,1,0.4,1.8,0.3c0.9-0.1,1.3-0.1,1.4-0.1c0.4,0.2,0.9,0.1,1.3-0.1
		c0,0,0.8-0.5,1.9-1.1c0.7-0.4,1.1-0.9,1.2-1.6c0.1-0.6-0.2-1.1-0.4-1.4c-0.1-0.5-0.3-0.9-0.5-1.2c-0.1-0.1-0.2-0.4-0.2-0.4
		c-0.1-0.4-0.1-0.6,0-0.8c0.2-0.1,0.4-0.3,0.5-0.4c0.7-0.2,1.2-0.9,1.1-1.6c0.4,0,0.8,0,1.2,0c3.9,0,7.6,0.8,11,2.2
		c-0.3,0.6-0.6,1.5-0.5,2.3c0.1,1,0.5,2.6,0.6,2.7l0.5,2.1c0,0.1-0.1,0.3-0.1,0.4c-0.6,0.4-0.9,0.6-1,0.7c-0.2,0-0.3,0-0.5,0.1
		c0,0-0.1,0-0.1,0l-0.2-0.1C41,13.2,40.3,13,39.5,13c-0.1,0-0.2,0-0.3,0c-1.4-0.2-2,0.5-2.2,1.1c-0.1,0.2-0.2,0.6-0.1,2
		c0,0,0,0.1,0,0.1c0.1,0.4,0.1,0.8,0.1,1c-0.3,0.5-0.4,1-0.5,1.5c0,0.1,0,0.1,0,0.2c-0.7-0.7-1.2-1.2-1.7-1.5
		c-0.1-0.1-0.3-0.2-0.4-0.4c-0.7-0.6-1.9-1.8-3.3-1.1C30,16.6,29,18.3,29,19.2c0,0,0,0.1,0,0.1c0,1.9-0.2,2.4-0.2,2.4
		c-0.6,0.6-1,1.2-1.3,1.7c-0.1,0.2-0.3,0.4-0.5,0.7c0,0.1-0.1,0.1-0.2,0.2c-0.7,0.6-1.3,1.3-1.1,3.2c0.1,0.6,0.1,1,0.1,1.4
		c0.1,1,0.1,1.8,0.9,2.3c0.1,0,0.1,0.1,0.2,0.1c0.1,0.3,0.3,0.6,0.5,1c0.4,0.7,0.9,1.7,0.9,2.5c0,0.3,0,0.5,0,0.7
		c0,1.2,0.1,1.9,1.2,3.1c0.2,0.2,0.3,0.3,0.4,0.4c0.8,0.8,1.2,0.9,2.4,1c0.6,0,1-0.1,1.3-0.2c0.4,0.4,0.6,0.7,0.8,0.9
		c0.2,0.3,0.5,0.7,1,0.9c0.4,0.2,0.6,0.4,1.2,0.8c0.5,0.4,0.9,0.6,1.1,0.7c0,0,0.1,0,0.1,0c0,0,0.1,0.1,0.1,0.1
		c0.1,0.4,0.3,0.6,0.4,0.8c0.1,0.1,0.1,0.2,0.2,0.4c0.1,0.3,0.2,0.6,0.4,1c0.2,0.4,0.4,0.9,0.6,1.6c0.2,0.6,0.4,1.1,0.5,1.5
		c0.2,0.5,0.3,1,0.6,1.5c1,1.9,1.7,2.4,1.9,2.5c0.5,0.3,0.8,0.4,1.2,0.4c0.2,0,0.5,0,0.7-0.1c0.1,0,0.2-0.1,0.4-0.1l0.2,0
		c1-0.2,1.4-0.4,2.3-1.4c0.2-0.2,0.4-0.4,0.6-0.6c0.5-0.4,1-0.8,1.6-1.9c0.2-0.3,0.2-0.5,0.3-0.6c0.1-0.2,0.1-0.2,0.3-0.7
		c0.1-0.2,0.2-0.5,0.4-1c0.4-1.1,0.4-1.5,0.5-2c0-0.2,0-0.4,0.4-1.2l0.1-0.2c0.8-1.8,1.1-2.3,1.5-4.2c0.3-1.2,0.4-1.7,0.5-2.2
		c0-0.3,0.1-0.6,0.2-1.1c0.1-0.6,0.2-0.9,0.2-1.2c0-0.3,0-0.3,0.2-0.8c0.1-0.4,0.2-0.7,0.3-1.1c0-0.1,0.1-0.3,0.1-0.5
		c0.1,0.1,0.2,0.1,0.3,0.2c0.3,0.2,0.6,0.4,1.1,0.9c0.2,0.2,0.3,0.4,0.5,0.5c0.4,0.5,0.7,0.9,1.2,1.2c0,0.3,0.2,0.6,0.5,0.9
		c0.2,0.3,0.7,0.6,1.4,0.6c0.2,0,0.7,0,1.5-0.5C59,49.9,46.8,61,32,61z"/>
</g>
<g id="earth-no">
</g>
<g id="meteor">
</g>
<g id="sun">
</g>
<g id="sun-dim">
</g>
<g id="umbrella">
</g>
<g id="umbrella-alt">
</g>
<g id="gps">
</g>
<g id="fire">
</g>
<g id="target-sight">
</g>
<g id="gps-area">
</g>
<g id="gps-alt">
</g>
<g id="target">
</g>
<g id="star">
</g>
<g id="lightning">
</g>
</svg>
