<?xml version="1.0" encoding="utf-8"?>
<!-- Generator: Adobe Illustrator 20.1.0, SVG Export Plug-In . SVG Version: 6.00 Build 0)  -->
<!DOCTYPE svg PUBLIC "-//W3C//DTD SVG 1.1//EN" "http://www.w3.org/Graphics/SVG/1.1/DTD/svg11.dtd">
<svg version="1.1" xmlns="http://www.w3.org/2000/svg" xmlns:xlink="http://www.w3.org/1999/xlink" x="0px" y="0px"
	 viewBox="0 0 64 64" style="enable-background:new 0 0 64 64;" xml:space="preserve">
<g id="text-height">
</g>
<g id="font">
</g>
<g id="text">
</g>
<g id="italic">
</g>
<g id="strikethrough">
</g>
<g id="paragraph">
</g>
<g id="bold">
</g>
<g id="quote-right">
</g>
<g id="hashtag">
</g>
<g id="anchor-handle">
</g>
<g id="box">
</g>
<g id="fullscreen">
</g>
<g id="fullscreen-alt">
</g>
<g id="golden-ratio">
</g>
<g id="hexgrid">
</g>
<g id="box-points">
</g>
<g id="box-points-move">
</g>
<g id="box-points-move-alt">
</g>
<g id="hex_1_">
</g>
<g id="hex-diamond">
</g>
<g id="artboards-vertical">
</g>
<g id="artboards">
</g>
<g id="artboards-alt-vertical">
</g>
<g id="artboards-alt">
</g>
<g id="scale">
</g>
<g id="pencil">
</g>
<g id="fill">
</g>
<g id="artist-mug">
</g>
<g id="pen">
</g>
<g id="calligraphy-pen-tip">
</g>
<g id="calligraphy-pen_1_">
</g>
<g id="paint-pallette">
</g>
<g id="tools-cross">
</g>
<g id="edit-tools">
	<g>
		<path d="M49.5,47.5c-0.8,0-1.5,0.7-1.5,1.5v9H3V9h39c0.8,0,1.5-0.7,1.5-1.5S42.8,6,42,6H1.5C0.7,6,0,6.6,0,7.5v52
			C0,60.3,0.7,61,1.5,61h48c0.8,0,1.5-0.7,1.5-1.5V49C51,48.1,50.3,47.5,49.5,47.5z"/>
		<path d="M45.6,7.7L18.8,34.4c-0.3,0.3-0.4,0.7-0.4,1.1s0.2,0.8,0.4,1.1l8.6,8.5c0.3,0.3,0.7,0.4,1.1,0.4s0.8-0.1,1.1-0.4l31-31
			c0.3-0.3,0.4-0.7,0.4-1.1s-0.2-0.8-0.4-1.1L52,3.5c-0.6-0.6-1.5-0.6-2.1,0L45.6,7.7C45.6,7.7,45.6,7.7,45.6,7.7
			C45.6,7.7,45.6,7.7,45.6,7.7z M50.9,6.7l6.4,6.4L28.4,41.9L22,35.5l3.2-3.2l2.2,2.1c0.3,0.3,0.7,0.4,1.1,0.4
			c0.4,0,0.8-0.1,1.1-0.4c0.6-0.6,0.6-1.5,0-2.1l-2.1-2.1l3.2-3.2l2.2,2.1c0.3,0.3,0.7,0.4,1.1,0.4c0.4,0,0.8-0.1,1.1-0.4
			c0.6-0.6,0.6-1.5,0-2.1l-2.1-2.1l3.2-3.2l2.2,2.1c0.3,0.3,0.7,0.4,1.1,0.4c0.4,0,0.8-0.1,1.1-0.4c0.6-0.6,0.6-1.5,0-2.1l-2.1-2.1
			l3.2-3.2l2.2,2.1c0.3,0.3,0.7,0.4,1.1,0.4c0.4,0,0.8-0.1,1.1-0.4c0.6-0.6,0.6-1.5,0-2.1l-2.1-2.1l3.2-3.2l2.2,2.1
			c0.3,0.3,0.7,0.4,1.1,0.4c0.4,0,0.8-0.1,1.1-0.4c0.6-0.6,0.6-1.5,0-2.1l-2.1-2.1L50.9,6.7z"/>
		<path d="M16,15c0.8,0,1.5-0.7,1.5-1.5S16.8,12,16,12H7c-0.8,0-1.5,0.7-1.5,1.5S6.2,15,7,15h3v38H7c-0.8,0-1.5,0.7-1.5,1.5
			S6.2,56,7,56h9c0.8,0,1.5-0.7,1.5-1.5S16.8,53,16,53h-3V15H16z"/>
		<path d="M62.5,22.3c-2-2-5.2-2-7.1,0L31.7,45.7c-0.2,0.2-0.3,0.3-0.4,0.6L28.5,54c-0.2,0.5-0.1,1.1,0.3,1.6
			c0.3,0.3,0.7,0.5,1.1,0.5c0.2,0,0.3,0,0.5-0.1l7.8-2.6c0.2-0.1,0.4-0.2,0.6-0.4l23.8-23.6c0,0,0,0,0,0
			C64.5,27.4,64.5,24.2,62.5,22.3z M36.9,50.6l-4.5,1.5l1.6-4.5l19.4-19.2l2.9,2.9L36.9,50.6z M60.4,27.2l-1.9,1.9l-2.9-2.9l1.9-1.9
			c0.8-0.8,2.1-0.8,2.9,0C61.2,25.2,61.2,26.5,60.4,27.2z"/>
	</g>
</g>
<g id="pencil-ruler">
</g>
<g id="ruler-measure">
</g>
<g id="measure">
</g>
<g id="code">
</g>
<g id="move">
</g>
<g id="external">
</g>
<g id="terminal">
</g>
<g id="thumbnails">
</g>
</svg>
