<?xml version="1.0" encoding="utf-8"?>
<!-- Generator: Adobe Illustrator 20.1.0, SVG Export Plug-In . SVG Version: 6.00 Build 0)  -->
<!DOCTYPE svg PUBLIC "-//W3C//DTD SVG 1.1//EN" "http://www.w3.org/Graphics/SVG/1.1/DTD/svg11.dtd">
<svg version="1.1" xmlns="http://www.w3.org/2000/svg" xmlns:xlink="http://www.w3.org/1999/xlink" x="0px" y="0px"
	 viewBox="0 0 64 64" style="enable-background:new 0 0 64 64;" xml:space="preserve">
<g id="bulb">
</g>
<g id="bulb-on">
</g>
<g id="bulb-alt">
</g>
<g id="bulb-on-alt">
</g>
<g id="energy-bulb">
</g>
<g id="toasting">
</g>
<g id="toasted">
</g>
<g id="binoculars">
</g>
<g id="gift">
</g>
<g id="shaver">
</g>
<g id="candle">
</g>
<g id="shower">
</g>
<g id="bomb">
</g>
<g id="joystick">
</g>
<g id="megaphone">
</g>
<g id="chestdraw">
</g>
<g id="armchair">
</g>
<g id="cardboard-box">
</g>
<g id="bath-shower">
</g>
<g id="diamond">
</g>
<g id="cassette">
</g>
<g id="iron">
</g>
<g id="wash">
</g>
<g id="keyboard-keys">
</g>
<g id="earphones">
	<path d="M64,40.8c0-3.9-2.5-6.4-6.8-6.7v-0.8c0-3.3-1.8-6.9-5.2-7.5c-0.7-10.2-9.2-18-20-18c-10.7,0-19.2,7.7-20,17.8
		c-3.3,0-5.2,2.8-5.2,7.6v0.8C2.4,34.4,0,37,0,41.2c0,4.4,2.4,7,6.8,7.4v0.6c0,1.9,0,7,5.3,7h4.6c0.8,0,1.5-0.7,1.5-1.5V27.2
		c0-0.8-0.7-1.5-1.5-1.5H15c0.7-8.6,7.8-14.8,17-14.8s16.3,6.3,17,14.8h-1.7c-0.8,0-1.5,0.7-1.5,1.5v27.5c0,0.8,0.7,1.5,1.5,1.5h4.6
		c5.3,0,5.3-5.1,5.3-7v-1.7C61.5,47.2,64,44.8,64,40.8z M3,41.2c0-1.6,0.4-3.8,3.8-4.1v8.5C3.5,45.2,3,43.1,3,41.2z M15.2,53.2h-3.1
		c-1.5,0-2.3-0.3-2.3-4v-16c0-1.7,0.3-4.6,2.3-4.6h3.2V53.2z M54.2,49.2c0,3.7-0.9,4-2.3,4h-3.1V28.7h2.1c2.4,0,3.3,2.7,3.3,4.6
		V49.2z M57.2,44.5v-7.4C61,37.5,61,40,61,40.8S61,44.2,57.2,44.5z"/>
</g>
<g id="lifebuoy">
</g>
<g id="calculator">
</g>
<g id="safe">
</g>
<g id="balloon">
</g>
<g id="cake">
</g>
<g id="baseball">
</g>
<g id="football-american">
</g>
<g id="football">
</g>
<g id="anchor">
</g>
<g id="compact-disc">
</g>
<g id="bbq">
</g>
<g id="coffee-machine">
</g>
<g id="teapot">
</g>
<g id="outdoor-stove">
</g>
<g id="pram">
</g>
<g id="paintbrush">
</g>
<g id="stamp">
</g>
<g id="eyedrop">
</g>
<g id="musical-note">
</g>
<g id="magnet">
</g>
<g id="alarm-bell">
</g>
<g id="globe">
</g>
<g id="key">
</g>
<g id="ink">
</g>
<g id="paperclip">
</g>
<g id="paint-roller">
</g>
<g id="keyboard">
</g>
</svg>
