<?xml version="1.0" encoding="utf-8"?>
<!-- Generator: Adobe Illustrator 20.1.0, SVG Export Plug-In . SVG Version: 6.00 Build 0)  -->
<!DOCTYPE svg PUBLIC "-//W3C//DTD SVG 1.1//EN" "http://www.w3.org/Graphics/SVG/1.1/DTD/svg11.dtd">
<svg version="1.1" xmlns="http://www.w3.org/2000/svg" xmlns:xlink="http://www.w3.org/1999/xlink" x="0px" y="0px"
	 viewBox="0 0 64 64" style="enable-background:new 0 0 64 64;" xml:space="preserve">
<g id="camera">
</g>
<g id="video">
</g>
<g id="step-backward">
</g>
<g id="fast-backward">
</g>
<g id="backward">
</g>
<g id="play">
</g>
<g id="stop">
</g>
<g id="pause">
</g>
<g id="record">
</g>
<g id="eject">
	<g>
		<path d="M11.4,45h41.2c0.5,0,1-0.3,1.3-0.8s0.2-1.1,0-1.5L33.3,9.8C33,9.3,32.5,9.1,32,9.1s-1,0.3-1.3,0.7L10.1,42.7
			c-0.3,0.5-0.3,1,0,1.5S10.9,45,11.4,45z M32,13.4L49.9,42H14.1L32,13.4z"/>
		<path d="M53,51H11c-0.8,0-1.5,0.7-1.5,1.5S10.2,54,11,54h42c0.8,0,1.5-0.7,1.5-1.5S53.8,51,53,51z"/>
	</g>
</g>
<g id="forward">
</g>
<g id="fast-forward">
</g>
<g id="step-forward">
</g>
<g id="repeat">
</g>
<g id="repeat-one">
</g>
<g id="shuffle">
</g>
<g id="mute">
</g>
<g id="sound-none">
</g>
<g id="sound-low">
</g>
<g id="sound-high">
</g>
<g id="step-backward-circle">
</g>
<g id="fast-backward-circle">
</g>
<g id="backward-circle">
</g>
<g id="play-circle">
</g>
<g id="stop-circle">
</g>
<g id="pause-circle">
</g>
<g id="record-circle">
</g>
<g id="eject-circle">
</g>
<g id="forward-circle">
</g>
<g id="fast-forward-circle">
</g>
<g id="step-forward-circle">
</g>
</svg>
