<?xml version="1.0" encoding="utf-8"?>
<!-- Generator: Adobe Illustrator 20.1.0, SVG Export Plug-In . SVG Version: 6.00 Build 0)  -->
<!DOCTYPE svg PUBLIC "-//W3C//DTD SVG 1.1//EN" "http://www.w3.org/Graphics/SVG/1.1/DTD/svg11.dtd">
<svg version="1.1" xmlns="http://www.w3.org/2000/svg" xmlns:xlink="http://www.w3.org/1999/xlink" x="0px" y="0px"
	 viewBox="0 0 64 64" style="enable-background:new 0 0 64 64;" xml:space="preserve">
<g id="user">
</g>
<g id="users">
</g>
<g id="comment">
</g>
<g id="commenting">
</g>
<g id="comments">
</g>
<g id="comments-alt">
</g>
<g id="commenting-alt">
</g>
<g id="comment-alt">
</g>
<g id="face-happy">
</g>
<g id="face-ok">
</g>
<g id="face-unhappy">
</g>
<g id="mail">
</g>
<g id="phone">
</g>
<g id="fingerprint">
</g>
<g id="info">
</g>
<g id="question">
</g>
<g id="warning">
</g>
<g id="alert">
</g>
<g id="headset">
</g>
<g id="skull">
</g>
<g id="baby">
</g>
<g id="eye">
	<g>
		<path d="M63.9,31.4l-1.5,0.2L63.9,31.4C63.9,31.3,63.9,31.3,63.9,31.4c0-0.1,0-0.3-0.1-0.5c0-0.1-0.1-0.2-0.1-0.2
			c0-0.1-0.1-0.1-0.1-0.2c-5.9-11.4-18.6-19-31.6-19c-13,0-25.7,7.6-31.6,18.9c-0.1,0.1-0.1,0.2-0.1,0.3c0,0,0,0.1-0.1,0.1l0,0
			c-0.1,0.2-0.1,0.4-0.1,0.5C0,31.5,0,31.7,0,32c0,0.3,0,0.5,0.1,0.7c0,0.1,0,0.3,0.1,0.4c0,0.1,0.1,0.2,0.1,0.2
			c0,0.1,0.1,0.2,0.1,0.2l0,0c5.9,11.4,18.7,19,31.6,19c13,0,25.7-7.6,31.6-18.9c0.1-0.1,0.1-0.2,0.1-0.3c0,0,0-0.1,0.1-0.1h0
			c0.1-0.2,0.1-0.4,0.1-0.5c0,0,0,0,0-0.1c0-0.1,0.1-0.4,0.1-0.6C64,31.8,64,31.6,63.9,31.4z M61,32.1C61,32.1,61,32.2,61,32.1
			c0,0.1-0.1,0.2-0.1,0.2C55.4,42.6,43.9,49.6,32,49.6c-11.8,0-23.4-6.9-28.9-17.2c0-0.1,0-0.1-0.1-0.2c0,0,0-0.1,0-0.1l0,0l0,0
			l0-0.1c0,0,0-0.1,0-0.1c0,0,0,0,0,0c0-0.1,0-0.1,0.1-0.2C8.6,21.3,20.2,14.4,32,14.4c11.8,0,23.4,6.9,28.9,17.2
			c0,0.1,0,0.1,0.1,0.2c0,0,0,0,0,0.1c0,0,0,0.1,0,0.1L61,32.1L61,32.1z M61,31.8C61,31.8,61,31.8,61,31.8C61,31.8,61,31.8,61,31.8
			C61,31.8,61,31.8,61,31.8L61,31.8z"/>
		<path d="M32,17.2c-8.2,0-14.9,6.7-14.9,14.8c0,8.2,6.7,14.9,14.9,14.9c8.2,0,14.9-6.7,14.9-14.9C46.8,23.8,40.2,17.2,32,17.2z
			 M32,43.9c-6.5,0-11.9-5.3-11.9-11.9c0-6.5,5.3-11.8,11.9-11.8c6.5,0,11.9,5.3,11.9,11.8C43.8,38.5,38.5,43.9,32,43.9z"/>
		<path d="M32,23c-5,0-9.1,4.1-9.1,9.1c0,0.8,0.7,1.5,1.5,1.5s1.5-0.7,1.5-1.5c0-3.4,2.7-6.1,6.1-6.1h0c0.8,0,1.5-0.7,1.5-1.5
			S32.8,23,32,23z"/>
	</g>
</g>
<g id="id-card">
</g>
<g id="microphone">
</g>
<g id="eye-cross">
</g>
<g id="user-commenting">
</g>
<g id="user-commenting-alt">
</g>
<g id="user-file">
</g>
<g id="user-check">
</g>
<g id="tap">
</g>
<g id="swipe">
</g>
<g id="slide">
</g>
<g id="foot">
</g>
<g id="share-social">
</g>
<g id="ghost">
</g>
</svg>
