<?xml version="1.0" encoding="utf-8"?>
<!-- Generator: Adobe Illustrator 20.1.0, SVG Export Plug-In . SVG Version: 6.00 Build 0)  -->
<!DOCTYPE svg PUBLIC "-//W3C//DTD SVG 1.1//EN" "http://www.w3.org/Graphics/SVG/1.1/DTD/svg11.dtd">
<svg version="1.1" xmlns="http://www.w3.org/2000/svg" xmlns:xlink="http://www.w3.org/1999/xlink" x="0px" y="0px"
	 viewBox="0 0 64 64" style="enable-background:new 0 0 64 64;" xml:space="preserve">
<g id="credit-card">
</g>
<g id="tag">
</g>
<g id="trolley">
</g>
<g id="trolley-out">
</g>
<g id="trolley-in">
</g>
<g id="wallet">
</g>
<g id="shopping-bag">
</g>
<g id="basket">
</g>
<g id="dollar-circle">
</g>
<g id="pound-circle">
</g>
<g id="euro-circle">
	<g>
		<path d="M32,0C14.4,0,0,14.4,0,32s14.4,32,32,32s32-14.3,32-32S49.6,0,32,0z M32,61C16,61,3,48,3,32S16,3,32,3s29,13,29,29
			S48,61,32,61z"/>
		<path d="M38.4,21c-1.4-0.7-3.1-1-5-1c-2.8,0-5,0.7-6.5,2.1c-1.5,1.5-2.4,3.9-2.6,5.9h-2.2c-0.2,0-0.6,0.2-0.7,0.4
			c-0.1,0.1-0.4,0.5-0.4,0.7v1.1c0,0.2,0.2,0.4,0.4,0.6c0.1,0.1,0.5,0.2,0.7,0.2H24v2h-1.9c-0.2,0-0.6,0.1-0.7,0.2
			c-0.1,0.1-0.4,0.4-0.4,0.6v1.1c0,0.2,0.2,0.6,0.4,0.7c0.1,0.1,0.5,0.4,0.7,0.4h2.2c0.2,2,1.1,4.4,2.6,5.9c1.5,1.5,3.7,2,6.6,2
			c2,0,3.7-0.3,5-1c1.4-0.7,2.4-1.5,3.1-2.6c0.7-1,1.1-2.2,1.1-3.3c0-0.2,0-0.5-0.2-0.6C42.4,36.3,42.2,36,42,36h-1.7
			c-0.2,0-0.4,0.3-0.5,0.4c-0.1,0.1-0.2,0.6-0.3,0.9c-0.4,1.4-1.1,2.4-2.1,3.1c-1,0.6-2.3,1-4,1c-3.6,0-5.6-2.4-5.9-5.4h6.7
			c0.2,0,0.5-0.2,0.6-0.4s0.3-0.5,0.3-0.7v-1.1c0-0.2-0.1-0.5-0.3-0.6c-0.1-0.1-0.4-0.2-0.6-0.2H27v-2h7.1c0.2,0,0.5-0.1,0.6-0.2
			c0.1-0.1,0.3-0.3,0.3-0.6v-1.1c0-0.2-0.1-0.6-0.3-0.7c-0.1-0.1-0.4-0.4-0.6-0.4h-6.7c0.4-3,2.3-5.4,5.9-5.4c1.6,0,3,0.5,4,1.1
			c1,0.6,1.7,1.7,2.1,3.1c0.1,0.3,0.2,0.6,0.3,0.7c0.1,0.1,0.3,0.4,0.5,0.4H42c0.2,0,0.5-0.3,0.6-0.4c0.1-0.1,0.4-0.5,0.4-0.7v-0.1
			c0-1.2-0.6-2.3-1.3-3.3C41,22.5,39.8,21.6,38.4,21z"/>
	</g>
</g>
<g id="yen-circle">
</g>
<g id="purse">
</g>
<g id="banknote">
</g>
</svg>
