<?xml version="1.0" encoding="utf-8"?>
<!-- Generator: Adobe Illustrator 20.1.0, SVG Export Plug-In . SVG Version: 6.00 Build 0)  -->
<!DOCTYPE svg PUBLIC "-//W3C//DTD SVG 1.1//EN" "http://www.w3.org/Graphics/SVG/1.1/DTD/svg11.dtd">
<svg version="1.1" xmlns="http://www.w3.org/2000/svg" xmlns:xlink="http://www.w3.org/1999/xlink" x="0px" y="0px"
	 viewBox="0 0 64 64" style="enable-background:new 0 0 64 64;" xml:space="preserve">
<g id="bulb">
</g>
<g id="bulb-on">
</g>
<g id="bulb-alt">
</g>
<g id="bulb-on-alt">
</g>
<g id="energy-bulb">
</g>
<g id="toasting">
</g>
<g id="toasted">
</g>
<g id="binoculars">
</g>
<g id="gift">
</g>
<g id="shaver">
</g>
<g id="candle">
</g>
<g id="shower">
</g>
<g id="bomb">
</g>
<g id="joystick">
</g>
<g id="megaphone">
</g>
<g id="chestdraw">
</g>
<g id="armchair">
</g>
<g id="cardboard-box">
</g>
<g id="bath-shower">
</g>
<g id="diamond">
</g>
<g id="cassette">
</g>
<g id="iron">
</g>
<g id="wash">
</g>
<g id="keyboard-keys">
</g>
<g id="earphones">
</g>
<g id="lifebuoy">
</g>
<g id="calculator">
</g>
<g id="safe">
</g>
<g id="balloon">
</g>
<g id="cake">
</g>
<g id="baseball">
</g>
<g id="football-american">
</g>
<g id="football">
</g>
<g id="anchor">
</g>
<g id="compact-disc">
</g>
<g id="bbq">
</g>
<g id="coffee-machine">
</g>
<g id="teapot">
</g>
<g id="outdoor-stove">
</g>
<g id="pram">
</g>
<g id="paintbrush">
</g>
<g id="stamp">
</g>
<g id="eyedrop">
	<path d="M47,21.7h-4.4v-9.6C42.6,5.3,37.9,0,32,0S21.4,5.3,21.4,12.1v9.6H17c-0.8,0-1.5,0.7-1.5,1.5s0.7,1.5,1.5,1.5h4.4V47
		c0,5.7,2.3,9.9,6.4,11.6v3.8c0,0.8,0.7,1.5,1.5,1.5h5.3c0.8,0,1.5-0.7,1.5-1.5v-3.8c4.1-1.8,6.4-5.9,6.4-11.6V24.7H47
		c0.8,0,1.5-0.7,1.5-1.5S47.8,21.7,47,21.7z M24.4,12.1C24.4,7,27.7,3,32,3s7.6,4,7.6,9.1v9.6H24.4V12.1z M39.6,47
		c0,2.8-0.7,7.7-5.4,9.2c-0.6,0.2-1.1,0.8-1.1,1.4V61h-2.3v-3.4c0-0.7-0.4-1.2-1.1-1.4c-4.7-1.4-5.4-6.4-5.4-9.2v-3.2h3.8
		c0.8,0,1.5-0.7,1.5-1.5s-0.7-1.5-1.5-1.5h-3.8v-2.3h3.8c0.8,0,1.5-0.7,1.5-1.5s-0.7-1.5-1.5-1.5h-3.8v-2.3h3.8
		c0.8,0,1.5-0.7,1.5-1.5s-0.7-1.5-1.5-1.5h-3.8v-5.5h15.2V47z"/>
</g>
<g id="musical-note">
</g>
<g id="magnet">
</g>
<g id="alarm-bell">
</g>
<g id="globe">
</g>
<g id="key">
</g>
<g id="ink">
</g>
<g id="paperclip">
</g>
<g id="paint-roller">
</g>
<g id="keyboard">
</g>
</svg>
