<?xml version="1.0" encoding="utf-8"?>
<!-- Generator: Adobe Illustrator 20.1.0, SVG Export Plug-In . SVG Version: 6.00 Build 0)  -->
<!DOCTYPE svg PUBLIC "-//W3C//DTD SVG 1.1//EN" "http://www.w3.org/Graphics/SVG/1.1/DTD/svg11.dtd">
<svg version="1.1" xmlns="http://www.w3.org/2000/svg" xmlns:xlink="http://www.w3.org/1999/xlink" x="0px" y="0px"
	 viewBox="0 0 64 64" style="enable-background:new 0 0 64 64;" xml:space="preserve">
<g id="arrow-left-curved">
</g>
<g id="arrow-right-curved">
</g>
<g id="expand">
	<g>
		<path d="M63.7,1C63.7,0.9,63.7,0.9,63.7,1c-0.2-0.4-0.5-0.7-0.8-0.8c0,0,0,0,0,0C62.7,0,62.5,0,62.3,0c0,0,0,0,0,0c0,0,0,0,0,0
			H46.7c-0.8,0-1.5,0.7-1.5,1.5S45.8,3,46.7,3h12L36.5,25.1c-0.6,0.6-0.6,1.5,0,2.1c0.3,0.3,0.7,0.4,1.1,0.4c0.4,0,0.8-0.1,1.1-0.4
			L60.8,5.1v12.1c0,0.8,0.7,1.5,1.5,1.5s1.5-0.7,1.5-1.5V1.5C63.8,1.3,63.8,1.1,63.7,1z"/>
		<path d="M25.3,36.7L3.2,58.9V46.8c0-0.8-0.7-1.5-1.5-1.5s-1.5,0.7-1.5,1.5v15.8c0,0.2,0,0.4,0.1,0.5c0,0,0,0,0,0
			c0.2,0.4,0.4,0.7,0.8,0.8c0,0,0,0,0,0C1.3,64,1.5,64,1.7,64h15.6c0.8,0,1.5-0.7,1.5-1.5S18.2,61,17.3,61h-12l22.2-22.1
			c0.6-0.6,0.6-1.5,0-2.1C26.9,36.2,25.9,36.2,25.3,36.7z"/>
	</g>
</g>
<g id="shrink">
</g>
<g id="expand-all">
</g>
<g id="arrows">
</g>
<g id="arrow-up">
</g>
<g id="arrow-down">
</g>
<g id="arrow-left">
</g>
<g id="arrow-right">
</g>
<g id="chevron-up">
</g>
<g id="chevron-down">
</g>
<g id="chevron-left">
</g>
<g id="chevron-right">
</g>
<g id="chevron-up-double">
</g>
<g id="chevron-down-double">
</g>
<g id="chevron-left-double">
</g>
<g id="chevron-right-double">
</g>
<g id="triangle-up">
</g>
<g id="triangle-down">
</g>
<g id="triangle-right">
</g>
<g id="triangle-right_1_">
</g>
<g id="arrow-up-circle">
</g>
<g id="arrow-down-circle">
</g>
<g id="arrow-left-circle">
</g>
<g id="arrow-right-circle">
</g>
<g id="chevron-up-circle">
</g>
<g id="chevron-down-circle">
</g>
<g id="chevron-left-circle">
</g>
<g id="chevron-right-circle">
</g>
<g id="chevron-up-double-circle">
</g>
<g id="chevron-down-double-circle">
</g>
<g id="chevron-left-double-circle">
</g>
<g id="chevron-right-double-circle">
</g>
<g id="arrow-up-box">
</g>
<g id="arrow-down-box">
</g>
<g id="arrow-left-box">
</g>
<g id="arrow-right-box">
</g>
<g id="chevron-up-box">
</g>
<g id="chevron-down-box">
</g>
<g id="chevron-left-box">
</g>
<g id="chevron-right-box">
</g>
<g id="chevron-up-double-box">
</g>
<g id="chevron-down-double-box">
</g>
<g id="chevron-left-double-box">
</g>
<g id="chevron-right-double-box">
</g>
<g id="grid">
</g>
<g id="grid-dots">
</g>
<g id="more-circle">
</g>
<g id="more-vertical-circle">
</g>
<g id="dashbord">
</g>
<g id="dashboard-alt">
</g>
<g id="hamburger">
</g>
<g id="more">
</g>
<g id="more-vertical">
</g>
<g id="login">
</g>
<g id="logout">
</g>
<g id="search">
</g>
<g id="arrow-up-dashed-circle">
</g>
<g id="arrow-down-dashed-circle">
</g>
<g id="arrow-left-dashed-circle">
</g>
<g id="arrow-right-dashed-circle">
</g>
<g id="chevron-up-dashed-circle">
</g>
<g id="chevron-down-dashed-circle">
</g>
<g id="chevron-left-dashed-circle">
</g>
<g id="chevron-right-dashed-circle">
</g>
<g id="chevron-up-double-dashed-circle">
</g>
<g id="chevron-down-double-dashed-circle">
</g>
<g id="chevron-left-double-dashed-circle">
</g>
<g id="chevron-right-double-dashed-circle">
</g>
</svg>
