<?xml version="1.0" encoding="utf-8"?>
<!-- Generator: Adobe Illustrator 20.1.0, SVG Export Plug-In . SVG Version: 6.00 Build 0)  -->
<!DOCTYPE svg PUBLIC "-//W3C//DTD SVG 1.1//EN" "http://www.w3.org/Graphics/SVG/1.1/DTD/svg11.dtd">
<svg version="1.1" xmlns="http://www.w3.org/2000/svg" xmlns:xlink="http://www.w3.org/1999/xlink" x="0px" y="0px"
	 viewBox="0 0 64 64" style="enable-background:new 0 0 64 64;" xml:space="preserve">
<g id="bulb">
</g>
<g id="bulb-on">
</g>
<g id="bulb-alt">
</g>
<g id="bulb-on-alt">
</g>
<g id="energy-bulb">
	<g>
		<path d="M46.5,42.7h-4.1L46.7,32c0.3-0.8-0.1-1.6-0.8-2c-0.8-0.3-1.6,0.1-2,0.8l-4.8,11.9H25.3l-2.5-5.9c-0.1-0.3-0.1-0.6,0-0.9
			c0.1-0.3,0.3-0.5,0.6-0.6c0,0,0,0,0,0c0,0,0,0,0,0l23-9.8c0.8-0.3,1.1-1.2,0.8-2c-0.3-0.8-1.2-1.1-2-0.8l-23,9.8c0,0,0,0,0,0
			s0,0,0,0l0,0c0,0,0,0-0.1,0c-1,0.4-1.8,1.2-2.2,2.2c-0.4,1-0.4,2.2,0,3.2l2,4.7h-1.7c-0.8,0-1.5,0.7-1.5,1.5v8.7c0,0,0,0,0,0
			c0,0,0,0,0,0c0,0.1,0,0.3,0.1,0.4c0,0,0,0.1,0,0.1c0,0.1,0.1,0.2,0.1,0.3c0,0,0,0,0,0l6.2,9.6c0.3,0.4,0.8,0.7,1.3,0.7h13
			c0.5,0,0.9-0.2,1.2-0.6l6.8-9.6c0.2-0.3,0.3-0.6,0.3-0.9v-8.7C48,43.4,47.3,42.7,46.5,42.7z M45,45.7v5.6l-23.1,0.1v-5.7H45z
			 M38.9,61H27.4l-4.3-6.6l20.5-0.1L38.9,61z"/>
		<path d="M17.5,11.1c0.2,0,0.4,0,0.6-0.1l19.1-8.1c0.8-0.3,1.1-1.2,0.8-2c-0.3-0.8-1.2-1.1-2-0.8L17,8.2c-0.8,0.3-1.1,1.2-0.8,2
			C16.4,10.7,17,11.1,17.5,11.1z"/>
		<path d="M17.5,20c0.2,0,0.4,0,0.6-0.1L46.4,8c0.8-0.3,1.1-1.2,0.8-2c-0.3-0.8-1.2-1.1-2-0.8L17,17.1c-0.8,0.3-1.1,1.2-0.8,2
			C16.4,19.7,17,20,17.5,20z"/>
		<path d="M47.2,14.7c-0.3-0.8-1.2-1.1-2-0.8L17,25.9c-0.8,0.3-1.1,1.2-0.8,2c0.2,0.6,0.8,0.9,1.4,0.9c0.2,0,0.4,0,0.6-0.1
			l28.3-11.9C47.2,16.4,47.5,15.5,47.2,14.7z"/>
	</g>
</g>
<g id="toasting">
</g>
<g id="toasted">
</g>
<g id="binoculars">
</g>
<g id="gift">
</g>
<g id="shaver">
</g>
<g id="candle">
</g>
<g id="shower">
</g>
<g id="bomb">
</g>
<g id="joystick">
</g>
<g id="megaphone">
</g>
<g id="chestdraw">
</g>
<g id="armchair">
</g>
<g id="cardboard-box">
</g>
<g id="bath-shower">
</g>
<g id="diamond">
</g>
<g id="cassette">
</g>
<g id="iron">
</g>
<g id="wash">
</g>
<g id="keyboard-keys">
</g>
<g id="earphones">
</g>
<g id="lifebuoy">
</g>
<g id="calculator">
</g>
<g id="safe">
</g>
<g id="balloon">
</g>
<g id="cake">
</g>
<g id="baseball">
</g>
<g id="football-american">
</g>
<g id="football">
</g>
<g id="anchor">
</g>
<g id="compact-disc">
</g>
<g id="bbq">
</g>
<g id="coffee-machine">
</g>
<g id="teapot">
</g>
<g id="outdoor-stove">
</g>
<g id="pram">
</g>
<g id="paintbrush">
</g>
<g id="stamp">
</g>
<g id="eyedrop">
</g>
<g id="musical-note">
</g>
<g id="magnet">
</g>
<g id="alarm-bell">
</g>
<g id="globe">
</g>
<g id="key">
</g>
<g id="ink">
</g>
<g id="paperclip">
</g>
<g id="paint-roller">
</g>
<g id="keyboard">
</g>
</svg>
