<?xml version="1.0" encoding="utf-8"?>
<!-- Generator: Adobe Illustrator 20.1.0, SVG Export Plug-In . SVG Version: 6.00 Build 0)  -->
<!DOCTYPE svg PUBLIC "-//W3C//DTD SVG 1.1//EN" "http://www.w3.org/Graphics/SVG/1.1/DTD/svg11.dtd">
<svg version="1.1" xmlns="http://www.w3.org/2000/svg" xmlns:xlink="http://www.w3.org/1999/xlink" x="0px" y="0px"
	 viewBox="0 0 64 64" style="enable-background:new 0 0 64 64;" xml:space="preserve">
<g id="user">
</g>
<g id="users">
</g>
<g id="comment">
</g>
<g id="commenting">
</g>
<g id="comments">
</g>
<g id="comments-alt">
</g>
<g id="commenting-alt">
</g>
<g id="comment-alt">
</g>
<g id="face-happy">
</g>
<g id="face-ok">
</g>
<g id="face-unhappy">
</g>
<g id="mail">
</g>
<g id="phone">
</g>
<g id="fingerprint">
</g>
<g id="info">
</g>
<g id="question">
</g>
<g id="warning">
</g>
<g id="alert">
</g>
<g id="headset">
</g>
<g id="skull">
</g>
<g id="baby">
</g>
<g id="eye">
</g>
<g id="id-card">
</g>
<g id="microphone">
</g>
<g id="eye-cross">
	<g>
		<path d="M63.9,31.4C63.9,31.4,63.9,31.3,63.9,31.4c0-0.1,0-0.3-0.1-0.5c0-0.1-0.1-0.2-0.1-0.2c0-0.1-0.1-0.1-0.1-0.2
			c-1.7-3.2-3.9-6.1-6.6-8.7c-0.6-0.6-1.5-0.6-2.1,0c-0.6,0.6-0.6,1.5,0,2.1c2.4,2.3,4.4,4.9,5.9,7.8c0,0.1,0,0.1,0.1,0.1
			c0,0,0,0,0,0c0,0,0,0.1,0,0.1l0,0c0,0,0,0.1,0,0.1c0,0,0,0.1,0,0.1c0,0.1,0,0.1-0.1,0.2C55.4,42.6,43.9,49.6,32,49.6
			c-4.9,0-10-1.2-14.6-3.5c-0.7-0.4-1.6-0.1-2,0.7c-0.4,0.7-0.1,1.6,0.7,2c5,2.5,10.6,3.9,16,3.9c13,0,25.7-7.6,31.6-18.9
			c0.1-0.1,0.1-0.2,0.1-0.3c0,0,0-0.1,0.1-0.1h0c0.1-0.2,0.1-0.4,0.1-0.5c0,0,0,0,0,0c0-0.1,0.1-0.4,0.1-0.6
			C64,31.8,64,31.6,63.9,31.4z M61,31.8C61,31.8,61,31.8,61,31.8C61,31.8,61,31.8,61,31.8C61,31.8,61,31.8,61,31.8L61,31.8z"/>
		<path d="M0.2,33.1c0,0.1,0.1,0.1,0.1,0.2c0,0.1,0.1,0.2,0.1,0.2l0,0C2,36.7,4.1,39.5,6.7,42c0.3,0.3,0.7,0.4,1.1,0.4
			c0.4,0,0.8-0.2,1.1-0.4c0.6-0.6,0.6-1.5,0-2.1c-2.3-2.3-4.2-4.8-5.7-7.5c0-0.1,0-0.1-0.1-0.2c0,0,0-0.1,0-0.1l0,0l0,0l0-0.1
			c0,0,0-0.1,0-0.1c0,0,0,0,0,0c0-0.1,0-0.1,0.1-0.2C8.6,21.3,20.2,14.4,32,14.4c4.8,0,9.8,1.2,14.3,3.4c0.7,0.4,1.6,0.1,2-0.7
			s0.1-1.6-0.7-2c-4.9-2.4-10.3-3.7-15.6-3.7c-13,0-25.7,7.6-31.6,18.9c-0.1,0.1-0.1,0.2-0.1,0.3c0,0,0,0.1-0.1,0.1l0,0
			c-0.1,0.2-0.1,0.4-0.1,0.5C0,31.5,0,31.7,0,32c0,0.3,0,0.5,0.1,0.7C0.1,32.8,0.1,33,0.2,33.1z"/>
		<path d="M32,20.2c2.4,0,4.8,0.7,6.8,2.1c0.7,0.5,1.6,0.3,2.1-0.4c0.5-0.7,0.3-1.6-0.4-2.1c-2.5-1.7-5.4-2.7-8.5-2.7
			c-8.2,0-14.9,6.7-14.9,14.8c0,0.8,0.1,1.5,0.2,2.3c0.1,0.7,0.8,1.3,1.5,1.3c0.1,0,0.2,0,0.2,0c0.8-0.1,1.4-0.9,1.3-1.7
			c-0.1-0.6-0.1-1.2-0.1-1.8C20.1,25.5,25.4,20.2,32,20.2z"/>
		<path d="M32,43.9c-2.6,0-5-0.8-7-2.3c-0.7-0.5-1.6-0.4-2.1,0.3c-0.5,0.7-0.3,1.6,0.3,2.1c2.6,1.9,5.6,2.9,8.8,2.9
			c8.2,0,14.9-6.7,14.9-14.9c0-0.9-0.1-1.8-0.2-2.7c-0.1-0.8-0.9-1.4-1.7-1.2c-0.8,0.1-1.4,0.9-1.2,1.7c0.1,0.7,0.2,1.4,0.2,2.1
			C43.8,38.5,38.5,43.9,32,43.9z"/>
		<path d="M63.8,12.1c-0.4-0.7-1.4-0.9-2.1-0.5l-61,38.1c-0.7,0.4-0.9,1.4-0.5,2.1c0.3,0.5,0.8,0.7,1.3,0.7c0.3,0,0.5-0.1,0.8-0.2
			l61-38.1C64,13.8,64.2,12.8,63.8,12.1z"/>
	</g>
</g>
<g id="user-commenting">
</g>
<g id="user-commenting-alt">
</g>
<g id="user-file">
</g>
<g id="user-check">
</g>
<g id="tap">
</g>
<g id="swipe">
</g>
<g id="slide">
</g>
<g id="foot">
</g>
<g id="share-social">
</g>
<g id="ghost">
</g>
</svg>
