<?xml version="1.0" encoding="utf-8"?>
<!-- Generator: Adobe Illustrator 20.1.0, SVG Export Plug-In . SVG Version: 6.00 Build 0)  -->
<!DOCTYPE svg PUBLIC "-//W3C//DTD SVG 1.1//EN" "http://www.w3.org/Graphics/SVG/1.1/DTD/svg11.dtd">
<svg version="1.1" xmlns="http://www.w3.org/2000/svg" xmlns:xlink="http://www.w3.org/1999/xlink" x="0px" y="0px"
	 viewBox="0 0 64 64" style="enable-background:new 0 0 64 64;" xml:space="preserve">
<g id="text-height">
</g>
<g id="font">
</g>
<g id="text">
</g>
<g id="italic">
</g>
<g id="strikethrough">
</g>
<g id="paragraph">
</g>
<g id="bold">
</g>
<g id="quote-right">
</g>
<g id="hashtag">
</g>
<g id="anchor-handle">
</g>
<g id="box">
</g>
<g id="fullscreen">
</g>
<g id="fullscreen-alt">
</g>
<g id="golden-ratio">
</g>
<g id="hexgrid">
</g>
<g id="box-points">
</g>
<g id="box-points-move">
</g>
<g id="box-points-move-alt">
</g>
<g id="hex_1_">
</g>
<g id="hex-diamond">
</g>
<g id="artboards-vertical">
</g>
<g id="artboards">
</g>
<g id="artboards-alt-vertical">
</g>
<g id="artboards-alt">
</g>
<g id="scale">
</g>
<g id="pencil">
</g>
<g id="fill">
	<g>
		<path d="M59.3,37.8c0,0-4.7,6.5-4.7,10.5c0,2.9,2.3,5.1,4.7,5.1s4.7-2.3,4.7-5.1C64,44.2,59.3,37.8,59.3,37.8z"/>
		<path d="M59.8,28.7c0-0.7-0.3-1.3-0.7-1.7l-24.1-24c-1-0.9-2.5-0.9-3.4,0l-6.3,6.3l-2.8-2.8c-0.6-0.6-1.5-0.6-2.1,0
			c-0.6,0.6-0.6,1.5,0,2.1l2.8,2.8L0.7,33.6C0.3,34,0,34.7,0,35.3C0,36,0.3,36.6,0.7,37l24.1,24c0,0,0,0,0,0
			c0.5,0.5,1.1,0.7,1.7,0.7c0.6,0,1.2-0.2,1.7-0.7l30.8-30.7C59.5,30,59.8,29.3,59.8,28.7z M50.2,35H3.5l21.6-21.5l11.7,11.6
			c0.3,0.3,0.7,0.4,1.1,0.4c0.4,0,0.8-0.1,1.1-0.4c0.6-0.6,0.6-1.5,0-2.1L27.3,11.3l5.9-5.9l23.3,23.3L50.2,35z"/>
	</g>
</g>
<g id="artist-mug">
</g>
<g id="pen">
</g>
<g id="calligraphy-pen-tip">
</g>
<g id="calligraphy-pen_1_">
</g>
<g id="paint-pallette">
</g>
<g id="tools-cross">
</g>
<g id="edit-tools">
</g>
<g id="pencil-ruler">
</g>
<g id="ruler-measure">
</g>
<g id="measure">
</g>
<g id="code">
</g>
<g id="move">
</g>
<g id="external">
</g>
<g id="terminal">
</g>
<g id="thumbnails">
</g>
</svg>
