<?xml version="1.0" encoding="utf-8"?>
<!-- Generator: Adobe Illustrator 20.1.0, SVG Export Plug-In . SVG Version: 6.00 Build 0)  -->
<!DOCTYPE svg PUBLIC "-//W3C//DTD SVG 1.1//EN" "http://www.w3.org/Graphics/SVG/1.1/DTD/svg11.dtd">
<svg version="1.1" id="Layer_1" xmlns="http://www.w3.org/2000/svg" xmlns:xlink="http://www.w3.org/1999/xlink" x="0px" y="0px"
	 viewBox="0 0 64 64" style="enable-background:new 0 0 64 64;" xml:space="preserve">
<g>
	<g>
		<path d="M55.6,64H8.4c-0.8,0-1.5-0.7-1.5-1.5v-61C6.9,0.7,7.6,0,8.4,0h47.2c0.8,0,1.5,0.7,1.5,1.5v61C57.1,63.3,56.4,64,55.6,64z
			 M9.9,61h44.2V3H9.9V61z"/>
	</g>
	<g>
		<path d="M44.1,29.2H19.9c-0.8,0-1.5-0.7-1.5-1.5s0.7-1.5,1.5-1.5h24.2c0.8,0,1.5,0.7,1.5,1.5S44.9,29.2,44.1,29.2z"/>
		<path d="M44.1,20.7H19.9c-0.8,0-1.5-0.7-1.5-1.5s0.7-1.5,1.5-1.5h24.2c0.8,0,1.5,0.7,1.5,1.5S44.9,20.7,44.1,20.7z"/>
		<path d="M44.1,37.8H19.9c-0.8,0-1.5-0.7-1.5-1.5s0.7-1.5,1.5-1.5h24.2c0.8,0,1.5,0.7,1.5,1.5S44.9,37.8,44.1,37.8z"/>
		<path d="M27.9,46.3h-8c-0.8,0-1.5-0.7-1.5-1.5s0.7-1.5,1.5-1.5h8c0.8,0,1.5,0.7,1.5,1.5S28.7,46.3,27.9,46.3z"/>
	</g>
</g>
</svg>
