<?xml version="1.0" encoding="utf-8"?>
<!-- Generator: Adobe Illustrator 20.1.0, SVG Export Plug-In . SVG Version: 6.00 Build 0)  -->
<!DOCTYPE svg PUBLIC "-//W3C//DTD SVG 1.1//EN" "http://www.w3.org/Graphics/SVG/1.1/DTD/svg11.dtd">
<svg version="1.1" xmlns="http://www.w3.org/2000/svg" xmlns:xlink="http://www.w3.org/1999/xlink" x="0px" y="0px"
	 viewBox="0 0 64 64" style="enable-background:new 0 0 64 64;" xml:space="preserve">
<g id="user">
</g>
<g id="users">
</g>
<g id="comment">
</g>
<g id="commenting">
</g>
<g id="comments">
</g>
<g id="comments-alt">
</g>
<g id="commenting-alt">
</g>
<g id="comment-alt">
</g>
<g id="face-happy">
	<g>
		<ellipse cx="42.7" cy="21.2" rx="3.6" ry="3.6"/>
		<ellipse cx="21.3" cy="21.2" rx="3.6" ry="3.6"/>
		<path d="M32,0C14.4,0,0.1,14.4,0.1,32S14.4,64,32,64s31.9-14.4,31.9-32S49.6,0,32,0z M32,61C16,61,3.1,48,3.1,32S16,3,32,3
			s28.9,13,28.9,29S48,61,32,61z"/>
		<path d="M49,35.6c-0.8-0.3-1.6,0.1-1.9,0.9c-2.3,6.2-8.2,10.1-15.1,10.1s-12.8-4-15.1-10.1c-0.3-0.8-1.1-1.2-1.9-0.9
			c-0.8,0.3-1.2,1.1-0.9,1.9c2.7,7.4,9.7,12.1,17.9,12.1s15.2-4.8,17.9-12.1C50.2,36.8,49.8,35.9,49,35.6z"/>
	</g>
</g>
<g id="face-ok">
</g>
<g id="face-unhappy">
</g>
<g id="mail">
</g>
<g id="phone">
</g>
<g id="fingerprint">
</g>
<g id="info">
</g>
<g id="question">
</g>
<g id="warning">
</g>
<g id="alert">
</g>
<g id="headset">
</g>
<g id="skull">
</g>
<g id="baby">
</g>
<g id="eye">
</g>
<g id="id-card">
</g>
<g id="microphone">
</g>
<g id="eye-cross">
</g>
<g id="user-commenting">
</g>
<g id="user-commenting-alt">
</g>
<g id="user-file">
</g>
<g id="user-check">
</g>
<g id="tap">
</g>
<g id="swipe">
</g>
<g id="slide">
</g>
<g id="foot">
</g>
<g id="share-social">
</g>
<g id="ghost">
</g>
</svg>
