<?xml version="1.0" encoding="utf-8"?>
<!-- Generator: Adobe Illustrator 20.1.0, SVG Export Plug-In . SVG Version: 6.00 Build 0)  -->
<!DOCTYPE svg PUBLIC "-//W3C//DTD SVG 1.1//EN" "http://www.w3.org/Graphics/SVG/1.1/DTD/svg11.dtd">
<svg version="1.1" xmlns="http://www.w3.org/2000/svg" xmlns:xlink="http://www.w3.org/1999/xlink" x="0px" y="0px"
	 viewBox="0 0 64 64" style="enable-background:new 0 0 64 64;" xml:space="preserve">
<g id="dial">
</g>
<g id="dial-alt">
</g>
<g id="connections">
</g>
<g id="atom">
</g>
<g id="atom-alt">
</g>
<g id="cosmic">
</g>
<g id="cosmic-alt">
</g>
<g id="workflows">
</g>
<g id="positive">
</g>
<g id="neuron">
</g>
<g id="sitemap">
</g>
<g id="conditional">
</g>
<g id="sitemap-alt">
</g>
<g id="neuron-alt">
</g>
<g id="flask">
</g>
<g id="clone">
</g>
<g id="infinity">
</g>
<g id="f42">
	<path d="M63.9,31.5l-4.1-7.1v-7.9c0-0.4-0.2-0.7-0.5-0.9l-6.9-4l-4-7c-0.2-0.3-0.5-0.5-0.9-0.5h-8l-7-4c-0.3-0.2-0.7-0.2-1,0l-7,4
		h-8c-0.4,0-0.7,0.2-0.9,0.5l-4,6.9l-6.9,4c-0.3,0.2-0.5,0.5-0.5,0.9v7.9l-4.1,7c-0.2,0.3-0.2,0.7,0,1l4.1,7v7.9
		c0,0.4,0.2,0.7,0.5,0.9l6.9,4l4,6.9c0.2,0.3,0.5,0.5,0.9,0.5h8l7,4c0.2,0.1,0.3,0.1,0.5,0.1c0.2,0,0.3,0,0.5-0.1l7-4h8
		c0.4,0,0.7-0.2,0.9-0.5l4-7l6.9-4c0.3-0.2,0.5-0.5,0.5-0.9v-7.9l4.1-7.1C64,32.2,64,31.8,63.9,31.5z M61.3,31h-1.5v-2.6L61.3,31z
		 M43.9,38.7l-3,1.7l3-5.3V38.7z M32,45.3l-2.5-1.4h5L32,45.3z M20.1,25.3l3-1.7l-3,5.3V25.3z M32,18.7l2.5,1.4h-5L32,18.7z
		 M37.7,22.1l5.7,9.9l-5.7,9.9H26.3L20.6,32l5.7-9.9H37.7z M20.1,38.7v-3.6l3,5.3L20.1,38.7z M40.9,23.7l3,1.7v3.6L40.9,23.7z
		 M44.9,23.6l-5.4-3.1l6.2-10.5l5.3,3l3,5.2L44.9,23.6z M38.2,19.9l-5.4-3l0-10.6H39l5.4,3.1L38.2,19.9z M31.2,16.8l-5.4,3L19.6,9.3
		L25,6.2h6.2L31.2,16.8z M24.5,20.6l-5.4,3.1l-9-5.3l3-5.2l5.3-3L24.5,20.6z M18.1,24.8V31H6.2v-6l3.1-5.4L18.1,24.8z M18.1,33v6.2
		l-8.8,5.2L6.2,39v-6H18.1z M19.1,40.4l5.4,3.1l-6.2,10.5l-5.3-3l-3-5.2L19.1,40.4z M25.8,44.2l5.2,2.9v10.7h-6l-5.4-3.1L25.8,44.2z
		 M33,47.1l5.2-2.9l6.2,10.5L39,57.8h-6V47.1z M39.5,43.4l5.4-3.1l9,5.3l-3,5.2l-5.3,3L39.5,43.4z M45.9,39.2V33h11.9v6l-3.1,5.4
		L45.9,39.2z M45.9,31v-6.2l8.8-5.2l3.1,5.4v6H45.9z M56.4,18.6l1.4-0.8V21L56.4,18.6z M56.9,16.6l-1.2,0.7l-1.3-2.2L56.9,16.6z
		 M48.9,9.7l-2.2-1.3l0.8-1.3L48.9,9.7z M46.2,6.2l-0.8,1.4L43,6.2H46.2z M32.7,4.2l0-1.6l2.8,1.6H32.7z M31.2,2.6l0,1.6h-2.8
		L31.2,2.6z M18.6,7.6l-0.8-1.4H21L18.6,7.6z M16.6,7.1l0.7,1.3l-2.2,1.3L16.6,7.1z M8.3,17.3l-1.2-0.7l2.5-1.5L8.3,17.3z M6.2,17.8
		l1.4,0.8L6.2,21V17.8z M4.2,31H2.7l1.5-2.6V31z M2.7,33h1.5v2.6L2.7,33z M7.6,45.4l-1.4,0.8V43L7.6,45.4z M7.1,47.4l1.2-0.7
		l1.3,2.2L7.1,47.4z M15.1,54.4l2.2,1.3l-0.7,1.3L15.1,54.4z M17.8,57.8l0.8-1.4l2.4,1.4H17.8z M31,59.8v1.4l-2.5-1.4H31z M33,61.2
		v-1.4h2.5L33,61.2z M45.4,56.4l0.8,1.4H43L45.4,56.4z M47.4,56.9l-0.8-1.3l2.2-1.3L47.4,56.9z M55.7,46.7l1.2,0.7l-2.5,1.5
		L55.7,46.7z M57.8,46.2l-1.4-0.8l1.4-2.4V46.2z M59.8,33h1.5l-1.5,2.6V33z"/>
</g>
</svg>
