<?xml version="1.0" encoding="utf-8"?>
<!-- Generator: Adobe Illustrator 20.1.0, SVG Export Plug-In . SVG Version: 6.00 Build 0)  -->
<!DOCTYPE svg PUBLIC "-//W3C//DTD SVG 1.1//EN" "http://www.w3.org/Graphics/SVG/1.1/DTD/svg11.dtd">
<svg version="1.1" xmlns="http://www.w3.org/2000/svg" xmlns:xlink="http://www.w3.org/1999/xlink" x="0px" y="0px"
	 viewBox="0 0 64 64" style="enable-background:new 0 0 64 64;" xml:space="preserve">
<g id="truck">
</g>
<g id="car">
</g>
<g id="taxi">
</g>
<g id="rocket">
</g>
<g id="tardis">
</g>
<g id="bus">
</g>
<g id="tram">
</g>
<g id="speedo">
</g>
<g id="air-machine">
</g>
<g id="speedo-alt">
</g>
<g id="motorcycle">
</g>
<g id="car-battery">
</g>
<g id="ufo">
</g>
<g id="arrivals">
</g>
<g id="petrol-pump">
</g>
<g id="gear-shift">
</g>
<g id="car-battery-alt">
</g>
<g id="road">
</g>
<g id="siren">
</g>
<g id="plane">
</g>
<g id="lorry">
</g>
<g id="train">
</g>
<g id="forklift">
	<g>
		<path d="M15.4,7.6c-3,0-5,1.8-5,4.6v28.7h-4c-0.8,0-1.5,0.7-1.5,1.5s0.7,1.5,1.5,1.5h4v9.9H1.5c-0.8,0-1.5,0.7-1.5,1.5
			s0.7,1.5,1.5,1.5h10.4h6.4h0.5c0.8,0,1.5-0.7,1.5-1.5V12.2C20.4,9.4,18.4,7.6,15.4,7.6z M13.4,53.8V12.2c0-0.5,0-1.6,2-1.6
			c2,0,2,1.1,2,1.6v41.6H13.4z"/>
		<path d="M63.6,37.2L60,33.5v-15c0-3.6-3-6.3-6.9-6.3h-6.3c-14.1,0-25.5,11.2-25.5,25.1v13.1c0,0.8,0.7,1.5,1.5,1.5h5.9
			c1.5,2.7,4.4,4.6,7.7,4.6c3.3,0,6.2-1.9,7.7-4.6h2.6c0.9,2.7,3.4,4.6,6.4,4.6c3,0,5.5-1.9,6.4-4.6h3c0.8,0,1.5-0.7,1.5-1.5V38.3
			C64,37.9,63.9,37.5,63.6,37.2z M24.3,48.8V42l10-10c0.3,0.3,0.7,0.4,1,0.4c0.4,0,0.7-0.1,1-0.4c0.6-0.6,0.6-1.5,0.1-2.1l-2.2-2.3
			c-0.6-0.6-1.5-0.6-2.1-0.1c-0.6,0.6-0.6,1.5-0.1,2.1l0.2,0.2l-8,7.9v-0.6c0-12.2,10.1-22.1,22.5-22.1h6.3c1.9,0,3.9,1.1,3.9,3.3
			V33h-7.3l2.7-10c0.2-0.8-0.3-1.6-1.1-1.8c-0.8-0.2-1.6,0.3-1.8,1.1L46.7,33h-2.9c-0.4,0-0.8,0.2-1,0.4l-5.6,5.5
			c-0.2,0-0.4,0-0.6,0c-4.9,0-8.8,3.9-8.8,8.8c0,0.4,0,0.8,0.1,1.2H24.3z M36.4,53.4c-3.2,0-5.8-2.6-5.8-5.8s2.6-5.8,5.8-5.8
			s5.8,2.6,5.8,5.8c0,0.6-0.1,1.3-0.3,1.8c-0.1,0.2-0.2,0.4-0.2,0.6C40.8,52.1,38.8,53.4,36.4,53.4z M53.1,53.4
			c-2.1,0-3.7-1.7-3.7-3.7s1.7-3.7,3.7-3.7c2.1,0,3.7,1.7,3.7,3.7S55.2,53.4,53.1,53.4z M61,48.8h-1.2c-0.4-3.3-3.3-5.8-6.7-5.8
			c-3.4,0-6.2,2.5-6.7,5.8h-1.3c0.1-0.4,0.1-0.8,0.1-1.2c0-3.4-2-6.4-4.8-7.8l3.9-3.8H58c0.1,0,0.1,0,0.2,0l2.8,2.9V48.8z"/>
	</g>
</g>
<g id="bicycle">
</g>
<g id="underground">
</g>
<g id="paper-plane">
</g>
<g id="hotair-balloon">
</g>
</svg>
