<?xml version="1.0" encoding="utf-8"?>
<!-- Generator: Adobe Illustrator 20.1.0, SVG Export Plug-In . SVG Version: 6.00 Build 0)  -->
<!DOCTYPE svg PUBLIC "-//W3C//DTD SVG 1.1//EN" "http://www.w3.org/Graphics/SVG/1.1/DTD/svg11.dtd">
<svg version="1.1" xmlns="http://www.w3.org/2000/svg" xmlns:xlink="http://www.w3.org/1999/xlink" x="0px" y="0px"
	 viewBox="0 0 64 64" style="enable-background:new 0 0 64 64;" xml:space="preserve">
<g id="bulb">
</g>
<g id="bulb-on">
</g>
<g id="bulb-alt">
</g>
<g id="bulb-on-alt">
</g>
<g id="energy-bulb">
</g>
<g id="toasting">
</g>
<g id="toasted">
</g>
<g id="binoculars">
</g>
<g id="gift">
</g>
<g id="shaver">
</g>
<g id="candle">
</g>
<g id="shower">
</g>
<g id="bomb">
</g>
<g id="joystick">
</g>
<g id="megaphone">
</g>
<g id="chestdraw">
</g>
<g id="armchair">
</g>
<g id="cardboard-box">
</g>
<g id="bath-shower">
</g>
<g id="diamond">
</g>
<g id="cassette">
</g>
<g id="iron">
</g>
<g id="wash">
</g>
<g id="keyboard-keys">
</g>
<g id="earphones">
</g>
<g id="lifebuoy">
</g>
<g id="calculator">
</g>
<g id="safe">
</g>
<g id="balloon">
</g>
<g id="cake">
</g>
<g id="baseball">
</g>
<g id="football-american">
</g>
<g id="football">
	<path d="M63.9,32c0-2.4-0.3-4.7-0.8-6.9c0-0.1,0-0.2-0.1-0.3c-0.7-3.2-2-6.3-3.6-9.1c-0.1-0.2-0.1-0.3-0.3-0.4
		C53.6,6.1,43.5,0,32,0c-6.5,0-12.5,1.9-17.5,5.3c-0.2,0.1-0.4,0.2-0.5,0.3C5.6,11.4,0.1,21.1,0.1,32c0,7.9,2.9,15.2,7.7,20.8
		C7.8,52.9,7.9,53,8,53.1C13.9,59.8,22.5,64,32,64c1.4,0,2.8-0.1,4.1-0.3c0.1,0,0.2,0,0.3,0C51.9,61.5,63.9,48.2,63.9,32z
		 M36.5,60.6c-1.8-1.6-3.2-3.5-4.3-5.6c2,0.5,4,0.7,6.1,0.7c5.6,0,11-1.7,15.6-4.9C49.5,56,43.4,59.6,36.5,60.6z M33,33.3
		c1.3,0.2,2.7,0.3,4,0.3c9.2,0,17.6-5.3,21.3-13.6c0.8,1.7,1.4,3.4,1.8,5.2c-2.2,5.9-6.8,11-12.6,13.8c-5.6,2.7-11.6,3.2-17.2,1.5
		C30.7,38,31.7,35.6,33,33.3z M28,3.3C28,3.3,28.1,3.3,28,3.3C39.8,5,48.6,15,48.8,26.8c-2.2,1.5-4.6,2.6-7.2,3.2
		C40.8,17.9,31.7,7.9,20,5.6C22.5,4.5,25.2,3.7,28,3.3z M60.9,32c0,2.6-0.4,5.2-1,7.7c-5.4,10.5-17.8,15.6-29,11.9
		c-0.8-2.6-1.1-5.3-1-8c2.3,0.6,4.6,1,6.9,1c4,0,8.1-0.9,11.9-2.8c5.1-2.5,9.3-6.4,12.1-11.2C60.9,31.1,60.9,31.5,60.9,32z
		 M56.4,16.5c-0.9,3-2.6,5.7-4.8,7.9c-0.9-8.8-6.1-16.5-13.5-20.8C45.8,5.3,52.4,10.1,56.4,16.5z M15.5,8.2
		C27.9,8.4,38,18.3,38.6,30.5c-1.7,0.1-3.4,0.1-5.2-0.2C30.1,20,19.6,13.3,9.1,14.3C11,11.9,13.1,9.9,15.5,8.2z M6.9,17.7
		c2.8-0.6,5.6-0.6,8.3-0.1c-7,6-10.7,15.6-10.2,24.7C3.7,39.1,3.1,35.6,3.1,32C3.1,26.8,4.5,21.9,6.9,17.7z M10.2,51.1
		C5,40.5,8.8,25.7,18.7,18.7c2.4,1,4.7,2.4,6.6,4.3c-9.5,7.9-12.2,23.2-6.4,34.9C15.6,56.1,12.6,53.8,10.2,51.1z M23.5,59.7
		c0-0.1-0.1-0.1-0.1-0.2c-7.5-10.7-5.6-26.7,3.9-34.4c1.5,1.9,2.6,4,3.3,6.3c-5.7,9.1-4.7,21.7,2,29.5c-0.2,0-0.4,0-0.7,0
		C29,61,26.2,60.5,23.5,59.7z"/>
</g>
<g id="anchor">
</g>
<g id="compact-disc">
</g>
<g id="bbq">
</g>
<g id="coffee-machine">
</g>
<g id="teapot">
</g>
<g id="outdoor-stove">
</g>
<g id="pram">
</g>
<g id="paintbrush">
</g>
<g id="stamp">
</g>
<g id="eyedrop">
</g>
<g id="musical-note">
</g>
<g id="magnet">
</g>
<g id="alarm-bell">
</g>
<g id="globe">
</g>
<g id="key">
</g>
<g id="ink">
</g>
<g id="paperclip">
</g>
<g id="paint-roller">
</g>
<g id="keyboard">
</g>
</svg>
