<?xml version="1.0" encoding="utf-8"?>
<!-- Generator: Adobe Illustrator 20.1.0, SVG Export Plug-In . SVG Version: 6.00 Build 0)  -->
<!DOCTYPE svg PUBLIC "-//W3C//DTD SVG 1.1//EN" "http://www.w3.org/Graphics/SVG/1.1/DTD/svg11.dtd">
<svg version="1.1" xmlns="http://www.w3.org/2000/svg" xmlns:xlink="http://www.w3.org/1999/xlink" x="0px" y="0px"
	 viewBox="0 0 64 64" style="enable-background:new 0 0 64 64;" xml:space="preserve">
<g id="fairground">
</g>
<g id="tent">
</g>
<g id="tree">
</g>
<g id="trees">
</g>
<g id="tree-alt">
</g>
<g id="butterfly">
</g>
<g id="sunrise">
</g>
<g id="waterdrop">
</g>
<g id="map">
</g>
<g id="map-alt">
</g>
<g id="earth">
</g>
<g id="earth-no">
</g>
<g id="meteor">
</g>
<g id="sun">
</g>
<g id="sun-dim">
</g>
<g id="umbrella">
</g>
<g id="umbrella-alt">
</g>
<g id="gps">
</g>
<g id="fire">
	<g>
		<path d="M44.6,17.7c-0.4-0.5-1.1-0.7-1.7-0.5c-0.6,0.2-1,0.8-1,1.4c0,1.9-0.7,3.7-1.4,5.1c-1.7-7.8-7.2-13.5-7.5-13.8
			c-0.4-0.4-1.1-0.6-1.6-0.3c-0.6,0.2-0.9,0.8-0.9,1.4c0,0-0.1,3.6-2.1,7.7C23.8,7.1,14.2,0.5,13.7,0.3c-0.5-0.3-1.2-0.3-1.7,0
			c-0.5,0.4-0.7,1-0.6,1.6c3.5,12.9,1.9,20.4,0.1,28.4c-1,4.5-2,9.2-2,14.9c0,9.3,7.7,18.9,20.6,18.9c18.4,0,21.9-7.5,23.6-14.5
			C56.1,39.8,52.7,27.9,44.6,17.7z M50.8,48.8C49.2,55.2,46.4,61,30.1,61c-11,0-17.6-8.1-17.6-15.9c0-5.4,1-9.7,2-14.2
			c1.6-7.1,3.2-14.4,0.9-25.5c3.5,3.2,8.9,9.2,11.3,17.3c0.2,0.6,0.6,1,1.2,1.1c0.6,0.1,1.2-0.2,1.5-0.6c2.1-3.2,3.2-6.3,3.7-8.6
			c2.1,2.8,5,7.8,5,13.5c0,0.6,0.4,1.2,1,1.4c0.6,0.2,1.2,0.1,1.7-0.4c0.1-0.1,2.5-2.9,3.7-6.7C50.4,31.1,52.8,40.8,50.8,48.8z"/>
		<path d="M43.1,32.5l-1.8,2.1c-1.7,2-3.2,3.7-6.6,5.6c-0.4-1.5-0.7-3.4-0.7-6V31c0-0.7-0.4-1.2-1.1-1.4c-0.6-0.2-1.3,0.1-1.7,0.6
			l-3,4.6c-0.5,0.8-1,1.5-1.5,2.3c-1.3-3-2.2-5.3-3-7.4L22.8,27c-0.2-0.6-0.8-1-1.4-1c0,0,0,0,0,0c-0.6,0-1.2,0.4-1.4,1l-1,2.9
			c-1.3,3.8-2.5,7.3-2.5,16.6c0,0.8,0.7,1.5,1.5,1.5s1.5-0.7,1.5-1.5c0-7.8,0.9-11.3,2-14.5c0.9,2.4,2.1,5.1,3.7,8.6
			c0.2,0.5,0.7,0.8,1.2,0.9c0.5,0.1,1.1-0.2,1.4-0.6c1.3-1.8,2.1-3.1,3.1-4.6l0.3-0.5c0.2,3.2,0.7,5.3,1.3,7.1
			c0.1,0.4,0.4,0.7,0.9,0.9s0.9,0.1,1.2,0c4.9-2.5,7-4.7,8.9-6.9c0.5,3.9,0,8.2-1.2,11.3c-0.3,0.8,0.1,1.6,0.8,2
			c0.2,0.1,0.4,0.1,0.6,0.1c0.6,0,1.2-0.4,1.4-0.9c1.6-3.9,2.1-9.4,1.2-14.1l-0.4-2c-0.1-0.6-0.5-1-1.1-1.2
			C44.1,31.9,43.5,32.1,43.1,32.5z"/>
	</g>
</g>
<g id="target-sight">
</g>
<g id="gps-area">
</g>
<g id="gps-alt">
</g>
<g id="target">
</g>
<g id="star">
</g>
<g id="lightning">
</g>
</svg>
