<?xml version="1.0" encoding="utf-8"?>
<!-- Generator: Adobe Illustrator 20.1.0, SVG Export Plug-In . SVG Version: 6.00 Build 0)  -->
<!DOCTYPE svg PUBLIC "-//W3C//DTD SVG 1.1//EN" "http://www.w3.org/Graphics/SVG/1.1/DTD/svg11.dtd">
<svg version="1.1" xmlns="http://www.w3.org/2000/svg" xmlns:xlink="http://www.w3.org/1999/xlink" x="0px" y="0px"
	 viewBox="0 0 64 64" style="enable-background:new 0 0 64 64;" xml:space="preserve">
<g id="dial">
</g>
<g id="dial-alt">
</g>
<g id="connections">
</g>
<g id="atom">
</g>
<g id="atom-alt">
</g>
<g id="cosmic">
</g>
<g id="cosmic-alt">
</g>
<g id="workflows">
</g>
<g id="positive">
</g>
<g id="neuron">
</g>
<g id="sitemap">
</g>
<g id="conditional">
</g>
<g id="sitemap-alt">
</g>
<g id="neuron-alt">
</g>
<g id="flask">
	<g>
		<path d="M42,7.6C42,7.6,42,7.6,42,7.6c-1.2-1.2-2.8-1.8-4.4-1.8c-1.7,0-3.2,0.7-4.4,1.8l-2.7,2.7c-1.2,1.2-1.8,2.8-1.8,4.4
			c0,0.6,0.1,1.1,0.2,1.7L4.3,26.2c-2.2,1-3.8,2.9-4.2,5.3c-0.4,2.3,0.3,4.8,2,6.5l24.2,23.9c1.3,1.3,3,2,4.8,2.1c0.1,0,0.2,0,0.3,0
			c0.5,0,0.9,0,1.5-0.2c2.4-0.5,4.4-2.1,5.2-4.4l9.6-24c0.6,0.2,1.2,0.3,1.8,0.3c1.7,0,3.3-0.7,4.4-1.8l2.7-2.7
			c1.2-1.2,1.9-2.8,1.9-4.4c0-1.7-0.7-3.2-1.8-4.4L42,7.6z M21.6,46c-2.3,0-4.2-1.9-4.2-4.2c0-2.3,1.9-4.2,4.2-4.2
			c2.3,0,4.3,1.9,4.3,4.2C25.9,44.2,24,46,21.6,46z M16.3,32.5c-1.1,0-1.9-0.8-1.9-1.9c0-1,0.8-1.9,1.9-1.9c1.1,0,1.9,0.8,1.9,1.9
			C18.3,31.7,17.4,32.5,16.3,32.5z M54.6,29l-2.7,2.7c-1,1.1-2.8,1.2-4.1,0.4c-0.4-0.2-0.8-0.3-1.3-0.2c-0.4,0.1-0.8,0.5-0.9,0.9
			l-4.7,11.6c-2,0-5.2-0.1-6.5-0.8c-1.9-1-1.3-8.4-7.3-13.9c-3.7-3.3-8.1-4.6-11-5.1l15.2-6.1c0.4-0.2,0.7-0.5,0.9-0.9
			c0.1-0.4,0.1-0.9-0.1-1.3c-0.3-0.5-0.5-1.1-0.5-1.7c0-0.9,0.3-1.7,1-2.3l2.7-2.7c0.6-0.6,1.4-1,2.3-1c0.9,0,1.7,0.3,2.3,1
			l14.7,14.7c0.6,0.6,1,1.4,1,2.3C55.5,27.6,55.2,28.4,54.6,29z"/>
		<path d="M57.7,0.1c-3.5,0-6.3,2.8-6.3,6.3s2.8,6.3,6.3,6.3c3.5,0,6.3-2.8,6.3-6.3S61.2,0.1,57.7,0.1z M57.7,9.6
			c-1.8,0-3.3-1.5-3.3-3.3s1.5-3.3,3.3-3.3c1.8,0,3.3,1.5,3.3,3.3S59.5,9.6,57.7,9.6z"/>
		<path d="M56.8,14.9c-1.1,0-1.9,0.8-1.9,1.9c0,1.1,0.8,1.9,1.9,1.9c1.1,0,1.9-0.8,1.9-1.9C58.7,15.7,57.8,14.9,56.8,14.9z"/>
	</g>
</g>
<g id="clone">
</g>
<g id="infinity">
</g>
<g id="f42">
</g>
</svg>
