<?xml version="1.0" encoding="utf-8"?>
<!-- Generator: Adobe Illustrator 20.1.0, SVG Export Plug-In . SVG Version: 6.00 Build 0)  -->
<!DOCTYPE svg PUBLIC "-//W3C//DTD SVG 1.1//EN" "http://www.w3.org/Graphics/SVG/1.1/DTD/svg11.dtd">
<svg version="1.1" id="Layer_1" xmlns="http://www.w3.org/2000/svg" xmlns:xlink="http://www.w3.org/1999/xlink" x="0px" y="0px"
	 viewBox="0 0 64 64" style="enable-background:new 0 0 64 64;" xml:space="preserve">
<g>
	<path d="M62.5,54H3V10h22.7l3.2,6.4c0.4,0.7,1.3,1,2,0.6c0.7-0.4,1-1.3,0.7-2l-3.6-7.2C27.7,7.3,27.2,7,26.6,7H1.5
		C0.7,7,0,7.6,0,8.4v47.2C0,56.4,0.7,57,1.5,57h61c0.8,0,1.5-0.7,1.5-1.5S63.3,54,62.5,54z"/>
	<path d="M43.5,46.1c4,0,7.6-1.4,10.4-3.8l7.6,7.5c0.3,0.3,0.7,0.4,1.1,0.4c0.4,0,0.8-0.1,1.1-0.4c0.3-0.3,0.4-0.7,0.4-1.1
		c0-0.4-0.1-0.8-0.4-1.1L56,40.3c2.4-2.8,3.8-6.4,3.8-10.4c0-9-7.3-16.2-16.3-16.2s-16.3,7.3-16.3,16.2
		C27.1,38.9,34.5,46.1,43.5,46.1z M43.5,16.6c7.3,0,13.3,5.9,13.3,13.2s-6,13.2-13.3,13.2s-13.3-5.9-13.3-13.2S36.1,16.6,43.5,16.6z
		"/>
</g>
</svg>
