<?xml version="1.0" encoding="utf-8"?>
<!-- Generator: Adobe Illustrator 20.1.0, SVG Export Plug-In . SVG Version: 6.00 Build 0)  -->
<!DOCTYPE svg PUBLIC "-//W3C//DTD SVG 1.1//EN" "http://www.w3.org/Graphics/SVG/1.1/DTD/svg11.dtd">
<svg version="1.1" xmlns="http://www.w3.org/2000/svg" xmlns:xlink="http://www.w3.org/1999/xlink" x="0px" y="0px"
	 viewBox="0 0 64 64" style="enable-background:new 0 0 64 64;" xml:space="preserve">
<g id="home">
</g>
<g id="shop">
</g>
<g id="buildings">
</g>
<g id="solar-panel">
</g>
<g id="towers">
</g>
<g id="stadium">
</g>
<g id="station">
</g>
<g id="shop-alt">
</g>
<g id="home-alt">
</g>
<g id="factory">
	<g>
		<path d="M62.5,28H57v-5.4c0-3.5-2.6-6.2-6-6.2s-6,2.7-6,6.2V28h-5.1L38.2,1.4C38.1,0.6,37.5,0,36.7,0h-9.4c-0.8,0-1.4,0.6-1.5,1.4
			L24.1,28h-3L19.4,1.4C19.4,0.6,18.7,0,17.9,0H8.5C7.7,0,7.1,0.6,7,1.4L5.3,28H1.5C0.7,28,0,28.7,0,29.5v33C0,63.3,0.7,64,1.5,64
			h61c0.8,0,1.5-0.7,1.5-1.5v-33C64,28.7,63.3,28,62.5,28z M48,22.6c0-1.8,1.3-3.2,3-3.2s3,1.4,3,3.2V28h-6V22.6z M28.7,3h6.6
			l1.6,25h-9.8L28.7,3z M9.9,3h6.6l1.6,25H8.3L9.9,3z M52,61h-9V48h9V61z M61,61h-6V46.5c0-0.8-0.7-1.5-1.5-1.5h-12
			c-0.8,0-1.5,0.7-1.5,1.5V61H3V31h58V61z"/>
		<rect x="10" y="40" width="9" height="7"/>
		<rect x="24" y="40" width="9" height="7"/>
	</g>
</g>
<g id="rig">
</g>
<g id="shipping-container">
</g>
<g id="official-building">
</g>
</svg>
