<?xml version="1.0" encoding="utf-8"?>
<!-- Generator: Adobe Illustrator 20.1.0, SVG Export Plug-In . SVG Version: 6.00 Build 0)  -->
<!DOCTYPE svg PUBLIC "-//W3C//DTD SVG 1.1//EN" "http://www.w3.org/Graphics/SVG/1.1/DTD/svg11.dtd">
<svg version="1.1" xmlns="http://www.w3.org/2000/svg" xmlns:xlink="http://www.w3.org/1999/xlink" x="0px" y="0px"
	 viewBox="0 0 64 64" style="enable-background:new 0 0 64 64;" xml:space="preserve">
<g id="fairground">
	<path d="M62.5,27h-6.7c-0.6-3.3-1.9-6.4-3.7-9.1l4.4-4.4c0.3-0.3,0.4-0.7,0.4-1.1s-0.2-0.8-0.4-1.1L52.1,7c-0.6-0.6-1.5-0.6-2.1,0
		l-4.4,4.4c-2.6-1.7-5.5-3-8.6-3.7c0-0.1,0-0.2,0-0.3v-6C37,0.7,36.3,0,35.5,0h-7C27.7,0,27,0.7,27,1.5v6c0,0.1,0,0.2,0,0.3
		c-3.1,0.7-6,1.9-8.6,3.7L14,7c-0.6-0.6-1.5-0.6-2.1,0l-4.4,4.4c-0.3,0.3-0.4,0.7-0.4,1.1s0.2,0.8,0.4,1.1l4.4,4.4
		c-1.8,2.7-3.1,5.8-3.7,9.1H1.5C0.7,27,0,27.7,0,28.5v6C0,35.3,0.7,36,1.5,36h6.7c0.6,3.3,1.9,6.4,3.7,9.1l-4.4,4.4
		c-0.3,0.3-0.4,0.7-0.4,1.1s0.2,0.8,0.4,1.1l4.4,4.4c0.3,0.3,0.7,0.4,1.1,0.4s0.8-0.1,1.1-0.4l4.4-4.4c0.3,0.2,0.6,0.4,0.9,0.6
		l-5.2,9.7c-0.4,0.7-0.1,1.6,0.6,2c0.7,0.4,1.6,0.1,2-0.6l5.2-9.7c1.6,0.7,3.3,1.3,5.1,1.7c0,0.1,0,0.2,0,0.3v6
		c0,0.8,0.7,1.5,1.5,1.5h7c0.8,0,1.5-0.7,1.5-1.5v-6c0-0.1,0-0.2,0-0.3c1.8-0.4,3.5-0.9,5.1-1.7l5.2,9.7c0.3,0.5,0.8,0.8,1.3,0.8
		c0.2,0,0.5-0.1,0.7-0.2c0.7-0.4,1-1.3,0.6-2l-5.2-9.7c0.3-0.2,0.6-0.4,0.9-0.6l4.4,4.4c0.3,0.3,0.7,0.4,1.1,0.4s0.8-0.1,1.1-0.4
		l4.4-4.4c0.3-0.3,0.4-0.7,0.4-1.1s-0.2-0.8-0.4-1.1l-4.4-4.4c1.8-2.7,3.1-5.8,3.7-9.1h6.7c0.8,0,1.5-0.7,1.5-1.5v-6
		C64,27.7,63.3,27,62.5,27z M51,10.2l2.3,2.3L51,14.7l-2.3-2.3L51,10.2z M30,3h4v3h-4V3z M13,10.2l2.3,2.3L13,14.7l-2.3-2.3L13,10.2
		z M7,33H3v-3h4V33z M13,52.8l-2.3-2.3l2.3-2.3l2.3,2.3L13,52.8z M34,60h-4v-3h4V60z M32,52.7c-3.1,0-6-0.7-8.7-1.9l2-3.7
		c2,0.9,4.3,1.4,6.7,1.4s4.6-0.5,6.7-1.4l2,3.7C38,52.1,35.1,52.7,32,52.7z M32,34.7l5.2,9.8c-1.6,0.7-3.4,1-5.2,1s-3.6-0.4-5.2-1
		L32,34.7z M24.1,43.1c-3.7-2.5-6.1-6.8-6.1-11.6c0-7.7,6.3-14,14-14s14,6.3,14,14c0,4.8-2.4,9.1-6.1,11.6l-6.6-12.3
		C33.1,30.3,32.6,30,32,30s-1.1,0.3-1.3,0.8L24.1,43.1z M51,52.8l-2.3-2.3l2.3-2.3l2.3,2.3L51,52.8z M43.3,49.5l-2-3.7
		c4.6-3,7.7-8.3,7.7-14.2c0-9.4-7.6-17-17-17s-17,7.6-17,17c0,6,3.1,11.2,7.7,14.2l-2,3.7c-6-3.8-10-10.4-10-18
		c0-11.7,9.5-21.2,21.3-21.2s21.3,9.5,21.3,21.2C53.3,39.1,49.3,45.7,43.3,49.5z M61,33h-4v-3h4V33z"/>
</g>
<g id="tent">
</g>
<g id="tree">
</g>
<g id="trees">
</g>
<g id="tree-alt">
</g>
<g id="butterfly">
</g>
<g id="sunrise">
</g>
<g id="waterdrop">
</g>
<g id="map">
</g>
<g id="map-alt">
</g>
<g id="earth">
</g>
<g id="earth-no">
</g>
<g id="meteor">
</g>
<g id="sun">
</g>
<g id="sun-dim">
</g>
<g id="umbrella">
</g>
<g id="umbrella-alt">
</g>
<g id="gps">
</g>
<g id="fire">
</g>
<g id="target-sight">
</g>
<g id="gps-area">
</g>
<g id="gps-alt">
</g>
<g id="target">
</g>
<g id="star">
</g>
<g id="lightning">
</g>
</svg>
