<?xml version="1.0" encoding="utf-8"?>
<!-- Generator: Adobe Illustrator 20.1.0, SVG Export Plug-In . SVG Version: 6.00 Build 0)  -->
<!DOCTYPE svg PUBLIC "-//W3C//DTD SVG 1.1//EN" "http://www.w3.org/Graphics/SVG/1.1/DTD/svg11.dtd">
<svg version="1.1" xmlns="http://www.w3.org/2000/svg" xmlns:xlink="http://www.w3.org/1999/xlink" x="0px" y="0px"
	 viewBox="0 0 64 64" style="enable-background:new 0 0 64 64;" xml:space="preserve">
<g id="text-height">
</g>
<g id="font">
	<path d="M59.3,59.3c-1.2-0.7-1.9-1.6-2.5-2.8c-0.7-1.2-1.7-3.5-3.1-7L34.1,0h-4.5L11.3,48c-1.3,3.4-2.4,5.7-3.6,7.5
		c-1.1,1.8-2.2,3.1-3.4,3.8c-1.2,0.7-2.8,1-4.3,1V64h21.8v-3.7c-1.5,0-3.8-0.3-5.2-0.8c-1.5-0.5-2.3-1.7-2.3-3.6
		c0-1,0.4-2.8,1.3-5.1l1.6-4.2H38l3.1,7.6c0.4,1,0.6,2,0.6,3c0,1.4-0.4,2.2-1.6,2.6c-1.2,0.4-3.8,0.5-5.2,0.5V64H64v-3.7
		C62.5,60.3,60.5,60,59.3,59.3z M19,42.2l8.4-22.3l8.8,22.3H19z"/>
</g>
<g id="text">
</g>
<g id="italic">
</g>
<g id="strikethrough">
</g>
<g id="paragraph">
</g>
<g id="bold">
</g>
<g id="quote-right">
</g>
<g id="hashtag">
</g>
<g id="anchor-handle">
</g>
<g id="box">
</g>
<g id="fullscreen">
</g>
<g id="fullscreen-alt">
</g>
<g id="golden-ratio">
</g>
<g id="hexgrid">
</g>
<g id="box-points">
</g>
<g id="box-points-move">
</g>
<g id="box-points-move-alt">
</g>
<g id="hex_1_">
</g>
<g id="hex-diamond">
</g>
<g id="artboards-vertical">
</g>
<g id="artboards">
</g>
<g id="artboards-alt-vertical">
</g>
<g id="artboards-alt">
</g>
<g id="scale">
</g>
<g id="pencil">
</g>
<g id="fill">
</g>
<g id="artist-mug">
</g>
<g id="pen">
</g>
<g id="calligraphy-pen-tip">
</g>
<g id="calligraphy-pen_1_">
</g>
<g id="paint-pallette">
</g>
<g id="tools-cross">
</g>
<g id="edit-tools">
</g>
<g id="pencil-ruler">
</g>
<g id="ruler-measure">
</g>
<g id="measure">
</g>
<g id="code">
</g>
<g id="move">
</g>
<g id="external">
</g>
<g id="terminal">
</g>
<g id="thumbnails">
</g>
</svg>
