<?xml version="1.0" encoding="utf-8"?>
<!-- Generator: Adobe Illustrator 20.1.0, SVG Export Plug-In . SVG Version: 6.00 Build 0)  -->
<!DOCTYPE svg PUBLIC "-//W3C//DTD SVG 1.1//EN" "http://www.w3.org/Graphics/SVG/1.1/DTD/svg11.dtd">
<svg version="1.1" xmlns="http://www.w3.org/2000/svg" xmlns:xlink="http://www.w3.org/1999/xlink" x="0px" y="0px"
	 viewBox="0 0 64 64" style="enable-background:new 0 0 64 64;" xml:space="preserve">
<g id="user">
</g>
<g id="users">
</g>
<g id="comment">
</g>
<g id="commenting">
</g>
<g id="comments">
</g>
<g id="comments-alt">
</g>
<g id="commenting-alt">
</g>
<g id="comment-alt">
</g>
<g id="face-happy">
</g>
<g id="face-ok">
</g>
<g id="face-unhappy">
</g>
<g id="mail">
</g>
<g id="phone">
</g>
<g id="fingerprint">
	<g>
		<path d="M13.9,7.6c0.3,0,0.6-0.1,0.9-0.3C14.8,7.2,20.6,3,32,3c11.3,0,17.1,4.2,17.2,4.3c0.7,0.5,1.6,0.4,2.1-0.3
			c0.5-0.7,0.4-1.6-0.3-2.1C50.8,4.7,44.4,0,32,0C19.6,0,13.2,4.7,13,4.9c-0.7,0.5-0.8,1.4-0.3,2.1C13,7.4,13.4,7.6,13.9,7.6z"/>
		<path d="M60.5,21.7c-0.4-0.6-9.7-14-28.4-14c-18.7,0-28.1,13.4-28.5,14c-0.5,0.7-0.3,1.6,0.4,2.1C4.6,24.2,5.6,24,6,23.4
			c0.1-0.1,8.9-12.7,26-12.7c17.1,0,25.9,12.5,26,12.7c0.3,0.4,0.8,0.7,1.2,0.7c0.3,0,0.6-0.1,0.8-0.3
			C60.7,23.3,60.9,22.4,60.5,21.7z"/>
		<path d="M32.1,15.6c-9.1,0-17.1,4.1-21.9,11.4c-5.1,7.6-6,17.6-2.3,26.5c0.3,0.8,1.2,1.1,2,0.8c0.8-0.3,1.1-1.2,0.8-2
			c-3.3-8-2.6-16.9,2-23.7c4.3-6.4,11.4-10,19.4-10c6,0,12.8,3.3,17.7,8.6c3.9,4.2,6,9,5.8,12.9c0,0.3-0.5,7-6.9,7c0,0-0.1,0-0.1,0
			c-0.1,0-0.1,0-0.2,0c-0.2,0-5.6,0.4-6.7-6.9c-1-6.8-3.9-9.5-9.8-9.5c-5.9,0-9.1,4.6-9.7,9.2c-1.1,8.9,8.1,22.5,19.1,24.1
			c0.1,0,0.1,0,0.2,0c0.7,0,1.4-0.5,1.5-1.3c0.1-0.8-0.4-1.6-1.3-1.7c-9.3-1.4-17.5-13.2-16.6-20.7c0.4-3,2.4-6.6,6.7-6.6
			c3.9,0,5.9,1,6.8,7c1.2,8,6.9,9.6,9.9,9.4c0,0,0.1,0,0.1,0c3.3,0,9.3-2,9.9-9.8c0.3-4.8-2.1-10.3-6.6-15.1
			C46.4,19.2,39,15.6,32.1,15.6z"/>
		<path d="M16.9,40.1c0.7-6.6,7-13.9,15-13.9c0.1,0,0.1,0,0.2,0c7.5,0.1,13.9,6.2,15,14.2c0.1,0.8,0.9,1.4,1.7,1.3
			c0.8-0.1,1.4-0.9,1.3-1.7c-1.3-9.5-9-16.7-18-16.8c-0.1,0-0.1,0-0.2,0c-7.9,0-16.9,6.6-18,16.6c-0.8,7.4,2.8,16,9.7,22.9
			c0.3,0.3,0.7,0.4,1.1,0.4c0.4,0,0.8-0.1,1.1-0.4c0.6-0.6,0.6-1.5,0-2.1C19.5,54.3,16.2,46.6,16.9,40.1z"/>
		<path d="M51.3,54c-1.1,0.3-6.9,1.4-12.1-2.5c-5.3-3.9-5.8-9.9-5.9-11.1c0-0.8-0.7-1.5-1.6-1.4c-0.8,0-1.5,0.7-1.4,1.6
			C30.4,42,31,49.2,37.4,54c3.7,2.8,7.7,3.4,10.6,3.4c1.9,0,3.4-0.3,3.9-0.4c0.8-0.2,1.3-1,1.1-1.8C52.9,54.4,52.1,53.9,51.3,54z"/>
	</g>
</g>
<g id="info">
</g>
<g id="question">
</g>
<g id="warning">
</g>
<g id="alert">
</g>
<g id="headset">
</g>
<g id="skull">
</g>
<g id="baby">
</g>
<g id="eye">
</g>
<g id="id-card">
</g>
<g id="microphone">
</g>
<g id="eye-cross">
</g>
<g id="user-commenting">
</g>
<g id="user-commenting-alt">
</g>
<g id="user-file">
</g>
<g id="user-check">
</g>
<g id="tap">
</g>
<g id="swipe">
</g>
<g id="slide">
</g>
<g id="foot">
</g>
<g id="share-social">
</g>
<g id="ghost">
</g>
</svg>
