<?xml version="1.0" encoding="utf-8"?>
<!-- Generator: Adobe Illustrator 20.1.0, SVG Export Plug-In . SVG Version: 6.00 Build 0)  -->
<!DOCTYPE svg PUBLIC "-//W3C//DTD SVG 1.1//EN" "http://www.w3.org/Graphics/SVG/1.1/DTD/svg11.dtd">
<svg version="1.1" xmlns="http://www.w3.org/2000/svg" xmlns:xlink="http://www.w3.org/1999/xlink" x="0px" y="0px"
	 viewBox="0 0 64 64" style="enable-background:new 0 0 64 64;" xml:space="preserve">
<g id="behance">
</g>
<g id="twitter">
</g>
<g id="vimeo">
</g>
<g id="wordpress">
</g>
<g id="Layer_179">
</g>
<g id="xing">
</g>
<g id="youtube">
</g>
<g id="whatsapp">
</g>
<g id="flickr">
</g>
<g id="dribbble">
</g>
<g id="facebook">
</g>
<g id="foursquare">
	<path d="M51.3,7.9C50.9,6.4,49.5,5,47,5H17.7c-2.4,0-4.6,1.7-4.8,4.4c-0.8,15.1,0,30.6,0,45.8c0,0.6,0.1,1.2,0.2,1.8
		c0.4,1.4,1.7,2,3.1,1.8c1.1-0.1,1.8-0.8,2.5-1.5c3.3-3.8,12-14,13.1-15.3c1.3-1.6,7.9-0.5,9.8-0.6c1.9,0,3.2-0.9,3.8-2.7
		c0.4-1,5.8-26.9,5.9-28C51.5,9.9,51.5,8.9,51.3,7.9z M45.1,12.8c0,0-1.1,5.3-1.3,6.2c-0.2,0.9-0.8,1.4-1.8,1.4c-3.7,0-7.3,0-11,0
		c-1.2,0-2.4,1-2.3,2.2c0,1.6,0.1,3.6,2.3,3.6c3.1,0,6.2,0.1,9.3,0c0.9,0,1.8,0.8,1.6,1.9c-0.4,2-1.2,6.2-1.3,6.3
		C40.5,35.3,39.9,36,39,36h-8.1c-0.9,0-1.7,0.2-2.3,0.9c-2.9,3.7-9.7,12-9.8,12c0-0.1,0-25,0-35.9c0-1,0.5-1.9,1.7-1.9h23.1
		C45.6,11,45.1,12.8,45.1,12.8z"/>
</g>
<g id="github">
</g>
<g id="github-alt">
</g>
<g id="google-plus">
</g>
<g id="google">
</g>
<g id="joomla">
</g>
<g id="soundcloud">
</g>
<g id="instagram">
</g>
<g id="linkedin">
</g>
<g id="pagekit">
</g>
<g id="pinterest">
</g>
<g id="windows">
</g>
<g id="bronzelabs">
</g>
<g id="apple">
</g>
<g id="android">
</g>
<g id="mwkr-alt">
</g>
<g id="mwkr">
</g>
<g id="deviantart">
</g>
<g id="deviantart-alt">
</g>
</svg>
