<?xml version="1.0" encoding="utf-8"?>
<!-- Generator: Adobe Illustrator 20.1.0, SVG Export Plug-In . SVG Version: 6.00 Build 0)  -->
<!DOCTYPE svg PUBLIC "-//W3C//DTD SVG 1.1//EN" "http://www.w3.org/Graphics/SVG/1.1/DTD/svg11.dtd">
<svg version="1.1" xmlns="http://www.w3.org/2000/svg" xmlns:xlink="http://www.w3.org/1999/xlink" x="0px" y="0px"
	 viewBox="0 0 64 64" style="enable-background:new 0 0 64 64;" xml:space="preserve">
<g id="file">
</g>
<g id="copy">
</g>
<g id="file-edit">
	<g>
		<path d="M59.9,1.7C59.9,1.7,59.9,1.7,59.9,1.7C58.7,0.6,57.3,0,55.8,0c-1.5,0-3,0.6-4.1,1.7L22.6,30.6c-0.2,0.2-0.3,0.3-0.4,0.6
			l-3.3,9.2c-0.2,0.5-0.1,1.2,0.3,1.6c0.3,0.3,0.7,0.4,1.1,0.4c0.2,0,0.3,0,0.5-0.1l9.2-3.3c0.2-0.1,0.4-0.2,0.5-0.3L59.9,9.8
			c1.1-1.1,1.7-2.5,1.7-4C61.6,4.2,61,2.8,59.9,1.7z M57.8,7.6l-29,28.6l-5.9,2.1l2.1-5.9L53.9,3.8c1.1-1.1,2.8-1.1,3.9,0
			c0.5,0.5,0.8,1.2,0.8,1.9C58.6,6.4,58.3,7.1,57.8,7.6z"/>
		<path d="M50.7,25.9c-0.8,0-1.5,0.7-1.5,1.5V61H5.4V3.4h37.5c0.8,0,1.5-0.7,1.5-1.5s-0.7-1.5-1.5-1.5h-39c-0.8,0-1.5,0.7-1.5,1.5
			v60.6c0,0.8,0.7,1.5,1.5,1.5h46.8c0.8,0,1.5-0.7,1.5-1.5V27.4C52.2,26.6,51.5,25.9,50.7,25.9z"/>
	</g>
</g>
<g id="folder">
</g>
<g id="subdirectory">
</g>
<g id="album">
</g>
<g id="push">
</g>
<g id="pull">
</g>
<g id="database">
</g>
<g id="server">
</g>
<g id="upload">
</g>
<g id="download">
</g>
<g id="cloud-download">
</g>
<g id="cloud-upload">
</g>
<g id="cloud">
</g>
<g id="cloud-no-access">
</g>
<g id="cloud-signal-up">
</g>
<g id="cloud-signal-down">
</g>
<g id="checklist">
</g>
<g id="file-folded">
</g>
<g id="file-folded-text">
</g>
<g id="inbox">
</g>
<g id="zip-folder">
</g>
<g id="image-folder">
</g>
<g id="image-album">
</g>
<g id="image">
</g>
<g id="images">
</g>
<g id="invoice">
</g>
<g id="book">
</g>
<g id="layers">
</g>
<g id="media-upload">
</g>
<g id="addresses">
</g>
<g id="floppy">
</g>
<g id="link">
</g>
<g id="link-add">
</g>
<g id="link-remove">
</g>
<g id="table">
</g>
<g id="download-book">
</g>
<g id="clipboard">
</g>
<g id="clipboard-chart">
</g>
<g id="clipboard-text">
</g>
<g id="clipboard-check">
</g>
<g id="clipboard-cross">
</g>
<g id="bookmark">
</g>
<g id="bookmark-add">
</g>
<g id="bookmark-remove">
</g>
<g id="clipboard-horizontal">
</g>
<g id="clipboard-text-horizontal">
</g>
<g id="trash">
</g>
<g id="unlock">
</g>
<g id="lock">
</g>
<g id="link-add-circle">
</g>
<g id="link-remove-circle">
</g>
<g id="sort-up">
</g>
<g id="sort-down">
</g>
<g id="list">
</g>
</svg>
