<?xml version="1.0" encoding="utf-8"?>
<!-- Generator: Adobe Illustrator 20.1.0, SVG Export Plug-In . SVG Version: 6.00 Build 0)  -->
<!DOCTYPE svg PUBLIC "-//W3C//DTD SVG 1.1//EN" "http://www.w3.org/Graphics/SVG/1.1/DTD/svg11.dtd">
<svg version="1.1" xmlns="http://www.w3.org/2000/svg" xmlns:xlink="http://www.w3.org/1999/xlink" x="0px" y="0px"
	 viewBox="0 0 64 64" style="enable-background:new 0 0 64 64;" xml:space="preserve">
<g id="user">
</g>
<g id="users">
</g>
<g id="comment">
</g>
<g id="commenting">
</g>
<g id="comments">
</g>
<g id="comments-alt">
</g>
<g id="commenting-alt">
</g>
<g id="comment-alt">
</g>
<g id="face-happy">
</g>
<g id="face-ok">
</g>
<g id="face-unhappy">
</g>
<g id="mail">
</g>
<g id="phone">
</g>
<g id="fingerprint">
</g>
<g id="info">
</g>
<g id="question">
</g>
<g id="warning">
</g>
<g id="alert">
</g>
<g id="headset">
</g>
<g id="skull">
</g>
<g id="baby">
</g>
<g id="eye">
</g>
<g id="id-card">
</g>
<g id="microphone">
</g>
<g id="eye-cross">
</g>
<g id="user-commenting">
</g>
<g id="user-commenting-alt">
</g>
<g id="user-file">
</g>
<g id="user-check">
</g>
<g id="tap">
</g>
<g id="swipe">
</g>
<g id="slide">
</g>
<g id="foot">
	<path d="M61.5,29c-0.8-2.4-2.4-4.2-3.9-5.9c-5.6-6.3-10-14.5-14-22.3c-0.4-0.7-1.3-1-2-0.7c-0.7,0.4-1,1.3-0.7,2
		c4.1,8,8.6,16.4,14.4,23c1.2,1.4,2.7,3,3.3,4.8c1.5,4.4-3.4,7.6-6.5,9.2c-1,0.5-2,0.9-3,1.3c-1.8,0.7-3.7,1.5-5.5,2.8
		c-2.8,2.1-4.7,4.9-6.6,7.7c-0.3,0.5-0.6,0.9-1,1.4c-1.9,2.8-4.3,5.8-7.5,7c-3,1.1-6.6,1.2-10.2,1.3c-1.2,0-2.5,0.1-3.7,0.2l-1,0.1
		C11.2,61,9,61.2,7.1,60.1c-0.9-0.5-1.7-1.5-1.9-2.6C5,57,4.9,56.3,5.3,55.6C6,54.4,7.8,54.1,8.6,54c0.7-0.1,1.4-0.1,2.1,0
		c1,0,2,0,3.1-0.1c3.9-0.6,7.5-3.4,9.6-7.6c1.9-3.7,2.5-8,2.8-11.7c0.8-8.9,0.4-18-1.2-26.8c-0.1-0.8-0.9-1.4-1.7-1.2
		c-0.8,0.1-1.4,0.9-1.2,1.7c1.5,8.6,1.9,17.3,1.2,26c-0.3,3.6-0.8,7.3-2.5,10.6c-1.7,3.3-4.4,5.6-7.3,6C12.5,51,11.6,51,10.7,51
		c-0.8,0-1.6,0-2.4,0.1c-2.6,0.2-4.5,1.3-5.6,3c-0.7,1.2-0.9,2.7-0.5,4.2c0.5,1.8,1.7,3.5,3.3,4.4c1.8,1,3.7,1.3,5.5,1.3
		c1,0,1.9-0.1,2.8-0.1l1-0.1c1.2-0.1,2.4-0.1,3.6-0.1c3.7-0.1,7.6-0.2,11.1-1.5c4-1.5,6.8-4.9,9-8.1c0.3-0.5,0.7-1,1-1.4
		c1.8-2.7,3.5-5.2,5.9-7c1.5-1.1,3.1-1.7,4.8-2.4c1.1-0.4,2.2-0.9,3.3-1.4C60.4,38.4,63.2,33.8,61.5,29z"/>
</g>
<g id="share-social">
</g>
<g id="ghost">
</g>
</svg>
