<?xml version="1.0" encoding="utf-8"?>
<!-- Generator: Adobe Illustrator 20.1.0, SVG Export Plug-In . SVG Version: 6.00 Build 0)  -->
<!DOCTYPE svg PUBLIC "-//W3C//DTD SVG 1.1//EN" "http://www.w3.org/Graphics/SVG/1.1/DTD/svg11.dtd">
<svg version="1.1" xmlns="http://www.w3.org/2000/svg" xmlns:xlink="http://www.w3.org/1999/xlink" x="0px" y="0px"
	 viewBox="0 0 64 64" style="enable-background:new 0 0 64 64;" xml:space="preserve">
<g id="bulb">
</g>
<g id="bulb-on">
</g>
<g id="bulb-alt">
</g>
<g id="bulb-on-alt">
</g>
<g id="energy-bulb">
</g>
<g id="toasting">
</g>
<g id="toasted">
</g>
<g id="binoculars">
</g>
<g id="gift">
</g>
<g id="shaver">
</g>
<g id="candle">
</g>
<g id="shower">
</g>
<g id="bomb">
</g>
<g id="joystick">
</g>
<g id="megaphone">
</g>
<g id="chestdraw">
</g>
<g id="armchair">
</g>
<g id="cardboard-box">
</g>
<g id="bath-shower">
</g>
<g id="diamond">
</g>
<g id="cassette">
</g>
<g id="iron">
</g>
<g id="wash">
</g>
<g id="keyboard-keys">
</g>
<g id="earphones">
</g>
<g id="lifebuoy">
</g>
<g id="calculator">
</g>
<g id="safe">
</g>
<g id="balloon">
</g>
<g id="cake">
</g>
<g id="baseball">
</g>
<g id="football-american">
	<g>
		<path d="M63.8,9.8c-0.4-5-4.5-9.1-9.5-9.5C39.5-1,25.1,4.3,14.6,14.7C4.2,25.1-1.1,39.5,0.2,54.2c0.4,5,4.5,9.1,9.5,9.5
			c1.4,0.1,2.9,0.2,4.3,0.2c13.2,0,25.9-5.2,35.4-14.6C59.8,38.9,65.1,24.5,63.8,9.8z M50,3.1c1.3,0,2.7,0.1,4,0.2
			c3.6,0.3,6.5,3.2,6.8,6.8c0.4,4.9,0,9.9-1,14.6c-9.4-2.2-18.1-11-20.4-20.3C42.9,3.5,46.4,3.1,50,3.1z M10,60.7
			c-3.6-0.3-6.5-3.2-6.8-6.8c-0.4-4.9,0-9.9,1-14.6c9.4,2.2,18.1,11,20.4,20.3C19.8,60.8,14.9,61.1,10,60.7z M47.3,47.2
			c-5.6,5.6-12.4,9.5-19.8,11.7C25,48.6,15.3,39,5,36.5c2.2-7.4,6.2-14.1,11.8-19.7c5.6-5.6,12.4-9.6,19.8-11.7
			C39,15.4,48.7,25,59,27.5C56.8,34.9,52.8,41.6,47.3,47.2z"/>
		<path d="M38.2,27.9l0.6-0.6c0.6-0.6,0.6-1.5,0-2.1c-0.6-0.6-1.5-0.6-2.1,0l-0.6,0.6l-1.4-1.4c-0.6-0.6-1.5-0.6-2.1,0
			C32,25,32,26,32.6,26.6l1.4,1.4l-1.1,1.1l-1.4-1.4c-0.6-0.6-1.5-0.6-2.1,0c-0.6,0.6-0.6,1.5,0,2.1l1.4,1.4l-1.1,1.1l-1.4-1.4
			c-0.6-0.6-1.5-0.6-2.1,0c-0.6,0.6-0.6,1.5,0,2.1l1.4,1.4l-1.1,1.1l-1.4-1.4c-0.6-0.6-1.5-0.6-2.1,0c-0.6,0.6-0.6,1.5,0,2.1
			l1.4,1.4l-0.6,0.6c-0.6,0.6-0.6,1.5,0,2.1c0.3,0.3,0.7,0.4,1.1,0.4c0.4,0,0.8-0.1,1.1-0.4l0.6-0.6l1.4,1.4
			c0.3,0.3,0.7,0.4,1.1,0.4c0.4,0,0.8-0.1,1.1-0.4c0.6-0.6,0.6-1.5,0-2.1l-1.4-1.4l1.1-1.1l1.4,1.4c0.3,0.3,0.7,0.4,1.1,0.4
			c0.4,0,0.8-0.1,1.1-0.4c0.6-0.6,0.6-1.5,0-2.1l-1.4-1.4l1.1-1.1l1.4,1.4c0.3,0.3,0.7,0.4,1.1,0.4c0.4,0,0.8-0.1,1.1-0.4
			c0.6-0.6,0.6-1.5,0-2.1l-1.4-1.4l1.1-1.1l1.4,1.4c0.3,0.3,0.7,0.4,1.1,0.4c0.4,0,0.8-0.1,1.1-0.4c0.6-0.6,0.6-1.5,0-2.1L38.2,27.9
			z"/>
	</g>
</g>
<g id="football">
</g>
<g id="anchor">
</g>
<g id="compact-disc">
</g>
<g id="bbq">
</g>
<g id="coffee-machine">
</g>
<g id="teapot">
</g>
<g id="outdoor-stove">
</g>
<g id="pram">
</g>
<g id="paintbrush">
</g>
<g id="stamp">
</g>
<g id="eyedrop">
</g>
<g id="musical-note">
</g>
<g id="magnet">
</g>
<g id="alarm-bell">
</g>
<g id="globe">
</g>
<g id="key">
</g>
<g id="ink">
</g>
<g id="paperclip">
</g>
<g id="paint-roller">
</g>
<g id="keyboard">
</g>
</svg>
