<?xml version="1.0" encoding="utf-8"?>
<!-- Generator: Adobe Illustrator 20.1.0, SVG Export Plug-In . SVG Version: 6.00 Build 0)  -->
<!DOCTYPE svg PUBLIC "-//W3C//DTD SVG 1.1//EN" "http://www.w3.org/Graphics/SVG/1.1/DTD/svg11.dtd">
<svg version="1.1" xmlns="http://www.w3.org/2000/svg" xmlns:xlink="http://www.w3.org/1999/xlink" x="0px" y="0px"
	 viewBox="0 0 64 64" style="enable-background:new 0 0 64 64;" xml:space="preserve">
<g id="text-height">
</g>
<g id="font">
</g>
<g id="text">
</g>
<g id="italic">
</g>
<g id="strikethrough">
</g>
<g id="paragraph">
</g>
<g id="bold">
</g>
<g id="quote-right">
</g>
<g id="hashtag">
</g>
<g id="anchor-handle">
</g>
<g id="box">
</g>
<g id="fullscreen">
</g>
<g id="fullscreen-alt">
	<g>
		<path d="M31.7,34.3l18.2-18.2V30c0,0.8,0.7,1.5,1.5,1.5s1.5-0.7,1.5-1.5V12.5c0,0,0,0,0,0c0-0.2,0-0.4-0.1-0.5c0,0,0,0,0,0
			c-0.1-0.2-0.2-0.4-0.3-0.5c0,0,0,0,0,0c0,0,0,0,0,0c-0.1-0.1-0.3-0.2-0.5-0.3c0,0,0,0,0,0c-0.2-0.1-0.4-0.1-0.5-0.1H34
			c-0.8,0-1.5,0.7-1.5,1.5S33.2,14,34,14h13.8L29.6,32.2c-0.6,0.6-0.6,1.5,0,2.1c0.3,0.3,0.7,0.4,1.1,0.4S31.4,34.6,31.7,34.3z"/>
		<path d="M62.5,0h-61C0.7,0,0,0.7,0,1.5V32c0,0.8,0.7,1.5,1.5,1.5S3,32.8,3,32V3h58v58H32c-0.8,0-1.5,0.7-1.5,1.5S31.2,64,32,64
			h30.5c0.8,0,1.5-0.7,1.5-1.5v-61C64,0.7,63.3,0,62.5,0z"/>
		<path d="M27.5,35h-26C0.7,35,0,35.7,0,36.5v26C0,63.3,0.7,64,1.5,64h26c0.8,0,1.5-0.7,1.5-1.5v-26C29,35.7,28.3,35,27.5,35z
			 M26,61H3V38h23V61z"/>
	</g>
</g>
<g id="golden-ratio">
</g>
<g id="hexgrid">
</g>
<g id="box-points">
</g>
<g id="box-points-move">
</g>
<g id="box-points-move-alt">
</g>
<g id="hex_1_">
</g>
<g id="hex-diamond">
</g>
<g id="artboards-vertical">
</g>
<g id="artboards">
</g>
<g id="artboards-alt-vertical">
</g>
<g id="artboards-alt">
</g>
<g id="scale">
</g>
<g id="pencil">
</g>
<g id="fill">
</g>
<g id="artist-mug">
</g>
<g id="pen">
</g>
<g id="calligraphy-pen-tip">
</g>
<g id="calligraphy-pen_1_">
</g>
<g id="paint-pallette">
</g>
<g id="tools-cross">
</g>
<g id="edit-tools">
</g>
<g id="pencil-ruler">
</g>
<g id="ruler-measure">
</g>
<g id="measure">
</g>
<g id="code">
</g>
<g id="move">
</g>
<g id="external">
</g>
<g id="terminal">
</g>
<g id="thumbnails">
</g>
</svg>
