<?xml version="1.0" encoding="utf-8"?>
<!-- Generator: Adobe Illustrator 20.1.0, SVG Export Plug-In . SVG Version: 6.00 Build 0)  -->
<!DOCTYPE svg PUBLIC "-//W3C//DTD SVG 1.1//EN" "http://www.w3.org/Graphics/SVG/1.1/DTD/svg11.dtd">
<svg version="1.1" id="Layer_1" xmlns="http://www.w3.org/2000/svg" xmlns:xlink="http://www.w3.org/1999/xlink" x="0px" y="0px"
	 viewBox="0 0 64 64" style="enable-background:new 0 0 64 64;" xml:space="preserve">
<g>
	<path d="M51.5,52.3c-0.8,0-1.5,0.7-1.5,1.5V61H6V3h44v7.2c0,0.8,0.7,1.5,1.5,1.5S53,11,53,10.2V1.5C53,0.7,52.4,0,51.5,0H4.3
		C3.5,0,3,0.7,3,1.5v61C3,63.3,3.5,64,4.3,64h47.2c0.8,0,1.5-0.7,1.5-1.5v-8.7C53,53,52.3,52.3,51.5,52.3z"/>
	<path d="M62.8,49.3l-7.6-7.5c2.4-2.8,3.8-6.4,3.8-10.4c0-9-7.3-16.2-16.3-16.2s-16.3,7.3-16.3,16.2c0,9,7.3,16.2,16.3,16.2
		c4,0,7.6-1.4,10.4-3.8l7.6,7.5c0.3,0.3,0.7,0.4,1.1,0.4c0.4,0,0.8-0.1,1.1-0.4c0.3-0.3,0.4-0.7,0.4-1.1
		C63.3,49.9,63.1,49.6,62.8,49.3z M29.4,31.4c0-7.3,6-13.2,13.3-13.2S56,24.1,56,31.4c0,7.3-6,13.2-13.3,13.2S29.4,38.7,29.4,31.4z"
		/>
</g>
</svg>
