<?xml version="1.0" encoding="utf-8"?>
<!-- Generator: Adobe Illustrator 20.1.0, SVG Export Plug-In . SVG Version: 6.00 Build 0)  -->
<!DOCTYPE svg PUBLIC "-//W3C//DTD SVG 1.1//EN" "http://www.w3.org/Graphics/SVG/1.1/DTD/svg11.dtd">
<svg version="1.1" xmlns="http://www.w3.org/2000/svg" xmlns:xlink="http://www.w3.org/1999/xlink" x="0px" y="0px"
	 viewBox="0 0 64 64" style="enable-background:new 0 0 64 64;" xml:space="preserve">
<g id="fairground">
</g>
<g id="tent">
</g>
<g id="tree">
</g>
<g id="trees">
</g>
<g id="tree-alt">
</g>
<g id="butterfly">
</g>
<g id="sunrise">
</g>
<g id="waterdrop">
</g>
<g id="map">
</g>
<g id="map-alt">
</g>
<g id="earth">
</g>
<g id="earth-no">
</g>
<g id="meteor">
</g>
<g id="sun">
</g>
<g id="sun-dim">
</g>
<g id="umbrella">
</g>
<g id="umbrella-alt">
</g>
<g id="gps">
</g>
<g id="fire">
</g>
<g id="target-sight">
</g>
<g id="gps-area">
</g>
<g id="gps-alt">
	<path d="M37.8,17.4c2.3-1.8,3.8-4.6,3.8-7.7C41.7,4.3,37.3,0,32,0s-9.7,4.3-9.7,9.7c0,3.1,1.5,5.9,3.8,7.7
		c-6.8,2.4-11.6,8.9-11.6,16.4c0,10.9,10.1,22.5,16.1,29.5c0,0.1,0.1,0.1,0.1,0.1l0,0c0.2,0.2,0.4,0.4,0.7,0.5
		c0.1,0,0.3,0.1,0.5,0.1c0.3,0,0.6-0.1,0.8-0.2c0.2-0.1,0.3-0.2,0.4-0.3c0.1,0,0.1-0.1,0.2-0.2c6-6.9,16.1-18.6,16.1-29.5
		C49.5,26.2,44.6,19.8,37.8,17.4z M25.3,9.7C25.3,6,28.3,3,32,3s6.7,3,6.7,6.7c0,3.7-3,6.7-6.7,6.7S25.3,13.3,25.3,9.7z M32,60.3
		c-5.8-6.7-14.5-17.1-14.5-26.5c0-8,6.5-14.5,14.5-14.5s14.5,6.5,14.5,14.5C46.5,43.1,37.8,53.6,32,60.3z"/>
</g>
<g id="target">
</g>
<g id="star">
</g>
<g id="lightning">
</g>
</svg>
