<?xml version="1.0" encoding="utf-8"?>
<!-- Generator: Adobe Illustrator 20.1.0, SVG Export Plug-In . SVG Version: 6.00 Build 0)  -->
<!DOCTYPE svg PUBLIC "-//W3C//DTD SVG 1.1//EN" "http://www.w3.org/Graphics/SVG/1.1/DTD/svg11.dtd">
<svg version="1.1" xmlns="http://www.w3.org/2000/svg" xmlns:xlink="http://www.w3.org/1999/xlink" x="0px" y="0px"
	 viewBox="0 0 64 64" style="enable-background:new 0 0 64 64;" xml:space="preserve">
<g id="gender-all">
</g>
<g id="gender-venus">
	<path d="M52.4,23.4c0-11.1-9.2-20.2-20.4-20.2s-20.4,9.1-20.4,20.2c0,10.6,8.4,19.3,18.9,20.1v5.7H23c-0.8,0-1.5,0.7-1.5,1.5
		s0.7,1.5,1.5,1.5h7.5v7c0,0.8,0.7,1.5,1.5,1.5s1.5-0.7,1.5-1.5v-7H41c0.8,0,1.5-0.7,1.5-1.5s-0.7-1.5-1.5-1.5h-7.5v-5.7
		C44.1,42.8,52.4,34.1,52.4,23.4z M14.6,23.4C14.6,14,22.4,6.3,32,6.3S49.4,14,49.4,23.4c0,9.5-7.8,17.2-17.4,17.2
		S14.6,32.9,14.6,23.4z"/>
</g>
<g id="gender-mars">
</g>
</svg>
