<?xml version="1.0" encoding="utf-8"?>
<!-- Generator: Adobe Illustrator 20.1.0, SVG Export Plug-In . SVG Version: 6.00 Build 0)  -->
<!DOCTYPE svg PUBLIC "-//W3C//DTD SVG 1.1//EN" "http://www.w3.org/Graphics/SVG/1.1/DTD/svg11.dtd">
<svg version="1.1" xmlns="http://www.w3.org/2000/svg" xmlns:xlink="http://www.w3.org/1999/xlink" x="0px" y="0px"
	 viewBox="0 0 64 64.5" style="enable-background:new 0 0 64 64.5;" xml:space="preserve">
<g id="gender-all">
	<path d="M53.6,0.5C53.6,0.5,53.6,0.5,53.6,0.5C53.6,0.4,53.6,0.4,53.6,0.5C53.6,0.4,53.6,0.4,53.6,0.5c-0.2-0.1-0.3-0.2-0.4-0.3
		c-0.1,0-0.2-0.1-0.3-0.1c0,0-0.1,0-0.1,0c-0.1,0-0.3,0-0.4,0L39,0c0,0,0,0,0,0c-0.8,0-1.5,0.7-1.5,1.5C37.5,2.3,38.2,3,39,3l9.8,0
		l-8.2,8.1c-3.2-2.2-7-3.5-11.1-3.5c-10.8,0-19.6,8.7-19.6,19.4c0,10.2,8,18.6,18.1,19.4l0,5.1h-6.9c-0.8,0-1.5,0.7-1.5,1.5
		s0.7,1.5,1.5,1.5h6.9l0,7.9c0,0.8,0.7,1.5,1.5,1.5c0,0,0,0,0,0c0.8,0,1.5-0.7,1.5-1.5l0-7.9H38c0.8,0,1.5-0.7,1.5-1.5
		s-0.7-1.5-1.5-1.5h-6.9l0-5.1c10.1-0.8,18.1-9.2,18.1-19.4c0-5.5-2.4-10.5-6.1-14.1l8-8l0,9.8c0,0.8,0.7,1.5,1.5,1.5c0,0,0,0,0,0
		c0.8,0,1.5-0.7,1.5-1.5l0-13.4C54.1,1.1,53.9,0.8,53.6,0.5z M46.2,27.2c0,9.1-7.5,16.4-16.6,16.4s-16.6-7.4-16.6-16.4
		s7.5-16.4,16.6-16.4S46.2,18.1,46.2,27.2z"/>
</g>
<g id="gender-venus">
</g>
<g id="gender-mars">
</g>
</svg>
