<?xml version="1.0" encoding="utf-8"?>
<!-- Generator: Adobe Illustrator 20.1.0, SVG Export Plug-In . SVG Version: 6.00 Build 0)  -->
<!DOCTYPE svg PUBLIC "-//W3C//DTD SVG 1.1//EN" "http://www.w3.org/Graphics/SVG/1.1/DTD/svg11.dtd">
<svg version="1.1" xmlns="http://www.w3.org/2000/svg" xmlns:xlink="http://www.w3.org/1999/xlink" x="0px" y="0px"
	 viewBox="0 0 64 64" style="enable-background:new 0 0 64 64;" xml:space="preserve">
<g id="behance">
</g>
<g id="twitter">
</g>
<g id="vimeo">
</g>
<g id="wordpress">
</g>
<g id="Layer_179">
</g>
<g id="xing">
</g>
<g id="youtube">
</g>
<g id="whatsapp">
</g>
<g id="flickr">
</g>
<g id="dribbble">
</g>
<g id="facebook">
</g>
<g id="foursquare">
</g>
<g id="github">
</g>
<g id="github-alt">
</g>
<g id="google-plus">
</g>
<g id="google">
	<path d="M60.9,28h-27v9.8H50c-0.5,5.8-6,11.5-12.2,12.9c-8.8,2-17-1.4-21.3-8.9C12.2,34.5,13.2,25,18.7,19
		c2.9-3.2,6.4-5.4,10.7-6.1c5.7-1,11,0.4,15.5,4.3c2.7-2.5,5.1-4.9,7.8-7.3c-0.9-0.8-1.4-1.3-2.1-1.8c-6-4.7-12.8-6.5-20.4-6
		C10.8,3.5-2.2,22.9,4.3,41.9C10.4,59.6,30,66.4,46,59.1C58.2,53.6,63.1,39.2,60.9,28z"/>
</g>
<g id="joomla">
</g>
<g id="soundcloud">
</g>
<g id="instagram">
</g>
<g id="linkedin">
</g>
<g id="pagekit">
</g>
<g id="pinterest">
</g>
<g id="windows">
</g>
<g id="bronzelabs">
</g>
<g id="apple">
</g>
<g id="android">
</g>
<g id="mwkr-alt">
</g>
<g id="mwkr">
</g>
<g id="deviantart">
</g>
<g id="deviantart-alt">
</g>
</svg>
