<?xml version="1.0" encoding="utf-8"?>
<!-- Generator: Adobe Illustrator 20.1.0, SVG Export Plug-In . SVG Version: 6.00 Build 0)  -->
<!DOCTYPE svg PUBLIC "-//W3C//DTD SVG 1.1//EN" "http://www.w3.org/Graphics/SVG/1.1/DTD/svg11.dtd">
<svg version="1.1" xmlns="http://www.w3.org/2000/svg" xmlns:xlink="http://www.w3.org/1999/xlink" x="0px" y="0px"
	 viewBox="0 0 64 64" style="enable-background:new 0 0 64 64;" xml:space="preserve">
<g id="behance">
</g>
<g id="twitter">
</g>
<g id="vimeo">
</g>
<g id="wordpress">
</g>
<g id="Layer_179">
</g>
<g id="xing">
</g>
<g id="youtube">
</g>
<g id="whatsapp">
</g>
<g id="flickr">
</g>
<g id="dribbble">
</g>
<g id="facebook">
</g>
<g id="foursquare">
</g>
<g id="github">
	<path d="M32,2.4C15.3,2.4,1.7,16,1.7,32.7c0,13.4,8.7,24.7,20.7,28.8c1.5,0.3,2.1-0.7,2.1-1.4c0-0.7,0-2.6,0-5.2
		c-8.4,1.8-10.2-4.1-10.2-4.1c-1.4-3.5-3.4-4.4-3.4-4.4c-2.8-1.9,0.2-1.9,0.2-1.9c3,0.2,4.6,3.1,4.6,3.1c2.7,4.6,7.1,3.3,8.8,2.5
		c0.3-2,1-3.3,1.9-4c-6.7-0.8-13.8-3.4-13.8-15c0-3.3,1.2-6,3.1-8.1c-0.3-0.8-1.3-3.8,0.3-8c0,0,2.6-0.8,8.3,3.1c2.4-0.7,5-1,7.6-1
		s5.2,0.3,7.6,1c5.8-3.9,8.3-3.1,8.3-3.1c1.6,4.2,0.6,7.2,0.3,8c2,2.1,3.1,4.8,3.1,8.1c0,11.6-7.1,14.2-13.8,14.9
		c1.1,0.9,2.1,2.8,2.1,5.6c0,4,0,7.3,0,8.3c0,0.8,0.5,1.8,2.1,1.4c12.1-4,20.7-15.4,20.7-28.8C62.3,16,48.7,2.4,32,2.4z"/>
</g>
<g id="github-alt">
</g>
<g id="google-plus">
</g>
<g id="google">
</g>
<g id="joomla">
</g>
<g id="soundcloud">
</g>
<g id="instagram">
</g>
<g id="linkedin">
</g>
<g id="pagekit">
</g>
<g id="pinterest">
</g>
<g id="windows">
</g>
<g id="bronzelabs">
</g>
<g id="apple">
</g>
<g id="android">
</g>
<g id="mwkr-alt">
</g>
<g id="mwkr">
</g>
<g id="deviantart">
</g>
<g id="deviantart-alt">
</g>
</svg>
