<?xml version="1.0" encoding="utf-8"?>
<!-- Generator: Adobe Illustrator 20.1.0, SVG Export Plug-In . SVG Version: 6.00 Build 0)  -->
<!DOCTYPE svg PUBLIC "-//W3C//DTD SVG 1.1//EN" "http://www.w3.org/Graphics/SVG/1.1/DTD/svg11.dtd">
<svg version="1.1" xmlns="http://www.w3.org/2000/svg" xmlns:xlink="http://www.w3.org/1999/xlink" x="0px" y="0px"
	 viewBox="0 0 64 64" style="enable-background:new 0 0 64 64;" xml:space="preserve">
<g id="behance">
</g>
<g id="twitter">
</g>
<g id="vimeo">
</g>
<g id="wordpress">
</g>
<g id="Layer_179">
</g>
<g id="xing">
</g>
<g id="youtube">
</g>
<g id="whatsapp">
</g>
<g id="flickr">
</g>
<g id="dribbble">
</g>
<g id="facebook">
</g>
<g id="foursquare">
</g>
<g id="github">
</g>
<g id="github-alt">
</g>
<g id="google-plus">
	<g>
		<path d="M22.2,36.8H33c-0.6,4.5-3.8,7.3-8.3,8.3c-6.4,1.3-11.5-0.6-14.7-6.1c-3.2-5.1-2.6-11.8,1.6-16c1.9-2.2,4.5-3.5,7.3-4.2
			c4.5-0.6,8,0.3,11.2,2.9c1.6-1.9,3.8-3.5,5.4-5.1c-0.3-0.6-1-1-1.3-1.3c-4.5-3.2-9.3-4.5-14.7-4.1C6.2,12.2-3.4,25.9,1.1,39
			c4.1,12.1,18.2,17.2,30,11.5c8.3-4.1,10.2-11.5,10.2-20.1H22.2V36.8z"/>
		<polygon points="57.6,30.4 57.6,24 51.2,24 51.2,30.4 44.8,30.4 44.8,36.8 51.2,36.8 51.2,43.1 57.6,43.1 57.6,36.8 64,36.8 
			64,30.4 		"/>
	</g>
</g>
<g id="google">
</g>
<g id="joomla">
</g>
<g id="soundcloud">
</g>
<g id="instagram">
</g>
<g id="linkedin">
</g>
<g id="pagekit">
</g>
<g id="pinterest">
</g>
<g id="windows">
</g>
<g id="bronzelabs">
</g>
<g id="apple">
</g>
<g id="android">
</g>
<g id="mwkr-alt">
</g>
<g id="mwkr">
</g>
<g id="deviantart">
</g>
<g id="deviantart-alt">
</g>
</svg>
