<?xml version="1.0" encoding="utf-8"?>
<!-- Generator: Adobe Illustrator 20.1.0, SVG Export Plug-In . SVG Version: 6.00 Build 0)  -->
<!DOCTYPE svg PUBLIC "-//W3C//DTD SVG 1.1//EN" "http://www.w3.org/Graphics/SVG/1.1/DTD/svg11.dtd">
<svg version="1.1" xmlns="http://www.w3.org/2000/svg" xmlns:xlink="http://www.w3.org/1999/xlink" x="0px" y="0px"
	 viewBox="0 0 64 64" style="enable-background:new 0 0 64 64;" xml:space="preserve">
<g id="git-fork">
</g>
<g id="git-branch">
</g>
<g id="git-merge">
</g>
<g id="git-stash">
	<g>
		<path d="M59.1,0.1c-0.8,0-1.5,0.7-1.5,1.5s0.7,1.5,1.5,1.5c1,0,1.9,0.8,1.9,1.9v53.9c0,1.1-0.9,2.1-1.9,2.1H4.9
			c-1,0-1.9-1-1.9-2.1V5c0-1,0.8-1.9,1.9-1.9c0.8,0,1.5-0.7,1.5-1.5S5.7,0.1,4.9,0.1C2.2,0.1,0,2.3,0,5v53.9c0,2.7,2.2,5.1,4.9,5.1
			h54.2c2.6,0,4.9-2.3,4.9-5.1V5C64,2.3,61.8,0.1,59.1,0.1z"/>
		<path d="M19.8,54.8c4.6,0,8.3-3.7,8.3-8.2s-3.7-8.2-8.3-8.2c-4.6,0-8.3,3.7-8.3,8.2S15.2,54.8,19.8,54.8z M19.8,41.3
			c2.9,0,5.3,2.3,5.3,5.2s-2.4,5.2-5.3,5.2s-5.3-2.3-5.3-5.2S16.9,41.3,19.8,41.3z"/>
		<path d="M35.9,46.5c0,4.5,3.7,8.2,8.3,8.2c4.6,0,8.3-3.7,8.3-8.2s-3.7-8.2-8.3-8.2C39.6,38.3,35.9,42,35.9,46.5z M44.2,41.3
			c2.9,0,5.3,2.3,5.3,5.2s-2.4,5.2-5.3,5.2s-5.3-2.3-5.3-5.2S41.3,41.3,44.2,41.3z"/>
		<path d="M32,37c4.6,0,8.3-3.7,8.3-8.2s-3.7-8.2-8.3-8.2s-8.3,3.7-8.3,8.2S27.4,37,32,37z M32,23.5c2.9,0,5.3,2.3,5.3,5.2
			S34.9,34,32,34s-5.3-2.3-5.3-5.2S29.1,23.5,32,23.5z"/>
	</g>
</g>
</svg>
