<?xml version="1.0" encoding="utf-8"?>
<!-- Generator: Adobe Illustrator 20.1.0, SVG Export Plug-In . SVG Version: 6.00 Build 0)  -->
<!DOCTYPE svg PUBLIC "-//W3C//DTD SVG 1.1//EN" "http://www.w3.org/Graphics/SVG/1.1/DTD/svg11.dtd">
<svg version="1.1" xmlns="http://www.w3.org/2000/svg" xmlns:xlink="http://www.w3.org/1999/xlink" x="0px" y="0px"
	 viewBox="0 0 64 64" style="enable-background:new 0 0 64 64;" xml:space="preserve">
<g id="git-fork">
</g>
<g id="git-branch">
</g>
<g id="git-merge">
	<g>
		<path d="M28.4,8.3c0-4.6-3.7-8.3-8.3-8.3s-8.3,3.7-8.3,8.3c0,4.2,3.2,7.7,7.2,8.2v31c-4.1,0.5-7.2,4-7.2,8.2
			c0,4.6,3.7,8.3,8.3,8.3s8.3-3.7,8.3-8.3c0-3.9-2.7-7.2-6.4-8V16.3C25.7,15.5,28.4,12.2,28.4,8.3z M14.8,8.3c0-2.9,2.4-5.3,5.3-5.3
			s5.3,2.4,5.3,5.3c0,2.7-2.1,5-4.8,5.2c0,0,0,0-0.1,0c-0.1,0-0.2,0-0.4,0.1c0,0,0,0-0.1,0C17.2,13.6,14.8,11.2,14.8,8.3z
			 M25.4,55.7c0,2.9-2.4,5.3-5.3,5.3s-5.3-2.4-5.3-5.3s2.4-5.3,5.3-5.3c0,0,0,0,0.1,0c0.1,0,0.2,0.1,0.4,0.1c0,0,0,0,0.1,0
			C23.3,50.7,25.4,53,25.4,55.7z"/>
		<path d="M45.4,47.6c-0.5-7.7-5.4-14.4-12.6-17.3l5,0c0.8,0,1.5-0.7,1.5-1.5c0-0.8-0.7-1.5-1.5-1.5c0,0,0,0,0,0l-7.9,0
			c-0.4,0-0.8,0.2-1.1,0.4c-0.3,0.3-0.4,0.7-0.4,1.1l0,7.9c0,0.8,0.7,1.5,1.5,1.5c0,0,0,0,0,0c0.8,0,1.5-0.7,1.5-1.5l0-3.7
			c6.1,2.4,10.4,8,10.9,14.6c-3.8,0.7-6.8,4.1-6.8,8.1c0,4.6,3.7,8.3,8.3,8.3s8.3-3.7,8.3-8.3C52.2,51.6,49.3,48.3,45.4,47.6z
			 M43.9,61c-2.9,0-5.3-2.4-5.3-5.3s2.4-5.3,5.3-5.3s5.3,2.4,5.3,5.3S46.8,61,43.9,61z"/>
	</g>
</g>
<g id="git-stash">
</g>
</svg>
