<?xml version="1.0" encoding="utf-8"?>
<!-- Generator: Adobe Illustrator 20.1.0, SVG Export Plug-In . SVG Version: 6.00 Build 0)  -->
<!DOCTYPE svg PUBLIC "-//W3C//DTD SVG 1.1//EN" "http://www.w3.org/Graphics/SVG/1.1/DTD/svg11.dtd">
<svg version="1.1" xmlns="http://www.w3.org/2000/svg" xmlns:xlink="http://www.w3.org/1999/xlink" x="0px" y="0px"
	 viewBox="0 0 64 64" style="enable-background:new 0 0 64 64;" xml:space="preserve">
<g id="bulb">
</g>
<g id="bulb-on">
</g>
<g id="bulb-alt">
</g>
<g id="bulb-on-alt">
</g>
<g id="energy-bulb">
</g>
<g id="toasting">
</g>
<g id="toasted">
</g>
<g id="binoculars">
</g>
<g id="gift">
</g>
<g id="shaver">
</g>
<g id="candle">
</g>
<g id="shower">
</g>
<g id="bomb">
</g>
<g id="joystick">
</g>
<g id="megaphone">
</g>
<g id="chestdraw">
</g>
<g id="armchair">
</g>
<g id="cardboard-box">
</g>
<g id="bath-shower">
</g>
<g id="diamond">
</g>
<g id="cassette">
</g>
<g id="iron">
</g>
<g id="wash">
</g>
<g id="keyboard-keys">
</g>
<g id="earphones">
</g>
<g id="lifebuoy">
</g>
<g id="calculator">
</g>
<g id="safe">
</g>
<g id="balloon">
</g>
<g id="cake">
</g>
<g id="baseball">
</g>
<g id="football-american">
</g>
<g id="football">
</g>
<g id="anchor">
</g>
<g id="compact-disc">
</g>
<g id="bbq">
</g>
<g id="coffee-machine">
</g>
<g id="teapot">
</g>
<g id="outdoor-stove">
</g>
<g id="pram">
</g>
<g id="paintbrush">
</g>
<g id="stamp">
</g>
<g id="eyedrop">
</g>
<g id="musical-note">
</g>
<g id="magnet">
</g>
<g id="alarm-bell">
</g>
<g id="globe">
	<g>
		<path d="M28.8,45.4c12,0,21.7-9.7,21.7-21.6c0-11.9-9.7-21.6-21.7-21.6S7.1,11.8,7.1,23.7C7.1,35.7,16.8,45.4,28.8,45.4z
			 M28.8,5.1c10.3,0,18.7,8.4,18.7,18.6c0,10.3-8.4,18.6-18.7,18.6c-10.3,0-18.7-8.4-18.7-18.6C10.1,13.5,18.5,5.1,28.8,5.1z"/>
		<path d="M50.2,45c5.7-5.7,8.9-13.2,8.9-21.3c0-7.5-2.8-14.6-7.8-20.2l1-1c0.6-0.6,0.6-1.5,0-2.1c-0.6-0.6-1.5-0.6-2.1,0l-4.3,4.2
			c-0.6,0.6-0.6,1.5,0,2.1c0.3,0.3,0.7,0.4,1.1,0.4c0.4,0,0.8-0.1,1.1-0.4l1.1-1.1c4.5,5,6.9,11.3,6.9,18.1c0,7.2-2.8,14-8,19.2
			c-10.3,10.2-26.7,10.6-37.4,1l1.1-1.1c0.6-0.6,0.6-1.5,0-2.1c-0.6-0.6-1.5-0.6-2.1,0l-4.3,4.2c-0.6,0.6-0.6,1.5,0,2.1
			c0.3,0.3,0.7,0.4,1.1,0.4c0.4,0,0.8-0.1,1.1-0.4l1-1c4.9,4.4,11,7,17.2,7.6v2.3c-4.8,0.6-9.5,2.4-13.7,5.4
			c-0.5,0.4-0.8,1.1-0.6,1.7s0.8,1,1.4,1h31.9c0.7,0,1.2-0.4,1.4-1s0-1.3-0.6-1.7c-3.9-2.8-8.2-4.6-12.7-5.2v-2.5
			C39.3,52.7,45.3,49.8,50.2,45z M18.4,61c2.8-1.3,6.3-2.3,10.4-2.3s7.6,1,10.4,2.3H18.4z M30,55.8c-0.4,0-0.8,0-1.2,0
			c0,0-0.1,0-0.1,0v-1.9c0,0,0.1,0,0.1,0c0.4,0,0.8,0,1.2,0V55.8z"/>
	</g>
</g>
<g id="key">
</g>
<g id="ink">
</g>
<g id="paperclip">
</g>
<g id="paint-roller">
</g>
<g id="keyboard">
</g>
</svg>
