<?xml version="1.0" encoding="utf-8"?>
<!-- Generator: Adobe Illustrator 20.1.0, SVG Export Plug-In . SVG Version: 6.00 Build 0)  -->
<!DOCTYPE svg PUBLIC "-//W3C//DTD SVG 1.1//EN" "http://www.w3.org/Graphics/SVG/1.1/DTD/svg11.dtd">
<svg version="1.1" xmlns="http://www.w3.org/2000/svg" xmlns:xlink="http://www.w3.org/1999/xlink" x="0px" y="0px"
	 viewBox="0 0 64 64" style="enable-background:new 0 0 64 64;" xml:space="preserve">
<g id="behance">
</g>
<g id="twitter">
</g>
<g id="vimeo">
</g>
<g id="wordpress">
</g>
<g id="Layer_179">
</g>
<g id="xing">
</g>
<g id="youtube">
</g>
<g id="whatsapp">
</g>
<g id="flickr">
</g>
<g id="dribbble">
</g>
<g id="facebook">
</g>
<g id="foursquare">
</g>
<g id="github">
</g>
<g id="github-alt">
	<path d="M32,0C14.3,0,0,14.3,0,32c0,17.7,14.3,32,32,32c17.6,0,32-14.3,32-32C64,14.3,49.7,0,32,0z M41.5,57.9
		C41.5,57.9,41.5,57.9,41.5,57.9c-1.1,0.2-1.5-0.3-1.5-1.1v-4c0-2.4-0.9-4.2-2.6-5.4c2.1-0.2,4-0.6,5.6-1.2c2.1-0.8,3.7-1.8,5-3.1
		c2.3-2.4,3.4-5.9,3.4-10.5c0-3.1-1-5.8-3.1-8c0.9-2.4,0.8-5.1-0.3-7.9l-0.8-0.1c-0.6-0.1-1.5,0.1-2.8,0.6c-1.4,0.6-3,1.4-4.6,2.5
		c-2.6-0.6-5.1-1-7.5-1c-2.5,0-5,0.3-7.4,1c-2-1.3-3.8-2.1-5.5-2.5c-0.6-0.2-1.2-0.2-1.6-0.2h-1.2c-1.2,2-1.3,5.3-0.3,7.8
		c-2.1,2.2-3.1,4.8-3.1,7.9c0,6,1.9,10,5.7,12.3c1.5,1,3.3,1.6,5.4,2c1.1,0.2,2.3,0.4,3.1,0.4c-1.6,1.1-2.3,2.9-2.3,5.4v4.5
		c0,0.6-0.6,1-1.2,1C12.7,54.7,4.5,44.3,4.5,32C4.5,16.8,16.9,4.5,32,4.5c15.1,0,27.5,12.4,27.5,27.5C59.6,43.9,52,54,41.5,57.9z"/>
</g>
<g id="google-plus">
</g>
<g id="google">
</g>
<g id="joomla">
</g>
<g id="soundcloud">
</g>
<g id="instagram">
</g>
<g id="linkedin">
</g>
<g id="pagekit">
</g>
<g id="pinterest">
</g>
<g id="windows">
</g>
<g id="bronzelabs">
</g>
<g id="apple">
</g>
<g id="android">
</g>
<g id="mwkr-alt">
</g>
<g id="mwkr">
</g>
<g id="deviantart">
</g>
<g id="deviantart-alt">
</g>
</svg>
