<?xml version="1.0" encoding="utf-8"?>
<!-- Generator: Adobe Illustrator 20.1.0, SVG Export Plug-In . SVG Version: 6.00 Build 0)  -->
<!DOCTYPE svg PUBLIC "-//W3C//DTD SVG 1.1//EN" "http://www.w3.org/Graphics/SVG/1.1/DTD/svg11.dtd">
<svg version="1.1" xmlns="http://www.w3.org/2000/svg" xmlns:xlink="http://www.w3.org/1999/xlink" x="0px" y="0px"
	 viewBox="0 0 64 64" style="enable-background:new 0 0 64 64;" xml:space="preserve">
<g id="user">
</g>
<g id="users">
</g>
<g id="comment">
</g>
<g id="commenting">
</g>
<g id="comments">
</g>
<g id="comments-alt">
</g>
<g id="commenting-alt">
</g>
<g id="comment-alt">
</g>
<g id="face-happy">
</g>
<g id="face-ok">
</g>
<g id="face-unhappy">
</g>
<g id="mail">
</g>
<g id="phone">
</g>
<g id="fingerprint">
</g>
<g id="info">
</g>
<g id="question">
</g>
<g id="warning">
</g>
<g id="alert">
</g>
<g id="headset">
</g>
<g id="skull">
</g>
<g id="baby">
</g>
<g id="eye">
</g>
<g id="id-card">
</g>
<g id="microphone">
</g>
<g id="eye-cross">
</g>
<g id="user-commenting">
</g>
<g id="user-commenting-alt">
</g>
<g id="user-file">
</g>
<g id="user-check">
</g>
<g id="tap">
</g>
<g id="swipe">
</g>
<g id="slide">
</g>
<g id="foot">
</g>
<g id="share-social">
</g>
<g id="ghost">
	<g>
		<path d="M32,0.7C14.4,0.7,0,15.2,0,32.9v28.9c0,0.6,0.4,1.2,0.9,1.4c0.2,0.1,0.4,0.1,0.6,0.1c0.4,0,0.8-0.2,1.1-0.5L7,58.2
			l4.8,4.7c0.6,0.6,1.5,0.6,2.1,0l5.1-4.8l5.4,4.8c0.6,0.5,1.5,0.5,2.1,0l4.9-4.8l5.4,4.8c0.6,0.5,1.5,0.5,2.1-0.1l4.5-4.7l5.1,4.7
			c0.6,0.5,1.5,0.5,2.1,0l5.2-4.9l6,4.9c0.4,0.4,1.1,0.4,1.6,0.2c0.5-0.2,0.9-0.8,0.9-1.4V32.9C64,15.2,49.6,0.7,32,0.7z M61,58.6
			l-4.5-3.7c-0.6-0.5-1.4-0.5-2,0.1l-5.1,4.8l-5.1-4.8c-0.3-0.3-0.7-0.4-1-0.4c-0.4,0-0.8,0.2-1.1,0.5l-4.6,4.7l-5.4-4.8
			c-0.6-0.5-1.5-0.5-2.1,0l-4.9,4.8L20,54.9c-0.6-0.5-1.5-0.5-2,0l-5.1,4.8L8,55c-0.3-0.3-0.7-0.4-1.1-0.4c-0.4,0-0.8,0.2-1.1,0.5
			L3,58V32.9C3,16.8,16,3.7,32,3.7s29,13.1,29,29.2V58.6z"/>
		<path d="M27,26.5c0-3.8-3.1-7-6.9-7s-6.9,3.1-6.9,7s3.1,7,6.9,7S27,30.4,27,26.5z M16.2,26.5c0-2.2,1.8-4,3.9-4s3.9,1.8,3.9,4
			s-1.8,4-3.9,4S16.2,28.7,16.2,26.5z"/>
		<path d="M43.9,19.6c-3.8,0-6.9,3.1-6.9,7s3.1,7,6.9,7s6.9-3.1,6.9-7S47.7,19.6,43.9,19.6z M43.9,30.5c-2.2,0-3.9-1.8-3.9-4
			s1.8-4,3.9-4s3.9,1.8,3.9,4S46.1,30.5,43.9,30.5z"/>
		<path d="M46.1,42.7H17.9c-0.8,0-1.5,0.7-1.5,1.5s0.7,1.5,1.5,1.5h28.3c0.8,0,1.5-0.7,1.5-1.5S47,42.7,46.1,42.7z"/>
	</g>
</g>
</svg>
