<?xml version="1.0" encoding="utf-8"?>
<!-- Generator: Adobe Illustrator 20.1.0, SVG Export Plug-In . SVG Version: 6.00 Build 0)  -->
<!DOCTYPE svg PUBLIC "-//W3C//DTD SVG 1.1//EN" "http://www.w3.org/Graphics/SVG/1.1/DTD/svg11.dtd">
<svg version="1.1" xmlns="http://www.w3.org/2000/svg" xmlns:xlink="http://www.w3.org/1999/xlink" x="0px" y="0px"
	 viewBox="0 0 64 64" style="enable-background:new 0 0 64 64;" xml:space="preserve">
<g id="gender-all">
</g>
<g id="gender-venus">
</g>
<g id="gender-mars">
	<path d="M54.5,8.3C54.5,8.3,54.5,8.3,54.5,8.3C54.5,8.3,54.5,8.3,54.5,8.3C54.5,8.2,54.5,8.2,54.5,8.3C54.4,8.1,54.3,8,54.1,8
		c-0.1-0.1-0.2-0.1-0.3-0.1c0,0-0.1,0-0.1,0c-0.1,0-0.3,0-0.4,0l-13.9,0c0,0,0,0,0,0c-0.8,0-1.5,0.7-1.5,1.5c0,0.8,0.7,1.5,1.5,1.5
		l10.4,0l-8.7,8.6c-3.3-2.3-7.3-3.6-11.6-3.6C18.2,15.8,9,24.9,9,36s9.2,20.2,20.4,20.2c11.3,0,20.4-9.1,20.4-20.2
		c0-5.8-2.5-11-6.4-14.7l8.5-8.5l0,10.4c0,0.8,0.7,1.5,1.5,1.5c0,0,0,0,0,0c0.8,0,1.5-0.7,1.5-1.5l0-13.9C55,8.9,54.8,8.6,54.5,8.3z
		 M46.9,36c0,9.5-7.8,17.2-17.4,17.2C19.8,53.2,12,45.5,12,36s7.8-17.2,17.4-17.2C39,18.8,46.9,26.5,46.9,36z"/>
</g>
</svg>
