<?xml version="1.0" encoding="utf-8"?>
<!-- Generator: Adobe Illustrator 20.1.0, SVG Export Plug-In . SVG Version: 6.00 Build 0)  -->
<!DOCTYPE svg PUBLIC "-//W3C//DTD SVG 1.1//EN" "http://www.w3.org/Graphics/SVG/1.1/DTD/svg11.dtd">
<svg version="1.1" xmlns="http://www.w3.org/2000/svg" xmlns:xlink="http://www.w3.org/1999/xlink" x="0px" y="0px"
	 viewBox="0 0 64 64" style="enable-background:new 0 0 64 64;" xml:space="preserve">
<g id="git-fork">
</g>
<g id="git-branch">
	<path d="M52.2,18.4c0-4.6-3.7-8.3-8.3-8.3s-8.3,3.7-8.3,8.3c0,4.1,3,7.5,7,8.2c-0.5,5.7-4.5,7-10.3,8.1c-2.7,0.5-7.2,1.4-10.2,4.9
		V16.3c3.7-0.9,6.4-4.1,6.4-8c0-4.6-3.7-8.3-8.3-8.3s-8.3,3.7-8.3,8.3c0,4.2,3.2,7.7,7.2,8.2v31c-4.1,0.5-7.2,4-7.2,8.2
		c0,4.6,3.7,8.3,8.3,8.3s8.3-3.7,8.3-8.3c0-3.9-2.7-7.1-6.3-8c0.5-7.3,5.6-9,10.8-10c5.1-1,12.1-2.5,12.7-11.1
		C49.4,25.8,52.2,22.4,52.2,18.4z M14.8,8.3c0-2.9,2.4-5.3,5.3-5.3s5.3,2.4,5.3,5.3c0,2.7-2.1,5-4.8,5.2c0,0,0,0-0.1,0
		c-0.1,0-0.2,0-0.4,0.1c0,0,0,0-0.1,0C17.2,13.6,14.8,11.2,14.8,8.3z M25.4,55.7c0,2.9-2.4,5.3-5.3,5.3s-5.3-2.4-5.3-5.3
		s2.4-5.3,5.3-5.3S25.4,52.8,25.4,55.7z M44.2,23.7C44.2,23.7,44.1,23.7,44.2,23.7c-0.1,0-0.2,0-0.3,0c-2.9,0-5.3-2.4-5.3-5.3
		c0-2.9,2.4-5.3,5.3-5.3s5.3,2.4,5.3,5.3C49.2,21.3,47,23.6,44.2,23.7z"/>
</g>
<g id="git-merge">
</g>
<g id="git-stash">
</g>
</svg>
