<?xml version="1.0" encoding="utf-8"?>
<!-- Generator: Adobe Illustrator 20.1.0, SVG Export Plug-In . SVG Version: 6.00 Build 0)  -->
<!DOCTYPE svg PUBLIC "-//W3C//DTD SVG 1.1//EN" "http://www.w3.org/Graphics/SVG/1.1/DTD/svg11.dtd">
<svg version="1.1" xmlns="http://www.w3.org/2000/svg" xmlns:xlink="http://www.w3.org/1999/xlink" x="0px" y="0px"
	 viewBox="0 0 64 64" style="enable-background:new 0 0 64 64;" xml:space="preserve">
<g id="suitcase">
</g>
<g id="backpack">
</g>
<g id="chef-hat">
</g>
<g id="work-jacket">
</g>
<g id="tshirt">
</g>
<g id="handbag">
</g>
<g id="coat-hanger">
</g>
<g id="measuring-tape">
</g>
<g id="pants">
</g>
<g id="t-shirt-ale">
</g>
<g id="watch">
</g>
<g id="glasses">
	<path d="M62.5,27.5c-0.8,0-1.5,0.7-1.5,1.5v1.1c-0.9-6.9-6.9-12.3-14.1-12.3c-7.3,0-13.4,5.6-14.1,12.7h-1.5
		c-0.8-7.1-6.8-12.7-14.1-12.7C9.9,17.8,3.9,23.2,3,30.1V29c0-0.8-0.7-1.5-1.5-1.5S0,28.2,0,29v6c0,0.8,0.7,1.5,1.5,1.5S3,35.8,3,35
		v-1.1c0.9,6.9,6.9,12.3,14.1,12.3c7.3,0,13.4-5.6,14.1-12.7h1.5c0.8,7.1,6.8,12.7,14.1,12.7c7.2,0,13.2-5.4,14.1-12.3V35
		c0,0.8,0.7,1.5,1.5,1.5S64,35.8,64,35v-6C64,28.2,63.3,27.5,62.5,27.5z M17.1,43.2c-6.2,0-11.2-5-11.2-11.2c0-6.2,5-11.2,11.2-11.2
		s11.2,5,11.2,11.2C28.3,38.2,23.3,43.2,17.1,43.2z M46.9,43.2c-6.2,0-11.2-5-11.2-11.2c0-6.2,5-11.2,11.2-11.2s11.2,5,11.2,11.2
		C58.1,38.2,53.1,43.2,46.9,43.2z"/>
</g>
<g id="graduation-hat">
</g>
<g id="scuba-gear">
</g>
<g id="shoe">
</g>
<g id="crown">
</g>
<g id="wand">
</g>
<g id="crown-alt">
</g>
</svg>
