<?xml version="1.0" encoding="utf-8"?>
<!-- Generator: Adobe Illustrator 20.1.0, SVG Export Plug-In . SVG Version: 6.00 Build 0)  -->
<!DOCTYPE svg PUBLIC "-//W3C//DTD SVG 1.1//EN" "http://www.w3.org/Graphics/SVG/1.1/DTD/svg11.dtd">
<svg version="1.1" xmlns="http://www.w3.org/2000/svg" xmlns:xlink="http://www.w3.org/1999/xlink" x="0px" y="0px"
	 viewBox="0 0 64 64" style="enable-background:new 0 0 64 64;" xml:space="preserve">
<g id="suitcase">
</g>
<g id="backpack">
</g>
<g id="chef-hat">
</g>
<g id="work-jacket">
</g>
<g id="tshirt">
</g>
<g id="handbag">
</g>
<g id="coat-hanger">
</g>
<g id="measuring-tape">
</g>
<g id="pants">
</g>
<g id="t-shirt-ale">
</g>
<g id="watch">
</g>
<g id="glasses">
</g>
<g id="graduation-hat">
	<g>
		<path d="M61.5,46.3V24c0-0.8-0.7-1.5-1.5-1.5s-1.5,0.7-1.5,1.5v22.3c-1.7,1.3-2.5,4.6-2.5,5.9c0,2.2,1.8,3.9,4,3.9s4-1.8,4-3.9
			C64,51,63.2,47.6,61.5,46.3z M60,53.1c-0.5,0-1-0.4-1-0.9c0-0.8,0.5-2.3,1-3.1c0.5,0.7,1,2.3,1,3.1C61,52.7,60.6,53.1,60,53.1z"/>
		<path d="M61.5,17.7c0-1.7-1.1-3.1-2.8-3.5L31.6,7.9c-0.1,0-0.1,0-0.2,0l-0.5,0c-0.1,0-0.2,0-0.3,0l-0.5,0c-0.1,0-0.1,0-0.2,0
			L2.8,14.2C1.1,14.6,0,16,0,17.7c0,1.7,1.1,3.1,2.8,3.5l7.2,1.7v15.6c0,3.7,7.8,7.8,20.5,7.8s20.5-4,20.5-7.8V23l7.7-1.8
			C60.4,20.8,61.5,19.3,61.5,17.7z M30.5,43.2c-12.3,0-17.3-3.8-17.5-4.8v-15l17,3.9c0.1,0,0.1,0,0.2,0l0.5,0.1c0.1,0,0.2,0,0.3,0
			l0.5-0.1c0.1,0,0.1,0,0.2,0L48,23.6l0,14.8C47.8,39.4,42.8,43.2,30.5,43.2z M58.1,18.2C58.1,18.2,58.1,18.2,58.1,18.2L31,24.5
			l-0.2,0l-0.2,0L3.4,18.2C3.2,18.2,3,18,3,17.7c0-0.3,0.2-0.5,0.4-0.6l27.1-6.2l0.2,0l27.3,6.2c0.3,0.1,0.5,0.3,0.5,0.6
			C58.5,17.9,58.3,18.2,58.1,18.2z"/>
	</g>
</g>
<g id="scuba-gear">
</g>
<g id="shoe">
</g>
<g id="crown">
</g>
<g id="wand">
</g>
<g id="crown-alt">
</g>
</svg>
