<?xml version="1.0" encoding="utf-8"?>
<!-- Generator: Adobe Illustrator 20.1.0, SVG Export Plug-In . SVG Version: 6.00 Build 0)  -->
<!DOCTYPE svg PUBLIC "-//W3C//DTD SVG 1.1//EN" "http://www.w3.org/Graphics/SVG/1.1/DTD/svg11.dtd">
<svg version="1.1" xmlns="http://www.w3.org/2000/svg" xmlns:xlink="http://www.w3.org/1999/xlink" x="0px" y="0px"
	 viewBox="0 0 64 64" style="enable-background:new 0 0 64 64;" xml:space="preserve">
<g id="git-fork">
	<path d="M54.4,7.7c0-4.3-3.5-7.7-7.8-7.7s-7.8,3.5-7.8,7.7c0,3.7,2.6,6.8,6.1,7.5v5.6c0,3.7-2.8,6.5-6.1,9.6
		c-2.4,2.3-4.9,4.7-6.5,7.9c-1.6-3.1-4.4-5.6-6.9-7.9c-3.3-3-6.5-5.9-6.5-9.6v-5.6c3.5-0.8,6.1-3.8,6.1-7.5c0-4.3-3.5-7.7-7.8-7.7
		S9.6,3.5,9.6,7.7c0,3.8,2.8,7,6.4,7.6v5.5c0,5,3.8,8.5,7.5,11.8c3.8,3.4,7.4,6.7,7.4,11.6c0,1.9,0,3.1,0,3.7c0,0.2,0,0.5,0.1,0.8
		c-3.7,0.6-6.6,3.8-6.6,7.6c0,4.3,3.5,7.7,7.8,7.7s7.8-3.5,7.8-7.7c0-3.6-2.5-6.7-5.9-7.5c0,0,0-0.1,0-0.1c0-0.1,0-0.1,0-0.2v-4.3
		c0-4.9,3.4-8.2,7-11.6c3.5-3.3,7-6.8,7-11.8v-5.5C51.6,14.7,54.4,11.5,54.4,7.7z M12.6,7.7c0-2.6,2.1-4.7,4.8-4.7s4.8,2.1,4.8,4.7
		s-2.1,4.7-4.8,4.7S12.6,10.3,12.6,7.7z M36.9,56.3c0,2.6-2.1,4.7-4.8,4.7s-4.8-2.1-4.8-4.7s2.1-4.7,4.8-4.7S36.9,53.7,36.9,56.3z
		 M46.7,12.4c-2.6,0-4.8-2.1-4.8-4.7S44.1,3,46.7,3s4.8,2.1,4.8,4.7S49.3,12.4,46.7,12.4z"/>
</g>
<g id="git-branch">
</g>
<g id="git-merge">
</g>
<g id="git-stash">
</g>
</svg>
