<?xml version="1.0" encoding="utf-8"?>
<!-- Generator: Adobe Illustrator 20.1.0, SVG Export Plug-In . SVG Version: 6.00 Build 0)  -->
<!DOCTYPE svg PUBLIC "-//W3C//DTD SVG 1.1//EN" "http://www.w3.org/Graphics/SVG/1.1/DTD/svg11.dtd">
<svg version="1.1" xmlns="http://www.w3.org/2000/svg" xmlns:xlink="http://www.w3.org/1999/xlink" x="0px" y="0px"
	 viewBox="0 0 64 64" style="enable-background:new 0 0 64 64;" xml:space="preserve">
<g id="bulb">
</g>
<g id="bulb-on">
</g>
<g id="bulb-alt">
</g>
<g id="bulb-on-alt">
</g>
<g id="energy-bulb">
</g>
<g id="toasting">
</g>
<g id="toasted">
</g>
<g id="binoculars">
</g>
<g id="gift">
	<path d="M53.4,16.4h-4.9c0.3-0.2,0.6-0.5,0.8-0.7c1.4-1.2,6-5.3,5.9-9.6c0-1.3-0.6-3.2-2.9-4.8c-1.7-1.2-4-1.5-7.3-1.1
		c-2.7,0.4-5.3,1.3-7.6,2.9c-2.3,1.6-4.2,3.8-5.5,6.5c-1.3-2.7-3.2-4.9-5.5-6.5c-2.3-1.6-4.8-2.6-7.6-2.9c-3.2-0.4-5.6-0.1-7.3,1.1
		C9.4,2.9,8.9,4.8,8.8,6.1c-0.2,4.3,4.5,8.4,5.9,9.6c0.3,0.2,0.5,0.4,0.8,0.7h-4.9c-3,0-5.2,1.9-5.2,4.4v38.7c0,2.6,2.2,4.5,5.2,4.5
		h42.7c3,0,5.2-1.9,5.2-4.5V20.8C58.6,18.3,56.3,16.4,53.4,16.4z M17.6,14.2c-0.3-0.3-0.7-0.6-1-0.8c-2.3-1.8-4.9-4.8-4.8-7.1
		c0-1,0.6-1.8,1.6-2.5c1-0.7,2.7-0.9,5.2-0.6c2.3,0.3,4.3,1.1,6.2,2.4c2.8,2,4.9,5.1,5.8,8.8c0.2,0.7,0.8,1.2,1.5,1.2h0
		c0.7,0,1.3-0.5,1.5-1.2c0.9-3.7,2.9-6.9,5.8-8.8c1.9-1.3,4-2.1,6.2-2.4c2.4-0.3,4.2-0.1,5.2,0.6c1,0.7,1.6,1.5,1.6,2.5
		c0.1,2.3-2.5,5.3-4.8,7.1c-0.3,0.3-0.7,0.6-1,0.8c-0.9,0.8-2,1.6-2.9,2.2H20.5C19.5,15.8,18.5,15,17.6,14.2z M27.6,19.4h8.7v16.5
		l-3.5-2.3c-0.5-0.3-1.1-0.3-1.6,0l-3.5,2.3V19.4z M55.6,59.5c0,1.1-1.4,1.5-2.2,1.5H10.6c-0.9,0-2.2-0.4-2.2-1.5V20.8
		c0-1,1.3-1.4,2.2-1.4h9.4c0,0,0,0,0,0c0,0,0,0,0,0h4.6v19.3c0,0.6,0.3,1.1,0.8,1.3c0.5,0.3,1.1,0.2,1.5-0.1l5-3.3l5,3.3
		c0.2,0.2,0.5,0.2,0.8,0.2c0.2,0,0.5-0.1,0.7-0.2c0.5-0.3,0.8-0.8,0.8-1.3V19.4h14c0.9,0,2.2,0.4,2.2,1.4V59.5z"/>
</g>
<g id="shaver">
</g>
<g id="candle">
</g>
<g id="shower">
</g>
<g id="bomb">
</g>
<g id="joystick">
</g>
<g id="megaphone">
</g>
<g id="chestdraw">
</g>
<g id="armchair">
</g>
<g id="cardboard-box">
</g>
<g id="bath-shower">
</g>
<g id="diamond">
</g>
<g id="cassette">
</g>
<g id="iron">
</g>
<g id="wash">
</g>
<g id="keyboard-keys">
</g>
<g id="earphones">
</g>
<g id="lifebuoy">
</g>
<g id="calculator">
</g>
<g id="safe">
</g>
<g id="balloon">
</g>
<g id="cake">
</g>
<g id="baseball">
</g>
<g id="football-american">
</g>
<g id="football">
</g>
<g id="anchor">
</g>
<g id="compact-disc">
</g>
<g id="bbq">
</g>
<g id="coffee-machine">
</g>
<g id="teapot">
</g>
<g id="outdoor-stove">
</g>
<g id="pram">
</g>
<g id="paintbrush">
</g>
<g id="stamp">
</g>
<g id="eyedrop">
</g>
<g id="musical-note">
</g>
<g id="magnet">
</g>
<g id="alarm-bell">
</g>
<g id="globe">
</g>
<g id="key">
</g>
<g id="ink">
</g>
<g id="paperclip">
</g>
<g id="paint-roller">
</g>
<g id="keyboard">
</g>
</svg>
