<?xml version="1.0" encoding="utf-8"?>
<!-- Generator: Adobe Illustrator 20.1.0, SVG Export Plug-In . SVG Version: 6.00 Build 0)  -->
<!DOCTYPE svg PUBLIC "-//W3C//DTD SVG 1.1//EN" "http://www.w3.org/Graphics/SVG/1.1/DTD/svg11.dtd">
<svg version="1.1" xmlns="http://www.w3.org/2000/svg" xmlns:xlink="http://www.w3.org/1999/xlink" x="0px" y="0px"
	 viewBox="0 0 64 64" style="enable-background:new 0 0 64 64;" xml:space="preserve">
<g id="fairground">
</g>
<g id="tent">
</g>
<g id="tree">
</g>
<g id="trees">
</g>
<g id="tree-alt">
</g>
<g id="butterfly">
</g>
<g id="sunrise">
</g>
<g id="waterdrop">
</g>
<g id="map">
</g>
<g id="map-alt">
</g>
<g id="earth">
</g>
<g id="earth-no">
</g>
<g id="meteor">
</g>
<g id="sun">
</g>
<g id="sun-dim">
</g>
<g id="umbrella">
</g>
<g id="umbrella-alt">
</g>
<g id="gps">
</g>
<g id="fire">
</g>
<g id="target-sight">
</g>
<g id="gps-area">
	<g>
		<path d="M26,39.2v10.3c0,0.8,0.7,1.5,1.5,1.5h9c0.8,0,1.5-0.7,1.5-1.5V39.2c6.9-3.2,6.9-10.9,6.9-16.6v-0.1c0-0.8-0.7-1.5-1.5-1.5
			H20.6c-0.8,0-1.5,0.7-1.5,1.5v0.1C19.1,28.3,19.1,36.1,26,39.2z M41.9,24c0,5.5-0.5,10.8-6,12.8c-0.6,0.2-1,0.8-1,1.4V48h-6v-9.8
			c0-0.6-0.4-1.2-1-1.4c-5.5-2-5.9-7.4-6-12.8H41.9z"/>
		<path d="M32,20c5.4,0,9.8-4.4,9.8-9.8S37.4,0.4,32,0.4s-9.8,4.4-9.8,9.8S26.6,20,32,20z M32,3.4c3.8,0,6.8,3.1,6.8,6.8
			S35.8,17,32,17s-6.8-3.1-6.8-6.8S28.2,3.4,32,3.4z"/>
		<path d="M41.6,40.4c-0.8-0.1-1.6,0.5-1.7,1.3c-0.1,0.8,0.5,1.6,1.3,1.7c12.6,1.4,19.4,5.4,19.4,8.4c0,4.2-11.8,8.9-28.7,8.9
			S3.3,56,3.3,51.7c0-3,6.8-7,19.4-8.4c0.8-0.1,1.4-0.8,1.3-1.7s-0.8-1.4-1.7-1.3C6.1,42.2,0.3,47.5,0.3,51.7
			c0,7.7,16.3,11.9,31.7,11.9s31.7-4.2,31.7-11.9C63.7,47.5,57.9,42.2,41.6,40.4z"/>
		<path d="M32,54.4c-11,0-17.1-2.6-17.2-3.7c0.1-0.5,2.1-2.1,8.1-3c0.8-0.1,1.4-0.9,1.2-1.7c-0.1-0.8-0.9-1.4-1.7-1.2
			c-4.8,0.8-10.6,2.4-10.6,6c0,4.6,10.5,6.7,20.2,6.7s20.2-2.1,20.2-6.7c0-3.5-5.7-5.2-10.6-6c-0.8-0.1-1.6,0.4-1.7,1.2
			c-0.1,0.8,0.4,1.6,1.2,1.7c5.9,1,8,2.5,8,3C49.1,51.8,43,54.4,32,54.4z"/>
	</g>
</g>
<g id="gps-alt">
</g>
<g id="target">
</g>
<g id="star">
</g>
<g id="lightning">
</g>
</svg>
