<?xml version="1.0" encoding="utf-8"?>
<!-- Generator: Adobe Illustrator 20.1.0, SVG Export Plug-In . SVG Version: 6.00 Build 0)  -->
<!DOCTYPE svg PUBLIC "-//W3C//DTD SVG 1.1//EN" "http://www.w3.org/Graphics/SVG/1.1/DTD/svg11.dtd">
<svg version="1.1" xmlns="http://www.w3.org/2000/svg" xmlns:xlink="http://www.w3.org/1999/xlink" x="0px" y="0px"
	 viewBox="0 0 64 64" style="enable-background:new 0 0 64 64;" xml:space="preserve">
<g id="text-height">
</g>
<g id="font">
</g>
<g id="text">
</g>
<g id="italic">
</g>
<g id="strikethrough">
</g>
<g id="paragraph">
</g>
<g id="bold">
</g>
<g id="quote-right">
</g>
<g id="hashtag">
</g>
<g id="anchor-handle">
</g>
<g id="box">
</g>
<g id="fullscreen">
</g>
<g id="fullscreen-alt">
</g>
<g id="golden-ratio">
	<path d="M63.5,50.3c-0.6-0.6-1.5-0.6-2.1,0C54.7,57.2,45.8,61,36.3,61c-9.5,0-18.4-3.8-25.1-10.6c-11-11.2-11-29.5,0-40.7
		C15.4,5.4,21,3,26.9,3c5.9,0,11.5,2.4,15.7,6.6c6.8,7,6.8,18.3,0,25.3c-2.6,2.6-6,4.1-9.6,4.1c-3.6,0-7.1-1.5-9.6-4.1
		c-4.2-4.3-4.2-11.2,0-15.4c1.5-1.6,3.6-2.5,5.8-2.5s4.2,0.9,5.8,2.5c2.5,2.5,2.5,6.6,0,9.1C34,29.5,32.8,30,31.6,30
		s-2.4-0.5-3.3-1.4c-1.4-1.4-1.4-3.7,0-5.1c0.6-0.6,0.6-1.5,0-2.1c-0.6-0.6-1.5-0.6-2.1,0c-2.5,2.6-2.5,6.7,0,9.3
		c1.5,1.5,3.4,2.3,5.5,2.3s4-0.8,5.5-2.3c3.6-3.7,3.6-9.6,0-13.3c-2.1-2.2-4.9-3.4-7.9-3.4s-5.8,1.2-7.9,3.4
		c-5.3,5.4-5.3,14.2,0,19.6c3.1,3.2,7.3,5,11.8,5c4.5,0,8.6-1.8,11.8-5c8-8.1,8-21.4,0-29.5C40,2.7,33.6,0,26.9,0
		C20.2,0,13.9,2.7,9.1,7.5C-3,19.9-3,40.1,9.1,52.5C16.4,59.9,26,64,36.3,64c0,0,0,0,0,0c10.3,0,20-4.1,27.2-11.5
		C64.2,51.9,64.1,50.9,63.5,50.3z"/>
</g>
<g id="hexgrid">
</g>
<g id="box-points">
</g>
<g id="box-points-move">
</g>
<g id="box-points-move-alt">
</g>
<g id="hex_1_">
</g>
<g id="hex-diamond">
</g>
<g id="artboards-vertical">
</g>
<g id="artboards">
</g>
<g id="artboards-alt-vertical">
</g>
<g id="artboards-alt">
</g>
<g id="scale">
</g>
<g id="pencil">
</g>
<g id="fill">
</g>
<g id="artist-mug">
</g>
<g id="pen">
</g>
<g id="calligraphy-pen-tip">
</g>
<g id="calligraphy-pen_1_">
</g>
<g id="paint-pallette">
</g>
<g id="tools-cross">
</g>
<g id="edit-tools">
</g>
<g id="pencil-ruler">
</g>
<g id="ruler-measure">
</g>
<g id="measure">
</g>
<g id="code">
</g>
<g id="move">
</g>
<g id="external">
</g>
<g id="terminal">
</g>
<g id="thumbnails">
</g>
</svg>
