<?xml version="1.0" encoding="utf-8"?>
<!-- Generator: Adobe Illustrator 20.1.0, SVG Export Plug-In . SVG Version: 6.00 Build 0)  -->
<!DOCTYPE svg PUBLIC "-//W3C//DTD SVG 1.1//EN" "http://www.w3.org/Graphics/SVG/1.1/DTD/svg11.dtd">
<svg version="1.1" xmlns="http://www.w3.org/2000/svg" xmlns:xlink="http://www.w3.org/1999/xlink" x="0px" y="0px"
	 viewBox="0 0 64 64" style="enable-background:new 0 0 64 64;" xml:space="preserve">
<g id="truck">
</g>
<g id="car">
</g>
<g id="taxi">
</g>
<g id="rocket">
</g>
<g id="tardis">
</g>
<g id="bus">
</g>
<g id="tram">
</g>
<g id="speedo">
</g>
<g id="air-machine">
</g>
<g id="speedo-alt">
</g>
<g id="motorcycle">
</g>
<g id="car-battery">
</g>
<g id="ufo">
</g>
<g id="arrivals">
</g>
<g id="petrol-pump">
</g>
<g id="gear-shift">
	<g>
		<path d="M32,0C14.4,0,0,14.4,0,32s14.4,32,32,32s32-14.3,32-32S49.6,0,32,0z M32,61C16,61,3,48,3,32S16,3,32,3s29,13,29,29
			S48,61,32,61z"/>
		<path d="M50.5,20.5c-0.8,0-1.5,0.7-1.5,1.5v11h-9V22c0-0.8-0.7-1.5-1.5-1.5S37,21.2,37,22v11H27V22c0-0.8-0.7-1.5-1.5-1.5
			S24,21.2,24,22v11h-9V22c0-0.8-0.7-1.5-1.5-1.5S12,21.2,12,22v12c0,0.5,0.3,1,0.7,1.3C13,35.7,13.5,36,14,36h10v12
			c0,0.8,0.7,1.5,1.5,1.5S27,48.8,27,48V36h10v12c0,0.8,0.7,1.5,1.5,1.5S40,48.8,40,48V36h10c0.5,0,1-0.3,1.3-0.7
			C51.7,35,52,34.5,52,34V22C52,21.2,51.3,20.5,50.5,20.5z"/>
	</g>
</g>
<g id="car-battery-alt">
</g>
<g id="road">
</g>
<g id="siren">
</g>
<g id="plane">
</g>
<g id="lorry">
</g>
<g id="train">
</g>
<g id="forklift">
</g>
<g id="bicycle">
</g>
<g id="underground">
</g>
<g id="paper-plane">
</g>
<g id="hotair-balloon">
</g>
</svg>
