<?xml version="1.0" encoding="utf-8"?>
<!-- Generator: Adobe Illustrator 20.1.0, SVG Export Plug-In . SVG Version: 6.00 Build 0)  -->
<!DOCTYPE svg PUBLIC "-//W3C//DTD SVG 1.1//EN" "http://www.w3.org/Graphics/SVG/1.1/DTD/svg11.dtd">
<svg version="1.1" id="Layer_1" xmlns="http://www.w3.org/2000/svg" xmlns:xlink="http://www.w3.org/1999/xlink" x="0px" y="0px"
	 viewBox="0 0 64 64" style="enable-background:new 0 0 64 64;" xml:space="preserve">
<g id="suitcase">
</g>
<g id="backpack">
</g>
<g id="chef-hat">
</g>
<g id="work-jacket">
</g>
<g id="tshirt">
</g>
<g id="coat-hanger">
</g>
<g id="measuring-tape">
</g>
<g id="pants">
</g>
<g id="t-shirt-ale">
</g>
<g id="watch">
</g>
<g id="glasses">
</g>
<g id="graduation-hat">
</g>
<g id="scuba-gear">
</g>
<g id="shoe">
</g>
<g id="crown">
</g>
<g id="wand">
</g>
<g id="crown-alt">
</g>
<g>
	<path d="M56.5,28H48V16.8C48,7.7,40.7,0,32,0S16,7.7,16,16.8V28H7.5C5.6,28,4,29.6,4,31.5v28.9C4,62.4,5.6,64,7.5,64h48.9
		c1.9,0,3.5-1.6,3.5-3.5V31.5C60,29.6,58.4,28,56.5,28z M19,16.8C19,9.3,25,3,32,3s13,6.3,13,13.8V28H19V16.8z M7.5,31h48.9
		c0.3,0,0.5,0.2,0.5,0.5V52H7V31.5C7,31.2,7.2,31,7.5,31z M56.5,61H7.5C7.2,61,7,60.8,7,60.5V55h50v5.5C57,60.8,56.8,61,56.5,61z"/>
	<path d="M26.5,51h11c0.8,0,1.5-0.7,1.5-1.5v-6c0-0.8-0.7-1.5-1.5-1.5h-11c-0.8,0-1.5,0.7-1.5,1.5v6C25,50.3,25.7,51,26.5,51z
		 M28,45h8v3h-8V45z"/>
</g>
</svg>
