<?xml version="1.0" encoding="utf-8"?>
<!-- Generator: Adobe Illustrator 20.1.0, SVG Export Plug-In . SVG Version: 6.00 Build 0)  -->
<!DOCTYPE svg PUBLIC "-//W3C//DTD SVG 1.1//EN" "http://www.w3.org/Graphics/SVG/1.1/DTD/svg11.dtd">
<svg version="1.1" id="Layer_1" xmlns="http://www.w3.org/2000/svg" xmlns:xlink="http://www.w3.org/1999/xlink" x="0px" y="0px"
	 viewBox="0 0 64 64" style="enable-background:new 0 0 64 64;" xml:space="preserve">
<path d="M58.2,9.3C51.1,2.1,39.8,1.6,32,7.8C24.2,1.6,12.9,2.1,5.8,9.3C2.1,13,0,18,0,23.3c0,5.3,2.1,10.3,5.8,14
	c2,2,21.1,21.1,21.1,21.1c1.4,1.4,3.2,2.1,5.1,2.1s3.8-0.8,5.1-2.1C38,57.5,58,37.5,58.2,37.3C65.9,29.5,65.9,17,58.2,9.3z
	 M56.1,34.9c-0.3,0.3-20.9,21-21.1,21.2c-0.8,0.8-1.9,1.3-3,1.3c-1.1,0-2.2-0.4-3-1.2c0,0-19-19-21.1-21.1C4.7,32,3,27.7,3,23.3
	c0-4.5,1.7-8.7,4.9-11.9c3.2-3.3,7.5-4.9,11.8-4.9c4,0,8.1,1.5,11.3,4.4c0.6,0.5,1.4,0.3,2-0.2c6.6-6,16.8-5.7,23.1,0.3c0,0,0,0,0,0
	C62.6,18,62.6,28.4,56.1,34.9z"/>
</svg>
