<?xml version="1.0" encoding="utf-8"?>
<!-- Generator: Adobe Illustrator 20.1.0, SVG Export Plug-In . SVG Version: 6.00 Build 0)  -->
<!DOCTYPE svg PUBLIC "-//W3C//DTD SVG 1.1//EN" "http://www.w3.org/Graphics/SVG/1.1/DTD/svg11.dtd">
<svg version="1.1" xmlns="http://www.w3.org/2000/svg" xmlns:xlink="http://www.w3.org/1999/xlink" x="0px" y="0px"
	 viewBox="0 0 64 64" style="enable-background:new 0 0 64 64;" xml:space="preserve">
<g id="user">
</g>
<g id="users">
</g>
<g id="comment">
</g>
<g id="commenting">
</g>
<g id="comments">
</g>
<g id="comments-alt">
</g>
<g id="commenting-alt">
</g>
<g id="comment-alt">
</g>
<g id="face-happy">
</g>
<g id="face-ok">
</g>
<g id="face-unhappy">
</g>
<g id="mail">
</g>
<g id="phone">
</g>
<g id="fingerprint">
</g>
<g id="info">
</g>
<g id="question">
</g>
<g id="warning">
</g>
<g id="alert">
</g>
<g id="headset">
</g>
<g id="skull">
</g>
<g id="baby">
</g>
<g id="eye">
</g>
<g id="id-card">
</g>
<g id="microphone">
</g>
<g id="eye-cross">
</g>
<g id="user-commenting">
</g>
<g id="user-commenting-alt">
</g>
<g id="user-file">
</g>
<g id="user-check">
</g>
<g id="tap">
</g>
<g id="swipe">
</g>
<g id="slide">
	<g>
		<path d="M62.5,31.3c-1.3-1.2-3-1.8-4.6-1.5c0-0.5,0-1,0-1.4c0-0.6,0-1.2,0-1.8c0-2.9-2.6-5.4-5.8-5.4c-1,0-1.9,0.3-2.8,0.7v-1.2
			c0-3-2.5-5.4-5.6-5.4c-0.9,0-1.8,0.2-2.6,0.6v-5.1c0-3-2.4-5.4-5.5-5.4c-3.1,0-5.7,2.4-5.7,5.4v2c0,1.5,0,2.9,0,4.4
			c0,7.1,0,14.4-0.5,21.5l-3.4-4.1c-1.6-2.4-4.9-3.2-7.5-1.7c-1.3,0.7-2.2,1.9-2.5,3.4c-0.3,1.4-0.1,2.9,0.8,4.2l11,15.1
			c1.8,2.5,4.7,4,7.8,4h15.1c4.5,0,8.5-3.2,9.5-7.6c3.5-15.9,3.6-16.2,3.6-16.2v0C64.2,34.2,63.7,32.5,62.5,31.3z M61,35.1
			c0,0.2-3.6,16.2-3.6,16.2c-0.7,3.1-3.4,5.3-6.5,5.3H35.7c-2.1,0-4.2-1-5.4-2.7l-11-15c-0.3-0.5-0.5-1.2-0.3-1.8
			c0.1-0.6,0.5-1.1,1.1-1.5c0.4-0.2,0.9-0.4,1.4-0.4c0.9,0,1.7,0.4,2.1,1.1c0,0,0.1,0.1,0.1,0.1l5.8,7.1c0.4,0.5,1,0.7,1.6,0.5
			c0.6-0.2,1-0.7,1.1-1.3C33,34.3,33,25.6,33,17.3c0-1.5,0-2.9,0-4.4v-2c0-1.3,1.2-2.4,2.7-2.4c1.4,0,2.5,1.1,2.5,2.4v9.9
			c0,0.8,0.7,1.5,1.5,1.5s1.5-0.7,1.5-1.5c0-1.3,1.2-2.4,2.6-2.4c1.4,0,2.6,1.1,2.6,2.4v5.9c0,0.8,0.7,1.5,1.5,1.5s1.5-0.7,1.5-1.5
			c0-1.3,1.3-2.4,2.8-2.4s2.8,1.2,2.8,2.4c0,0.6,0,1.2,0,1.8c0,1.3,0,2.7,0,4c0,0.6,0.4,1.1,0.9,1.3c0.5,0.2,1.2,0.1,1.6-0.3
			c0.2-0.2,0.6-0.6,0.9-0.6c0.7-0.2,1.5,0.1,2.1,0.6C60.6,33.7,61.1,34.3,61,35.1z"/>
		<path d="M4.1,4.5C3.3,4.2,2.5,4.6,2.2,5.4l-2,5.1c-0.1,0.4-0.1,0.8,0,1.1l2,5.1c0.2,0.6,0.8,0.9,1.4,0.9c0.2,0,0.4,0,0.6-0.1
			c0.8-0.3,1.1-1.2,0.8-1.9L3.1,11l1.8-4.6C5.2,5.7,4.9,4.8,4.1,4.5z"/>
		<path d="M15,4.5c-0.8-0.3-1.6,0.1-1.9,0.8l-2,5.1c-0.1,0.4-0.1,0.8,0,1.1l2,5.1c0.2,0.6,0.8,0.9,1.4,0.9c0.2,0,0.4,0,0.6-0.1
			c0.8-0.3,1.1-1.2,0.8-1.9L14,11l1.8-4.6C16.1,5.7,15.8,4.8,15,4.5z"/>
		<path d="M23.9,16.7c0.2,0.6,0.8,0.9,1.4,0.9c0.2,0,0.4,0,0.6-0.1c0.8-0.3,1.1-1.2,0.8-1.9L24.9,11l1.8-4.6
			c0.3-0.8-0.1-1.6-0.8-1.9c-0.8-0.3-1.6,0.1-1.9,0.8l-2,5.1c-0.1,0.4-0.1,0.8,0,1.1L23.9,16.7z"/>
	</g>
</g>
<g id="foot">
</g>
<g id="share-social">
</g>
<g id="ghost">
</g>
</svg>
