<?xml version="1.0" encoding="utf-8"?>
<!-- Generator: Adobe Illustrator 20.1.0, SVG Export Plug-In . SVG Version: 6.00 Build 0)  -->
<!DOCTYPE svg PUBLIC "-//W3C//DTD SVG 1.1//EN" "http://www.w3.org/Graphics/SVG/1.1/DTD/svg11.dtd">
<svg version="1.1" xmlns="http://www.w3.org/2000/svg" xmlns:xlink="http://www.w3.org/1999/xlink" x="0px" y="0px"
	 viewBox="0 0 64 64" style="enable-background:new 0 0 64 64;" xml:space="preserve">
<g id="user">
</g>
<g id="users">
</g>
<g id="comment">
</g>
<g id="commenting">
</g>
<g id="comments">
</g>
<g id="comments-alt">
</g>
<g id="commenting-alt">
</g>
<g id="comment-alt">
</g>
<g id="face-happy">
</g>
<g id="face-ok">
</g>
<g id="face-unhappy">
</g>
<g id="mail">
</g>
<g id="phone">
</g>
<g id="fingerprint">
</g>
<g id="info">
</g>
<g id="question">
</g>
<g id="warning">
</g>
<g id="alert">
</g>
<g id="headset">
	<path d="M55.4,28H54v-6.7c0-3-0.6-5.8-1.7-8.3c-1.2-2.6-2.7-4.9-4.7-6.8c-2-2-4.4-3.5-7-4.6C37.9,0.6,35,0,32,0h-0.1
		c-2.9,0-5.8,0.6-8.5,1.7c-2.6,1.1-5,2.6-7,4.6c-2,1.9-3.6,4.2-4.7,6.8c-1.1,2.5-1.7,5.3-1.7,8.3V28H8.6C3.8,28,0,31.7,0,36.2v7.6
		C0,48.2,3.9,52,8.6,52h2.9c0.8,0,1.5-0.7,1.5-1.5V21.3c0-2.6,0.5-5,1.4-7.1c1-2.2,2.3-4.2,4-5.8c1.8-1.7,3.8-3,6.1-3.9
		C26.9,3.5,29.4,3,32,3h0.1c2.6,0,5.1,0.5,7.4,1.5c2.3,0.9,4.3,2.3,6.1,3.9c1.6,1.6,3,3.5,4,5.8c0.9,2.1,1.4,4.5,1.4,7.1v28.3
		c-0.1,0.2-0.2,0.4-0.2,0.6c0,3.6-3.9,5.8-11.5,6.5c-0.5-2.2-2-3.8-3.8-3.8h-7.1c-2.3,0-4,2.4-4,5.5s1.8,5.5,4,5.5h7.1
		c1.9,0,3.5-1.8,3.9-4.2C48,59,52.7,56.4,53.7,52h1.8c4.6,0,8.6-3.8,8.6-8.2v-7.6C64,31.7,60.2,28,55.4,28z M10,49H8.6
		c-3,0-5.6-2.4-5.6-5.2v-7.6C3,33.4,5.5,31,8.6,31H10V49z M35.6,61h-7.1c-0.3,0-1-0.9-1-2.5s0.7-2.5,1-2.5h7.1c0.3,0,1,0.9,1,2.5
		S35.9,61,35.6,61z M61,43.8c0,2.8-2.5,5.2-5.6,5.2H54V31h1.4c3,0,5.6,2.4,5.6,5.2V43.8z"/>
</g>
<g id="skull">
</g>
<g id="baby">
</g>
<g id="eye">
</g>
<g id="id-card">
</g>
<g id="microphone">
</g>
<g id="eye-cross">
</g>
<g id="user-commenting">
</g>
<g id="user-commenting-alt">
</g>
<g id="user-file">
</g>
<g id="user-check">
</g>
<g id="tap">
</g>
<g id="swipe">
</g>
<g id="slide">
</g>
<g id="foot">
</g>
<g id="share-social">
</g>
<g id="ghost">
</g>
</svg>
