<?xml version="1.0" encoding="utf-8"?>
<!-- Generator: Adobe Illustrator 20.1.0, SVG Export Plug-In . SVG Version: 6.00 Build 0)  -->
<!DOCTYPE svg PUBLIC "-//W3C//DTD SVG 1.1//EN" "http://www.w3.org/Graphics/SVG/1.1/DTD/svg11.dtd">
<svg version="1.1" xmlns="http://www.w3.org/2000/svg" xmlns:xlink="http://www.w3.org/1999/xlink" x="0px" y="0px"
	 viewBox="0 0 64 64" style="enable-background:new 0 0 64 64;" xml:space="preserve">
<g id="hand-finger">
</g>
<g id="hand-double-fingers">
</g>
<g id="hand-double-fingers-tap">
	<g>
		<path d="M59.2,34.5c-1.4-1.3-3.2-1.9-5-1.5c0-0.5,0-1.1,0-1.6c0-0.6,0-1.3,0-1.9c0-3.1-2.8-5.6-6-5.6c-1.1,0-2.1,0.3-3,0.8V12.9
			c0-3.5-2.1-5.6-5.5-5.6c-2,0-3.5,0.6-4.6,1.7c0,0,0,0-0.1,0.1c-1-1.1-2.6-1.8-4.3-1.8c-3.3,0-5.9,2.5-5.9,5.6V15
			c0,1.5,0,3.1,0,4.6c0,7.5,0,15.3-0.5,22.9L20.5,38c-1.7-2.5-5.1-3.3-7.8-1.7c-1.4,0.8-2.3,2-2.7,3.5c-0.4,1.5-0.1,3,0.8,4.3
			L22.5,60c1.9,2.6,5,4.2,8.3,4.2h16.1c4.8,0,9-3.4,10-8c0,0,3.9-17.1,3.9-17.1C61,37.5,60.5,35.8,59.2,34.5z M57.8,38.4
			c0,0.1-3.9,17.1-3.9,17.1c-0.7,3.3-3.7,5.6-7.1,5.6H30.7c-2.3,0-4.5-1.1-5.9-2.9L13.2,42.4c-0.4-0.6-0.5-1.3-0.3-1.9
			c0.2-0.7,0.6-1.3,1.2-1.6c0.5-0.3,1-0.4,1.5-0.4c0.9,0,1.8,0.4,2.4,1.3c0,0,0.1,0.1,0.1,0.1l6.2,7.5c0.4,0.5,1,0.7,1.6,0.5
			c0.6-0.2,1-0.7,1.1-1.3c0.9-9,0.9-18.1,0.8-26.9c0-1.5,0-3.1,0-4.6v-2.2c0-1.4,1.4-2.6,2.9-2.6c1.5,0,2.7,1.1,2.8,2.6
			c0,0,0,0.1,0,0.1l0,2.2l0.4,14.7c0,0.8,0.7,1.5,1.5,1.5c0.8,0,1.5-0.7,1.5-1.5l-0.3-16.9c0,0,0,0,0,0c0-0.1,0-1.1,0.7-1.8
			c0.5-0.5,1.4-0.8,2.5-0.8c1.3,0,2.5,0.3,2.5,2.6v16.7c0,0.8,0.7,1.5,1.5,1.5s1.5-0.7,1.5-1.5c0-1.4,1.5-2.6,3-2.6s3,1.3,3,2.6
			c0,0.6,0,1.2,0,1.9c0,1.4,0,2.8,0,4.2c0,0.6,0.4,1.1,0.9,1.3c0.5,0.2,1.2,0.1,1.6-0.3c0.3-0.3,0.7-0.6,1-0.7
			c0.7-0.2,1.7,0.1,2.3,0.7C57.4,36.9,57.9,37.6,57.8,38.4z"/>
		<path d="M46.6,8.5c0.2,0.1,0.3,0.1,0.5,0.1c0.6,0,1.2-0.4,1.4-1l1.8-5c0.3-0.8-0.1-1.6-0.9-1.9c-0.8-0.3-1.6,0.1-1.9,0.9l-1.8,5
			C45.4,7.4,45.8,8.2,46.6,8.5z"/>
		<path d="M48,11.5c-0.3,0.8,0.1,1.6,0.9,1.9l5,1.8c0.2,0.1,0.3,0.1,0.5,0.1c0.6,0,1.2-0.4,1.4-1c0.3-0.8-0.1-1.6-0.9-1.9l-5-1.8
			C49.2,10.3,48.3,10.7,48,11.5z"/>
		<path d="M21.9,7.4c0.2,0.6,0.8,1,1.4,1c0.2,0,0.3,0,0.5-0.1C24.6,8,25,7.2,24.7,6.4l-1.8-5c-0.3-0.8-1.1-1.2-1.9-0.9
			c-0.8,0.3-1.2,1.1-0.9,1.9L21.9,7.4z"/>
		<path d="M16,15.1c0.2,0,0.3,0,0.5-0.1l5-1.8c0.8-0.3,1.2-1.1,0.9-1.9c-0.3-0.8-1.1-1.2-1.9-0.9l-5,1.8c-0.8,0.3-1.2,1.1-0.9,1.9
			C14.8,14.7,15.4,15.1,16,15.1z"/>
	</g>
</g>
</svg>
