<?xml version="1.0" encoding="utf-8"?>
<!-- Generator: Adobe Illustrator 20.1.0, SVG Export Plug-In . SVG Version: 6.00 Build 0)  -->
<!DOCTYPE svg PUBLIC "-//W3C//DTD SVG 1.1//EN" "http://www.w3.org/Graphics/SVG/1.1/DTD/svg11.dtd">
<svg version="1.1" xmlns="http://www.w3.org/2000/svg" xmlns:xlink="http://www.w3.org/1999/xlink" x="0px" y="0px"
	 viewBox="0 0 64 64" style="enable-background:new 0 0 64 64;" xml:space="preserve">
<g id="text-height">
</g>
<g id="font">
</g>
<g id="text">
</g>
<g id="italic">
</g>
<g id="strikethrough">
</g>
<g id="paragraph">
</g>
<g id="bold">
</g>
<g id="quote-right">
</g>
<g id="hashtag">
</g>
<g id="anchor-handle">
</g>
<g id="box">
</g>
<g id="fullscreen">
</g>
<g id="fullscreen-alt">
</g>
<g id="golden-ratio">
</g>
<g id="hexgrid">
	<path d="M62.5,33c0.8,0,1.5-0.7,1.5-1.5S63.3,30,62.5,30H46.2v-9.2h16.3c0.8,0,1.5-0.7,1.5-1.5s-0.7-1.5-1.5-1.5H46.2V1.5
		c0-0.8-0.7-1.5-1.5-1.5s-1.5,0.7-1.5,1.5v16.3H33V1.5C33,0.7,32.3,0,31.5,0S30,0.7,30,1.5v16.3h-9.2V1.5c0-0.8-0.7-1.5-1.5-1.5
		s-1.5,0.7-1.5,1.5v16.3H1.5c-0.8,0-1.5,0.7-1.5,1.5s0.7,1.5,1.5,1.5h16.3V30H1.5C0.7,30,0,30.7,0,31.5S0.7,33,1.5,33h16.3v10.2H1.5
		c-0.8,0-1.5,0.7-1.5,1.5s0.7,1.5,1.5,1.5h16.3v16.3c0,0.8,0.7,1.5,1.5,1.5s1.5-0.7,1.5-1.5V46.2H30v16.3c0,0.8,0.7,1.5,1.5,1.5
		s1.5-0.7,1.5-1.5V46.2h10.2v16.3c0,0.8,0.7,1.5,1.5,1.5s1.5-0.7,1.5-1.5V46.2h16.3c0.8,0,1.5-0.7,1.5-1.5s-0.7-1.5-1.5-1.5H46.2V33
		H62.5z M43.2,20.8V30H33v-9.2H43.2z M20.8,20.8H30V30h-9.2V20.8z M20.8,43.2V33H30v10.2H20.8z M43.2,43.2H33V33h10.2V43.2z"/>
</g>
<g id="box-points">
</g>
<g id="box-points-move">
</g>
<g id="box-points-move-alt">
</g>
<g id="hex_1_">
</g>
<g id="hex-diamond">
</g>
<g id="artboards-vertical">
</g>
<g id="artboards">
</g>
<g id="artboards-alt-vertical">
</g>
<g id="artboards-alt">
</g>
<g id="scale">
</g>
<g id="pencil">
</g>
<g id="fill">
</g>
<g id="artist-mug">
</g>
<g id="pen">
</g>
<g id="calligraphy-pen-tip">
</g>
<g id="calligraphy-pen_1_">
</g>
<g id="paint-pallette">
</g>
<g id="tools-cross">
</g>
<g id="edit-tools">
</g>
<g id="pencil-ruler">
</g>
<g id="ruler-measure">
</g>
<g id="measure">
</g>
<g id="code">
</g>
<g id="move">
</g>
<g id="external">
</g>
<g id="terminal">
</g>
<g id="thumbnails">
</g>
</svg>
