<?xml version="1.0" encoding="utf-8"?>
<!-- Generator: Adobe Illustrator 20.1.0, SVG Export Plug-In . SVG Version: 6.00 Build 0)  -->
<!DOCTYPE svg PUBLIC "-//W3C//DTD SVG 1.1//EN" "http://www.w3.org/Graphics/SVG/1.1/DTD/svg11.dtd">
<svg version="1.1" xmlns="http://www.w3.org/2000/svg" xmlns:xlink="http://www.w3.org/1999/xlink" x="0px" y="0px"
	 viewBox="0 0 64 64" style="enable-background:new 0 0 64 64;" xml:space="preserve">
<g id="hand-finger">
</g>
<g id="hand-double-fingers">
	<path d="M59.1,30.8c-1.6-1.5-3.8-2.1-5.7-1.6c0-0.7,0-1.4,0-2.1c0-0.7,0-1.4,0-2.1c0-3.4-3.1-6.2-6.7-6.2c-1.3,0-2.6,0.4-3.7,1.1
		V6.2C43,2.3,40.8,0,37,0c-2.2,0-3.9,0.6-5.2,1.9c-0.1,0.1-0.1,0.2-0.2,0.2C30.4,0.8,28.7,0,26.7,0c-3.6,0-6.6,2.8-6.6,6.2v2.4
		c0,1.7,0,3.5,0,5.2c0,8.7,0.1,17.7-0.6,26.5l-4.6-5.6c-1.9-2.8-5.7-3.6-8.6-1.9c-1.5,0.9-2.6,2.2-2.9,3.9c-0.4,1.6-0.1,3.2,0.9,4.7
		l13.4,18c2.1,2.9,5.6,4.6,9.2,4.6h18.3c5.3,0,10-3.7,11.2-8.9c0,0,4.4-19.3,4.4-19.4C61.1,34,60.5,32.2,59.1,30.8z M57.8,35.1
		c0,0.1-4.4,19.4-4.4,19.4c-0.8,3.8-4.3,6.5-8.2,6.5H26.8c-2.7,0-5.2-1.3-6.8-3.4L6.7,39.7c-0.5-0.7-0.6-1.5-0.4-2.3
		c0.2-0.8,0.7-1.5,1.5-2c0.6-0.3,1.2-0.5,1.8-0.5c1.1,0,2.2,0.5,2.9,1.5c0,0,0.1,0.1,0.1,0.1l7,8.4c0.4,0.5,1,0.7,1.6,0.5
		c0.6-0.2,1-0.7,1.1-1.3c1-10.1,1-20.4,1-30.4c0-1.7,0-3.5,0-5.2V6.2c0-1.7,1.6-3.2,3.6-3.2c1.9,0,3.3,1.4,3.4,3.1c0,0,0,0.1,0,0.1
		l0,2.5l0.4,16.6c0,0.8,0.7,1.5,1.5,1.5c0.8,0,1.5-0.7,1.5-1.5l-0.4-19c0,0,0,0,0-0.1c0-0.2,0.1-1.3,0.9-2.1c0.6-0.7,1.6-1,3-1
		C39.1,3,40,4,40,6.2V25c0,0.8,0.7,1.5,1.5,1.5S43,25.9,43,25c0-1.7,1.8-3.2,3.7-3.2c1.9,0,3.7,1.5,3.7,3.2c0,0.7,0,1.4,0,2.1
		c0,1.6,0,3.2,0,4.8c0,0.6,0.4,1.1,0.9,1.3c0.5,0.2,1.2,0.1,1.6-0.3c0.4-0.3,0.8-0.7,1.2-0.8c0.9-0.2,2.1,0.1,2.9,0.9
		C57.3,33.3,58,34.1,57.8,35.1z"/>
</g>
<g id="hand-double-fingers-tap">
</g>
</svg>
