<?xml version="1.0" encoding="utf-8"?>
<!-- Generator: Adobe Illustrator 20.1.0, SVG Export Plug-In . SVG Version: 6.00 Build 0)  -->
<!DOCTYPE svg PUBLIC "-//W3C//DTD SVG 1.1//EN" "http://www.w3.org/Graphics/SVG/1.1/DTD/svg11.dtd">
<svg version="1.1" id="Layer_1" xmlns="http://www.w3.org/2000/svg" xmlns:xlink="http://www.w3.org/1999/xlink" x="0px" y="0px"
	 viewBox="0 0 64 64" style="enable-background:new 0 0 64 64;" xml:space="preserve">
<g id="user">
</g>
<g id="users">
</g>
<g id="comment">
</g>
<g id="commenting">
</g>
<g id="comments">
</g>
<g id="comments-alt">
</g>
<g id="commenting-alt">
</g>
<g id="comment-alt">
</g>
<g id="face-happy">
</g>
<g id="face-ok">
</g>
<g id="face-unhappy">
</g>
<g id="mail">
</g>
<g id="phone">
</g>
<g id="fingerprint">
</g>
<g id="info">
</g>
<g id="question">
</g>
<g id="warning">
</g>
<g id="alert">
</g>
<g id="headset">
</g>
<g id="skull">
</g>
<g id="baby">
</g>
<g id="eye">
</g>
<g id="id-card">
</g>
<g id="microphone">
</g>
<g id="eye-cross">
</g>
<g id="user-commenting">
</g>
<g id="user-commenting-alt">
</g>
<g id="user-file">
</g>
<g id="user-check">
</g>
<g id="swipe">
</g>
<g id="slide">
</g>
<g id="foot">
</g>
<g id="share-social">
</g>
<g>
	<path d="M54.8,35.5c-1.3-1.2-3-1.8-4.7-1.5c0-0.5,0-1,0-1.5c0-0.6,0-1.2,0-1.8c0-3.1-2.4-5.5-5.4-5.5c-0.9,0-1.7,0.2-2.4,0.5v-1
		c0-3-2.5-5.5-5.6-5.5c-0.9,0-1.8,0.2-2.6,0.7v-5.2c0-2.9-2.8-5.5-6.1-5.5c-3,0-6.2,2.3-6.2,5.5v2.1c0,1.9,0,3.7,0,5.6
		c0,6.8,0.1,13.7-0.4,20.6l-3.4-4.2c-1.6-2.4-4.9-3.2-7.5-1.7c-1.3,0.8-2.2,2-2.6,3.4c-0.3,1.4-0.1,2.9,0.8,4.2L19.8,60
		c1.8,2.5,4.8,4,7.9,4H43c4.6,0,8.6-3.2,9.6-7.7c3.6-15.9,3.7-16.4,3.7-16.4s0,0,0,0C56.6,38.4,56,36.7,54.8,35.5z M53.3,39.3
		c0,0.2-3.7,16.4-3.7,16.4C48.9,58.8,46.1,61,43,61H27.7c-2.2,0-4.2-1-5.5-2.8L11.1,43.1c-0.4-0.5-0.5-1.2-0.3-1.8
		c0.2-0.6,0.6-1.2,1.1-1.5c0.4-0.3,0.9-0.4,1.4-0.4c0.9,0,1.7,0.4,2.2,1.2c0,0,0.1,0.1,0.1,0.1l5.8,7.1c0.4,0.5,1,0.7,1.6,0.5
		c0.6-0.2,1-0.7,1.1-1.3c0.8-8.2,0.8-16.5,0.7-24.6c0-1.9,0-3.7,0-5.6v-2.1c0-1.2,1.6-2.5,3.2-2.5c1.6,0,3.1,1.2,3.1,2.5v9.9
		c0,0.8,0.7,1.5,1.5,1.5c0.8,0,1.5-0.7,1.5-1.5c0-1.3,1.2-2.4,2.6-2.4c1.4,0,2.6,1.1,2.6,2.5v6c0,0.8,0.7,1.5,1.5,1.5
		s1.5-0.7,1.5-1.5c0-1.4,1-2.5,2.4-2.5s2.4,1.1,2.4,2.5c0,0.6,0,1.2,0,1.8c0,1.3,0,2.7,0,4.1c0,0.6,0.4,1.1,0.9,1.3
		c0.5,0.2,1.2,0.1,1.6-0.3c0.2-0.2,0.6-0.6,0.9-0.6c0.7-0.2,1.5,0.1,2.1,0.7C52.9,37.9,53.4,38.5,53.3,39.3z"/>
	<path d="M34.7,8.1c0.2,0.1,0.3,0.1,0.5,0.1c0.6,0,1.2-0.4,1.4-1L38.5,2c0.3-0.8-0.1-1.6-0.9-1.9c-0.8-0.3-1.6,0.1-1.9,0.9l-1.9,5.2
		C33.5,7,33.9,7.8,34.7,8.1z"/>
	<path d="M36.2,11.3c-0.3,0.8,0.1,1.6,0.9,1.9l5.2,1.9c0.2,0.1,0.3,0.1,0.5,0.1c0.6,0,1.2-0.4,1.4-1c0.3-0.8-0.1-1.6-0.9-1.9
		l-5.2-1.9C37.4,10.1,36.5,10.5,36.2,11.3z"/>
	<path d="M18.9,7.2c0.2,0.6,0.8,1,1.4,1c0.2,0,0.3,0,0.5-0.1C21.6,7.8,22,7,21.7,6.2L19.9,1c-0.3-0.8-1.1-1.2-1.9-0.9
		c-0.8,0.3-1.2,1.1-0.9,1.9L18.9,7.2z"/>
	<path d="M12.7,15.1c0.2,0,0.3,0,0.5-0.1l5.2-1.9c0.8-0.3,1.2-1.1,0.9-1.9c-0.3-0.8-1.1-1.2-1.9-0.9l-5.2,1.9
		c-0.8,0.3-1.2,1.1-0.9,1.9C11.5,14.7,12.1,15.1,12.7,15.1z"/>
</g>
</svg>
