<?xml version="1.0" encoding="utf-8"?>
<!-- Generator: Adobe Illustrator 20.1.0, SVG Export Plug-In . SVG Version: 6.00 Build 0)  -->
<!DOCTYPE svg PUBLIC "-//W3C//DTD SVG 1.1//EN" "http://www.w3.org/Graphics/SVG/1.1/DTD/svg11.dtd">
<svg version="1.1" xmlns="http://www.w3.org/2000/svg" xmlns:xlink="http://www.w3.org/1999/xlink" x="0px" y="0px"
	 viewBox="0 0 64 64" style="enable-background:new 0 0 64 64;" xml:space="preserve">
<g id="text-height">
</g>
<g id="font">
</g>
<g id="text">
</g>
<g id="italic">
</g>
<g id="strikethrough">
</g>
<g id="paragraph">
</g>
<g id="bold">
</g>
<g id="quote-right">
</g>
<g id="hashtag">
	<path d="M56.6,19H45.7l4-17.1C49.9,1,49.4,0.2,48.6,0c-0.8-0.2-1.6,0.3-1.8,1.1L42.6,19H28.9l4-17.1C33.1,1,32.6,0.2,31.8,0
		C31-0.1,30.1,0.4,30,1.2L25.8,19H12.3c-0.8,0-1.5,0.7-1.5,1.5s0.7,1.5,1.5,1.5h12.7l-4.7,20h-13c-0.8,0-1.5,0.7-1.5,1.5
		S6.6,45,7.4,45h12.3l-4,17.1C15.5,63,16,63.8,16.8,64c0.1,0,0.2,0,0.3,0c0.7,0,1.3-0.5,1.5-1.2L22.8,45h13.7l-4,17.1
		c-0.2,0.8,0.3,1.6,1.1,1.8c0.1,0,0.2,0,0.3,0c0.7,0,1.3-0.5,1.5-1.2L39.6,45h12.1c0.8,0,1.5-0.7,1.5-1.5S52.5,42,51.7,42H40.3
		L45,22h11.6c0.8,0,1.5-0.7,1.5-1.5S57.4,19,56.6,19z M37.2,42H23.5l4.7-20h13.7L37.2,42z"/>
</g>
<g id="anchor-handle">
</g>
<g id="box">
</g>
<g id="fullscreen">
</g>
<g id="fullscreen-alt">
</g>
<g id="golden-ratio">
</g>
<g id="hexgrid">
</g>
<g id="box-points">
</g>
<g id="box-points-move">
</g>
<g id="box-points-move-alt">
</g>
<g id="hex_1_">
</g>
<g id="hex-diamond">
</g>
<g id="artboards-vertical">
</g>
<g id="artboards">
</g>
<g id="artboards-alt-vertical">
</g>
<g id="artboards-alt">
</g>
<g id="scale">
</g>
<g id="pencil">
</g>
<g id="fill">
</g>
<g id="artist-mug">
</g>
<g id="pen">
</g>
<g id="calligraphy-pen-tip">
</g>
<g id="calligraphy-pen_1_">
</g>
<g id="paint-pallette">
</g>
<g id="tools-cross">
</g>
<g id="edit-tools">
</g>
<g id="pencil-ruler">
</g>
<g id="ruler-measure">
</g>
<g id="measure">
</g>
<g id="code">
</g>
<g id="move">
</g>
<g id="external">
</g>
<g id="terminal">
</g>
<g id="thumbnails">
</g>
</svg>
