<?xml version="1.0" encoding="utf-8"?>
<!-- Generator: Adobe Illustrator 20.1.0, SVG Export Plug-In . SVG Version: 6.00 Build 0)  -->
<!DOCTYPE svg PUBLIC "-//W3C//DTD SVG 1.1//EN" "http://www.w3.org/Graphics/SVG/1.1/DTD/svg11.dtd">
<svg version="1.1" id="Layer_1" xmlns="http://www.w3.org/2000/svg" xmlns:xlink="http://www.w3.org/1999/xlink" x="0px" y="0px"
	 viewBox="0 0 64 64" style="enable-background:new 0 0 64 64;" xml:space="preserve">
<g>
	<path d="M58.2,9.2C51.1,2,39.8,1.5,32,7.7C24.2,1.5,12.9,2,5.8,9.2c-7.7,7.7-7.7,20.3,0,28.1l21.1,21.4C28.2,60,30.1,61,32,61
		c0,0,0,0,0,0c1.9,0,3.8-1,5.1-2.3l3.9-4.1c0.6-0.6,0.6-1.6,0-2.2c-0.6-0.6-1.5-0.6-2.1,0L35,56.6c-0.8,0.8-1.9,1.4-3,1.4
		c0,0,0,0,0,0c-1.1,0-2.2-0.6-3-1.5L7.9,35.3c-6.5-6.6-6.5-17.3,0-23.9C14.2,5,24.4,4.8,31,10.8c0.6,0.5,1.5,0.5,2,0
		c6.6-6.1,16.8-5.8,23.1,0.5c5.7,5.7,6.5,14.7,2.1,21.3c-0.5,0.7-0.3,1.6,0.4,2.1c0.7,0.5,1.6,0.3,2.1-0.4
		C65.9,26.5,64.9,15.9,58.2,9.2z"/>
	<path d="M56.5,43H51v-5.9c0-0.8-0.7-1.5-1.5-1.5S48,36.3,48,37.1V43h-5.5c-0.8,0-1.5,0.7-1.5,1.5s0.7,1.5,1.5,1.5H48v5.4
		c0,0.8,0.7,1.5,1.5,1.5s1.5-0.7,1.5-1.5V46h5.5c0.8,0,1.5-0.7,1.5-1.5S57.3,43,56.5,43z"/>
</g>
</svg>
