<?xml version="1.0" encoding="utf-8"?>
<!-- Generator: Adobe Illustrator 20.1.0, SVG Export Plug-In . SVG Version: 6.00 Build 0)  -->
<!DOCTYPE svg PUBLIC "-//W3C//DTD SVG 1.1//EN" "http://www.w3.org/Graphics/SVG/1.1/DTD/svg11.dtd">
<svg version="1.1" xmlns="http://www.w3.org/2000/svg" xmlns:xlink="http://www.w3.org/1999/xlink" x="0px" y="0px"
	 viewBox="0 0 64 64" style="enable-background:new 0 0 64 64;" xml:space="preserve">
<g id="home">
	<g>
		<path d="M63.6,33.2L33.1,2.7c-0.1-0.1-0.3-0.2-0.4-0.3c0,0,0,0-0.1,0c-0.1-0.1-0.3-0.1-0.4-0.1c-0.1,0-0.1,0-0.2,0
			c-0.1,0-0.1,0-0.2,0c-0.1,0-0.3,0-0.4,0.1c0,0,0,0-0.1,0c-0.2,0.1-0.3,0.2-0.4,0.3L0.4,33.2c-0.6,0.6-0.6,1.5,0,2.1
			c0.3,0.3,0.7,0.4,1.1,0.4c0.4,0,0.8-0.1,1.1-0.4L32,5.9l29.4,29.4c0.3,0.3,0.7,0.4,1.1,0.4c0.4,0,0.8-0.1,1.1-0.4
			C64.1,34.7,64.1,33.7,63.6,33.2z"/>
		<path d="M51.1,13.9h5.5v5.5c0,0.8,0.7,1.5,1.5,1.5s1.5-0.7,1.5-1.5v-7c0-0.8-0.7-1.5-1.5-1.5h-7c-0.8,0-1.5,0.7-1.5,1.5
			S50.3,13.9,51.1,13.9z"/>
		<path d="M54.6,34.6c-0.8,0-1.5,0.7-1.5,1.5v22.7H40.5V40.1c0-0.8-0.7-1.5-1.5-1.5H25c-0.8,0-1.5,0.7-1.5,1.5v18.6H10.9V36.1
			c0-0.8-0.7-1.5-1.5-1.5s-1.5,0.7-1.5,1.5v24.2c0,0.8,0.7,1.5,1.5,1.5H25c0.8,0,1.5-0.7,1.5-1.5V41.6h11.1v18.6
			c0,0.8,0.7,1.5,1.5,1.5h15.6c0.8,0,1.5-0.7,1.5-1.5V36.1C56.1,35.3,55.5,34.6,54.6,34.6z"/>
	</g>
</g>
<g id="shop">
</g>
<g id="buildings">
</g>
<g id="solar-panel">
</g>
<g id="towers">
</g>
<g id="stadium">
</g>
<g id="station">
</g>
<g id="shop-alt">
</g>
<g id="home-alt">
</g>
<g id="factory">
</g>
<g id="rig">
</g>
<g id="shipping-container">
</g>
<g id="official-building">
</g>
</svg>
