<?xml version="1.0" encoding="utf-8"?>
<!-- Generator: Adobe Illustrator 20.1.0, SVG Export Plug-In . SVG Version: 6.00 Build 0)  -->
<!DOCTYPE svg PUBLIC "-//W3C//DTD SVG 1.1//EN" "http://www.w3.org/Graphics/SVG/1.1/DTD/svg11.dtd">
<svg version="1.1" xmlns="http://www.w3.org/2000/svg" xmlns:xlink="http://www.w3.org/1999/xlink" x="0px" y="0px"
	 viewBox="0 0 64 64" style="enable-background:new 0 0 64 64;" xml:space="preserve">
<style type="text/css">
	.st0{fill:none;stroke:#000000;stroke-width:3;stroke-linecap:round;stroke-linejoin:round;}
</style>
<g id="cupcake">
</g>
<g id="turkey">
</g>
<g id="hot-service">
</g>
<g id="mug">
</g>
<g id="mug-hot">
</g>
<g id="bottle">
</g>
<g id="cherries">
</g>
<g id="cocktail">
</g>
<g id="cocktail-alt">
</g>
<g id="wine-glass">
</g>
<g id="wine-glass-alt">
</g>
<g id="aubergine">
</g>
<g id="lettuce-leaf">
</g>
<g id="cup">
</g>
<g id="noodles">
</g>
<g id="icelolly">
</g>
<g id="cutlery">
</g>
<g id="hotdog">
	<g>
		<path d="M19.9,44.2c-0.2-0.2-0.3-0.5-0.3-0.8c0-0.3,0.1-0.6,0.3-0.8c0.5-0.5,1.2-0.5,1.6,0c0.8,0.8,1.8,1.2,2.9,1.2
			s2.2-0.4,2.9-1.2c0.8-0.8,1.2-1.8,1.2-2.9c0-1.1-0.4-2.2-1.2-2.9c-0.5-0.5-0.5-1.2,0-1.6c0.2-0.2,0.5-0.3,0.8-0.3c0,0,0,0,0,0
			c0.3,0,0.6,0.1,0.8,0.3c1.6,1.6,4.3,1.6,5.9,0c0.8-0.8,1.2-1.8,1.2-2.9c0-1.1-0.4-2.2-1.2-2.9c-0.5-0.5-0.5-1.2,0-1.6
			c0.5-0.5,1.2-0.5,1.6,0c0.8,0.8,1.8,1.2,2.9,1.2c0,0,0,0,0,0c1.1,0,2.2-0.4,2.9-1.2c1.6-1.6,1.6-4.3,0-5.9c-0.5-0.5-0.4-1.2,0-1.6
			c0.2-0.2,0.5-0.3,0.8-0.3c0,0,0,0,0,0c0.3,0,0.6,0.1,0.8,0.3c0.8,0.8,1.8,1.2,2.9,1.2s2.2-0.4,2.9-1.2c0.8-0.8,1.2-1.8,1.2-2.9
			c0-1.1-0.4-2.2-1.2-2.9c-0.5-0.5-0.5-1.2,0-1.6c0.5-0.5,1.2-0.5,1.6,0c0.6,0.6,1.5,0.6,2.1,0c0.6-0.6,0.6-1.5,0-2.1
			c-1.6-1.6-4.3-1.6-5.9,0c-1.6,1.6-1.6,4.3,0,5.9c0.2,0.2,0.3,0.5,0.3,0.8c0,0.3-0.1,0.6-0.3,0.8c-0.4,0.4-1.2,0.4-1.6,0
			c-0.8-0.8-1.8-1.2-2.9-1.2c0,0,0,0,0,0c-1.1,0-2.2,0.4-2.9,1.2c-1.6,1.6-1.6,4.3,0,5.9c0.5,0.5,0.5,1.2,0,1.6
			c-0.2,0.2-0.5,0.3-0.8,0.3c0,0,0,0,0,0c-0.3,0-0.6-0.1-0.8-0.3c-1.6-1.6-4.3-1.6-5.9,0c-1.6,1.6-1.6,4.3,0,5.9
			c0.2,0.2,0.3,0.5,0.3,0.8c0,0.3-0.1,0.6-0.3,0.8c-0.5,0.5-1.2,0.5-1.6,0c-0.8-0.8-1.8-1.2-2.9-1.2c0,0,0,0,0,0
			c-1.1,0-2.2,0.4-2.9,1.2c-1.6,1.6-1.6,4.3,0,5.9c0.2,0.2,0.3,0.5,0.3,0.8s-0.1,0.6-0.3,0.8c-0.4,0.4-1.2,0.4-1.6,0
			c-1.6-1.6-4.3-1.6-5.9,0c-0.8,0.8-1.2,1.8-1.2,2.9c0,1.1,0.4,2.2,1.2,2.9c0.5,0.5,0.5,1.2,0,1.6c-0.5,0.5-1.2,0.5-1.6,0
			c-0.8-0.8-1.8-1.2-2.9-1.2c0,0,0,0,0,0c-1.1,0-2.2,0.4-2.9,1.2c-1.6,1.6-1.6,4.3,0,5.9c0.3,0.3,0.7,0.4,1.1,0.4
			c0.4,0,0.8-0.1,1.1-0.4c0.6-0.6,0.6-1.5,0-2.1c-0.5-0.5-0.5-1.2,0-1.6c0.2-0.2,0.5-0.3,0.8-0.3c0,0,0,0,0,0c0.3,0,0.6,0.1,0.8,0.3
			c1.6,1.6,4.3,1.6,5.9,0C21.5,48.4,21.5,45.8,19.9,44.2z"/>
		<path d="M60.1,14.9c0.5-2.9-0.4-6.1-2.6-8.3c-2.2-2.2-5.4-3.1-8.3-2.6c-6.1-5-12.4-5.2-17.1-0.5L3.6,31.9
			c-4.1,4.1-5.5,11,0.2,17.4c-0.5,2.9,0.4,6.1,2.6,8.3c1.8,1.8,4.3,2.8,6.7,2.8c0.5,0,1.1-0.1,1.6-0.1c2.6,2.5,5.7,3.8,8.8,3.8
			c0,0,0.1,0,0.1,0c3.1,0,6.1-1.3,8.4-3.6l28.5-28.5C64.5,28,65.8,21.2,60.1,14.9z M5.7,34L34.2,5.5c3.2-3.2,7.3-3.3,11.7-0.4
			c-0.6,0.4-1.2,0.8-1.8,1.4L6.5,44.2c0,0,0,0,0,0c-0.6,0.6-1,1.2-1.4,1.8C1.6,41.2,3.1,36.6,5.7,34z M8.6,55.4
			c-2.5-2.5-2.5-6.6,0-9.2L46.2,8.7c2.5-2.5,6.6-2.5,9.2,0c2.5,2.5,2.5,6.6,0,9.2L17.7,55.4C15.2,58,11.1,58,8.6,55.4z M58.5,29.8
			L30,58.3c-1.8,1.8-4,2.7-6.4,2.7c-1.9,0-3.8-0.7-5.6-2c0.7-0.4,1.3-0.9,1.9-1.4L57.5,20c0.6-0.6,1-1.2,1.4-1.8
			C62.4,22.9,61.1,27.2,58.5,29.8z"/>
	</g>
</g>
</svg>
