<?xml version="1.0" encoding="utf-8"?>
<!-- Generator: Adobe Illustrator 20.1.0, SVG Export Plug-In . SVG Version: 6.00 Build 0)  -->
<!DOCTYPE svg PUBLIC "-//W3C//DTD SVG 1.1//EN" "http://www.w3.org/Graphics/SVG/1.1/DTD/svg11.dtd">
<svg version="1.1" xmlns="http://www.w3.org/2000/svg" xmlns:xlink="http://www.w3.org/1999/xlink" x="0px" y="0px"
	 viewBox="0 0 64 64" style="enable-background:new 0 0 64 64;" xml:space="preserve">
<g id="truck">
</g>
<g id="car">
</g>
<g id="taxi">
</g>
<g id="rocket">
</g>
<g id="tardis">
</g>
<g id="bus">
</g>
<g id="tram">
</g>
<g id="speedo">
</g>
<g id="air-machine">
</g>
<g id="speedo-alt">
</g>
<g id="motorcycle">
</g>
<g id="car-battery">
</g>
<g id="ufo">
</g>
<g id="arrivals">
</g>
<g id="petrol-pump">
</g>
<g id="gear-shift">
</g>
<g id="car-battery-alt">
</g>
<g id="road">
</g>
<g id="siren">
</g>
<g id="plane">
</g>
<g id="lorry">
</g>
<g id="train">
</g>
<g id="forklift">
</g>
<g id="bicycle">
</g>
<g id="underground">
</g>
<g id="paper-plane">
</g>
<g id="hotair-balloon">
	<path d="M41.5,49.9c-0.2,0-0.4,0-0.5,0.1h-0.6l2.5-7.7c5.2-5.7,9-15.1,9-22.4C52,8.9,43,0,32,0S12,8.9,12,19.9
		c0,6.5,3.3,16.2,9,22.4l2.6,7.7H23c-0.2-0.1-0.3-0.1-0.5-0.1c-0.8,0-1.5,0.7-1.5,1.5c0,0,0,0.1,0,0.1c0,0,0,0,0,0c0,0,0,0,0,0
		c0,7,3.7,12.5,8.4,12.5h5.1c4.7,0,8.4-5.5,8.4-12.6C43,50.6,42.3,49.9,41.5,49.9z M49,19.9c0,6.1-3.4,15.8-9.2,21.4
		c-0.2,0.2-0.4,0.3-0.9,0.1c2.6-5.7,4.4-14.6,4.4-21.4c0-6.2-1.5-11.6-3.9-15.2C45,7.5,49,13.2,49,19.9z M27.7,39.7
		c-2.3-5.3-4-13.5-4-19.8C23.7,10.8,27.5,3,32,3s8.3,7.8,8.3,16.9c0,6.2-1.6,14.3-3.9,19.6c-1.3-1-2.7-2-4.4-2
		C30.3,37.5,28.9,38.6,27.7,39.7z M24.6,4.7c-2.4,3.6-3.9,9-3.9,15.2c0,7,1.9,16.1,4.6,21.8c-0.3,0.1-0.5,0.1-0.6,0
		C18.7,36.3,15,26.2,15,19.9C15,13.2,19,7.5,24.6,4.7z M25,44.8c1.6-0.1,3-1.4,4.1-2.4c0.9-0.8,2.1-1.9,2.8-1.9c0.8,0,2,0.9,3,1.8
		c1.1,0.9,2.5,2,4,2.2L37.2,50H26.8L25,44.8z M34.6,61h-5.1c-2.6,0-4.9-3.5-5.4-8h15.8C39.5,57.5,37.2,61,34.6,61z"/>
</g>
</svg>
