<?xml version="1.0" encoding="utf-8"?>
<!-- Generator: Adobe Illustrator 20.1.0, SVG Export Plug-In . SVG Version: 6.00 Build 0)  -->
<!DOCTYPE svg PUBLIC "-//W3C//DTD SVG 1.1//EN" "http://www.w3.org/Graphics/SVG/1.1/DTD/svg11.dtd">
<svg version="1.1" id="Layer_1" xmlns="http://www.w3.org/2000/svg" xmlns:xlink="http://www.w3.org/1999/xlink" x="0px" y="0px"
	 viewBox="0 0 64 64" style="enable-background:new 0 0 64 64;" xml:space="preserve">
<g>
	<path d="M57.9,39H42.5l-2.2-11.1c-0.1-0.7-0.7-1.1-1.4-1.1c-0.7,0-1.3,0.5-1.5,1.2l-4.1,17L30,35.1c-0.2-0.6-0.8-1.1-1.4-1.1
		c0,0,0,0,0,0c-0.6,0-1.2,0.3-1.4,0.9L25.8,39h-4.3c-0.8,0-1.5,0.7-1.5,1.5s0.7,1.5,1.5,1.5h5.4c0.7,0,1.2-0.2,1.4-0.9l0.3-0.7
		l3.5,10.5c0.2,0.6,0.8,1.1,1.4,1.1c0,0,0,0,0.1,0c0.7,0,1.2-0.5,1.4-1.2l3.7-15.4l1.1,5.6c0.1,0.7,0.8,1,1.5,1h16.6
		c0.8,0,1.5-0.7,1.5-1.5S58.7,39,57.9,39z"/>
	<path d="M58.2,8.6C51.1,1.3,39.8,0.7,32,7.1C24.2,0.7,12.9,1.3,5.8,8.6c-7.7,7.9-7.7,20.8,0,28.7L26.8,59c1.4,1.4,3.2,2,5.2,2
		c0,0,0,0,0,0c1.9,0,3.8-0.6,5.1-2l3.9-4c0.6-0.6,0.6-1.5,0-2.1c-0.6-0.6-1.5-0.5-2.1,0.1L35,56.9c-0.8,0.8-1.9,1.1-3,1.1
		c0,0,0,0,0,0c-1.1,0-2.2-0.3-3-1.1L7.9,35.2c-6.6-6.8-6.6-17.8,0-24.5c6.3-6.5,16.4-6.7,23-0.5c0.6,0.5,1.5,0.6,2.1,0
		c6.6-6.2,16.8-6,23,0.5c5.7,5.9,6.6,15.1,2.1,22c-0.5,0.7-0.3,1.6,0.4,2.1c0.7,0.5,1.6,0.3,2.1-0.4C65.9,26.3,64.9,15.5,58.2,8.6z"
		/>
</g>
</svg>
