<?xml version="1.0" encoding="utf-8"?>
<!-- Generator: Adobe Illustrator 20.1.0, SVG Export Plug-In . SVG Version: 6.00 Build 0)  -->
<!DOCTYPE svg PUBLIC "-//W3C//DTD SVG 1.1//EN" "http://www.w3.org/Graphics/SVG/1.1/DTD/svg11.dtd">
<svg version="1.1" xmlns="http://www.w3.org/2000/svg" xmlns:xlink="http://www.w3.org/1999/xlink" x="0px" y="0px"
	 viewBox="0 0 64 64" style="enable-background:new 0 0 64 64;" xml:space="preserve">
<g id="home">
</g>
<g id="shop">
</g>
<g id="buildings">
</g>
<g id="solar-panel">
</g>
<g id="towers">
</g>
<g id="stadium">
</g>
<g id="station">
</g>
<g id="shop-alt">
</g>
<g id="home-alt">
	<path d="M63.2,24.9l-11.1-8.1V6.8c0-0.4-0.2-0.8-0.4-1.1c-0.3-0.3-0.7-0.4-1.1-0.4l-6,0c-0.8,0-1.5,0.7-1.5,1.5V10L32.9,2.4
		c-0.5-0.4-1.3-0.4-1.8,0L0.8,25c-0.4,0.3-0.6,0.7-0.6,1.2c0,3.3,2.6,6.3,5.9,7v23.3c0,3.1,2.2,5.4,5,5.4H53c2.8,0,5-2.4,5-5.4V33.2
		c3.2-0.7,5.7-3.6,5.7-7C63.8,25.7,63.6,25.2,63.2,24.9z M38.1,58.9h-12v-20h12V58.9z M55.1,56.5c0,1.2-0.7,2.4-2,2.4h-12V37.4
		c0-0.8-0.7-1.5-1.5-1.5h-15c-0.8,0-1.5,0.7-1.5,1.5v21.5h-12c-1.3,0-2-1.3-2-2.4V32.4l23-17.6l23,17.6V56.5z M57.3,30.3L33,11.7
		c-0.3-0.2-0.6-0.3-0.9-0.3s-0.6,0.1-0.9,0.3L6.9,30.3c-1.8-0.3-3.3-1.8-3.6-3.4L32,5.4l11.6,8.8c0.5,0.3,1.1,0.4,1.6,0.1
		c0.5-0.3,0.8-0.8,0.8-1.3V8.3l3,0v9.3c0,0.5,0.2,0.9,0.6,1.2l11.1,8C60.4,28.6,59,30,57.3,30.3z"/>
</g>
<g id="factory">
</g>
<g id="rig">
</g>
<g id="shipping-container">
</g>
<g id="official-building">
</g>
</svg>
