<?xml version="1.0" encoding="utf-8"?>
<!-- Generator: Adobe Illustrator 20.1.0, SVG Export Plug-In . SVG Version: 6.00 Build 0)  -->
<!DOCTYPE svg PUBLIC "-//W3C//DTD SVG 1.1//EN" "http://www.w3.org/Graphics/SVG/1.1/DTD/svg11.dtd">
<svg version="1.1" xmlns="http://www.w3.org/2000/svg" xmlns:xlink="http://www.w3.org/1999/xlink" x="0px" y="0px"
	 viewBox="0 0 64.5 64" style="enable-background:new 0 0 64.5 64;" xml:space="preserve">
<style type="text/css">
	.st0{fill:none;stroke:#000000;stroke-width:3;stroke-linecap:round;stroke-linejoin:round;}
</style>
<g id="cupcake">
</g>
<g id="turkey">
</g>
<g id="hot-service">
	<g>
		<path d="M4,55.9H61c0.8,0,1.5-0.7,1.5-1.5c0-16.4-12.6-29.3-29-29.8v-2.7c0-0.8-0.7-1.5-1.5-1.5s-1.5,0.7-1.5,1.5v2.7
			c-15.8,1-28,13.7-28,29.8C2.5,55.2,3.2,55.9,4,55.9z M32.5,27.5c14.6,0,26.2,11,26.9,25.4H5.6C6.3,38.5,17.9,27.5,32.5,27.5z"/>
		<path d="M62.5,58.9h-61c-0.8,0-1.5,0.7-1.5,1.5s0.7,1.5,1.5,1.5h61c0.8,0,1.5-0.7,1.5-1.5S63.3,58.9,62.5,58.9z"/>
		<path d="M21.8,13.9c0.2,0.3,0.3,0.6,0.4,0.9c0.2,0.4,0.1,0.7,0.1,0.8c-0.5,0.7-0.4,1.6,0.3,2.1c0.3,0.2,0.6,0.3,0.9,0.3
			c0.4,0,0.9-0.2,1.2-0.6c0.8-1,0.9-2.3,0.4-3.7c-0.2-0.5-0.4-0.9-0.6-1.3c-0.2-0.3-0.3-0.6-0.4-0.9c-0.5-1.4,0-3.1,1.2-4
			c0.7-0.5,0.8-1.4,0.3-2.1c-0.5-0.7-1.4-0.8-2.1-0.3c-2.3,1.7-3.3,4.9-2.2,7.5C21.4,13.1,21.6,13.5,21.8,13.9z"/>
		<path d="M31.2,11.1c0.2,0.3,0.3,0.6,0.4,0.9c0.1,0.4,0.1,0.7,0.1,0.8c-0.5,0.7-0.4,1.6,0.3,2.1c0.3,0.2,0.6,0.3,0.9,0.3
			c0.4,0,0.9-0.2,1.2-0.6c0.8-1,0.9-2.3,0.4-3.7c-0.2-0.5-0.4-0.9-0.6-1.3c-0.2-0.3-0.3-0.6-0.4-0.9c-0.5-1.4,0-3.1,1.2-4
			c0.7-0.5,0.8-1.4,0.3-2.1c-0.5-0.7-1.4-0.8-2.1-0.3c-2.3,1.7-3.3,4.9-2.2,7.5C30.8,10.4,31,10.8,31.2,11.1z"/>
		<path d="M40.1,13.9c0.2,0.3,0.3,0.6,0.4,0.9c0.2,0.4,0.1,0.7,0.1,0.8c-0.5,0.7-0.4,1.6,0.3,2.1c0.3,0.2,0.6,0.3,0.9,0.3
			c0.4,0,0.9-0.2,1.2-0.6c0.8-1,0.9-2.3,0.4-3.7c-0.2-0.5-0.4-0.9-0.6-1.3c-0.2-0.3-0.3-0.6-0.4-0.9c-0.5-1.4,0-3.1,1.2-4
			c0.7-0.5,0.8-1.4,0.3-2.1c-0.5-0.7-1.4-0.8-2.1-0.3c-2.3,1.7-3.3,4.9-2.2,7.5C39.7,13.1,39.9,13.5,40.1,13.9z"/>
	</g>
</g>
<g id="mug">
</g>
<g id="mug-hot">
</g>
<g id="bottle">
</g>
<g id="cherries">
</g>
<g id="cocktail">
</g>
<g id="cocktail-alt">
</g>
<g id="wine-glass">
</g>
<g id="wine-glass-alt">
</g>
<g id="aubergine">
</g>
<g id="lettuce-leaf">
</g>
<g id="cup">
</g>
<g id="noodles">
</g>
<g id="icelolly">
</g>
<g id="cutlery">
</g>
<g id="hotdog">
</g>
</svg>
