<?xml version="1.0" encoding="utf-8"?>
<!-- Generator: Adobe Illustrator 20.1.0, SVG Export Plug-In . SVG Version: 6.00 Build 0)  -->
<!DOCTYPE svg PUBLIC "-//W3C//DTD SVG 1.1//EN" "http://www.w3.org/Graphics/SVG/1.1/DTD/svg11.dtd">
<svg version="1.1" xmlns="http://www.w3.org/2000/svg" xmlns:xlink="http://www.w3.org/1999/xlink" x="0px" y="0px"
	 viewBox="0 0 64 64" style="enable-background:new 0 0 64 64;" xml:space="preserve">
<g id="hand-finger">
	<path d="M58.9,30.8c-1.6-1.5-3.7-2.1-5.7-1.6c0-0.7,0-1.4,0-2.1c0-0.7,0-1.4,0-2.1c0-3.4-3-6.2-6.6-6.2c-1.3,0-2.6,0.4-3.6,1V18
		c0-3.4-2.9-6.2-6.4-6.2c-1.2,0-2.4,0.4-3.4,1V6.2c0-3.5-2.8-6.2-6.3-6.2c-3.6,0-6.5,2.8-6.5,6.2v2.4c0,1.7,0,3.5,0,5.2
		c0,8.7,0.1,17.6-0.6,26.4l-4.6-5.5c-1.9-2.8-5.6-3.6-8.6-1.9C5,33.7,3.9,35,3.5,36.7c-0.4,1.6-0.1,3.2,0.9,4.7l13.3,18
		c2.1,2.9,5.6,4.6,9.2,4.6H45c5.3,0,10-3.7,11.1-8.9c0,0,4.4-19.3,4.4-19.4C60.9,34,60.3,32.2,58.9,30.8z M57.6,35.1
		c0,0.1-4.4,19.4-4.4,19.4C52.4,58.3,48.9,61,45,61H26.8c-2.7,0-5.2-1.3-6.8-3.4L6.9,39.7c-0.5-0.7-0.6-1.5-0.4-2.3
		c0.2-0.8,0.7-1.5,1.5-2c0.6-0.3,1.2-0.5,1.8-0.5c1.1,0,2.2,0.5,2.8,1.5c0,0,0.1,0.1,0.1,0.1l7,8.4c0.4,0.5,1,0.7,1.6,0.5
		c0.6-0.2,1-0.7,1.1-1.3c1-10.1,1-20.4,0.9-30.4c0-1.7,0-3.5,0-5.2V6.2c0-1.7,1.6-3.2,3.5-3.2c1.9,0,3.3,1.4,3.3,3.2v11.7
		c0,0.8,0.7,1.5,1.5,1.5s1.5-0.7,1.5-1.5c0-1.7,1.6-3.1,3.4-3.1c1.9,0,3.4,1.5,3.4,3.2v7c0,0.8,0.7,1.5,1.5,1.5S43,25.9,43,25
		c0-1.7,1.7-3.2,3.6-3.2s3.6,1.5,3.6,3.2c0,0.7,0,1.4,0,2.1c0,1.6,0,3.2,0,4.8c0,0.6,0.4,1.1,0.9,1.3c0.5,0.2,1.2,0.1,1.6-0.3
		c0.4-0.3,0.8-0.7,1.2-0.8c0.9-0.2,2,0.1,2.8,0.9C57.1,33.3,57.8,34.1,57.6,35.1z"/>
</g>
<g id="hand-double-fingers">
</g>
<g id="hand-double-fingers-tap">
</g>
</svg>
