<?xml version="1.0" encoding="utf-8"?>
<!-- Generator: Adobe Illustrator 20.1.0, SVG Export Plug-In . SVG Version: 6.00 Build 0)  -->
<!DOCTYPE svg PUBLIC "-//W3C//DTD SVG 1.1//EN" "http://www.w3.org/Graphics/SVG/1.1/DTD/svg11.dtd">
<svg version="1.1" xmlns="http://www.w3.org/2000/svg" xmlns:xlink="http://www.w3.org/1999/xlink" x="0px" y="0px"
	 viewBox="0 0 64 64" style="enable-background:new 0 0 64 64;" xml:space="preserve">
<g id="user">
</g>
<g id="users">
</g>
<g id="comment">
</g>
<g id="commenting">
</g>
<g id="comments">
</g>
<g id="comments-alt">
</g>
<g id="commenting-alt">
</g>
<g id="comment-alt">
</g>
<g id="face-happy">
</g>
<g id="face-ok">
</g>
<g id="face-unhappy">
</g>
<g id="mail">
</g>
<g id="phone">
</g>
<g id="fingerprint">
</g>
<g id="info">
</g>
<g id="question">
</g>
<g id="warning">
</g>
<g id="alert">
</g>
<g id="headset">
</g>
<g id="skull">
</g>
<g id="baby">
</g>
<g id="eye">
</g>
<g id="id-card">
</g>
<g id="microphone">
</g>
<g id="eye-cross">
</g>
<g id="user-commenting">
</g>
<g id="user-commenting-alt">
</g>
<g id="user-file">
</g>
<g id="user-check">
</g>
<g id="tap">
</g>
<g id="swipe">
	<g>
		<path d="M8.7,1C8.7,1,8.6,0.9,8.7,1C8.6,0.9,8.6,0.8,8.6,0.8c0,0-0.1-0.1-0.1-0.1c0,0-0.1-0.1-0.1-0.1c0,0-0.1-0.1-0.1-0.1
			c0,0-0.1-0.1-0.1-0.1c0,0-0.1-0.1-0.1-0.1c0,0,0,0-0.1,0c0,0,0,0,0,0c-0.1,0-0.1,0-0.2-0.1c0,0-0.1,0-0.1,0c0,0-0.1,0-0.1,0
			c0,0-0.1,0-0.1,0c0,0-0.1,0-0.1,0C7.2,0,7.1,0,7.1,0c0,0-0.1,0-0.1,0c-0.1,0-0.1,0-0.2,0c0,0,0,0,0,0L1,2.3
			C0.2,2.6-0.2,3.5,0.1,4.2S1.3,5.4,2,5.1l2.4-0.9c-4.5,11.2-5.6,28.7,0.1,39.4c0.3,0.5,0.8,0.8,1.3,0.8c0.2,0,0.5-0.1,0.7-0.2
			c0.7-0.4,1-1.3,0.6-2C2,32.5,2.9,15.9,7.1,5.4L8,7.8c0.2,0.6,0.8,1,1.4,1c0.2,0,0.4,0,0.5-0.1c0.8-0.3,1.2-1.2,0.9-1.9L8.7,1z"/>
		<path d="M63.4,42.3c0,0-5.6-16.4-5.7-16.5c-0.5-1.6-1.9-2.7-3.7-3.1c-1.8-0.4-3.7,0.1-5,1.3c-0.3-0.5-0.6-0.9-0.8-1.4
			c-0.3-0.5-0.7-1.1-1-1.6c-1.6-2.6-5.2-3.4-7.9-1.8c-0.8,0.5-1.5,1.2-2,2.1l-0.7-1.1c-1.6-2.6-5.2-3.4-7.9-1.8
			c-0.8,0.5-1.5,1.2-2,2.1l-2.9-4.7c-1.7-2.7-5.1-3.5-7.8-1.8c-1.4,0.8-2.4,2.2-2.7,3.7c-0.3,1.4-0.1,2.9,0.6,4.1l1.7,2.7
			c4.6,7.4,9.3,15,13.3,22.9l-5.7-1.9c-2.8-1.3-6.1-0.1-7.6,2.6c-0.7,1.4-0.9,2.9-0.4,4.4c0.5,1.4,1.5,2.6,2.9,3.3l18.3,7.5
			c1.2,0.5,2.6,0.8,3.9,0.8c1.9,0,3.7-0.5,5.3-1.5l13.6-8.3C63.2,51.7,65,46.7,63.4,42.3z M57.6,51.6L44,59.9
			c-1.9,1.2-4.4,1.4-6.5,0.5L19.3,53c-0.6-0.3-1.1-0.8-1.3-1.4c-0.2-0.7-0.1-1.4,0.2-2c0.5-1,1.6-1.5,2.6-1.5c0.4,0,0.8,0.1,1.2,0.3
			c0.1,0,0.1,0,0.2,0.1l9.2,3.1c0.6,0.2,1.2,0,1.6-0.4c0.4-0.5,0.5-1.1,0.2-1.6c-4.5-9.1-9.9-17.9-15.1-26.4l-1.7-2.7
			c-0.3-0.5-0.4-1.2-0.3-1.9c0.2-0.8,0.7-1.4,1.4-1.9c1.3-0.8,3-0.4,3.7,0.8l5.4,8.8c0.4,0.7,1.4,0.9,2.1,0.5
			c0.7-0.4,0.9-1.4,0.5-2.1c-0.3-0.5-0.4-1.2-0.3-1.8c0.2-0.7,0.7-1.4,1.3-1.8c1.3-0.8,3.1-0.4,3.8,0.8l3.3,5.3
			c0.4,0.7,1.4,0.9,2.1,0.5c0.7-0.4,0.9-1.4,0.5-2.1l0,0c-0.3-0.6-0.4-1.2-0.3-1.9c0.2-0.7,0.7-1.4,1.3-1.8c1.3-0.8,3.1-0.4,3.8,0.8
			c0.3,0.5,0.6,1.1,1,1.6c0.7,1.2,1.5,2.4,2.2,3.6c0.3,0.5,0.9,0.7,1.5,0.7c0.6-0.1,1.1-0.5,1.2-1.1c0.1-0.3,0.2-0.8,0.5-1.1
			c0.5-0.5,1.5-0.8,2.3-0.6c0.3,0.1,1.2,0.3,1.5,1.1c0,0,0,0,5.7,16.6C61.7,46.4,60.4,49.9,57.6,51.6z"/>
	</g>
</g>
<g id="slide">
</g>
<g id="foot">
</g>
<g id="share-social">
</g>
<g id="ghost">
</g>
</svg>
