<?xml version="1.0" encoding="utf-8"?>
<!-- Generator: Adobe Illustrator 20.1.0, SVG Export Plug-In . SVG Version: 6.00 Build 0)  -->
<!DOCTYPE svg PUBLIC "-//W3C//DTD SVG 1.1//EN" "http://www.w3.org/Graphics/SVG/1.1/DTD/svg11.dtd">
<svg version="1.1" xmlns="http://www.w3.org/2000/svg" xmlns:xlink="http://www.w3.org/1999/xlink" x="0px" y="0px"
	 viewBox="0 0 64 64" style="enable-background:new 0 0 64 64;" xml:space="preserve">
<style type="text/css">
	.st0{fill:none;stroke:#000000;stroke-width:3;stroke-linecap:round;stroke-linejoin:round;}
</style>
<g id="cupcake">
</g>
<g id="turkey">
</g>
<g id="hot-service">
</g>
<g id="mug">
</g>
<g id="mug-hot">
</g>
<g id="bottle">
</g>
<g id="cherries">
</g>
<g id="cocktail">
</g>
<g id="cocktail-alt">
</g>
<g id="wine-glass">
</g>
<g id="wine-glass-alt">
</g>
<g id="aubergine">
</g>
<g id="lettuce-leaf">
</g>
<g id="cup">
</g>
<g id="noodles">
</g>
<g id="icelolly">
	<g>
		<path d="M32,0c-7.7,0-13.9,5.8-13.9,13v32.2c0,0.8,0.7,1.5,1.5,1.5h10.9v15.9c0,0.8,0.7,1.5,1.5,1.5s1.5-0.7,1.5-1.5V46.6h10.9
			c0.8,0,1.5-0.7,1.5-1.5V13C45.9,5.8,39.7,0,32,0z M42.9,43.6H21.1V13C21.1,7.5,26,3,32,3s10.9,4.5,10.9,10V43.6z"/>
		<path d="M38.4,33.3c-2.1,0-2.4-0.1-2.4-2.6V20.3c0-1.8-1.9-3.6-3.8-3.6c-1.9,0-3.7,1.7-3.7,3.6c0,0.2-0.5,0.6-0.7,0.6
			s-0.7-0.4-0.7-0.6v-6.4c0-0.8-0.7-1.5-1.5-1.5s-1.5,0.7-1.5,1.5v6.4c0,1.8,1.8,3.6,3.7,3.6s3.7-1.7,3.7-3.6c0-0.2,0.4-0.6,0.7-0.6
			c0.3,0,0.7,0.4,0.8,0.6v10.4c0,3.4,0.9,5.6,5.4,5.6c0.8,0,1.5-0.7,1.5-1.5S39.2,33.3,38.4,33.3z"/>
	</g>
</g>
<g id="cutlery">
</g>
<g id="hotdog">
</g>
</svg>
