<?xml version="1.0" encoding="utf-8"?>
<!-- Generator: Adobe Illustrator 20.1.0, SVG Export Plug-In . SVG Version: 6.00 Build 0)  -->
<!DOCTYPE svg PUBLIC "-//W3C//DTD SVG 1.1//EN" "http://www.w3.org/Graphics/SVG/1.1/DTD/svg11.dtd">
<svg version="1.1" xmlns="http://www.w3.org/2000/svg" xmlns:xlink="http://www.w3.org/1999/xlink" x="0px" y="0px"
	 viewBox="0 0 64 64" style="enable-background:new 0 0 64 64;" xml:space="preserve">
<g id="user">
</g>
<g id="users">
</g>
<g id="comment">
</g>
<g id="commenting">
</g>
<g id="comments">
</g>
<g id="comments-alt">
</g>
<g id="commenting-alt">
</g>
<g id="comment-alt">
</g>
<g id="face-happy">
</g>
<g id="face-ok">
</g>
<g id="face-unhappy">
</g>
<g id="mail">
</g>
<g id="phone">
</g>
<g id="fingerprint">
</g>
<g id="info">
</g>
<g id="question">
</g>
<g id="warning">
</g>
<g id="alert">
</g>
<g id="headset">
</g>
<g id="skull">
</g>
<g id="baby">
</g>
<g id="eye">
</g>
<g id="id-card">
	<g>
		<path d="M57.3,7H6.7C3.1,7,0,10.3,0,14.1v35.8C0,53.7,3.1,57,6.7,57h50.5c3.7,0,6.7-3.3,6.7-7.1V14.1C64,10.3,60.9,7,57.3,7z
			 M61,49.9c0,2.2-1.8,4.1-3.7,4.1H6.7c-2,0-3.7-2-3.7-4.1V14.1C3,12,4.8,10,6.7,10h50.5c2,0,3.7,2,3.7,4.1V49.9z"/>
		<path d="M55,18H40c-0.8,0-1.5,0.7-1.5,1.5S39.2,21,40,21h15c0.8,0,1.5-0.7,1.5-1.5S55.8,18,55,18z"/>
		<path d="M55,27H40c-0.8,0-1.5,0.7-1.5,1.5S39.2,30,40,30h15c0.8,0,1.5-0.7,1.5-1.5S55.8,27,55,27z"/>
		<path d="M29.9,32.4c2.6-1.7,4.3-4.5,4.3-7.8c0-5.1-4.2-9.3-9.3-9.3s-9.3,4.2-9.3,9.3c0,3.3,1.8,6.2,4.4,7.9
			c-5.7,2-10.2,7.3-11.5,14.2c-0.1,0.8,0.4,1.6,1.2,1.7c0.8,0.1,1.6-0.4,1.7-1.2c1.3-7.3,7-12.6,13.6-12.6c6.6,0,12.3,5.4,13.6,12.9
			c0.1,0.7,0.8,1.2,1.5,1.2c0.1,0,0.2,0,0.3,0c0.8-0.1,1.4-0.9,1.2-1.7C40.4,39.9,35.8,34.4,29.9,32.4z M24.9,18.3
			c3.5,0,6.3,2.8,6.3,6.3c0,3.5-2.8,6.3-6.3,6.3s-6.3-2.8-6.3-6.3C18.7,21.1,21.5,18.3,24.9,18.3z"/>
	</g>
</g>
<g id="microphone">
</g>
<g id="eye-cross">
</g>
<g id="user-commenting">
</g>
<g id="user-commenting-alt">
</g>
<g id="user-file">
</g>
<g id="user-check">
</g>
<g id="tap">
</g>
<g id="swipe">
</g>
<g id="slide">
</g>
<g id="foot">
</g>
<g id="share-social">
</g>
<g id="ghost">
</g>
</svg>
