<?xml version="1.0" encoding="utf-8"?>
<!-- Generator: Adobe Illustrator 20.1.0, SVG Export Plug-In . SVG Version: 6.00 Build 0)  -->
<!DOCTYPE svg PUBLIC "-//W3C//DTD SVG 1.1//EN" "http://www.w3.org/Graphics/SVG/1.1/DTD/svg11.dtd">
<svg version="1.1" xmlns="http://www.w3.org/2000/svg" xmlns:xlink="http://www.w3.org/1999/xlink" x="0px" y="0px"
	 viewBox="0 0 64 64" style="enable-background:new 0 0 64 64;" xml:space="preserve">
<g id="file">
</g>
<g id="copy">
</g>
<g id="file-edit">
</g>
<g id="folder">
</g>
<g id="subdirectory">
</g>
<g id="album">
</g>
<g id="push">
</g>
<g id="pull">
</g>
<g id="database">
</g>
<g id="server">
</g>
<g id="upload">
</g>
<g id="download">
</g>
<g id="cloud-download">
</g>
<g id="cloud-upload">
</g>
<g id="cloud">
</g>
<g id="cloud-no-access">
</g>
<g id="cloud-signal-up">
</g>
<g id="cloud-signal-down">
</g>
<g id="checklist">
</g>
<g id="file-folded">
</g>
<g id="file-folded-text">
</g>
<g id="inbox">
</g>
<g id="zip-folder">
</g>
<g id="image-folder">
	<g>
		<path d="M62.5,14.1H31.1l-3.2-6.4c-0.3-0.5-0.8-0.8-1.3-0.8H1.5C0.7,6.9,0,7.6,0,8.4v47.2c0,0.8,0.7,1.5,1.5,1.5h61
			c0.8,0,1.5-0.7,1.5-1.5v-40C64,14.8,63.3,14.1,62.5,14.1z M61,54.1H3V9.9h22.7l3.2,6.4c0.3,0.5,0.8,0.8,1.3,0.8H61V54.1z"/>
		<ellipse cx="47.6" cy="24.6" rx="3.1" ry="3.2"/>
		<path d="M25.7,31.9c-0.6-0.6-1.6-0.6-2.1,0L12.2,43.4c-0.6,0.6-0.6,1.5,0,2.1c0.6,0.6,1.5,0.6,2.1,0l10.3-10.4l13.1,13.3
			c0.3,0.3,0.7,0.4,1.1,0.4c0.4,0,0.8-0.1,1.1-0.4c0.6-0.6,0.6-1.5,0-2.1l-4.6-4.7l2.2-2.2l8.9,9c0.3,0.3,0.7,0.4,1.1,0.4
			c0.4,0,0.8-0.1,1.1-0.4c0.6-0.6,0.6-1.5,0-2.1l-9.9-10.1c-0.3-0.3-0.7-0.4-1.1-0.4s-0.8,0.2-1.1,0.4l-3.2,3.2L25.7,31.9z"/>
	</g>
</g>
<g id="image-album">
</g>
<g id="image">
</g>
<g id="images">
</g>
<g id="invoice">
</g>
<g id="book">
</g>
<g id="layers">
</g>
<g id="media-upload">
</g>
<g id="addresses">
</g>
<g id="floppy">
</g>
<g id="link">
</g>
<g id="link-add">
</g>
<g id="link-remove">
</g>
<g id="table">
</g>
<g id="download-book">
</g>
<g id="clipboard">
</g>
<g id="clipboard-chart">
</g>
<g id="clipboard-text">
</g>
<g id="clipboard-check">
</g>
<g id="clipboard-cross">
</g>
<g id="bookmark">
</g>
<g id="bookmark-add">
</g>
<g id="bookmark-remove">
</g>
<g id="clipboard-horizontal">
</g>
<g id="clipboard-text-horizontal">
</g>
<g id="trash">
</g>
<g id="unlock">
</g>
<g id="lock">
</g>
<g id="link-add-circle">
</g>
<g id="link-remove-circle">
</g>
<g id="sort-up">
</g>
<g id="sort-down">
</g>
<g id="list">
</g>
</svg>
