<?xml version="1.0" encoding="utf-8"?>
<!-- Generator: Adobe Illustrator 20.1.0, SVG Export Plug-In . SVG Version: 6.00 Build 0)  -->
<!DOCTYPE svg PUBLIC "-//W3C//DTD SVG 1.1//EN" "http://www.w3.org/Graphics/SVG/1.1/DTD/svg11.dtd">
<svg version="1.1" xmlns="http://www.w3.org/2000/svg" xmlns:xlink="http://www.w3.org/1999/xlink" x="0px" y="0px"
	 viewBox="0 0 64 64" style="enable-background:new 0 0 64 64;" xml:space="preserve">
<g id="bulb">
</g>
<g id="bulb-on">
</g>
<g id="bulb-alt">
</g>
<g id="bulb-on-alt">
</g>
<g id="energy-bulb">
</g>
<g id="toasting">
</g>
<g id="toasted">
</g>
<g id="binoculars">
</g>
<g id="gift">
</g>
<g id="shaver">
</g>
<g id="candle">
</g>
<g id="shower">
</g>
<g id="bomb">
</g>
<g id="joystick">
</g>
<g id="megaphone">
</g>
<g id="chestdraw">
</g>
<g id="armchair">
</g>
<g id="cardboard-box">
</g>
<g id="bath-shower">
</g>
<g id="diamond">
</g>
<g id="cassette">
</g>
<g id="iron">
</g>
<g id="wash">
</g>
<g id="keyboard-keys">
</g>
<g id="earphones">
</g>
<g id="lifebuoy">
</g>
<g id="calculator">
</g>
<g id="safe">
</g>
<g id="balloon">
</g>
<g id="cake">
</g>
<g id="baseball">
</g>
<g id="football-american">
</g>
<g id="football">
</g>
<g id="anchor">
</g>
<g id="compact-disc">
</g>
<g id="bbq">
</g>
<g id="coffee-machine">
</g>
<g id="teapot">
</g>
<g id="outdoor-stove">
</g>
<g id="pram">
</g>
<g id="paintbrush">
</g>
<g id="stamp">
</g>
<g id="eyedrop">
</g>
<g id="musical-note">
</g>
<g id="magnet">
</g>
<g id="alarm-bell">
</g>
<g id="globe">
</g>
<g id="key">
</g>
<g id="ink">
	<g>
		<path d="M24.5,46.7v-1.8h0.6c0.8,0,1.5-0.7,1.5-1.5v-4.3c0-0.8-0.7-1.5-1.5-1.5H12.3c-0.8,0-1.5,0.7-1.5,1.5v4.3
			c0,0.8,0.7,1.5,1.5,1.5h0.6v1.8c-8,0.7-13,6.6-13,15.8C0,63.3,0.7,64,1.5,64h34c0.8,0,1.5-0.7,1.5-1.5
			C37,53.1,32.3,47.3,24.5,46.7z M3,61c0.5-7.3,4.6-11.4,11.4-11.4c0.8,0,1.5-0.7,1.5-1.5v-4.7c0-0.8-0.7-1.5-1.5-1.5h-0.6v-1.3h9.8
			v1.3H23c-0.8,0-1.5,0.7-1.5,1.5v4.7c0,0.8,0.7,1.5,1.5,1.5c8.7,0,10.7,6.6,11,11.4H3z"/>
		<path d="M62.5,2.6c0-0.4-0.1-0.8-0.4-1.1c-0.6-0.6-1.5-0.6-2.1,0l-5.6,5.6V1.5c0-0.5-0.2-1-0.7-1.2c-0.4-0.3-0.9-0.3-1.4-0.1
			c-3.4,1.4-7.4,4.4-11.6,8.6c-6.1,6.1-10,12.9-10,17.6c0,1.3,0.3,2.5,0.9,3.5l-3.4,3.4c-0.6,0.6-0.6,1.5,0,2.1
			c0.3,0.3,0.7,0.4,1.1,0.4c0.4,0,0.8-0.1,1.1-0.4l3-3c1.4,1,3.3,1.5,5.5,1.5c4.7,0,10.8-2.4,16-7.5c0.4-0.4,0.6-1.1,0.3-1.6
			c-0.2-0.6-0.8-0.9-1.4-0.9H41.8l1.3-1.3h13.5c0.8,0,1.5-0.7,1.5-1.5s-0.7-1.5-1.5-1.5H46.1l1.3-1.3h12.6c0.6,0,1.2-0.4,1.4-0.9
			C64,11,65.2,6,62.5,2.6z M33.7,26.3c0-3.9,3.6-10,9.1-15.5c3-3,6-5.4,8.6-6.9v6.2L33.8,27.5C33.7,27.2,33.7,26.8,33.7,26.3z
			 M49.5,26.8c-5.6,4.1-11.3,4.8-14.2,3.4l3.5-3.4H49.5z M58.9,15.3h-8.6l2.9-2.9c0.5-0.1,0.8-0.5,1-1l6.3-6.3
			C61.4,6.8,61.2,9.5,58.9,15.3z"/>
	</g>
</g>
<g id="paperclip">
</g>
<g id="paint-roller">
</g>
<g id="keyboard">
</g>
</svg>
