<?xml version="1.0" encoding="utf-8"?>
<!-- Generator: Adobe Illustrator 20.1.0, SVG Export Plug-In . SVG Version: 6.00 Build 0)  -->
<!DOCTYPE svg PUBLIC "-//W3C//DTD SVG 1.1//EN" "http://www.w3.org/Graphics/SVG/1.1/DTD/svg11.dtd">
<svg version="1.1" xmlns="http://www.w3.org/2000/svg" xmlns:xlink="http://www.w3.org/1999/xlink" x="0px" y="0px"
	 viewBox="0 0 64 64" style="enable-background:new 0 0 64 64;" xml:space="preserve">
<g id="behance">
</g>
<g id="twitter">
</g>
<g id="vimeo">
</g>
<g id="wordpress">
</g>
<g id="Layer_179">
</g>
<g id="xing">
</g>
<g id="youtube">
</g>
<g id="whatsapp">
</g>
<g id="flickr">
</g>
<g id="dribbble">
</g>
<g id="facebook">
</g>
<g id="foursquare">
</g>
<g id="github">
</g>
<g id="github-alt">
</g>
<g id="google-plus">
</g>
<g id="google">
</g>
<g id="joomla">
</g>
<g id="soundcloud">
</g>
<g id="instagram">
	<g>
		<path d="M43.8,2H20.2C10.2,2,2,10.1,2,20.1v23.7C2,53.9,10.2,62,20.2,62h23.6C53.9,62,62,53.9,62,43.9V20.1C62,10.1,53.9,2,43.8,2
			z M56.9,45.3L56.9,45.3c0,6.3-5.2,11.5-11.5,11.5H19.1c-6.4,0-11.5-5.1-11.5-11.5v-26c0-6.3,5.2-11.5,11.5-11.5h26.3
			c6.4,0,11.5,5.1,11.5,11.5V45.3z"/>
		<circle cx="48.2" cy="16.2" r="3.6"/>
		<path d="M32.1,16.8c-8.5,0-15.4,6.9-15.4,15.3c0,8.5,6.9,15.4,15.4,15.4s15.4-6.9,15.4-15.4C47.5,23.7,40.6,16.8,32.1,16.8z
			 M32.3,42c-5.5,0-10-4.5-10-10s4.5-10,10-10c5.5,0,10,4.5,10,10S37.8,42,32.3,42z"/>
	</g>
</g>
<g id="linkedin">
</g>
<g id="pagekit">
</g>
<g id="pinterest">
</g>
<g id="windows">
</g>
<g id="bronzelabs">
</g>
<g id="apple">
</g>
<g id="android">
</g>
<g id="mwkr-alt">
</g>
<g id="mwkr">
</g>
<g id="deviantart">
</g>
<g id="deviantart-alt">
</g>
</svg>
