<?xml version="1.0" encoding="utf-8"?>
<!-- Generator: Adobe Illustrator 20.1.0, SVG Export Plug-In . SVG Version: 6.00 Build 0)  -->
<!DOCTYPE svg PUBLIC "-//W3C//DTD SVG 1.1//EN" "http://www.w3.org/Graphics/SVG/1.1/DTD/svg11.dtd">
<svg version="1.1" xmlns="http://www.w3.org/2000/svg" xmlns:xlink="http://www.w3.org/1999/xlink" x="0px" y="0px"
	 viewBox="0 0 64 64" style="enable-background:new 0 0 64 64;" xml:space="preserve">
<g id="dial">
</g>
<g id="dial-alt">
</g>
<g id="connections">
</g>
<g id="atom">
</g>
<g id="atom-alt">
</g>
<g id="cosmic">
</g>
<g id="cosmic-alt">
</g>
<g id="workflows">
</g>
<g id="positive">
</g>
<g id="neuron">
</g>
<g id="sitemap">
</g>
<g id="conditional">
</g>
<g id="sitemap-alt">
</g>
<g id="neuron-alt">
</g>
<g id="flask">
</g>
<g id="clone">
</g>
<g id="infinity">
	<path d="M49.7,18c-3.5,0-6.8,1.3-9.5,3.6c0,0,0,0,0,0c0,0,0,0,0,0L21.7,40.2C19.6,42,17,43,14.3,43C8.1,43,3,38,3,31.8
		s5.1-11.3,11.3-11.3c2.9,0,5.7,1.1,7.7,3l0.7,0.8l-2.3,0c-0.8,0-1.5,0.7-1.5,1.5c0,0.8,0.7,1.5,1.5,1.5c0,0,0,0,0,0l5.5,0
		c0.5,0,0.9-0.2,1.2-0.6c0,0,0,0,0,0c0,0,0.1-0.1,0.1-0.1c0.2-0.3,0.3-0.7,0.2-1l0-5.2c0-0.8-0.7-1.5-1.5-1.5c0,0,0,0,0,0
		c-0.8,0-1.5,0.7-1.5,1.5l0,1.2l0,0c0,0-0.1-0.1-0.1-0.1c-2.6-2.5-6.1-3.9-9.8-3.9C6.4,17.5,0,23.9,0,31.8S6.4,46,14.3,46
		c3.5,0,6.8-1.3,9.5-3.6c0,0,0,0,0,0c0,0,0,0,0,0l18.5-18.5C44.4,22,47,21,49.7,21C55.9,21,61,26,61,32.2s-5.1,11.3-11.3,11.3
		c-2.9,0-5.6-1.1-7.8-3.1c0,0-0.1-0.1-0.1-0.1l-4-4c-0.6-0.6-1.5-0.6-2.1,0c-0.6,0.6-0.6,1.5,0,2.1l4.1,4.1c0.1,0.1,0.1,0.1,0.2,0.2
		c2.6,2.4,6.1,3.8,9.7,3.8c7.9,0,14.3-6.4,14.3-14.3S57.6,18,49.7,18z"/>
</g>
<g id="f42">
</g>
</svg>
