<?xml version="1.0" encoding="utf-8"?>
<!-- Generator: Adobe Illustrator 20.1.0, SVG Export Plug-In . SVG Version: 6.00 Build 0)  -->
<!DOCTYPE svg PUBLIC "-//W3C//DTD SVG 1.1//EN" "http://www.w3.org/Graphics/SVG/1.1/DTD/svg11.dtd">
<svg version="1.1" xmlns="http://www.w3.org/2000/svg" xmlns:xlink="http://www.w3.org/1999/xlink" x="0px" y="0px"
	 viewBox="0 0 64 64" style="enable-background:new 0 0 64 64;" xml:space="preserve">
<g id="bulb">
</g>
<g id="bulb-on">
</g>
<g id="bulb-alt">
</g>
<g id="bulb-on-alt">
</g>
<g id="energy-bulb">
</g>
<g id="toasting">
</g>
<g id="toasted">
</g>
<g id="binoculars">
</g>
<g id="gift">
</g>
<g id="shaver">
</g>
<g id="candle">
</g>
<g id="shower">
</g>
<g id="bomb">
</g>
<g id="joystick">
	<g>
		<path d="M22.8,18.3c0.2,0.6,0.8,0.9,1.4,0.9c0.2,0,0.4,0,0.6-0.1c0.8-0.3,1.1-1.2,0.8-2c-0.4-0.8-0.6-1.7-0.8-2.6
			c-0.2-0.9-0.3-1.9-0.3-2.8c0-0.9,0.1-1.9,0.3-2.8c0.2-0.9,0.5-1.8,0.8-2.6c0.3-0.8,0-1.6-0.8-2c-0.8-0.3-1.6,0-2,0.8
			c-0.4,1-0.8,2.1-1,3.2c-0.2,1.1-0.3,2.3-0.3,3.4c0,1.1,0.1,2.3,0.3,3.4C22.1,16.2,22.4,17.3,22.8,18.3z"/>
		<path d="M51.1,17.1c-0.3,0.8,0,1.6,0.8,2c0.2,0.1,0.4,0.1,0.6,0.1c0.6,0,1.1-0.3,1.4-0.9c0.4-1,0.8-2.1,1-3.2
			c0.2-1.1,0.3-2.3,0.3-3.4S55,9.5,54.8,8.3c-0.2-1.1-0.6-2.1-1-3.2c-0.3-0.8-1.2-1.1-2-0.8s-1.1,1.2-0.8,2c0.4,0.8,0.6,1.7,0.8,2.6
			c0.2,0.9,0.3,1.9,0.3,2.8s-0.1,1.9-0.3,2.8C51.7,15.4,51.4,16.3,51.1,17.1z"/>
		<path d="M16.6,16.3c0.2,0.7,0.8,1.2,1.5,1.2c0.1,0,0.2,0,0.3,0c0.8-0.2,1.3-1,1.1-1.8l-0.1-0.3c-0.2-1.2-0.4-2.4-0.4-3.6
			s0.1-2.4,0.4-3.6c0.2-0.8-0.4-1.6-1.2-1.8c-0.8-0.2-1.6,0.4-1.8,1.2c-0.3,1.4-0.4,2.8-0.4,4.2c0,1.4,0.1,2.8,0.4,4.2L16.6,16.3z"
			/>
		<path d="M58.4,17.1c0.1,0,0.2,0,0.3,0c0.7,0,1.3-0.5,1.5-1.2c0.3-1.4,0.4-2.8,0.4-4.2c0-1.4-0.1-2.8-0.4-4.2
			c-0.2-0.8-1-1.3-1.8-1.2c-0.8,0.2-1.3,1-1.2,1.8c0.2,1.2,0.4,2.4,0.4,3.6s-0.1,2.4-0.4,3.6C57.1,16.2,57.6,17,58.4,17.1z"/>
		<path d="M62.4,45.1H43.8V22.1c3.7-2,6.3-5.9,6.3-10.4C50.1,5.3,44.8,0,38.3,0c-6.5,0-11.7,5.3-11.7,11.7c0,4.3,2.3,8,5.7,10v23.3
			H13.7c-0.8,0-1.5,0.7-1.5,1.5v6.7c-0.4,0-0.7,0-1.1,0c-4.2,0.2-5.7-0.2-6-2.5C5,50,5.3,49.1,5.9,48.2c0.3-0.4,0.7-0.9,1.1-1.4
			C8.5,45,10.9,42.3,8,39c-1.6-1.9-4.5-2.6-6.9-1.9c-0.8,0.3-1.2,1.1-1,1.9c0.3,0.8,1.1,1.2,1.9,1c1.3-0.4,2.9,0,3.7,1
			c1,1.2,0.7,1.9-1.1,3.9c-0.4,0.5-0.9,1-1.3,1.6c-1.1,1.5-1.5,3.1-1.3,4.6c0.6,4.6,4.4,5.2,7.5,5.2c0.6,0,1.1,0,1.6,0
			c0.3,0,0.7,0,1,0v6.3c0,0.8,0.7,1.5,1.5,1.5h48.7c0.8,0,1.5-0.7,1.5-1.5V46.6C63.9,45.7,63.2,45.1,62.4,45.1z M29.6,11.7
			c0-4.8,3.9-8.7,8.7-8.7c4.8,0,8.7,3.9,8.7,8.7s-3.9,8.7-8.7,8.7C33.5,20.5,29.6,16.6,29.6,11.7z M35.3,23.1c1,0.3,2,0.4,3,0.4
			c0.8,0,1.7-0.1,2.4-0.3v21.8h-5.5V23.1z M60.9,61H15.2V48.1h45.7V61z"/>
		<ellipse cx="24" cy="54.7" rx="3.1" ry="3.1"/>
	</g>
</g>
<g id="megaphone">
</g>
<g id="chestdraw">
</g>
<g id="armchair">
</g>
<g id="cardboard-box">
</g>
<g id="bath-shower">
</g>
<g id="diamond">
</g>
<g id="cassette">
</g>
<g id="iron">
</g>
<g id="wash">
</g>
<g id="keyboard-keys">
</g>
<g id="earphones">
</g>
<g id="lifebuoy">
</g>
<g id="calculator">
</g>
<g id="safe">
</g>
<g id="balloon">
</g>
<g id="cake">
</g>
<g id="baseball">
</g>
<g id="football-american">
</g>
<g id="football">
</g>
<g id="anchor">
</g>
<g id="compact-disc">
</g>
<g id="bbq">
</g>
<g id="coffee-machine">
</g>
<g id="teapot">
</g>
<g id="outdoor-stove">
</g>
<g id="pram">
</g>
<g id="paintbrush">
</g>
<g id="stamp">
</g>
<g id="eyedrop">
</g>
<g id="musical-note">
</g>
<g id="magnet">
</g>
<g id="alarm-bell">
</g>
<g id="globe">
</g>
<g id="key">
</g>
<g id="ink">
</g>
<g id="paperclip">
</g>
<g id="paint-roller">
</g>
<g id="keyboard">
</g>
</svg>
