<?xml version="1.0" encoding="utf-8"?>
<!-- Generator: Adobe Illustrator 20.1.0, SVG Export Plug-In . SVG Version: 6.00 Build 0)  -->
<!DOCTYPE svg PUBLIC "-//W3C//DTD SVG 1.1//EN" "http://www.w3.org/Graphics/SVG/1.1/DTD/svg11.dtd">
<svg version="1.1" xmlns="http://www.w3.org/2000/svg" xmlns:xlink="http://www.w3.org/1999/xlink" x="0px" y="0px"
	 viewBox="0 0 64 64" style="enable-background:new 0 0 64 64;" xml:space="preserve">
<g id="behance">
</g>
<g id="twitter">
</g>
<g id="vimeo">
</g>
<g id="wordpress">
</g>
<g id="Layer_179">
</g>
<g id="xing">
</g>
<g id="youtube">
</g>
<g id="whatsapp">
</g>
<g id="flickr">
</g>
<g id="dribbble">
</g>
<g id="facebook">
</g>
<g id="foursquare">
</g>
<g id="github">
</g>
<g id="github-alt">
</g>
<g id="google-plus">
</g>
<g id="google">
</g>
<g id="joomla">
	<g>
		<path d="M8.9,18.5c-1.3,4.4-0.3,9.4,3.4,12.8l12.1,12.1l5.7-5.7L18,25.3c-2-1.7-2-5,0-6.7c2-2,4.7-2,6.7,0l5.7-5.7
			c-3.4-3.4-7.7-4.4-12.1-3.4c-0.7-3.7-4-6.4-7.7-6.4c-4.4,0-7.7,3.4-7.7,7.7C2.9,14.5,5.6,17.5,8.9,18.5z"/>
		<path d="M25.8,31l12.5-12.5c1.7-2,5.1-2,6.7,0c2,1.7,2,5.1,0,6.7l5.7,5.7c3.4-3.4,4.7-8.4,3.4-12.8c3.7-0.3,6.7-3.7,6.7-7.7
			c0-4.4-3.4-7.7-7.7-7.7c-4,0-7.1,3-7.7,6.7c-4.4-1.3-9.4,0-12.8,3.4L20,25.3L25.8,31z"/>
		<path d="M54.4,45.5c1-4,0-8.8-3.4-12.1L38.6,20.9l-5.7,5.7l12.5,12.5c2,1.7,1.7,4.7,0,6.7s-4.7,2-6.7,0l-5.7,5.7
			c3.4,3.7,8.4,4.7,12.8,3.4c0.7,3.4,3.7,6.1,7.7,6.1c4.4,0,7.7-3.4,7.7-7.7C61.1,49.2,58.1,46.1,54.4,45.5z"/>
		<path d="M37.2,33.3L24.8,45.8c-2,2-4.7,2-6.7,0c-2-1.7-2-4.7,0-6.7l-5.7-5.7c-3.4,3.4-4.4,8.1-3.4,12.5c-3.4,1-6.1,4-6.1,7.7
			c0,4.4,3.4,7.7,7.7,7.7c3.4,0,6.7-2.7,7.4-6.1c4,1,8.8,0,12.1-3.4l12.5-12.5L37.2,33.3z"/>
	</g>
</g>
<g id="soundcloud">
</g>
<g id="instagram">
</g>
<g id="linkedin">
</g>
<g id="pagekit">
</g>
<g id="pinterest">
</g>
<g id="windows">
</g>
<g id="bronzelabs">
</g>
<g id="apple">
</g>
<g id="android">
</g>
<g id="mwkr-alt">
</g>
<g id="mwkr">
</g>
<g id="deviantart">
</g>
<g id="deviantart-alt">
</g>
</svg>
