<?xml version="1.0" encoding="utf-8"?>
<!-- Generator: Adobe Illustrator 20.1.0, SVG Export Plug-In . SVG Version: 6.00 Build 0)  -->
<!DOCTYPE svg PUBLIC "-//W3C//DTD SVG 1.1//EN" "http://www.w3.org/Graphics/SVG/1.1/DTD/svg11.dtd">
<svg version="1.1" xmlns="http://www.w3.org/2000/svg" xmlns:xlink="http://www.w3.org/1999/xlink" x="0px" y="0px"
	 viewBox="0 0 64 64" style="enable-background:new 0 0 64 64;" xml:space="preserve">
<g id="bulb">
</g>
<g id="bulb-on">
</g>
<g id="bulb-alt">
</g>
<g id="bulb-on-alt">
</g>
<g id="energy-bulb">
</g>
<g id="toasting">
</g>
<g id="toasted">
</g>
<g id="binoculars">
</g>
<g id="gift">
</g>
<g id="shaver">
</g>
<g id="candle">
</g>
<g id="shower">
</g>
<g id="bomb">
</g>
<g id="joystick">
</g>
<g id="megaphone">
</g>
<g id="chestdraw">
</g>
<g id="armchair">
</g>
<g id="cardboard-box">
</g>
<g id="bath-shower">
</g>
<g id="diamond">
</g>
<g id="cassette">
</g>
<g id="iron">
</g>
<g id="wash">
</g>
<g id="keyboard-keys">
</g>
<g id="earphones">
</g>
<g id="lifebuoy">
</g>
<g id="calculator">
</g>
<g id="safe">
</g>
<g id="balloon">
</g>
<g id="cake">
</g>
<g id="baseball">
</g>
<g id="football-american">
</g>
<g id="football">
</g>
<g id="anchor">
</g>
<g id="compact-disc">
</g>
<g id="bbq">
</g>
<g id="coffee-machine">
</g>
<g id="teapot">
</g>
<g id="outdoor-stove">
</g>
<g id="pram">
</g>
<g id="paintbrush">
</g>
<g id="stamp">
</g>
<g id="eyedrop">
</g>
<g id="musical-note">
</g>
<g id="magnet">
</g>
<g id="alarm-bell">
</g>
<g id="globe">
</g>
<g id="key">
	<g>
		<path d="M44.9,0C34.5,0,26,8.5,26,18.9c0,2.9,0.7,5.8,2.2,8.6L26,29.8c0,0-0.1,0-0.1,0.1L0.5,55.2c-0.3,0.3-0.4,0.7-0.4,1.1v6.2
			c0,0.4,0.2,0.8,0.4,1.1C0.8,63.8,1.2,64,1.6,64c0,0,0,0,0,0l6-0.1c0.4,0,0.8-0.2,1.1-0.5l2.8-3.1c0.6-0.6,1.4-1,2-1h5
			c0.8,0,1.5-0.7,1.5-1.5v-4.1c0-1.6,1.4-2.9,3-2.9h4c0.8,0,1.5-0.7,1.5-1.5v-5.1c0-0.6,0.4-1.4,1-2l4.4-4.2l2.4-2.4
			c2.7,1.4,5.6,2.1,8.6,2.1c10.5,0,19-8.5,19-18.9C63.9,8.5,55.4,0,44.9,0z M44.9,34.8c-2.8,0-5.5-0.8-8.1-2.2
			c-0.6-0.3-1.3-0.3-1.8,0.2L31.8,36l-4.4,4.2c-1.2,1.2-1.9,2.7-1.9,4.1v3.6H23c-3.3,0-6,2.6-6,5.9v2.6h-3.5c-1.5,0-2.9,0.7-4.2,1.9
			l-2.4,2.7l-3.8,0v-4.1L28,32.1c0.1,0,0.1-0.1,0.1-0.1l3-3.2c0.5-0.5,0.5-1.2,0.2-1.8c-1.6-2.6-2.4-5.3-2.4-8
			C29,10.1,36.1,3,44.9,3c8.8,0,16,7.1,16,15.9C60.9,27.7,53.7,34.8,44.9,34.8z"/>
		<path d="M57,15.5c-2.4-3.3-5.3-6.2-8.7-8.7c-0.4-0.3-0.9-0.4-1.4-0.2c-2.8,1-4.7,3-5.7,5.8c-0.2,0.5-0.1,1,0.2,1.4
			c2.4,3.3,5.3,6.2,8.7,8.6c0.3,0.2,0.6,0.3,0.9,0.3c0.2,0,0.3,0,0.5-0.1c2.8-1,4.7-2.9,5.7-5.7C57.4,16.4,57.3,15.9,57,15.5z
			 M51.2,19.4c-2.6-1.9-4.9-4.2-6.8-6.8c0.6-1.3,1.5-2.3,2.9-2.9c2.6,2,4.9,4.2,6.8,6.8C53.5,17.9,52.5,18.8,51.2,19.4z"/>
	</g>
</g>
<g id="ink">
</g>
<g id="paperclip">
</g>
<g id="paint-roller">
</g>
<g id="keyboard">
</g>
</svg>
