<?xml version="1.0" encoding="utf-8"?>
<!-- Generator: Adobe Illustrator 20.1.0, SVG Export Plug-In . SVG Version: 6.00 Build 0)  -->
<!DOCTYPE svg PUBLIC "-//W3C//DTD SVG 1.1//EN" "http://www.w3.org/Graphics/SVG/1.1/DTD/svg11.dtd">
<svg version="1.1" xmlns="http://www.w3.org/2000/svg" xmlns:xlink="http://www.w3.org/1999/xlink" x="0px" y="0px"
	 viewBox="0 0 64 64" style="enable-background:new 0 0 64 64;" xml:space="preserve">
<g id="bulb">
</g>
<g id="bulb-on">
</g>
<g id="bulb-alt">
</g>
<g id="bulb-on-alt">
</g>
<g id="energy-bulb">
</g>
<g id="toasting">
</g>
<g id="toasted">
</g>
<g id="binoculars">
</g>
<g id="gift">
</g>
<g id="shaver">
</g>
<g id="candle">
</g>
<g id="shower">
</g>
<g id="bomb">
</g>
<g id="joystick">
</g>
<g id="megaphone">
</g>
<g id="chestdraw">
</g>
<g id="armchair">
</g>
<g id="cardboard-box">
</g>
<g id="bath-shower">
</g>
<g id="diamond">
</g>
<g id="cassette">
</g>
<g id="iron">
</g>
<g id="wash">
</g>
<g id="keyboard-keys">
	<path d="M60.5,12h-57C1.6,12,0,13.6,0,15.5v33C0,50.4,1.6,52,3.5,52h57c1.9,0,3.5-1.6,3.5-3.5v-33C64,13.6,62.4,12,60.5,12z M14,15
		h4.4v12.2c0,0.8-0.4,1.7-0.8,1.7h-2.7c-0.4,0-0.8-0.8-0.8-1.7V15z M17.7,31.9c2.3-0.1,3.7-2.4,3.7-4.6V15h5.5v12.2
		c0,2.2,1.4,4.5,3.7,4.6V49H17.7V31.9z M33.4,28.9h-2.7c-0.4,0-0.8-0.8-0.8-1.7V15h4.4v12.2C34.2,28.1,33.8,28.9,33.4,28.9z
		 M33.5,31.9c2.3-0.1,3.7-2.4,3.7-4.6V15H43v12.2c0,2.2,1.4,4.5,3.7,4.6V49H33.5V31.9z M49.5,28.9h-2.7c-0.4,0-0.8-0.8-0.8-1.7V15
		h4.4v12.2C50.4,28.1,49.9,28.9,49.5,28.9z M3,48.5v-33C3,15.2,3.2,15,3.5,15H11v12.2c0,2.2,1.4,4.5,3.7,4.6V49H3.5
		C3.2,49,3,48.8,3,48.5z M61,48.5c0,0.3-0.2,0.5-0.5,0.5H49.7V31.9c2.3-0.1,3.7-2.4,3.7-4.6V15h7.1c0.3,0,0.5,0.2,0.5,0.5V48.5z"/>
</g>
<g id="earphones">
</g>
<g id="lifebuoy">
</g>
<g id="calculator">
</g>
<g id="safe">
</g>
<g id="balloon">
</g>
<g id="cake">
</g>
<g id="baseball">
</g>
<g id="football-american">
</g>
<g id="football">
</g>
<g id="anchor">
</g>
<g id="compact-disc">
</g>
<g id="bbq">
</g>
<g id="coffee-machine">
</g>
<g id="teapot">
</g>
<g id="outdoor-stove">
</g>
<g id="pram">
</g>
<g id="paintbrush">
</g>
<g id="stamp">
</g>
<g id="eyedrop">
</g>
<g id="musical-note">
</g>
<g id="magnet">
</g>
<g id="alarm-bell">
</g>
<g id="globe">
</g>
<g id="key">
</g>
<g id="ink">
</g>
<g id="paperclip">
</g>
<g id="paint-roller">
</g>
<g id="keyboard">
</g>
</svg>
