<?xml version="1.0" encoding="utf-8"?>
<!-- Generator: Adobe Illustrator 20.1.0, SVG Export Plug-In . SVG Version: 6.00 Build 0)  -->
<!DOCTYPE svg PUBLIC "-//W3C//DTD SVG 1.1//EN" "http://www.w3.org/Graphics/SVG/1.1/DTD/svg11.dtd">
<svg version="1.1" xmlns="http://www.w3.org/2000/svg" xmlns:xlink="http://www.w3.org/1999/xlink" x="0px" y="0px"
	 viewBox="0 0 64 64" style="enable-background:new 0 0 64 64;" xml:space="preserve">
<g id="bulb">
</g>
<g id="bulb-on">
</g>
<g id="bulb-alt">
</g>
<g id="bulb-on-alt">
</g>
<g id="energy-bulb">
</g>
<g id="toasting">
</g>
<g id="toasted">
</g>
<g id="binoculars">
</g>
<g id="gift">
</g>
<g id="shaver">
</g>
<g id="candle">
</g>
<g id="shower">
</g>
<g id="bomb">
</g>
<g id="joystick">
</g>
<g id="megaphone">
</g>
<g id="chestdraw">
</g>
<g id="armchair">
</g>
<g id="cardboard-box">
</g>
<g id="bath-shower">
</g>
<g id="diamond">
</g>
<g id="cassette">
</g>
<g id="iron">
</g>
<g id="wash">
</g>
<g id="keyboard-keys">
</g>
<g id="earphones">
</g>
<g id="lifebuoy">
</g>
<g id="calculator">
</g>
<g id="safe">
</g>
<g id="balloon">
</g>
<g id="cake">
</g>
<g id="baseball">
</g>
<g id="football-american">
</g>
<g id="football">
</g>
<g id="anchor">
</g>
<g id="compact-disc">
</g>
<g id="bbq">
</g>
<g id="coffee-machine">
</g>
<g id="teapot">
</g>
<g id="outdoor-stove">
</g>
<g id="pram">
</g>
<g id="paintbrush">
</g>
<g id="stamp">
</g>
<g id="eyedrop">
</g>
<g id="musical-note">
</g>
<g id="magnet">
</g>
<g id="alarm-bell">
</g>
<g id="globe">
</g>
<g id="key">
</g>
<g id="ink">
</g>
<g id="paperclip">
</g>
<g id="paint-roller">
</g>
<g id="keyboard">
	<g>
		<path d="M62.5,23.8H9v-4.5h12.5c0.8,0,1.5-0.7,1.5-1.5v-7c0-0.8-0.7-1.5-1.5-1.5H13V8.8c0-0.8-0.7-1.5-1.5-1.5S10,7.9,10,8.8v2
			c0,0.8,0.7,1.5,1.5,1.5H20v4H7.5c-0.8,0-1.5,0.7-1.5,1.5v6H1.5c-0.8,0-1.5,0.7-1.5,1.5v30c0,0.8,0.7,1.5,1.5,1.5h61
			c0.8,0,1.5-0.7,1.5-1.5v-30C64,24.4,63.3,23.8,62.5,23.8z M61,53.8H3v-27h58V53.8z"/>
		<path d="M11,33.8h3c0.8,0,1.5-0.7,1.5-1.5s-0.7-1.5-1.5-1.5h-3c-0.8,0-1.5,0.7-1.5,1.5S10.2,33.8,11,33.8z"/>
		<path d="M6.5,48.2c0,0.8,0.7,1.5,1.5,1.5h3c0.8,0,1.5-0.7,1.5-1.5s-0.7-1.5-1.5-1.5H8C7.2,46.8,6.5,47.4,6.5,48.2z"/>
		<path d="M50,46.8h-3c-0.8,0-1.5,0.7-1.5,1.5s0.7,1.5,1.5,1.5h3c0.8,0,1.5-0.7,1.5-1.5S50.8,46.8,50,46.8z"/>
		<path d="M53.5,48.2c0,0.8,0.7,1.5,1.5,1.5h3c0.8,0,1.5-0.7,1.5-1.5s-0.7-1.5-1.5-1.5h-3C54.2,46.8,53.5,47.4,53.5,48.2z"/>
		<path d="M23,33.8h3c0.8,0,1.5-0.7,1.5-1.5s-0.7-1.5-1.5-1.5h-3c-0.8,0-1.5,0.7-1.5,1.5S22.2,33.8,23,33.8z"/>
		<path d="M35,33.8h3c0.8,0,1.5-0.7,1.5-1.5s-0.7-1.5-1.5-1.5h-3c-0.8,0-1.5,0.7-1.5,1.5S34.2,33.8,35,33.8z"/>
		<path d="M46,33.8h3c0.8,0,1.5-0.7,1.5-1.5s-0.7-1.5-1.5-1.5h-3c-0.8,0-1.5,0.7-1.5,1.5S45.2,33.8,46,33.8z"/>
		<path d="M13.5,40.2c0,0.8,0.7,1.5,1.5,1.5h2c0.8,0,1.5-0.7,1.5-1.5s-0.7-1.5-1.5-1.5h-2C14.2,38.8,13.5,39.4,13.5,40.2z"/>
		<path d="M25.5,40.2c0,0.8,0.7,1.5,1.5,1.5h3c0.8,0,1.5-0.7,1.5-1.5s-0.7-1.5-1.5-1.5h-3C26.2,38.8,25.5,39.4,25.5,40.2z"/>
		<path d="M37.5,40.2c0,0.8,0.7,1.5,1.5,1.5h3c0.8,0,1.5-0.7,1.5-1.5s-0.7-1.5-1.5-1.5h-3C38.2,38.8,37.5,39.4,37.5,40.2z"/>
		<path d="M48.5,40.2c0,0.8,0.7,1.5,1.5,1.5h3c0.8,0,1.5-0.7,1.5-1.5s-0.7-1.5-1.5-1.5h-3C49.2,38.8,48.5,39.4,48.5,40.2z"/>
		<path d="M41,46.8H17c-0.8,0-1.5,0.7-1.5,1.5s0.7,1.5,1.5,1.5h24c0.8,0,1.5-0.7,1.5-1.5S41.8,46.8,41,46.8z"/>
	</g>
</g>
</svg>
