<?xml version="1.0" encoding="utf-8"?>
<!-- Generator: Adobe Illustrator 20.1.0, SVG Export Plug-In . SVG Version: 6.00 Build 0)  -->
<!DOCTYPE svg PUBLIC "-//W3C//DTD SVG 1.1//EN" "http://www.w3.org/Graphics/SVG/1.1/DTD/svg11.dtd">
<svg version="1.1" xmlns="http://www.w3.org/2000/svg" xmlns:xlink="http://www.w3.org/1999/xlink" x="0px" y="0px"
	 viewBox="0 0 64 64" style="enable-background:new 0 0 64 64;" xml:space="preserve">
<g id="bulb">
</g>
<g id="bulb-on">
</g>
<g id="bulb-alt">
</g>
<g id="bulb-on-alt">
</g>
<g id="energy-bulb">
</g>
<g id="toasting">
</g>
<g id="toasted">
</g>
<g id="binoculars">
</g>
<g id="gift">
</g>
<g id="shaver">
</g>
<g id="candle">
</g>
<g id="shower">
</g>
<g id="bomb">
</g>
<g id="joystick">
</g>
<g id="megaphone">
</g>
<g id="chestdraw">
</g>
<g id="armchair">
</g>
<g id="cardboard-box">
</g>
<g id="bath-shower">
</g>
<g id="diamond">
</g>
<g id="cassette">
</g>
<g id="iron">
</g>
<g id="wash">
</g>
<g id="keyboard-keys">
</g>
<g id="earphones">
</g>
<g id="lifebuoy">
	<path d="M32,0C14.4,0,0.1,14.4,0.1,32S14.4,64,32,64s31.9-14.4,31.9-32S49.6,0,32,0z M48.8,39.7c1.1-2.4,1.7-5,1.7-7.7
		s-0.6-5.4-1.7-7.7l7.7-7.7c2.8,4.5,4.5,9.8,4.5,15.4s-1.6,11-4.5,15.4L48.8,39.7z M16.5,32c0-8.6,6.9-15.5,15.5-15.5
		s15.5,7,15.5,15.5S40.5,47.5,32,47.5S16.5,40.6,16.5,32z M47.4,7.5l-7.7,7.7c-2.4-1.1-5-1.7-7.7-1.7s-5.4,0.6-7.7,1.7l-7.7-7.7
		C21.1,4.6,26.3,3,32,3C37.7,3,42.9,4.6,47.4,7.5z M7.5,16.6l7.7,7.7c-1.1,2.4-1.7,5-1.7,7.7s0.6,5.4,1.7,7.7l-7.7,7.7
		C4.7,43,3.1,37.7,3.1,32S4.7,21,7.5,16.6z M16.6,56.5l7.7-7.7c2.4,1.1,5,1.7,7.7,1.7s5.4-0.6,7.7-1.7l7.7,7.7
		C42.9,59.4,37.7,61,32,61C26.3,61,21.1,59.4,16.6,56.5z"/>
</g>
<g id="calculator">
</g>
<g id="safe">
</g>
<g id="balloon">
</g>
<g id="cake">
</g>
<g id="baseball">
</g>
<g id="football-american">
</g>
<g id="football">
</g>
<g id="anchor">
</g>
<g id="compact-disc">
</g>
<g id="bbq">
</g>
<g id="coffee-machine">
</g>
<g id="teapot">
</g>
<g id="outdoor-stove">
</g>
<g id="pram">
</g>
<g id="paintbrush">
</g>
<g id="stamp">
</g>
<g id="eyedrop">
</g>
<g id="musical-note">
</g>
<g id="magnet">
</g>
<g id="alarm-bell">
</g>
<g id="globe">
</g>
<g id="key">
</g>
<g id="ink">
</g>
<g id="paperclip">
</g>
<g id="paint-roller">
</g>
<g id="keyboard">
</g>
</svg>
