<?xml version="1.0" encoding="utf-8"?>
<!-- Generator: Adobe Illustrator 20.1.0, SVG Export Plug-In . SVG Version: 6.00 Build 0)  -->
<!DOCTYPE svg PUBLIC "-//W3C//DTD SVG 1.1//EN" "http://www.w3.org/Graphics/SVG/1.1/DTD/svg11.dtd">
<svg version="1.1" xmlns="http://www.w3.org/2000/svg" xmlns:xlink="http://www.w3.org/1999/xlink" x="0px" y="0px"
	 viewBox="0 0 64 64" style="enable-background:new 0 0 64 64;" xml:space="preserve">
<g id="file">
</g>
<g id="copy">
</g>
<g id="file-edit">
</g>
<g id="folder">
</g>
<g id="subdirectory">
</g>
<g id="album">
</g>
<g id="push">
</g>
<g id="pull">
</g>
<g id="database">
</g>
<g id="server">
</g>
<g id="upload">
</g>
<g id="download">
</g>
<g id="cloud-download">
</g>
<g id="cloud-upload">
</g>
<g id="cloud">
</g>
<g id="cloud-no-access">
</g>
<g id="cloud-signal-up">
</g>
<g id="cloud-signal-down">
</g>
<g id="checklist">
</g>
<g id="file-folded">
</g>
<g id="file-folded-text">
</g>
<g id="inbox">
</g>
<g id="zip-folder">
</g>
<g id="image-folder">
</g>
<g id="image-album">
</g>
<g id="image">
</g>
<g id="images">
</g>
<g id="invoice">
</g>
<g id="book">
</g>
<g id="layers">
</g>
<g id="media-upload">
</g>
<g id="addresses">
</g>
<g id="floppy">
</g>
<g id="link">
</g>
<g id="link-add">
</g>
<g id="link-remove">
	<g>
		<path d="M32.3,40.7l-9.9,9.8c-4.6,4.5-9.9,4.1-12.7,1.2l-2.5-2.5c-1.5-1.4-2.3-3.5-2.3-5.7s0.8-4.2,2.3-5.7l13.6-13.5
			c2.3-2.3,4.7-3.4,7-3.2c2.4,0.2,4.8,1.7,6.8,4.3c0.5,0.7,1.4,0.8,2.1,0.3c0.7-0.5,0.8-1.4,0.3-2.1c-2.5-3.3-5.7-5.2-9-5.4
			c-3.2-0.2-6.5,1.2-9.4,4.1L5.1,35.8c-2,2-3.2,4.9-3.2,7.8c0,3,1.2,5.8,3.2,7.8l2.5,2.5c2,2,4.6,3,7.4,3c3.3,0,6.7-1.4,9.6-4.2
			l9.9-9.8c0.6-0.6,0.6-1.5,0-2.1C33.8,40.1,32.9,40.1,32.3,40.7z"/>
		<path d="M59.8,13.5c0-2.6-1.1-5.2-3.2-7.2l-2.5-2.5c-4.1-4.1-11.4-5.5-15.7-1.2l-11.1,11c-0.6,0.6-0.6,1.5,0,2.1
			c0.6,0.6,1.5,0.6,2.1,0l11.1-11C43.6,1.7,49,2.9,52,6l2.5,2.5c1.5,1.5,2.3,3.2,2.3,5.1c0,1.8-0.8,3.6-2.3,5.1L39.7,33.3
			c-1.3,1.3-3.2,1.9-5.2,1.8c-2-0.2-3.9-1.3-4.9-2.8c-0.5-0.7-1.4-0.9-2.1-0.4c-0.7,0.5-0.9,1.4-0.4,2.1c1.5,2.3,4.2,3.8,7.1,4.1
			c0.3,0,0.7,0.1,1,0.1c2.5,0,4.8-0.9,6.5-2.7l14.8-14.7C58.7,18.7,59.8,16.1,59.8,13.5z"/>
		<path d="M60.6,52.6H43.7c-0.8,0-1.5,0.7-1.5,1.5s0.7,1.5,1.5,1.5h16.9c0.8,0,1.5-0.7,1.5-1.5S61.4,52.6,60.6,52.6z"/>
	</g>
</g>
<g id="table">
</g>
<g id="download-book">
</g>
<g id="clipboard">
</g>
<g id="clipboard-chart">
</g>
<g id="clipboard-text">
</g>
<g id="clipboard-check">
</g>
<g id="clipboard-cross">
</g>
<g id="bookmark">
</g>
<g id="bookmark-add">
</g>
<g id="bookmark-remove">
</g>
<g id="clipboard-horizontal">
</g>
<g id="clipboard-text-horizontal">
</g>
<g id="trash">
</g>
<g id="unlock">
</g>
<g id="lock">
</g>
<g id="link-add-circle">
</g>
<g id="link-remove-circle">
</g>
<g id="sort-up">
</g>
<g id="sort-down">
</g>
<g id="list">
</g>
</svg>
