<?xml version="1.0" encoding="utf-8"?>
<!-- Generator: Adobe Illustrator 20.1.0, SVG Export Plug-In . SVG Version: 6.00 Build 0)  -->
<!DOCTYPE svg PUBLIC "-//W3C//DTD SVG 1.1//EN" "http://www.w3.org/Graphics/SVG/1.1/DTD/svg11.dtd">
<svg version="1.1" xmlns="http://www.w3.org/2000/svg" xmlns:xlink="http://www.w3.org/1999/xlink" x="0px" y="0px"
	 viewBox="0 0 64 64" style="enable-background:new 0 0 64 64;" xml:space="preserve">
<g id="behance">
</g>
<g id="twitter">
</g>
<g id="vimeo">
</g>
<g id="wordpress">
</g>
<g id="Layer_179">
</g>
<g id="xing">
</g>
<g id="youtube">
</g>
<g id="whatsapp">
</g>
<g id="flickr">
</g>
<g id="dribbble">
</g>
<g id="facebook">
</g>
<g id="foursquare">
</g>
<g id="github">
</g>
<g id="github-alt">
</g>
<g id="google-plus">
</g>
<g id="google">
</g>
<g id="joomla">
</g>
<g id="soundcloud">
</g>
<g id="instagram">
</g>
<g id="linkedin">
	<g>
		<rect x="2.8" y="22" width="12.9" height="38.7"/>
		<path d="M9.3,3.3C4.9,3.3,2,6.2,2,10c0,3.7,2.8,6.7,7.1,6.7h0.1v0c4.5,0,7.3-3,7.3-6.7C16.4,6.2,13.7,3.3,9.3,3.3z"/>
		<path d="M47.2,21.1c-6.8,0-9.9,3.8-11.6,6.4V22H22.8c0.1,3.6,0,38.7,0,38.7h12.9V39.1c0-1.2,0.1-2.3,0.4-3.1
			c0.9-2.3,3-4.7,6.6-4.7c4.7,0,6.5,3.5,6.5,8.7v20.7H62V38.5C62,26.6,55.6,21.1,47.2,21.1z"/>
	</g>
</g>
<g id="pagekit">
</g>
<g id="pinterest">
</g>
<g id="windows">
</g>
<g id="bronzelabs">
</g>
<g id="apple">
</g>
<g id="android">
</g>
<g id="mwkr-alt">
</g>
<g id="mwkr">
</g>
<g id="deviantart">
</g>
<g id="deviantart-alt">
</g>
</svg>
