<?xml version="1.0" encoding="utf-8"?>
<!-- Generator: Adobe Illustrator 20.1.0, SVG Export Plug-In . SVG Version: 6.00 Build 0)  -->
<!DOCTYPE svg PUBLIC "-//W3C//DTD SVG 1.1//EN" "http://www.w3.org/Graphics/SVG/1.1/DTD/svg11.dtd">
<svg version="1.1" xmlns="http://www.w3.org/2000/svg" xmlns:xlink="http://www.w3.org/1999/xlink" x="0px" y="0px"
	 viewBox="0 0 64 64" style="enable-background:new 0 0 64 64;" xml:space="preserve">
<g id="desktop">
</g>
<g id="tablet">
</g>
<g id="tablet-landscape">
</g>
<g id="desktop-alt">
</g>
<g id="smartphone">
</g>
<g id="smartphone-landscape">
</g>
<g id="laptop">
</g>
<g id="laptops">
	<g>
		<path d="M24.2,25.4v22.2c0,0.8,0.7,1.5,1.5,1.5H58c0.8,0,1.5-0.7,1.5-1.5V25.4c0-0.8-0.7-1.5-1.5-1.5H25.7
			C24.9,23.9,24.2,24.6,24.2,25.4z M27.2,26.9h29.3v19.2H27.2V26.9z"/>
		<path d="M62.5,50.2H21.2c-0.8,0-1.5,0.7-1.5,1.5s0.7,1.5,1.5,1.5h41.3c0.8,0,1.5-0.7,1.5-1.5S63.3,50.2,62.5,50.2z"/>
		<path d="M18.1,33H8V13.8h29.3v5.1c0,0.8,0.7,1.5,1.5,1.5s1.5-0.7,1.5-1.5v-6.6c0-0.8-0.7-1.5-1.5-1.5H6.5c-0.8,0-1.5,0.7-1.5,1.5
			v22.2C5,35.4,5.7,36,6.5,36h11.6c0.8,0,1.5-0.7,1.5-1.5S19,33,18.1,33z"/>
		<path d="M17.9,37L17.9,37L1.5,37C0.7,37,0,37.7,0,38.5C0,39.4,0.7,40,1.5,40h0l16.4,0c0.8,0,1.5-0.7,1.5-1.5
			C19.4,37.7,18.7,37,17.9,37z"/>
	</g>
</g>
<g id="desktops">
</g>
<g id="printer">
</g>
<g id="smartphones">
</g>
<g id="smartphone-mail">
</g>
<g id="smartphone-search">
</g>
<g id="desktop-chart">
</g>
<g id="pc">
</g>
<g id="remote-control-alt">
</g>
<g id="remote-control">
</g>
<g id="smartphone-signal">
</g>
<g id="battery-charge">
</g>
<g id="battery-charge-half">
</g>
<g id="battery-charge-full">
</g>
<g id="battery-charging">
</g>
<g id="filter">
</g>
<g id="network-web">
</g>
<g id="chip">
</g>
<g id="preferences-box">
</g>
<g id="preferences-vertical-box">
</g>
<g id="preferences-vertical-box-alt">
</g>
<g id="preferences-box-alt">
</g>
<g id="preferences">
</g>
<g id="preferences-vertical">
</g>
<g id="preferences-vertical-alt">
</g>
<g id="preferences-alt">
</g>
<g id="bluetooth">
</g>
<g id="signal-strength">
</g>
<g id="signal-no">
</g>
<g id="signal-tower-no">
</g>
<g id="signal-tower">
</g>
<g id="signal-no-alt">
</g>
<g id="nut">
</g>
<g id="cogs">
</g>
<g id="cog">
</g>
<g id="cog-dash-left">
</g>
<g id="cog-dash-right">
</g>
<g id="cog-fall">
</g>
<g id="io">
</g>
<g id="browser">
</g>
<g id="browser-add">
</g>
<g id="rss">
</g>
<g id="no-access">
</g>
<g id="notification">
</g>
<g id="devices">
</g>
<g id="notification-alert">
</g>
</svg>
