<?xml version="1.0" encoding="utf-8"?>
<!-- Generator: Adobe Illustrator 20.1.0, SVG Export Plug-In . SVG Version: 6.00 Build 0)  -->
<!DOCTYPE svg PUBLIC "-//W3C//DTD SVG 1.1//EN" "http://www.w3.org/Graphics/SVG/1.1/DTD/svg11.dtd">
<svg version="1.1" xmlns="http://www.w3.org/2000/svg" xmlns:xlink="http://www.w3.org/1999/xlink" x="0px" y="0px"
	 viewBox="0 0 64 64" style="enable-background:new 0 0 64 64;" xml:space="preserve">
<g id="file">
</g>
<g id="copy">
</g>
<g id="file-edit">
</g>
<g id="folder">
</g>
<g id="subdirectory">
</g>
<g id="album">
</g>
<g id="push">
</g>
<g id="pull">
</g>
<g id="database">
</g>
<g id="server">
</g>
<g id="upload">
</g>
<g id="download">
</g>
<g id="cloud-download">
</g>
<g id="cloud-upload">
</g>
<g id="cloud">
</g>
<g id="cloud-no-access">
</g>
<g id="cloud-signal-up">
</g>
<g id="cloud-signal-down">
</g>
<g id="checklist">
</g>
<g id="file-folded">
</g>
<g id="file-folded-text">
</g>
<g id="inbox">
</g>
<g id="zip-folder">
</g>
<g id="image-folder">
</g>
<g id="image-album">
</g>
<g id="image">
</g>
<g id="images">
</g>
<g id="invoice">
</g>
<g id="book">
</g>
<g id="layers">
</g>
<g id="media-upload">
</g>
<g id="addresses">
</g>
<g id="floppy">
</g>
<g id="link">
</g>
<g id="link-add">
</g>
<g id="link-remove">
</g>
<g id="table">
</g>
<g id="download-book">
</g>
<g id="clipboard">
</g>
<g id="clipboard-chart">
</g>
<g id="clipboard-text">
</g>
<g id="clipboard-check">
</g>
<g id="clipboard-cross">
</g>
<g id="bookmark">
</g>
<g id="bookmark-add">
</g>
<g id="bookmark-remove">
</g>
<g id="clipboard-horizontal">
</g>
<g id="clipboard-text-horizontal">
</g>
<g id="trash">
</g>
<g id="unlock">
</g>
<g id="lock">
</g>
<g id="link-add-circle">
</g>
<g id="link-remove-circle">
	<g>
		<path d="M29,36.6l-8.8,8.8c-4,4-8.6,3.6-11.1,1.1l-2.2-2.2c-1.3-1.3-2-3.1-2-5s0.7-3.7,2-5L19,22.2c2-2,4.1-3,6.1-2.8
			c2.1,0.2,4.2,1.5,5.9,3.8c0.5,0.7,1.4,0.8,2.1,0.3c0.7-0.5,0.8-1.4,0.3-2.1c-2.2-3-5.1-4.7-8.1-4.9c-2-0.1-5.2,0.4-8.5,3.7
			L4.8,32.1C3,34,1.9,36.6,1.9,39.3s1.1,5.3,2.9,7.1L7,48.6c1.8,1.8,4.2,2.8,6.7,2.8c3,0,6.1-1.3,8.7-3.9l8.8-8.8
			c0.6-0.6,0.6-1.5,0-2.1C30.6,36,29.6,36,29,36.6z"/>
		<path d="M51,18.8c1.9-1.9,2.9-4.2,2.9-6.6s-1-4.7-2.9-6.6l-2.2-2.2c-3.7-3.7-10.3-5-14.3-1.1l-9.9,9.9c-0.6,0.6-0.6,1.5,0,2.1
			c0.6,0.6,1.5,0.6,2.1,0l9.9-9.9c2.7-2.7,7.3-1.6,10,1.1l2.2,2.2c1.3,1.3,2,2.8,2,4.4s-0.7,3.1-2,4.4L35.7,29.9
			c-1.2,1.2-2.7,1.7-4.5,1.5c-1.8-0.2-3.4-1.1-4.3-2.4c-0.5-0.7-1.4-0.9-2.1-0.4c-0.7,0.5-0.9,1.4-0.4,2.1c1.4,2.1,3.8,3.5,6.5,3.7
			c0.3,0,0.6,0,0.9,0c2.3,0,4.4-0.9,6-2.4L51,18.8z"/>
		<path d="M54.5,47.4H39.4c-0.8,0-1.5,0.7-1.5,1.5s0.7,1.5,1.5,1.5h15.1c0.8,0,1.5-0.7,1.5-1.5S55.4,47.4,54.5,47.4z"/>
		<path d="M47,33.8c-8.3,0-15.1,6.8-15.1,15.1C31.9,57.2,38.6,64,47,64s15.1-6.8,15.1-15.1C62.1,40.6,55.3,33.8,47,33.8z M47,61
			c-6.7,0-12.1-5.4-12.1-12.1c0-6.7,5.4-12.1,12.1-12.1s12.1,5.4,12.1,12.1C59.1,55.6,53.7,61,47,61z"/>
	</g>
</g>
<g id="sort-up">
</g>
<g id="sort-down">
</g>
<g id="list">
</g>
</svg>
