<?xml version="1.0" encoding="utf-8"?>
<!-- Generator: Adobe Illustrator 20.1.0, SVG Export Plug-In . SVG Version: 6.00 Build 0)  -->
<!DOCTYPE svg PUBLIC "-//W3C//DTD SVG 1.1//EN" "http://www.w3.org/Graphics/SVG/1.1/DTD/svg11.dtd">
<svg version="1.1" xmlns="http://www.w3.org/2000/svg" xmlns:xlink="http://www.w3.org/1999/xlink" x="0px" y="0px"
	 viewBox="0 0 64 64" style="enable-background:new 0 0 64 64;" xml:space="preserve">
<g id="file">
</g>
<g id="copy">
</g>
<g id="file-edit">
</g>
<g id="folder">
</g>
<g id="subdirectory">
</g>
<g id="album">
</g>
<g id="push">
</g>
<g id="pull">
</g>
<g id="database">
</g>
<g id="server">
</g>
<g id="upload">
</g>
<g id="download">
</g>
<g id="cloud-download">
</g>
<g id="cloud-upload">
</g>
<g id="cloud">
</g>
<g id="cloud-no-access">
</g>
<g id="cloud-signal-up">
</g>
<g id="cloud-signal-down">
</g>
<g id="checklist">
</g>
<g id="file-folded">
</g>
<g id="file-folded-text">
</g>
<g id="inbox">
</g>
<g id="zip-folder">
</g>
<g id="image-folder">
</g>
<g id="image-album">
</g>
<g id="image">
</g>
<g id="images">
</g>
<g id="invoice">
</g>
<g id="book">
</g>
<g id="layers">
	<g>
		<path d="M1.8,22l29.4,19.2c0.2,0.2,0.5,0.2,0.8,0.2s0.6-0.1,0.8-0.2L62.2,22c0.4-0.3,0.7-0.7,0.7-1.3s-0.3-1-0.7-1.3L32.8,0.2
			c-0.5-0.3-1.1-0.3-1.6,0L1.8,19.5c-0.4,0.3-0.7,0.7-0.7,1.3S1.4,21.7,1.8,22z M32,3.3l26.7,17.4L32,38.2L5.3,20.7L32,3.3z"/>
		<path d="M1.8,32.6l29.4,19.2c0.2,0.2,0.5,0.2,0.8,0.2s0.6-0.1,0.8-0.2l29.4-19.2c0.7-0.5,0.9-1.4,0.4-2.1
			c-0.5-0.7-1.4-0.9-2.1-0.4L32,48.8L3.4,30.1c-0.7-0.5-1.6-0.3-2.1,0.4C0.9,31.2,1.1,32.1,1.8,32.6z"/>
		<path d="M60.6,42L32,60.7L3.4,42c-0.7-0.5-1.6-0.3-2.1,0.4c-0.5,0.7-0.3,1.6,0.4,2.1l29.4,19.2c0.2,0.2,0.5,0.2,0.8,0.2
			s0.6-0.1,0.8-0.2l29.4-19.2c0.7-0.5,0.9-1.4,0.4-2.1C62.2,41.7,61.3,41.5,60.6,42z"/>
	</g>
</g>
<g id="media-upload">
</g>
<g id="addresses">
</g>
<g id="floppy">
</g>
<g id="link">
</g>
<g id="link-add">
</g>
<g id="link-remove">
</g>
<g id="table">
</g>
<g id="download-book">
</g>
<g id="clipboard">
</g>
<g id="clipboard-chart">
</g>
<g id="clipboard-text">
</g>
<g id="clipboard-check">
</g>
<g id="clipboard-cross">
</g>
<g id="bookmark">
</g>
<g id="bookmark-add">
</g>
<g id="bookmark-remove">
</g>
<g id="clipboard-horizontal">
</g>
<g id="clipboard-text-horizontal">
</g>
<g id="trash">
</g>
<g id="unlock">
</g>
<g id="lock">
</g>
<g id="link-add-circle">
</g>
<g id="link-remove-circle">
</g>
<g id="sort-up">
</g>
<g id="sort-down">
</g>
<g id="list">
</g>
</svg>
