<?xml version="1.0" encoding="utf-8"?>
<!-- Generator: Adobe Illustrator 20.1.0, SVG Export Plug-In . SVG Version: 6.00 Build 0)  -->
<!DOCTYPE svg PUBLIC "-//W3C//DTD SVG 1.1//EN" "http://www.w3.org/Graphics/SVG/1.1/DTD/svg11.dtd">
<svg version="1.1" xmlns="http://www.w3.org/2000/svg" xmlns:xlink="http://www.w3.org/1999/xlink" x="0px" y="0px"
	 viewBox="0 0 64 64" style="enable-background:new 0 0 64 64;" xml:space="preserve">
<g id="truck">
</g>
<g id="car">
</g>
<g id="taxi">
</g>
<g id="rocket">
</g>
<g id="tardis">
</g>
<g id="bus">
</g>
<g id="tram">
</g>
<g id="speedo">
</g>
<g id="air-machine">
</g>
<g id="speedo-alt">
</g>
<g id="motorcycle">
</g>
<g id="car-battery">
</g>
<g id="ufo">
</g>
<g id="arrivals">
</g>
<g id="petrol-pump">
</g>
<g id="gear-shift">
</g>
<g id="car-battery-alt">
</g>
<g id="road">
</g>
<g id="siren">
</g>
<g id="plane">
</g>
<g id="lorry">
	<path d="M63.9,31.6C63.9,31.5,63.9,31.5,63.9,31.6c-0.1-0.2-0.1-0.3-0.2-0.4c0,0,0,0,0,0c-0.1-0.1-0.2-0.2-0.3-0.3c0,0,0,0-0.1-0.1
		c-0.1-0.1-0.2-0.1-0.4-0.2c0,0,0,0,0,0l-3.5-1.3l-2.8-9.2c-0.2-0.6-0.8-1.1-1.4-1.1H41v-5.5c0-0.8-0.7-1.5-1.5-1.5
		c-0.1,0-0.2,0-0.2,0c-0.1,0-0.2,0-0.2,0H1.5C0.7,12,0,12.7,0,13.5v22C0,36.3,0.7,37,1.5,37H4v6.5C4,44.3,4.7,45,5.5,45h2.7
		c0.2,4.2,3.6,7.5,7.8,7.5s7.6-3.3,7.8-7.5h13.9c0.2,4.2,3.6,7.5,7.8,7.5c4.2,0,7.6-3.3,7.8-7.5h9.1c0.8,0,1.5-0.7,1.5-1.5V32
		C64,31.8,64,31.7,63.9,31.6z M56.7,30.5h-5.1L48.3,22h5.8L56.7,30.5z M3,15h35v5c0,0.1,0,0.2,0,0.2c0,0.1,0,0.2,0,0.2V34H3V15z
		 M14.3,37c-2.6,0.6-4.8,2.5-5.7,5H7v-5H14.3z M16,49.5c-2.7,0-4.8-2.2-4.8-4.8s2.2-4.8,4.8-4.8s4.8,2.2,4.8,4.8S18.7,49.5,16,49.5z
		 M45.6,49.5c-2.7,0-4.8-2.2-4.8-4.8s2.2-4.8,4.8-4.8c2.7,0,4.8,2.2,4.8,4.8S48.3,49.5,45.6,49.5z M53,42c-1.1-3-4-5.2-7.4-5.2
		c-3.4,0-6.3,2.2-7.4,5.2H23.4c-0.9-2.5-3-4.4-5.7-5h21.8c0.8,0,1.5-0.7,1.5-1.5V22h4.1l4.1,10.5c0.2,0.6,0.8,1,1.4,1H61V42H53z"/>
</g>
<g id="train">
</g>
<g id="forklift">
</g>
<g id="bicycle">
</g>
<g id="underground">
</g>
<g id="paper-plane">
</g>
<g id="hotair-balloon">
</g>
</svg>
