<?xml version="1.0" encoding="utf-8"?>
<!-- Generator: Adobe Illustrator 20.1.0, SVG Export Plug-In . SVG Version: 6.00 Build 0)  -->
<!DOCTYPE svg PUBLIC "-//W3C//DTD SVG 1.1//EN" "http://www.w3.org/Graphics/SVG/1.1/DTD/svg11.dtd">
<svg version="1.1" xmlns="http://www.w3.org/2000/svg" xmlns:xlink="http://www.w3.org/1999/xlink" x="0px" y="0px"
	 viewBox="0 0 64 64" style="enable-background:new 0 0 64 64;" xml:space="preserve">
<g id="file">
</g>
<g id="copy">
</g>
<g id="file-edit">
</g>
<g id="folder">
</g>
<g id="subdirectory">
</g>
<g id="album">
</g>
<g id="push">
</g>
<g id="pull">
</g>
<g id="database">
</g>
<g id="server">
</g>
<g id="upload">
</g>
<g id="download">
</g>
<g id="cloud-download">
</g>
<g id="cloud-upload">
</g>
<g id="cloud">
</g>
<g id="cloud-no-access">
</g>
<g id="cloud-signal-up">
</g>
<g id="cloud-signal-down">
</g>
<g id="checklist">
</g>
<g id="file-folded">
</g>
<g id="file-folded-text">
</g>
<g id="inbox">
</g>
<g id="zip-folder">
</g>
<g id="image-folder">
</g>
<g id="image-album">
</g>
<g id="image">
</g>
<g id="images">
</g>
<g id="invoice">
</g>
<g id="book">
</g>
<g id="layers">
</g>
<g id="media-upload">
</g>
<g id="addresses">
</g>
<g id="floppy">
</g>
<g id="link">
	<g>
		<path d="M33.7,45.6l-11,10.8c-5.2,5.1-11.1,4.5-14.4,1.4l-2.7-2.7C3.9,53.4,3,51.1,3,48.7s0.9-4.7,2.6-6.4l15.1-14.9
			c2.6-2.6,5.3-3.8,7.9-3.6c2.8,0.2,5.5,1.9,7.7,4.8c0.5,0.7,1.4,0.8,2.1,0.3c0.7-0.5,0.8-1.4,0.3-2.1c-2.7-3.6-6.2-5.7-9.8-5.9
			c-3.5-0.3-7.1,1.3-10.3,4.4L3.5,40.2C1.3,42.4,0,45.5,0,48.7c0,3.2,1.3,6.3,3.5,8.5l2.7,2.7c2.3,2.2,5.1,3.3,8.1,3.3
			c3.6,0,7.3-1.6,10.5-4.7l11-10.8c0.6-0.6,0.6-1.5,0-2.1C35.2,45,34.3,45,33.7,45.6z"/>
		<path d="M60.5,7.7L57.8,5c-4.5-4.4-12.5-6-17.2-1.4L28.2,15.8c-0.6,0.6-0.6,1.5,0,2.1c0.6,0.6,1.5,0.6,2.1,0L42.7,5.8
			c3.5-3.4,9.5-2.1,13,1.4l2.7,2.7c1.7,1.7,2.6,3.6,2.6,5.7s-0.9,4-2.6,5.7L41.9,37.5c-1.5,1.5-3.6,2.2-5.9,2
			c-2.3-0.2-4.4-1.4-5.6-3.1c-0.5-0.7-1.4-0.9-2.1-0.4c-0.7,0.5-0.9,1.4-0.4,2.1c1.7,2.4,4.6,4.1,7.8,4.4c0.4,0,0.8,0.1,1.1,0.1
			c2.7,0,5.2-1,7.1-2.9l16.5-16.2c2.3-2.2,3.5-5,3.5-7.8C64,12.7,62.8,9.9,60.5,7.7z"/>
	</g>
</g>
<g id="link-add">
</g>
<g id="link-remove">
</g>
<g id="table">
</g>
<g id="download-book">
</g>
<g id="clipboard">
</g>
<g id="clipboard-chart">
</g>
<g id="clipboard-text">
</g>
<g id="clipboard-check">
</g>
<g id="clipboard-cross">
</g>
<g id="bookmark">
</g>
<g id="bookmark-add">
</g>
<g id="bookmark-remove">
</g>
<g id="clipboard-horizontal">
</g>
<g id="clipboard-text-horizontal">
</g>
<g id="trash">
</g>
<g id="unlock">
</g>
<g id="lock">
</g>
<g id="link-add-circle">
</g>
<g id="link-remove-circle">
</g>
<g id="sort-up">
</g>
<g id="sort-down">
</g>
<g id="list">
</g>
</svg>
