<?xml version="1.0" encoding="utf-8"?>
<!-- Generator: Adobe Illustrator 20.1.0, SVG Export Plug-In . SVG Version: 6.00 Build 0)  -->
<!DOCTYPE svg PUBLIC "-//W3C//DTD SVG 1.1//EN" "http://www.w3.org/Graphics/SVG/1.1/DTD/svg11.dtd">
<svg version="1.1" xmlns="http://www.w3.org/2000/svg" xmlns:xlink="http://www.w3.org/1999/xlink" x="0px" y="0px"
	 viewBox="0 0 64 64" style="enable-background:new 0 0 64 64;" xml:space="preserve">
<g id="file">
</g>
<g id="copy">
</g>
<g id="file-edit">
</g>
<g id="folder">
</g>
<g id="subdirectory">
</g>
<g id="album">
</g>
<g id="push">
</g>
<g id="pull">
</g>
<g id="database">
</g>
<g id="server">
</g>
<g id="upload">
</g>
<g id="download">
</g>
<g id="cloud-download">
</g>
<g id="cloud-upload">
</g>
<g id="cloud">
</g>
<g id="cloud-no-access">
</g>
<g id="cloud-signal-up">
</g>
<g id="cloud-signal-down">
</g>
<g id="checklist">
</g>
<g id="file-folded">
</g>
<g id="file-folded-text">
</g>
<g id="inbox">
</g>
<g id="zip-folder">
</g>
<g id="image-folder">
</g>
<g id="image-album">
</g>
<g id="image">
</g>
<g id="images">
</g>
<g id="invoice">
</g>
<g id="book">
</g>
<g id="layers">
</g>
<g id="media-upload">
</g>
<g id="addresses">
</g>
<g id="floppy">
</g>
<g id="link">
</g>
<g id="link-add">
</g>
<g id="link-remove">
</g>
<g id="table">
</g>
<g id="download-book">
</g>
<g id="clipboard">
</g>
<g id="clipboard-chart">
</g>
<g id="clipboard-text">
</g>
<g id="clipboard-check">
</g>
<g id="clipboard-cross">
</g>
<g id="bookmark">
</g>
<g id="bookmark-add">
</g>
<g id="bookmark-remove">
</g>
<g id="clipboard-horizontal">
</g>
<g id="clipboard-text-horizontal">
</g>
<g id="trash">
</g>
<g id="unlock">
</g>
<g id="lock">
</g>
<g id="link-add-circle">
</g>
<g id="link-remove-circle">
</g>
<g id="sort-up">
</g>
<g id="sort-down">
</g>
<g id="list">
	<g>
		<path d="M62.5,31.2H17.4c-0.8,0-1.5,0.7-1.5,1.5s0.7,1.5,1.5,1.5h45.1c0.8,0,1.5-0.7,1.5-1.5S63.3,31.2,62.5,31.2z"/>
		<path d="M6.8,31.2H1.5c-0.8,0-1.5,0.7-1.5,1.5s0.7,1.5,1.5,1.5h5.3c0.8,0,1.5-0.7,1.5-1.5S7.6,31.2,6.8,31.2z"/>
		<path d="M62.5,51.5H17.4c-0.8,0-1.5,0.7-1.5,1.5s0.7,1.5,1.5,1.5h45.1c0.8,0,1.5-0.7,1.5-1.5S63.3,51.5,62.5,51.5z"/>
		<path d="M6.8,51.5H1.5C0.7,51.5,0,52.2,0,53s0.7,1.5,1.5,1.5h5.3c0.8,0,1.5-0.7,1.5-1.5S7.6,51.5,6.8,51.5z"/>
		<path d="M17.4,12.5h45.1c0.8,0,1.5-0.7,1.5-1.5s-0.7-1.5-1.5-1.5H17.4c-0.8,0-1.5,0.7-1.5,1.5S16.6,12.5,17.4,12.5z"/>
		<path d="M6.8,9.5H1.5C0.7,9.5,0,10.1,0,11s0.7,1.5,1.5,1.5h5.3c0.8,0,1.5-0.7,1.5-1.5S7.6,9.5,6.8,9.5z"/>
	</g>
</g>
</svg>
