<?xml version="1.0" encoding="utf-8"?>
<!-- Generator: Adobe Illustrator 20.1.0, SVG Export Plug-In . SVG Version: 6.00 Build 0)  -->
<!DOCTYPE svg PUBLIC "-//W3C//DTD SVG 1.1//EN" "http://www.w3.org/Graphics/SVG/1.1/DTD/svg11.dtd">
<svg version="1.1" xmlns="http://www.w3.org/2000/svg" xmlns:xlink="http://www.w3.org/1999/xlink" x="0px" y="0px"
	 viewBox="0 0 64 64" style="enable-background:new 0 0 64 64;" xml:space="preserve">
<g id="cupcake">
</g>
<g id="turkey">
</g>
<g id="hot-service">
</g>
<g id="mug">
</g>
<g id="mug-hot">
</g>
<g id="bottle">
</g>
<g id="cherries">
</g>
<g id="cocktail">
</g>
<g id="cocktail-alt">
</g>
<g id="wine-glass">
</g>
<g id="wine-glass-alt">
</g>
<g id="aubergine">
</g>
<g id="lettuce-leaf">
	<g>
		<path d="M57.5,25.3c0-3.8-2.9-6.9-6.5-7.2c-0.2-3.6-3-6.6-6.5-6.8C44.2,5.1,39.2,0,33.1,0h-2.3c-6.1,0-11.1,5.1-11.3,11.3
			c-3.5,0.2-6.3,3.2-6.5,6.8c-3.6,0.2-6.5,3.3-6.5,7.2c0,2.3,1.1,4.5,2.9,5.8c-0.5,1-0.8,2.1-0.8,3.2c0,3,1.8,5.6,4.3,6.6
			c0,0.1,0,0.1,0,0.2c0,3,1.8,5.6,4.3,6.6c0,0.1,0,0.1,0,0.2c0,4,3.2,7.3,7.1,7.2l1.7,7.7c0.1,0.7,0.8,1.2,1.5,1.2h8.7
			c0.7,0,1.3-0.5,1.5-1.2l1.7-7.7c3.9,0.1,7.1-3.1,7.1-7.2c0-0.1,0-0.1,0-0.2c2.6-1.1,4.3-3.7,4.3-6.6c0-0.1,0-0.1,0-0.2
			c2.6-1.1,4.3-3.7,4.3-6.6c0-1.1-0.3-2.2-0.8-3.2C56.3,29.8,57.5,27.6,57.5,25.3z M51.9,29.2c-0.5,0.2-0.8,0.6-0.9,1
			c-0.1,0.5,0,1,0.3,1.3c0.7,0.8,1,1.8,1,2.8c0,2-1.4,3.7-3.3,4.1c-0.4,0.1-0.8,0.3-1,0.6c-0.2,0.3-0.3,0.8-0.2,1.1
			c0.1,0.3,0.1,0.6,0.1,0.9c0,2-1.4,3.7-3.3,4.1c-0.4,0.1-0.8,0.3-1,0.6s-0.3,0.8-0.2,1.1c0.1,0.3,0.1,0.6,0.1,0.9
			c0,2.3-1.8,4.2-3.9,4.2c-0.3,0-0.6,0-1-0.1c-0.4-0.1-0.8,0-1.2,0.2c-0.4,0.2-0.6,0.6-0.7,1L35.1,61h-6.3l-1.7-7.9
			c-0.1-0.4-0.3-0.8-0.7-1c-0.4-0.2-0.8-0.3-1.2-0.2c-0.4,0.1-0.7,0.1-1,0.1c-2.2,0-3.9-1.9-3.9-4.2c0-0.3,0-0.6,0.1-0.9
			c0.1-0.4,0-0.8-0.2-1.1s-0.6-0.6-1-0.6c-1.9-0.3-3.3-2.1-3.3-4.1c0-0.3,0-0.6,0.1-0.9c0.1-0.4,0-0.8-0.2-1.1
			c-0.2-0.3-0.6-0.6-1-0.6c-1.9-0.3-3.3-2.1-3.3-4.1c0-1,0.4-2,1-2.8c0.3-0.4,0.4-0.9,0.3-1.3c-0.1-0.5-0.5-0.9-0.9-1
			c-1.6-0.6-2.6-2.2-2.6-3.9c0-2.3,1.8-4.2,3.9-4.2c0.3,0,0.6,0,0.9,0.1c0.5,0.1,1,0,1.4-0.4c0.4-0.4,0.5-0.9,0.4-1.4
			c-0.1-0.4-0.1-0.7-0.1-1c0-2.3,1.8-4.2,3.9-4.2c0.3,0,0.5,0,0.9,0.1c0.5,0.1,1,0,1.3-0.3c0.4-0.3,0.5-0.8,0.5-1.3l0-0.3
			c0-0.3-0.1-0.6-0.1-0.8c0-4.8,3.7-8.7,8.3-8.7h2.3c4.6,0,8.3,3.9,8.3,8.7c0,0.2,0,0.5-0.1,0.8l0,0.3c-0.1,0.5,0.1,1,0.5,1.3
			c0.4,0.3,0.9,0.5,1.3,0.3c0.3-0.1,0.6-0.1,0.9-0.1c2.2,0,3.9,1.9,3.9,4.2c0,0.3,0,0.6-0.1,1c-0.1,0.5,0,1,0.4,1.4
			c0.4,0.4,0.9,0.5,1.4,0.4c0.3-0.1,0.6-0.1,0.9-0.1c2.2,0,3.9,1.9,3.9,4.2C54.5,27,53.4,28.6,51.9,29.2z"/>
		<path d="M25.8,17.3c-0.3-0.8-1.2-1.1-2-0.8c-0.8,0.3-1.1,1.2-0.8,2l0.2,0.6c3,7.4,4.4,17.6,3.9,27.1c0,0.8,0.6,1.5,1.4,1.6
			c0,0,0.1,0,0.1,0c0.8,0,1.4-0.6,1.5-1.4c0.6-9.9-1-20.6-4.1-28.4C25.9,17.7,25.8,17.5,25.8,17.3z"/>
		<path d="M41,18.4c0.3-0.8,0-1.6-0.8-2s-1.6,0-2,0.8c-0.1,0.2-0.2,0.4-0.2,0.6c-3.2,7.8-4.7,18.5-4.1,28.4c0,0.8,0.7,1.4,1.5,1.4
			c0,0,0.1,0,0.1,0c0.8,0,1.5-0.8,1.4-1.6c-0.6-9.5,0.9-19.6,3.9-27.1C40.9,18.8,40.9,18.6,41,18.4z"/>
		<path d="M21.1,25.5c-0.6-0.6-1.5-0.6-2.1,0c-0.6,0.6-0.6,1.5,0,2.1l2.2,2.2c0.3,0.3,0.7,0.4,1.1,0.4s0.8-0.1,1.1-0.4
			c0.6-0.6,0.6-1.5,0-2.1L21.1,25.5z"/>
		<path d="M21.1,34.2c-0.6-0.6-1.5-0.6-2.1,0c-0.6,0.6-0.6,1.5,0,2.1l2.2,2.2c0.3,0.3,0.7,0.4,1.1,0.4s0.8-0.1,1.1-0.4
			c0.6-0.6,0.6-1.5,0-2.1L21.1,34.2z"/>
		<path d="M42.9,25.5l-2.2,2.2c-0.6,0.6-0.6,1.5,0,2.1c0.3,0.3,0.7,0.4,1.1,0.4s0.8-0.1,1.1-0.4l2.2-2.2c0.6-0.6,0.6-1.5,0-2.1
			C44.5,24.9,43.5,24.9,42.9,25.5z"/>
		<path d="M42.9,34.2l-2.2,2.2c-0.6,0.6-0.6,1.5,0,2.1c0.3,0.3,0.7,0.4,1.1,0.4s0.8-0.1,1.1-0.4l2.2-2.2c0.6-0.6,0.6-1.5,0-2.1
			C44.5,33.6,43.5,33.6,42.9,34.2z"/>
	</g>
</g>
<g id="cup">
</g>
<g id="noodles">
</g>
<g id="icelolly">
</g>
<g id="cutlery">
</g>
<g id="hotdog">
</g>
</svg>
