<?xml version="1.0" encoding="utf-8"?>
<!-- Generator: Adobe Illustrator 20.1.0, SVG Export Plug-In . SVG Version: 6.00 Build 0)  -->
<!DOCTYPE svg PUBLIC "-//W3C//DTD SVG 1.1//EN" "http://www.w3.org/Graphics/SVG/1.1/DTD/svg11.dtd">
<svg version="1.1" xmlns="http://www.w3.org/2000/svg" xmlns:xlink="http://www.w3.org/1999/xlink" x="0px" y="0px"
	 viewBox="0 0 64 64" style="enable-background:new 0 0 64 64;" xml:space="preserve">
<g id="behance">
</g>
<g id="twitter">
</g>
<g id="vimeo">
</g>
<g id="wordpress">
</g>
<g id="Layer_179">
</g>
<g id="xing">
</g>
<g id="youtube">
</g>
<g id="whatsapp">
</g>
<g id="flickr">
</g>
<g id="dribbble">
</g>
<g id="facebook">
</g>
<g id="foursquare">
</g>
<g id="github">
</g>
<g id="github-alt">
</g>
<g id="google-plus">
</g>
<g id="google">
</g>
<g id="joomla">
</g>
<g id="soundcloud">
</g>
<g id="instagram">
</g>
<g id="linkedin">
</g>
<g id="pagekit">
</g>
<g id="pinterest">
</g>
<g id="windows">
</g>
<g id="bronzelabs">
</g>
<g id="apple">
</g>
<g id="android">
</g>
<g id="mwkr-alt">
	<g>
		<path d="M35.8,24c-0.6-0.6-1.5-0.6-2.1,0l-8.5,8.5l-8.4-8.4c-0.2-0.2-0.3-0.3-0.5-0.3c-0.2-0.1-0.5-0.2-0.8-0.2
			c-0.8,0-1.5,0.7-1.5,1.5v14c0,0.8,0.7,1.5,1.5,1.5S17,39.8,17,39V28.5l7.1,7.1c0.3,0.3,0.7,0.4,1.1,0.4s0.8-0.1,1.1-0.4l9.5-9.5
			C36.4,25.5,36.4,24.6,35.8,24z"/>
		<path d="M48.5,23.5c-0.8,0-1.5,0.7-1.5,1.5v10.5l-7.1-7.1c-0.6-0.6-1.5-0.6-2.1,0l-9.5,9.5c-0.6,0.6-0.6,1.5,0,2.1
			c0.3,0.3,0.7,0.4,1.1,0.4s0.8-0.1,1.1-0.4l8.5-8.5l8.4,8.4c0.2,0.2,0.3,0.3,0.5,0.3c0.2,0.1,0.5,0.2,0.8,0.2
			c0.8,0,1.5-0.7,1.5-1.5V25C50,24.2,49.3,23.5,48.5,23.5z"/>
		<path d="M32,0.2C14.5,0.2,0.2,14.5,0.2,32S14.5,63.8,32,63.8S63.8,49.5,63.8,32S49.5,0.2,32,0.2z M32,60.8
			C16.1,60.8,3.2,47.9,3.2,32S16.1,3.2,32,3.2S60.8,16.1,60.8,32S47.9,60.8,32,60.8z"/>
	</g>
</g>
<g id="mwkr">
</g>
<g id="deviantart">
</g>
<g id="deviantart-alt">
</g>
</svg>
