<?xml version="1.0" encoding="utf-8"?>
<!-- Generator: Adobe Illustrator 20.1.0, SVG Export Plug-In . SVG Version: 6.00 Build 0)  -->
<!DOCTYPE svg PUBLIC "-//W3C//DTD SVG 1.1//EN" "http://www.w3.org/Graphics/SVG/1.1/DTD/svg11.dtd">
<svg version="1.1" xmlns="http://www.w3.org/2000/svg" xmlns:xlink="http://www.w3.org/1999/xlink" x="0px" y="0px"
	 viewBox="0 0 64 64" style="enable-background:new 0 0 64 64;" xml:space="preserve">
<style type="text/css">
	.st0{fill:none;stroke:#000000;stroke-width:3;stroke-linecap:round;stroke-linejoin:round;}
</style>
<g id="cupcake">
</g>
<g id="turkey">
</g>
<g id="hot-service">
</g>
<g id="mug">
</g>
<g id="mug-hot">
	<g>
		<path d="M41,60.2H12c-0.8,0-1.5,0.7-1.5,1.5s0.7,1.5,1.5,1.5h29c0.8,0,1.5-0.7,1.5-1.5S41.8,60.2,41,60.2z"/>
		<path d="M56.2,31.2H53c0-0.2,0-0.3,0-0.5v-4c0-0.8-0.7-1.5-1.5-1.5h-50c-0.8,0-1.5,0.7-1.5,1.5v4c0,14.7,12,26.7,26.7,26.7
			c8.1,0,15.9-3.8,20.9-10.1h8.5c4.2,0,7.8-3.7,7.8-8S60.4,31.2,56.2,31.2z M26.7,54.3C13.7,54.3,3,43.7,3,30.7v-2.5h47v2.5
			c0,0.4,0,0.7,0.1,1.1c0,0.3,0.1,0.6,0.1,0.9c-0.4,4.6-1.8,8.5-4.1,11.8C41.5,50.7,34.3,54.3,26.7,54.3z M56.2,44.2h-6.5
			c1.7-2.9,2.8-6.3,3.3-10h3.2c2.6,0,4.8,2.3,4.8,5S58.8,44.2,56.2,44.2z"/>
		<path d="M34.6,10.9c1.4,1.1,2.3,1.8,2.3,2.9c0,2.2-1.4,2.8-1.5,2.8c-0.8,0.2-1.2,1.1-1,1.9c0.2,0.6,0.8,1.1,1.4,1.1
			c0.1,0,0.3,0,0.4-0.1c0.1,0,3.6-1.2,3.6-5.7c0-2.6-2-4.1-3.4-5.2c-0.7-0.6-1.6-1.3-1.6-1.7c0-1.4,1.5-2.9,2.1-3.4
			C37.5,3,37.6,2,37.1,1.4c-0.5-0.7-1.4-0.8-2.1-0.3c-0.3,0.3-3.3,2.6-3.3,5.8C31.7,8.8,33.2,9.9,34.6,10.9z"/>
		<path d="M25.8,10.9c1.4,1.1,2.3,1.8,2.3,2.9c0,2.2-1.4,2.8-1.5,2.8c-0.8,0.2-1.2,1.1-1,1.9c0.2,0.6,0.8,1.1,1.4,1.1
			c0.1,0,0.3,0,0.4-0.1c0.1,0,3.6-1.2,3.6-5.7c0-2.6-2-4.1-3.4-5.2C26.9,8,26,7.3,26,6.9c0-1.4,1.5-2.9,2.1-3.4
			C28.8,3,28.9,2,28.4,1.4c-0.5-0.7-1.4-0.8-2.1-0.3C26,1.4,23,3.7,23,6.9C23,8.8,24.5,9.9,25.8,10.9z"/>
		<path d="M17.1,10.9c1.4,1.1,2.3,1.8,2.3,2.9c0,2.2-1.4,2.8-1.5,2.8c-0.8,0.2-1.2,1.1-1,1.9c0.2,0.6,0.8,1.1,1.4,1.1
			c0.1,0,0.3,0,0.4-0.1c0.1,0,3.6-1.2,3.6-5.7c0-2.6-2-4.1-3.4-5.2c-0.7-0.6-1.6-1.3-1.6-1.7c0-1.4,1.5-2.9,2.1-3.4
			C20,3,20.2,2,19.7,1.4c-0.5-0.7-1.4-0.8-2.1-0.3c-0.3,0.3-3.3,2.6-3.3,5.8C14.3,8.8,15.8,9.9,17.1,10.9z"/>
	</g>
</g>
<g id="bottle">
</g>
<g id="cherries">
</g>
<g id="cocktail">
</g>
<g id="cocktail-alt">
</g>
<g id="wine-glass">
</g>
<g id="wine-glass-alt">
</g>
<g id="aubergine">
</g>
<g id="lettuce-leaf">
</g>
<g id="cup">
</g>
<g id="noodles">
</g>
<g id="icelolly">
</g>
<g id="cutlery">
</g>
<g id="hotdog">
</g>
</svg>
