<?xml version="1.0" encoding="utf-8"?>
<!-- Generator: Adobe Illustrator 20.1.0, SVG Export Plug-In . SVG Version: 6.00 Build 0)  -->
<!DOCTYPE svg PUBLIC "-//W3C//DTD SVG 1.1//EN" "http://www.w3.org/Graphics/SVG/1.1/DTD/svg11.dtd">
<svg version="1.1" xmlns="http://www.w3.org/2000/svg" xmlns:xlink="http://www.w3.org/1999/xlink" x="0px" y="0px"
	 viewBox="0 0 64 64" style="enable-background:new 0 0 64 64;" xml:space="preserve">
<g id="suitcase">
</g>
<g id="backpack">
</g>
<g id="chef-hat">
</g>
<g id="work-jacket">
</g>
<g id="tshirt">
</g>
<g id="handbag">
</g>
<g id="coat-hanger">
</g>
<g id="measuring-tape">
	<g>
		<path d="M17.8,24.4c4.8,0,8.6-2.9,8.6-6.6s-3.8-6.6-8.6-6.6s-8.6,2.9-8.6,6.6S12.9,24.4,17.8,24.4z M17.8,14.3
			c3,0,5.6,1.6,5.6,3.6s-2.6,3.6-5.6,3.6s-5.6-1.6-5.6-3.6S14.7,14.3,17.8,14.3z"/>
		<path d="M60.5,28l-24.9,0.3V17.8c0-7.5-8-13.7-17.8-13.7S0,10.3,0,17.8c0,0.5,0.1,1.1,0.1,1.6C0,19.6,0,19.8,0,20v28.2
			C0,54.7,5.2,60,11.7,60h48.8c1.9,0,3.5-1.7,3.5-3.7V32C64,30.1,62.5,28,60.5,28z M32.5,28.3l-3.5,0c1.3-0.8,2.5-1.8,3.5-2.9V28.3z
			 M17.8,7.2c8.1,0,14.8,4.8,14.8,10.7c0,5.9-6.6,10.7-14.8,10.7l0,0C9.6,28.5,3,23.7,3,17.8C3,11.9,9.6,7.2,17.8,7.2z M61,56.3
			c0,0.3-0.3,0.7-0.5,0.7H53V47c0-0.8-0.7-1.5-1.5-1.5S50,46.2,50,47v10h-7v-4c0-0.8-0.7-1.5-1.5-1.5S40,52.2,40,53v4h-8V47
			c0-0.8-0.7-1.5-1.5-1.5S29,46.2,29,47v10h-7v-4c0-0.8-0.7-1.5-1.5-1.5S19,52.2,19,53v4h-7V47c0-0.8-0.7-1.5-1.5-1.5S9,46.2,9,47
			v9.6c-3.5-1.1-6-4.5-6-8.4V25.4c3.2,3.7,8.6,6.1,14.8,6.1c0,0,0,0,0,0c0,0,0,0,0,0L60.4,31c0.2,0.1,0.6,0.6,0.6,1V56.3z"/>
	</g>
</g>
<g id="pants">
</g>
<g id="t-shirt-ale">
</g>
<g id="watch">
</g>
<g id="glasses">
</g>
<g id="graduation-hat">
</g>
<g id="scuba-gear">
</g>
<g id="shoe">
</g>
<g id="crown">
</g>
<g id="wand">
</g>
<g id="crown-alt">
</g>
</svg>
