<?xml version="1.0" encoding="utf-8"?>
<!-- Generator: Adobe Illustrator 20.1.0, SVG Export Plug-In . SVG Version: 6.00 Build 0)  -->
<!DOCTYPE svg PUBLIC "-//W3C//DTD SVG 1.1//EN" "http://www.w3.org/Graphics/SVG/1.1/DTD/svg11.dtd">
<svg version="1.1" xmlns="http://www.w3.org/2000/svg" xmlns:xlink="http://www.w3.org/1999/xlink" x="0px" y="0px"
	 viewBox="0 0 64 64" style="enable-background:new 0 0 64 64;" xml:space="preserve">
<g id="text-height">
</g>
<g id="font">
</g>
<g id="text">
</g>
<g id="italic">
</g>
<g id="strikethrough">
</g>
<g id="paragraph">
</g>
<g id="bold">
</g>
<g id="quote-right">
</g>
<g id="hashtag">
</g>
<g id="anchor-handle">
</g>
<g id="box">
</g>
<g id="fullscreen">
</g>
<g id="fullscreen-alt">
</g>
<g id="golden-ratio">
</g>
<g id="hexgrid">
</g>
<g id="box-points">
</g>
<g id="box-points-move">
</g>
<g id="box-points-move-alt">
</g>
<g id="hex_1_">
</g>
<g id="hex-diamond">
</g>
<g id="artboards-vertical">
</g>
<g id="artboards">
</g>
<g id="artboards-alt-vertical">
</g>
<g id="artboards-alt">
</g>
<g id="scale">
</g>
<g id="pencil">
</g>
<g id="fill">
</g>
<g id="artist-mug">
</g>
<g id="pen">
</g>
<g id="calligraphy-pen-tip">
</g>
<g id="calligraphy-pen_1_">
</g>
<g id="paint-pallette">
</g>
<g id="tools-cross">
</g>
<g id="edit-tools">
</g>
<g id="pencil-ruler">
</g>
<g id="ruler-measure">
</g>
<g id="measure">
	<g>
		<path d="M34.8,3.2c0.8,0,1.5-0.7,1.5-1.5s-0.7-1.5-1.5-1.5H20.4c-0.8,0-1.5,0.7-1.5,1.5c0,0.1,0,0.2,0,0.3c0,0.1,0,0.2,0,0.3v59.6
			c0,0.1,0,0.2,0,0.3c0,0.1,0,0.2,0,0.3c0,0.8,0.7,1.5,1.5,1.5h14.4c0.8,0,1.5-0.7,1.5-1.5s-0.7-1.5-1.5-1.5H21.9V49.9h6.5
			c0.8,0,1.5-0.7,1.5-1.5s-0.7-1.5-1.5-1.5h-6.5V33.5h12.9c0.8,0,1.5-0.7,1.5-1.5s-0.7-1.5-1.5-1.5H21.9V17h6.5
			c0.8,0,1.5-0.7,1.5-1.5S29.2,14,28.4,14h-6.5V3.2H34.8z"/>
		<ellipse cx="43.4" cy="1.7" rx="1.7" ry="1.7"/>
		<ellipse cx="43.4" cy="32" rx="1.7" ry="1.7"/>
		<ellipse cx="43.4" cy="62.3" rx="1.7" ry="1.7"/>
	</g>
</g>
<g id="code">
</g>
<g id="move">
</g>
<g id="external">
</g>
<g id="terminal">
</g>
<g id="thumbnails">
</g>
</svg>
