<?xml version="1.0" encoding="utf-8"?>
<!-- Generator: Adobe Illustrator 20.1.0, SVG Export Plug-In . SVG Version: 6.00 Build 0)  -->
<!DOCTYPE svg PUBLIC "-//W3C//DTD SVG 1.1//EN" "http://www.w3.org/Graphics/SVG/1.1/DTD/svg11.dtd">
<svg version="1.1" xmlns="http://www.w3.org/2000/svg" xmlns:xlink="http://www.w3.org/1999/xlink" x="0px" y="0px"
	 viewBox="0 0 64 64" style="enable-background:new 0 0 64 64;" xml:space="preserve">
<g id="fairground">
</g>
<g id="tent">
</g>
<g id="tree">
</g>
<g id="trees">
</g>
<g id="tree-alt">
</g>
<g id="butterfly">
</g>
<g id="sunrise">
</g>
<g id="waterdrop">
</g>
<g id="map">
</g>
<g id="map-alt">
</g>
<g id="earth">
</g>
<g id="earth-no">
</g>
<g id="meteor">
	<g>
		<path d="M63.6,0.5c-0.4-0.4-1-0.6-1.6-0.3c-7.9,3.1-15,7.5-20.9,13c0.9-2.6,1.9-5.2,3.2-7.6c0.3-0.6,0.2-1.4-0.4-1.8
			c-0.5-0.4-1.3-0.5-1.9,0c-4.3,3.4-8,7.1-11.1,11c0-0.8,0.1-1.6,0.1-2.5c0-0.6-0.3-1.1-0.8-1.3c-0.5-0.3-1.1-0.2-1.6,0.1
			C22.6,15,18.4,21.4,16.8,28.5C10.1,28.9,4.3,33,1.7,38.8c-0.1,0.1-0.1,0.2-0.2,0.3c-1,2.2-1.5,4.6-1.5,7.1C0,56,8,64,17.8,64
			c9.5,0,17.2-7.4,17.7-16.8c7.1-1.6,13.5-5.8,17.6-11.8c0.3-0.5,0.4-1.1,0.1-1.6c-0.3-0.5-0.8-0.8-1.3-0.8c-0.8,0-1.7,0-2.5,0.1
			c3.9-3.1,7.6-6.8,11-11.1c0.4-0.6,0.4-1.3,0-1.9c-0.4-0.5-1.2-0.7-1.8-0.4c-2.5,1.2-5,2.3-7.6,3.1c5.5-5.8,9.9-13,13-20.8
			C64.1,1.5,64,0.9,63.6,0.5z M7.1,38.1c0,0.9-0.7,1.5-1.5,1.5c-0.3,0-0.6-0.1-0.9-0.3c0.5-0.9,1.1-1.8,1.7-2.6
			C6.8,37.1,7.1,37.6,7.1,38.1z M17.8,61C9.6,61,3,54.4,3,46.2c0-1.4,0.2-2.8,0.6-4c0.6,0.3,1.3,0.5,2,0.5c2.5,0,4.5-2,4.5-4.5
			c0-1.3-0.6-2.6-1.5-3.4c2.5-2,5.7-3.2,9.2-3.2c2.8,0,5.4,0.8,7.6,2.1c-2.3,0.3-4,2.2-4,4.5c0,2.5,2,4.5,4.5,4.5
			c2.3,0,4.2-1.8,4.5-4c1.3,2.2,2.1,4.8,2.1,7.6C32.5,54.4,25.9,61,17.8,61z M27.5,38.1c0,0.9-0.7,1.5-1.6,1.5
			c-0.9,0-1.5-0.7-1.5-1.5s0.7-1.5,1.5-1.5C26.8,36.5,27.5,37.2,27.5,38.1z M44.7,24.7c-0.5,0.4-0.7,1.2-0.4,1.8
			c0.3,0.6,1,0.9,1.7,0.8c2.7-0.6,5.3-1.3,7.8-2.2c-3.2,3.3-6.5,6.2-10.1,8.5c-0.6,0.4-0.8,1.1-0.6,1.7c0.2,0.6,0.8,1.1,1.4,1.1
			c0,0,0,0,0,0c1.3,0,2.5-0.1,3.7-0.1c0.1,0,0.3,0,0.4,0c-3.5,3.9-8.2,6.7-13.3,7.9c-1-8.1-7.4-14.6-15.5-15.5
			c1.3-5.1,4.1-9.8,7.9-13.3c0,0.1,0,0.3,0,0.4c-0.1,1.2-0.1,2.4-0.1,3.7c0,0.7,0.4,1.3,1.1,1.4c0.6,0.2,1.3-0.1,1.7-0.6
			c2.3-3.5,5.2-6.9,8.5-10.1c-0.9,2.5-1.7,5.1-2.2,7.8c-0.1,0.7,0.2,1.3,0.8,1.7c0.6,0.3,1.4,0.2,1.8-0.4c5.4-6.2,12.4-11.3,20.4-15
			C56.1,12.3,50.9,19.3,44.7,24.7z"/>
		<path d="M15.7,49.8c-2.5,0-4.6,2-4.6,4.5s2,4.5,4.6,4.5c2.5,0,4.5-2,4.5-4.5S18.2,49.8,15.7,49.8z M15.7,55.9
			c-0.9,0-1.6-0.7-1.6-1.5s0.7-1.5,1.6-1.5c0.9,0,1.5,0.7,1.5,1.5S16.6,55.9,15.7,55.9z"/>
	</g>
</g>
<g id="sun">
</g>
<g id="sun-dim">
</g>
<g id="umbrella">
</g>
<g id="umbrella-alt">
</g>
<g id="gps">
</g>
<g id="fire">
</g>
<g id="target-sight">
</g>
<g id="gps-area">
</g>
<g id="gps-alt">
</g>
<g id="target">
</g>
<g id="star">
</g>
<g id="lightning">
</g>
</svg>
