<?xml version="1.0" encoding="utf-8"?>
<!-- Generator: Adobe Illustrator 20.1.0, SVG Export Plug-In . SVG Version: 6.00 Build 0)  -->
<!DOCTYPE svg PUBLIC "-//W3C//DTD SVG 1.1//EN" "http://www.w3.org/Graphics/SVG/1.1/DTD/svg11.dtd">
<svg version="1.1" xmlns="http://www.w3.org/2000/svg" xmlns:xlink="http://www.w3.org/1999/xlink" x="0px" y="0px"
	 viewBox="0 0 64 64" style="enable-background:new 0 0 64 64;" xml:space="preserve">
<g id="fairground">
</g>
<g id="tent">
</g>
<g id="tree">
</g>
<g id="trees">
</g>
<g id="tree-alt">
</g>
<g id="butterfly">
</g>
<g id="sunrise">
</g>
<g id="waterdrop">
</g>
<g id="map">
</g>
<g id="map-alt">
	<path d="M62.9,14.5l-20-5.9c0,0,0,0-0.1,0c-0.1,0-0.1,0-0.2,0c-0.1,0-0.1,0-0.2,0c-0.1,0-0.1,0-0.2,0c-0.1,0-0.1,0-0.2,0
		c0,0,0,0-0.1,0l-20.6,5.8L1.9,8.6C1.5,8.5,1,8.6,0.6,8.9C0.2,9.1,0,9.6,0,10.1v38c0,0.7,0.4,1.2,1.1,1.4l20,5.9
		c0.1,0,0.3,0.1,0.4,0.1c0.1,0,0.3,0,0.4-0.1l20.6-5.8l19.6,5.8c0.1,0,0.3,0.1,0.4,0.1c0.3,0,0.6-0.1,0.9-0.3
		c0.4-0.3,0.6-0.7,0.6-1.2V16C64,15.3,63.6,14.7,62.9,14.5z M3,12.1l17,5v34.8l-17-5V12.1z M23,17.1L41,12v34.9L23,52V17.1z
		 M61,51.9l-17-5V12.1l17,5V51.9z"/>
</g>
<g id="earth">
</g>
<g id="earth-no">
</g>
<g id="meteor">
</g>
<g id="sun">
</g>
<g id="sun-dim">
</g>
<g id="umbrella">
</g>
<g id="umbrella-alt">
</g>
<g id="gps">
</g>
<g id="fire">
</g>
<g id="target-sight">
</g>
<g id="gps-area">
</g>
<g id="gps-alt">
</g>
<g id="target">
</g>
<g id="star">
</g>
<g id="lightning">
</g>
</svg>
