<?xml version="1.0" encoding="utf-8"?>
<!-- Generator: Adobe Illustrator 20.1.0, SVG Export Plug-In . SVG Version: 6.00 Build 0)  -->
<!DOCTYPE svg PUBLIC "-//W3C//DTD SVG 1.1//EN" "http://www.w3.org/Graphics/SVG/1.1/DTD/svg11.dtd">
<svg version="1.1" xmlns="http://www.w3.org/2000/svg" xmlns:xlink="http://www.w3.org/1999/xlink" x="0px" y="0px"
	 viewBox="0 0 64 64" style="enable-background:new 0 0 64 64;" xml:space="preserve">
<g id="bulb">
</g>
<g id="bulb-on">
</g>
<g id="bulb-alt">
</g>
<g id="bulb-on-alt">
</g>
<g id="energy-bulb">
</g>
<g id="toasting">
</g>
<g id="toasted">
</g>
<g id="binoculars">
</g>
<g id="gift">
</g>
<g id="shaver">
</g>
<g id="candle">
</g>
<g id="shower">
</g>
<g id="bomb">
</g>
<g id="joystick">
</g>
<g id="megaphone">
</g>
<g id="chestdraw">
</g>
<g id="armchair">
</g>
<g id="cardboard-box">
</g>
<g id="bath-shower">
</g>
<g id="diamond">
</g>
<g id="cassette">
</g>
<g id="iron">
</g>
<g id="wash">
</g>
<g id="keyboard-keys">
</g>
<g id="earphones">
</g>
<g id="lifebuoy">
</g>
<g id="calculator">
</g>
<g id="safe">
</g>
<g id="balloon">
</g>
<g id="cake">
</g>
<g id="baseball">
</g>
<g id="football-american">
</g>
<g id="football">
</g>
<g id="anchor">
</g>
<g id="compact-disc">
</g>
<g id="bbq">
</g>
<g id="coffee-machine">
</g>
<g id="teapot">
</g>
<g id="outdoor-stove">
</g>
<g id="pram">
</g>
<g id="paintbrush">
</g>
<g id="stamp">
</g>
<g id="eyedrop">
</g>
<g id="musical-note">
</g>
<g id="magnet">
	<path d="M63.6,32.5L56,25.1c-0.6-0.6-1.5-0.6-2.1,0L48,30.9c0,0,0,0,0,0s0,0,0,0L33.5,45.4c-4.2,4.1-10.9,4.1-15.1,0
		c-2-2-3.1-4.7-3.1-7.5c0-2.8,1.1-5.5,3.1-7.5c0,0,0,0,0,0l20.3-20.3c0.6-0.6,0.6-1.5,0-2.1l-7.4-7.5c-0.3-0.3-0.7-0.4-1.1-0.4
		c-0.4,0-0.8,0.2-1.1,0.4l-5.9,5.9c0,0,0,0,0,0s0,0,0,0L7.7,21.9C2.8,26.8,0,33.6,0,40.6c0,6.4,2.4,12.3,6.7,16.5
		c4.6,4.5,10.9,6.8,17.2,6.8s12.6-2.3,17.2-6.8l22.6-22.4c0.3-0.3,0.4-0.7,0.4-1.1S63.8,32.8,63.6,32.5z M30.3,3.7l5.3,5.4l-3.7,3.7
		l-5.4-5.3L30.3,3.7z M38.9,55c-8,8-22.1,8-30.1,0C5.1,51.3,3,46.1,3,40.6C3,34.4,5.5,28.3,9.9,24L24.4,9.5l5.4,5.3L16.3,28.3
		c-2.6,2.6-4,6-4,9.6s1.4,7,4,9.6c5.3,5.3,14,5.3,19.3,0l13.4-13.4l5.4,5.4L38.9,55z M56.6,37.4L51.2,32l3.8-3.8l5.4,5.4L56.6,37.4z
		"/>
</g>
<g id="alarm-bell">
</g>
<g id="globe">
</g>
<g id="key">
</g>
<g id="ink">
</g>
<g id="paperclip">
</g>
<g id="paint-roller">
</g>
<g id="keyboard">
</g>
</svg>
