<?xml version="1.0" encoding="utf-8"?>
<!-- Generator: Adobe Illustrator 20.1.0, SVG Export Plug-In . SVG Version: 6.00 Build 0)  -->
<!DOCTYPE svg PUBLIC "-//W3C//DTD SVG 1.1//EN" "http://www.w3.org/Graphics/SVG/1.1/DTD/svg11.dtd">
<svg version="1.1" xmlns="http://www.w3.org/2000/svg" xmlns:xlink="http://www.w3.org/1999/xlink" x="0px" y="0px"
	 viewBox="0 0 64 64" style="enable-background:new 0 0 64 64;" xml:space="preserve">
<g id="fairground">
</g>
<g id="tent">
</g>
<g id="tree">
</g>
<g id="trees">
</g>
<g id="tree-alt">
</g>
<g id="butterfly">
</g>
<g id="sunrise">
</g>
<g id="waterdrop">
</g>
<g id="map">
	<path d="M63.4,8.5c-0.4-0.3-0.9-0.4-1.3-0.3l-14.9,4l-14.9-4c-0.3-0.1-0.5-0.1-0.8,0l-14.9,4l-14.9-4C1.4,8.1,1,8.2,0.6,8.5
		C0.2,8.8,0,9.2,0,9.7v40.6c0,0.7,0.5,1.3,1.1,1.4l15.2,4.1c0.3,0.1,0.5,0.1,0.8,0l14.9-4l14.9,4c0.1,0,0.3,0.1,0.4,0.1
		s0.3,0,0.4-0.1l15.2-4.1c0.7-0.2,1.1-0.8,1.1-1.4V9.7C64,9.2,63.8,8.8,63.4,8.5z M18,14.9l12-3.2v37.5l-12,3.2V14.9z M33,11.5
		l13,3.5v37.5L33,49V11.5z M3,11.6l12,3.2v37.5L3,49.1V11.6z M61,49.1l-12,3.2V14.8l12-3.2V49.1z"/>
</g>
<g id="map-alt">
</g>
<g id="earth">
</g>
<g id="earth-no">
</g>
<g id="meteor">
</g>
<g id="sun">
</g>
<g id="sun-dim">
</g>
<g id="umbrella">
</g>
<g id="umbrella-alt">
</g>
<g id="gps">
</g>
<g id="fire">
</g>
<g id="target-sight">
</g>
<g id="gps-area">
</g>
<g id="gps-alt">
</g>
<g id="target">
</g>
<g id="star">
</g>
<g id="lightning">
</g>
</svg>
