<?xml version="1.0" encoding="utf-8"?>
<!-- Generator: Adobe Illustrator 20.1.0, SVG Export Plug-In . SVG Version: 6.00 Build 0)  -->
<!DOCTYPE svg PUBLIC "-//W3C//DTD SVG 1.1//EN" "http://www.w3.org/Graphics/SVG/1.1/DTD/svg11.dtd">
<svg version="1.1" xmlns="http://www.w3.org/2000/svg" xmlns:xlink="http://www.w3.org/1999/xlink" x="0px" y="0px"
	 viewBox="0 0 64 64" style="enable-background:new 0 0 64 64;" xml:space="preserve">
<g id="behance">
</g>
<g id="twitter">
</g>
<g id="vimeo">
</g>
<g id="wordpress">
</g>
<g id="Layer_179">
</g>
<g id="xing">
</g>
<g id="youtube">
</g>
<g id="whatsapp">
</g>
<g id="flickr">
</g>
<g id="dribbble">
</g>
<g id="facebook">
</g>
<g id="foursquare">
</g>
<g id="github">
</g>
<g id="github-alt">
</g>
<g id="google-plus">
</g>
<g id="google">
</g>
<g id="joomla">
</g>
<g id="soundcloud">
</g>
<g id="instagram">
</g>
<g id="linkedin">
</g>
<g id="pagekit">
</g>
<g id="pinterest">
</g>
<g id="windows">
</g>
<g id="bronzelabs">
</g>
<g id="apple">
</g>
<g id="android">
</g>
<g id="mwkr-alt">
</g>
<g id="mwkr">
	<path d="M32,1.7C15.3,1.7,1.7,15.3,1.7,32c0,16.7,13.6,30.3,30.3,30.3c16.7,0,30.3-13.6,30.3-30.3C62.3,15.3,48.7,1.7,32,1.7z
		 M25.2,36.2c-0.4,0-1.1-0.2-1.4-0.5L17,29.2V39c0,0.9-0.6,1.7-1.5,1.7S14,39.9,14,39V25.1c0-0.2,0.1-0.4,0.2-0.6
		c0.2-0.4,0.5-0.7,0.9-0.9c0.4-0.2,0.9-0.2,1.3,0c0.2,0.1,0.4,0.2,0.6,0.4l8.2,8.2l8.3-8.3c0.7-0.7,1.7-0.7,2.4,0
		c0.7,0.7,0.7,1.7,0,2.4l-9.5,9.5C26.1,36.1,25.6,36.2,25.2,36.2z M50,38.9c0,0.2-0.1,0.4-0.2,0.6c-0.2,0.4-0.5,0.7-0.9,0.9
		c-0.2,0.1-0.4,0.1-0.7,0.1s-0.4,0-0.6-0.1c-0.2-0.1-0.4-0.2-0.6-0.4l-8.2-8.2l-8.3,8.3c-0.3,0.3-0.8,0.5-1.2,0.5
		c-0.4,0-0.9-0.2-1.2-0.5c-0.7-0.7-0.7-1.7,0-2.4l9.5-9.5c0.7-0.7,1.9-0.7,2.6,0l6.8,6.6V25c0-0.9,0.6-1.7,1.5-1.7S50,24.1,50,25
		V38.9z"/>
</g>
<g id="deviantart">
</g>
<g id="deviantart-alt">
</g>
</svg>
