<?xml version="1.0" encoding="utf-8"?>
<!-- Generator: Adobe Illustrator 20.1.0, SVG Export Plug-In . SVG Version: 6.00 Build 0)  -->
<!DOCTYPE svg PUBLIC "-//W3C//DTD SVG 1.1//EN" "http://www.w3.org/Graphics/SVG/1.1/DTD/svg11.dtd">
<svg version="1.1" xmlns="http://www.w3.org/2000/svg" xmlns:xlink="http://www.w3.org/1999/xlink" x="0px" y="0px"
	 viewBox="0 0 64 64" style="enable-background:new 0 0 64 64;" xml:space="preserve">
<g id="camera">
</g>
<g id="video">
</g>
<g id="step-backward">
</g>
<g id="fast-backward">
</g>
<g id="backward">
</g>
<g id="play">
</g>
<g id="stop">
</g>
<g id="pause">
</g>
<g id="record">
</g>
<g id="eject">
</g>
<g id="forward">
</g>
<g id="fast-forward">
</g>
<g id="step-forward">
</g>
<g id="repeat">
</g>
<g id="repeat-one">
</g>
<g id="shuffle">
</g>
<g id="mute">
	<g>
		<path d="M30.7,7.2c-2.1-0.9-4.4-0.5-5.8,1L12.9,20h-5c-2.9,0-5.3,2.5-5.3,5.5l0,12.7c0,1.5,0.6,3,1.6,4C5,43,6.3,44,7.9,44h5
			l12,11.8c1,1,2.3,1.5,3.7,1.5c0.7,0,1.4-0.1,2.1-0.4c2-0.8,3.3-2.8,3.3-5V12.2c0-1.4-0.6-2.8-1.6-3.8C31.9,7.9,31.4,7.5,30.7,7.2z
			 M31,51.8c0,1-0.6,1.9-1.4,2.2c-0.9,0.4-1.9,0.2-2.5-0.4L14.6,41.4c-0.3-0.3-0.7-0.4-1.1-0.4H7.9c-0.5,0-1.1-0.3-1.6-0.9
			c-0.4-0.4-0.7-1.2-0.7-1.9l0-12.7c0-1.3,1.1-2.5,2.3-2.5h5.6c0.4,0,0.8-0.2,1.1-0.4L27,10.3c0.7-0.7,1.8-0.6,2.5-0.3
			c0.3,0.1,0.5,0.3,0.7,0.5c0.4,0.4,0.7,1,0.7,1.6V51.8z"/>
		<path d="M53,32l7.9-7.9c0.6-0.6,0.6-1.5,0-2.1c-0.6-0.6-1.5-0.6-2.1,0l-7.9,7.9L43,21.9c-0.6-0.6-1.5-0.6-2.1,0
			c-0.6,0.6-0.6,1.5,0,2.1l7.9,7.9l-7.9,7.9c-0.6,0.6-0.6,1.5,0,2.1c0.3,0.3,0.7,0.4,1.1,0.4c0.4,0,0.8-0.1,1.1-0.4l7.9-7.9l7.9,7.9
			c0.3,0.3,0.7,0.4,1.1,0.4c0.4,0,0.8-0.1,1.1-0.4c0.6-0.6,0.6-1.5,0-2.1L53,32z"/>
	</g>
</g>
<g id="sound-none">
</g>
<g id="sound-low">
</g>
<g id="sound-high">
</g>
<g id="step-backward-circle">
</g>
<g id="fast-backward-circle">
</g>
<g id="backward-circle">
</g>
<g id="play-circle">
</g>
<g id="stop-circle">
</g>
<g id="pause-circle">
</g>
<g id="record-circle">
</g>
<g id="eject-circle">
</g>
<g id="forward-circle">
</g>
<g id="fast-forward-circle">
</g>
<g id="step-forward-circle">
</g>
</svg>
