<?xml version="1.0" encoding="utf-8"?>
<!-- Generator: Adobe Illustrator 20.1.0, SVG Export Plug-In . SVG Version: 6.00 Build 0)  -->
<!DOCTYPE svg PUBLIC "-//W3C//DTD SVG 1.1//EN" "http://www.w3.org/Graphics/SVG/1.1/DTD/svg11.dtd">
<svg version="1.1" xmlns="http://www.w3.org/2000/svg" xmlns:xlink="http://www.w3.org/1999/xlink" x="0px" y="0px"
	 viewBox="0 0 64 64" style="enable-background:new 0 0 64 64;" xml:space="preserve">
<g id="user">
</g>
<g id="users">
</g>
<g id="comment">
</g>
<g id="commenting">
</g>
<g id="comments">
</g>
<g id="comments-alt">
</g>
<g id="commenting-alt">
</g>
<g id="comment-alt">
</g>
<g id="face-happy">
</g>
<g id="face-ok">
</g>
<g id="face-unhappy">
</g>
<g id="mail">
</g>
<g id="phone">
</g>
<g id="fingerprint">
</g>
<g id="info">
</g>
<g id="question">
</g>
<g id="warning">
</g>
<g id="alert">
</g>
<g id="headset">
</g>
<g id="skull">
</g>
<g id="baby">
</g>
<g id="eye">
</g>
<g id="id-card">
</g>
<g id="microphone">
	<g>
		<path d="M31.5,42.3c6.4,0,11.6-5.2,11.6-11.6V11.6C43.1,5.2,37.9,0,31.5,0S19.9,5.2,19.9,11.6v19.2C19.9,37.1,25.1,42.3,31.5,42.3
			z M22.9,25.2H28c0.8,0,1.5-0.7,1.5-1.5s-0.7-1.5-1.5-1.5h-5.1v-2H28c0.8,0,1.5-0.7,1.5-1.5s-0.7-1.5-1.5-1.5h-5.1v-3H28
			c0.8,0,1.5-0.7,1.5-1.5s-0.7-1.5-1.5-1.5h-5c0.3-4.5,4-8.1,8.6-8.1c4.7,0,8.6,3.9,8.6,8.6v19.2c0,4.7-3.9,8.6-8.6,8.6
			s-8.6-3.9-8.6-8.6V25.2z"/>
		<path d="M55.8,30c0-0.8-0.7-1.5-1.5-1.5s-1.5,0.7-1.5,1.5c0,11.5-9.3,20.8-20.8,20.8S11.2,41.4,11.2,30c0-0.8-0.7-1.5-1.5-1.5
			S8.2,29.2,8.2,30c0,12.4,9.6,22.7,21.8,23.7v8.8c0,0.8,0.7,1.5,1.5,1.5s1.5-0.7,1.5-1.5v-8.8C45.7,53.2,55.8,42.8,55.8,30z"/>
	</g>
</g>
<g id="eye-cross">
</g>
<g id="user-commenting">
</g>
<g id="user-commenting-alt">
</g>
<g id="user-file">
</g>
<g id="user-check">
</g>
<g id="tap">
</g>
<g id="swipe">
</g>
<g id="slide">
</g>
<g id="foot">
</g>
<g id="share-social">
</g>
<g id="ghost">
</g>
</svg>
