<?xml version="1.0" encoding="utf-8"?>
<!-- Generator: Adobe Illustrator 20.1.0, SVG Export Plug-In . SVG Version: 6.00 Build 0)  -->
<!DOCTYPE svg PUBLIC "-//W3C//DTD SVG 1.1//EN" "http://www.w3.org/Graphics/SVG/1.1/DTD/svg11.dtd">
<svg version="1.1" xmlns="http://www.w3.org/2000/svg" xmlns:xlink="http://www.w3.org/1999/xlink" x="0px" y="0px"
	 viewBox="0 0 64 64" style="enable-background:new 0 0 64 64;" xml:space="preserve">
<g id="truck">
</g>
<g id="car">
</g>
<g id="taxi">
</g>
<g id="rocket">
</g>
<g id="tardis">
</g>
<g id="bus">
</g>
<g id="tram">
</g>
<g id="speedo">
</g>
<g id="air-machine">
</g>
<g id="speedo-alt">
</g>
<g id="motorcycle">
	<g>
		<path d="M37.9,23.2c1-1.3,1.6-2.9,1.6-4.7c0-4.1-3.4-7.5-7.5-7.5s-7.5,3.4-7.5,7.5c0,1.8,0.6,3.4,1.6,4.7C21.6,24,18,27.7,18,32
			v16.5c0,2.9,2.8,5.5,6,5.5h2.5v7.3c0,1.5,1.2,2.7,2.7,2.7h5.6c1.5,0,2.7-1.2,2.7-2.7V54H40c3.2,0,6-2.6,6-5.5V32
			C46,27.7,42.4,24,37.9,23.2z M32,14c2.5,0,4.5,2,4.5,4.5S34.5,23,32,23s-4.5-2-4.5-4.5S29.5,14,32,14z M34.5,61h-5V44h5V61z
			 M43,48.5c0,1.3-1.5,2.5-3,2.5h-2.5v-7.3c0-1.5-1.2-2.7-2.7-2.7h-5.6c-1.5,0-2.7,1.2-2.7,2.7V51H24c-1.5,0-3-1.2-3-2.5V32
			c0-3.2,3.3-6,7-6h8c3.7,0,7,2.8,7,6V48.5z"/>
		<path d="M21.5,18.5c0-0.8-0.7-1.5-1.5-1.5h-6c-0.8,0-1.5,0.7-1.5,1.5S13.2,20,14,20h6C20.8,20,21.5,19.3,21.5,18.5z"/>
		<path d="M50,17h-6c-0.8,0-1.5,0.7-1.5,1.5S43.2,20,44,20h6c0.8,0,1.5-0.7,1.5-1.5S50.8,17,50,17z"/>
		<path d="M19,16c0.8,0,1.5-0.7,1.5-1.5C20.5,8.2,25.7,3,32,3c6.3,0,11.5,5.2,11.5,11.5c0,0.8,0.7,1.5,1.5,1.5s1.5-0.7,1.5-1.5
			C46.5,6.5,40,0,32,0S17.5,6.5,17.5,14.5C17.5,15.3,18.2,16,19,16z"/>
		<path d="M39,30h-4c-0.8,0-1.5,0.7-1.5,1.5S34.2,33,35,33h4c0.8,0,1.5-0.7,1.5-1.5S39.8,30,39,30z"/>
	</g>
</g>
<g id="car-battery">
</g>
<g id="ufo">
</g>
<g id="arrivals">
</g>
<g id="petrol-pump">
</g>
<g id="gear-shift">
</g>
<g id="car-battery-alt">
</g>
<g id="road">
</g>
<g id="siren">
</g>
<g id="plane">
</g>
<g id="lorry">
</g>
<g id="train">
</g>
<g id="forklift">
</g>
<g id="bicycle">
</g>
<g id="underground">
</g>
<g id="paper-plane">
</g>
<g id="hotair-balloon">
</g>
</svg>
