<?xml version="1.0" encoding="utf-8"?>
<!-- Generator: Adobe Illustrator 20.1.0, SVG Export Plug-In . SVG Version: 6.00 Build 0)  -->
<!DOCTYPE svg PUBLIC "-//W3C//DTD SVG 1.1//EN" "http://www.w3.org/Graphics/SVG/1.1/DTD/svg11.dtd">
<svg version="1.1" xmlns="http://www.w3.org/2000/svg" xmlns:xlink="http://www.w3.org/1999/xlink" x="0px" y="0px"
	 viewBox="0 0 64 64" style="enable-background:new 0 0 64 64;" xml:space="preserve">
<g id="bulb">
</g>
<g id="bulb-on">
</g>
<g id="bulb-alt">
</g>
<g id="bulb-on-alt">
</g>
<g id="energy-bulb">
</g>
<g id="toasting">
</g>
<g id="toasted">
</g>
<g id="binoculars">
</g>
<g id="gift">
</g>
<g id="shaver">
</g>
<g id="candle">
</g>
<g id="shower">
</g>
<g id="bomb">
</g>
<g id="joystick">
</g>
<g id="megaphone">
	<g>
		<path d="M40.4,13.1c-0.9-2.5-3.6-3.7-6.1-2.9c-1.2,0.4-2.2,1.3-2.7,2.4c-0.4,0.8-0.5,1.7-0.4,2.5L5.5,36.9h-4
			c-0.5,0-0.9,0.2-1.2,0.6C0,38-0.1,38.5,0.1,38.9l4.4,12c0.2,0.5,0.6,0.9,1.1,1c0.1,0,0.2,0,0.3,0c0.4,0,0.9-0.2,1.1-0.5L9.9,48
			l9.2,0v4.5c0,0.8,0.7,1.5,1.5,1.5h13.1c0.8,0,1.5-0.7,1.5-1.5v-4.5l7.6,0c0.9,1.3,2.4,2.2,4,2.2c0.5,0,1.1-0.1,1.6-0.3
			c1.2-0.4,2.2-1.3,2.7-2.4c0.5-1.1,0.6-2.4,0.2-3.6L40.4,13.1z M6.4,47.5l-2.8-7.6h1.5l2.3,6.4L6.4,47.5z M32.3,51H22.2v-3l10.1,0
			V51z M48.5,46.2c-0.2,0.4-0.6,0.7-1,0.9c-0.9,0.3-1.9-0.2-2.3-1.1c-0.2-0.6-0.8-1-1.4-1l-9.6,0c-0.1,0-0.3-0.1-0.4-0.1H20.7
			c-0.1,0-0.3,0-0.4,0.1l-10,0L8,38.8l25.8-21.8c0.5-0.4,0.7-1.1,0.4-1.6c-0.2-0.4-0.1-0.9,0.1-1.3c0.2-0.4,0.6-0.7,1-0.9
			c0.9-0.3,1.9,0.2,2.3,1.1l11,30.8C48.7,45.3,48.7,45.8,48.5,46.2z"/>
		<path d="M47.5,22c0.3,0,0.7-0.1,0.9-0.3l7.9-6.4c0.6-0.5,0.7-1.5,0.2-2.1C56,12.6,55,12.5,54.4,13l-7.9,6.4
			c-0.6,0.5-0.7,1.5-0.2,2.1C46.6,21.8,47,22,47.5,22z"/>
		<path d="M49.4,28.1c0.2,0.6,0.8,1,1.4,1c0.2,0,0.4,0,0.5-0.1l9.3-3.6c0.8-0.3,1.2-1.2,0.9-1.9s-1.2-1.2-1.9-0.9l-9.3,3.6
			C49.5,26.5,49.1,27.4,49.4,28.1z"/>
		<path d="M62.5,32.9H52.4c-0.8,0-1.5,0.7-1.5,1.5s0.7,1.5,1.5,1.5h10.1c0.8,0,1.5-0.7,1.5-1.5S63.3,32.9,62.5,32.9z"/>
	</g>
</g>
<g id="chestdraw">
</g>
<g id="armchair">
</g>
<g id="cardboard-box">
</g>
<g id="bath-shower">
</g>
<g id="diamond">
</g>
<g id="cassette">
</g>
<g id="iron">
</g>
<g id="wash">
</g>
<g id="keyboard-keys">
</g>
<g id="earphones">
</g>
<g id="lifebuoy">
</g>
<g id="calculator">
</g>
<g id="safe">
</g>
<g id="balloon">
</g>
<g id="cake">
</g>
<g id="baseball">
</g>
<g id="football-american">
</g>
<g id="football">
</g>
<g id="anchor">
</g>
<g id="compact-disc">
</g>
<g id="bbq">
</g>
<g id="coffee-machine">
</g>
<g id="teapot">
</g>
<g id="outdoor-stove">
</g>
<g id="pram">
</g>
<g id="paintbrush">
</g>
<g id="stamp">
</g>
<g id="eyedrop">
</g>
<g id="musical-note">
</g>
<g id="magnet">
</g>
<g id="alarm-bell">
</g>
<g id="globe">
</g>
<g id="key">
</g>
<g id="ink">
</g>
<g id="paperclip">
</g>
<g id="paint-roller">
</g>
<g id="keyboard">
</g>
</svg>
