<?xml version="1.0" encoding="utf-8"?>
<!-- Generator: Adobe Illustrator 20.1.0, SVG Export Plug-In . SVG Version: 6.00 Build 0)  -->
<!DOCTYPE svg PUBLIC "-//W3C//DTD SVG 1.1//EN" "http://www.w3.org/Graphics/SVG/1.1/DTD/svg11.dtd">
<svg version="1.1" xmlns="http://www.w3.org/2000/svg" xmlns:xlink="http://www.w3.org/1999/xlink" x="0px" y="0px"
	 viewBox="0 0 64 64" style="enable-background:new 0 0 64 64;" xml:space="preserve">
<g id="bulb">
</g>
<g id="bulb-on">
</g>
<g id="bulb-alt">
</g>
<g id="bulb-on-alt">
</g>
<g id="energy-bulb">
</g>
<g id="toasting">
</g>
<g id="toasted">
</g>
<g id="binoculars">
</g>
<g id="gift">
</g>
<g id="shaver">
</g>
<g id="candle">
</g>
<g id="shower">
</g>
<g id="bomb">
</g>
<g id="joystick">
</g>
<g id="megaphone">
</g>
<g id="chestdraw">
</g>
<g id="armchair">
</g>
<g id="cardboard-box">
</g>
<g id="bath-shower">
</g>
<g id="diamond">
</g>
<g id="cassette">
</g>
<g id="iron">
</g>
<g id="wash">
</g>
<g id="keyboard-keys">
</g>
<g id="earphones">
</g>
<g id="lifebuoy">
</g>
<g id="calculator">
</g>
<g id="safe">
</g>
<g id="balloon">
</g>
<g id="cake">
</g>
<g id="baseball">
</g>
<g id="football-american">
</g>
<g id="football">
</g>
<g id="anchor">
</g>
<g id="compact-disc">
</g>
<g id="bbq">
</g>
<g id="coffee-machine">
</g>
<g id="teapot">
</g>
<g id="outdoor-stove">
</g>
<g id="pram">
</g>
<g id="paintbrush">
</g>
<g id="stamp">
</g>
<g id="eyedrop">
</g>
<g id="musical-note">
	<path d="M55.8,0.3c-0.4-0.3-0.9-0.3-1.4-0.2L24.7,11.9c-0.6,0.2-0.9,0.8-0.9,1.4v31.5h-7.2c-5.1,0-9,4.2-9,9.7c0,5.4,3.9,9.6,9,9.6
		c5.4,0,10.1-4.2,10.1-9v-6.1v-2.6V25l26.7-10.4v19.7h-5.7c-5.4,0-10.2,4.5-10.2,9.6c0,5.1,4.6,9.5,10,9.5c5.1,0,8.9-3.9,8.9-9v-3.9
		v-4.8V1.5C56.4,1,56.2,0.5,55.8,0.3z M23.8,55c0,3.1-3.4,6-7.1,6c-3.5,0-6-2.8-6-6.6c0-3.3,2.1-6.7,6-6.7h7.2v1.1V55z M26.8,21.7
		v-7.4L53.4,3.7v7.6L26.8,21.7z M53.4,44.3c0,3-2,6-5.9,6c-3.8,0-7-3-7-6.5c0-3.5,3.4-6.6,7.2-6.6h5.7v3.2V44.3z"/>
</g>
<g id="magnet">
</g>
<g id="alarm-bell">
</g>
<g id="globe">
</g>
<g id="key">
</g>
<g id="ink">
</g>
<g id="paperclip">
</g>
<g id="paint-roller">
</g>
<g id="keyboard">
</g>
</svg>
