<?xml version="1.0" encoding="utf-8"?>
<!-- Generator: Adobe Illustrator 20.1.0, SVG Export Plug-In . SVG Version: 6.00 Build 0)  -->
<!DOCTYPE svg PUBLIC "-//W3C//DTD SVG 1.1//EN" "http://www.w3.org/Graphics/SVG/1.1/DTD/svg11.dtd">
<svg version="1.1" xmlns="http://www.w3.org/2000/svg" xmlns:xlink="http://www.w3.org/1999/xlink" x="0px" y="0px"
	 viewBox="0 0 64 64" style="enable-background:new 0 0 64 64;" xml:space="preserve">
<g id="file">
</g>
<g id="copy">
</g>
<g id="file-edit">
</g>
<g id="folder">
</g>
<g id="subdirectory">
</g>
<g id="album">
</g>
<g id="push">
</g>
<g id="pull">
</g>
<g id="database">
</g>
<g id="server">
</g>
<g id="upload">
</g>
<g id="download">
</g>
<g id="cloud-download">
</g>
<g id="cloud-upload">
</g>
<g id="cloud">
</g>
<g id="cloud-no-access">
</g>
<g id="cloud-signal-up">
</g>
<g id="cloud-signal-down">
</g>
<g id="checklist">
</g>
<g id="file-folded">
</g>
<g id="file-folded-text">
</g>
<g id="inbox">
</g>
<g id="zip-folder">
</g>
<g id="image-folder">
</g>
<g id="image-album">
</g>
<g id="image">
</g>
<g id="images">
</g>
<g id="invoice">
</g>
<g id="book">
</g>
<g id="layers">
</g>
<g id="media-upload">
	<g>
		<path d="M62.5,58.1h-29v-9.5h16.9c4.2,0,7.6-3.5,7.6-7.8s-3.4-7.8-7.6-7.8H13.6c-4.2,0-7.6,3.5-7.6,7.8s3.4,7.8,7.6,7.8h16.9v9.5
			h-29c-0.8,0-1.5,0.7-1.5,1.5s0.7,1.5,1.5,1.5h61c0.8,0,1.5-0.7,1.5-1.5S63.3,58.1,62.5,58.1z M9,40.8c0-2.6,2.1-4.8,4.6-4.8h36.7
			c2.5,0,4.6,2.2,4.6,4.8s-2.1,4.8-4.6,4.8H13.6C11.1,45.6,9,43.4,9,40.8z"/>
		<ellipse cx="46.4" cy="40.6" rx="2" ry="2.1"/>
		<ellipse cx="38.2" cy="40.6" rx="2" ry="2.1"/>
		<path d="M26,12.6L30.5,8l0,18.8c0,0.8,0.7,1.5,1.5,1.5c0,0,0,0,0,0c0.8,0,1.5-0.7,1.5-1.5l0-18.8l4.5,4.6c0.3,0.3,0.7,0.4,1.1,0.4
			c0.4,0,0.8-0.1,1.1-0.4c0.6-0.6,0.6-1.5,0-2.1l-7.1-7.1c0,0,0,0,0,0c-0.3-0.3-0.6-0.4-1-0.4c0,0,0,0,0,0c-0.4,0-0.8,0.2-1.1,0.5
			l-7,7.1c-0.6,0.6-0.6,1.5,0,2.1C24.5,13.2,25.4,13.2,26,12.6z"/>
	</g>
</g>
<g id="addresses">
</g>
<g id="floppy">
</g>
<g id="link">
</g>
<g id="link-add">
</g>
<g id="link-remove">
</g>
<g id="table">
</g>
<g id="download-book">
</g>
<g id="clipboard">
</g>
<g id="clipboard-chart">
</g>
<g id="clipboard-text">
</g>
<g id="clipboard-check">
</g>
<g id="clipboard-cross">
</g>
<g id="bookmark">
</g>
<g id="bookmark-add">
</g>
<g id="bookmark-remove">
</g>
<g id="clipboard-horizontal">
</g>
<g id="clipboard-text-horizontal">
</g>
<g id="trash">
</g>
<g id="unlock">
</g>
<g id="lock">
</g>
<g id="link-add-circle">
</g>
<g id="link-remove-circle">
</g>
<g id="sort-up">
</g>
<g id="sort-down">
</g>
<g id="list">
</g>
</svg>
