<?xml version="1.0" encoding="utf-8"?>
<!-- Generator: Adobe Illustrator 20.1.0, SVG Export Plug-In . SVG Version: 6.00 Build 0)  -->
<!DOCTYPE svg PUBLIC "-//W3C//DTD SVG 1.1//EN" "http://www.w3.org/Graphics/SVG/1.1/DTD/svg11.dtd">
<svg version="1.1" xmlns="http://www.w3.org/2000/svg" xmlns:xlink="http://www.w3.org/1999/xlink" x="0px" y="0px"
	 viewBox="0 0 64 64" style="enable-background:new 0 0 64 64;" xml:space="preserve">
<g id="text-height">
</g>
<g id="font">
</g>
<g id="text">
</g>
<g id="italic">
</g>
<g id="strikethrough">
</g>
<g id="paragraph">
</g>
<g id="bold">
</g>
<g id="quote-right">
</g>
<g id="hashtag">
</g>
<g id="anchor-handle">
</g>
<g id="box">
</g>
<g id="fullscreen">
</g>
<g id="fullscreen-alt">
</g>
<g id="golden-ratio">
</g>
<g id="hexgrid">
</g>
<g id="box-points">
</g>
<g id="box-points-move">
</g>
<g id="box-points-move-alt">
</g>
<g id="hex_1_">
</g>
<g id="hex-diamond">
</g>
<g id="artboards-vertical">
</g>
<g id="artboards">
</g>
<g id="artboards-alt-vertical">
</g>
<g id="artboards-alt">
</g>
<g id="scale">
</g>
<g id="pencil">
</g>
<g id="fill">
</g>
<g id="artist-mug">
</g>
<g id="pen">
</g>
<g id="calligraphy-pen-tip">
</g>
<g id="calligraphy-pen_1_">
</g>
<g id="paint-pallette">
</g>
<g id="tools-cross">
</g>
<g id="edit-tools">
</g>
<g id="pencil-ruler">
</g>
<g id="ruler-measure">
</g>
<g id="measure">
</g>
<g id="code">
</g>
<g id="move">
	<g>
		<path d="M62.4,0H15.5C14.6,0,14,0.7,14,1.5v47.1c0,0.8,0.7,1.5,1.5,1.5h46.9c0.8,0,1.5-0.7,1.5-1.5V1.5C63.9,0.7,63.2,0,62.4,0z
			 M60.9,47.1H17V3h43.9V47.1z"/>
		<path d="M8.5,13.9H1.6c-0.8,0-1.5,0.7-1.5,1.5v7c0,0.8,0.7,1.5,1.5,1.5s1.5-0.7,1.5-1.5v-5.5h5.4c0.8,0,1.5-0.7,1.5-1.5
			S9.4,13.9,8.5,13.9z"/>
		<path d="M1.6,48.5c0.8,0,1.5-0.7,1.5-1.5V32c0-0.8-0.7-1.5-1.5-1.5S0.1,31.2,0.1,32v15C0.1,47.8,0.8,48.5,1.6,48.5z"/>
		<path d="M8.5,61H3.1v-5.5c0-0.8-0.7-1.5-1.5-1.5s-1.5,0.7-1.5,1.5v7c0,0.8,0.7,1.5,1.5,1.5h6.9c0.8,0,1.5-0.7,1.5-1.5
			S9.4,61,8.5,61z"/>
		<path d="M32,61H17.1c-0.8,0-1.5,0.7-1.5,1.5s0.7,1.5,1.5,1.5H32c0.8,0,1.5-0.7,1.5-1.5S32.8,61,32,61z"/>
		<path d="M48.5,54c-0.8,0-1.5,0.7-1.5,1.5V61h-6.5c-0.8,0-1.5,0.7-1.5,1.5s0.7,1.5,1.5,1.5h8c0.8,0,1.5-0.7,1.5-1.5v-7
			C50,54.7,49.4,54,48.5,54z"/>
	</g>
</g>
<g id="external">
</g>
<g id="terminal">
</g>
<g id="thumbnails">
</g>
</svg>
