<?xml version="1.0" encoding="utf-8"?>
<!-- Generator: Adobe Illustrator 20.1.0, SVG Export Plug-In . SVG Version: 6.00 Build 0)  -->
<!DOCTYPE svg PUBLIC "-//W3C//DTD SVG 1.1//EN" "http://www.w3.org/Graphics/SVG/1.1/DTD/svg11.dtd">
<svg version="1.1" xmlns="http://www.w3.org/2000/svg" xmlns:xlink="http://www.w3.org/1999/xlink" x="0px" y="0px"
	 viewBox="0 0 64 64" style="enable-background:new 0 0 64 64;" xml:space="preserve">
<style type="text/css">
	.st0{fill:none;stroke:#000000;stroke-width:3;stroke-linecap:round;stroke-linejoin:round;}
</style>
<g id="cupcake">
</g>
<g id="turkey">
</g>
<g id="hot-service">
</g>
<g id="mug">
	<g>
		<path d="M41,48H12c-0.8,0-1.5,0.7-1.5,1.5S11.2,51,12,51h29c0.8,0,1.5-0.7,1.5-1.5S41.8,48,41,48z"/>
		<path d="M56.2,19h-3.1c0-0.2-0.1-0.4-0.1-0.6v-3.9c0-0.8-0.7-1.5-1.5-1.5h-50C0.7,13,0,13.7,0,14.5v3.9C0,33.1,12,45,26.7,45
			c8.1,0,15.8-3.7,20.9-10h8.6c4.2,0,7.8-3.7,7.8-8S60.4,19,56.2,19z M26.7,42C13.7,42,3,31.4,3,18.4V16h47v2.4c0,0.4,0,0.7,0.1,1.1
			c0,0.3,0.1,0.6,0.1,0.9c-0.4,4.6-1.8,8.5-4.1,11.8C41.5,38.3,34.3,42,26.7,42z M56.2,32h-6.5c1.7-2.9,2.8-6.3,3.3-10h3.2
			c2.6,0,4.8,2.3,4.8,5S58.8,32,56.2,32z"/>
	</g>
</g>
<g id="mug-hot">
</g>
<g id="bottle">
</g>
<g id="cherries">
</g>
<g id="cocktail">
</g>
<g id="cocktail-alt">
</g>
<g id="wine-glass">
</g>
<g id="wine-glass-alt">
</g>
<g id="aubergine">
</g>
<g id="lettuce-leaf">
</g>
<g id="cup">
</g>
<g id="noodles">
</g>
<g id="icelolly">
</g>
<g id="cutlery">
</g>
<g id="hotdog">
</g>
</svg>
