<?xml version="1.0" encoding="utf-8"?>
<!-- Generator: Adobe Illustrator 20.1.0, SVG Export Plug-In . SVG Version: 6.00 Build 0)  -->
<!DOCTYPE svg PUBLIC "-//W3C//DTD SVG 1.1//EN" "http://www.w3.org/Graphics/SVG/1.1/DTD/svg11.dtd">
<svg version="1.1" xmlns="http://www.w3.org/2000/svg" xmlns:xlink="http://www.w3.org/1999/xlink" x="0px" y="0px"
	 viewBox="0 0 64 64" style="enable-background:new 0 0 64 64;" xml:space="preserve">
<style type="text/css">
	.st0{fill:none;stroke:#000000;stroke-width:3;stroke-linecap:round;stroke-linejoin:round;}
</style>
<g id="cupcake">
</g>
<g id="turkey">
</g>
<g id="hot-service">
</g>
<g id="mug">
</g>
<g id="mug-hot">
</g>
<g id="bottle">
</g>
<g id="cherries">
</g>
<g id="cocktail">
</g>
<g id="cocktail-alt">
</g>
<g id="wine-glass">
</g>
<g id="wine-glass-alt">
</g>
<g id="aubergine">
</g>
<g id="lettuce-leaf">
</g>
<g id="cup">
</g>
<g id="noodles">
	<g>
		<path d="M52,38.7c0.2-0.1,0.4-0.2,0.5-0.4L63.2,33c0.7-0.4,1-1.3,0.7-2s-1.3-1-2-0.7L52,35.2c-4.3-8-12.1-13.1-20.3-13.1
			c-10.5,0-19.2,7-21.6,17.1H6.2c-3.5,0-6.2,2.6-6.2,6c0,1.4,0.8,2.6,1.6,3.4L8,55.4v0.8c0,3.5,2.4,5.9,5.8,5.9h35.9
			c3.5,0,6.3-2.6,6.3-5.9v-0.8l6.2-7c0.9-1,1.3-2.1,1.3-3.3c0-3.4-2.7-6-6.2-6h-5.7c-0.1-0.1-0.1-0.2-0.2-0.3l0.1-0.1
			C51.6,38.8,51.8,38.7,52,38.7z M43.3,39.2c-2.2-4.9-6.5-7.9-11.5-7.9c-5.5,0-9.3,2.6-11.6,7.9H18c1.9-5.9,7.1-9.6,13.8-9.6
			c5.5,0,10.8,3.6,13.6,8.9l-0.9,0.4c-0.1,0.1-0.3,0.2-0.4,0.3H43.3z M39.9,39.2H23.4c1.8-3.4,4.4-4.9,8.3-4.9
			C35.2,34.3,38.1,36,39.9,39.2z M31.7,25.1c7.1,0,13.8,4.4,17.6,11.4L48,37.1c-3.3-6.3-9.7-10.6-16.3-10.6
			c-8.3,0-14.9,4.9-16.9,12.6h-1.7C15.5,30.8,22.8,25.1,31.7,25.1z M57.3,42.2c1.8,0,3.2,1.3,3.2,3c0,0.4-0.1,0.8-0.6,1.3l-6.6,7.4
			c-0.2,0.3-0.4,0.6-0.4,1v1.4c0,1.7-1.4,2.9-3.3,2.9H13.8c-1.7,0-2.8-1.1-2.8-2.9v-1.4c0-0.4-0.1-0.7-0.4-1l-6.8-7.3
			c-0.4-0.4-0.8-1-0.8-1.4c0-1.7,1.4-3,3.2-3H11h0.3H50H57.3z"/>
		<path d="M41.4,20.1c0.8,0,1.5-0.7,1.5-1.5c0-0.3-0.1-0.5-0.1-0.6h0c0-0.1,0-0.2-0.1-0.3v0c-0.5-1.1,0.1-2.6,0.8-4.3
			c0.9-2.1,2.1-5,0.8-8.1c-0.3-0.8-1.2-1.1-2-0.8c-0.8,0.3-1.1,1.2-0.8,2c0.8,1.7,0.1,3.4-0.8,5.7c-0.7,1.8-1.7,4.2-0.9,6.5
			C40,19.5,40.6,20.1,41.4,20.1z"/>
		<path d="M30.4,17.4c0.8,0,1.5-0.7,1.5-1.5c0-0.2,0-0.4-0.1-0.6l0,0c0-0.1,0-0.2-0.1-0.3c-0.5-1.1,0.1-2.6,0.8-4.3
			c0.9-2.1,2.1-5,0.8-8.1C33,2,32.1,1.6,31.4,2c-0.8,0.3-1.1,1.2-0.8,2c0.8,1.7,0.1,3.4-0.8,5.7c-0.7,1.7-1.7,4.1-0.9,6.4
			C29,16.8,29.6,17.4,30.4,17.4z"/>
		<path d="M19.6,21.3c0.8,0,1.5-0.7,1.5-1.5c0-0.2,0-0.4-0.1-0.6h0c0-0.1,0-0.2-0.1-0.3c-0.5-1.1,0.1-2.6,0.8-4.3
			c0.9-2.1,2.1-5,0.8-8.1c-0.3-0.8-1.2-1.1-2-0.8c-0.8,0.3-1.1,1.2-0.8,2c0.8,1.7,0.1,3.4-0.8,5.7c-0.7,1.7-1.7,4.1-0.9,6.4
			C18.2,20.7,18.9,21.3,19.6,21.3z"/>
	</g>
</g>
<g id="icelolly">
</g>
<g id="cutlery">
</g>
<g id="hotdog">
</g>
</svg>
