<?xml version="1.0" encoding="utf-8"?>
<!-- Generator: Adobe Illustrator 20.1.0, SVG Export Plug-In . SVG Version: 6.00 Build 0)  -->
<!DOCTYPE svg PUBLIC "-//W3C//DTD SVG 1.1//EN" "http://www.w3.org/Graphics/SVG/1.1/DTD/svg11.dtd">
<svg version="1.1" xmlns="http://www.w3.org/2000/svg" xmlns:xlink="http://www.w3.org/1999/xlink" x="0px" y="0px"
	 viewBox="0 0 64 64" style="enable-background:new 0 0 64 64;" xml:space="preserve">
<g id="desktop">
</g>
<g id="tablet">
</g>
<g id="tablet-landscape">
</g>
<g id="desktop-alt">
</g>
<g id="smartphone">
</g>
<g id="smartphone-landscape">
</g>
<g id="laptop">
</g>
<g id="laptops">
</g>
<g id="desktops">
</g>
<g id="printer">
</g>
<g id="smartphones">
</g>
<g id="smartphone-mail">
</g>
<g id="smartphone-search">
</g>
<g id="desktop-chart">
</g>
<g id="pc">
</g>
<g id="remote-control-alt">
</g>
<g id="remote-control">
</g>
<g id="smartphone-signal">
</g>
<g id="battery-charge">
</g>
<g id="battery-charge-half">
</g>
<g id="battery-charge-full">
</g>
<g id="battery-charging">
</g>
<g id="filter">
</g>
<g id="network-web">
</g>
<g id="chip">
</g>
<g id="preferences-box">
</g>
<g id="preferences-vertical-box">
</g>
<g id="preferences-vertical-box-alt">
</g>
<g id="preferences-box-alt">
</g>
<g id="preferences">
</g>
<g id="preferences-vertical">
</g>
<g id="preferences-vertical-alt">
</g>
<g id="preferences-alt">
</g>
<g id="bluetooth">
</g>
<g id="signal-strength">
</g>
<g id="signal-no">
</g>
<g id="signal-tower-no">
</g>
<g id="signal-tower">
</g>
<g id="signal-no-alt">
</g>
<g id="nut">
</g>
<g id="cogs">
</g>
<g id="cog">
</g>
<g id="cog-dash-left">
</g>
<g id="cog-dash-right">
</g>
<g id="cog-fall">
</g>
<g id="io">
</g>
<g id="browser">
</g>
<g id="browser-add">
</g>
<g id="rss">
</g>
<g id="no-access">
</g>
<g id="notification">
	<path d="M56.1,43.4c-0.5-1-1-2-1.3-2.8c-1.6-4.2-2.2-7.7-3.9-19.3l0-0.2c-1.2-8.7-2.4-14.2-8.3-18.5C38.5-0.3,32.5,0,31.8,0h-0.5
		c-2.4,0-6.9,0.3-10.1,2.6c-5.8,4.3-7,10.1-8.2,18.4c-1.8,12.3-2.2,15.4-3.9,19.6c-0.3,0.9-0.8,1.9-1.4,3C6.4,46.2,5,49.3,5,52
		c0,0.8,0.7,1.5,1.5,1.5h14.6c0,0.1,0,0.2,0,0.2c0,5.9,4.5,10.3,10.6,10.3c6,0,10.5-4.4,10.5-10.3c0-0.1,0-0.2,0-0.2h15.3
		c0.8,0,1.5-0.7,1.5-1.5C59,49.2,57.5,46.1,56.1,43.4z M39.2,53.7c0,4.2-3.2,7.3-7.5,7.3c-4.3,0-7.6-3.1-7.6-7.3c0-0.1,0-0.2,0-0.2
		h15.2C39.2,53.6,39.2,53.6,39.2,53.7z M8.2,50.5c0.4-1.8,1.4-3.8,2.3-5.6c0.6-1.1,1.1-2.2,1.5-3.2c1.8-4.6,2.4-8.2,4.1-20.2
		c1.3-9.3,2.6-13.2,7-16.4c2.5-1.8,6.3-2,8.4-2h0.5c0,0,0.1,0,0.1,0c0.1,0,5.6-0.3,8.9,2.1c4.7,3.4,5.8,7.9,7.1,16.5l0,0.2
		c1.8,11.9,2.3,15.5,4.1,20c0.4,0.9,0.9,1.9,1.4,3c0.9,1.9,2,3.9,2.4,5.7H8.2z"/>
</g>
<g id="devices">
</g>
<g id="notification-alert">
</g>
</svg>
