<?xml version="1.0" encoding="utf-8"?>
<!-- Generator: Adobe Illustrator 20.1.0, SVG Export Plug-In . SVG Version: 6.00 Build 0)  -->
<!DOCTYPE svg PUBLIC "-//W3C//DTD SVG 1.1//EN" "http://www.w3.org/Graphics/SVG/1.1/DTD/svg11.dtd">
<svg version="1.1" xmlns="http://www.w3.org/2000/svg" xmlns:xlink="http://www.w3.org/1999/xlink" x="0px" y="0px"
	 viewBox="0 0 64 64" style="enable-background:new 0 0 64 64;" xml:space="preserve">
<g id="desktop">
</g>
<g id="tablet">
</g>
<g id="tablet-landscape">
</g>
<g id="desktop-alt">
</g>
<g id="smartphone">
</g>
<g id="smartphone-landscape">
</g>
<g id="laptop">
</g>
<g id="laptops">
</g>
<g id="desktops">
</g>
<g id="printer">
</g>
<g id="smartphones">
</g>
<g id="smartphone-mail">
</g>
<g id="smartphone-search">
</g>
<g id="desktop-chart">
</g>
<g id="pc">
</g>
<g id="remote-control-alt">
</g>
<g id="remote-control">
</g>
<g id="smartphone-signal">
</g>
<g id="battery-charge">
</g>
<g id="battery-charge-half">
</g>
<g id="battery-charge-full">
</g>
<g id="battery-charging">
</g>
<g id="filter">
</g>
<g id="network-web">
	<path d="M32,0C14.4,0,0.1,14.4,0.1,32S14.4,64,32,64s31.9-14.4,31.9-32S49.6,0,32,0z M56.6,47.2H45.2c1.9-4.3,2.9-8.9,3.1-13.7
		h12.6C60.6,38.5,59.1,43.2,56.6,47.2z M32,60.3c-3.4-3-6.2-6.4-8.3-10.1h16.7C38.2,53.8,35.4,57.2,32,60.3z M22,47.2
		c-2-4.3-3.1-8.9-3.3-13.7h26.6c-0.2,4.8-1.3,9.4-3.4,13.7H22z M3.1,33.5h12.6c0.2,4.8,1.2,9.4,3,13.7H7.4
		C4.9,43.2,3.4,38.5,3.1,33.5z M7.4,16.8h11.3c-1.8,4.3-2.8,8.9-3,13.7H3.1C3.4,25.5,4.9,20.8,7.4,16.8z M32,3.7
		c3.4,2.9,6.3,6.3,8.4,10.1H23.6C25.7,10.1,28.6,6.7,32,3.7z M42,16.8c2,4.3,3.1,8.9,3.3,13.7H18.7c0.2-4.8,1.3-9.4,3.3-13.7H42z
		 M48.3,30.5c-0.2-4.7-1.2-9.4-3-13.7h11.3c2.5,4,4,8.7,4.2,13.7H48.3z M54.5,13.8H43.8c-2-3.9-4.7-7.4-7.9-10.5
		C43.4,4.3,50,8.2,54.5,13.8z M28.1,3.3c-3.2,3.1-5.9,6.7-7.9,10.5H9.5C14,8.2,20.6,4.3,28.1,3.3z M9.5,50.2h10.7
		c2,3.8,4.6,7.4,7.9,10.5C20.6,59.7,14,55.8,9.5,50.2z M35.8,60.7c3.3-3.2,5.9-6.8,8-10.6h10.7C50,55.8,43.3,59.7,35.8,60.7z"/>
</g>
<g id="chip">
</g>
<g id="preferences-box">
</g>
<g id="preferences-vertical-box">
</g>
<g id="preferences-vertical-box-alt">
</g>
<g id="preferences-box-alt">
</g>
<g id="preferences">
</g>
<g id="preferences-vertical">
</g>
<g id="preferences-vertical-alt">
</g>
<g id="preferences-alt">
</g>
<g id="bluetooth">
</g>
<g id="signal-strength">
</g>
<g id="signal-no">
</g>
<g id="signal-tower-no">
</g>
<g id="signal-tower">
</g>
<g id="signal-no-alt">
</g>
<g id="nut">
</g>
<g id="cogs">
</g>
<g id="cog">
</g>
<g id="cog-dash-left">
</g>
<g id="cog-dash-right">
</g>
<g id="cog-fall">
</g>
<g id="io">
</g>
<g id="browser">
</g>
<g id="browser-add">
</g>
<g id="rss">
</g>
<g id="no-access">
</g>
<g id="notification">
</g>
<g id="devices">
</g>
<g id="notification-alert">
</g>
</svg>
