<?xml version="1.0" encoding="utf-8"?>
<!-- Generator: Adobe Illustrator 20.1.0, SVG Export Plug-In . SVG Version: 6.00 Build 0)  -->
<!DOCTYPE svg PUBLIC "-//W3C//DTD SVG 1.1//EN" "http://www.w3.org/Graphics/SVG/1.1/DTD/svg11.dtd">
<svg version="1.1" xmlns="http://www.w3.org/2000/svg" xmlns:xlink="http://www.w3.org/1999/xlink" x="0px" y="0px"
	 viewBox="0 0 64 64" style="enable-background:new 0 0 64 64;" xml:space="preserve">
<g id="dial">
</g>
<g id="dial-alt">
</g>
<g id="connections">
</g>
<g id="atom">
</g>
<g id="atom-alt">
</g>
<g id="cosmic">
</g>
<g id="cosmic-alt">
</g>
<g id="workflows">
</g>
<g id="positive">
</g>
<g id="neuron">
	<path d="M54.1,15.6c4.3,0,7.8-3.5,7.8-7.8S58.4,0,54.1,0c-4.3,0-7.8,3.5-7.8,7.8c0,1.9,0.7,3.6,1.8,5L33.6,30.7
		c-1.4-0.8-3-1.2-4.7-1.2c-1.5,0-3,0.4-4.3,1L14.4,17.7c0.8-1,1.3-2.2,1.3-3.6c0-3.1-2.6-5.7-5.7-5.7c-3.1,0-5.7,2.6-5.7,5.7
		s2.6,5.7,5.7,5.7c0.7,0,1.4-0.1,2-0.4l10.1,12.7c-1.9,1.8-3.1,4.4-3.1,7.2c0,1.5,0.4,3,1,4.3l-8.4,6.1c-1-0.8-2.3-1.3-3.7-1.3
		c-3.1,0-5.7,2.6-5.7,5.7c0,3.1,2.6,5.7,5.7,5.7c3.1,0,5.7-2.6,5.7-5.7c0-0.7-0.1-1.3-0.3-1.9l8.4-6.1c1.8,1.9,4.4,3.2,7.2,3.2
		c2.5,0,4.9-1,6.6-2.5l11.6,8.7c-0.5,0.9-0.8,1.8-0.8,2.9c0,3.1,2.6,5.7,5.7,5.7s5.7-2.6,5.7-5.7c0-3.1-2.6-5.7-5.7-5.7
		c-1,0-1.9,0.2-2.7,0.7l-11.9-8.9c0.9-1.5,1.4-3.2,1.4-5c0-2.7-1.1-5.1-2.8-6.9l14.4-17.8C51.5,15.3,52.7,15.6,54.1,15.6z M7.2,14.1
		c0-1.5,1.2-2.7,2.7-2.7c1.5,0,2.7,1.2,2.7,2.7s-1.2,2.7-2.7,2.7C8.4,16.8,7.2,15.6,7.2,14.1z M7.8,56.8c-1.5,0-2.7-1.2-2.7-2.7
		c0-1.5,1.2-2.7,2.7-2.7c1.5,0,2.7,1.2,2.7,2.7C10.5,55.6,9.3,56.8,7.8,56.8z M54.1,3c2.7,0,4.8,2.2,4.8,4.8s-2.2,4.8-4.8,4.8
		s-4.8-2.2-4.8-4.8S51.4,3,54.1,3z M28.8,46.3c-3.8,0-6.9-3.1-6.9-6.9c0-3.8,3.1-6.9,6.9-6.9s6.9,3.1,6.9,6.9
		C35.8,43.2,32.7,46.3,28.8,46.3z M54.7,58.3c0,1.5-1.2,2.7-2.7,2.7s-2.7-1.2-2.7-2.7c0-1.5,1.2-2.7,2.7-2.7S54.7,56.8,54.7,58.3z"
		/>
</g>
<g id="sitemap">
</g>
<g id="conditional">
</g>
<g id="sitemap-alt">
</g>
<g id="neuron-alt">
</g>
<g id="flask">
</g>
<g id="clone">
</g>
<g id="infinity">
</g>
<g id="f42">
</g>
</svg>
