<?xml version="1.0" encoding="utf-8"?>
<!-- Generator: Adobe Illustrator 20.1.0, SVG Export Plug-In . SVG Version: 6.00 Build 0)  -->
<!DOCTYPE svg PUBLIC "-//W3C//DTD SVG 1.1//EN" "http://www.w3.org/Graphics/SVG/1.1/DTD/svg11.dtd">
<svg version="1.1" xmlns="http://www.w3.org/2000/svg" xmlns:xlink="http://www.w3.org/1999/xlink" x="0px" y="0px"
	 viewBox="0 0 64 64" style="enable-background:new 0 0 64 64;" xml:space="preserve">
<g id="desktop">
</g>
<g id="tablet">
</g>
<g id="tablet-landscape">
</g>
<g id="desktop-alt">
</g>
<g id="smartphone">
</g>
<g id="smartphone-landscape">
</g>
<g id="laptop">
</g>
<g id="laptops">
</g>
<g id="desktops">
</g>
<g id="printer">
</g>
<g id="smartphones">
</g>
<g id="smartphone-mail">
</g>
<g id="smartphone-search">
</g>
<g id="desktop-chart">
</g>
<g id="pc">
</g>
<g id="remote-control-alt">
</g>
<g id="remote-control">
</g>
<g id="smartphone-signal">
</g>
<g id="battery-charge">
</g>
<g id="battery-charge-half">
</g>
<g id="battery-charge-full">
</g>
<g id="battery-charging">
</g>
<g id="filter">
</g>
<g id="network-web">
</g>
<g id="chip">
</g>
<g id="preferences-box">
</g>
<g id="preferences-vertical-box">
</g>
<g id="preferences-vertical-box-alt">
</g>
<g id="preferences-box-alt">
</g>
<g id="preferences">
</g>
<g id="preferences-vertical">
</g>
<g id="preferences-vertical-alt">
</g>
<g id="preferences-alt">
</g>
<g id="bluetooth">
</g>
<g id="signal-strength">
</g>
<g id="signal-no">
</g>
<g id="signal-tower-no">
</g>
<g id="signal-tower">
</g>
<g id="signal-no-alt">
</g>
<g id="nut">
	<g>
		<path d="M59.1,15.6L32.8,0.2c-0.5-0.3-1-0.3-1.5,0L4.9,15.6c-0.5,0.3-0.7,0.8-0.7,1.3v30.1c0,0.5,0.3,1,0.7,1.3l26.3,15.4
			c0.2,0.1,0.5,0.2,0.8,0.2s0.5-0.1,0.8-0.2l26.3-15.4c0.5-0.3,0.7-0.8,0.7-1.3V16.9C59.8,16.4,59.5,15.9,59.1,15.6z M56.8,46.2
			L32,60.8L7.2,46.2V17.8L32,3.2l24.8,14.5V46.2z"/>
		<path d="M18.1,32c0,7.6,6.2,13.8,13.9,13.8S45.9,39.6,45.9,32S39.6,18.2,32,18.2S18.1,24.4,18.1,32z M42.9,32
			c0,5.9-4.9,10.8-10.9,10.8S21.1,37.9,21.1,32S26,21.2,32,21.2S42.9,26.1,42.9,32z"/>
	</g>
</g>
<g id="cogs">
</g>
<g id="cog">
</g>
<g id="cog-dash-left">
</g>
<g id="cog-dash-right">
</g>
<g id="cog-fall">
</g>
<g id="io">
</g>
<g id="browser">
</g>
<g id="browser-add">
</g>
<g id="rss">
</g>
<g id="no-access">
</g>
<g id="notification">
</g>
<g id="devices">
</g>
<g id="notification-alert">
</g>
</svg>
