<?xml version="1.0" encoding="utf-8"?>
<!-- Generator: Adobe Illustrator 20.1.0, SVG Export Plug-In . SVG Version: 6.00 Build 0)  -->
<!DOCTYPE svg PUBLIC "-//W3C//DTD SVG 1.1//EN" "http://www.w3.org/Graphics/SVG/1.1/DTD/svg11.dtd">
<svg version="1.1" id="Layer_1" xmlns="http://www.w3.org/2000/svg" xmlns:xlink="http://www.w3.org/1999/xlink" x="0px" y="0px"
	 viewBox="0 0 64 64" style="enable-background:new 0 0 64 64;" xml:space="preserve">
<path d="M47.9,13H38V3h3.1c0.8,0,1.5-0.7,1.5-1.5S41.9,0,41.1,0H22.9c-0.8,0-1.5,0.7-1.5,1.5S22.1,3,22.9,3H26v10h-9.9
	c-0.8,0-1.5,0.7-1.5,1.5s0.7,1.5,1.5,1.5H21v27.6c0,5,4,9.1,9,9.8v9.1c0,0.8,0.7,1.5,1.5,1.5s1.5-0.7,1.5-1.5v-9.1
	c6-0.7,10-4.8,10-9.8V16h4.9c0.8,0,1.5-0.7,1.5-1.5S48.7,13,47.9,13z M29,3h6v10h-6V3z M40,43.6c0,3.8-3.8,6.9-8,6.9s-8-3.1-8-6.9
	V37h5.7c0.8,0,1.5-0.7,1.5-1.5S30.6,34,29.7,34H24v-4h5.7c0.8,0,1.5-0.7,1.5-1.5S30.6,27,29.7,27H24v-3h5.7c0.8,0,1.5-0.7,1.5-1.5
	S30.6,21,29.7,21H24v-5h16V43.6z"/>
</svg>
