<?xml version="1.0" encoding="utf-8"?>
<!-- Generator: Adobe Illustrator 20.1.0, SVG Export Plug-In . SVG Version: 6.00 Build 0)  -->
<!DOCTYPE svg PUBLIC "-//W3C//DTD SVG 1.1//EN" "http://www.w3.org/Graphics/SVG/1.1/DTD/svg11.dtd">
<svg version="1.1" xmlns="http://www.w3.org/2000/svg" xmlns:xlink="http://www.w3.org/1999/xlink" x="0px" y="0px"
	 viewBox="0 0 64.2 64" style="enable-background:new 0 0 64.2 64;" xml:space="preserve">
<g id="desktop">
</g>
<g id="tablet">
</g>
<g id="tablet-landscape">
</g>
<g id="desktop-alt">
</g>
<g id="smartphone">
</g>
<g id="smartphone-landscape">
</g>
<g id="laptop">
</g>
<g id="laptops">
</g>
<g id="desktops">
</g>
<g id="printer">
</g>
<g id="smartphones">
</g>
<g id="smartphone-mail">
</g>
<g id="smartphone-search">
</g>
<g id="desktop-chart">
</g>
<g id="pc">
</g>
<g id="remote-control-alt">
</g>
<g id="remote-control">
</g>
<g id="smartphone-signal">
</g>
<g id="battery-charge">
</g>
<g id="battery-charge-half">
</g>
<g id="battery-charge-full">
</g>
<g id="battery-charging">
</g>
<g id="filter">
</g>
<g id="network-web">
</g>
<g id="chip">
</g>
<g id="preferences-box">
</g>
<g id="preferences-vertical-box">
</g>
<g id="preferences-vertical-box-alt">
</g>
<g id="preferences-box-alt">
</g>
<g id="preferences">
</g>
<g id="preferences-vertical">
</g>
<g id="preferences-vertical-alt">
</g>
<g id="preferences-alt">
</g>
<g id="bluetooth">
</g>
<g id="signal-strength">
</g>
<g id="signal-no">
</g>
<g id="signal-tower-no">
</g>
<g id="signal-tower">
</g>
<g id="signal-no-alt">
</g>
<g id="nut">
</g>
<g id="cogs">
</g>
<g id="cog">
</g>
<g id="cog-dash-left">
</g>
<g id="cog-dash-right">
</g>
<g id="cog-fall">
</g>
<g id="io">
</g>
<g id="browser">
</g>
<g id="browser-add">
</g>
<g id="rss">
</g>
<g id="no-access">
</g>
<g id="notification">
</g>
<g id="devices">
</g>
<g id="notification-alert">
	<g>
		<path d="M48.3,37.8c-1.1-2.8-1.5-4.9-2.7-13.3c-0.9-6-1.7-10.2-6-13.2c-3-2.2-7.6-2.1-7.8-2.1h-0.4c-0.4,0-4.5,0.1-7.3,2
			c-4.2,3.1-5,7.2-5.9,13.2c-1.2,8.2-1.5,10.5-2.7,13.4c-0.2,0.6-0.6,1.4-1,2.1c-1,2-1.9,4-1.9,5.7c0,0.8,0.7,1.5,1.5,1.5H24
			c0,0,0,0.1,0,0.1c0,4.3,3.4,7.6,7.8,7.6c4.4,0,7.8-3.3,7.8-7.6c0,0,0-0.1,0-0.1h10.2c0.8,0,1.5-0.7,1.5-1.5c0-1.8-1-3.9-2-5.9
			C48.9,39,48.5,38.3,48.3,37.8z M36.6,47.3c0,2.7-2,4.6-4.8,4.6c-2.8,0-4.8-2-4.8-4.6c0,0,0-0.1,0-0.1h9.7
			C36.6,47.2,36.6,47.2,36.6,47.3z M16,44.1c0.3-0.9,0.8-2,1.3-2.9c0.4-0.9,0.8-1.7,1.1-2.4c1.3-3.2,1.7-5.5,2.9-14
			c0.9-6.1,1.7-9.1,4.7-11.2c1.7-1.2,4.3-1.5,5.6-1.5h0.4c0,0,3.8,0,6,1.5c3,2.1,3.8,4.8,4.7,11.2c1.2,8.2,1.6,10.7,2.9,14
			c0.3,0.7,0.6,1.4,1,2.2c0.5,0.9,1,2.1,1.4,3.1H16z"/>
		<path d="M3,28.4c0-3.3,1.3-6.5,3.7-8.9c0.6-0.6,0.6-1.5,0-2.1c-0.6-0.6-1.5-0.6-2.1,0c-3,2.9-4.6,6.8-4.6,11c0,4.2,1.6,8.1,4.6,11
			c0.3,0.3,0.7,0.4,1.1,0.4c0.4,0,0.8-0.1,1.1-0.4c0.6-0.6,0.6-1.5,0-2.1C4.3,34.9,3,31.7,3,28.4z"/>
		<path d="M12.4,33.9c-1.5-1.5-2.3-3.5-2.3-5.5c0-2.1,0.8-4.1,2.3-5.5c0.6-0.6,0.6-1.5,0-2.1c-0.6-0.6-1.5-0.6-2.1,0
			c-2.1,2.1-3.2,4.8-3.2,7.7c0,2.9,1.1,5.6,3.2,7.7c0.3,0.3,0.7,0.4,1.1,0.4c0.4,0,0.8-0.1,1.1-0.4C13,35.5,13,34.5,12.4,33.9z"/>
		<path d="M59.4,17.4c-0.6-0.6-1.5-0.6-2.1,0c-0.6,0.6-0.6,1.5,0,2.1c2.4,2.4,3.7,5.5,3.7,8.9s-1.3,6.5-3.7,8.9
			c-0.6,0.6-0.6,1.5,0,2.1c0.3,0.3,0.7,0.4,1.1,0.4c0.4,0,0.8-0.1,1.1-0.4c3-2.9,4.6-6.8,4.6-11C64,24.2,62.4,20.3,59.4,17.4z"/>
		<path d="M53.7,20.7c-0.6-0.6-1.5-0.6-2.1,0c-0.6,0.6-0.6,1.5,0,2.1c1.5,1.5,2.3,3.5,2.3,5.5c0,2.1-0.8,4.1-2.3,5.5
			c-0.6,0.6-0.6,1.5,0,2.1c0.3,0.3,0.7,0.4,1.1,0.4c0.4,0,0.8-0.1,1.1-0.4c2.1-2,3.2-4.8,3.2-7.7C56.9,25.5,55.7,22.7,53.7,20.7z"/>
	</g>
</g>
</svg>
