<?xml version="1.0" encoding="utf-8"?>
<!-- Generator: Adobe Illustrator 20.1.0, SVG Export Plug-In . SVG Version: 6.00 Build 0)  -->
<!DOCTYPE svg PUBLIC "-//W3C//DTD SVG 1.1//EN" "http://www.w3.org/Graphics/SVG/1.1/DTD/svg11.dtd">
<svg version="1.1" xmlns="http://www.w3.org/2000/svg" xmlns:xlink="http://www.w3.org/1999/xlink" x="0px" y="0px"
	 viewBox="0 0 64 64" style="enable-background:new 0 0 64 64;" xml:space="preserve">
<g id="dial">
</g>
<g id="dial-alt">
</g>
<g id="connections">
</g>
<g id="atom">
</g>
<g id="atom-alt">
</g>
<g id="cosmic">
</g>
<g id="cosmic-alt">
</g>
<g id="workflows">
</g>
<g id="positive">
</g>
<g id="neuron">
</g>
<g id="sitemap">
</g>
<g id="conditional">
</g>
<g id="sitemap-alt">
</g>
<g id="neuron-alt">
	<g>
		<path d="M62,31h-8.9c-0.2-4.9-2.1-9.3-5.1-12.8l7.3-7.3c0.9,0.5,1.9,0.8,2.9,0.8c3.2,0,5.9-2.6,5.9-5.8s-2.6-5.8-5.9-5.8
			c-3.2,0-5.9,2.6-5.9,5.8c0,1.1,0.3,2.1,0.8,2.9l-7.3,7.3c-3.5-3-7.9-4.9-12.8-5.1V4c0-0.8-0.7-1.5-1.5-1.5S30,3.2,30,4v7
			c-4.5,0.4-8.6,2.3-11.8,5.1l-7.3-7.3C11.4,8,11.7,7,11.7,5.9c0-3.2-2.6-5.8-5.9-5.8C2.6,0.1,0,2.7,0,5.9s2.6,5.8,5.9,5.8
			c1.1,0,2.1-0.3,2.9-0.8l7.3,7.3c-3,3.5-4.9,7.9-5.1,12.8H6c-0.8,0-1.5,0.7-1.5,1.5S5.2,34,6,34h5c0.4,4.5,2.3,8.5,5.1,11.8L8.8,53
			c-0.9-0.5-1.9-0.8-2.9-0.8c-3.2,0-5.9,2.6-5.9,5.8s2.6,5.8,5.9,5.8c3.2,0,5.9-2.6,5.9-5.8c0-1.1-0.3-2.1-0.8-2.9l7.3-7.3
			c3.2,2.8,7.3,4.6,11.8,5.1v9c0,0.8,0.7,1.5,1.5,1.5S33,62.8,33,62v-9c4.9-0.2,9.3-2.1,12.8-5.1l8.2,8.2c0.3,0.3,0.7,0.4,1.1,0.4
			c0.4,0,0.8-0.1,1.1-0.4c0.6-0.6,0.6-1.5,0-2.1l-8.2-8.2c2.8-3.2,4.6-7.3,5.1-11.8h9c0.8,0,1.5-0.7,1.5-1.5S62.8,31,62,31z
			 M58.1,3.1c1.6,0,2.9,1.3,2.9,2.8s-1.3,2.8-2.9,2.8c-0.7,0-1.4-0.3-1.9-0.7c0-0.1-0.1-0.1-0.1-0.2C56.1,7.8,56,7.8,56,7.8
			c-0.4-0.5-0.7-1.1-0.7-1.8C55.3,4.4,56.6,3.1,58.1,3.1z M3,5.9c0-1.6,1.3-2.8,2.9-2.8c1.6,0,2.9,1.3,2.9,2.8
			c0,0.7-0.3,1.3-0.7,1.8C8,7.8,7.9,7.8,7.8,7.9C7.8,8,7.8,8,7.7,8.1C7.2,8.5,6.6,8.8,5.9,8.8C4.3,8.8,3,7.5,3,5.9z M5.9,60.9
			c-1.6,0-2.9-1.3-2.9-2.8s1.3-2.8,2.9-2.8c0.7,0,1.4,0.3,1.9,0.7c0,0.1,0.1,0.1,0.1,0.2C7.9,56.2,8,56.2,8,56.2
			c0.4,0.5,0.7,1.1,0.7,1.8C8.7,59.6,7.4,60.9,5.9,60.9z M32,50.1C22,50.1,13.9,42,13.9,32S22,13.9,32,13.9S50.1,22,50.1,32
			S42,50.1,32,50.1z"/>
		<path d="M32,20.7c-2.6,0-4.8,2.1-4.8,4.8c0,2.6,2.1,4.8,4.8,4.8s4.8-2.1,4.8-4.8C36.8,22.9,34.6,20.7,32,20.7z M32,27.2
			c-1,0-1.8-0.8-1.8-1.8s0.8-1.8,1.8-1.8s1.8,0.8,1.8,1.8S33,27.2,32,27.2z"/>
	</g>
</g>
<g id="flask">
</g>
<g id="clone">
</g>
<g id="infinity">
</g>
<g id="f42">
</g>
</svg>
