<?xml version="1.0" encoding="utf-8"?>
<!-- Generator: Adobe Illustrator 20.1.0, SVG Export Plug-In . SVG Version: 6.00 Build 0)  -->
<!DOCTYPE svg PUBLIC "-//W3C//DTD SVG 1.1//EN" "http://www.w3.org/Graphics/SVG/1.1/DTD/svg11.dtd">
<svg version="1.1" xmlns="http://www.w3.org/2000/svg" xmlns:xlink="http://www.w3.org/1999/xlink" x="0px" y="0px"
	 viewBox="0 0 64 64" style="enable-background:new 0 0 64 64;" xml:space="preserve">
<g id="bulb">
</g>
<g id="bulb-on">
</g>
<g id="bulb-alt">
</g>
<g id="bulb-on-alt">
</g>
<g id="energy-bulb">
</g>
<g id="toasting">
</g>
<g id="toasted">
</g>
<g id="binoculars">
</g>
<g id="gift">
</g>
<g id="shaver">
</g>
<g id="candle">
</g>
<g id="shower">
</g>
<g id="bomb">
</g>
<g id="joystick">
</g>
<g id="megaphone">
</g>
<g id="chestdraw">
</g>
<g id="armchair">
</g>
<g id="cardboard-box">
</g>
<g id="bath-shower">
</g>
<g id="diamond">
</g>
<g id="cassette">
</g>
<g id="iron">
</g>
<g id="wash">
</g>
<g id="keyboard-keys">
</g>
<g id="earphones">
</g>
<g id="lifebuoy">
</g>
<g id="calculator">
</g>
<g id="safe">
</g>
<g id="balloon">
</g>
<g id="cake">
</g>
<g id="baseball">
</g>
<g id="football-american">
</g>
<g id="football">
</g>
<g id="anchor">
</g>
<g id="compact-disc">
</g>
<g id="bbq">
</g>
<g id="coffee-machine">
</g>
<g id="teapot">
</g>
<g id="outdoor-stove">
	<g>
		<path d="M51.2,11h-3.3V7.7h1.2c0.8,0,1.5-0.7,1.5-1.5s-0.7-1.5-1.5-1.5h-2.7h-8.8C37.2,2,34.8,0,32,0s-5.2,2-5.7,4.7h-8.8h-2.7
			c-0.8,0-1.5,0.7-1.5,1.5s0.7,1.5,1.5,1.5h1.2V11h-3.3c-0.8,0-1.5,0.7-1.5,1.5s0.7,1.5,1.5,1.5h3.3v22.4c0,3.8,2.5,6.3,6.3,6.3
			h19.2c3.8,0,6.3-2.5,6.3-6.3V14h3.3c0.8,0,1.5-0.7,1.5-1.5S52.1,11,51.2,11z M32,3c1.1,0,2.1,0.7,2.5,1.7h-5.1
			C29.9,3.7,30.9,3,32,3z M44.9,36.4c0,2.1-1.2,3.3-3.3,3.3H22.4c-2.2,0-3.3-1.2-3.3-3.3V7.7h25.8V36.4z"/>
		<path d="M38.3,47.5c-0.5,0-1,0.3-1.3,0.8l-0.9,1.8l-2.9-5c-0.3-0.5-0.8-0.8-1.3-0.8c0,0,0,0,0,0c-0.5,0-1,0.3-1.3,0.8l-2.9,5
			L27,48.5c-0.2-0.5-0.7-0.8-1.3-0.8c-0.5,0-1.1,0.3-1.3,0.7c-1,1.8-4.5,7.7-4.5,10.1c0,3,2.6,5.5,5.8,5.5h12.8
			c3.1,0,5.8-2.5,5.8-5.5c0-2.4-3.4-8.4-4.5-10.2C39.4,47.8,38.9,47.5,38.3,47.5z M38.4,61H25.6c-1.4,0-2.8-1.2-2.8-2.5
			c0-0.8,1.2-3.5,2.7-6.2l0.9,1.7c0.2,0.5,0.7,0.8,1.3,0.8c0.5,0,1.1-0.3,1.3-0.8l3-5.2l3,5.1c0.3,0.5,0.8,0.8,1.3,0.8
			c0.6,0,1.1-0.3,1.3-0.8l0.9-1.8c1.4,2.7,2.7,5.4,2.7,6.2C41.1,59.8,39.8,61,38.4,61z"/>
	</g>
</g>
<g id="pram">
</g>
<g id="paintbrush">
</g>
<g id="stamp">
</g>
<g id="eyedrop">
</g>
<g id="musical-note">
</g>
<g id="magnet">
</g>
<g id="alarm-bell">
</g>
<g id="globe">
</g>
<g id="key">
</g>
<g id="ink">
</g>
<g id="paperclip">
</g>
<g id="paint-roller">
</g>
<g id="keyboard">
</g>
</svg>
