<?xml version="1.0" encoding="utf-8"?>
<!-- Generator: Adobe Illustrator 20.1.0, SVG Export Plug-In . SVG Version: 6.00 Build 0)  -->
<!DOCTYPE svg PUBLIC "-//W3C//DTD SVG 1.1//EN" "http://www.w3.org/Graphics/SVG/1.1/DTD/svg11.dtd">
<svg version="1.1" xmlns="http://www.w3.org/2000/svg" xmlns:xlink="http://www.w3.org/1999/xlink" x="0px" y="0px"
	 viewBox="0 0 64 64" style="enable-background:new 0 0 64 64;" xml:space="preserve">
<g id="home">
</g>
<g id="shop">
</g>
<g id="buildings">
</g>
<g id="solar-panel">
</g>
<g id="towers">
</g>
<g id="stadium">
</g>
<g id="station">
</g>
<g id="shop-alt">
</g>
<g id="home-alt">
</g>
<g id="factory">
</g>
<g id="rig">
</g>
<g id="shipping-container">
</g>
<g id="official-building">
	<path d="M63.2,22.4L32.9,0.3c-0.5-0.4-1.2-0.4-1.8,0L0.8,22.4c-0.5,0.4-0.7,1.1-0.5,1.7s0.8,1,1.4,1H5V61H2c-0.8,0-1.5,0.7-1.5,1.5
		S1.2,64,2,64h21c0.5,0,1-0.3,1.3-0.7C24.7,63,25,62.5,25,62V37.5c0-0.7,0.2-1.4,1.4-1.4h11.2c1.2,0,1.4,0.8,1.4,1.4V62
		c0,0.5,0.3,1,0.7,1.3C40,63.7,40.5,64,41,64h21c0.8,0,1.5-0.7,1.5-1.5S62.8,61,62,61h-3V25.1h3.4c0.6,0,1.2-0.4,1.4-1
		S63.8,22.8,63.2,22.4z M32,3.4l25.8,18.8h-20c-0.7-2.5-3-4.3-5.8-4.3s-5,1.8-5.8,4.3h-20L32,3.4z M35,23.8c0,1.6-1.4,3-3,3
		s-3-1.3-3-3s1.4-3,3-3S35,22.2,35,23.8z M8,25.1h5V61H8V25.1z M37.6,33.1H26.4c-2.6,0-4.4,1.8-4.4,4.4V61h-6V25.1h10.1
		c0.6,2.7,3,4.7,5.9,4.7s5.3-2,5.9-4.7H48V61h-6V37.5C42,34.9,40.2,33.1,37.6,33.1z M56,61h-5V25.1h5V61z"/>
</g>
</svg>
