<?xml version="1.0" encoding="utf-8"?>
<!-- Generator: Adobe Illustrator 20.1.0, SVG Export Plug-In . SVG Version: 6.00 Build 0)  -->
<!DOCTYPE svg PUBLIC "-//W3C//DTD SVG 1.1//EN" "http://www.w3.org/Graphics/SVG/1.1/DTD/svg11.dtd">
<svg version="1.1" xmlns="http://www.w3.org/2000/svg" xmlns:xlink="http://www.w3.org/1999/xlink" x="0px" y="0px"
	 viewBox="0 0 64 64" style="enable-background:new 0 0 64 64;" xml:space="preserve">
<g id="text-height">
</g>
<g id="font">
</g>
<g id="text">
</g>
<g id="italic">
</g>
<g id="strikethrough">
</g>
<g id="paragraph">
</g>
<g id="bold">
</g>
<g id="quote-right">
</g>
<g id="hashtag">
</g>
<g id="anchor-handle">
</g>
<g id="box">
</g>
<g id="fullscreen">
</g>
<g id="fullscreen-alt">
</g>
<g id="golden-ratio">
</g>
<g id="hexgrid">
</g>
<g id="box-points">
</g>
<g id="box-points-move">
</g>
<g id="box-points-move-alt">
</g>
<g id="hex_1_">
</g>
<g id="hex-diamond">
</g>
<g id="artboards-vertical">
</g>
<g id="artboards">
</g>
<g id="artboards-alt-vertical">
</g>
<g id="artboards-alt">
</g>
<g id="scale">
</g>
<g id="pencil">
</g>
<g id="fill">
</g>
<g id="artist-mug">
</g>
<g id="pen">
	<path d="M63.5,8.3l-7.9-7.9c-0.6-0.6-1.6-0.6-2.1,0l-1.3,1.3C51,1,49.7,0.6,48.3,0.6c-1.9,0-3.6,0.7-5,2.1L27.6,18.5
		c-0.6,0.6-0.6,1.5,0,2.1c0.3,0.3,0.7,0.4,1.1,0.4c0.4,0,0.8-0.1,1.1-0.4L45.4,4.8c1.2-1.2,3-1.5,4.5-0.8L36.6,17.4L9,45.1
		c-0.6,0.6-0.6,1.5,0,2.1l0.6,0.6l-5.7,5.7c-0.6,0.6-0.6,1.5,0,2.1l1.2,1.2l-4.6,4.6C0,62,0,63,0.6,63.6C0.8,63.9,1.2,64,1.6,64
		c0.4,0,0.8-0.1,1.1-0.4L7.2,59l1.2,1.2c0.3,0.3,0.7,0.4,1.1,0.4s0.8-0.2,1.1-0.4l5.7-5.7l0.6,0.6c0.3,0.3,0.7,0.4,1.1,0.4
		s0.8-0.2,1.1-0.4l27.6-27.7l16.9-16.9C64,9.9,64,8.9,63.5,8.3z M9.5,57l-2.4-2.4l4.6-4.7l2.4,2.4L9.5,57z M17.9,51.9l-5.8-5.8
		l25.5-25.6l5.8,5.8L17.9,51.9z M45.5,24.2l-5.8-5.8L53.3,4.8c0,0,0,0,0,0s0,0,0,0l1.2-1.2l5.8,5.8L45.5,24.2z"/>
</g>
<g id="calligraphy-pen-tip">
</g>
<g id="calligraphy-pen_1_">
</g>
<g id="paint-pallette">
</g>
<g id="tools-cross">
</g>
<g id="edit-tools">
</g>
<g id="pencil-ruler">
</g>
<g id="ruler-measure">
</g>
<g id="measure">
</g>
<g id="code">
</g>
<g id="move">
</g>
<g id="external">
</g>
<g id="terminal">
</g>
<g id="thumbnails">
</g>
</svg>
