<?xml version="1.0" encoding="utf-8"?>
<!-- Generator: Adobe Illustrator 20.1.0, SVG Export Plug-In . SVG Version: 6.00 Build 0)  -->
<!DOCTYPE svg PUBLIC "-//W3C//DTD SVG 1.1//EN" "http://www.w3.org/Graphics/SVG/1.1/DTD/svg11.dtd">
<svg version="1.1" xmlns="http://www.w3.org/2000/svg" xmlns:xlink="http://www.w3.org/1999/xlink" x="0px" y="0px"
	 viewBox="0 0 64 64" style="enable-background:new 0 0 64 64;" xml:space="preserve">
<g id="desktop">
</g>
<g id="tablet">
</g>
<g id="tablet-landscape">
</g>
<g id="desktop-alt">
</g>
<g id="smartphone">
</g>
<g id="smartphone-landscape">
</g>
<g id="laptop">
</g>
<g id="laptops">
</g>
<g id="desktops">
</g>
<g id="printer">
</g>
<g id="smartphones">
</g>
<g id="smartphone-mail">
</g>
<g id="smartphone-search">
</g>
<g id="desktop-chart">
</g>
<g id="pc">
</g>
<g id="remote-control-alt">
</g>
<g id="remote-control">
</g>
<g id="smartphone-signal">
</g>
<g id="battery-charge">
</g>
<g id="battery-charge-half">
</g>
<g id="battery-charge-full">
</g>
<g id="battery-charging">
</g>
<g id="filter">
</g>
<g id="network-web">
</g>
<g id="chip">
</g>
<g id="preferences-box">
	<g>
		<path d="M34.1,20.2h16c0.8,0,1.5-0.7,1.5-1.5s-0.7-1.5-1.5-1.5h-16c-0.8,0-1.5,0.7-1.5,1.5S33.3,20.2,34.1,20.2z"/>
		<path d="M13.7,20.2h5.1c0.7,2.6,3,4.6,5.9,4.6c3.3,0,6.1-2.7,6.1-6.1s-2.7-6.1-6.1-6.1c-2.8,0-5.2,1.9-5.9,4.6h-5.1
			c-0.8,0-1.5,0.7-1.5,1.5S12.9,20.2,13.7,20.2z M24.6,15.7c1.7,0,3.1,1.4,3.1,3.1s-1.4,3.1-3.1,3.1s-3.1-1.4-3.1-3.1
			S23,15.7,24.6,15.7z"/>
		<path d="M62.4,0H1.6C0.8,0,0.1,0.7,0.1,1.5v61c0,0.8,0.7,1.5,1.5,1.5h60.8c0.8,0,1.5-0.7,1.5-1.5v-61C63.9,0.7,63.2,0,62.4,0z
			 M60.9,61H3.1V3h57.8V61z"/>
		<path d="M13.7,33.6h16c0.8,0,1.5-0.7,1.5-1.5s-0.7-1.5-1.5-1.5h-16c-0.8,0-1.5,0.7-1.5,1.5S12.9,33.6,13.7,33.6z"/>
		<path d="M50.1,30.6H45c-0.7-2.6-3-4.6-5.9-4.6c-3.3,0-6.1,2.7-6.1,6.1s2.7,6.1,6.1,6.1c2.8,0,5.2-1.9,5.9-4.6h5.1
			c0.8,0,1.5-0.7,1.5-1.5S51,30.6,50.1,30.6z M39.2,35.1c-1.7,0-3.1-1.4-3.1-3.1s1.4-3.1,3.1-3.1s3.1,1.4,3.1,3.1
			S40.9,35.1,39.2,35.1z"/>
		<path d="M34.1,46.9h16c0.8,0,1.5-0.7,1.5-1.5s-0.7-1.5-1.5-1.5h-16c-0.8,0-1.5,0.7-1.5,1.5S33.3,46.9,34.1,46.9z"/>
		<path d="M13.7,46.9h5.1c0.7,2.6,3,4.6,5.9,4.6c3.3,0,6.1-2.7,6.1-6.1s-2.7-6.1-6.1-6.1c-2.8,0-5.2,1.9-5.9,4.6h-5.1
			c-0.8,0-1.5,0.7-1.5,1.5S12.9,46.9,13.7,46.9z M24.6,42.3c1.7,0,3.1,1.4,3.1,3.1s-1.4,3.1-3.1,3.1s-3.1-1.4-3.1-3.1
			S23,42.3,24.6,42.3z"/>
	</g>
</g>
<g id="preferences-vertical-box">
</g>
<g id="preferences-vertical-box-alt">
</g>
<g id="preferences-box-alt">
</g>
<g id="preferences">
</g>
<g id="preferences-vertical">
</g>
<g id="preferences-vertical-alt">
</g>
<g id="preferences-alt">
</g>
<g id="bluetooth">
</g>
<g id="signal-strength">
</g>
<g id="signal-no">
</g>
<g id="signal-tower-no">
</g>
<g id="signal-tower">
</g>
<g id="signal-no-alt">
</g>
<g id="nut">
</g>
<g id="cogs">
</g>
<g id="cog">
</g>
<g id="cog-dash-left">
</g>
<g id="cog-dash-right">
</g>
<g id="cog-fall">
</g>
<g id="io">
</g>
<g id="browser">
</g>
<g id="browser-add">
</g>
<g id="rss">
</g>
<g id="no-access">
</g>
<g id="notification">
</g>
<g id="devices">
</g>
<g id="notification-alert">
</g>
</svg>
