<?xml version="1.0" encoding="utf-8"?>
<!-- Generator: Adobe Illustrator 20.1.0, SVG Export Plug-In . SVG Version: 6.00 Build 0)  -->
<!DOCTYPE svg PUBLIC "-//W3C//DTD SVG 1.1//EN" "http://www.w3.org/Graphics/SVG/1.1/DTD/svg11.dtd">
<svg version="1.1" xmlns="http://www.w3.org/2000/svg" xmlns:xlink="http://www.w3.org/1999/xlink" x="0px" y="0px"
	 viewBox="0 0 64 64" style="enable-background:new 0 0 64 64;" xml:space="preserve">
<g id="user">
</g>
<g id="users">
</g>
<g id="comment">
</g>
<g id="commenting">
</g>
<g id="comments">
</g>
<g id="comments-alt">
</g>
<g id="commenting-alt">
</g>
<g id="comment-alt">
</g>
<g id="face-happy">
</g>
<g id="face-ok">
</g>
<g id="face-unhappy">
</g>
<g id="mail">
</g>
<g id="phone">
	<path d="M63.5,54L49.9,40.3c-0.4-0.4-1-0.6-1.6-0.3l-10.1,3.7L19.9,25.2l3.8-10c0.2-0.6,0.1-1.2-0.3-1.6L10.2,0.4
		c-0.6-0.6-1.4-0.6-2-0.1c-0.3,0.3-8,7-8.1,17c-0.1,10.1,9,20.8,17,28.9c0,0,0,0,0,0C25.9,55,36.2,63.9,46.5,64c0,0,0.1,0,0.1,0
		c10.1,0,16.7-7.7,17-8C64.1,55.4,64.1,54.5,63.5,54z M46.5,61c-9.2-0.1-19.4-9-27.3-16.8C11.6,36.5,2.9,26.5,3,17.4
		C3.1,10.8,7.2,5.7,9.1,3.6L20.5,15l-3.8,10c-0.2,0.6-0.1,1.2,0.3,1.6l19.8,19.8c0.4,0.4,1,0.6,1.6,0.3l10.1-3.7l11.9,12
		C58.3,57,53.2,61.1,46.5,61z"/>
</g>
<g id="fingerprint">
</g>
<g id="info">
</g>
<g id="question">
</g>
<g id="warning">
</g>
<g id="alert">
</g>
<g id="headset">
</g>
<g id="skull">
</g>
<g id="baby">
</g>
<g id="eye">
</g>
<g id="id-card">
</g>
<g id="microphone">
</g>
<g id="eye-cross">
</g>
<g id="user-commenting">
</g>
<g id="user-commenting-alt">
</g>
<g id="user-file">
</g>
<g id="user-check">
</g>
<g id="tap">
</g>
<g id="swipe">
</g>
<g id="slide">
</g>
<g id="foot">
</g>
<g id="share-social">
</g>
<g id="ghost">
</g>
</svg>
