<?xml version="1.0" encoding="utf-8"?>
<!-- Generator: Adobe Illustrator 20.1.0, SVG Export Plug-In . SVG Version: 6.00 Build 0)  -->
<!DOCTYPE svg PUBLIC "-//W3C//DTD SVG 1.1//EN" "http://www.w3.org/Graphics/SVG/1.1/DTD/svg11.dtd">
<svg version="1.1" xmlns="http://www.w3.org/2000/svg" xmlns:xlink="http://www.w3.org/1999/xlink" x="0px" y="0px"
	 viewBox="0 0 64 64" style="enable-background:new 0 0 64 64;" xml:space="preserve">
<g id="bulb">
</g>
<g id="bulb-on">
</g>
<g id="bulb-alt">
</g>
<g id="bulb-on-alt">
</g>
<g id="energy-bulb">
</g>
<g id="toasting">
</g>
<g id="toasted">
</g>
<g id="binoculars">
</g>
<g id="gift">
</g>
<g id="shaver">
</g>
<g id="candle">
</g>
<g id="shower">
</g>
<g id="bomb">
</g>
<g id="joystick">
</g>
<g id="megaphone">
</g>
<g id="chestdraw">
</g>
<g id="armchair">
</g>
<g id="cardboard-box">
</g>
<g id="bath-shower">
</g>
<g id="diamond">
</g>
<g id="cassette">
</g>
<g id="iron">
</g>
<g id="wash">
</g>
<g id="keyboard-keys">
</g>
<g id="earphones">
</g>
<g id="lifebuoy">
</g>
<g id="calculator">
</g>
<g id="safe">
</g>
<g id="balloon">
</g>
<g id="cake">
</g>
<g id="baseball">
</g>
<g id="football-american">
</g>
<g id="football">
</g>
<g id="anchor">
</g>
<g id="compact-disc">
</g>
<g id="bbq">
</g>
<g id="coffee-machine">
</g>
<g id="teapot">
</g>
<g id="outdoor-stove">
</g>
<g id="pram">
</g>
<g id="paintbrush">
</g>
<g id="stamp">
</g>
<g id="eyedrop">
</g>
<g id="musical-note">
</g>
<g id="magnet">
</g>
<g id="alarm-bell">
</g>
<g id="globe">
</g>
<g id="key">
</g>
<g id="ink">
</g>
<g id="paperclip">
</g>
<g id="paint-roller">
	<path d="M57.1,7.4h-7V1.5C50,0.7,49.4,0,48.5,0H6.9C6.1,0,5.4,0.7,5.4,1.5v15.9c0,0.1,0,0.2,0,0.3c0,0.1,0,0.2,0,0.3v5.3
		c0,0.8,0.7,1.5,1.5,1.5s1.5-0.7,1.5-1.5v-4.3h3.4v2.2c0,0.8,0.7,1.5,1.5,1.5s1.5-0.7,1.5-1.5v-2.2h3.4v8.6c0,0.8,0.7,1.5,1.5,1.5
		s1.5-0.7,1.5-1.5v-8.6h3.4v2.2c0,0.8,0.7,1.5,1.5,1.5s1.5-0.7,1.5-1.5v-2.2H30v4.3c0,0.8,0.7,1.5,1.5,1.5s1.5-0.7,1.5-1.5v-4.3
		h15.6c0.8,0,1.5-0.7,1.5-1.5v-7h5.5v11.3L27.7,33c-0.6,0.2-0.9,0.8-0.9,1.4v6.8c-2.2,0.7-3.7,2.7-3.7,5.4v16c0,0.8,0.7,1.5,1.5,1.5
		H32c0.8,0,1.5-0.7,1.5-1.5v-16c0-2.6-1.5-4.7-3.7-5.4v-5.8l27.9-11.2c0.6-0.2,0.9-0.8,0.9-1.4V8.9C58.6,8.1,57.9,7.4,57.1,7.4z
		 M47,15.9H8.4V3H47V15.9z M30.5,61H26V46.5c0-1.3,0.7-2.6,2.2-2.6c1.5,0,2.2,1.3,2.2,2.6V61z"/>
</g>
<g id="keyboard">
</g>
</svg>
