<?xml version="1.0" encoding="utf-8"?>
<!-- Generator: Adobe Illustrator 20.1.0, SVG Export Plug-In . SVG Version: 6.00 Build 0)  -->
<!DOCTYPE svg PUBLIC "-//W3C//DTD SVG 1.1//EN" "http://www.w3.org/Graphics/SVG/1.1/DTD/svg11.dtd">
<svg version="1.1" xmlns="http://www.w3.org/2000/svg" xmlns:xlink="http://www.w3.org/1999/xlink" x="0px" y="0px"
	 viewBox="0 0 64 64" style="enable-background:new 0 0 64 64;" xml:space="preserve">
<g id="credit-card">
</g>
<g id="tag">
</g>
<g id="trolley">
</g>
<g id="trolley-out">
</g>
<g id="trolley-in">
</g>
<g id="wallet">
</g>
<g id="shopping-bag">
</g>
<g id="basket">
</g>
<g id="dollar-circle">
</g>
<g id="pound-circle">
	<g>
		<path d="M32,0C14.4,0,0,14.4,0,32s14.4,32,32,32s32-14.3,32-32S49.6,0,32,0z M32,61C16,61,3,48,3,32S16,3,32,3s29,13,29,29
			S48,61,32,61z"/>
		<path d="M40.8,38h-1.4c-0.2,0-0.3,0-0.4,0.1c-0.1,0.1-0.2,0.2-0.2,0.3c-0.2,0.9-0.5,1.6-0.9,2.1c-0.4,0.5-1,0.7-1.9,0.7
			c-0.6,0-1.1-0.1-1.5-0.4s-1-0.6-1.6-1.1c-0.7-0.5-1.2-0.8-1.7-1.1s-1-0.4-1.7-0.5c0-1-0.2-3.1-0.5-4.1h6.2c0.2,0,0.5-0.3,0.6-0.4
			c0.1-0.1,0.3-0.5,0.3-0.7v-1.1c0-0.2-0.1-0.4-0.3-0.6c-0.1-0.1-0.4-0.2-0.6-0.2h-6.5c-0.1-1-0.1-1.5-0.1-2.4
			c0-1.8,0.4-3.2,1.2-4.2c0.8-1.1,2-1.6,3.5-1.6c2.7,0,4.3,1.5,4.9,4.6c0,0.2,0.2,0.4,0.3,0.5C38.6,28,38.8,28,39,28h1.6
			c0.2,0,0.4,0,0.5-0.1c0.1-0.1,0.2-0.2,0.2-0.4c0-1.4-0.4-2.6-1-3.7c-0.6-1.1-1.5-2-2.7-2.7c-1.2-0.7-2.6-1-4.3-1
			c-2.6,0-4.6,0.8-5.9,2.4c-1.3,1.6-2,3.6-2,6.2c0,0.9,0,1.4,0.1,2.4h-2.1c-0.2,0-0.2,0.1-0.3,0.2c-0.1,0.1,0,0.3,0,0.6v1.1
			c0,0.2-0.2,0.6,0,0.7c0.1,0.1,0.1,0.4,0.3,0.4h2.5c0.1,0,0.1,0.7,0.2,1c0.2,1.3,0.4,2.2,0.4,2.9c-1.1,0.3-2,0.9-2.7,1.7
			s-1.1,2.1-1.1,3.5c0,0.2,0.1,0.4,0.2,0.5c0.1,0.1,0.3,0.3,0.5,0.3h1.5c0.2,0,0.4-0.2,0.5-0.3s0.1-0.4,0.2-0.6
			c0.2-0.9,0.4-1.6,0.8-2c0.4-0.5,1-0.7,1.8-0.7c0.6,0,1.1,0.1,1.5,0.4c0.5,0.2,1,0.6,1.8,1.1c0.9,0.7,1.7,1.2,2.4,1.5
			c0.7,0.3,1.6,0.5,2.5,0.5c1.5,0,2.8-0.5,3.7-1.4c1-1,1.5-2.3,1.5-4c0-0.2-0.1-0.3-0.2-0.4C41.2,38,41,38,40.8,38z"/>
	</g>
</g>
<g id="euro-circle">
</g>
<g id="yen-circle">
</g>
<g id="purse">
</g>
<g id="banknote">
</g>
</svg>
