<?xml version="1.0" encoding="utf-8"?>
<!-- Generator: Adobe Illustrator 20.1.0, SVG Export Plug-In . SVG Version: 6.00 Build 0)  -->
<!DOCTYPE svg PUBLIC "-//W3C//DTD SVG 1.1//EN" "http://www.w3.org/Graphics/SVG/1.1/DTD/svg11.dtd">
<svg version="1.1" xmlns="http://www.w3.org/2000/svg" xmlns:xlink="http://www.w3.org/1999/xlink" x="0px" y="0px"
	 viewBox="0 0 64 64" style="enable-background:new 0 0 64 64;" xml:space="preserve">
<g id="truck">
</g>
<g id="car">
</g>
<g id="taxi">
</g>
<g id="rocket">
</g>
<g id="tardis">
</g>
<g id="bus">
</g>
<g id="tram">
</g>
<g id="speedo">
</g>
<g id="air-machine">
</g>
<g id="speedo-alt">
</g>
<g id="motorcycle">
</g>
<g id="car-battery">
</g>
<g id="ufo">
</g>
<g id="arrivals">
</g>
<g id="petrol-pump">
</g>
<g id="gear-shift">
</g>
<g id="car-battery-alt">
</g>
<g id="road">
</g>
<g id="siren">
</g>
<g id="plane">
	<g>
		<path d="M38.2,11.7c0.6-0.6,0.6-1.5,0-2.1c-3.4-3.3-8.9-3.3-12.3,0c-0.6,0.6-0.6,1.5,0,2.1c0.3,0.3,0.7,0.5,1.1,0.5
			c0.4,0,0.8-0.1,1-0.4c2.2-2.2,5.9-2.2,8.1,0C36.6,12.3,37.6,12.3,38.2,11.7z"/>
		<path d="M60.8,29L60,28.6V25c0-0.8-0.7-1.5-1.5-1.5S57,24.2,57,25v2.2l-5-2.4V21c0-0.8-0.7-1.5-1.5-1.5S49,20.2,49,21v2.3l-6-2.9
			l0.6-8.6c0.2-2.9-0.8-5.8-2.9-8C38.6,1.4,35.4,0,32,0c-3.4,0-6.6,1.4-8.8,3.7c-2.1,2.2-3.1,5.1-2.9,8l0.6,8.6l-6,2.9V21
			c0-0.8-0.7-1.5-1.5-1.5S12,20.2,12,21v3.7l-5,2.4V25c0-0.8-0.7-1.5-1.5-1.5S4,24.2,4,25v3.6L3.2,29c-2,1-3.2,2.9-3.2,5
			c0,1.6,0.7,3.1,2,4.2c1.1,0.9,2.4,1.4,3.9,1.4c0.3,0,0.7,0,1-0.1L22.2,37L23,49.2l-9.8,8.1c-1,0.8-1.2,2.1-0.8,3.1
			c0.3,0.9,1.1,1.5,2,1.5h12.1c1.5,1.2,3.5,2,5.6,2s4.1-0.8,5.6-2h12.1c0.9,0,1.7-0.6,2-1.5c0.3-1,0.1-2.4-0.8-3L41,49.2L41.8,37
			l15.4,2.5c0.3,0.1,0.7,0.1,1,0.1c1.4,0,2.8-0.5,3.9-1.4c1.2-1.1,2-2.6,2-4.2C64,31.9,62.8,30,60.8,29z M6.3,36.6
			c-0.9,0.1-1.8-0.1-2.4-0.7C3.3,35.4,3,34.7,3,34c0-1,0.6-1.8,1.5-2.3l16.7-8.1L21.9,34L6.3,36.6z M23.3,52.9l0.3,3.6
			c0.1,0.9,0.3,1.7,0.6,2.5H16L23.3,52.9z M26.5,56.3L25,35.2c0-0.1,0-0.1,0-0.2c0,0,0,0,0,0l-1-13.8c0,0,0,0,0,0l-0.7-9.7
			c-0.1-2.1,0.6-4.1,2.1-5.7C27.1,4,29.5,3,32,3s4.9,1,6.6,2.8c1.5,1.6,2.2,3.6,2.1,5.7L40,21.1c0,0.1,0,0.1,0,0.2l-2.5,35
			C37.3,58.9,34.9,61,32,61S26.7,58.9,26.5,56.3z M48.1,59h-8.2c0.3-0.8,0.6-1.6,0.6-2.5l0.3-3.7L48.1,59z M60.1,35.9
			c-0.7,0.6-1.5,0.8-2.4,0.7L42.1,34l0.7-10.4l16.7,8.1C60.4,32.2,61,33,61,34C61,34.7,60.7,35.4,60.1,35.9z"/>
	</g>
</g>
<g id="lorry">
</g>
<g id="train">
</g>
<g id="forklift">
</g>
<g id="bicycle">
</g>
<g id="underground">
</g>
<g id="paper-plane">
</g>
<g id="hotair-balloon">
</g>
</svg>
