<?xml version="1.0" encoding="utf-8"?>
<!-- Generator: Adobe Illustrator 20.1.0, SVG Export Plug-In . SVG Version: 6.00 Build 0)  -->
<!DOCTYPE svg PUBLIC "-//W3C//DTD SVG 1.1//EN" "http://www.w3.org/Graphics/SVG/1.1/DTD/svg11.dtd">
<svg version="1.1" xmlns="http://www.w3.org/2000/svg" xmlns:xlink="http://www.w3.org/1999/xlink" x="0px" y="0px"
	 viewBox="0 0 64 64" style="enable-background:new 0 0 64 64;" xml:space="preserve">
<g id="dial">
</g>
<g id="dial-alt">
</g>
<g id="connections">
</g>
<g id="atom">
</g>
<g id="atom-alt">
</g>
<g id="cosmic">
</g>
<g id="cosmic-alt">
</g>
<g id="workflows">
</g>
<g id="positive">
	<g>
		<path d="M55.1,11h-35c-1.9,0-3.5,1.6-3.5,3.5v8.3H8.4V1.5C8.4,0.7,7.7,0,6.9,0S5.4,0.7,5.4,1.5v61C5.4,63.3,6,64,6.9,64
			s1.5-0.7,1.5-1.5V41.2h8.2v8.3c0,1.9,1.6,3.5,3.5,3.5h35c1.9,0,3.5-1.6,3.5-3.5v-35C58.6,12.6,57.1,11,55.1,11z M8.4,38.2V25.8
			h8.2v12.3H8.4z M55.6,49.5c0,0.3-0.2,0.5-0.5,0.5h-35c-0.3,0-0.5-0.2-0.5-0.5v-35c0-0.3,0.2-0.5,0.5-0.5h35c0.3,0,0.5,0.2,0.5,0.5
			V49.5z"/>
		<path d="M48.1,30.8h-9v-9c0-0.8-0.7-1.5-1.5-1.5s-1.5,0.7-1.5,1.5v9h-9c-0.8,0-1.5,0.7-1.5,1.5s0.7,1.5,1.5,1.5h9v9
			c0,0.8,0.7,1.5,1.5,1.5s1.5-0.7,1.5-1.5v-9h9c0.8,0,1.5-0.7,1.5-1.5S49,30.8,48.1,30.8z"/>
	</g>
</g>
<g id="neuron">
</g>
<g id="sitemap">
</g>
<g id="conditional">
</g>
<g id="sitemap-alt">
</g>
<g id="neuron-alt">
</g>
<g id="flask">
</g>
<g id="clone">
</g>
<g id="infinity">
</g>
<g id="f42">
</g>
</svg>
