<?xml version="1.0" encoding="utf-8"?>
<!-- Generator: Adobe Illustrator 20.1.0, SVG Export Plug-In . SVG Version: 6.00 Build 0)  -->
<!DOCTYPE svg PUBLIC "-//W3C//DTD SVG 1.1//EN" "http://www.w3.org/Graphics/SVG/1.1/DTD/svg11.dtd">
<svg version="1.1" xmlns="http://www.w3.org/2000/svg" xmlns:xlink="http://www.w3.org/1999/xlink" x="0px" y="0px"
	 viewBox="0 0 64 64" style="enable-background:new 0 0 64 64;" xml:space="preserve">
<g id="desktop">
</g>
<g id="tablet">
</g>
<g id="tablet-landscape">
</g>
<g id="desktop-alt">
</g>
<g id="smartphone">
</g>
<g id="smartphone-landscape">
</g>
<g id="laptop">
</g>
<g id="laptops">
</g>
<g id="desktops">
</g>
<g id="printer">
</g>
<g id="smartphones">
</g>
<g id="smartphone-mail">
</g>
<g id="smartphone-search">
</g>
<g id="desktop-chart">
</g>
<g id="pc">
</g>
<g id="remote-control-alt">
</g>
<g id="remote-control">
</g>
<g id="smartphone-signal">
</g>
<g id="battery-charge">
</g>
<g id="battery-charge-half">
</g>
<g id="battery-charge-full">
</g>
<g id="battery-charging">
</g>
<g id="filter">
</g>
<g id="network-web">
</g>
<g id="chip">
</g>
<g id="preferences-box">
</g>
<g id="preferences-vertical-box">
</g>
<g id="preferences-vertical-box-alt">
</g>
<g id="preferences-box-alt">
</g>
<g id="preferences">
</g>
<g id="preferences-vertical">
</g>
<g id="preferences-vertical-alt">
</g>
<g id="preferences-alt">
	<g>
		<path d="M10.3,24c-4.5,0-8.1,3.6-8.1,8s3.6,8,8.1,8s8.1-3.6,8.1-8S14.8,24,10.3,24z M10.3,37c-2.8,0-5.1-2.2-5.1-5s2.3-5,5.1-5
			s5.1,2.2,5.1,5S13.2,37,10.3,37z"/>
		<path d="M60.3,30.1h-2.4v-5.3c0-0.8-0.7-1.5-1.5-1.5s-1.5,0.7-1.5,1.5v5.3H27.7c-0.8,0-1.5,0.7-1.5,1.5s0.7,1.5,1.5,1.5h27.2v5.3
			c0,0.8,0.7,1.5,1.5,1.5s1.5-0.7,1.5-1.5v-5.3h2.4c0.8,0,1.5-0.7,1.5-1.5S61.1,30.1,60.3,30.1z"/>
		<path d="M10.3,0.3c-4.5,0-8.1,3.6-8.1,8s3.6,8,8.1,8s8.1-3.6,8.1-8S14.8,0.3,10.3,0.3z M10.3,13.3c-2.8,0-5.1-2.2-5.1-5
			s2.3-5,5.1-5s5.1,2.2,5.1,5S13.2,13.3,10.3,13.3z"/>
		<path d="M10.3,47.7c-4.5,0-8.1,3.6-8.1,8s3.6,8,8.1,8s8.1-3.6,8.1-8S14.8,47.7,10.3,47.7z M10.3,60.7c-2.8,0-5.1-2.2-5.1-5
			s2.3-5,5.1-5s5.1,2.2,5.1,5S13.2,60.7,10.3,60.7z"/>
		<path d="M27.7,9.8H31v5.3c0,0.8,0.7,1.5,1.5,1.5S34,16,34,15.2V9.8h26.2c0.8,0,1.5-0.7,1.5-1.5s-0.7-1.5-1.5-1.5H34V1.5
			C34,0.7,33.4,0,32.5,0S31,0.7,31,1.5v5.3h-3.3c-0.8,0-1.5,0.7-1.5,1.5S26.9,9.8,27.7,9.8z"/>
		<path d="M60.3,54.2H46.1v-5.3c0-0.8-0.7-1.5-1.5-1.5s-1.5,0.7-1.5,1.5v5.3H27.7c-0.8,0-1.5,0.7-1.5,1.5s0.7,1.5,1.5,1.5h15.4v5.3
			c0,0.8,0.7,1.5,1.5,1.5s1.5-0.7,1.5-1.5v-5.3h14.1c0.8,0,1.5-0.7,1.5-1.5S61.1,54.2,60.3,54.2z"/>
	</g>
</g>
<g id="bluetooth">
</g>
<g id="signal-strength">
</g>
<g id="signal-no">
</g>
<g id="signal-tower-no">
</g>
<g id="signal-tower">
</g>
<g id="signal-no-alt">
</g>
<g id="nut">
</g>
<g id="cogs">
</g>
<g id="cog">
</g>
<g id="cog-dash-left">
</g>
<g id="cog-dash-right">
</g>
<g id="cog-fall">
</g>
<g id="io">
</g>
<g id="browser">
</g>
<g id="browser-add">
</g>
<g id="rss">
</g>
<g id="no-access">
</g>
<g id="notification">
</g>
<g id="devices">
</g>
<g id="notification-alert">
</g>
</svg>
