<?xml version="1.0" encoding="utf-8"?>
<!-- Generator: Adobe Illustrator 20.1.0, SVG Export Plug-In . SVG Version: 6.00 Build 0)  -->
<!DOCTYPE svg PUBLIC "-//W3C//DTD SVG 1.1//EN" "http://www.w3.org/Graphics/SVG/1.1/DTD/svg11.dtd">
<svg version="1.1" xmlns="http://www.w3.org/2000/svg" xmlns:xlink="http://www.w3.org/1999/xlink" x="0px" y="0px"
	 viewBox="0 0 64 64" style="enable-background:new 0 0 64 64;" xml:space="preserve">
<g id="desktop">
</g>
<g id="tablet">
</g>
<g id="tablet-landscape">
</g>
<g id="desktop-alt">
</g>
<g id="smartphone">
</g>
<g id="smartphone-landscape">
</g>
<g id="laptop">
</g>
<g id="laptops">
</g>
<g id="desktops">
</g>
<g id="printer">
</g>
<g id="smartphones">
</g>
<g id="smartphone-mail">
</g>
<g id="smartphone-search">
</g>
<g id="desktop-chart">
</g>
<g id="pc">
</g>
<g id="remote-control-alt">
</g>
<g id="remote-control">
</g>
<g id="smartphone-signal">
</g>
<g id="battery-charge">
</g>
<g id="battery-charge-half">
</g>
<g id="battery-charge-full">
</g>
<g id="battery-charging">
</g>
<g id="filter">
</g>
<g id="network-web">
</g>
<g id="chip">
</g>
<g id="preferences-box">
</g>
<g id="preferences-vertical-box">
</g>
<g id="preferences-vertical-box-alt">
</g>
<g id="preferences-box-alt">
</g>
<g id="preferences">
</g>
<g id="preferences-vertical">
</g>
<g id="preferences-vertical-alt">
	<g>
		<path d="M32,45.5c-4.4,0-8,3.6-8,8.1s3.6,8.1,8,8.1s8-3.6,8-8.1S36.4,45.5,32,45.5z M32,58.8c-2.8,0-5-2.3-5-5.1s2.2-5.1,5-5.1
			s5,2.3,5,5.1S34.8,58.8,32,58.8z"/>
		<path d="M30.1,9.1v27.2c0,0.8,0.7,1.5,1.5,1.5s1.5-0.7,1.5-1.5V9.1h5.3c0.8,0,1.5-0.7,1.5-1.5s-0.7-1.5-1.5-1.5h-5.3V3.7
			c0-0.8-0.7-1.5-1.5-1.5s-1.5,0.7-1.5,1.5v2.4h-5.3c-0.8,0-1.5,0.7-1.5,1.5s0.7,1.5,1.5,1.5H30.1z"/>
		<path d="M8.3,45.5c-4.4,0-8,3.6-8,8.1s3.6,8.1,8,8.1s8-3.6,8-8.1S12.8,45.5,8.3,45.5z M8.3,58.8c-2.8,0-5-2.3-5-5.1s2.2-5.1,5-5.1
			s5,2.3,5,5.1S11.1,58.8,8.3,58.8z"/>
		<path d="M55.7,45.5c-4.4,0-8,3.6-8,8.1s3.6,8.1,8,8.1s8-3.6,8-8.1S60.1,45.5,55.7,45.5z M55.7,58.8c-2.8,0-5-2.3-5-5.1
			s2.2-5.1,5-5.1s5,2.3,5,5.1S58.4,58.8,55.7,58.8z"/>
		<path d="M15.2,30H9.8V3.7c0-0.8-0.7-1.5-1.5-1.5S6.8,2.9,6.8,3.7V30H1.5C0.7,30,0,30.6,0,31.5S0.7,33,1.5,33h5.3v3.3
			c0,0.8,0.7,1.5,1.5,1.5s1.5-0.7,1.5-1.5V33h5.3c0.8,0,1.5-0.7,1.5-1.5S16,30,15.2,30z"/>
		<path d="M48.8,20.9h5.3v15.4c0,0.8,0.7,1.5,1.5,1.5s1.5-0.7,1.5-1.5V20.9h5.3c0.8,0,1.5-0.7,1.5-1.5s-0.7-1.5-1.5-1.5h-5.3V3.7
			c0-0.8-0.7-1.5-1.5-1.5s-1.5,0.7-1.5,1.5v14.1h-5.3c-0.8,0-1.5,0.7-1.5,1.5S48,20.9,48.8,20.9z"/>
	</g>
</g>
<g id="preferences-alt">
</g>
<g id="bluetooth">
</g>
<g id="signal-strength">
</g>
<g id="signal-no">
</g>
<g id="signal-tower-no">
</g>
<g id="signal-tower">
</g>
<g id="signal-no-alt">
</g>
<g id="nut">
</g>
<g id="cogs">
</g>
<g id="cog">
</g>
<g id="cog-dash-left">
</g>
<g id="cog-dash-right">
</g>
<g id="cog-fall">
</g>
<g id="io">
</g>
<g id="browser">
</g>
<g id="browser-add">
</g>
<g id="rss">
</g>
<g id="no-access">
</g>
<g id="notification">
</g>
<g id="devices">
</g>
<g id="notification-alert">
</g>
</svg>
