<?xml version="1.0" encoding="utf-8"?>
<!-- Generator: Adobe Illustrator 20.1.0, SVG Export Plug-In . SVG Version: 6.00 Build 0)  -->
<!DOCTYPE svg PUBLIC "-//W3C//DTD SVG 1.1//EN" "http://www.w3.org/Graphics/SVG/1.1/DTD/svg11.dtd">
<svg version="1.1" xmlns="http://www.w3.org/2000/svg" xmlns:xlink="http://www.w3.org/1999/xlink" x="0px" y="0px"
	 viewBox="0 0 64 64" style="enable-background:new 0 0 64 64;" xml:space="preserve">
<g id="desktop">
</g>
<g id="tablet">
</g>
<g id="tablet-landscape">
</g>
<g id="desktop-alt">
</g>
<g id="smartphone">
</g>
<g id="smartphone-landscape">
</g>
<g id="laptop">
</g>
<g id="laptops">
</g>
<g id="desktops">
</g>
<g id="printer">
	<g>
		<path d="M58.4,18.2h-8.2V1.5c0-0.8-0.7-1.5-1.5-1.5H15.4c-0.8,0-1.5,0.7-1.5,1.5v16.7H5.6c-1.9,0-3.6,1.7-3.6,3.7v20.2
			c0,2,1.7,3.7,3.6,3.7h8.2v16.7c0,0.8,0.7,1.5,1.5,1.5h33.3c0.8,0,1.5-0.7,1.5-1.5V45.8h8.2c1.9,0,3.6-1.7,3.6-3.7V21.9
			C62,19.9,60.3,18.2,58.4,18.2z M16.9,3h30.3v15.2H16.9V3z M47.1,61H16.9V39.4h30.3V61z M59,42.1c0,0.3-0.3,0.7-0.6,0.7h-8.2v-4.9
			c0-0.8-0.7-1.5-1.5-1.5H15.4c-0.8,0-1.5,0.7-1.5,1.5v4.9H5.6c-0.2,0-0.6-0.4-0.6-0.7V21.9c0-0.3,0.3-0.7,0.6-0.7h52.8
			c0.2,0,0.6,0.4,0.6,0.7V42.1z"/>
		<path d="M50.3,26.8H13.7c-0.8,0-1.5,0.7-1.5,1.5s0.7,1.5,1.5,1.5h36.5c0.8,0,1.5-0.7,1.5-1.5S51.1,26.8,50.3,26.8z"/>
		<path d="M41.7,52.4H22.3c-0.8,0-1.5,0.7-1.5,1.5s0.7,1.5,1.5,1.5h19.3c0.8,0,1.5-0.7,1.5-1.5S42.5,52.4,41.7,52.4z"/>
		<path d="M41.7,46H22.3c-0.8,0-1.5,0.7-1.5,1.5s0.7,1.5,1.5,1.5h19.3c0.8,0,1.5-0.7,1.5-1.5S42.5,46,41.7,46z"/>
	</g>
</g>
<g id="smartphones">
</g>
<g id="smartphone-mail">
</g>
<g id="smartphone-search">
</g>
<g id="desktop-chart">
</g>
<g id="pc">
</g>
<g id="remote-control-alt">
</g>
<g id="remote-control">
</g>
<g id="smartphone-signal">
</g>
<g id="battery-charge">
</g>
<g id="battery-charge-half">
</g>
<g id="battery-charge-full">
</g>
<g id="battery-charging">
</g>
<g id="filter">
</g>
<g id="network-web">
</g>
<g id="chip">
</g>
<g id="preferences-box">
</g>
<g id="preferences-vertical-box">
</g>
<g id="preferences-vertical-box-alt">
</g>
<g id="preferences-box-alt">
</g>
<g id="preferences">
</g>
<g id="preferences-vertical">
</g>
<g id="preferences-vertical-alt">
</g>
<g id="preferences-alt">
</g>
<g id="bluetooth">
</g>
<g id="signal-strength">
</g>
<g id="signal-no">
</g>
<g id="signal-tower-no">
</g>
<g id="signal-tower">
</g>
<g id="signal-no-alt">
</g>
<g id="nut">
</g>
<g id="cogs">
</g>
<g id="cog">
</g>
<g id="cog-dash-left">
</g>
<g id="cog-dash-right">
</g>
<g id="cog-fall">
</g>
<g id="io">
</g>
<g id="browser">
</g>
<g id="browser-add">
</g>
<g id="rss">
</g>
<g id="no-access">
</g>
<g id="notification">
</g>
<g id="devices">
</g>
<g id="notification-alert">
</g>
</svg>
