<?xml version="1.0" encoding="utf-8"?>
<!-- Generator: Adobe Illustrator 20.1.0, SVG Export Plug-In . SVG Version: 6.00 Build 0)  -->
<!DOCTYPE svg PUBLIC "-//W3C//DTD SVG 1.1//EN" "http://www.w3.org/Graphics/SVG/1.1/DTD/svg11.dtd">
<svg version="1.1" xmlns="http://www.w3.org/2000/svg" xmlns:xlink="http://www.w3.org/1999/xlink" x="0px" y="0px"
	 viewBox="0 0 64 64" style="enable-background:new 0 0 64 64;" xml:space="preserve">
<g id="desktop">
</g>
<g id="tablet">
</g>
<g id="tablet-landscape">
</g>
<g id="desktop-alt">
</g>
<g id="smartphone">
</g>
<g id="smartphone-landscape">
</g>
<g id="laptop">
</g>
<g id="laptops">
</g>
<g id="desktops">
</g>
<g id="printer">
</g>
<g id="smartphones">
</g>
<g id="smartphone-mail">
</g>
<g id="smartphone-search">
</g>
<g id="desktop-chart">
</g>
<g id="pc">
</g>
<g id="remote-control-alt">
</g>
<g id="remote-control">
</g>
<g id="smartphone-signal">
</g>
<g id="battery-charge">
</g>
<g id="battery-charge-half">
</g>
<g id="battery-charge-full">
</g>
<g id="battery-charging">
</g>
<g id="filter">
</g>
<g id="network-web">
</g>
<g id="chip">
</g>
<g id="preferences-box">
</g>
<g id="preferences-vertical-box">
</g>
<g id="preferences-vertical-box-alt">
</g>
<g id="preferences-box-alt">
</g>
<g id="preferences">
	<g>
		<path d="M35.3,12.1h27.2c0.8,0,1.5-0.7,1.5-1.5s-0.7-1.5-1.5-1.5H35.3c-0.8,0-1.5,0.7-1.5,1.5S34.4,12.1,35.3,12.1z"/>
		<path d="M1.5,12.1h9.4c0.7,4.3,4.4,7.6,8.9,7.6c5,0,9-4.1,9-9.1s-4.1-9.1-9-9.1c-4.5,0-8.2,3.3-8.9,7.6H1.5C0.7,9.1,0,9.8,0,10.6
			S0.7,12.1,1.5,12.1z M19.8,4.5c3.3,0,6,2.7,6,6.1c0,3.3-2.7,6.1-6,6.1s-6-2.7-6-6.1C13.8,7.2,16.5,4.5,19.8,4.5z"/>
		<path d="M28.7,30.9H1.5c-0.8,0-1.5,0.7-1.5,1.5s0.7,1.5,1.5,1.5h27.2c0.8,0,1.5-0.7,1.5-1.5S29.6,30.9,28.7,30.9z"/>
		<path d="M62.5,30.9h-9.4c-0.7-4.3-4.4-7.6-8.9-7.6c-5,0-9,4.1-9,9.1s4.1,9.1,9,9.1c4.5,0,8.2-3.3,8.9-7.6h9.4
			c0.8,0,1.5-0.7,1.5-1.5S63.3,30.9,62.5,30.9z M44.2,38.4c-3.3,0-6-2.7-6-6.1s2.7-6.1,6-6.1s6,2.7,6,6.1S47.5,38.4,44.2,38.4z"/>
		<path d="M62.5,51.9H35.3c-0.8,0-1.5,0.7-1.5,1.5s0.7,1.5,1.5,1.5h27.2c0.8,0,1.5-0.7,1.5-1.5S63.3,51.9,62.5,51.9z"/>
		<path d="M19.8,44.3c-4.5,0-8.2,3.3-8.9,7.6H1.5c-0.8,0-1.5,0.7-1.5,1.5s0.7,1.5,1.5,1.5h9.4c0.7,4.3,4.4,7.6,8.9,7.6
			c5,0,9-4.1,9-9.1S24.8,44.3,19.8,44.3z M19.8,59.5c-3.3,0-6-2.7-6-6.1c0-3.3,2.7-6.1,6-6.1s6,2.7,6,6.1
			C25.9,56.8,23.2,59.5,19.8,59.5z"/>
	</g>
</g>
<g id="preferences-vertical">
</g>
<g id="preferences-vertical-alt">
</g>
<g id="preferences-alt">
</g>
<g id="bluetooth">
</g>
<g id="signal-strength">
</g>
<g id="signal-no">
</g>
<g id="signal-tower-no">
</g>
<g id="signal-tower">
</g>
<g id="signal-no-alt">
</g>
<g id="nut">
</g>
<g id="cogs">
</g>
<g id="cog">
</g>
<g id="cog-dash-left">
</g>
<g id="cog-dash-right">
</g>
<g id="cog-fall">
</g>
<g id="io">
</g>
<g id="browser">
</g>
<g id="browser-add">
</g>
<g id="rss">
</g>
<g id="no-access">
</g>
<g id="notification">
</g>
<g id="devices">
</g>
<g id="notification-alert">
</g>
</svg>
