<?xml version="1.0" encoding="utf-8"?>
<!-- Generator: Adobe Illustrator 20.1.0, SVG Export Plug-In . SVG Version: 6.00 Build 0)  -->
<!DOCTYPE svg PUBLIC "-//W3C//DTD SVG 1.1//EN" "http://www.w3.org/Graphics/SVG/1.1/DTD/svg11.dtd">
<svg version="1.1" xmlns="http://www.w3.org/2000/svg" xmlns:xlink="http://www.w3.org/1999/xlink" x="0px" y="0px"
	 viewBox="0 0 64 64" style="enable-background:new 0 0 64 64;" xml:space="preserve">
<g id="desktop">
</g>
<g id="tablet">
</g>
<g id="tablet-landscape">
</g>
<g id="desktop-alt">
</g>
<g id="smartphone">
</g>
<g id="smartphone-landscape">
</g>
<g id="laptop">
</g>
<g id="laptops">
</g>
<g id="desktops">
</g>
<g id="printer">
</g>
<g id="smartphones">
</g>
<g id="smartphone-mail">
</g>
<g id="smartphone-search">
</g>
<g id="desktop-chart">
</g>
<g id="pc">
</g>
<g id="remote-control-alt">
</g>
<g id="remote-control">
</g>
<g id="smartphone-signal">
</g>
<g id="battery-charge">
</g>
<g id="battery-charge-half">
</g>
<g id="battery-charge-full">
</g>
<g id="battery-charging">
</g>
<g id="filter">
</g>
<g id="network-web">
</g>
<g id="chip">
</g>
<g id="preferences-box">
</g>
<g id="preferences-vertical-box">
</g>
<g id="preferences-vertical-box-alt">
	<g>
		<path d="M32,41.1c-3.3,0-6.1,2.7-6.1,6.1s2.7,6.1,6.1,6.1s6.1-2.7,6.1-6.1S35.3,41.1,32,41.1z M32,50.2c-1.7,0-3.1-1.4-3.1-3.1
			c0-1.7,1.4-3.1,3.1-3.1s3.1,1.4,3.1,3.1C35.1,48.9,33.7,50.2,32,50.2z"/>
		<path d="M26.9,17h3.3v18.2c0,0.8,0.7,1.5,1.5,1.5s1.5-0.7,1.5-1.5V17h3.3c0.8,0,1.5-0.7,1.5-1.5S37.4,14,36.5,14h-3.3v-1.2
			c0-0.8-0.7-1.5-1.5-1.5s-1.5,0.7-1.5,1.5V14h-3.3c-0.8,0-1.5,0.7-1.5,1.5S26.1,17,26.9,17z"/>
		<path d="M15.4,41.1c-3.3,0-6.1,2.7-6.1,6.1s2.7,6.1,6.1,6.1s6.1-2.7,6.1-6.1S18.7,41.1,15.4,41.1z M15.4,50.2
			c-1.7,0-3.1-1.4-3.1-3.1c0-1.7,1.4-3.1,3.1-3.1s3.1,1.4,3.1,3.1C18.4,48.9,17,50.2,15.4,50.2z"/>
		<path d="M48.6,41.1c-3.3,0-6.1,2.7-6.1,6.1s2.7,6.1,6.1,6.1s6.1-2.7,6.1-6.1S52,41.1,48.6,41.1z M48.6,50.2
			c-1.7,0-3.1-1.4-3.1-3.1c0-1.7,1.4-3.1,3.1-3.1s3.1,1.4,3.1,3.1C51.7,48.9,50.3,50.2,48.6,50.2z"/>
		<path d="M62.5,0.1h-61C0.7,0.1,0,0.8,0,1.6v60.8c0,0.8,0.7,1.5,1.5,1.5h61c0.8,0,1.5-0.7,1.5-1.5V1.6C64,0.8,63.3,0.1,62.5,0.1z
			 M61,60.9H3V3.1h58V60.9z"/>
		<path d="M10.5,33.4h3.3v1.8c0,0.8,0.7,1.5,1.5,1.5s1.5-0.7,1.5-1.5v-1.8h3.3c0.8,0,1.5-0.7,1.5-1.5s-0.7-1.5-1.5-1.5h-3.3V12.8
			c0-0.8-0.7-1.5-1.5-1.5s-1.5,0.7-1.5,1.5v17.6h-3.3c-0.8,0-1.5,0.7-1.5,1.5S9.7,33.4,10.5,33.4z"/>
		<path d="M43.8,25.1h3.3v10.1c0,0.8,0.7,1.5,1.5,1.5s1.5-0.7,1.5-1.5V25.1h3.3c0.8,0,1.5-0.7,1.5-1.5s-0.7-1.5-1.5-1.5h-3.3v-9.3
			c0-0.8-0.7-1.5-1.5-1.5s-1.5,0.7-1.5,1.5v9.3h-3.3c-0.8,0-1.5,0.7-1.5,1.5S43,25.1,43.8,25.1z"/>
	</g>
</g>
<g id="preferences-box-alt">
</g>
<g id="preferences">
</g>
<g id="preferences-vertical">
</g>
<g id="preferences-vertical-alt">
</g>
<g id="preferences-alt">
</g>
<g id="bluetooth">
</g>
<g id="signal-strength">
</g>
<g id="signal-no">
</g>
<g id="signal-tower-no">
</g>
<g id="signal-tower">
</g>
<g id="signal-no-alt">
</g>
<g id="nut">
</g>
<g id="cogs">
</g>
<g id="cog">
</g>
<g id="cog-dash-left">
</g>
<g id="cog-dash-right">
</g>
<g id="cog-fall">
</g>
<g id="io">
</g>
<g id="browser">
</g>
<g id="browser-add">
</g>
<g id="rss">
</g>
<g id="no-access">
</g>
<g id="notification">
</g>
<g id="devices">
</g>
<g id="notification-alert">
</g>
</svg>
