<?xml version="1.0" encoding="utf-8"?>
<!-- Generator: Adobe Illustrator 20.1.0, SVG Export Plug-In . SVG Version: 6.00 Build 0)  -->
<!DOCTYPE svg PUBLIC "-//W3C//DTD SVG 1.1//EN" "http://www.w3.org/Graphics/SVG/1.1/DTD/svg11.dtd">
<svg version="1.1" xmlns="http://www.w3.org/2000/svg" xmlns:xlink="http://www.w3.org/1999/xlink" x="0px" y="0px"
	 viewBox="0 0 64 64" style="enable-background:new 0 0 64 64;" xml:space="preserve">
<g id="bulb">
</g>
<g id="bulb-on">
</g>
<g id="bulb-alt">
</g>
<g id="bulb-on-alt">
</g>
<g id="energy-bulb">
</g>
<g id="toasting">
</g>
<g id="toasted">
</g>
<g id="binoculars">
</g>
<g id="gift">
</g>
<g id="shaver">
</g>
<g id="candle">
</g>
<g id="shower">
</g>
<g id="bomb">
</g>
<g id="joystick">
</g>
<g id="megaphone">
</g>
<g id="chestdraw">
</g>
<g id="armchair">
</g>
<g id="cardboard-box">
</g>
<g id="bath-shower">
</g>
<g id="diamond">
</g>
<g id="cassette">
</g>
<g id="iron">
</g>
<g id="wash">
</g>
<g id="keyboard-keys">
</g>
<g id="earphones">
</g>
<g id="lifebuoy">
</g>
<g id="calculator">
</g>
<g id="safe">
</g>
<g id="balloon">
</g>
<g id="cake">
</g>
<g id="baseball">
</g>
<g id="football-american">
</g>
<g id="football">
</g>
<g id="anchor">
</g>
<g id="compact-disc">
</g>
<g id="bbq">
</g>
<g id="coffee-machine">
</g>
<g id="teapot">
</g>
<g id="outdoor-stove">
</g>
<g id="pram">
</g>
<g id="paintbrush">
</g>
<g id="stamp">
</g>
<g id="eyedrop">
</g>
<g id="musical-note">
</g>
<g id="magnet">
</g>
<g id="alarm-bell">
</g>
<g id="globe">
</g>
<g id="key">
</g>
<g id="ink">
</g>
<g id="paperclip">
	<path d="M60.1,5.8c-2.3-2.3-4.8-3.4-7.4-3.4c-4.2,0.1-7.1,3.3-7.1,3.4L14.7,36.8c0,0-0.1,0.1-0.1,0.1c-1.5,1.8-3.2,6.3,0.7,10.2
		c3.9,3.9,8.6,1.8,10.6,0.1c0,0,0.1,0,0.1-0.1L49,23.9c0.6-0.6,0.6-1.5,0-2.1c-0.6-0.6-1.5-0.6-2.1,0l-23,23.1
		c-0.4,0.3-3.6,2.9-6.5,0c-2.8-2.8-0.9-5.6-0.5-6.1L47.7,7.9c0,0,2.2-2.3,5-2.4c1.8,0,3.5,0.8,5.2,2.5c2.1,2.1,3.1,4.1,3,5.9
		c-0.1,2-1.4,3.2-1.5,3.3c0,0-0.1,0.1-0.1,0.1l-37.9,38c-0.3,0.3-8.1,7.3-15.4,0c-7-7-0.3-13.9,0-14.2L36,11.1
		c0.6-0.6,0.6-1.5,0-2.1c-0.6-0.6-1.5-0.6-2.1,0L4.1,38.9c-3.2,3.2-7.3,11.2,0,18.4c3.1,3.1,6.3,4.2,9.3,4.2c4.3,0,8.1-2.2,10.2-4.2
		l37.9-38c0.4-0.4,2.3-2.3,2.5-5.3C64.1,11.3,62.8,8.6,60.1,5.8z"/>
</g>
<g id="paint-roller">
</g>
<g id="keyboard">
</g>
</svg>
