<?xml version="1.0" encoding="utf-8"?>
<!-- Generator: Adobe Illustrator 20.1.0, SVG Export Plug-In . SVG Version: 6.00 Build 0)  -->
<!DOCTYPE svg PUBLIC "-//W3C//DTD SVG 1.1//EN" "http://www.w3.org/Graphics/SVG/1.1/DTD/svg11.dtd">
<svg version="1.1" xmlns="http://www.w3.org/2000/svg" xmlns:xlink="http://www.w3.org/1999/xlink" x="0px" y="0px"
	 viewBox="0 0 64.1 64" style="enable-background:new 0 0 64.1 64;" xml:space="preserve">
<g id="truck">
</g>
<g id="car">
</g>
<g id="taxi">
</g>
<g id="rocket">
</g>
<g id="tardis">
</g>
<g id="bus">
</g>
<g id="tram">
</g>
<g id="speedo">
</g>
<g id="air-machine">
</g>
<g id="speedo-alt">
</g>
<g id="motorcycle">
</g>
<g id="car-battery">
</g>
<g id="ufo">
</g>
<g id="arrivals">
</g>
<g id="petrol-pump">
</g>
<g id="gear-shift">
</g>
<g id="car-battery-alt">
</g>
<g id="road">
</g>
<g id="siren">
</g>
<g id="plane">
</g>
<g id="lorry">
</g>
<g id="train">
</g>
<g id="forklift">
</g>
<g id="bicycle">
</g>
<g id="underground">
</g>
<g id="paper-plane">
	<path d="M62.5,0.5c-1.1-0.7-2.7-0.7-3.7,0L1.5,38.7c-1.1,0.7-1.6,1.9-1.5,3.2c0.1,1.3,1,2.3,2.1,2.8l14.4,5.8l6.8,11.8
		c0.6,1.1,1.7,1.7,3,1.7c1.2,0,2.3-0.6,2.9-1.7l3.3-5.5l17.3,6.9c0.4,0.2,0.8,0.3,1.3,0.3c0.6,0,1.2-0.2,1.7-0.4
		c0.9-0.5,1.5-1.4,1.7-2.4L64,4C64.2,2.6,63.6,1.3,62.5,0.5z M3,41.6c0-0.2,0.1-0.3,0.2-0.4L55.3,6.5l-38.1,41l-14-5.6
		C3.1,41.8,3,41.7,3,41.6z M26.7,60.8c-0.1,0.2-0.5,0.3-0.7,0l-6.5-11.3l36.2-38.9l-25,43.7L26.7,60.8z M51.5,60.6
		c0,0.1-0.1,0.2-0.2,0.3C51.2,61,51.1,61,51,61l-16.9-6.7L60.2,8.6L51.5,60.6z"/>
</g>
<g id="hotair-balloon">
</g>
</svg>
