<?xml version="1.0" encoding="utf-8"?>
<!-- Generator: Adobe Illustrator 20.1.0, SVG Export Plug-In . SVG Version: 6.00 Build 0)  -->
<!DOCTYPE svg PUBLIC "-//W3C//DTD SVG 1.1//EN" "http://www.w3.org/Graphics/SVG/1.1/DTD/svg11.dtd">
<svg version="1.1" xmlns="http://www.w3.org/2000/svg" xmlns:xlink="http://www.w3.org/1999/xlink" x="0px" y="0px"
	 viewBox="0 0 64 64" style="enable-background:new 0 0 64 64;" xml:space="preserve">
<g id="credit-card">
</g>
<g id="tag">
</g>
<g id="trolley">
</g>
<g id="trolley-out">
</g>
<g id="trolley-in">
</g>
<g id="wallet">
</g>
<g id="shopping-bag">
</g>
<g id="basket">
</g>
<g id="dollar-circle">
</g>
<g id="pound-circle">
</g>
<g id="euro-circle">
</g>
<g id="yen-circle">
</g>
<g id="purse">
	<g>
		<path d="M55.8,51l-9.3-23.5c-1-3.4-3.7-5.8-7-6.6c0.3-0.5,0.6-1,0.7-1.6l3.5-12.3c0.5-1.7,0.1-3.4-0.9-4.8C41.6,0.8,39.9,0,38.1,0
			h-1.9c0,0,0,0-0.1,0C36.1,0,36,0,36,0c0,0-0.1,0-0.1,0c-0.1,0-0.1,0-0.2,0c0,0-0.1,0-0.1,0.1c0,0-0.1,0.1-0.1,0.1
			c0,0-0.1,0-0.1,0.1c0,0-0.1,0.1-0.1,0.1c0,0-0.1,0-0.1,0.1c-0.1,0.1-0.2,0.3-0.4,0.4c-0.7,0.8-1.9,2.2-2.7,2.2s-2.1-1.4-2.7-2.2
			c-0.1-0.1-0.2-0.3-0.3-0.4c0,0,0,0,0,0c0,0,0,0,0,0c0,0,0,0,0,0c-0.1-0.1-0.1-0.1-0.2-0.2c0,0,0,0-0.1,0c-0.1,0-0.1-0.1-0.2-0.1
			c0,0,0,0-0.1,0c-0.1,0-0.1-0.1-0.2-0.1c0,0-0.1,0-0.1,0c-0.1,0-0.1,0-0.2,0c0,0,0,0-0.1,0h-1.9c-1.9,0-3.6,0.8-4.6,2.3
			c-1,1.3-1.3,3.1-0.9,4.7l3.5,12.5c0.2,0.5,0.4,1.1,0.7,1.5c-3.4,0.8-6.1,3.2-7,6.5L8.2,50.9c-1.2,3-0.8,6.2,1,8.9
			C11,62.4,14,64,17.3,64h29.4c3.3,0,6.3-1.6,8.1-4.2C56.6,57.2,56.9,54,55.8,51z M40.3,4.1c0.5,0.6,0.6,1.4,0.4,2.2l-3.5,12.3
			c-0.3,0.9-0.9,1.6-1.7,2l2-17.5h0.5C39,3,39.8,3.4,40.3,4.1z M32,6.1c0.8,0,1.6-0.3,2.3-0.7l-1.8,15.3h-1.2L29.7,5.4
			C30.4,5.8,31.1,6.1,32,6.1z M23.3,6.1c-0.2-0.7-0.1-1.5,0.4-2.1C24.2,3.4,25,3,25.9,3h0.5l1.8,17.4c-0.7-0.4-1.3-1-1.5-1.8
			L23.3,6.1z M52.4,58.1C51.1,59.9,49,61,46.7,61H17.3c-2.3,0-4.4-1.1-5.6-2.9c-1.2-1.8-1.5-4-0.7-6.1l9.4-23.5c0-0.1,0-0.1,0.1-0.2
			c0.8-2.8,3.3-4.6,6.5-4.6h2.5h5.2h2.5c3.1,0,5.7,1.9,6.5,4.7c0,0.1,0,0.1,0.1,0.2L53,52.1C53.8,54.1,53.6,56.3,52.4,58.1z"/>
		<path d="M29.3,28.5c-0.8-0.2-1.6,0.3-1.8,1.1l-6.2,24.7c-0.2,0.8,0.3,1.6,1.1,1.8c0.1,0,0.2,0,0.4,0c0.7,0,1.3-0.5,1.5-1.1
			l6.2-24.7C30.6,29.5,30.1,28.7,29.3,28.5z"/>
		<path d="M36.5,29.6c-0.2-0.8-1-1.3-1.8-1.1c-0.8,0.2-1.3,1-1.1,1.8L39.8,55c0.2,0.7,0.8,1.1,1.5,1.1c0.1,0,0.2,0,0.4,0
			c0.8-0.2,1.3-1,1.1-1.8L36.5,29.6z"/>
	</g>
</g>
<g id="banknote">
</g>
</svg>
