<?xml version="1.0" encoding="utf-8"?>
<!-- Generator: Adobe Illustrator 20.1.0, SVG Export Plug-In . SVG Version: 6.00 Build 0)  -->
<!DOCTYPE svg PUBLIC "-//W3C//DTD SVG 1.1//EN" "http://www.w3.org/Graphics/SVG/1.1/DTD/svg11.dtd">
<svg version="1.1" xmlns="http://www.w3.org/2000/svg" xmlns:xlink="http://www.w3.org/1999/xlink" x="0px" y="0px"
	 viewBox="0 0 64 64" style="enable-background:new 0 0 64 64;" xml:space="preserve">
<g id="suitcase">
</g>
<g id="backpack">
</g>
<g id="chef-hat">
</g>
<g id="work-jacket">
</g>
<g id="tshirt">
</g>
<g id="handbag">
</g>
<g id="coat-hanger">
</g>
<g id="measuring-tape">
</g>
<g id="pants">
	<path d="M62.5,7.4h-61C0.7,7.4,0,8,0,8.9v19.9c0,0.4,0.2,0.8,0.5,1.1s0.7,0.4,1.1,0.4c0.4,0,10.3-0.7,14.7,7.4
		c4.7,8.7,5.4,11.2,5.5,11.3c0.8,2.6,3.9,7.6,10.3,7.6c6.5,0,9.4-5,10.1-7.6c0-0.1,0.7-2.6,5.5-11.3c4.4-8.2,14.3-7.5,14.7-7.4
		c0.4,0,0.8-0.1,1.1-0.4c0.3-0.3,0.5-0.7,0.5-1.1V8.9C64,8,63.3,7.4,62.5,7.4z M61,10.4v4.3H3v-4.3H61z M3,27.2v-9.6h27.5v12.8
		l-10.3,8.2c-0.4-0.7-0.8-1.5-1.3-2.4C14.7,28.4,6.5,27.3,3,27.2z M39.3,48.2c-0.1,0.2-1.5,5.4-7.2,5.4c-5.7,0-7.4-5.2-7.4-5.4
		c-0.1-0.2-0.5-1.9-3.1-6.9L32,33.1l10.4,8.3C39.8,46.4,39.4,48,39.3,48.2z M45,36.3c-0.5,0.8-0.9,1.6-1.3,2.4l-10.3-8.2V17.6H61
		v9.6C57.5,27.3,49.3,28.4,45,36.3z"/>
</g>
<g id="t-shirt-ale">
</g>
<g id="watch">
</g>
<g id="glasses">
</g>
<g id="graduation-hat">
</g>
<g id="scuba-gear">
</g>
<g id="shoe">
</g>
<g id="crown">
</g>
<g id="wand">
</g>
<g id="crown-alt">
</g>
</svg>
