<?xml version="1.0" encoding="utf-8"?>
<!-- Generator: Adobe Illustrator 20.1.0, SVG Export Plug-In . SVG Version: 6.00 Build 0)  -->
<!DOCTYPE svg PUBLIC "-//W3C//DTD SVG 1.1//EN" "http://www.w3.org/Graphics/SVG/1.1/DTD/svg11.dtd">
<svg version="1.1" xmlns="http://www.w3.org/2000/svg" xmlns:xlink="http://www.w3.org/1999/xlink" x="0px" y="0px"
	 viewBox="0 0 64 64" style="enable-background:new 0 0 64 64;" xml:space="preserve">
<g id="behance">
</g>
<g id="twitter">
</g>
<g id="vimeo">
</g>
<g id="wordpress">
</g>
<g id="Layer_179">
</g>
<g id="xing">
</g>
<g id="youtube">
</g>
<g id="whatsapp">
</g>
<g id="flickr">
</g>
<g id="dribbble">
</g>
<g id="facebook">
</g>
<g id="foursquare">
</g>
<g id="github">
</g>
<g id="github-alt">
</g>
<g id="google-plus">
</g>
<g id="google">
</g>
<g id="joomla">
</g>
<g id="soundcloud">
</g>
<g id="instagram">
</g>
<g id="linkedin">
</g>
<g id="pagekit">
</g>
<g id="pinterest">
	<path d="M32.8,0C16.1,0,7.2,11.2,7.2,23.5c0,5.7,3,12.8,7.9,15c0.7,0.4,1.1,0.2,1.3-0.5c0.1-0.5,0.8-3.2,1.1-4.4
		c0.1-0.4,0-0.7-0.3-1.1c-1.6-2-2.8-5.5-2.8-8.8c0-8.6,6.5-16.8,17.5-16.8c9.5,0,16.2,6.5,16.2,15.8c0,10.5-5.3,17.8-12.2,17.8
		c-3.8,0-6.6-3.1-5.8-7c1.1-4.6,3.2-9.6,3.2-12.9c0-3-1.6-5.5-4.9-5.5c-3.9,0-7,4-7,9.4c0,3.4,1.2,5.8,1.2,5.8S18.7,46.4,18,49.4
		c-1.2,5.1,0.1,13.5,0.3,14.2c0.1,0.4,0.5,0.5,0.7,0.2c0.4-0.5,5-7.5,6.3-12.5c0.5-1.8,2.4-9.2,2.4-9.2c1.3,2.4,5,4.4,8.9,4.4
		c11.7,0,20.2-10.8,20.2-24.1C56.7,9.6,46.3,0,32.8,0z"/>
</g>
<g id="windows">
</g>
<g id="bronzelabs">
</g>
<g id="apple">
</g>
<g id="android">
</g>
<g id="mwkr-alt">
</g>
<g id="mwkr">
</g>
<g id="deviantart">
</g>
<g id="deviantart-alt">
</g>
</svg>
