<?xml version="1.0" encoding="utf-8"?>
<!-- Generator: Adobe Illustrator 20.1.0, SVG Export Plug-In . SVG Version: 6.00 Build 0)  -->
<!DOCTYPE svg PUBLIC "-//W3C//DTD SVG 1.1//EN" "http://www.w3.org/Graphics/SVG/1.1/DTD/svg11.dtd">
<svg version="1.1" xmlns="http://www.w3.org/2000/svg" xmlns:xlink="http://www.w3.org/1999/xlink" x="0px" y="0px"
	 viewBox="0 0 64 64" style="enable-background:new 0 0 64 64;" xml:space="preserve">
<g id="camera">
</g>
<g id="video">
</g>
<g id="step-backward">
</g>
<g id="fast-backward">
</g>
<g id="backward">
</g>
<g id="play">
</g>
<g id="stop">
</g>
<g id="pause">
</g>
<g id="record">
</g>
<g id="eject">
</g>
<g id="forward">
</g>
<g id="fast-forward">
</g>
<g id="step-forward">
</g>
<g id="repeat">
</g>
<g id="repeat-one">
</g>
<g id="shuffle">
</g>
<g id="mute">
</g>
<g id="sound-none">
</g>
<g id="sound-low">
</g>
<g id="sound-high">
</g>
<g id="step-backward-circle">
</g>
<g id="fast-backward-circle">
</g>
<g id="backward-circle">
</g>
<g id="play-circle">
</g>
<g id="stop-circle">
</g>
<g id="pause-circle">
	<g>
		<path d="M32,0C14.4,0,0,14.4,0,32s14.4,32,32,32s32-14.3,32-32S49.6,0,32,0z M32,61C16,61,3,48,3,32S16,3,32,3s29,13,29,29
			S48,61,32,61z"/>
		<path d="M26.5,20.5c-0.8,0-1.5,0.7-1.5,1.5v20c0,0.8,0.7,1.5,1.5,1.5S28,42.8,28,42V22C28,21.2,27.3,20.5,26.5,20.5z"/>
		<path d="M37.5,20.5c-0.8,0-1.5,0.7-1.5,1.5v20c0,0.8,0.7,1.5,1.5,1.5S39,42.8,39,42V22C39,21.2,38.3,20.5,37.5,20.5z"/>
	</g>
</g>
<g id="record-circle">
</g>
<g id="eject-circle">
</g>
<g id="forward-circle">
</g>
<g id="fast-forward-circle">
</g>
<g id="step-forward-circle">
</g>
</svg>
