<?xml version="1.0" encoding="utf-8"?>
<!-- Generator: Adobe Illustrator 20.1.0, SVG Export Plug-In . SVG Version: 6.00 Build 0)  -->
<!DOCTYPE svg PUBLIC "-//W3C//DTD SVG 1.1//EN" "http://www.w3.org/Graphics/SVG/1.1/DTD/svg11.dtd">
<svg version="1.1" xmlns="http://www.w3.org/2000/svg" xmlns:xlink="http://www.w3.org/1999/xlink" x="0px" y="0px"
	 viewBox="0 0 64 64" style="enable-background:new 0 0 64 64;" xml:space="preserve">
<g id="desktop">
</g>
<g id="tablet">
</g>
<g id="tablet-landscape">
</g>
<g id="desktop-alt">
</g>
<g id="smartphone">
</g>
<g id="smartphone-landscape">
</g>
<g id="laptop">
</g>
<g id="laptops">
</g>
<g id="desktops">
</g>
<g id="printer">
</g>
<g id="smartphones">
</g>
<g id="smartphone-mail">
</g>
<g id="smartphone-search">
</g>
<g id="desktop-chart">
</g>
<g id="pc">
	<g>
		<path d="M22.4,48.2H8.5c-0.8,0-1.5,0.7-1.5,1.5s0.7,1.5,1.5,1.5h13.9c0.8,0,1.5-0.7,1.5-1.5S23.2,48.2,22.4,48.2z"/>
		<path d="M13.8,54.7H8.5c-0.8,0-1.5,0.7-1.5,1.5s0.7,1.5,1.5,1.5h5.4c0.8,0,1.5-0.7,1.5-1.5S14.6,54.7,13.8,54.7z"/>
		<path d="M58.2,41.8H5.8c-3.1,0-5.8,2.8-5.8,6v14.9c0,0.8,0.7,1.5,1.5,1.5h61c0.8,0,1.5-0.7,1.5-1.5V47.7
			C64,44.6,61.3,41.8,58.2,41.8z M61,61.1H3V47.7c0-1.5,1.4-3,2.8-3h52.3c1.5,0,2.8,1.4,2.8,3V61.1z"/>
		<path d="M7.9,39.4h48.1c3.3,0,5.8-2.2,5.8-5.1V5.7c0-3.1-2.7-5.8-5.8-5.8H7.9c-3.1,0-5.8,2.6-5.8,5.8v28.6
			C2.1,37.2,4.6,39.4,7.9,39.4z M5.1,5.7c0-1.4,1.3-2.8,2.8-2.8h48.1c1.5,0,2.8,1.3,2.8,2.8v28.6c0,1.5-1.4,2.1-2.8,2.1H7.9
			c-1.3,0-2.8-0.7-2.8-2.1V5.7z"/>
	</g>
</g>
<g id="remote-control-alt">
</g>
<g id="remote-control">
</g>
<g id="smartphone-signal">
</g>
<g id="battery-charge">
</g>
<g id="battery-charge-half">
</g>
<g id="battery-charge-full">
</g>
<g id="battery-charging">
</g>
<g id="filter">
</g>
<g id="network-web">
</g>
<g id="chip">
</g>
<g id="preferences-box">
</g>
<g id="preferences-vertical-box">
</g>
<g id="preferences-vertical-box-alt">
</g>
<g id="preferences-box-alt">
</g>
<g id="preferences">
</g>
<g id="preferences-vertical">
</g>
<g id="preferences-vertical-alt">
</g>
<g id="preferences-alt">
</g>
<g id="bluetooth">
</g>
<g id="signal-strength">
</g>
<g id="signal-no">
</g>
<g id="signal-tower-no">
</g>
<g id="signal-tower">
</g>
<g id="signal-no-alt">
</g>
<g id="nut">
</g>
<g id="cogs">
</g>
<g id="cog">
</g>
<g id="cog-dash-left">
</g>
<g id="cog-dash-right">
</g>
<g id="cog-fall">
</g>
<g id="io">
</g>
<g id="browser">
</g>
<g id="browser-add">
</g>
<g id="rss">
</g>
<g id="no-access">
</g>
<g id="notification">
</g>
<g id="devices">
</g>
<g id="notification-alert">
</g>
</svg>
