<?xml version="1.0" encoding="utf-8"?>
<!-- Generator: Adobe Illustrator 20.1.0, SVG Export Plug-In . SVG Version: 6.00 Build 0)  -->
<!DOCTYPE svg PUBLIC "-//W3C//DTD SVG 1.1//EN" "http://www.w3.org/Graphics/SVG/1.1/DTD/svg11.dtd">
<svg version="1.1" xmlns="http://www.w3.org/2000/svg" xmlns:xlink="http://www.w3.org/1999/xlink" x="0px" y="0px"
	 viewBox="0 0 64 64" style="enable-background:new 0 0 64 64;" xml:space="preserve">
<g id="text-height">
</g>
<g id="font">
</g>
<g id="text">
</g>
<g id="italic">
</g>
<g id="strikethrough">
</g>
<g id="paragraph">
</g>
<g id="bold">
</g>
<g id="quote-right">
</g>
<g id="hashtag">
</g>
<g id="anchor-handle">
</g>
<g id="box">
</g>
<g id="fullscreen">
</g>
<g id="fullscreen-alt">
</g>
<g id="golden-ratio">
</g>
<g id="hexgrid">
</g>
<g id="box-points">
</g>
<g id="box-points-move">
</g>
<g id="box-points-move-alt">
</g>
<g id="hex_1_">
</g>
<g id="hex-diamond">
</g>
<g id="artboards-vertical">
</g>
<g id="artboards">
</g>
<g id="artboards-alt-vertical">
</g>
<g id="artboards-alt">
</g>
<g id="scale">
</g>
<g id="pencil">
</g>
<g id="fill">
</g>
<g id="artist-mug">
</g>
<g id="pen">
</g>
<g id="calligraphy-pen-tip">
</g>
<g id="calligraphy-pen_1_">
</g>
<g id="paint-pallette">
</g>
<g id="tools-cross">
</g>
<g id="edit-tools">
</g>
<g id="pencil-ruler">
	<g>
		<path d="M48.7,0h-16c-0.8,0-1.5,0.7-1.5,1.5v61c0,0.8,0.7,1.5,1.5,1.5h16c0.8,0,1.5-0.7,1.5-1.5v-61C50.2,0.7,49.6,0,48.7,0z
			 M47.2,61h-13v-8h4c0.8,0,1.5-0.7,1.5-1.5S39.1,50,38.2,50h-4v-7h4c0.8,0,1.5-0.7,1.5-1.5S39.1,40,38.2,40h-4v-8h4
			c0.8,0,1.5-0.7,1.5-1.5S39.1,29,38.2,29h-4v-7h4c0.8,0,1.5-0.7,1.5-1.5S39.1,19,38.2,19h-4v-8h4c0.8,0,1.5-0.7,1.5-1.5
			S39.1,8,38.2,8h-4V3h13V61z"/>
		<path d="M21.3,5.6c-0.2-0.5-0.8-0.9-1.3-0.9c-0.6,0-1.1,0.3-1.4,0.8L14,14.8c-0.1,0.2-0.2,0.4-0.2,0.7l-0.1,42.5c0,0,0,0,0,0
			c0,3.3,2.7,5.9,6,6c3.3,0,6-2.7,6-6l0.2-42.3c0-0.2,0-0.4-0.1-0.6L21.3,5.6z M19.9,9.7l3,6.3l-0.1,35.1l-6,0l0.1-35.3L19.9,9.7z
			 M19.8,60.9c-1.6,0-3-1.3-3-3l0-3.8l6,0l0,3.8C22.7,59.6,21.4,60.9,19.8,60.9z"/>
	</g>
</g>
<g id="ruler-measure">
</g>
<g id="measure">
</g>
<g id="code">
</g>
<g id="move">
</g>
<g id="external">
</g>
<g id="terminal">
</g>
<g id="thumbnails">
</g>
</svg>
