<?xml version="1.0" encoding="utf-8"?>
<!-- Generator: Adobe Illustrator 20.1.0, SVG Export Plug-In . SVG Version: 6.00 Build 0)  -->
<!DOCTYPE svg PUBLIC "-//W3C//DTD SVG 1.1//EN" "http://www.w3.org/Graphics/SVG/1.1/DTD/svg11.dtd">
<svg version="1.1" xmlns="http://www.w3.org/2000/svg" xmlns:xlink="http://www.w3.org/1999/xlink" x="0px" y="0px"
	 viewBox="0 0 64 64" style="enable-background:new 0 0 64 64;" xml:space="preserve">
<g id="text-height">
</g>
<g id="font">
</g>
<g id="text">
</g>
<g id="italic">
</g>
<g id="strikethrough">
</g>
<g id="paragraph">
</g>
<g id="bold">
</g>
<g id="quote-right">
</g>
<g id="hashtag">
</g>
<g id="anchor-handle">
</g>
<g id="box">
</g>
<g id="fullscreen">
</g>
<g id="fullscreen-alt">
</g>
<g id="golden-ratio">
</g>
<g id="hexgrid">
</g>
<g id="box-points">
</g>
<g id="box-points-move">
</g>
<g id="box-points-move-alt">
</g>
<g id="hex_1_">
</g>
<g id="hex-diamond">
</g>
<g id="artboards-vertical">
</g>
<g id="artboards">
</g>
<g id="artboards-alt-vertical">
</g>
<g id="artboards-alt">
</g>
<g id="scale">
</g>
<g id="pencil">
	<path d="M61.5,2.4C60,0.9,58,0,55.8,0s-4.2,0.9-5.7,2.4L5.8,46.8c-0.2,0.2-0.3,0.3-0.3,0.6L0.2,62c-0.2,0.5-0.1,1.1,0.3,1.6
		C0.9,63.8,1.2,64,1.6,64c0.2,0,0.3,0,0.5-0.1L16.6,59c0.2-0.1,0.4-0.2,0.6-0.4L61.5,14c0,0,0,0,0,0C64.6,10.8,64.6,5.6,61.5,2.4z
		 M15.3,56.3L4.1,60.1l4.1-11.4l37.3-37.5l7.2,7.3L15.3,56.3z M59.4,11.9l-4.5,4.5l-7.2-7.3l4.5-4.5c1-1,2.2-1.5,3.6-1.5
		s2.6,0.5,3.6,1.5C61.3,6.5,61.3,9.8,59.4,11.9z"/>
</g>
<g id="fill">
</g>
<g id="artist-mug">
</g>
<g id="pen">
</g>
<g id="calligraphy-pen-tip">
</g>
<g id="calligraphy-pen_1_">
</g>
<g id="paint-pallette">
</g>
<g id="tools-cross">
</g>
<g id="edit-tools">
</g>
<g id="pencil-ruler">
</g>
<g id="ruler-measure">
</g>
<g id="measure">
</g>
<g id="code">
</g>
<g id="move">
</g>
<g id="external">
</g>
<g id="terminal">
</g>
<g id="thumbnails">
</g>
</svg>
