<?xml version="1.0" encoding="utf-8"?>
<!-- Generator: Adobe Illustrator 20.1.0, SVG Export Plug-In . SVG Version: 6.00 Build 0)  -->
<!DOCTYPE svg PUBLIC "-//W3C//DTD SVG 1.1//EN" "http://www.w3.org/Graphics/SVG/1.1/DTD/svg11.dtd">
<svg version="1.1" xmlns="http://www.w3.org/2000/svg" xmlns:xlink="http://www.w3.org/1999/xlink" x="0px" y="0px"
	 viewBox="0 0 64 64" style="enable-background:new 0 0 64 64;" xml:space="preserve">
<g id="desktop">
</g>
<g id="tablet">
</g>
<g id="tablet-landscape">
</g>
<g id="desktop-alt">
</g>
<g id="smartphone">
</g>
<g id="smartphone-landscape">
</g>
<g id="laptop">
</g>
<g id="laptops">
</g>
<g id="desktops">
</g>
<g id="printer">
</g>
<g id="smartphones">
</g>
<g id="smartphone-mail">
</g>
<g id="smartphone-search">
</g>
<g id="desktop-chart">
</g>
<g id="pc">
</g>
<g id="remote-control-alt">
</g>
<g id="remote-control">
</g>
<g id="smartphone-signal">
</g>
<g id="battery-charge">
</g>
<g id="battery-charge-half">
</g>
<g id="battery-charge-full">
</g>
<g id="battery-charging">
</g>
<g id="filter">
</g>
<g id="network-web">
</g>
<g id="chip">
</g>
<g id="preferences-box">
</g>
<g id="preferences-vertical-box">
</g>
<g id="preferences-vertical-box-alt">
</g>
<g id="preferences-box-alt">
	<g>
		<path d="M16.8,38.1c3.3,0,6.1-2.7,6.1-6.1s-2.7-6.1-6.1-6.1s-6.1,2.7-6.1,6.1S13.5,38.1,16.8,38.1z M16.8,28.9
			c1.7,0,3.1,1.4,3.1,3.1s-1.4,3.1-3.1,3.1c-1.7,0-3.1-1.4-3.1-3.1S15.1,28.9,16.8,28.9z"/>
		<path d="M28.8,33.2H47v3.3c0,0.8,0.7,1.5,1.5,1.5s1.5-0.7,1.5-1.5v-3.3h1.2c0.8,0,1.5-0.7,1.5-1.5s-0.7-1.5-1.5-1.5H50v-3.3
			c0-0.8-0.7-1.5-1.5-1.5S47,26.1,47,26.9v3.3H28.8c-0.8,0-1.5,0.7-1.5,1.5S28,33.2,28.8,33.2z"/>
		<path d="M16.8,21.4c3.3,0,6.1-2.7,6.1-6.1s-2.7-6.1-6.1-6.1s-6.1,2.7-6.1,6.1S13.5,21.4,16.8,21.4z M16.8,12.3
			c1.7,0,3.1,1.4,3.1,3.1s-1.4,3.1-3.1,3.1c-1.7,0-3.1-1.4-3.1-3.1S15.1,12.3,16.8,12.3z"/>
		<path d="M16.8,54.7c3.3,0,6.1-2.7,6.1-6.1s-2.7-6.1-6.1-6.1s-6.1,2.7-6.1,6.1S13.5,54.7,16.8,54.7z M16.8,45.6
			c1.7,0,3.1,1.4,3.1,3.1s-1.4,3.1-3.1,3.1c-1.7,0-3.1-1.4-3.1-3.1S15.1,45.6,16.8,45.6z"/>
		<path d="M62.4,0H1.6C0.8,0,0.1,0.7,0.1,1.5v61c0,0.8,0.7,1.5,1.5,1.5h60.8c0.8,0,1.5-0.7,1.5-1.5v-61C63.9,0.7,63.2,0,62.4,0z
			 M60.9,61H3.1V3h57.8V61z"/>
		<path d="M28.8,16.9h1.8v3.3c0,0.8,0.7,1.5,1.5,1.5s1.5-0.7,1.5-1.5v-3.3h17.6c0.8,0,1.5-0.7,1.5-1.5s-0.7-1.5-1.5-1.5H33.6v-3.3
			c0-0.8-0.7-1.5-1.5-1.5s-1.5,0.7-1.5,1.5v3.3h-1.8c-0.8,0-1.5,0.7-1.5,1.5S28,16.9,28.8,16.9z"/>
		<path d="M28.8,50.1h10.1v3.3c0,0.8,0.7,1.5,1.5,1.5s1.5-0.7,1.5-1.5v-3.3h9.3c0.8,0,1.5-0.7,1.5-1.5s-0.7-1.5-1.5-1.5h-9.3v-3.3
			c0-0.8-0.7-1.5-1.5-1.5s-1.5,0.7-1.5,1.5v3.3H28.8c-0.8,0-1.5,0.7-1.5,1.5S28,50.1,28.8,50.1z"/>
	</g>
</g>
<g id="preferences">
</g>
<g id="preferences-vertical">
</g>
<g id="preferences-vertical-alt">
</g>
<g id="preferences-alt">
</g>
<g id="bluetooth">
</g>
<g id="signal-strength">
</g>
<g id="signal-no">
</g>
<g id="signal-tower-no">
</g>
<g id="signal-tower">
</g>
<g id="signal-no-alt">
</g>
<g id="nut">
</g>
<g id="cogs">
</g>
<g id="cog">
</g>
<g id="cog-dash-left">
</g>
<g id="cog-dash-right">
</g>
<g id="cog-fall">
</g>
<g id="io">
</g>
<g id="browser">
</g>
<g id="browser-add">
</g>
<g id="rss">
</g>
<g id="no-access">
</g>
<g id="notification">
</g>
<g id="devices">
</g>
<g id="notification-alert">
</g>
</svg>
