<?xml version="1.0" encoding="utf-8"?>
<!-- Generator: Adobe Illustrator 20.1.0, SVG Export Plug-In . SVG Version: 6.00 Build 0)  -->
<!DOCTYPE svg PUBLIC "-//W3C//DTD SVG 1.1//EN" "http://www.w3.org/Graphics/SVG/1.1/DTD/svg11.dtd">
<svg version="1.1" xmlns="http://www.w3.org/2000/svg" xmlns:xlink="http://www.w3.org/1999/xlink" x="0px" y="0px"
	 viewBox="0 0 64 64" style="enable-background:new 0 0 64 64;" xml:space="preserve">
<g id="desktop">
</g>
<g id="tablet">
</g>
<g id="tablet-landscape">
</g>
<g id="desktop-alt">
</g>
<g id="smartphone">
</g>
<g id="smartphone-landscape">
</g>
<g id="laptop">
</g>
<g id="laptops">
</g>
<g id="desktops">
</g>
<g id="printer">
</g>
<g id="smartphones">
</g>
<g id="smartphone-mail">
</g>
<g id="smartphone-search">
</g>
<g id="desktop-chart">
</g>
<g id="pc">
</g>
<g id="remote-control-alt">
</g>
<g id="remote-control">
</g>
<g id="smartphone-signal">
</g>
<g id="battery-charge">
</g>
<g id="battery-charge-half">
</g>
<g id="battery-charge-full">
</g>
<g id="battery-charging">
</g>
<g id="filter">
</g>
<g id="network-web">
</g>
<g id="chip">
</g>
<g id="preferences-box">
</g>
<g id="preferences-vertical-box">
	<g>
		<path d="M45.3,32.6c-0.8,0-1.5,0.7-1.5,1.5v16c0,0.8,0.7,1.5,1.5,1.5s1.5-0.7,1.5-1.5v-16C46.8,33.3,46.1,32.6,45.3,32.6z"/>
		<path d="M45.3,30.7c3.3,0,6.1-2.7,6.1-6.1c0-2.8-1.9-5.2-4.6-5.9v-5.1c0-0.8-0.7-1.5-1.5-1.5s-1.5,0.7-1.5,1.5v5.1
			c-2.6,0.7-4.6,3-4.6,5.9C39.2,28,41.9,30.7,45.3,30.7z M45.3,21.6c1.7,0,3.1,1.4,3.1,3.1s-1.4,3.1-3.1,3.1s-3.1-1.4-3.1-3.1
			S43.6,21.6,45.3,21.6z"/>
		<path d="M62.5,0.1h-61C0.7,0.1,0,0.8,0,1.6v60.8c0,0.8,0.7,1.5,1.5,1.5h61c0.8,0,1.5-0.7,1.5-1.5V1.6C64,0.8,63.3,0.1,62.5,0.1z
			 M61,60.9H3V3.1h58V60.9z"/>
		<path d="M31.9,31.2c0.8,0,1.5-0.7,1.5-1.5v-16c0-0.8-0.7-1.5-1.5-1.5s-1.5,0.7-1.5,1.5v16C30.4,30.5,31.1,31.2,31.9,31.2z"/>
		<path d="M30.4,45v5.1c0,0.8,0.7,1.5,1.5,1.5s1.5-0.7,1.5-1.5V45c2.6-0.7,4.6-3,4.6-5.9c0-3.3-2.7-6.1-6.1-6.1s-6.1,2.7-6.1,6.1
			C25.9,42,27.8,44.4,30.4,45z M31.9,36.1c1.7,0,3.1,1.4,3.1,3.1s-1.4,3.1-3.1,3.1s-3.1-1.4-3.1-3.1S30.2,36.1,31.9,36.1z"/>
		<path d="M18.6,32.6c-0.8,0-1.5,0.7-1.5,1.5v16c0,0.8,0.7,1.5,1.5,1.5s1.5-0.7,1.5-1.5v-16C20.1,33.3,19.5,32.6,18.6,32.6z"/>
		<path d="M18.6,30.7c3.3,0,6.1-2.7,6.1-6.1c0-2.8-1.9-5.2-4.6-5.9v-5.1c0-0.8-0.7-1.5-1.5-1.5s-1.5,0.7-1.5,1.5v5.1
			c-2.6,0.7-4.6,3-4.6,5.9C12.6,28,15.3,30.7,18.6,30.7z M18.6,21.6c1.7,0,3.1,1.4,3.1,3.1s-1.4,3.1-3.1,3.1s-3.1-1.4-3.1-3.1
			S16.9,21.6,18.6,21.6z"/>
	</g>
</g>
<g id="preferences-vertical-box-alt">
</g>
<g id="preferences-box-alt">
</g>
<g id="preferences">
</g>
<g id="preferences-vertical">
</g>
<g id="preferences-vertical-alt">
</g>
<g id="preferences-alt">
</g>
<g id="bluetooth">
</g>
<g id="signal-strength">
</g>
<g id="signal-no">
</g>
<g id="signal-tower-no">
</g>
<g id="signal-tower">
</g>
<g id="signal-no-alt">
</g>
<g id="nut">
</g>
<g id="cogs">
</g>
<g id="cog">
</g>
<g id="cog-dash-left">
</g>
<g id="cog-dash-right">
</g>
<g id="cog-fall">
</g>
<g id="io">
</g>
<g id="browser">
</g>
<g id="browser-add">
</g>
<g id="rss">
</g>
<g id="no-access">
</g>
<g id="notification">
</g>
<g id="devices">
</g>
<g id="notification-alert">
</g>
</svg>
