<?xml version="1.0" encoding="utf-8"?>
<!-- Generator: Adobe Illustrator 20.1.0, SVG Export Plug-In . SVG Version: 6.00 Build 0)  -->
<!DOCTYPE svg PUBLIC "-//W3C//DTD SVG 1.1//EN" "http://www.w3.org/Graphics/SVG/1.1/DTD/svg11.dtd">
<svg version="1.1" xmlns="http://www.w3.org/2000/svg" xmlns:xlink="http://www.w3.org/1999/xlink" x="0px" y="0px"
	 viewBox="0 0 64 64" style="enable-background:new 0 0 64 64;" xml:space="preserve">
<g id="truck">
</g>
<g id="car">
</g>
<g id="taxi">
</g>
<g id="rocket">
</g>
<g id="tardis">
</g>
<g id="bus">
</g>
<g id="tram">
</g>
<g id="speedo">
</g>
<g id="air-machine">
</g>
<g id="speedo-alt">
</g>
<g id="motorcycle">
</g>
<g id="car-battery">
</g>
<g id="ufo">
</g>
<g id="arrivals">
</g>
<g id="petrol-pump">
	<path d="M59.4,18.1l-1.3-2.6c-0.1-0.3-0.2-0.5-0.4-0.7l-2.6-5.2c-0.4-0.7-1.3-1-2-0.7c-0.7,0.4-1,1.3-0.7,2l1.8,3.6
		c-1.8,0.7-3.1,2.4-3.1,4.4c0,2.6,2.1,4.8,4.8,4.8c0.1,0,0.3,0,0.4,0L54.6,45c0,0,0,0.1,0,0.1c0,1.6-1.2,2.8-2.8,2.8
		c-1.5,0-2.8-1.3-2.8-2.9v-6.5c0-3.1-2.7-5.5-6.1-5.5h-3.5l0.5-4.3c1.2-0.5,2.1-1.8,2.1-3.2v-22C42,1.6,40.4,0,38.5,0h-31
		C5.6,0,4,1.6,4,3.5v22c0,1.6,1.1,3,2.7,3.4l4,32.1H6c-0.8,0-1.5,0.7-1.5,1.5S5.2,64,6,64h35c0.8,0,1.5-0.7,1.5-1.5S41.8,61,41,61
		h-5.1L39,36h3.9c1.5,0,3.1,0.9,3.1,2.5v6.5c0,3.3,2.6,5.9,5.8,5.9c3.2,0,5.7-2.5,5.8-5.7l2.3-26C59.9,18.8,59.7,18.4,59.4,18.1z
		 M7,3.5C7,3.2,7.2,3,7.5,3h31C38.8,3,39,3.2,39,3.5v22c0,0.3-0.2,0.5-0.5,0.5h-31C7.2,26,7,25.8,7,25.5V3.5z M13.7,61l-4-32h27.2
		l-4,32H13.7z M56,20.7c-1,0-1.8-0.8-1.8-1.8c0-0.9,0.6-1.6,1.4-1.7l1.2,2.3l-0.1,1C56.5,20.6,56.2,20.7,56,20.7z"/>
</g>
<g id="gear-shift">
</g>
<g id="car-battery-alt">
</g>
<g id="road">
</g>
<g id="siren">
</g>
<g id="plane">
</g>
<g id="lorry">
</g>
<g id="train">
</g>
<g id="forklift">
</g>
<g id="bicycle">
</g>
<g id="underground">
</g>
<g id="paper-plane">
</g>
<g id="hotair-balloon">
</g>
</svg>
