<?xml version="1.0" encoding="utf-8"?>
<!-- Generator: Adobe Illustrator 20.1.0, SVG Export Plug-In . SVG Version: 6.00 Build 0)  -->
<!DOCTYPE svg PUBLIC "-//W3C//DTD SVG 1.1//EN" "http://www.w3.org/Graphics/SVG/1.1/DTD/svg11.dtd">
<svg version="1.1" xmlns="http://www.w3.org/2000/svg" xmlns:xlink="http://www.w3.org/1999/xlink" x="0px" y="0px"
	 viewBox="0 0 64 64" style="enable-background:new 0 0 64 64;" xml:space="preserve">
<g id="desktop">
</g>
<g id="tablet">
</g>
<g id="tablet-landscape">
</g>
<g id="desktop-alt">
</g>
<g id="smartphone">
</g>
<g id="smartphone-landscape">
</g>
<g id="laptop">
</g>
<g id="laptops">
</g>
<g id="desktops">
</g>
<g id="printer">
</g>
<g id="smartphones">
</g>
<g id="smartphone-mail">
</g>
<g id="smartphone-search">
</g>
<g id="desktop-chart">
</g>
<g id="pc">
</g>
<g id="remote-control-alt">
</g>
<g id="remote-control">
</g>
<g id="smartphone-signal">
</g>
<g id="battery-charge">
</g>
<g id="battery-charge-half">
</g>
<g id="battery-charge-full">
</g>
<g id="battery-charging">
</g>
<g id="filter">
</g>
<g id="network-web">
</g>
<g id="chip">
</g>
<g id="preferences-box">
</g>
<g id="preferences-vertical-box">
</g>
<g id="preferences-vertical-box-alt">
</g>
<g id="preferences-box-alt">
</g>
<g id="preferences">
</g>
<g id="preferences-vertical">
	<g>
		<path d="M53.4,33.8c-0.8,0-1.5,0.7-1.5,1.5v27.2c0,0.8,0.7,1.5,1.5,1.5s1.5-0.7,1.5-1.5V35.3C54.9,34.4,54.2,33.8,53.4,33.8z"/>
		<path d="M54.9,10.9V1.5c0-0.8-0.7-1.5-1.5-1.5s-1.5,0.7-1.5,1.5v9.4c-4.3,0.7-7.6,4.4-7.6,8.9c0,5,4.1,9,9.1,9s9.1-4.1,9.1-9
			C62.5,15.4,59.2,11.6,54.9,10.9z M53.4,25.9c-3.3,0-6.1-2.7-6.1-6s2.7-6,6.1-6c3.3,0,6.1,2.7,6.1,6S56.8,25.9,53.4,25.9z"/>
		<path d="M31.6,30.2c0.8,0,1.5-0.7,1.5-1.5V1.5c0-0.8-0.7-1.5-1.5-1.5s-1.5,0.7-1.5,1.5v27.2C30.1,29.6,30.8,30.2,31.6,30.2z"/>
		<path d="M31.6,35.1c-5,0-9.1,4.1-9.1,9c0,4.5,3.3,8.2,7.6,8.9v9.4c0,0.8,0.7,1.5,1.5,1.5s1.5-0.7,1.5-1.5v-9.4
			c4.3-0.7,7.6-4.4,7.6-8.9C40.7,39.2,36.6,35.1,31.6,35.1z M31.6,50.2c-3.3,0-6.1-2.7-6.1-6s2.7-6,6.1-6s6.1,2.7,6.1,6
			S35,50.2,31.6,50.2z"/>
		<path d="M10.6,33.8c-0.8,0-1.5,0.7-1.5,1.5v27.2c0,0.8,0.7,1.5,1.5,1.5s1.5-0.7,1.5-1.5V35.3C12.1,34.4,11.4,33.8,10.6,33.8z"/>
		<path d="M12.1,10.9V1.5c0-0.8-0.7-1.5-1.5-1.5S9.1,0.7,9.1,1.5v9.4c-4.3,0.7-7.6,4.4-7.6,8.9c0,5,4.1,9,9.1,9s9.1-4.1,9.1-9
			C19.7,15.4,16.4,11.6,12.1,10.9z M10.6,25.9c-3.3,0-6.1-2.7-6.1-6s2.7-6,6.1-6c3.3,0,6.1,2.7,6.1,6S13.9,25.9,10.6,25.9z"/>
	</g>
</g>
<g id="preferences-vertical-alt">
</g>
<g id="preferences-alt">
</g>
<g id="bluetooth">
</g>
<g id="signal-strength">
</g>
<g id="signal-no">
</g>
<g id="signal-tower-no">
</g>
<g id="signal-tower">
</g>
<g id="signal-no-alt">
</g>
<g id="nut">
</g>
<g id="cogs">
</g>
<g id="cog">
</g>
<g id="cog-dash-left">
</g>
<g id="cog-dash-right">
</g>
<g id="cog-fall">
</g>
<g id="io">
</g>
<g id="browser">
</g>
<g id="browser-add">
</g>
<g id="rss">
</g>
<g id="no-access">
</g>
<g id="notification">
</g>
<g id="devices">
</g>
<g id="notification-alert">
</g>
</svg>
