<?xml version="1.0" encoding="utf-8"?>
<!-- Generator: Adobe Illustrator 20.1.0, SVG Export Plug-In . SVG Version: 6.00 Build 0)  -->
<!DOCTYPE svg PUBLIC "-//W3C//DTD SVG 1.1//EN" "http://www.w3.org/Graphics/SVG/1.1/DTD/svg11.dtd">
<svg version="1.1" xmlns="http://www.w3.org/2000/svg" xmlns:xlink="http://www.w3.org/1999/xlink" x="0px" y="0px"
	 viewBox="0 0 64 64" style="enable-background:new 0 0 64 64;" xml:space="preserve">
<g id="bulb">
</g>
<g id="bulb-on">
</g>
<g id="bulb-alt">
</g>
<g id="bulb-on-alt">
</g>
<g id="energy-bulb">
</g>
<g id="toasting">
</g>
<g id="toasted">
</g>
<g id="binoculars">
</g>
<g id="gift">
</g>
<g id="shaver">
</g>
<g id="candle">
</g>
<g id="shower">
</g>
<g id="bomb">
</g>
<g id="joystick">
</g>
<g id="megaphone">
</g>
<g id="chestdraw">
</g>
<g id="armchair">
</g>
<g id="cardboard-box">
</g>
<g id="bath-shower">
</g>
<g id="diamond">
</g>
<g id="cassette">
</g>
<g id="iron">
</g>
<g id="wash">
</g>
<g id="keyboard-keys">
</g>
<g id="earphones">
</g>
<g id="lifebuoy">
</g>
<g id="calculator">
</g>
<g id="safe">
</g>
<g id="balloon">
</g>
<g id="cake">
</g>
<g id="baseball">
</g>
<g id="football-american">
</g>
<g id="football">
</g>
<g id="anchor">
</g>
<g id="compact-disc">
</g>
<g id="bbq">
</g>
<g id="coffee-machine">
</g>
<g id="teapot">
</g>
<g id="outdoor-stove">
</g>
<g id="pram">
	<path d="M48,48.5c7.7-4.4,12.8-13,12.8-23.3c0-0.5-0.2-0.9-0.5-1.1c-0.4-12-9-20.2-21.9-20.8V1.5c0-0.8-0.7-1.5-1.5-1.5
		s-1.5,0.7-1.5,1.5v3.2c0,0,0,0,0,0c0,0,0,0,0,0v19h-22l-2.1-5.5c-0.3-0.8-1.2-1.2-1.9-0.9c0,0,0,0,0,0H4.7c-0.8,0-1.5,0.7-1.5,1.5
		s0.7,1.5,1.5,1.5H9l1.9,4.9c0,10.3,5.1,18.8,12.8,23.2c-4.1,0.2-7.4,3.6-7.4,7.7c0,4.3,3.5,7.7,7.8,7.7s7.8-3.5,7.8-7.7
		c0-0.4,0-0.7-0.1-1.1H40C40,55.5,40,55.9,40,56.3c0,4.3,3.5,7.7,7.8,7.7s7.8-3.5,7.8-7.7C55.5,52.1,52.2,48.7,48,48.5z M38.4,6.3
		c10.9,0.6,18.3,7.4,18.9,17.4H38.4V6.3z M13.9,26.7h43.9c-0.5,9.6-5.6,17.1-13.3,20.3c-0.3,0-0.6,0.1-0.8,0.2
		c-0.1,0-0.1,0.1-0.2,0.2c-2.3,0.8-4.9,1.3-7.6,1.3c-2.7,0-5.2-0.5-7.6-1.3c-0.1-0.1-0.2-0.1-0.3-0.2c-0.2-0.1-0.5-0.2-0.8-0.2
		C19.5,43.8,14.4,36.3,13.9,26.7z M24,61c-2.6,0-4.8-2.1-4.8-4.7s2.1-4.7,4.8-4.7s4.8,2.1,4.8,4.7S26.6,61,24,61z M30.6,52.2
		c-0.3-0.4-0.6-0.8-0.9-1.2c2,0.5,4,0.8,6.2,0.8c2.2,0,4.3-0.3,6.3-0.8c-0.4,0.4-0.7,0.8-1,1.2H30.6z M47.7,61
		c-2.6,0-4.8-2.1-4.8-4.7s2.1-4.7,4.8-4.7s4.8,2.1,4.8,4.7S50.4,61,47.7,61z"/>
</g>
<g id="paintbrush">
</g>
<g id="stamp">
</g>
<g id="eyedrop">
</g>
<g id="musical-note">
</g>
<g id="magnet">
</g>
<g id="alarm-bell">
</g>
<g id="globe">
</g>
<g id="key">
</g>
<g id="ink">
</g>
<g id="paperclip">
</g>
<g id="paint-roller">
</g>
<g id="keyboard">
</g>
</svg>
