<?xml version="1.0" encoding="utf-8"?>
<!-- Generator: Adobe Illustrator 20.1.0, SVG Export Plug-In . SVG Version: 6.00 Build 0)  -->
<!DOCTYPE svg PUBLIC "-//W3C//DTD SVG 1.1//EN" "http://www.w3.org/Graphics/SVG/1.1/DTD/svg11.dtd">
<svg version="1.1" xmlns="http://www.w3.org/2000/svg" xmlns:xlink="http://www.w3.org/1999/xlink" x="0px" y="0px"
	 viewBox="0 0 64 64" style="enable-background:new 0 0 64 64;" xml:space="preserve">
<g id="bulb">
</g>
<g id="bulb-on">
</g>
<g id="bulb-alt">
</g>
<g id="bulb-on-alt">
</g>
<g id="energy-bulb">
</g>
<g id="toasting">
</g>
<g id="toasted">
</g>
<g id="binoculars">
</g>
<g id="gift">
</g>
<g id="shaver">
</g>
<g id="candle">
</g>
<g id="shower">
</g>
<g id="bomb">
</g>
<g id="joystick">
</g>
<g id="megaphone">
</g>
<g id="chestdraw">
</g>
<g id="armchair">
</g>
<g id="cardboard-box">
</g>
<g id="bath-shower">
</g>
<g id="diamond">
</g>
<g id="cassette">
</g>
<g id="iron">
</g>
<g id="wash">
</g>
<g id="keyboard-keys">
</g>
<g id="earphones">
</g>
<g id="lifebuoy">
</g>
<g id="calculator">
</g>
<g id="safe">
</g>
<g id="balloon">
</g>
<g id="cake">
</g>
<g id="baseball">
</g>
<g id="football-american">
</g>
<g id="football">
</g>
<g id="anchor">
</g>
<g id="compact-disc">
</g>
<g id="bbq">
</g>
<g id="coffee-machine">
</g>
<g id="teapot">
</g>
<g id="outdoor-stove">
</g>
<g id="pram">
</g>
<g id="paintbrush">
	<path d="M53.3,25.9H39.4c-0.4,0-0.8-0.5-0.9-0.6c-0.1-0.3-0.1-1.4,0.1-1.9c0.9-2.2,1.2-3.6,1.2-5.9l0.4-9.3c0-4.6-3.5-8.2-7.9-8.2
		c-4.4,0-7.7,3.3-7.7,7.8v9.5c0,2.2,0,3.6,0.9,5.9c0.2,0.5,0.2,1.7,0,2c-0.3,0.4-0.7,0.7-1,0.7H10.7c-3.1,0-5.3,3.3-5.3,6.3v9
		c0,0.8,0.7,1.5,1.5,1.5h0.6v19.8c0,0.8,0.7,1.5,1.5,1.5h7c0.5,0,1-0.3,1.3-0.8l3-5.3v4.5c0,0.8,0.7,1.5,1.5,1.5h33.1
		c0.8,0,1.5-0.7,1.5-1.5V42.7h0.6c0.8,0,1.5-0.7,1.5-1.5v-9C58.6,29.2,56.4,25.9,53.3,25.9z M8.4,32.2c0-1.5,1.1-3.3,2.3-3.3h13.8
		c1.3,0,2.7-0.8,3.5-2c0.9-1.3,0.7-3.7,0.3-4.8c-0.7-1.7-0.7-2.7-0.7-4.7V7.8c0-2.9,1.8-4.8,4.7-4.8c2.8,0,4.9,2.2,5,5.1l-0.4,9.3
		c0,1.9-0.2,2.9-1,4.8c-0.4,0.9-0.8,3.3,0.2,4.7c0.9,1.3,2.1,2,3.4,2h13.8c1.2,0,2.3,1.8,2.3,3.3v7.5h-0.6H9.1H8.4V32.2z M53.4,61
		H50V49.2c0-0.8-0.7-1.5-1.5-1.5S47,48.4,47,49.2V61h-3.4v-8.6c0-0.8-0.7-1.5-1.5-1.5s-1.5,0.7-1.5,1.5V61h-3.4v-4.3
		c0-0.8-0.7-1.5-1.5-1.5s-1.5,0.7-1.5,1.5V61H23.4v-8.7c0-0.7-0.5-1.3-1.1-1.4c-0.7-0.2-1.3,0.1-1.7,0.7L15.2,61h-4.6V42.7h42.9V61z
		"/>
</g>
<g id="stamp">
</g>
<g id="eyedrop">
</g>
<g id="musical-note">
</g>
<g id="magnet">
</g>
<g id="alarm-bell">
</g>
<g id="globe">
</g>
<g id="key">
</g>
<g id="ink">
</g>
<g id="paperclip">
</g>
<g id="paint-roller">
</g>
<g id="keyboard">
</g>
</svg>
