<?xml version="1.0" encoding="utf-8"?>
<!-- Generator: Adobe Illustrator 20.1.0, SVG Export Plug-In . SVG Version: 6.00 Build 0)  -->
<!DOCTYPE svg PUBLIC "-//W3C//DTD SVG 1.1//EN" "http://www.w3.org/Graphics/SVG/1.1/DTD/svg11.dtd">
<svg version="1.1" xmlns="http://www.w3.org/2000/svg" xmlns:xlink="http://www.w3.org/1999/xlink" x="0px" y="0px"
	 viewBox="0 0 64 64" style="enable-background:new 0 0 64 64;" xml:space="preserve">
<g id="text-height">
</g>
<g id="font">
</g>
<g id="text">
</g>
<g id="italic">
</g>
<g id="strikethrough">
</g>
<g id="paragraph">
</g>
<g id="bold">
</g>
<g id="quote-right">
	<g>
		<path d="M63.1,17.1c-1.6-5.9-7-10.1-13.3-10.1C42.2,6.9,36,13.1,36,20.8s6.2,13.8,13.8,13.8c0.9,0,1.8-0.1,2.6-0.3
			c-0.3,1.6-0.9,3.4-2,5.4c-3.7,7.1-7,10-12.2,13.7l1.9,3.7c6-3.1,14.3-9.8,18.6-16.6c4.1-6.7,5.4-10.8,5.4-17.7
			C64,20.6,63.7,18.7,63.1,17.1z"/>
		<path d="M13.8,6.9C6.2,6.9,0,13.1,0,20.8s6.2,13.8,13.8,13.8c0.9,0,1.8-0.1,2.6-0.3c-0.3,1.6-0.9,3.4-2,5.4
			c-3.7,7.1-7,10-12.2,13.7l1.9,3.7c6-3.1,14.3-9.8,18.6-16.6c4.1-6.7,5.4-10.8,5.4-17.7c0-2.2-0.3-4.1-0.9-5.7
			C25.5,11.2,20.1,6.9,13.8,6.9z"/>
	</g>
</g>
<g id="hashtag">
</g>
<g id="anchor-handle">
</g>
<g id="box">
</g>
<g id="fullscreen">
</g>
<g id="fullscreen-alt">
</g>
<g id="golden-ratio">
</g>
<g id="hexgrid">
</g>
<g id="box-points">
</g>
<g id="box-points-move">
</g>
<g id="box-points-move-alt">
</g>
<g id="hex_1_">
</g>
<g id="hex-diamond">
</g>
<g id="artboards-vertical">
</g>
<g id="artboards">
</g>
<g id="artboards-alt-vertical">
</g>
<g id="artboards-alt">
</g>
<g id="scale">
</g>
<g id="pencil">
</g>
<g id="fill">
</g>
<g id="artist-mug">
</g>
<g id="pen">
</g>
<g id="calligraphy-pen-tip">
</g>
<g id="calligraphy-pen_1_">
</g>
<g id="paint-pallette">
</g>
<g id="tools-cross">
</g>
<g id="edit-tools">
</g>
<g id="pencil-ruler">
</g>
<g id="ruler-measure">
</g>
<g id="measure">
</g>
<g id="code">
</g>
<g id="move">
</g>
<g id="external">
</g>
<g id="terminal">
</g>
<g id="thumbnails">
</g>
</svg>
