<?xml version="1.0" encoding="utf-8"?>
<!-- Generator: Adobe Illustrator 20.1.0, SVG Export Plug-In . SVG Version: 6.00 Build 0)  -->
<!DOCTYPE svg PUBLIC "-//W3C//DTD SVG 1.1//EN" "http://www.w3.org/Graphics/SVG/1.1/DTD/svg11.dtd">
<svg version="1.1" xmlns="http://www.w3.org/2000/svg" xmlns:xlink="http://www.w3.org/1999/xlink" x="0px" y="0px"
	 viewBox="0 0 64 64" style="enable-background:new 0 0 64 64;" xml:space="preserve">
<g id="truck">
</g>
<g id="car">
</g>
<g id="taxi">
</g>
<g id="rocket">
</g>
<g id="tardis">
</g>
<g id="bus">
</g>
<g id="tram">
</g>
<g id="speedo">
</g>
<g id="air-machine">
</g>
<g id="speedo-alt">
</g>
<g id="motorcycle">
</g>
<g id="car-battery">
</g>
<g id="ufo">
</g>
<g id="arrivals">
</g>
<g id="petrol-pump">
</g>
<g id="gear-shift">
</g>
<g id="car-battery-alt">
</g>
<g id="road">
	<g>
		<path d="M48.5,0h-33C13.6,0,12,1.6,12,3.5v57c0,1.9,1.6,3.5,3.5,3.5h33c1.9,0,3.5-1.6,3.5-3.5v-57C52,1.6,50.4,0,48.5,0z M49,60.5
			c0,0.3-0.2,0.5-0.5,0.5H33v-7c0-0.8-0.7-1.5-1.5-1.5S30,53.2,30,54v7H15.5c-0.3,0-0.5-0.2-0.5-0.5v-57C15,3.2,15.2,3,15.5,3H30v7
			c0,0.8,0.7,1.5,1.5,1.5S33,10.8,33,10V3h15.5C48.8,3,49,3.2,49,3.5V60.5z"/>
		<path d="M31.5,36.5c-0.8,0-1.5,0.7-1.5,1.5v6c0,0.8,0.7,1.5,1.5,1.5S33,44.8,33,44v-6C33,37.2,32.3,36.5,31.5,36.5z"/>
		<path d="M31.5,18.5c-0.8,0-1.5,0.7-1.5,1.5v6c0,0.8,0.7,1.5,1.5,1.5S33,26.8,33,26v-6C33,19.2,32.3,18.5,31.5,18.5z"/>
	</g>
</g>
<g id="siren">
</g>
<g id="plane">
</g>
<g id="lorry">
</g>
<g id="train">
</g>
<g id="forklift">
</g>
<g id="bicycle">
</g>
<g id="underground">
</g>
<g id="paper-plane">
</g>
<g id="hotair-balloon">
</g>
</svg>
