<?xml version="1.0" encoding="utf-8"?>
<!-- Generator: Adobe Illustrator 20.1.0, SVG Export Plug-In . SVG Version: 6.00 Build 0)  -->
<!DOCTYPE svg PUBLIC "-//W3C//DTD SVG 1.1//EN" "http://www.w3.org/Graphics/SVG/1.1/DTD/svg11.dtd">
<svg version="1.1" xmlns="http://www.w3.org/2000/svg" xmlns:xlink="http://www.w3.org/1999/xlink" x="0px" y="0px"
	 viewBox="0 0 64 64" style="enable-background:new 0 0 64 64;" xml:space="preserve">
<g id="home">
</g>
<g id="shop">
</g>
<g id="buildings">
</g>
<g id="solar-panel">
</g>
<g id="towers">
</g>
<g id="stadium">
</g>
<g id="station">
</g>
<g id="shop-alt">
</g>
<g id="home-alt">
</g>
<g id="factory">
</g>
<g id="rig">
	<g>
		<path d="M61.5,59c-2.8,0-4.2,0.6-5.5,1.1c-1.2,0.5-2.2,0.9-4.3,0.9c-2.2,0-3.2-0.4-4.3-0.9C46,59.6,44.6,59,41.8,59
			c-2.8,0-4.2,0.6-5.5,1.1C35.2,60.6,34.1,61,32,61c-2.2,0-3.2-0.4-4.3-0.9c-1.3-0.5-2.7-1.1-5.5-1.1s-4.2,0.6-5.5,1.1
			c-1.2,0.5-2.2,0.9-4.3,0.9c-2.2,0-3.2-0.4-4.3-0.9C6.7,59.6,5.3,59,2.5,59C1.7,59,1,59.6,1,60.5S1.7,62,2.5,62
			c2.2,0,3.2,0.4,4.3,0.9c1.3,0.5,2.7,1.1,5.5,1.1c2.8,0,4.2-0.6,5.5-1.1C19,62.4,20,62,22.2,62s3.2,0.4,4.3,0.9
			c1.3,0.5,2.7,1.1,5.5,1.1c2.8,0,4.2-0.6,5.5-1.1c1.2-0.5,2.2-0.9,4.3-0.9c2.2,0,3.2,0.4,4.3,0.9c1.3,0.5,2.7,1.1,5.5,1.1
			s4.2-0.6,5.5-1.1c1.2-0.5,2.2-0.9,4.3-0.9c0.8,0,1.5-0.7,1.5-1.5S62.3,59,61.5,59z"/>
		<path d="M4.5,45.6h5.2v8.7c0,0.8,0.7,1.5,1.5,1.5s1.5-0.7,1.5-1.5v-8.7H30v8.7c0,0.8,0.7,1.5,1.5,1.5s1.5-0.7,1.5-1.5v-8.7h18.3
			v8.7c0,0.8,0.7,1.5,1.5,1.5s1.5-0.7,1.5-1.5v-8.7h5.2c1.4,0,2.5-1.1,2.5-2.5V24.8c0-1.4-1.1-2.5-2.5-2.5h-7.2v-1.8h2.4
			c1.3,0,2.4-1.1,2.4-2.4v-4c0-1.3-1.1-2.4-2.4-2.4H38.2c-1.3,0-2.4,1.1-2.4,2.4v4c0,1.3,1.1,2.4,2.4,2.4h1.5v1.8H24.2l-5-21.1
			C19.1,0.5,18.5,0,17.8,0s-1.3,0.5-1.5,1.2l-5,21.1H4.5c-1.4,0-2.5,1.1-2.5,2.5v18.3C2,44.5,3.1,45.6,4.5,45.6z M38.8,14.6h15.4
			v2.8H38.8V14.6z M42.7,20.4h6.7v1.8h-6.7V20.4z M17.8,8l3.4,14.3h-6.8L17.8,8z M5,25.3h54v17.3H5V25.3z"/>
		<rect x="8.4" y="29" width="6" height="4"/>
		<rect x="18.4" y="29" width="6" height="4"/>
		<rect x="28.4" y="29" width="6" height="4"/>
	</g>
</g>
<g id="shipping-container">
</g>
<g id="official-building">
</g>
</svg>
