<?xml version="1.0" encoding="utf-8"?>
<!-- Generator: Adobe Illustrator 20.1.0, SVG Export Plug-In . SVG Version: 6.00 Build 0)  -->
<!DOCTYPE svg PUBLIC "-//W3C//DTD SVG 1.1//EN" "http://www.w3.org/Graphics/SVG/1.1/DTD/svg11.dtd">
<svg version="1.1" xmlns="http://www.w3.org/2000/svg" xmlns:xlink="http://www.w3.org/1999/xlink" x="0px" y="0px"
	 viewBox="0 0 64 64" style="enable-background:new 0 0 64 64;" xml:space="preserve">
<g id="desktop">
</g>
<g id="tablet">
</g>
<g id="tablet-landscape">
</g>
<g id="desktop-alt">
</g>
<g id="smartphone">
</g>
<g id="smartphone-landscape">
</g>
<g id="laptop">
</g>
<g id="laptops">
</g>
<g id="desktops">
</g>
<g id="printer">
</g>
<g id="smartphones">
</g>
<g id="smartphone-mail">
</g>
<g id="smartphone-search">
</g>
<g id="desktop-chart">
</g>
<g id="pc">
</g>
<g id="remote-control-alt">
	<g>
		<path d="M59.7,1H4.3C1.7,1,0,2.7,0,5.3v36.4c0,2.7,1.8,4.7,4.3,4.7H22c0.8,0,1.5-0.7,1.5-1.5s-0.7-1.5-1.5-1.5H4.3
			C3.1,43.3,3,42,3,41.6V5.3C3,4.3,3.3,4,4.3,4h55.4C60.7,4,61,4.3,61,5.3v36.4c0,0.4-0.1,1.7-1.3,1.7h-3.3c-0.8,0-1.5,0.7-1.5,1.5
			s0.7,1.5,1.5,1.5h3.3c2.5,0,4.3-2,4.3-4.7V5.3C64,2.7,62.3,1,59.7,1z"/>
		<path d="M48.1,32.2H31.4c-0.8,0-1.5,0.7-1.5,1.5v27.8c0,0.8,0.7,1.5,1.5,1.5h16.6c0.8,0,1.5-0.7,1.5-1.5V33.7
			C49.6,32.8,48.9,32.2,48.1,32.2z M46.6,60H32.9V35.2h13.6V60z"/>
		<ellipse cx="35.2" cy="40.6" rx="1.1" ry="1.1"/>
		<ellipse cx="39.5" cy="40.6" rx="1.1" ry="1.1"/>
		<ellipse cx="35.2" cy="47" rx="1.1" ry="1.1"/>
		<ellipse cx="39.5" cy="47" rx="1.1" ry="1.1"/>
		<ellipse cx="35.2" cy="53.4" rx="1.1" ry="1.1"/>
		<ellipse cx="39.5" cy="53.4" rx="1.1" ry="1.1"/>
		<ellipse cx="43.7" cy="40.6" rx="1.1" ry="1.1"/>
		<ellipse cx="43.7" cy="47" rx="1.1" ry="1.1"/>
		<ellipse cx="43.7" cy="53.4" rx="1.1" ry="1.1"/>
		<path d="M46,24.8c0.5,0,1-0.2,1.2-0.7c0.5-0.7,0.3-1.6-0.4-2.1c-4.4-3-10.4-3-14.8,0c-0.7,0.5-0.9,1.4-0.4,2.1
			c0.5,0.7,1.4,0.9,2.1,0.4c3.4-2.3,8-2.3,11.4,0C45.4,24.7,45.7,24.8,46,24.8z"/>
		<path d="M50.1,16.8c-6.4-4.5-14.9-4.5-21.3,0c-0.7,0.5-0.8,1.4-0.4,2.1c0.3,0.4,0.8,0.6,1.2,0.6c0.3,0,0.6-0.1,0.9-0.3
			c5.3-3.8,12.5-3.8,17.8,0c0.7,0.5,1.6,0.3,2.1-0.4C51,18.2,50.8,17.3,50.1,16.8z"/>
		<path d="M35.4,27.4c-0.7,0.4-0.9,1.4-0.5,2.1c0.4,0.7,1.4,0.9,2.1,0.5c1.6-1,3.5-1,5.1,0c0.2,0.1,0.5,0.2,0.8,0.2
			c0.5,0,1-0.3,1.3-0.7c0.4-0.7,0.2-1.6-0.5-2.1C41,25.8,37.9,25.8,35.4,27.4z"/>
	</g>
</g>
<g id="remote-control">
</g>
<g id="smartphone-signal">
</g>
<g id="battery-charge">
</g>
<g id="battery-charge-half">
</g>
<g id="battery-charge-full">
</g>
<g id="battery-charging">
</g>
<g id="filter">
</g>
<g id="network-web">
</g>
<g id="chip">
</g>
<g id="preferences-box">
</g>
<g id="preferences-vertical-box">
</g>
<g id="preferences-vertical-box-alt">
</g>
<g id="preferences-box-alt">
</g>
<g id="preferences">
</g>
<g id="preferences-vertical">
</g>
<g id="preferences-vertical-alt">
</g>
<g id="preferences-alt">
</g>
<g id="bluetooth">
</g>
<g id="signal-strength">
</g>
<g id="signal-no">
</g>
<g id="signal-tower-no">
</g>
<g id="signal-tower">
</g>
<g id="signal-no-alt">
</g>
<g id="nut">
</g>
<g id="cogs">
</g>
<g id="cog">
</g>
<g id="cog-dash-left">
</g>
<g id="cog-dash-right">
</g>
<g id="cog-fall">
</g>
<g id="io">
</g>
<g id="browser">
</g>
<g id="browser-add">
</g>
<g id="rss">
</g>
<g id="no-access">
</g>
<g id="notification">
</g>
<g id="devices">
</g>
<g id="notification-alert">
</g>
</svg>
