<?xml version="1.0" encoding="utf-8"?>
<!-- Generator: Adobe Illustrator 20.1.0, SVG Export Plug-In . SVG Version: 6.00 Build 0)  -->
<!DOCTYPE svg PUBLIC "-//W3C//DTD SVG 1.1//EN" "http://www.w3.org/Graphics/SVG/1.1/DTD/svg11.dtd">
<svg version="1.1" xmlns="http://www.w3.org/2000/svg" xmlns:xlink="http://www.w3.org/1999/xlink" x="0px" y="0px"
	 viewBox="0 0 64 64" style="enable-background:new 0 0 64 64;" xml:space="preserve">
<g id="camera">
</g>
<g id="video">
</g>
<g id="step-backward">
</g>
<g id="fast-backward">
</g>
<g id="backward">
</g>
<g id="play">
</g>
<g id="stop">
</g>
<g id="pause">
</g>
<g id="record">
</g>
<g id="eject">
</g>
<g id="forward">
</g>
<g id="fast-forward">
</g>
<g id="step-forward">
</g>
<g id="repeat">
</g>
<g id="repeat-one">
	<path d="M63.7,40.7l-6-7.6c0,0,0,0-0.1-0.1c0,0-0.1-0.1-0.1-0.1c0,0-0.1-0.1-0.1-0.1c0,0-0.1-0.1-0.2-0.1c0,0-0.1,0-0.1-0.1
		c-0.1,0-0.1,0-0.2-0.1c0,0-0.1,0-0.1,0c-0.1,0-0.1,0-0.2,0c0,0-0.1,0-0.1,0c0,0,0,0,0,0c0,0,0,0,0,0c-0.3,0-0.6,0.1-0.9,0.3
		c0,0,0,0,0,0c-0.1,0.1-0.1,0.1-0.2,0.2c0,0,0,0,0,0l-6.9,7.6c-0.6,0.6-0.5,1.6,0.1,2.1c0.6,0.6,1.6,0.5,2.1-0.1l4.3-4.8v7.8
		c0,1.8-2,3.3-3.7,3.3H6.2C4.4,49,3,47.5,3,45.7V24.6C3,22.7,4.5,21,6.2,21h39.4c0.1,4.8,4.1,8.7,9,8.7c5,0,9-4,9-8.9s-4-8.9-9-8.9
		c-4,0-7.3,2.5-8.5,6c0,0-0.1,0-0.1,0H6.2C2.8,18,0,21,0,24.6v21.1C0,49.2,2.8,52,6.2,52h45.1c3.6,0,6.7-2.9,6.7-6.3v-7.4l3.3,4.2
		c0.3,0.4,0.7,0.6,1.2,0.6c0.3,0,0.7-0.1,0.9-0.3C64.1,42.3,64.2,41.4,63.7,40.7z M54.6,15c3.3,0,6,2.6,6,5.9s-2.7,5.9-6,5.9
		s-6-2.6-6-5.9S51.3,15,54.6,15z"/>
</g>
<g id="shuffle">
</g>
<g id="mute">
</g>
<g id="sound-none">
</g>
<g id="sound-low">
</g>
<g id="sound-high">
</g>
<g id="step-backward-circle">
</g>
<g id="fast-backward-circle">
</g>
<g id="backward-circle">
</g>
<g id="play-circle">
</g>
<g id="stop-circle">
</g>
<g id="pause-circle">
</g>
<g id="record-circle">
</g>
<g id="eject-circle">
</g>
<g id="forward-circle">
</g>
<g id="fast-forward-circle">
</g>
<g id="step-forward-circle">
</g>
</svg>
