<?xml version="1.0" encoding="utf-8"?>
<!-- Generator: Adobe Illustrator 21.1.0, SVG Export Plug-In . SVG Version: 6.00 Build 0)  -->
<!DOCTYPE svg PUBLIC "-//W3C//DTD SVG 1.1//EN" "http://www.w3.org/Graphics/SVG/1.1/DTD/svg11.dtd">
<svg version="1.1" id="Layer_1" xmlns="http://www.w3.org/2000/svg" xmlns:xlink="http://www.w3.org/1999/xlink" x="0px" y="0px"
	 viewBox="0 0 64 64" style="enable-background:new 0 0 64 64;" xml:space="preserve">
<g id="bulb-on">
</g>
<g id="bulb-alt">
</g>
<g id="bulb-on-alt">
</g>
<g id="energy-bulb">
</g>
<g id="toasting">
</g>
<g id="toasted">
</g>
<g id="binoculars">
</g>
<g id="gift">
</g>
<g id="shaver">
</g>
<g id="candle">
</g>
<g id="shower">
</g>
<g id="bomb">
</g>
<g id="joystick">
</g>
<g id="megaphone">
</g>
<g id="chestdraw">
</g>
<g id="armchair">
</g>
<g id="cardboard-box">
</g>
<g id="bath-shower">
</g>
<g id="diamond">
</g>
<g id="cassette">
</g>
<g id="iron">
</g>
<g id="wash">
</g>
<g id="keyboard-keys">
</g>
<g id="earphones">
</g>
<g id="lifebuoy">
</g>
<g id="calculator">
</g>
<g id="safe">
</g>
<g id="balloon">
</g>
<g id="cake">
</g>
<g id="baseball">
</g>
<g id="football-american">
</g>
<g id="football">
</g>
<g id="anchor">
</g>
<g id="compact-disc">
</g>
<g id="bbq">
</g>
<g id="coffee-machine">
</g>
<g id="teapot">
</g>
<g id="outdoor-stove">
</g>
<g id="pram">
</g>
<g id="paintbrush">
</g>
<g id="stamp">
</g>
<g id="eyedrop">
</g>
<g id="musical-note">
</g>
<g id="magnet">
</g>
<g id="alarm-bell">
</g>
<g id="globe">
</g>
<g id="key">
</g>
<g id="ink">
</g>
<g id="paperclip">
</g>
<g id="paint-roller">
</g>
<path d="M54,40.7c-1.3,0-2.5,0.3-3.6,0.8c-2.4-2-5.6-4.3-9.6-6.8c0.3-0.9,0.5-1.8,0.5-2.7c0-4.6-3.7-8.3-8.3-8.3
	c-2.5,0-4.8,1.1-6.4,3c-3.7-2.2-6.7-4.3-8.8-6.1c1.5-1.5,2.4-3.6,2.4-5.8c0-1.4-0.4-2.7-1-3.9c8-1.9,21.1-1.4,25.1-1.1
	c0.7,3.9,4.1,6.9,8.2,6.9c4.6,0,8.3-3.7,8.3-8.3S57.1,0,52.6,0c-4,0-7.4,2.9-8.2,6.7c-4.6-0.3-18.9-0.9-27.2,1.6
	c-1.4-1.2-3.3-1.9-5.2-1.9c-4.6,0-8.3,3.7-8.3,8.3c0,4.6,3.7,8.3,8.3,8.3c1.2,0,2.3-0.2,3.3-0.7c2.4,2.1,5.7,4.5,9.9,7
	c-0.3,0.9-0.5,1.8-0.5,2.7c0,4.6,3.7,8.3,8.3,8.3c2.5,0,4.8-1.1,6.4-3c3.6,2.2,6.5,4.2,8.6,6c-1.4,1.5-2.2,3.5-2.2,5.6
	c0,1.5,0.4,3,1.2,4.2c-8,2-21.2,1.4-25.3,1.2c-0.7-3.9-4.1-6.9-8.2-6.9c-4.6,0-8.3,3.7-8.3,8.3S8.8,64,13.4,64c4,0,7.4-2.9,8.2-6.7
	c1.8,0.1,5.2,0.3,9.2,0.3c6.1,0,13.4-0.4,18.4-2c1.4,1,3.1,1.6,4.9,1.6c4.6,0,8.3-3.7,8.3-8.3S58.6,40.7,54,40.7z M52.6,3
	c2.9,0,5.3,2.4,5.3,5.3s-2.4,5.3-5.3,5.3s-5.3-2.4-5.3-5.3S49.6,3,52.6,3z M6.6,14.7c0-2.9,2.4-5.3,5.3-5.3s5.3,2.4,5.3,5.3
	S14.8,20,11.9,20S6.6,17.6,6.6,14.7z M33,37.3c-2.9,0-5.3-2.4-5.3-5.3s2.4-5.3,5.3-5.3c2.9,0,5.3,2.4,5.3,5.3S35.9,37.3,33,37.3z
	 M13.4,61c-2.9,0-5.3-2.4-5.3-5.3s2.4-5.3,5.3-5.3s5.3,2.4,5.3,5.3S16.3,61,13.4,61z M54,54.2c-2.9,0-5.3-2.4-5.3-5.3
	s2.4-5.3,5.3-5.3s5.3,2.4,5.3,5.3S57,54.2,54,54.2z"/>
</svg>
