<?xml version="1.0" encoding="utf-8"?>
<!-- Generator: Adobe Illustrator 20.1.0, SVG Export Plug-In . SVG Version: 6.00 Build 0)  -->
<!DOCTYPE svg PUBLIC "-//W3C//DTD SVG 1.1//EN" "http://www.w3.org/Graphics/SVG/1.1/DTD/svg11.dtd">
<svg version="1.1" xmlns="http://www.w3.org/2000/svg" xmlns:xlink="http://www.w3.org/1999/xlink" x="0px" y="0px"
	 viewBox="0 0 64 64" style="enable-background:new 0 0 64 64;" xml:space="preserve">
<g id="refresh-double">
	<g>
		<path d="M43.4,53.6c-9.6,4.9-21.2,3.1-28.8-4.4C9.9,44.6,7.3,38.5,7.3,32c0-5.5,1.8-10.7,5.2-14.9l1.3,9c0.1,0.7,0.8,1.3,1.5,1.3
			c0.1,0,0.1,0,0.2,0c0.8-0.1,1.4-0.9,1.3-1.7l-1.8-12.1c0-0.1,0-0.2-0.1-0.3c0,0,0,0,0,0c-0.1-0.2-0.2-0.3-0.3-0.5c0,0,0,0,0,0
			c0,0,0,0,0,0c-0.1-0.1-0.2-0.1-0.3-0.2c-0.1,0-0.1-0.1-0.2-0.1c0,0,0,0-0.1,0c-0.2-0.1-0.3-0.1-0.5-0.1c0,0-0.1,0-0.1,0
			c-0.1,0-0.3,0-0.4,0l-12,3.4c-0.8,0.2-1.3,1.1-1,1.9c0.2,0.8,1.1,1.3,1.9,1l7.3-2C6,21,4.3,26.4,4.3,32c0,7.3,2.9,14.2,8.1,19.4
			c5.3,5.3,12.4,8,19.6,8c4.3,0,8.7-1,12.7-3.1c0.7-0.4,1-1.3,0.7-2C45,53.6,44.1,53.3,43.4,53.6z"/>
		<path d="M63.9,46.5c-0.2-0.8-1.1-1.3-1.9-1l-7.3,2C58,43,59.7,37.6,59.7,32c0-7.3-2.9-14.2-8.1-19.4C43,4.2,30,2.2,19.3,7.7
			c-0.7,0.4-1,1.3-0.7,2c0.4,0.7,1.3,1,2,0.7c9.6-4.9,21.2-3.1,28.8,4.4c4.7,4.6,7.2,10.7,7.2,17.2c0,5.5-1.8,10.7-5.2,14.9l-1.3-9
			c-0.1-0.8-0.9-1.4-1.7-1.3c-0.8,0.1-1.4,0.9-1.3,1.7l1.8,12.1c0,0.1,0,0.2,0.1,0.3c0,0,0,0,0,0c0.1,0.2,0.2,0.3,0.3,0.5
			c0,0,0,0,0,0c0,0,0,0,0,0c0.1,0.1,0.2,0.1,0.3,0.2c0.1,0,0.1,0.1,0.2,0.1c0,0,0.1,0,0.1,0.1c0.2,0.1,0.3,0.1,0.5,0.1h0
			c0,0,0,0,0,0c0,0,0,0,0,0c0.1,0,0.3,0,0.4-0.1l12-3.4C63.7,48.1,64.2,47.3,63.9,46.5z"/>
	</g>
</g>
<g id="refresh">
</g>
<g id="spinner-notch">
</g>
<g id="spinner-hex">
</g>
<g id="refresh-open">
</g>
</svg>
