<?xml version="1.0" encoding="utf-8"?>
<!-- Generator: Adobe Illustrator 20.1.0, SVG Export Plug-In . SVG Version: 6.00 Build 0)  -->
<!DOCTYPE svg PUBLIC "-//W3C//DTD SVG 1.1//EN" "http://www.w3.org/Graphics/SVG/1.1/DTD/svg11.dtd">
<svg version="1.1" xmlns="http://www.w3.org/2000/svg" xmlns:xlink="http://www.w3.org/1999/xlink" x="0px" y="0px"
	 viewBox="0 0 64 64" style="enable-background:new 0 0 64 64;" xml:space="preserve">
<g id="desktop">
</g>
<g id="tablet">
</g>
<g id="tablet-landscape">
</g>
<g id="desktop-alt">
</g>
<g id="smartphone">
</g>
<g id="smartphone-landscape">
</g>
<g id="laptop">
</g>
<g id="laptops">
</g>
<g id="desktops">
</g>
<g id="printer">
</g>
<g id="smartphones">
</g>
<g id="smartphone-mail">
</g>
<g id="smartphone-search">
</g>
<g id="desktop-chart">
</g>
<g id="pc">
</g>
<g id="remote-control-alt">
</g>
<g id="remote-control">
	<g>
		<path d="M43.5,25h-23c-0.8,0-1.5,0.7-1.5,1.5v36c0,0.8,0.7,1.5,1.5,1.5h23c0.8,0,1.5-0.7,1.5-1.5v-36C45,25.7,44.3,25,43.5,25z
			 M42,61H22V28h20V61z"/>
		<ellipse cx="26.5" cy="34.8" rx="1.4" ry="1.4"/>
		<ellipse cx="32" cy="34.8" rx="1.4" ry="1.4"/>
		<ellipse cx="26.5" cy="43.1" rx="1.4" ry="1.4"/>
		<ellipse cx="32" cy="43.1" rx="1.4" ry="1.4"/>
		<ellipse cx="26.5" cy="51.4" rx="1.4" ry="1.4"/>
		<ellipse cx="32" cy="51.4" rx="1.4" ry="1.4"/>
		<ellipse cx="37.5" cy="34.8" rx="1.4" ry="1.4"/>
		<ellipse cx="37.5" cy="43.1" rx="1.4" ry="1.4"/>
		<ellipse cx="37.5" cy="51.4" rx="1.4" ry="1.4"/>
		<path d="M40.5,13.9c0.5,0,1-0.2,1.2-0.7c0.5-0.7,0.3-1.6-0.4-2.1c-5.6-3.8-13.1-3.8-18.7,0c-0.7,0.5-0.9,1.4-0.4,2.1
			c0.5,0.7,1.4,0.9,2.1,0.4c4.6-3.1,10.8-3.1,15.3,0C39.9,13.8,40.2,13.9,40.5,13.9z"/>
		<path d="M45.6,4.3c-8.1-5.7-19-5.7-27.1,0c-0.7,0.5-0.8,1.4-0.4,2.1c0.5,0.7,1.4,0.8,2.1,0.4c7.1-5,16.6-5,23.7,0
			C44.1,6.9,44.4,7,44.7,7c0.5,0,0.9-0.2,1.2-0.6C46.4,5.7,46.2,4.8,45.6,4.3z"/>
		<path d="M26.9,18.1c-0.7,0.4-0.9,1.4-0.5,2.1c0.3,0.5,0.8,0.7,1.3,0.7c0.3,0,0.5-0.1,0.8-0.2c2.2-1.3,4.9-1.3,7,0
			c0.7,0.4,1.6,0.2,2.1-0.5c0.4-0.7,0.2-1.6-0.5-2.1C33.9,16.2,30.1,16.2,26.9,18.1z"/>
	</g>
</g>
<g id="smartphone-signal">
</g>
<g id="battery-charge">
</g>
<g id="battery-charge-half">
</g>
<g id="battery-charge-full">
</g>
<g id="battery-charging">
</g>
<g id="filter">
</g>
<g id="network-web">
</g>
<g id="chip">
</g>
<g id="preferences-box">
</g>
<g id="preferences-vertical-box">
</g>
<g id="preferences-vertical-box-alt">
</g>
<g id="preferences-box-alt">
</g>
<g id="preferences">
</g>
<g id="preferences-vertical">
</g>
<g id="preferences-vertical-alt">
</g>
<g id="preferences-alt">
</g>
<g id="bluetooth">
</g>
<g id="signal-strength">
</g>
<g id="signal-no">
</g>
<g id="signal-tower-no">
</g>
<g id="signal-tower">
</g>
<g id="signal-no-alt">
</g>
<g id="nut">
</g>
<g id="cogs">
</g>
<g id="cog">
</g>
<g id="cog-dash-left">
</g>
<g id="cog-dash-right">
</g>
<g id="cog-fall">
</g>
<g id="io">
</g>
<g id="browser">
</g>
<g id="browser-add">
</g>
<g id="rss">
</g>
<g id="no-access">
</g>
<g id="notification">
</g>
<g id="devices">
</g>
<g id="notification-alert">
</g>
</svg>
