<?xml version="1.0" encoding="utf-8"?>
<!-- Generator: Adobe Illustrator 20.1.0, SVG Export Plug-In . SVG Version: 6.00 Build 0)  -->
<!DOCTYPE svg PUBLIC "-//W3C//DTD SVG 1.1//EN" "http://www.w3.org/Graphics/SVG/1.1/DTD/svg11.dtd">
<svg version="1.1" xmlns="http://www.w3.org/2000/svg" xmlns:xlink="http://www.w3.org/1999/xlink" x="0px" y="0px"
	 viewBox="0 0 64 64" style="enable-background:new 0 0 64 64;" xml:space="preserve">
<g id="truck">
</g>
<g id="car">
</g>
<g id="taxi">
</g>
<g id="rocket">
	<g>
		<path d="M46.9,42.9c-0.2,0-0.3,0-0.5,0c0.6-3.4,0.9-7.1,0.9-10.9C47.2,15.2,34.8,0,32,0c-2.7,0-15.2,15.6-15.2,32
			c0,3.9,0.3,7.5,0.9,10.9c-0.2,0-0.4-0.1-0.6-0.1c-3.7,0-5.6,5.3-5.6,10.6c0,3,1.2,5.6,2.1,7.2c0.9,1.5,2.3,3.4,3.5,3.4
			c1.5,0,4.1-3.5,5.1-7.4c2.6,4.6,6,7.4,9.8,7.4c3.7,0,7.1-2.7,9.7-7.2c0.4,1.5,1.1,2.9,1.7,3.8c0.9,1.5,2.3,3.4,3.5,3.4
			c1.9,0,5.6-5.7,5.6-10.6C52.5,48.2,50.5,42.9,46.9,42.9z M19.7,53.4c0,3-1.6,5.6-2.6,6.9c-1-1.3-2.6-3.9-2.6-6.9
			c0-4.7,1.7-7.6,2.6-7.6c0.5,0,1.2,0.8,1.7,2.3c0.2,0.6,0.3,1.1,0.5,1.7C19.6,50.8,19.7,52.1,19.7,53.4z M32,61
			c-3.6,0-7.4-4.4-9.8-11.8c-0.2-0.8-0.4-1.5-0.6-2.2c-1.1-4.2-1.8-9.3-1.8-15c0-14,9.4-26.1,12.2-28.7C34.9,5.8,44.2,17.7,44.2,32
			c0,5.5-0.6,10.4-1.7,14.5c-0.4,1-0.7,2.1-0.9,3.2C39.2,56.8,35.6,61,32,61z M46.9,60.4c-1-1.3-2.6-3.9-2.6-6.9
			c0-1.1,0.1-2.2,0.3-3.1c0.3-0.9,0.6-1.8,0.8-2.7c0.5-1.1,1.1-1.8,1.5-1.8c0.9,0,2.6,2.9,2.6,7.6C49.5,56.4,47.9,59,46.9,60.4z"/>
		<ellipse cx="32" cy="18.5" rx="4.3" ry="4.3"/>
	</g>
</g>
<g id="tardis">
</g>
<g id="bus">
</g>
<g id="tram">
</g>
<g id="speedo">
</g>
<g id="air-machine">
</g>
<g id="speedo-alt">
</g>
<g id="motorcycle">
</g>
<g id="car-battery">
</g>
<g id="ufo">
</g>
<g id="arrivals">
</g>
<g id="petrol-pump">
</g>
<g id="gear-shift">
</g>
<g id="car-battery-alt">
</g>
<g id="road">
</g>
<g id="siren">
</g>
<g id="plane">
</g>
<g id="lorry">
</g>
<g id="train">
</g>
<g id="forklift">
</g>
<g id="bicycle">
</g>
<g id="underground">
</g>
<g id="paper-plane">
</g>
<g id="hotair-balloon">
</g>
</svg>
