<?xml version="1.0" encoding="utf-8"?>
<!-- Generator: Adobe Illustrator 20.1.0, SVG Export Plug-In . SVG Version: 6.00 Build 0)  -->
<!DOCTYPE svg PUBLIC "-//W3C//DTD SVG 1.1//EN" "http://www.w3.org/Graphics/SVG/1.1/DTD/svg11.dtd">
<svg version="1.1" xmlns="http://www.w3.org/2000/svg" xmlns:xlink="http://www.w3.org/1999/xlink" x="0px" y="0px"
	 viewBox="0 0 64 64" style="enable-background:new 0 0 64 64;" xml:space="preserve">
<g id="text-height">
</g>
<g id="font">
</g>
<g id="text">
</g>
<g id="italic">
</g>
<g id="strikethrough">
</g>
<g id="paragraph">
</g>
<g id="bold">
</g>
<g id="quote-right">
</g>
<g id="hashtag">
</g>
<g id="anchor-handle">
</g>
<g id="box">
</g>
<g id="fullscreen">
</g>
<g id="fullscreen-alt">
</g>
<g id="golden-ratio">
</g>
<g id="hexgrid">
</g>
<g id="box-points">
</g>
<g id="box-points-move">
</g>
<g id="box-points-move-alt">
</g>
<g id="hex_1_">
</g>
<g id="hex-diamond">
</g>
<g id="artboards-vertical">
</g>
<g id="artboards">
</g>
<g id="artboards-alt-vertical">
</g>
<g id="artboards-alt">
</g>
<g id="scale">
</g>
<g id="pencil">
</g>
<g id="fill">
</g>
<g id="artist-mug">
</g>
<g id="pen">
</g>
<g id="calligraphy-pen-tip">
</g>
<g id="calligraphy-pen_1_">
</g>
<g id="paint-pallette">
</g>
<g id="tools-cross">
</g>
<g id="edit-tools">
</g>
<g id="pencil-ruler">
</g>
<g id="ruler-measure">
	<g>
		<path d="M63.5,13.6L50.4,0.4c-0.6-0.6-1.6-0.6-2.1,0l-23,23h0h0L17,31.7c0,0,0,0,0,0s0,0,0,0L0.6,48.1c-0.6,0.6-0.6,1.5,0,2.1
			l13.1,13.1c0.3,0.3,0.7,0.4,1.1,0.4s0.8-0.2,1.1-0.4l47.7-47.7C64.1,15.1,64.1,14.2,63.5,13.6z M14.8,60.2l-11-11l6.1-6.1l3.9,3.9
			c0.3,0.3,0.7,0.4,1.1,0.4s0.8-0.1,1.1-0.4c0.6-0.6,0.6-1.5,0-2.1L12,41l6.1-6.1l3.9,3.9c0.3,0.3,0.7,0.4,1.1,0.4s0.8-0.1,1.1-0.4
			c0.6-0.6,0.6-1.5,0-2.1l-3.9-3.9l6.1-6.1l3.9,3.9c0.3,0.3,0.7,0.4,1.1,0.4s0.8-0.1,1.1-0.4c0.6-0.6,0.6-1.5,0-2.1l-3.9-3.9
			l6.1-6.1l3.9,3.9c0.3,0.3,0.7,0.4,1.1,0.4s0.8-0.1,1.1-0.4c0.6-0.6,0.6-1.5,0-2.1l-3.9-3.9l6.1-6.1l3.9,3.9
			c0.3,0.3,0.7,0.4,1.1,0.4s0.8-0.1,1.1-0.4c0.6-0.6,0.6-1.5,0-2.1l-3.9-3.9l4.5-4.5l11,11L14.8,60.2z"/>
		<path d="M1.5,3.9h3v32.3c0,0.8,0.7,1.5,1.5,1.5s1.5-0.7,1.5-1.5V3.9h3c0.8,0,1.5-0.7,1.5-1.5s-0.7-1.5-1.5-1.5H1.5
			C0.7,0.9,0,1.6,0,2.4S0.7,3.9,1.5,3.9z"/>
		<path d="M60.6,51.9c-0.8,0-1.5,0.7-1.5,1.5v3H26.8c-0.8,0-1.5,0.7-1.5,1.5s0.7,1.5,1.5,1.5h32.3v3c0,0.8,0.7,1.5,1.5,1.5
			s1.5-0.7,1.5-1.5v-9.1C62.1,52.6,61.4,51.9,60.6,51.9z"/>
	</g>
</g>
<g id="measure">
</g>
<g id="code">
</g>
<g id="move">
</g>
<g id="external">
</g>
<g id="terminal">
</g>
<g id="thumbnails">
</g>
</svg>
