<?xml version="1.0" encoding="utf-8"?>
<!-- Generator: Adobe Illustrator 20.1.0, SVG Export Plug-In . SVG Version: 6.00 Build 0)  -->
<!DOCTYPE svg PUBLIC "-//W3C//DTD SVG 1.1//EN" "http://www.w3.org/Graphics/SVG/1.1/DTD/svg11.dtd">
<svg version="1.1" xmlns="http://www.w3.org/2000/svg" xmlns:xlink="http://www.w3.org/1999/xlink" x="0px" y="0px"
	 viewBox="0 0 64 64" style="enable-background:new 0 0 64 64;" xml:space="preserve">
<g id="refresh-double">
</g>
<g id="refresh">
</g>
<g id="spinner-notch">
</g>
<g id="spinner-hex">
</g>
<g id="refresh-open">
	<path d="M57.3,30.3c-0.1-0.8-0.8-1.5-1.6-1.4c-0.8,0.1-1.5,0.8-1.4,1.6c0,0.5,0.1,1,0.1,1.6c0,12.3-10,22.3-22.4,22.3
		c-12.3,0-22.4-10-22.4-22.3c0-12.3,10-22.3,22.4-22.3c1.9,0,3.7,0.2,5.5,0.7l-4.3,4.9c-0.5,0.6-0.5,1.6,0.2,2.1
		c0.3,0.2,0.6,0.4,1,0.4c0.4,0,0.8-0.2,1.1-0.5l5.8-6.7c0,0,0,0,0,0c0.1-0.1,0.2-0.2,0.2-0.4c0,0,0,0,0,0c0,0,0,0,0,0
		c0.1-0.1,0.1-0.3,0.1-0.4c0,0,0-0.1,0-0.1c0-0.1,0-0.3-0.1-0.4c0,0,0,0,0-0.1c-0.1-0.1-0.1-0.3-0.2-0.4c0,0,0,0,0,0l-5.8-7.4
		c-0.5-0.7-1.5-0.8-2.1-0.3c-0.7,0.5-0.8,1.5-0.3,2.1l3.1,3.9c-1.4-0.2-2.8-0.4-4.3-0.4C18,6.8,6.6,18.1,6.6,32
		C6.6,45.9,18,57.3,32,57.3c14,0,25.4-11.3,25.4-25.3C57.4,31.5,57.3,30.9,57.3,30.3z"/>
</g>
</svg>
