<?xml version="1.0" encoding="utf-8"?>
<!-- Generator: Adobe Illustrator 20.1.0, SVG Export Plug-In . SVG Version: 6.00 Build 0)  -->
<!DOCTYPE svg PUBLIC "-//W3C//DTD SVG 1.1//EN" "http://www.w3.org/Graphics/SVG/1.1/DTD/svg11.dtd">
<svg version="1.1" xmlns="http://www.w3.org/2000/svg" xmlns:xlink="http://www.w3.org/1999/xlink" x="0px" y="0px"
	 viewBox="0 0 64 64" style="enable-background:new 0 0 64 64;" xml:space="preserve">
<g id="refresh-double">
</g>
<g id="refresh">
	<path d="M54.7,20.2c-0.4-0.7-1.3-1-2-0.6c-0.7,0.4-1,1.3-0.6,2c1.7,3.2,2.5,6.6,2.5,10.3c0,12.3-10.1,22.4-22.5,22.4
		c-8.8,0-16.5-5.1-20.2-12.5c-0.1-0.3-0.3-0.5-0.4-0.8c-0.1-0.3-0.3-0.6-0.4-0.9c-0.1-0.2-0.2-0.5-0.3-0.7c-0.1-0.3-0.2-0.5-0.3-0.8
		c0-0.1,0-0.1-0.1-0.2c-0.2-0.6-0.3-1.2-0.5-1.9c0-0.1,0-0.2,0-0.2c-0.3-1.4-0.4-2.9-0.4-4.4c0-2.7,0.5-5.3,1.4-7.7c0,0,0,0,0,0
		c0.4-1,0.8-2,1.3-2.9c0-0.1,0.1-0.1,0.1-0.2c0.3-0.5,0.6-1,0.9-1.5c0.1-0.1,0.1-0.2,0.2-0.3c0.2-0.3,0.4-0.5,0.6-0.8
		c0.1-0.1,0.1-0.1,0.2-0.2c0.3-0.4,0.7-0.9,1.1-1.3c0.1-0.2,0.3-0.3,0.5-0.5c0.2-0.2,0.5-0.5,0.7-0.7c0.4-0.4,0.8-0.7,1.2-1.1
		c0.2-0.2,0.4-0.3,0.6-0.5c0.4-0.3,0.9-0.7,1.3-1c0.2-0.1,0.3-0.2,0.5-0.3c0.5-0.3,1-0.6,1.5-0.9c0.1-0.1,0.3-0.1,0.4-0.2
		c0.6-0.3,1.1-0.5,1.7-0.8c0.1,0,0.1-0.1,0.2-0.1C29.7,8.7,36.6,9,42.4,12c0.2,0.1,0.3,0.2,0.4,0.3c0.5,0.3,1,0.5,1.4,0.8
		c0.2,0.2,0.5,0.3,0.7,0.5c0.2,0.1,0.3,0.2,0.5,0.4l-8,1.2c-0.8,0.1-1.4,0.9-1.3,1.7c0.1,0.7,0.7,1.3,1.5,1.3c0.1,0,0.1,0,0.2,0
		l11.3-1.6c0.1,0,0.2,0,0.3-0.1c0,0,0,0,0.1,0c0.2-0.1,0.3-0.2,0.5-0.3c0,0,0,0,0,0c0,0,0,0,0,0c0.1-0.1,0.1-0.1,0.2-0.2
		c0-0.1,0.1-0.1,0.1-0.2c0,0,0,0,0,0c0.1-0.2,0.1-0.3,0.1-0.5c0,0,0-0.1,0-0.1c0-0.1,0-0.3-0.1-0.4L47.3,3.7c-0.2-0.8-1.1-1.3-1.9-1
		c-0.8,0.2-1.3,1.1-1,1.9l1.8,6.3c-0.1-0.1-0.2-0.1-0.3-0.2c-0.3-0.2-0.6-0.3-0.8-0.5C45,10.1,45,10,44.9,10C41,7.7,36.6,6.5,32,6.5
		c-2.9,0-5.7,0.5-8.3,1.4c-0.1,0-0.1,0-0.2,0.1C23.2,8,23,8.1,22.7,8.2c-0.2,0.1-0.3,0.1-0.5,0.2c-0.2,0.1-0.3,0.1-0.5,0.2
		C21.5,8.8,21.3,8.9,21,9C21,9,20.9,9,20.8,9.1c-2.5,1.2-4.8,2.8-6.8,4.8c-0.2,0.2-0.3,0.4-0.5,0.6c-0.2,0.2-0.3,0.3-0.5,0.5
		c-0.7,0.8-1.4,1.7-2.1,2.6c-0.1,0.1-0.1,0.2-0.2,0.3c-0.4,0.6-0.8,1.2-1.1,1.8c0,0,0,0.1-0.1,0.1C9,20.9,8.5,22,8.1,23.1
		c0,0,0,0,0,0c-1.6,4.3-2,9-1.1,13.6c0,0.1,0,0.2,0.1,0.3c0.1,0.4,0.2,0.7,0.3,1.1c0.1,0.4,0.2,0.8,0.4,1.2c0.1,0.3,0.2,0.5,0.3,0.8
		c0.1,0.3,0.2,0.6,0.3,0.9c0.1,0.3,0.3,0.6,0.4,1c0.2,0.3,0.3,0.7,0.5,1c0.1,0.1,0.1,0.3,0.2,0.4c0,0,0,0.1,0.1,0.1
		c4.3,8.1,12.8,13.6,22.6,13.6c14.1,0,25.5-11.4,25.5-25.4C57.5,27.8,56.5,23.8,54.7,20.2z"/>
</g>
<g id="spinner-notch">
</g>
<g id="spinner-hex">
</g>
<g id="refresh-open">
</g>
</svg>
