<?xml version="1.0" encoding="utf-8"?>
<!-- Generator: Adobe Illustrator 20.1.0, SVG Export Plug-In . SVG Version: 6.00 Build 0)  -->
<!DOCTYPE svg PUBLIC "-//W3C//DTD SVG 1.1//EN" "http://www.w3.org/Graphics/SVG/1.1/DTD/svg11.dtd">
<svg version="1.1" xmlns="http://www.w3.org/2000/svg" xmlns:xlink="http://www.w3.org/1999/xlink" x="0px" y="0px"
	 viewBox="0 0 64 64" style="enable-background:new 0 0 64 64;" xml:space="preserve">
<g id="suitcase">
	<g>
		<path d="M59.5,15H48v-0.2C48,9.5,43.5,5,38.1,5H25.9C20.5,5,16,9.5,16,14.8V15H4.5C2,15,0,17,0,19.5v35C0,57,2,59,4.5,59h55
			c2.5,0,4.5-2,4.5-4.5v-35C64,17,62,15,59.5,15z M45.2,38.2L43,31.4l10.3-3.5l2.2,6.8L45.2,38.2z M52,25.1L40.7,29
			c-0.8,0.3-1.2,1.1-0.9,1.9l3.1,9.7c0.1,0.4,0.4,0.7,0.8,0.9c0.2,0.1,0.4,0.2,0.7,0.2c0.2,0,0.3,0,0.5-0.1L52,39v17H12V35.3
			c0.6,0.2,1.1,0.2,1.7,0.2c3.6,0,6.6-2.9,6.6-6.6s-3-6.6-6.6-6.6c-0.6,0-1.1,0.1-1.7,0.2V18h40V25.1z M11.6,31.8L11.6,31.8
			c-0.9-0.7-1.4-1.7-1.4-2.8s0.5-2.1,1.4-2.8c0.6-0.5,1.4-0.7,2.1-0.7c2,0,3.6,1.6,3.6,3.6s-1.6,3.6-3.6,3.6
			C12.9,32.5,12.2,32.3,11.6,31.8z M19,14.8c0-3.6,3.2-6.8,6.9-6.8h12.2c3.7,0,6.9,3.2,6.9,6.8V15H19V14.8z M3,54.5v-35
			C3,18.7,3.7,18,4.5,18H9v6.4c-1.2,1.2-1.9,2.8-1.9,4.6s0.7,3.3,1.9,4.6V56H4.5C3.7,56,3,55.3,3,54.5z M61,54.5
			c0,0.8-0.7,1.5-1.5,1.5H55V38l2.9-1c0.8-0.3,1.2-1.1,0.9-1.9l-3.1-9.7c-0.1-0.4-0.4-0.7-0.7-0.8V18h4.5c0.8,0,1.5,0.7,1.5,1.5
			V54.5z"/>
		<path d="M21.8,40.6c-4.8,0-8.6,2.9-8.6,6.6s3.8,6.6,8.6,6.6s8.6-2.9,8.6-6.6S26.7,40.6,21.8,40.6z M21.8,50.8
			c-3,0-5.6-1.6-5.6-3.6s2.6-3.6,5.6-3.6s5.6,1.6,5.6,3.6S24.9,50.8,21.8,50.8z"/>
	</g>
</g>
<g id="backpack">
</g>
<g id="chef-hat">
</g>
<g id="work-jacket">
</g>
<g id="tshirt">
</g>
<g id="handbag">
</g>
<g id="coat-hanger">
</g>
<g id="measuring-tape">
</g>
<g id="pants">
</g>
<g id="t-shirt-ale">
</g>
<g id="watch">
</g>
<g id="glasses">
</g>
<g id="graduation-hat">
</g>
<g id="scuba-gear">
</g>
<g id="shoe">
</g>
<g id="crown">
</g>
<g id="wand">
</g>
<g id="crown-alt">
</g>
</svg>
