<?xml version="1.0" encoding="utf-8"?>
<!-- Generator: Adobe Illustrator 20.1.0, SVG Export Plug-In . SVG Version: 6.00 Build 0)  -->
<!DOCTYPE svg PUBLIC "-//W3C//DTD SVG 1.1//EN" "http://www.w3.org/Graphics/SVG/1.1/DTD/svg11.dtd">
<svg version="1.1" xmlns="http://www.w3.org/2000/svg" xmlns:xlink="http://www.w3.org/1999/xlink" x="0px" y="0px"
	 viewBox="0 0 64 64" style="enable-background:new 0 0 64 64;" xml:space="preserve">
<g id="desktop">
</g>
<g id="tablet">
</g>
<g id="tablet-landscape">
</g>
<g id="desktop-alt">
</g>
<g id="smartphone">
</g>
<g id="smartphone-landscape">
</g>
<g id="laptop">
</g>
<g id="laptops">
</g>
<g id="desktops">
</g>
<g id="printer">
</g>
<g id="smartphones">
</g>
<g id="smartphone-mail">
</g>
<g id="smartphone-search">
</g>
<g id="desktop-chart">
</g>
<g id="pc">
</g>
<g id="remote-control-alt">
</g>
<g id="remote-control">
</g>
<g id="smartphone-signal">
</g>
<g id="battery-charge">
</g>
<g id="battery-charge-half">
</g>
<g id="battery-charge-full">
</g>
<g id="battery-charging">
</g>
<g id="filter">
</g>
<g id="network-web">
</g>
<g id="chip">
</g>
<g id="preferences-box">
</g>
<g id="preferences-vertical-box">
</g>
<g id="preferences-vertical-box-alt">
</g>
<g id="preferences-box-alt">
</g>
<g id="preferences">
</g>
<g id="preferences-vertical">
</g>
<g id="preferences-vertical-alt">
</g>
<g id="preferences-alt">
</g>
<g id="bluetooth">
</g>
<g id="signal-strength">
</g>
<g id="signal-no">
	<g>
		<path d="M43.1,6.6c-0.7-0.4-1.6-0.2-2.1,0.5l-26.5,45c-0.4,0.7-0.2,1.6,0.5,2.1c0.2,0.1,0.5,0.2,0.8,0.2c0.5,0,1-0.3,1.3-0.7
			l26.5-45C44.1,8,43.9,7.1,43.1,6.6z"/>
		<path d="M63.6,28.1c-5.1-5.5-11.6-9.6-18.7-11.8c-0.8-0.2-1.6,0.2-1.9,1c-0.2,0.8,0.2,1.6,1,1.9c6.6,2,12.6,5.8,17.4,10.9
			c0.3,0.3,0.7,0.5,1.1,0.5c0.4,0,0.7-0.1,1-0.4C64.1,29.7,64.2,28.7,63.6,28.1z"/>
		<path d="M32.2,16c0-0.8-0.7-1.5-1.6-1.4C18.9,15,8.2,20.1,0.4,28.9c-0.6,0.6-0.5,1.6,0.1,2.1c0.3,0.3,0.6,0.4,1,0.4
			c0.4,0,0.8-0.2,1.1-0.5C9.9,22.7,19.9,18,30.8,17.5C31.6,17.5,32.2,16.8,32.2,16z"/>
		<path d="M37.8,28.2c-0.8-0.2-1.6,0.4-1.7,1.2c-0.2,0.8,0.4,1.6,1.2,1.7c5.7,1.1,11,4,14.9,8.3c0.3,0.3,0.7,0.5,1.1,0.5
			c0.4,0,0.7-0.1,1-0.4c0.6-0.6,0.7-1.5,0.1-2.1C50,32.6,44.1,29.3,37.8,28.2z"/>
		<path d="M23.1,30.7c-0.3-0.8-1.2-1.1-2-0.8c-4.2,1.7-8,4.4-11.1,7.8c-0.5,0.6-0.5,1.6,0.1,2.1c0.3,0.3,0.6,0.4,1,0.4
			c0.4,0,0.8-0.2,1.1-0.5c2.7-3.1,6.2-5.5,10-7.1C23.1,32.3,23.5,31.4,23.1,30.7z"/>
		<path d="M32.3,38.9c-0.4,0-0.9,0-1.3,0c-0.8,0.1-1.4,0.8-1.4,1.6c0.1,0.8,0.8,1.5,1.6,1.4c0.4,0,0.7,0,1.1,0
			c4.4,0,8.6,1.9,11.5,5.2c0.3,0.3,0.7,0.5,1.1,0.5c0.4,0,0.7-0.1,1-0.4c0.6-0.6,0.7-1.5,0.1-2.1C42.6,41.1,37.6,38.9,32.3,38.9z"/>
		<ellipse cx="32.1" cy="54.2" rx="3.3" ry="3.4"/>
	</g>
</g>
<g id="signal-tower-no">
</g>
<g id="signal-tower">
</g>
<g id="signal-no-alt">
</g>
<g id="nut">
</g>
<g id="cogs">
</g>
<g id="cog">
</g>
<g id="cog-dash-left">
</g>
<g id="cog-dash-right">
</g>
<g id="cog-fall">
</g>
<g id="io">
</g>
<g id="browser">
</g>
<g id="browser-add">
</g>
<g id="rss">
</g>
<g id="no-access">
</g>
<g id="notification">
</g>
<g id="devices">
</g>
<g id="notification-alert">
</g>
</svg>
