<?xml version="1.0" encoding="utf-8"?>
<!-- Generator: Adobe Illustrator 20.1.0, SVG Export Plug-In . SVG Version: 6.00 Build 0)  -->
<!DOCTYPE svg PUBLIC "-//W3C//DTD SVG 1.1//EN" "http://www.w3.org/Graphics/SVG/1.1/DTD/svg11.dtd">
<svg version="1.1" xmlns="http://www.w3.org/2000/svg" xmlns:xlink="http://www.w3.org/1999/xlink" x="0px" y="0px"
	 viewBox="0 0 64 64" style="enable-background:new 0 0 64 64;" xml:space="preserve">
<g id="fairground">
</g>
<g id="tent">
</g>
<g id="tree">
</g>
<g id="trees">
</g>
<g id="tree-alt">
</g>
<g id="butterfly">
</g>
<g id="sunrise">
	<g>
		<path d="M63.3,49.7C58,46.4,51.6,44,44.4,42.7c0.8-1.8,1.3-3.7,1.3-5.7c0-7.4-6.1-13.5-13.7-13.5S18.3,29.6,18.3,37
			c0,2,0.4,3.9,1.3,5.7C12.4,44,6,46.4,0.7,49.7c-0.7,0.4-0.9,1.4-0.5,2.1c0.4,0.7,1.4,0.9,2.1,0.5c5.4-3.4,12.3-5.9,19.9-7
			c6.4-1,13.2-1,19.7,0c7.6,1.1,14.4,3.6,19.9,7c0.2,0.2,0.5,0.2,0.8,0.2c0.5,0,1-0.2,1.3-0.7C64.2,51.1,64,50.2,63.3,49.7z
			 M22.7,42.2c-0.9-1.6-1.4-3.3-1.4-5.2c0-5.8,4.8-10.5,10.7-10.5S42.7,31.2,42.7,37c0,1.8-0.5,3.6-1.4,5.2
			C35.2,41.3,28.8,41.3,22.7,42.2z"/>
		<path d="M31.5,18.5c0.8,0,1.5-0.7,1.5-1.5v-4c0-0.8-0.7-1.5-1.5-1.5S30,12.2,30,13v4C30,17.8,30.7,18.5,31.5,18.5z"/>
		<path d="M52,39h4c0.8,0,1.5-0.7,1.5-1.5S56.8,36,56,36h-4c-0.8,0-1.5,0.7-1.5,1.5S51.2,39,52,39z"/>
		<path d="M8,39h4c0.8,0,1.5-0.7,1.5-1.5S12.8,36,12,36H8c-0.8,0-1.5,0.7-1.5,1.5S7.2,39,8,39z"/>
		<path d="M16.6,23.9c0.3,0.3,0.7,0.4,1.1,0.4c0.4,0,0.8-0.1,1.1-0.4c0.6-0.6,0.6-1.5,0-2.1L15.8,19c-0.6-0.6-1.5-0.6-2.1,0
			c-0.6,0.6-0.6,1.5,0,2.1L16.6,23.9z"/>
		<path d="M46.4,24.4c0.4,0,0.8-0.1,1.1-0.4l2.9-2.8c0.6-0.6,0.6-1.5,0-2.1c-0.6-0.6-1.5-0.6-2.1,0l-2.9,2.8c-0.6,0.6-0.6,1.5,0,2.1
			C45.6,24.2,46,24.4,46.4,24.4z"/>
	</g>
</g>
<g id="waterdrop">
</g>
<g id="map">
</g>
<g id="map-alt">
</g>
<g id="earth">
</g>
<g id="earth-no">
</g>
<g id="meteor">
</g>
<g id="sun">
</g>
<g id="sun-dim">
</g>
<g id="umbrella">
</g>
<g id="umbrella-alt">
</g>
<g id="gps">
</g>
<g id="fire">
</g>
<g id="target-sight">
</g>
<g id="gps-area">
</g>
<g id="gps-alt">
</g>
<g id="target">
</g>
<g id="star">
</g>
<g id="lightning">
</g>
</svg>
