<?xml version="1.0" encoding="utf-8"?>
<!-- Generator: Adobe Illustrator 20.1.0, SVG Export Plug-In . SVG Version: 6.00 Build 0)  -->
<!DOCTYPE svg PUBLIC "-//W3C//DTD SVG 1.1//EN" "http://www.w3.org/Graphics/SVG/1.1/DTD/svg11.dtd">
<svg version="1.1" xmlns="http://www.w3.org/2000/svg" xmlns:xlink="http://www.w3.org/1999/xlink" x="0px" y="0px"
	 viewBox="0 0 64 64" style="enable-background:new 0 0 64 64;" xml:space="preserve">
<g id="home">
</g>
<g id="shop">
	<path d="M61.5,12.4L57.1,1c-0.2-0.6-0.8-1-1.4-1H8.4C7.8,0,7.2,0.4,7,1L2.5,12.7C0.7,17.3,2.1,22.5,6,26.1v36.4
		C6,63.3,6.7,64,7.5,64h49c0.8,0,1.5-0.7,1.5-1.5V26c0-0.1,0-0.1,0-0.2C61.9,23,63.4,17.3,61.5,12.4z M5.3,13.8L9.4,3h45.2l4.1,10.5
		c1.5,3.9,0.2,8.3-2.9,10.2c-0.3,0.2-0.5,0.2-0.8,0.2c-0.9,0-1.6-1-2.5-2.7c-1-1.9-2.3-4.3-5.1-4.3c-2.8,0-4.1,2.4-5.1,4.3
		c-0.9,1.7-1.5,2.7-2.5,2.7c-0.9,0-1.6-1-2.5-2.7c-1-1.9-2.3-4.3-5.1-4.3c-2.8,0-4.1,2.4-5.1,4.3c-0.9,1.7-1.5,2.7-2.5,2.7
		c-0.9,0-1.5-0.9-2.5-2.7c-1-1.9-2.3-4.2-5.1-4.2c-2.8,0-4.1,2.5-5.1,4.4c-0.9,1.8-1.6,2.8-2.5,2.8c-0.4,0-0.7-0.1-1-0.4
		C5,21.2,3.9,17.3,5.3,13.8z M40,61H24V41.2c0.1-0.1,0.5-0.2,0.9-0.2h14.2c0.4,0,0.7,0.1,0.9,0.2V61z M43,61V41.1
		c0-1.8-1.6-3.1-3.9-3.1H24.9c-2.3,0-3.9,1.3-3.9,3.1V61H9V27.4c0,0,0.1,0,0.1,0c2.8,0,4.1-2.5,5.1-4.4c0.9-1.8,1.6-2.8,2.5-2.8
		c0.9,0,1.5,0.9,2.5,2.7c1,1.9,2.3,4.2,5.1,4.2c2.8,0,4.1-2.4,5.1-4.3C30.4,21,31.1,20,32,20c0.9,0,1.6,1,2.5,2.7
		c1,1.9,2.3,4.3,5.1,4.3c2.8,0,4.1-2.4,5.1-4.3c0.9-1.7,1.5-2.7,2.5-2.7c0.9,0,1.6,1,2.5,2.7c1,1.9,2.3,4.3,5.1,4.3c0,0,0.1,0,0.1,0
		V61H43z"/>
</g>
<g id="buildings">
</g>
<g id="solar-panel">
</g>
<g id="towers">
</g>
<g id="stadium">
</g>
<g id="station">
</g>
<g id="shop-alt">
</g>
<g id="home-alt">
</g>
<g id="factory">
</g>
<g id="rig">
</g>
<g id="shipping-container">
</g>
<g id="official-building">
</g>
</svg>
