<?xml version="1.0" encoding="utf-8"?>
<!-- Generator: Adobe Illustrator 20.1.0, SVG Export Plug-In . SVG Version: 6.00 Build 0)  -->
<!DOCTYPE svg PUBLIC "-//W3C//DTD SVG 1.1//EN" "http://www.w3.org/Graphics/SVG/1.1/DTD/svg11.dtd">
<svg version="1.1" xmlns="http://www.w3.org/2000/svg" xmlns:xlink="http://www.w3.org/1999/xlink" x="0px" y="0px"
	 viewBox="0 0 64 64" style="enable-background:new 0 0 64 64;" xml:space="preserve">
<g id="home">
</g>
<g id="shop">
</g>
<g id="buildings">
</g>
<g id="solar-panel">
</g>
<g id="towers">
</g>
<g id="stadium">
</g>
<g id="station">
</g>
<g id="shop-alt">
	<path d="M62.6,22C62.6,22,62.5,22,62.6,22l-5.8-7.5c-0.1-0.4-0.4-0.7-0.7-1c0,0,0,0,0,0V5.4C56,2.3,53.9,0,51.1,0H12.9
		C10.1,0,8,2.3,8,5.4v8.1c0,0,0,0-0.1,0.1c-0.3,0.2-0.5,0.6-0.7,1L1.5,22c-1,1.3-1.5,2.8-1.5,4.3v1.9c0,3.4,2.7,6.3,6,7.1v23.4
		c0,3.1,2.2,5.4,5,5.4h42c2.9,0,5-2.3,5-5.4V35.2c3.3-0.7,6-3.7,6-7.1v-1.9C64,24.7,63.5,23.2,62.6,22z M11,5.4
		C11,4.2,11.6,3,12.9,3h38.1C52.4,3,53,4.2,53,5.4v7.6l-42,0V5.4z M14,32l4.8-16l7.6,0l-2.7,16H14z M29.4,16l5,0l2.7,16H26.7
		L29.4,16z M40.2,32l-2.7-16l7.6,0L49.9,32H40.2z M7,32c-0.3,0-0.5,0.1-0.7,0.2c-1.7-0.5-3.3-2.1-3.3-4v-1.9c0-0.8,0.3-1.7,0.9-2.5
		l5.8-7.6C9.8,16.1,9.8,16,9.9,16l5.8,0l-4.8,16H7z M38,61H26V41h12V61z M55,58.6c0,1.2-0.7,2.4-2,2.4H41V39.5
		c0-0.8-0.7-1.5-1.5-1.5h-15c-0.8,0-1.5,0.7-1.5,1.5V61H11c-1.3,0-2-1.2-2-2.4V35h1.8c0.2,0.2,0.4,0.3,0.6,0.3
		c0.1,0,0.3,0.1,0.4,0.1c0.4,0,0.7-0.2,1-0.4h11c0.2,0.2,0.5,0.3,0.8,0.4c0.1,0,0.2,0,0.3,0c0.4,0,0.7-0.2,1-0.4H38
		c0.3,0.2,0.6,0.4,1,0.4c0.1,0,0.2,0,0.3,0c0.3-0.1,0.6-0.2,0.8-0.4h11c0.3,0.2,0.6,0.4,1,0.4c0.1,0,0.3,0,0.4-0.1
		c0.2-0.1,0.4-0.2,0.6-0.3h2V58.6z M61,28.2c0,1.9-1.6,3.5-3.3,4C57.5,32.1,57.3,32,57,32h-4l-4.8-16.1l5.9,0c0,0.1,0.1,0.1,0.2,0.2
		l5.9,7.6c0.5,0.7,0.8,1.6,0.8,2.5V28.2z"/>
</g>
<g id="home-alt">
</g>
<g id="factory">
</g>
<g id="rig">
</g>
<g id="shipping-container">
</g>
<g id="official-building">
</g>
</svg>
