<?xml version="1.0" encoding="utf-8"?>
<!-- Generator: Adobe Illustrator 20.1.0, SVG Export Plug-In . SVG Version: 6.00 Build 0)  -->
<!DOCTYPE svg PUBLIC "-//W3C//DTD SVG 1.1//EN" "http://www.w3.org/Graphics/SVG/1.1/DTD/svg11.dtd">
<svg version="1.1" xmlns="http://www.w3.org/2000/svg" xmlns:xlink="http://www.w3.org/1999/xlink" x="0px" y="0px"
	 viewBox="0 0 64 64" style="enable-background:new 0 0 64 64;" xml:space="preserve">
<g id="home">
</g>
<g id="shop">
</g>
<g id="buildings">
</g>
<g id="solar-panel">
</g>
<g id="towers">
</g>
<g id="stadium">
	<path d="M64,27C64,27,64,27,64,27c0-0.1,0-0.1,0-0.1c-0.1-3.7-3-7.1-8-9.7c0,0,0,0,0,0v-1.5l7.6-8.5c0,0,0,0,0,0
		c0.1-0.1,0.2-0.3,0.3-0.5c0,0,0,0,0-0.1C64,6.5,64,6.4,64,6.2c0,0,0,0,0-0.1c0,0,0,0,0-0.1c0-0.2-0.1-0.3-0.1-0.5c0,0,0,0,0,0
		c-0.1-0.2-0.2-0.3-0.3-0.4c0,0,0,0,0,0c0,0,0,0,0,0C63.3,5,63.2,4.9,63,4.8c0,0,0,0-0.1,0c-0.1,0-0.3-0.1-0.5-0.1l-8,0
		c-0.8,0-1.5,0.7-1.5,1.5v9.7c-2.5-1-5.3-1.8-8.5-2.4V8.3c0-2.8-3.1-5.1-5.8-5.1H25c-2.6,0-5.5,2.2-5.5,5.1v5.3
		c-5.5,1-10.1,2.8-13.5,4.9v-3.1l8.1-8.1c0,0,0,0,0,0c0.1-0.1,0.3-0.3,0.3-0.5c0,0,0,0,0,0c0.1-0.2,0.1-0.4,0.1-0.5c0,0,0,0,0,0
		c0,0,0,0,0,0c0-0.2,0-0.4-0.1-0.5c0,0,0,0,0,0c-0.1-0.2-0.2-0.4-0.3-0.5c0,0,0,0,0,0c0,0,0,0,0,0C14,5,13.8,4.9,13.6,4.8
		c0,0,0,0,0,0c-0.2-0.1-0.4-0.1-0.5-0.1c0,0,0,0,0,0c0,0,0,0,0,0l-8.6,0C3.7,4.7,3,5.4,3,6.2v14.6c-1.7,1.7-2.7,3.6-2.9,5.6
		C0,26.6,0,26.9,0,27.2l3,19.3c0,0.1,0.1,0.2,0.1,0.3c0.5,7,10.6,12.8,24.3,13.9c0,0,0.1,0,0.1,0c0.4,0,0.8-0.2,1.1-0.4
		c0.3-0.3,0.5-0.7,0.4-1.2c-0.2-2.9,0.1-8.2,1.8-10c0.4-0.4,0.7-0.6,1.2-0.6c0.5,0,0.9,0.2,1.2,0.6c1.7,1.8,2.1,7.1,2,10
		c0,0.4,0.1,0.9,0.5,1.2c0.3,0.3,0.7,0.5,1.2,0.4c14.1-1.2,23.9-7,24.1-14.3L63.7,29C63.9,28.4,64,27.7,64,27z M56,7.7l3.1,0
		L56,11.2V7.7z M54.1,34.4c-4.4-4.6-12.7-7.5-22.1-7.5c-9.2,0-17.7,2.9-22.1,7.5c-1.4-0.7-2.6-1.4-3.5-2.1c1.9-5.6,13-10,25.6-10
		c14.1,0,23.9,4.9,25.6,9.9C56.7,33,55.5,33.7,54.1,34.4z M51.1,35.7c-4.9,1.8-11.5,3-19.1,3c-7.6,0-14.2-1.2-19.1-3
		c4-3.5,11.2-5.8,19.1-5.8C39.9,29.9,47.1,32.1,51.1,35.7z M61,26.9l-0.2,1.4c-0.2,0.5-0.4,1.1-0.8,1.6
		c-3.4-6.3-14.4-10.6-27.9-10.6C18.7,19.3,7.5,23.7,4.2,30c-0.7-1-1.1-2-1.1-3c0-5.6,11.6-11.6,28.9-11.6c3.9,0,7.4,0.3,10.7,0.8
		c0,0,0.1,0,0.1,0C53.9,18.1,60.9,22.6,61,26.9z M22.5,8.3c0-1,1.3-2.1,2.5-2.1h13.7c1.2,0,2.8,1.2,2.8,2.1V13
		c-3-0.4-6.2-0.6-9.5-0.6s-6.5,0.2-9.5,0.6V8.3z M6,7.7l3.4,0L6,11.1V7.7z M38.3,57.6c0-2.8-0.4-8-2.8-10.5c-0.9-1-2.1-1.5-3.4-1.5
		c-1.3,0-2.5,0.5-3.4,1.5c-2.3,2.5-2.7,7.7-2.6,10.5C14.7,56.4,6.1,51.6,6.1,46.3c0-0.3-0.1-0.5-0.2-0.7L4.1,34.2
		c5.4,4.5,15.8,7.4,27.9,7.4c12.1,0,22.3-2.9,27.8-7.3L58,46.1c0,0,0,0.1,0,0.1c0,0,0,0.1,0,0.1C58,51.6,49.6,56.3,38.3,57.6z"/>
</g>
<g id="station">
</g>
<g id="shop-alt">
</g>
<g id="home-alt">
</g>
<g id="factory">
</g>
<g id="rig">
</g>
<g id="shipping-container">
</g>
<g id="official-building">
</g>
</svg>
