<?xml version="1.0" encoding="utf-8"?>
<!-- Generator: Adobe Illustrator 20.1.0, SVG Export Plug-In . SVG Version: 6.00 Build 0)  -->
<!DOCTYPE svg PUBLIC "-//W3C//DTD SVG 1.1//EN" "http://www.w3.org/Graphics/SVG/1.1/DTD/svg11.dtd">
<svg version="1.1" xmlns="http://www.w3.org/2000/svg" xmlns:xlink="http://www.w3.org/1999/xlink" x="0px" y="0px"
	 viewBox="0 0 64 64" style="enable-background:new 0 0 64 64;" xml:space="preserve">
<g id="camera">
</g>
<g id="video">
</g>
<g id="step-backward">
</g>
<g id="fast-backward">
</g>
<g id="backward">
</g>
<g id="play">
</g>
<g id="stop">
</g>
<g id="pause">
</g>
<g id="record">
</g>
<g id="eject">
</g>
<g id="forward">
</g>
<g id="fast-forward">
</g>
<g id="step-forward">
</g>
<g id="repeat">
</g>
<g id="repeat-one">
</g>
<g id="shuffle">
</g>
<g id="mute">
</g>
<g id="sound-none">
</g>
<g id="sound-low">
	<g>
		<path d="M35.5,7.2c-2.1-0.9-4.4-0.5-5.8,1L17.7,20h-5c-2.9,0-5.3,2.5-5.3,5.5l0,12.7c0,1.5,0.6,3,1.6,4C9.7,43,11,44,12.6,44h5
			l12,11.8c1,1,2.4,1.5,3.8,1.5c0.7,0,1.5-0.1,2.2-0.4c2-0.8,3.4-2.9,3.4-5V12.1c0-1.3-0.6-2.7-1.7-3.8C36.7,7.7,36,7.4,35.5,7.2z
			 M36,51.9c0,0.9-0.7,1.9-1.6,2.2c-0.9,0.4-2,0.2-2.7-0.4L19.3,41.4c-0.3-0.3-0.7-0.4-1.1-0.4h-5.7c-0.5,0-1.1-0.3-1.7-0.9
			c-0.4-0.4-0.7-1.2-0.7-1.9l0-12.7c0-1.3,1.1-2.5,2.3-2.5h5.6c0.4,0,0.8-0.2,1.1-0.4l12.5-12.3c0.6-0.6,1.6-0.7,2.6-0.3
			c0.3,0.1,0.6,0.3,0.8,0.5c0.5,0.5,0.8,1.1,0.8,1.7V51.9z"/>
		<path d="M42.8,18.1c-0.8,0-1.5,0.7-1.5,1.5s0.7,1.5,1.5,1.5c6,0,10.9,4.9,10.9,10.9c0,6-4.9,10.9-10.9,10.9
			c-0.8,0-1.5,0.7-1.5,1.5s0.7,1.5,1.5,1.5c7.7,0,13.9-6.2,13.9-13.9S50.4,18.1,42.8,18.1z"/>
	</g>
</g>
<g id="sound-high">
</g>
<g id="step-backward-circle">
</g>
<g id="fast-backward-circle">
</g>
<g id="backward-circle">
</g>
<g id="play-circle">
</g>
<g id="stop-circle">
</g>
<g id="pause-circle">
</g>
<g id="record-circle">
</g>
<g id="eject-circle">
</g>
<g id="forward-circle">
</g>
<g id="fast-forward-circle">
</g>
<g id="step-forward-circle">
</g>
</svg>
