<?xml version="1.0" encoding="utf-8"?>
<!-- Generator: Adobe Illustrator 20.1.0, SVG Export Plug-In . SVG Version: 6.00 Build 0)  -->
<!DOCTYPE svg PUBLIC "-//W3C//DTD SVG 1.1//EN" "http://www.w3.org/Graphics/SVG/1.1/DTD/svg11.dtd">
<svg version="1.1" xmlns="http://www.w3.org/2000/svg" xmlns:xlink="http://www.w3.org/1999/xlink" x="0px" y="0px"
	 viewBox="0 0 64 64" style="enable-background:new 0 0 64 64;" xml:space="preserve">
<g id="bulb">
</g>
<g id="bulb-on">
</g>
<g id="bulb-alt">
</g>
<g id="bulb-on-alt">
</g>
<g id="energy-bulb">
</g>
<g id="toasting">
</g>
<g id="toasted">
</g>
<g id="binoculars">
</g>
<g id="gift">
</g>
<g id="shaver">
	<g>
		<path d="M32,20.2c-5.8,0-10.4,4.7-10.4,10.4S26.2,41,32,41s10.4-4.7,10.4-10.4S37.8,20.2,32,20.2z M32,38c-4.1,0-7.4-3.3-7.4-7.4
			s3.3-7.4,7.4-7.4s7.4,3.3,7.4,7.4S36.1,38,32,38z"/>
		<ellipse cx="32" cy="30.6" rx="5" ry="5"/>
		<path d="M53.6,21.3h-0.5c-0.5-6.1-2.1-11.9-4.6-16.8C47.8,3,46.2,2,44.3,1.8V1.5c0-0.8-0.7-1.5-1.5-1.5s-1.5,0.7-1.5,1.5v0.3h-4.2
			V1.5c0-0.8-0.7-1.5-1.5-1.5s-1.5,0.7-1.5,1.5v0.3h-4.2V1.5c0-0.8-0.7-1.5-1.5-1.5s-1.5,0.7-1.5,1.5v0.3h-4.2V1.5
			C22.7,0.7,22,0,21.2,0s-1.5,0.7-1.5,1.5v0.3C17.8,2,16.2,3,15.4,4.6c-2.5,4.9-4,10.6-4.6,16.7h-0.5c-0.8,0-1.5,0.7-1.5,1.5
			s0.7,1.5,1.5,1.5h0.3c0,0.5,0,1,0,1.5c0,9,2.1,17.4,6,23.8c3.7,6,8.6,9.6,13.8,10.2v2.7c0,0.8,0.7,1.5,1.5,1.5s1.5-0.7,1.5-1.5
			v-2.7c5.3-0.6,10.1-4.1,13.8-10.1c3.9-6.4,6-14.8,6-23.7c0-0.5,0-1.1,0-1.6h0.3c0.8,0,1.5-0.7,1.5-1.5S54.5,21.3,53.6,21.3z
			 M18.1,6c0.4-0.7,1-1,1.6-1.1v3.3c0,0.8,0.7,1.5,1.5,1.5s1.5-0.7,1.5-1.5V4.8h4.2v3.3c0,0.8,0.7,1.5,1.5,1.5s1.5-0.7,1.5-1.5V4.8
			h4.2v3.3c0,0.8,0.7,1.5,1.5,1.5s1.5-0.7,1.5-1.5V4.8h4.2v3.3c0,0.8,0.7,1.5,1.5,1.5s1.5-0.7,1.5-1.5V4.9C44.9,5,45.6,5.2,45.9,6
			c0.9,1.8,1.7,3.8,2.4,5.9c-4,1.5-9.9,2.4-16.3,2.4c-6.4,0-12.3-0.9-16.3-2.4C16.4,9.8,17.1,7.8,18.1,6z M44.8,48.1
			c-3.5,5.7-8,8.8-12.8,8.8c-4.8,0-9.3-3.1-12.8-8.8c-3.6-5.9-5.6-13.8-5.6-22.2c0-3.9,0.4-7.6,1.3-11.1c4.3,1.6,10.5,2.5,17.1,2.5
			c6.6,0,12.8-0.9,17.1-2.5c0.8,3.5,1.3,7.3,1.3,11.2C50.4,34.4,48.4,42.2,44.8,48.1z"/>
	</g>
</g>
<g id="candle">
</g>
<g id="shower">
</g>
<g id="bomb">
</g>
<g id="joystick">
</g>
<g id="megaphone">
</g>
<g id="chestdraw">
</g>
<g id="armchair">
</g>
<g id="cardboard-box">
</g>
<g id="bath-shower">
</g>
<g id="diamond">
</g>
<g id="cassette">
</g>
<g id="iron">
</g>
<g id="wash">
</g>
<g id="keyboard-keys">
</g>
<g id="earphones">
</g>
<g id="lifebuoy">
</g>
<g id="calculator">
</g>
<g id="safe">
</g>
<g id="balloon">
</g>
<g id="cake">
</g>
<g id="baseball">
</g>
<g id="football-american">
</g>
<g id="football">
</g>
<g id="anchor">
</g>
<g id="compact-disc">
</g>
<g id="bbq">
</g>
<g id="coffee-machine">
</g>
<g id="teapot">
</g>
<g id="outdoor-stove">
</g>
<g id="pram">
</g>
<g id="paintbrush">
</g>
<g id="stamp">
</g>
<g id="eyedrop">
</g>
<g id="musical-note">
</g>
<g id="magnet">
</g>
<g id="alarm-bell">
</g>
<g id="globe">
</g>
<g id="key">
</g>
<g id="ink">
</g>
<g id="paperclip">
</g>
<g id="paint-roller">
</g>
<g id="keyboard">
</g>
</svg>
