<?xml version="1.0" encoding="utf-8"?>
<!-- Generator: Adobe Illustrator 20.1.0, SVG Export Plug-In . SVG Version: 6.00 Build 0)  -->
<!DOCTYPE svg PUBLIC "-//W3C//DTD SVG 1.1//EN" "http://www.w3.org/Graphics/SVG/1.1/DTD/svg11.dtd">
<svg version="1.1" xmlns="http://www.w3.org/2000/svg" xmlns:xlink="http://www.w3.org/1999/xlink" x="0px" y="0px"
	 viewBox="0 0 64 64" style="enable-background:new 0 0 64 64;" xml:space="preserve">
<g id="text-height">
</g>
<g id="font">
</g>
<g id="text">
</g>
<g id="italic">
</g>
<g id="strikethrough">
	<path d="M64,29.7H39.7c-1.9-0.9-4-1.6-6.1-2.3c-8.6-2.9-13-5-13-10.5c0-5.8,4.1-9.3,9.5-9.3c6.3,0,10.8,3.7,13.4,11.7h3.3v-16h-2.6
		L41.6,6c-2.6-1-5.6-1.8-10.1-1.8c-10,0-18.1,6.1-18.1,16.2c0,4.3,1.5,7.2,3.8,9.3H0v4.6h26c0.9,0.3,1.8,0.6,2.7,0.9
		c9.8,3.5,13.8,5.8,13.8,11.6c0,4.5-3,9.8-10.9,9.8c-6.7,0-12-4.1-16.3-13.2h-2.7v17.1h2.2l4.1-2.8c3.1,1.3,7.5,2.2,11.8,2.2
		c13.4,0,18.2-9.5,18.2-17.4c0-3.6-1-6.2-2.6-8.2H64V29.7z"/>
</g>
<g id="paragraph">
</g>
<g id="bold">
</g>
<g id="quote-right">
</g>
<g id="hashtag">
</g>
<g id="anchor-handle">
</g>
<g id="box">
</g>
<g id="fullscreen">
</g>
<g id="fullscreen-alt">
</g>
<g id="golden-ratio">
</g>
<g id="hexgrid">
</g>
<g id="box-points">
</g>
<g id="box-points-move">
</g>
<g id="box-points-move-alt">
</g>
<g id="hex_1_">
</g>
<g id="hex-diamond">
</g>
<g id="artboards-vertical">
</g>
<g id="artboards">
</g>
<g id="artboards-alt-vertical">
</g>
<g id="artboards-alt">
</g>
<g id="scale">
</g>
<g id="pencil">
</g>
<g id="fill">
</g>
<g id="artist-mug">
</g>
<g id="pen">
</g>
<g id="calligraphy-pen-tip">
</g>
<g id="calligraphy-pen_1_">
</g>
<g id="paint-pallette">
</g>
<g id="tools-cross">
</g>
<g id="edit-tools">
</g>
<g id="pencil-ruler">
</g>
<g id="ruler-measure">
</g>
<g id="measure">
</g>
<g id="code">
</g>
<g id="move">
</g>
<g id="external">
</g>
<g id="terminal">
</g>
<g id="thumbnails">
</g>
</svg>
