<?xml version="1.0" encoding="utf-8"?>
<!-- Generator: Adobe Illustrator 20.1.0, SVG Export Plug-In . SVG Version: 6.00 Build 0)  -->
<!DOCTYPE svg PUBLIC "-//W3C//DTD SVG 1.1//EN" "http://www.w3.org/Graphics/SVG/1.1/DTD/svg11.dtd">
<svg version="1.1" xmlns="http://www.w3.org/2000/svg" xmlns:xlink="http://www.w3.org/1999/xlink" x="0px" y="0px"
	 viewBox="0 0 64 64" style="enable-background:new 0 0 64 64;" xml:space="preserve">
<g id="camera">
</g>
<g id="video">
</g>
<g id="step-backward">
</g>
<g id="fast-backward">
</g>
<g id="backward">
</g>
<g id="play">
</g>
<g id="stop">
</g>
<g id="pause">
</g>
<g id="record">
</g>
<g id="eject">
</g>
<g id="forward">
</g>
<g id="fast-forward">
</g>
<g id="step-forward">
</g>
<g id="repeat">
</g>
<g id="repeat-one">
</g>
<g id="shuffle">
</g>
<g id="mute">
</g>
<g id="sound-none">
</g>
<g id="sound-low">
</g>
<g id="sound-high">
	<g>
		<path d="M28.4,7.2c-2.1-0.9-4.4-0.5-5.9,1L10.5,20h-5c-2.9,0-5.3,2.5-5.3,5.5l0,12.7c0,1.5,0.6,3,1.6,4C2.5,43,3.8,44,5.4,44h5
			l12,11.8c1,1,2.4,1.5,3.8,1.5c0.7,0,1.5-0.1,2.2-0.4c2.1-0.8,3.5-2.9,3.5-5V12.1c0-1.3-0.6-2.6-1.8-3.8
			C29.7,7.8,28.9,7.4,28.4,7.2z M29,51.9c0,0.9-0.7,1.9-1.7,2.2c-0.9,0.4-2.1,0.2-2.8-0.4L12.1,41.4c-0.3-0.3-0.7-0.4-1.1-0.4H5.4
			c-0.5,0-1.1-0.3-1.7-0.9c-0.4-0.4-0.7-1.2-0.7-1.9l0-12.7c0-1.3,1.1-2.5,2.3-2.5h5.6c0.4,0,0.8-0.2,1.1-0.4l12.5-12.3
			c0.7-0.7,1.8-0.7,2.6-0.3c0.4,0.2,0.7,0.4,0.8,0.5c0.6,0.6,0.9,1.2,0.9,1.7V51.9z"/>
		<path d="M38.7,6.8c-0.8,0-1.5,0.7-1.5,1.5s0.7,1.5,1.5,1.5c12.3,0,22.2,10,22.2,22.2c0,12.2-10,22.2-22.2,22.2
			c-0.8,0-1.5,0.7-1.5,1.5s0.7,1.5,1.5,1.5c13.9,0,25.2-11.3,25.2-25.2C63.9,18.1,52.6,6.8,38.7,6.8z"/>
		<path d="M49.5,32c0-7.7-6.3-13.9-13.9-13.9c-0.8,0-1.5,0.7-1.5,1.5s0.7,1.5,1.5,1.5c6,0,10.9,4.9,10.9,10.9
			c0,6-4.9,10.9-10.9,10.9c-0.8,0-1.5,0.7-1.5,1.5s0.7,1.5,1.5,1.5C43.3,45.9,49.5,39.7,49.5,32z"/>
	</g>
</g>
<g id="step-backward-circle">
</g>
<g id="fast-backward-circle">
</g>
<g id="backward-circle">
</g>
<g id="play-circle">
</g>
<g id="stop-circle">
</g>
<g id="pause-circle">
</g>
<g id="record-circle">
</g>
<g id="eject-circle">
</g>
<g id="forward-circle">
</g>
<g id="fast-forward-circle">
</g>
<g id="step-forward-circle">
</g>
</svg>
