<?xml version="1.0" encoding="utf-8"?>
<!-- Generator: Adobe Illustrator 20.1.0, SVG Export Plug-In . SVG Version: 6.00 Build 0)  -->
<!DOCTYPE svg PUBLIC "-//W3C//DTD SVG 1.1//EN" "http://www.w3.org/Graphics/SVG/1.1/DTD/svg11.dtd">
<svg version="1.1" xmlns="http://www.w3.org/2000/svg" xmlns:xlink="http://www.w3.org/1999/xlink" x="0px" y="0px"
	 viewBox="0 0 64 64" style="enable-background:new 0 0 64 64;" xml:space="preserve">
<g id="desktop">
</g>
<g id="tablet">
</g>
<g id="tablet-landscape">
</g>
<g id="desktop-alt">
</g>
<g id="smartphone">
</g>
<g id="smartphone-landscape">
</g>
<g id="laptop">
</g>
<g id="laptops">
</g>
<g id="desktops">
</g>
<g id="printer">
</g>
<g id="smartphones">
</g>
<g id="smartphone-mail">
</g>
<g id="smartphone-search">
</g>
<g id="desktop-chart">
</g>
<g id="pc">
</g>
<g id="remote-control-alt">
</g>
<g id="remote-control">
</g>
<g id="smartphone-signal">
</g>
<g id="battery-charge">
</g>
<g id="battery-charge-half">
</g>
<g id="battery-charge-full">
</g>
<g id="battery-charging">
</g>
<g id="filter">
</g>
<g id="network-web">
</g>
<g id="chip">
</g>
<g id="preferences-box">
</g>
<g id="preferences-vertical-box">
</g>
<g id="preferences-vertical-box-alt">
</g>
<g id="preferences-box-alt">
</g>
<g id="preferences">
</g>
<g id="preferences-vertical">
</g>
<g id="preferences-vertical-alt">
</g>
<g id="preferences-alt">
</g>
<g id="bluetooth">
</g>
<g id="signal-strength">
</g>
<g id="signal-no">
</g>
<g id="signal-tower-no">
</g>
<g id="signal-tower">
	<g>
		<path d="M24.2,16.4c-0.6,0.6-0.6,1.5,0,2.1s1.5,0.6,2.1,0c1.1-1.1,3.4-2.2,5.7-2.2s4.6,1.1,5.7,2.2c0.3,0.3,0.7,0.4,1.1,0.4
			c0.4,0,0.8-0.1,1.1-0.4c0.6-0.6,0.6-1.5,0-2.1c-1.6-1.5-4.6-3.1-7.8-3.1S25.8,14.9,24.2,16.4z"/>
		<path d="M42.8,13.7c0.4,0,0.8-0.1,1.1-0.4c0.6-0.6,0.6-1.5,0-2.1C40.6,7.9,37.4,6.7,32,6.7s-8.6,1.2-11.8,4.4
			c-0.6,0.6-0.6,1.5,0,2.1c0.6,0.6,1.5,0.6,2.1,0c2.3-2.3,4.6-3.6,9.7-3.6s7.4,1.3,9.7,3.6C42,13.5,42.4,13.7,42.8,13.7z"/>
		<path d="M18.2,7.9C21.9,4.3,25.5,3,32,3s10.1,1.3,13.8,4.9c0.3,0.3,0.7,0.4,1.1,0.4c0.4,0,0.8-0.1,1.1-0.4c0.6-0.6,0.6-1.5,0-2.1
			C43.6,1.6,39.3,0,32,0S20.4,1.6,16.1,5.8c-0.6,0.6-0.6,1.5,0,2.1C16.7,8.5,17.7,8.5,18.2,7.9z"/>
		<path d="M48.6,61.5c-0.2-0.2-15.2-17.9-15.2-35.7c0-0.8-0.7-1.5-1.5-1.5s-1.5,0.7-1.5,1.5c0,17.7-14.9,35.5-15,35.7
			c-0.5,0.6-0.5,1.6,0.2,2.1c0.6,0.5,1.6,0.5,2.1-0.2c0.3-0.4,3.7-4.4,7.3-10.6H39c3.6,6.1,7.1,10.2,7.4,10.6
			c0.3,0.3,0.7,0.5,1.1,0.5c0.3,0,0.7-0.1,1-0.4C49.1,63.1,49.2,62.2,48.6,61.5z M26.6,49.9c2.1-3.9,4-8.5,5.3-13.3
			c1.3,4.8,3.3,9.4,5.4,13.3H26.6z"/>
	</g>
</g>
<g id="signal-no-alt">
</g>
<g id="nut">
</g>
<g id="cogs">
</g>
<g id="cog">
</g>
<g id="cog-dash-left">
</g>
<g id="cog-dash-right">
</g>
<g id="cog-fall">
</g>
<g id="io">
</g>
<g id="browser">
</g>
<g id="browser-add">
</g>
<g id="rss">
</g>
<g id="no-access">
</g>
<g id="notification">
</g>
<g id="devices">
</g>
<g id="notification-alert">
</g>
</svg>
