<?xml version="1.0" encoding="utf-8"?>
<!-- Generator: Adobe Illustrator 20.1.0, SVG Export Plug-In . SVG Version: 6.00 Build 0)  -->
<!DOCTYPE svg PUBLIC "-//W3C//DTD SVG 1.1//EN" "http://www.w3.org/Graphics/SVG/1.1/DTD/svg11.dtd">
<svg version="1.1" xmlns="http://www.w3.org/2000/svg" xmlns:xlink="http://www.w3.org/1999/xlink" x="0px" y="0px"
	 viewBox="0 0 64 64" style="enable-background:new 0 0 64 64;" xml:space="preserve">
<g id="suitcase">
</g>
<g id="backpack">
</g>
<g id="chef-hat">
</g>
<g id="work-jacket">
</g>
<g id="tshirt">
</g>
<g id="handbag">
</g>
<g id="coat-hanger">
</g>
<g id="measuring-tape">
</g>
<g id="pants">
</g>
<g id="t-shirt-ale">
</g>
<g id="watch">
</g>
<g id="glasses">
</g>
<g id="graduation-hat">
</g>
<g id="scuba-gear">
</g>
<g id="shoe">
	<path d="M60.9,32.7L25.2,19.1c-0.5-0.2-1-0.1-1.4,0.2c-0.4,0.3-0.6,0.7-0.6,1.2c0,1.3-2.2,2.7-6.9,2.7c-4.4,0-6.9-2-6.9-2.7
		c0-0.8-0.7-1.5-1.5-1.5H4.7C1.7,19,0,20.7,0,23.6v19.9C0,44.3,0.7,45,1.5,45h61c0.8,0,1.5-0.7,1.5-1.5v-7.3
		C64,35.1,63.5,33.6,60.9,32.7z M60.9,36H33c0-0.6,0.2-1,2.2-1h8.4c1.9,0,3.5-2.2,4.3-4.1l12.1,4.6C60.4,35.7,60.7,35.9,60.9,36z
		 M4.7,22h2c1.2,2.4,5.1,4.2,9.5,4.2c5.5,0,8.4-1.7,9.4-3.7l4.7,1.8l-1.5,1.4c-0.6,0.6-0.6,1.5,0,2.1c0.3,0.3,0.7,0.5,1.1,0.5
		c0.4,0,0.7-0.1,1-0.4l2.5-2.4l1.4,0.6l-0.8,0.7c-0.6,0.6-0.6,1.5-0.1,2.1c0.3,0.3,0.7,0.5,1.1,0.5c0.4,0,0.7-0.1,1-0.4l1.8-1.7
		l7,2.7c-0.3,0.9-1.1,2-1.5,2.1h-8.4c-3.3,0-5.1,1.4-5.1,4H11.3c-0.6-4.2-4.2-7.8-8.3-8.5v-3.9C3,22.4,3.4,22,4.7,22z M3,30.6
		c2.5,0.7,4.7,2.9,5.3,5.4H3V30.6z M3,42v-3h58v3H3z"/>
</g>
<g id="crown">
</g>
<g id="wand">
</g>
<g id="crown-alt">
</g>
</svg>
