<?xml version="1.0" encoding="utf-8"?>
<!-- Generator: Adobe Illustrator 20.1.0, SVG Export Plug-In . SVG Version: 6.00 Build 0)  -->
<!DOCTYPE svg PUBLIC "-//W3C//DTD SVG 1.1//EN" "http://www.w3.org/Graphics/SVG/1.1/DTD/svg11.dtd">
<svg version="1.1" xmlns="http://www.w3.org/2000/svg" xmlns:xlink="http://www.w3.org/1999/xlink" x="0px" y="0px"
	 viewBox="0 0 64 64" style="enable-background:new 0 0 64 64;" xml:space="preserve">
<g id="user">
</g>
<g id="users">
</g>
<g id="comment">
</g>
<g id="commenting">
</g>
<g id="comments">
</g>
<g id="comments-alt">
</g>
<g id="commenting-alt">
</g>
<g id="comment-alt">
</g>
<g id="face-happy">
</g>
<g id="face-ok">
</g>
<g id="face-unhappy">
</g>
<g id="mail">
</g>
<g id="phone">
</g>
<g id="fingerprint">
</g>
<g id="info">
</g>
<g id="question">
</g>
<g id="warning">
</g>
<g id="alert">
</g>
<g id="headset">
</g>
<g id="skull">
	<g>
		<path d="M59.4,23c0-0.1,0-0.1,0-0.2C57.1,9.5,46.1,0,32,0C16.2,0,4.3,11.9,4.3,27.7v6.8c0,8.5,6.2,15.4,14.1,16.2v11.7
			c0,0.8,0.7,1.5,1.5,1.5s1.5-0.7,1.5-1.5V49.3c0-0.8-0.7-1.5-1.5-1.5c-7,0-12.6-6-12.6-13.3v-6.8c0-1.1,0.1-2.1,0.2-3.1
			c9.3-0.4,10.6-7,10.6-12.9c0-0.8-0.7-1.5-1.5-1.5S15,10.9,15,11.8c0,6.8-1.9,9.5-7.1,9.8C10.5,10.5,19.8,3,32,3
			c12.2,0,21.5,7.5,24,18.5C50.9,21,50,17.8,50,11.8c0-0.8-0.7-1.5-1.5-1.5S47,10.9,47,11.8c0,6.4,1.2,12.3,9.6,12.8
			c0.1,1,0.2,2.1,0.2,3.1v6.8c0,6.6-4,13.3-11.6,13.3c-0.8,0-1.5,0.7-1.5,1.5v13.2c0,0.8,0.7,1.5,1.5,1.5s1.5-0.7,1.5-1.5V50.8
			c7.6-0.8,13.1-7.5,13.1-16.2v-6.8C59.7,26.1,59.6,24.5,59.4,23z"/>
		<path d="M29,47.9c-0.8,0-1.5,0.7-1.5,1.5v13.1c0,0.8,0.7,1.5,1.5,1.5s1.5-0.7,1.5-1.5V49.4C30.5,48.6,29.8,47.9,29,47.9z"/>
		<path d="M36,47.9c-0.8,0-1.5,0.7-1.5,1.5v13.1c0,0.8,0.7,1.5,1.5,1.5s1.5-0.7,1.5-1.5V49.4C37.5,48.6,36.9,47.9,36,47.9z"/>
		<path d="M35.3,44.6c0.3-0.4,0.3-1,0.1-1.5l-1.4-2.9c-0.3-0.5-0.8-0.8-1.3-0.8s-1.1,0.3-1.3,0.8l-1.4,2.9c-0.2,0.5-0.2,1,0.1,1.5
			c0.3,0.4,0.8,0.7,1.3,0.7H34C34.5,45.3,35,45.1,35.3,44.6z"/>
		<path d="M55.7,34.5c0-5.9-4.8-10.6-10.6-10.6s-10.6,4.8-10.6,10.6c0,5.9,4.8,10.6,10.6,10.6S55.7,40.4,55.7,34.5z M37.4,34.5
			c0-4.2,3.4-7.6,7.6-7.6s7.6,3.4,7.6,7.6c0,4.2-3.4,7.6-7.6,7.6S37.4,38.7,37.4,34.5z"/>
		<path d="M20,23.9c-5.9,0-10.6,4.8-10.6,10.6c0,5.9,4.8,10.6,10.6,10.6s10.6-4.8,10.6-10.6C30.6,28.7,25.8,23.9,20,23.9z M20,42.1
			c-4.2,0-7.6-3.4-7.6-7.6c0-4.2,3.4-7.6,7.6-7.6s7.6,3.4,7.6,7.6C27.6,38.7,24.2,42.1,20,42.1z"/>
	</g>
</g>
<g id="baby">
</g>
<g id="eye">
</g>
<g id="id-card">
</g>
<g id="microphone">
</g>
<g id="eye-cross">
</g>
<g id="user-commenting">
</g>
<g id="user-commenting-alt">
</g>
<g id="user-file">
</g>
<g id="user-check">
</g>
<g id="tap">
</g>
<g id="swipe">
</g>
<g id="slide">
</g>
<g id="foot">
</g>
<g id="share-social">
</g>
<g id="ghost">
</g>
</svg>
