<?xml version="1.0" encoding="utf-8"?>
<!-- Generator: Adobe Illustrator 20.1.0, SVG Export Plug-In . SVG Version: 6.00 Build 0)  -->
<!DOCTYPE svg PUBLIC "-//W3C//DTD SVG 1.1//EN" "http://www.w3.org/Graphics/SVG/1.1/DTD/svg11.dtd">
<svg version="1.1" xmlns="http://www.w3.org/2000/svg" xmlns:xlink="http://www.w3.org/1999/xlink" x="0px" y="0px"
	 viewBox="0 0 64 64" style="enable-background:new 0 0 64 64;" xml:space="preserve">
<g id="bulb">
</g>
<g id="bulb-on">
</g>
<g id="bulb-alt">
</g>
<g id="bulb-on-alt">
</g>
<g id="energy-bulb">
</g>
<g id="toasting">
</g>
<g id="toasted">
</g>
<g id="binoculars">
</g>
<g id="gift">
</g>
<g id="shaver">
</g>
<g id="candle">
</g>
<g id="shower">
	<g>
		<path d="M63.5,42.1c0-15.8-13.6-28.7-30.5-29.2V1.5C33,0.7,32.3,0,31.5,0S30,0.7,30,1.5V13C13.8,14,1,26.3,0.6,41.5
			c-0.1,0.2-0.1,0.4-0.1,0.7C0.5,48.4,20.3,50,32,50c11.3,0,30.1-1.6,31.4-7.3C63.4,42.6,63.5,42.4,63.5,42.1z M32,15.9
			c14.3,0,26.1,9.7,28.1,22.4c-6.1-3.1-19.4-4-28.2-4c-8.7,0-21.9,0.9-28.1,4C6,25.6,17.8,15.9,32,15.9z M32,47
			c-17.5,0-27.5-3-28.4-4.8c0,0,0-0.1,0-0.1c0-0.1,0-0.1,0-0.2c1-1.7,11.1-4.7,28.4-4.7c17.8,0,28,3.2,28.4,4.9
			C59.9,43.8,49.8,47,32,47z"/>
		<path d="M7.2,52.6c-0.8,0-1.5,0.7-1.5,1.5v6.3c0,0.8,0.7,1.5,1.5,1.5s1.5-0.7,1.5-1.5v-6.3C8.7,53.3,8,52.6,7.2,52.6z"/>
		<path d="M56.8,52.6c-0.8,0-1.5,0.7-1.5,1.5v6.3c0,0.8,0.7,1.5,1.5,1.5s1.5-0.7,1.5-1.5v-6.3C58.3,53.3,57.6,52.6,56.8,52.6z"/>
		<path d="M44.1,52.6c-0.8,0-1.5,0.7-1.5,1.5v6.3c0,0.8,0.7,1.5,1.5,1.5s1.5-0.7,1.5-1.5v-6.3C45.6,53.3,45,52.6,44.1,52.6z"/>
		<path d="M18.8,52.6c-0.8,0-1.5,0.7-1.5,1.5v6.3c0,0.8,0.7,1.5,1.5,1.5s1.5-0.7,1.5-1.5v-6.3C20.3,53.3,19.6,52.6,18.8,52.6z"/>
		<path d="M50.5,56.8c-0.8,0-1.5,0.7-1.5,1.5v4.2c0,0.8,0.7,1.5,1.5,1.5s1.5-0.7,1.5-1.5v-4.2C52,57.5,51.3,56.8,50.5,56.8z"/>
		<path d="M36.7,56.8c-0.8,0-1.5,0.7-1.5,1.5v4.2c0,0.8,0.7,1.5,1.5,1.5s1.5-0.7,1.5-1.5v-4.2C38.2,57.5,37.6,56.8,36.7,56.8z"/>
		<path d="M26.2,56.8c-0.8,0-1.5,0.7-1.5,1.5v4.2c0,0.8,0.7,1.5,1.5,1.5s1.5-0.7,1.5-1.5v-4.2C27.7,57.5,27,56.8,26.2,56.8z"/>
		<path d="M12.5,56.8c-0.8,0-1.5,0.7-1.5,1.5v4.2c0,0.8,0.7,1.5,1.5,1.5s1.5-0.7,1.5-1.5v-4.2C14,57.5,13.3,56.8,12.5,56.8z"/>
	</g>
</g>
<g id="bomb">
</g>
<g id="joystick">
</g>
<g id="megaphone">
</g>
<g id="chestdraw">
</g>
<g id="armchair">
</g>
<g id="cardboard-box">
</g>
<g id="bath-shower">
</g>
<g id="diamond">
</g>
<g id="cassette">
</g>
<g id="iron">
</g>
<g id="wash">
</g>
<g id="keyboard-keys">
</g>
<g id="earphones">
</g>
<g id="lifebuoy">
</g>
<g id="calculator">
</g>
<g id="safe">
</g>
<g id="balloon">
</g>
<g id="cake">
</g>
<g id="baseball">
</g>
<g id="football-american">
</g>
<g id="football">
</g>
<g id="anchor">
</g>
<g id="compact-disc">
</g>
<g id="bbq">
</g>
<g id="coffee-machine">
</g>
<g id="teapot">
</g>
<g id="outdoor-stove">
</g>
<g id="pram">
</g>
<g id="paintbrush">
</g>
<g id="stamp">
</g>
<g id="eyedrop">
</g>
<g id="musical-note">
</g>
<g id="magnet">
</g>
<g id="alarm-bell">
</g>
<g id="globe">
</g>
<g id="key">
</g>
<g id="ink">
</g>
<g id="paperclip">
</g>
<g id="paint-roller">
</g>
<g id="keyboard">
</g>
</svg>
