<?xml version="1.0" encoding="utf-8"?>
<!-- Generator: Adobe Illustrator 20.1.0, SVG Export Plug-In . SVG Version: 6.00 Build 0)  -->
<!DOCTYPE svg PUBLIC "-//W3C//DTD SVG 1.1//EN" "http://www.w3.org/Graphics/SVG/1.1/DTD/svg11.dtd">
<svg version="1.1" xmlns="http://www.w3.org/2000/svg" xmlns:xlink="http://www.w3.org/1999/xlink" x="0px" y="0px"
	 viewBox="0 0 64 64" style="enable-background:new 0 0 64 64;" xml:space="preserve">
<g id="home">
</g>
<g id="shop">
</g>
<g id="buildings">
</g>
<g id="solar-panel">
</g>
<g id="towers">
</g>
<g id="stadium">
</g>
<g id="station">
</g>
<g id="shop-alt">
</g>
<g id="home-alt">
</g>
<g id="factory">
</g>
<g id="rig">
</g>
<g id="shipping-container">
	<g>
		<path d="M62.5,25.8h-4.3c-0.1-0.1-0.2-0.1-0.3-0.2L36.6,14.5c0,0,0.1-0.1,0.1-0.1c0.6-0.6,0.6-1.5,0-2.1c-0.6-0.6-1.5-0.6-2.1,0
			c-0.3,0.3-0.7,0.5-1.2,0.6c0,0-0.1,0-0.1,0c-0.1,0-0.1,0-0.2,0c0,0-0.1,0-0.1,0c-0.1,0-0.1,0-0.1,0c0,0-0.1,0-0.1,0
			c0,0-0.1,0-0.1,0c-0.7,0-1.3-0.3-1.9-0.9c-0.5-0.5-0.8-1.3-0.8-2c0-1,0.2-1.6,0.6-2c0.5-0.5,1.2-0.8,1.8-0.8
			c0.8,0,1.5-0.7,1.5-1.5V1.8c0-0.8-0.7-1.5-1.5-1.5s-1.5,0.7-1.5,1.5v2.6c-0.9,0.3-1.7,0.8-2.4,1.5c-1,1-1.5,2.4-1.5,4.2
			c0,1.5,0.5,2.9,1.5,4l-22,11.6c-0.1,0.1-0.2,0.1-0.3,0.2H1.5c-0.8,0-1.5,0.7-1.5,1.5v35c0,0.8,0.7,1.5,1.5,1.5h61
			c0.8,0,1.5-0.7,1.5-1.5v-35C64,26.4,63.3,25.8,62.5,25.8z M42.9,25.8l-7.4-8.5l16.3,8.5H42.9z M38.9,25.8H25.3l6.8-7.9L38.9,25.8z
			 M28.6,17.2l-7.3,8.5h-8.9L28.6,17.2z M61,60.8H3v-32h58V60.8z"/>
		<path d="M10,58.8H15c1.4,0,2.5-1.1,2.5-2.5V34.2c0-1.4-1.1-2.5-2.5-2.5H10c-1.4,0-2.5,1.1-2.5,2.5v22.1C7.5,57.6,8.6,58.8,10,58.8
			z M10.5,34.8h4v21h-4V34.8z"/>
		<path d="M49,58.8H54c1.4,0,2.5-1.1,2.5-2.5V34.2c0-1.4-1.1-2.5-2.5-2.5H49c-1.4,0-2.5,1.1-2.5,2.5v22.1
			C46.5,57.6,47.6,58.8,49,58.8z M49.5,34.8h4v21h-4V34.8z"/>
		<path d="M36,58.8H41c1.4,0,2.5-1.1,2.5-2.5V34.2c0-1.4-1.1-2.5-2.5-2.5H36c-1.4,0-2.5,1.1-2.5,2.5v22.1
			C33.5,57.6,34.6,58.8,36,58.8z M36.5,34.8h4v21h-4V34.8z"/>
		<path d="M23,58.8H28c1.4,0,2.5-1.1,2.5-2.5V34.2c0-1.4-1.1-2.5-2.5-2.5H23c-1.4,0-2.5,1.1-2.5,2.5v22.1
			C20.5,57.6,21.6,58.8,23,58.8z M23.5,34.8h4v21h-4V34.8z"/>
	</g>
</g>
<g id="official-building">
</g>
</svg>
