<?xml version="1.0" encoding="utf-8"?>
<!-- Generator: Adobe Illustrator 20.1.0, SVG Export Plug-In . SVG Version: 6.00 Build 0)  -->
<!DOCTYPE svg PUBLIC "-//W3C//DTD SVG 1.1//EN" "http://www.w3.org/Graphics/SVG/1.1/DTD/svg11.dtd">
<svg version="1.1" xmlns="http://www.w3.org/2000/svg" xmlns:xlink="http://www.w3.org/1999/xlink" x="0px" y="0px"
	 viewBox="0 0 64 64" style="enable-background:new 0 0 64 64;" xml:space="preserve">
<g id="dial">
</g>
<g id="dial-alt">
</g>
<g id="connections">
</g>
<g id="atom">
</g>
<g id="atom-alt">
</g>
<g id="cosmic">
</g>
<g id="cosmic-alt">
</g>
<g id="workflows">
</g>
<g id="positive">
</g>
<g id="neuron">
</g>
<g id="sitemap">
</g>
<g id="conditional">
</g>
<g id="sitemap-alt">
	<path d="M56.4,45.7c-0.1-2.7-1-8.5-7.3-14.7c-6.5-6.5-13-7.1-15.6-7.1v-5.5c4.3-0.7,7.6-4.5,7.6-9c0-5-4.1-9.1-9.1-9.1
		s-9.1,4.1-9.1,9.1c0,4.5,3.3,8.3,7.6,9v5.5c-2.7-0.1-9.1,0.5-15.6,7.1c-6.2,6.2-7.2,12-7.3,14.7c-4.3,0.7-7.6,4.5-7.6,9
		c0,5,4.1,9.1,9.1,9.1s9.1-4.1,9.1-9.1c0-4.5-3.3-8.3-7.7-9c0.1-2.1,0.9-7.1,6.4-12.6c5.9-5.9,11.5-6.3,13.5-6.2v18.8
		c-4.3,0.7-7.6,4.5-7.6,9c0,5,4.1,9.1,9.1,9.1s9.1-4.1,9.1-9.1c0-4.5-3.3-8.3-7.6-9V26.9c2-0.1,7.6,0.3,13.5,6.2
		c5.5,5.5,6.3,10.4,6.4,12.6c-4.4,0.7-7.7,4.5-7.7,9c0,5,4.1,9.1,9.1,9.1s9.1-4.1,9.1-9.1C64,50.2,60.7,46.4,56.4,45.7z M15.3,54.6
		c0,3.4-2.8,6.1-6.1,6.1C5.8,60.8,3,58,3,54.6c0-3.4,2.8-6.1,6.1-6.1C12.5,48.5,15.3,51.3,15.3,54.6z M25.9,9.4
		c0-3.4,2.8-6.1,6.1-6.1s6.1,2.7,6.1,6.1c0,3.4-2.8,6.1-6.1,6.1S25.9,12.7,25.9,9.4z M38.1,54.6c0,3.4-2.8,6.1-6.1,6.1
		s-6.1-2.7-6.1-6.1c0-3.4,2.8-6.1,6.1-6.1S38.1,51.3,38.1,54.6z M54.9,60.8c-3.4,0-6.1-2.7-6.1-6.1c0-3.4,2.8-6.1,6.1-6.1
		c3.4,0,6.1,2.7,6.1,6.1C61,58,58.2,60.8,54.9,60.8z"/>
</g>
<g id="neuron-alt">
</g>
<g id="flask">
</g>
<g id="clone">
</g>
<g id="infinity">
</g>
<g id="f42">
</g>
</svg>
