<?xml version="1.0" encoding="utf-8"?>
<!-- Generator: Adobe Illustrator 20.1.0, SVG Export Plug-In . SVG Version: 6.00 Build 0)  -->
<!DOCTYPE svg PUBLIC "-//W3C//DTD SVG 1.1//EN" "http://www.w3.org/Graphics/SVG/1.1/DTD/svg11.dtd">
<svg version="1.1" xmlns="http://www.w3.org/2000/svg" xmlns:xlink="http://www.w3.org/1999/xlink" x="0px" y="0px"
	 viewBox="0 0 64 64" style="enable-background:new 0 0 64 64;" xml:space="preserve">
<g id="bulb">
</g>
<g id="bulb-on">
</g>
<g id="bulb-alt">
</g>
<g id="bulb-on-alt">
</g>
<g id="energy-bulb">
</g>
<g id="toasting">
</g>
<g id="toasted">
</g>
<g id="binoculars">
</g>
<g id="gift">
</g>
<g id="shaver">
</g>
<g id="candle">
</g>
<g id="shower">
</g>
<g id="bomb">
</g>
<g id="joystick">
</g>
<g id="megaphone">
</g>
<g id="chestdraw">
</g>
<g id="armchair">
</g>
<g id="cardboard-box">
</g>
<g id="bath-shower">
</g>
<g id="diamond">
</g>
<g id="cassette">
</g>
<g id="iron">
</g>
<g id="wash">
</g>
<g id="keyboard-keys">
</g>
<g id="earphones">
</g>
<g id="lifebuoy">
</g>
<g id="calculator">
</g>
<g id="safe">
	<g>
		<path d="M60.5,5.7h-57C1.6,5.7,0,7.3,0,9.2v39.3C0,50.4,1.6,52,3.5,52h4.9v2.9c0,2,1.4,3.4,3.5,3.4h4.3c2.1,0,3.6-1.4,3.6-3.4V52
			h23.3v2.9c0,2,1.5,3.4,3.6,3.4H51c2.1,0,3.5-1.4,3.5-3.4V52h6c1.9,0,3.5-1.6,3.5-3.5V9.2C64,7.3,62.4,5.7,60.5,5.7z M16.8,54.9
			c0,0.2,0,0.4-0.6,0.4h-4.3c-0.5,0-0.5-0.2-0.5-0.4V52h5.4V54.9z M51.5,54.9c0,0.2,0,0.4-0.5,0.4h-4.3c-0.6,0-0.6-0.2-0.6-0.4V52
			h5.4V54.9z M61,48.5c0,0.3-0.2,0.5-0.5,0.5h-57C3.2,49,3,48.7,3,48.5V9.2c0-0.3,0.2-0.5,0.5-0.5h57c0.3,0,0.5,0.2,0.5,0.5V48.5z"
			/>
		<path d="M18.4,17.4c-6.2,0-11.3,5.1-11.3,11.3S12.2,40,18.4,40S29.7,35,29.7,28.7S24.7,17.4,18.4,17.4z M26.7,28.7
			c0,0.8-0.1,1.6-0.3,2.3h-3.6c-0.9,0-1.8-1.1-1.8-2.2c0-1.1,0.9-2.2,1.8-2.2h3.7C26.6,27.3,26.7,28,26.7,28.7z M18.4,37
			c-4.6,0-8.3-3.7-8.3-8.3c0-4.6,3.7-8.3,8.3-8.3c2.6,0,5,1.3,6.5,3.2h-2.2c-2.8,0-4.8,2.7-4.8,5.2s2,5.2,4.8,5.2h2
			C23.3,35.9,21,37,18.4,37z"/>
		<path d="M54.1,15.7c-0.8,0-1.5,0.7-1.5,1.5v23.2c0,0.8,0.7,1.5,1.5,1.5s1.5-0.7,1.5-1.5V17.2C55.6,16.4,54.9,15.7,54.1,15.7z"/>
	</g>
</g>
<g id="balloon">
</g>
<g id="cake">
</g>
<g id="baseball">
</g>
<g id="football-american">
</g>
<g id="football">
</g>
<g id="anchor">
</g>
<g id="compact-disc">
</g>
<g id="bbq">
</g>
<g id="coffee-machine">
</g>
<g id="teapot">
</g>
<g id="outdoor-stove">
</g>
<g id="pram">
</g>
<g id="paintbrush">
</g>
<g id="stamp">
</g>
<g id="eyedrop">
</g>
<g id="musical-note">
</g>
<g id="magnet">
</g>
<g id="alarm-bell">
</g>
<g id="globe">
</g>
<g id="key">
</g>
<g id="ink">
</g>
<g id="paperclip">
</g>
<g id="paint-roller">
</g>
<g id="keyboard">
</g>
</svg>
