<?xml version="1.0" encoding="utf-8"?>
<!-- Generator: Adobe Illustrator 20.1.0, SVG Export Plug-In . SVG Version: 6.00 Build 0)  -->
<!DOCTYPE svg PUBLIC "-//W3C//DTD SVG 1.1//EN" "http://www.w3.org/Graphics/SVG/1.1/DTD/svg11.dtd">
<svg version="1.1" xmlns="http://www.w3.org/2000/svg" xmlns:xlink="http://www.w3.org/1999/xlink" x="0px" y="0px"
	 viewBox="0 0 64 64" style="enable-background:new 0 0 64 64;" xml:space="preserve">
<g id="desktop">
</g>
<g id="tablet">
</g>
<g id="tablet-landscape">
</g>
<g id="desktop-alt">
</g>
<g id="smartphone">
</g>
<g id="smartphone-landscape">
</g>
<g id="laptop">
</g>
<g id="laptops">
</g>
<g id="desktops">
</g>
<g id="printer">
</g>
<g id="smartphones">
</g>
<g id="smartphone-mail">
</g>
<g id="smartphone-search">
	<g>
		<path d="M41.1,50.8c-0.8,0-1.5,0.7-1.5,1.5V57c0,1.9-1.4,4-3.6,4H11c-2,0-3.8-1.9-3.8-4V7C7.1,4.9,9,3,11,3h25.1
			c2.1,0,3.6,2.1,3.6,4v3.6c0,0.8,0.7,1.5,1.5,1.5s1.5-0.7,1.5-1.5V7c0-3.8-3-7-6.6-7H11C7.3,0,4.1,3.3,4.1,7v50c0,3.7,3.2,7,6.8,7
			h25.1c3.6,0,6.6-3.2,6.6-7v-4.6C42.6,51.5,41.9,50.8,41.1,50.8z"/>
		<ellipse cx="23.5" cy="55.2" rx="2.9" ry="2.9"/>
		<path d="M59.4,49.3l-7.6-7.5c2.4-2.8,3.8-6.4,3.8-10.4c0-9-7.3-16.2-16.3-16.2c-9,0-16.3,7.3-16.3,16.2c0,9,7.3,16.2,16.3,16.2
			c4,0,7.6-1.4,10.4-3.8l7.6,7.5c0.3,0.3,0.7,0.4,1.1,0.4c0.4,0,0.8-0.1,1.1-0.4c0.3-0.3,0.4-0.7,0.4-1.1
			C59.9,49.9,59.7,49.6,59.4,49.3z M26,31.4c0-7.3,6-13.2,13.3-13.2s13.3,5.9,13.3,13.2s-6,13.2-13.3,13.2S26,38.7,26,31.4z"/>
	</g>
</g>
<g id="desktop-chart">
</g>
<g id="pc">
</g>
<g id="remote-control-alt">
</g>
<g id="remote-control">
</g>
<g id="smartphone-signal">
</g>
<g id="battery-charge">
</g>
<g id="battery-charge-half">
</g>
<g id="battery-charge-full">
</g>
<g id="battery-charging">
</g>
<g id="filter">
</g>
<g id="network-web">
</g>
<g id="chip">
</g>
<g id="preferences-box">
</g>
<g id="preferences-vertical-box">
</g>
<g id="preferences-vertical-box-alt">
</g>
<g id="preferences-box-alt">
</g>
<g id="preferences">
</g>
<g id="preferences-vertical">
</g>
<g id="preferences-vertical-alt">
</g>
<g id="preferences-alt">
</g>
<g id="bluetooth">
</g>
<g id="signal-strength">
</g>
<g id="signal-no">
</g>
<g id="signal-tower-no">
</g>
<g id="signal-tower">
</g>
<g id="signal-no-alt">
</g>
<g id="nut">
</g>
<g id="cogs">
</g>
<g id="cog">
</g>
<g id="cog-dash-left">
</g>
<g id="cog-dash-right">
</g>
<g id="cog-fall">
</g>
<g id="io">
</g>
<g id="browser">
</g>
<g id="browser-add">
</g>
<g id="rss">
</g>
<g id="no-access">
</g>
<g id="notification">
</g>
<g id="devices">
</g>
<g id="notification-alert">
</g>
</svg>
