<?xml version="1.0" encoding="utf-8"?>
<!-- Generator: Adobe Illustrator 20.1.0, SVG Export Plug-In . SVG Version: 6.00 Build 0)  -->
<!DOCTYPE svg PUBLIC "-//W3C//DTD SVG 1.1//EN" "http://www.w3.org/Graphics/SVG/1.1/DTD/svg11.dtd">
<svg version="1.1" xmlns="http://www.w3.org/2000/svg" xmlns:xlink="http://www.w3.org/1999/xlink" x="0px" y="0px"
	 viewBox="0 0 64 64" style="enable-background:new 0 0 64 64;" xml:space="preserve">
<g id="fairground">
</g>
<g id="tent">
</g>
<g id="tree">
</g>
<g id="trees">
</g>
<g id="tree-alt">
</g>
<g id="butterfly">
</g>
<g id="sunrise">
</g>
<g id="waterdrop">
</g>
<g id="map">
</g>
<g id="map-alt">
</g>
<g id="earth">
</g>
<g id="earth-no">
</g>
<g id="meteor">
</g>
<g id="sun">
</g>
<g id="sun-dim">
	<g>
		<path d="M32,14.2c-9.8,0-17.8,8-17.8,17.8s8,17.8,17.8,17.8s17.8-8,17.8-17.8S41.8,14.2,32,14.2z M32,46.8
			c-8.1,0-14.8-6.6-14.8-14.8S23.9,17.2,32,17.2S46.8,23.9,46.8,32S40.1,46.8,32,46.8z"/>
		<path d="M55.9,30.5H54c-0.8,0-1.5,0.7-1.5,1.5s0.7,1.5,1.5,1.5h1.9c0.8,0,1.5-0.7,1.5-1.5S56.7,30.5,55.9,30.5z"/>
		<path d="M10,30.5H8.1c-0.8,0-1.5,0.7-1.5,1.5s0.7,1.5,1.5,1.5H10c0.8,0,1.5-0.7,1.5-1.5S10.8,30.5,10,30.5z"/>
		<path d="M32,52.5c-0.8,0-1.5,0.7-1.5,1.5v2c0,0.8,0.7,1.5,1.5,1.5s1.5-0.7,1.5-1.5v-2C33.5,53.2,32.8,52.5,32,52.5z"/>
		<path d="M32,11.5c0.8,0,1.5-0.7,1.5-1.5V8c0-0.8-0.7-1.5-1.5-1.5S30.5,7.2,30.5,8v2C30.5,10.8,31.2,11.5,32,11.5z"/>
		<path d="M47.9,14l-1.4,1.4c-0.6,0.6-0.6,1.5,0,2.1c0.3,0.3,0.7,0.4,1.1,0.4s0.8-0.1,1.1-0.4l1.4-1.4c0.6-0.6,0.6-1.5,0-2.1
			C49.4,13.4,48.5,13.4,47.9,14z"/>
		<path d="M15.4,46.5L14,47.9c-0.6,0.6-0.6,1.5,0,2.1c0.3,0.3,0.7,0.4,1.1,0.4s0.8-0.1,1.1-0.4l1.4-1.4c0.6-0.6,0.6-1.5,0-2.1
			C16.9,45.9,16,45.9,15.4,46.5z"/>
		<path d="M48.6,46.5c-0.6-0.6-1.5-0.6-2.1,0c-0.6,0.6-0.6,1.5,0,2.1l1.4,1.4c0.3,0.3,0.7,0.4,1.1,0.4s0.8-0.1,1.1-0.4
			c0.6-0.6,0.6-1.5,0-2.1L48.6,46.5z"/>
		<path d="M15.4,17.5c0.3,0.3,0.7,0.4,1.1,0.4s0.8-0.1,1.1-0.4c0.6-0.6,0.6-1.5,0-2.1L16.1,14c-0.6-0.6-1.5-0.6-2.1,0
			c-0.6,0.6-0.6,1.5,0,2.1L15.4,17.5z"/>
	</g>
</g>
<g id="umbrella">
</g>
<g id="umbrella-alt">
</g>
<g id="gps">
</g>
<g id="fire">
</g>
<g id="target-sight">
</g>
<g id="gps-area">
</g>
<g id="gps-alt">
</g>
<g id="target">
</g>
<g id="star">
</g>
<g id="lightning">
</g>
</svg>
