<?xml version="1.0" encoding="utf-8"?>
<!-- Generator: Adobe Illustrator 20.1.0, SVG Export Plug-In . SVG Version: 6.00 Build 0)  -->
<!DOCTYPE svg PUBLIC "-//W3C//DTD SVG 1.1//EN" "http://www.w3.org/Graphics/SVG/1.1/DTD/svg11.dtd">
<svg version="1.1" xmlns="http://www.w3.org/2000/svg" xmlns:xlink="http://www.w3.org/1999/xlink" x="0px" y="0px"
	 viewBox="0 0 64 64" style="enable-background:new 0 0 64 64;" xml:space="preserve">
<g id="user">
</g>
<g id="users">
</g>
<g id="comment">
</g>
<g id="commenting">
</g>
<g id="comments">
</g>
<g id="comments-alt">
</g>
<g id="commenting-alt">
</g>
<g id="comment-alt">
</g>
<g id="face-happy">
</g>
<g id="face-ok">
</g>
<g id="face-unhappy">
</g>
<g id="mail">
</g>
<g id="phone">
</g>
<g id="fingerprint">
</g>
<g id="info">
</g>
<g id="question">
</g>
<g id="warning">
</g>
<g id="alert">
</g>
<g id="headset">
</g>
<g id="skull">
</g>
<g id="baby">
</g>
<g id="eye">
</g>
<g id="id-card">
</g>
<g id="microphone">
</g>
<g id="eye-cross">
</g>
<g id="user-commenting">
</g>
<g id="user-commenting-alt">
</g>
<g id="user-file">
</g>
<g id="user-check">
</g>
<g id="tap">
</g>
<g id="swipe">
</g>
<g id="slide">
</g>
<g id="foot">
</g>
<g id="share-social">
	<path d="M50.7,40c-3.4,0-6.3,1.8-8,4.5L22.2,35c0.3-0.9,0.4-1.8,0.4-2.7c0-1-0.1-1.9-0.4-2.7l20.6-9.9c1.7,2.6,4.5,4.3,7.8,4.3
		c5.1,0,9.3-4.2,9.3-9.3s-4.2-9.3-9.3-9.3c-5.1,0-9.3,4.2-9.3,9.3c0,0.8,0.1,1.5,0.3,2.3l-20.8,9.9c-1.7-2.3-4.4-3.9-7.5-3.9
		C8.2,23,4,27.2,4,32.3s4.2,9.3,9.3,9.3c3.1,0,5.9-1.5,7.6-3.9l20.7,9.6c-0.1,0.6-0.2,1.3-0.2,2c0,5.1,4.2,9.3,9.3,9.3
		c5.1,0,9.3-4.2,9.3-9.3S55.8,40,50.7,40z M50.7,8.4c3.5,0,6.3,2.8,6.3,6.3S54.1,21,50.7,21c-3.5,0-6.3-2.8-6.3-6.3
		S47.2,8.4,50.7,8.4z M13.3,38.6c-3.5,0-6.3-2.8-6.3-6.3S9.9,26,13.3,26c3.5,0,6.3,2.8,6.3,6.3S16.8,38.6,13.3,38.6z M50.7,55.6
		c-3.5,0-6.3-2.8-6.3-6.3s2.8-6.3,6.3-6.3c3.5,0,6.3,2.8,6.3,6.3S54.1,55.6,50.7,55.6z"/>
</g>
<g id="ghost">
</g>
</svg>
