<?xml version="1.0" encoding="utf-8"?>
<!-- Generator: Adobe Illustrator 20.1.0, SVG Export Plug-In . SVG Version: 6.00 Build 0)  -->
<!DOCTYPE svg PUBLIC "-//W3C//DTD SVG 1.1//EN" "http://www.w3.org/Graphics/SVG/1.1/DTD/svg11.dtd">
<svg version="1.1" xmlns="http://www.w3.org/2000/svg" xmlns:xlink="http://www.w3.org/1999/xlink" x="0px" y="0px"
	 viewBox="0 0 64 64" style="enable-background:new 0 0 64 64;" xml:space="preserve">
<g id="truck">
</g>
<g id="car">
</g>
<g id="taxi">
</g>
<g id="rocket">
</g>
<g id="tardis">
</g>
<g id="bus">
</g>
<g id="tram">
</g>
<g id="speedo">
</g>
<g id="air-machine">
</g>
<g id="speedo-alt">
	<g>
		<path d="M32,0C14.4,0,0,14.4,0,32s14.4,32,32,32s32-14.3,32-32S49.6,0,32,0z M32,61C16,61,3,48,3,32S16,3,32,3s29,13,29,29
			S48,61,32,61z"/>
		<path d="M56,31h-4c-0.8,0-1.5,0.7-1.5,1.5S51.1,34,52,34h4c0.8,0,1.5-0.7,1.5-1.5S56.8,31,56,31z"/>
		<path d="M48.7,25.1c0.2,0.6,0.8,0.9,1.4,0.9c0.2,0,0.4,0,0.6-0.1l4-1.7c0.8-0.3,1.1-1.2,0.8-2c-0.3-0.8-1.2-1.1-2-0.8l-4,1.7
			C48.8,23.4,48.4,24.3,48.7,25.1z"/>
		<path d="M50,14c-0.6-0.6-1.5-0.6-2.1,0l-3.1,3.1c-0.6,0.6-0.6,1.5,0,2.1c0.3,0.3,0.7,0.4,1.1,0.4c0.4,0,0.8-0.1,1.1-0.4l3.1-3.1
			C50.6,15.5,50.6,14.6,50,14z"/>
		<path d="M38.9,15.3c0.2,0.1,0.4,0.1,0.6,0.1c0.6,0,1.1-0.3,1.4-0.9l1.7-4c0.3-0.8,0-1.6-0.8-2c-0.8-0.3-1.6,0-2,0.8l-1.7,4
			C37.8,14.1,38.2,15,38.9,15.3z"/>
		<path d="M32,13.9C32,13.9,32,13.9,32,13.9c0.8,0,1.5-0.7,1.5-1.5l0-4.4c0-0.8-0.7-1.5-1.5-1.5c0,0,0,0,0,0c-0.8,0-1.5,0.7-1.5,1.5
			l0,4.4C30.5,13.2,31.2,13.9,32,13.9z"/>
		<path d="M23.1,14.5c0.2,0.6,0.8,0.9,1.4,0.9c0.2,0,0.4,0,0.6-0.1c0.8-0.3,1.1-1.2,0.8-2l-1.7-4c-0.3-0.8-1.2-1.1-2-0.8
			c-0.8,0.3-1.1,1.2-0.8,2L23.1,14.5z"/>
		<path d="M9.3,24.2l4,1.7c0.2,0.1,0.4,0.1,0.6,0.1c0.6,0,1.1-0.3,1.4-0.9c0.3-0.8,0-1.6-0.8-2l-4-1.7c-0.8-0.3-1.6,0-2,0.8
			C8.2,23,8.5,23.9,9.3,24.2z"/>
		<path d="M13.9,32c0-0.8-0.7-1.5-1.5-1.5l-4.4,0c-0.8,0-1.5,0.7-1.5,1.5c0,0.8,0.7,1.5,1.5,1.5c0,0,0,0,0,0l4.4,0
			C13.2,33.5,13.9,32.8,13.9,32z"/>
		<path d="M54.7,39.8l-4-1.7c-0.8-0.3-1.6,0-2,0.8c-0.3,0.8,0,1.6,0.8,2l4,1.7c0.2,0.1,0.4,0.1,0.6,0.1c0.6,0,1.1-0.3,1.4-0.9
			C55.8,41,55.5,40.1,54.7,39.8z"/>
		<path d="M42.5,44h-21c-0.8,0-1.5,0.7-1.5,1.5v6c0,0.8,0.7,1.5,1.5,1.5h21c0.8,0,1.5-0.7,1.5-1.5v-6C44,44.7,43.3,44,42.5,44z
			 M41,50H23v-3h18V50z"/>
		<path d="M32,37.9c1.2,0,2.3-0.4,3.2-1c0.1-0.1,0.2-0.1,0.3-0.2c0.1-0.1,0.2-0.1,0.2-0.2c0.7-0.6,1.3-1.4,1.7-2.3
			c0.6-1.4,0.6-3,0-4.5c-0.6-1.4-1.7-2.6-3.2-3.1c-1.7-0.7-3.5-0.5-5,0.3C29.1,26.9,29,27,28.9,27c-0.1,0-0.1,0.1-0.2,0.1
			c-1.6,1-2.6,2.8-2.6,4.9c0,0.3,0,0.5,0.1,0.8l-14.6,6.1c-0.8,0.3-1.1,1.2-0.8,2c0.2,0.6,0.8,0.9,1.4,0.9c0.2,0,0.4,0,0.6-0.1
			l14.6-6.1C28.4,37,30.1,37.9,32,37.9z M30.2,29.8c0.1-0.1,0.2-0.1,0.3-0.2c0.4-0.3,1-0.5,1.5-0.5c1.6,0,2.9,1.3,2.9,2.9
			c0,1-0.5,1.8-1.2,2.4c-0.8,0.5-1.7,0.6-2.6,0.2c-0.7-0.3-1.3-0.8-1.6-1.5c-0.3-0.7-0.3-1.5,0-2.2C29.6,30.5,29.8,30.1,30.2,29.8
			C30.2,29.8,30.2,29.8,30.2,29.8z"/>
		<path d="M16.8,19.6c0.3,0.3,0.7,0.4,1,0.4c0.4,0,0.8-0.2,1.1-0.5c0.6-0.6,0.5-1.5-0.1-2.1l-3.2-3c-0.6-0.6-1.5-0.5-2.1,0.1
			C13,15,13,16,13.6,16.6L16.8,19.6z"/>
	</g>
</g>
<g id="motorcycle">
</g>
<g id="car-battery">
</g>
<g id="ufo">
</g>
<g id="arrivals">
</g>
<g id="petrol-pump">
</g>
<g id="gear-shift">
</g>
<g id="car-battery-alt">
</g>
<g id="road">
</g>
<g id="siren">
</g>
<g id="plane">
</g>
<g id="lorry">
</g>
<g id="train">
</g>
<g id="forklift">
</g>
<g id="bicycle">
</g>
<g id="underground">
</g>
<g id="paper-plane">
</g>
<g id="hotair-balloon">
</g>
</svg>
