<?xml version="1.0" encoding="utf-8"?>
<!-- Generator: Adobe Illustrator 20.1.0, SVG Export Plug-In . SVG Version: 6.00 Build 0)  -->
<!DOCTYPE svg PUBLIC "-//W3C//DTD SVG 1.1//EN" "http://www.w3.org/Graphics/SVG/1.1/DTD/svg11.dtd">
<svg version="1.1" xmlns="http://www.w3.org/2000/svg" xmlns:xlink="http://www.w3.org/1999/xlink" x="0px" y="0px"
	 viewBox="0 0 64 64" style="enable-background:new 0 0 64 64;" xml:space="preserve">
<g id="desktop">
</g>
<g id="tablet">
</g>
<g id="tablet-landscape">
</g>
<g id="desktop-alt">
</g>
<g id="smartphone">
</g>
<g id="smartphone-landscape">
</g>
<g id="laptop">
</g>
<g id="laptops">
</g>
<g id="desktops">
</g>
<g id="printer">
</g>
<g id="smartphones">
</g>
<g id="smartphone-mail">
</g>
<g id="smartphone-search">
</g>
<g id="desktop-chart">
</g>
<g id="pc">
</g>
<g id="remote-control-alt">
</g>
<g id="remote-control">
</g>
<g id="smartphone-signal">
</g>
<g id="battery-charge">
</g>
<g id="battery-charge-half">
</g>
<g id="battery-charge-full">
</g>
<g id="battery-charging">
</g>
<g id="filter">
</g>
<g id="network-web">
</g>
<g id="chip">
</g>
<g id="preferences-box">
</g>
<g id="preferences-vertical-box">
</g>
<g id="preferences-vertical-box-alt">
</g>
<g id="preferences-box-alt">
</g>
<g id="preferences">
</g>
<g id="preferences-vertical">
</g>
<g id="preferences-vertical-alt">
</g>
<g id="preferences-alt">
</g>
<g id="bluetooth">
</g>
<g id="signal-strength">
</g>
<g id="signal-no">
</g>
<g id="signal-tower-no">
</g>
<g id="signal-tower">
</g>
<g id="signal-no-alt">
	<path d="M54.7,9.6C54.7,9.6,54.7,9.6,54.7,9.6c-0.1-0.1-0.1-0.1-0.1-0.1C48.8,3.8,40.8,0.3,32,0.3C14.4,0.3,0,14.5,0,32
		c0,8.7,3.6,16.6,9.3,22.4c0,0,0,0,0,0.1c0,0,0.1,0,0.1,0c5.8,5.7,13.8,9.2,22.6,9.2c17.6,0,32-14.2,32-31.7
		C64,23.3,60.4,15.4,54.7,9.6z M32,3.3c7.5,0,14.3,2.8,19.4,7.4L38.6,23.4c-4.4-4-10-6.8-16.2-7.9c-0.8-0.1-1.6,0.4-1.7,1.2
		s0.4,1.6,1.2,1.7c5.6,1,10.6,3.5,14.6,7.1l-6.1,6c-3-2.6-6.6-4.4-10.6-5.2c-0.8-0.2-1.6,0.4-1.8,1.2c-0.2,0.8,0.4,1.6,1.2,1.8
		c3.4,0.7,6.5,2.2,9.1,4.4l-6.1,6c-1.5-1.1-3.2-2-5-2.4c-0.8-0.2-1.6,0.3-1.8,1.1c-0.2,0.8,0.3,1.6,1.1,1.8c1.3,0.3,2.5,0.9,3.6,1.7
		l-9.6,9.5C5.8,46.1,3,39.4,3,32C3,16.2,16,3.3,32,3.3z M32,60.7c-7.5,0-14.3-2.8-19.4-7.4l9.6-9.5c0.8,1,1.4,2.2,1.7,3.6
		c0.2,0.7,0.8,1.1,1.5,1.1c0.1,0,0.2,0,0.4,0c0.8-0.2,1.3-1,1.1-1.8c-0.5-1.9-1.3-3.5-2.4-5l6.1-6c2.2,2.5,3.8,5.6,4.4,9
		c0.1,0.7,0.8,1.2,1.5,1.2c0.1,0,0.2,0,0.3,0c0.8-0.2,1.3-0.9,1.2-1.8c-0.8-4-2.6-7.6-5.2-10.5l6.1-6c3.6,4,6.2,8.9,7.1,14.5
		c0.1,0.7,0.8,1.2,1.5,1.2c0.1,0,0.2,0,0.3,0c0.8-0.1,1.4-0.9,1.2-1.7c-1.1-6.1-3.9-11.6-8-16l12.8-12.7C58.2,17.9,61,24.6,61,32
		C61,47.8,48,60.7,32,60.7z"/>
</g>
<g id="nut">
</g>
<g id="cogs">
</g>
<g id="cog">
</g>
<g id="cog-dash-left">
</g>
<g id="cog-dash-right">
</g>
<g id="cog-fall">
</g>
<g id="io">
</g>
<g id="browser">
</g>
<g id="browser-add">
</g>
<g id="rss">
</g>
<g id="no-access">
</g>
<g id="notification">
</g>
<g id="devices">
</g>
<g id="notification-alert">
</g>
</svg>
