<?xml version="1.0" encoding="utf-8"?>
<!-- Generator: Adobe Illustrator 20.1.0, SVG Export Plug-In . SVG Version: 6.00 Build 0)  -->
<!DOCTYPE svg PUBLIC "-//W3C//DTD SVG 1.1//EN" "http://www.w3.org/Graphics/SVG/1.1/DTD/svg11.dtd">
<svg version="1.1" xmlns="http://www.w3.org/2000/svg" xmlns:xlink="http://www.w3.org/1999/xlink" x="0px" y="0px"
	 viewBox="0 0 64 64" style="enable-background:new 0 0 64 64;" xml:space="preserve">
<g id="home">
</g>
<g id="shop">
</g>
<g id="buildings">
</g>
<g id="solar-panel">
	<path d="M62.9,28.3l-9.9-17c-0.9-2-3-3.4-5.1-3.4H16.1C14,8,12,9.4,11,11.5L1.1,28.4c-1.4,2.4-1.4,5.3,0,7.7
		C2.4,38.5,4.9,40,7.7,40H27v4h-2c-0.8,0-1.5,0.7-1.5,1.5S24.2,47,25,47h2v6H6c-0.8,0-1.5,0.7-1.5,1.5S5.2,56,6,56h52
		c0.8,0,1.5-0.7,1.5-1.5S58.8,53,58,53H37v-6h2c0.8,0,1.5-0.7,1.5-1.5S39.8,44,39,44h-2v-4h19.3c2.8,0,5.3-1.5,6.7-3.9
		C64.4,33.6,64.4,30.7,62.9,28.3z M33.5,37v-7h11.9l2,7H33.5z M16.5,37l2-7h11.9v7H16.5z M7.1,24h10.1l-0.9,3h-11L7.1,24z M10.6,18
		H19l-0.9,3H8.9L10.6,18z M30.5,11v4H23l1.2-4H30.5z M39.9,11l1.2,4h-7.5v-4H39.9z M55.2,21h-9.2L45,18h8.4L55.2,21z M42.8,21h-9.3
		v-3h8.4L42.8,21z M30.5,18v3h-9.3l0.9-3H30.5z M20.3,24h10.2v3h-11L20.3,24z M33.5,27v-3h10.2l0.9,3H33.5z M46.8,24h10.1l1.8,3h-11
		L46.8,24z M50.3,12.7c0,0.1,0.1,0.1,0.1,0.2l1.3,2.2h-7.5L43,11h4.9C48.9,11,49.9,11.7,50.3,12.7z M13.6,12.9
		c0-0.1,0.1-0.1,0.1-0.2c0.4-1,1.4-1.7,2.4-1.7H21l-1.2,4h-7.4L13.6,12.9z M3.6,34.6c-0.8-1.5-0.8-3.2,0-4.6h11.9l-2,7H7.7
		C6,37,4.5,36.1,3.6,34.6z M34,53h-4V40h4V53z M60.4,34.6c-0.9,1.5-2.4,2.4-4,2.4h-5.7l-2-7h11.9C61.2,31.4,61.2,33.1,60.4,34.6z"/>
</g>
<g id="towers">
</g>
<g id="stadium">
</g>
<g id="station">
</g>
<g id="shop-alt">
</g>
<g id="home-alt">
</g>
<g id="factory">
</g>
<g id="rig">
</g>
<g id="shipping-container">
</g>
<g id="official-building">
</g>
</svg>
