<?xml version="1.0" encoding="utf-8"?>
<!-- Generator: Adobe Illustrator 20.1.0, SVG Export Plug-In . SVG Version: 6.00 Build 0)  -->
<!DOCTYPE svg PUBLIC "-//W3C//DTD SVG 1.1//EN" "http://www.w3.org/Graphics/SVG/1.1/DTD/svg11.dtd">
<svg version="1.1" xmlns="http://www.w3.org/2000/svg" xmlns:xlink="http://www.w3.org/1999/xlink" x="0px" y="0px"
	 viewBox="0 0 64 64" style="enable-background:new 0 0 64 64;" xml:space="preserve">
<g id="credit-card">
</g>
<g id="tag">
</g>
<g id="trolley">
</g>
<g id="trolley-out">
</g>
<g id="trolley-in">
</g>
<g id="wallet">
</g>
<g id="shopping-bag">
	<path d="M58.3,8.5h-13C42,3.3,36.8,0,32,0S22,3.3,18.7,8.5h-13c-0.8,0-1.5,0.7-1.5,1.5v52.5c0,0.8,0.7,1.5,1.5,1.5h52.5
		c0.8,0,1.5-0.7,1.5-1.5V10C59.8,9.2,59.1,8.5,58.3,8.5z M32,3c3.6,0,7,2.3,9.5,5.5h-19C25,5.3,28.4,3,32,3z M56.8,61H7.2V11.5h10
		c-0.5,1.2-0.9,2.5-1.2,3.8c-1.9,0.5-3.3,2.2-3.3,4.2c0,2.4,2,4.4,4.4,4.4c2.4,0,4.4-2,4.4-4.4c0-1.7-1-3.1-2.4-3.8
		c0.4-1.4,0.9-2.8,1.6-4.2h22.7c0.7,1.3,1.2,2.8,1.6,4.2c-1.4,0.7-2.4,2.2-2.4,3.8c0,2.4,2,4.4,4.4,4.4c2.4,0,4.4-2,4.4-4.4
		c0-2-1.4-3.7-3.3-4.2c-0.3-1.3-0.7-2.6-1.2-3.8h10V61z"/>
</g>
<g id="basket">
</g>
<g id="dollar-circle">
</g>
<g id="pound-circle">
</g>
<g id="euro-circle">
</g>
<g id="yen-circle">
</g>
<g id="purse">
</g>
<g id="banknote">
</g>
</svg>
