<?xml version="1.0" encoding="utf-8"?>
<!-- Generator: Adobe Illustrator 20.1.0, SVG Export Plug-In . SVG Version: 6.00 Build 0)  -->
<!DOCTYPE svg PUBLIC "-//W3C//DTD SVG 1.1//EN" "http://www.w3.org/Graphics/SVG/1.1/DTD/svg11.dtd">
<svg version="1.1" xmlns="http://www.w3.org/2000/svg" xmlns:xlink="http://www.w3.org/1999/xlink" x="0px" y="0px"
	 viewBox="0 0 64 64" style="enable-background:new 0 0 64 64;" xml:space="preserve">
<g id="dial">
</g>
<g id="dial-alt">
</g>
<g id="connections">
</g>
<g id="atom">
</g>
<g id="atom-alt">
</g>
<g id="cosmic">
</g>
<g id="cosmic-alt">
</g>
<g id="workflows">
</g>
<g id="positive">
</g>
<g id="neuron">
</g>
<g id="sitemap">
	<path d="M62.5,44H58v-7.9c0-5.2-4.2-9.1-9.7-9.1H33.5v-7h5c0.8,0,1.5-0.7,1.5-1.5v-12C40,5.7,39.3,5,38.5,5h-13
		C24.7,5,24,5.7,24,6.5v12c0,0.8,0.7,1.5,1.5,1.5h5v7H15.7c-2.7,0-5.2,1-7,2.8c-1.7,1.7-2.7,4.1-2.7,6.5V44H1.5
		C0.7,44,0,44.7,0,45.5v12C0,58.3,0.7,59,1.5,59h12c0.8,0,1.5-0.7,1.5-1.5v-12c0-0.8-0.7-1.5-1.5-1.5H9.1v-7.6
		c0-1.7,0.6-3.2,1.8-4.4c1.2-1.3,3-1.9,4.8-1.9h14.8v14h-5c-0.8,0-1.5,0.7-1.5,1.5v12c0,0.8,0.7,1.5,1.5,1.5h13
		c0.8,0,1.5-0.7,1.5-1.5v-12c0-0.8-0.7-1.5-1.5-1.5h-5V30h14.8c3.8,0,6.7,2.6,6.7,6.1V44h-4.5c-0.8,0-1.5,0.7-1.5,1.5v12
		c0,0.8,0.7,1.5,1.5,1.5h12c0.8,0,1.5-0.7,1.5-1.5v-12C64,44.7,63.3,44,62.5,44z M27,8h10v9H27V8z M12,56H3v-9h9V56z M37,56H27v-9
		h10V56z M61,56h-9v-9h9V56z"/>
</g>
<g id="conditional">
</g>
<g id="sitemap-alt">
</g>
<g id="neuron-alt">
</g>
<g id="flask">
</g>
<g id="clone">
</g>
<g id="infinity">
</g>
<g id="f42">
</g>
</svg>
