<?xml version="1.0" encoding="utf-8"?>
<!-- Generator: Adobe Illustrator 20.1.0, SVG Export Plug-In . SVG Version: 6.00 Build 0)  -->
<!DOCTYPE svg PUBLIC "-//W3C//DTD SVG 1.1//EN" "http://www.w3.org/Graphics/SVG/1.1/DTD/svg11.dtd">
<svg version="1.1" xmlns="http://www.w3.org/2000/svg" xmlns:xlink="http://www.w3.org/1999/xlink" x="0px" y="0px"
	 viewBox="0 0 64 64" style="enable-background:new 0 0 64 64;" xml:space="preserve">
<g id="arrow-left-curved">
</g>
<g id="arrow-right-curved">
</g>
<g id="expand">
</g>
<g id="shrink">
	<g>
		<path d="M63.6,0.7c-0.6-0.6-1.5-0.6-2.1,0l-22.3,22V10.6c0-0.8-0.7-1.5-1.5-1.5s-1.5,0.7-1.5,1.5v15.6c0,0.2,0,0.4,0.1,0.5
			c0,0,0,0,0,0c0.1,0.2,0.2,0.3,0.3,0.5c0,0,0,0,0,0c0,0,0,0,0,0c0.1,0.1,0.3,0.3,0.5,0.3c0,0,0,0,0,0c0.2,0.1,0.4,0.1,0.6,0.1h15.7
			c0.8,0,1.5-0.7,1.5-1.5s-0.7-1.5-1.5-1.5H41.3l22.3-22C64.1,2.2,64.1,1.2,63.6,0.7z"/>
		<path d="M27.8,37.2c-0.1-0.2-0.2-0.3-0.3-0.5c0,0,0,0,0,0c0,0,0,0,0,0c-0.1-0.1-0.3-0.3-0.5-0.3c0,0,0,0,0,0
			c-0.2-0.1-0.3-0.1-0.5-0.1c0,0,0,0,0,0c0,0,0,0,0,0H10.6c-0.8,0-1.5,0.7-1.5,1.5s0.7,1.5,1.5,1.5h12.1l-22.3,22
			c-0.6,0.6-0.6,1.5,0,2.1c0.3,0.3,0.7,0.4,1.1,0.4c0.4,0,0.8-0.1,1.1-0.4l22.3-22v12.1c0,0.8,0.7,1.5,1.5,1.5s1.5-0.7,1.5-1.5V37.8
			C27.9,37.6,27.8,37.4,27.8,37.2C27.8,37.2,27.8,37.2,27.8,37.2z"/>
	</g>
</g>
<g id="expand-all">
</g>
<g id="arrows">
</g>
<g id="arrow-up">
</g>
<g id="arrow-down">
</g>
<g id="arrow-left">
</g>
<g id="arrow-right">
</g>
<g id="chevron-up">
</g>
<g id="chevron-down">
</g>
<g id="chevron-left">
</g>
<g id="chevron-right">
</g>
<g id="chevron-up-double">
</g>
<g id="chevron-down-double">
</g>
<g id="chevron-left-double">
</g>
<g id="chevron-right-double">
</g>
<g id="triangle-up">
</g>
<g id="triangle-down">
</g>
<g id="triangle-right">
</g>
<g id="triangle-right_1_">
</g>
<g id="arrow-up-circle">
</g>
<g id="arrow-down-circle">
</g>
<g id="arrow-left-circle">
</g>
<g id="arrow-right-circle">
</g>
<g id="chevron-up-circle">
</g>
<g id="chevron-down-circle">
</g>
<g id="chevron-left-circle">
</g>
<g id="chevron-right-circle">
</g>
<g id="chevron-up-double-circle">
</g>
<g id="chevron-down-double-circle">
</g>
<g id="chevron-left-double-circle">
</g>
<g id="chevron-right-double-circle">
</g>
<g id="arrow-up-box">
</g>
<g id="arrow-down-box">
</g>
<g id="arrow-left-box">
</g>
<g id="arrow-right-box">
</g>
<g id="chevron-up-box">
</g>
<g id="chevron-down-box">
</g>
<g id="chevron-left-box">
</g>
<g id="chevron-right-box">
</g>
<g id="chevron-up-double-box">
</g>
<g id="chevron-down-double-box">
</g>
<g id="chevron-left-double-box">
</g>
<g id="chevron-right-double-box">
</g>
<g id="grid">
</g>
<g id="grid-dots">
</g>
<g id="more-circle">
</g>
<g id="more-vertical-circle">
</g>
<g id="dashbord">
</g>
<g id="dashboard-alt">
</g>
<g id="hamburger">
</g>
<g id="more">
</g>
<g id="more-vertical">
</g>
<g id="login">
</g>
<g id="logout">
</g>
<g id="search">
</g>
<g id="arrow-up-dashed-circle">
</g>
<g id="arrow-down-dashed-circle">
</g>
<g id="arrow-left-dashed-circle">
</g>
<g id="arrow-right-dashed-circle">
</g>
<g id="chevron-up-dashed-circle">
</g>
<g id="chevron-down-dashed-circle">
</g>
<g id="chevron-left-dashed-circle">
</g>
<g id="chevron-right-dashed-circle">
</g>
<g id="chevron-up-double-dashed-circle">
</g>
<g id="chevron-down-double-dashed-circle">
</g>
<g id="chevron-left-double-dashed-circle">
</g>
<g id="chevron-right-double-dashed-circle">
</g>
</svg>
