<?xml version="1.0" encoding="utf-8"?>
<!-- Generator: Adobe Illustrator 20.1.0, SVG Export Plug-In . SVG Version: 6.00 Build 0)  -->
<!DOCTYPE svg PUBLIC "-//W3C//DTD SVG 1.1//EN" "http://www.w3.org/Graphics/SVG/1.1/DTD/svg11.dtd">
<svg version="1.1" xmlns="http://www.w3.org/2000/svg" xmlns:xlink="http://www.w3.org/1999/xlink" x="0px" y="0px"
	 viewBox="0 0 64 64" style="enable-background:new 0 0 64 64;" xml:space="preserve">
<g id="desktop">
</g>
<g id="tablet">
</g>
<g id="tablet-landscape">
</g>
<g id="desktop-alt">
</g>
<g id="smartphone">
</g>
<g id="smartphone-landscape">
</g>
<g id="laptop">
</g>
<g id="laptops">
</g>
<g id="desktops">
</g>
<g id="printer">
</g>
<g id="smartphones">
	<g>
		<path d="M46.3,5.4H23.4C20,5.4,17,8.4,17,12v45.5c0,3.5,3,6.5,6.4,6.5h22.9c3.3,0,6-2.9,6-6.5V12C52.3,8.4,49.6,5.4,46.3,5.4z
			 M49.3,57.5c0,1.7-1.2,3.5-3,3.5H23.4c-1.7,0-3.4-1.7-3.4-3.5V12c0-1.9,1.6-3.6,3.4-3.6h22.9c1.8,0,3,1.9,3,3.6V57.5z"/>
		<ellipse cx="34.9" cy="55.8" rx="2.6" ry="2.6"/>
		<path d="M40.6,3c0.8,0,1.5-0.7,1.5-1.5S41.4,0,40.6,0H17.7c-3.3,0-6,2.9-6,6.5v45.8c0,0.8,0.7,1.5,1.5,1.5s1.5-0.7,1.5-1.5V6.5
			c0-1.7,1.2-3.5,3-3.5H40.6z"/>
	</g>
</g>
<g id="smartphone-mail">
</g>
<g id="smartphone-search">
</g>
<g id="desktop-chart">
</g>
<g id="pc">
</g>
<g id="remote-control-alt">
</g>
<g id="remote-control">
</g>
<g id="smartphone-signal">
</g>
<g id="battery-charge">
</g>
<g id="battery-charge-half">
</g>
<g id="battery-charge-full">
</g>
<g id="battery-charging">
</g>
<g id="filter">
</g>
<g id="network-web">
</g>
<g id="chip">
</g>
<g id="preferences-box">
</g>
<g id="preferences-vertical-box">
</g>
<g id="preferences-vertical-box-alt">
</g>
<g id="preferences-box-alt">
</g>
<g id="preferences">
</g>
<g id="preferences-vertical">
</g>
<g id="preferences-vertical-alt">
</g>
<g id="preferences-alt">
</g>
<g id="bluetooth">
</g>
<g id="signal-strength">
</g>
<g id="signal-no">
</g>
<g id="signal-tower-no">
</g>
<g id="signal-tower">
</g>
<g id="signal-no-alt">
</g>
<g id="nut">
</g>
<g id="cogs">
</g>
<g id="cog">
</g>
<g id="cog-dash-left">
</g>
<g id="cog-dash-right">
</g>
<g id="cog-fall">
</g>
<g id="io">
</g>
<g id="browser">
</g>
<g id="browser-add">
</g>
<g id="rss">
</g>
<g id="no-access">
</g>
<g id="notification">
</g>
<g id="devices">
</g>
<g id="notification-alert">
</g>
</svg>
