<?xml version="1.0" encoding="utf-8"?>
<!-- Generator: Adobe Illustrator 20.1.0, SVG Export Plug-In . SVG Version: 6.00 Build 0)  -->
<!DOCTYPE svg PUBLIC "-//W3C//DTD SVG 1.1//EN" "http://www.w3.org/Graphics/SVG/1.1/DTD/svg11.dtd">
<svg version="1.1" xmlns="http://www.w3.org/2000/svg" xmlns:xlink="http://www.w3.org/1999/xlink" x="0px" y="0px"
	 viewBox="0 0 64 64" style="enable-background:new 0 0 64 64;" xml:space="preserve">
<g id="suitcase">
</g>
<g id="backpack">
</g>
<g id="chef-hat">
</g>
<g id="work-jacket">
</g>
<g id="tshirt">
</g>
<g id="handbag">
</g>
<g id="coat-hanger">
</g>
<g id="measuring-tape">
</g>
<g id="pants">
</g>
<g id="t-shirt-ale">
</g>
<g id="watch">
</g>
<g id="glasses">
</g>
<g id="graduation-hat">
</g>
<g id="scuba-gear">
	<g>
		<path d="M2.2,11.5C3,14,5.3,16,7.8,16H12c2.1,0,4.1-1.1,5.4-2.7c1.2,1.7,3,2.7,5.1,2.7h4.2c2.6,0,4.5-2.1,5.1-4.5
			c0.7-0.1,1.2-0.7,1.2-1.5V6c0-0.8-0.7-1.5-1.5-1.5c-0.1,0-0.2,0-0.3,0C29.9,1.9,27,0,23.6,0h-6.1H11C7.7,0,4.4,1.7,2.8,4.5
			c-0.1,0-0.2,0-0.3,0C1.7,4.5,1,5.2,1,6v4C1,10.7,1.5,11.3,2.2,11.5z M29,7.8v2.1c0,1.4-1,3.1-2.3,3.1h-4.2c-2.2,0-3.5-2.1-3.5-4.1
			V3h4.6C26.6,3,29,5.2,29,7.8z M5,7.8C5,5,8.1,3,11,3h5v5.9c0,2.1-1.9,4.1-4,4.1H7.8C6.5,13,5,11.4,5,9.9V7.8z"/>
		<path d="M57,23.9v-3.4c0-0.8-0.7-1.5-1.5-1.5h-1.1c-0.5-3.8-2.9-6-6.6-6h-3.2c-2.4,0-9.6,0-9.6,10.6v21C35,55.8,30.4,61,20.6,61
			C11.4,61,4,53.7,4,44.6V34.1c0-4.6,3.4-8.3,7.8-8.8c0.7,2.3,2.9,4,5.5,4c3.1,0,5.7-2.6,5.7-5.7c0-3.1-2.6-5.7-5.7-5.7
			c-2.7,0-4.9,1.9-5.5,4.4C5.6,22.9,1,27.9,1,34.1v10.5C1,55.3,9.8,64,20.6,64C32.1,64,38,57.5,38,44.6v-21c0-7,3.3-7.6,6.6-7.6h3.2
			c0.8,0,3,0,3.6,3h-0.9c-0.8,0-1.5,0.7-1.5,1.5v3.4c-3.3,1.3-6,4.1-6,8.1v26.3c0,3,2.8,5.7,5.8,5.7h8.4c3,0,5.8-2.7,5.8-5.7V32
			C63,28,60.3,25.1,57,23.9z M17.3,20.9c1.5,0,2.7,1.2,2.7,2.7c0,1.5-1.2,2.7-2.7,2.7s-2.7-1.2-2.7-2.7
			C14.6,22.1,15.8,20.9,17.3,20.9z M46,35h14v20H46V35z M52,22h0.4c0.2,0.1,0.4,0.1,0.6,0.1s0.4,0,0.6-0.1H54v1.2c-0.3,0-0.7,0-1,0
			s-0.7,0-1,0V22z M50.6,26.5c0.2,0,0.3-0.1,0.5-0.1c0.6-0.1,1.2-0.2,1.9-0.2s1.3,0.1,1.9,0.2c0.2,0.1,0.3,0.1,0.5,0.1
			c2.5,0.8,4.6,2.7,4.6,5.5H46C46,29.2,48.1,27.2,50.6,26.5z M57.2,61h-8.4c-1.4,0-2.8-1.4-2.8-2.7V58h14v0.3
			C60,59.7,58.6,61,57.2,61z"/>
	</g>
</g>
<g id="shoe">
</g>
<g id="crown">
</g>
<g id="wand">
</g>
<g id="crown-alt">
</g>
</svg>
