<?xml version="1.0" encoding="utf-8"?>
<!-- Generator: Adobe Illustrator 20.1.0, SVG Export Plug-In . SVG Version: 6.00 Build 0)  -->
<!DOCTYPE svg PUBLIC "-//W3C//DTD SVG 1.1//EN" "http://www.w3.org/Graphics/SVG/1.1/DTD/svg11.dtd">
<svg version="1.1" xmlns="http://www.w3.org/2000/svg" xmlns:xlink="http://www.w3.org/1999/xlink" x="0px" y="0px"
	 viewBox="0 0 64 64" style="enable-background:new 0 0 64 64;" xml:space="preserve">
<g id="text-height">
</g>
<g id="font">
</g>
<g id="text">
</g>
<g id="italic">
</g>
<g id="strikethrough">
</g>
<g id="paragraph">
</g>
<g id="bold">
</g>
<g id="quote-right">
</g>
<g id="hashtag">
</g>
<g id="anchor-handle">
</g>
<g id="box">
</g>
<g id="fullscreen">
</g>
<g id="fullscreen-alt">
</g>
<g id="golden-ratio">
</g>
<g id="hexgrid">
</g>
<g id="box-points">
</g>
<g id="box-points-move">
</g>
<g id="box-points-move-alt">
</g>
<g id="hex_1_">
</g>
<g id="hex-diamond">
</g>
<g id="artboards-vertical">
</g>
<g id="artboards">
</g>
<g id="artboards-alt-vertical">
</g>
<g id="artboards-alt">
</g>
<g id="scale">
	<path d="M63.4,2.7c0.6-0.6,0.7-1.5,0.1-2.1c-0.6-0.6-1.5-0.7-2.1-0.1L42.9,16.9H16v-4.5c0-0.8-0.7-1.5-1.5-1.5h-9
		c-0.8,0-1.5,0.7-1.5,1.5v4.5H1.5c-0.8,0-1.5,0.7-1.5,1.5v8c0,0.8,0.7,1.5,1.5,1.5H4v28.5c0,0.8,0.7,1.5,1.5,1.5H34v4.5
		c0,0.8,0.7,1.5,1.5,1.5h8c0.8,0,1.5-0.7,1.5-1.5v-4.5h4.5c0.8,0,1.5-0.7,1.5-1.5v-9c0-0.8-0.7-1.5-1.5-1.5H45V19L63.4,2.7z
		 M13,13.9v3H7v-3H13z M3,24.9v-5h2.5c0.1,0,0.2,0,0.2,0c0.1,0,0.2,0,0.2,0h8c0.1,0,0.2,0,0.2,0c0.1,0,0.2,0,0.2,0H42v26h-5V26.4
		c0-0.8-0.7-1.5-1.5-1.5h-21c-0.1,0-0.2,0-0.2,0c-0.1,0-0.2,0-0.2,0H6c-0.1,0-0.2,0-0.2,0c-0.1,0-0.2,0-0.2,0H3z M34,30v16H18.2
		L34,30z M16,43.8V27.9h15.8L16,43.8z M37,60.9v-3h5v3H37z M48,54.9h-4h-0.5h-8H35H7v-27h6v19.5c0,0,0,0,0,0c0,0,0,0,0,0
		c0,0.2,0,0.4,0.1,0.5c0,0,0,0,0,0c0.1,0.2,0.2,0.4,0.3,0.5c0,0,0,0,0,0c0,0,0,0,0,0c0.1,0.1,0.3,0.2,0.5,0.3c0,0,0,0,0,0
		c0.2,0.1,0.4,0.1,0.5,0.1H35h0.5h8H44h4V54.9z"/>
</g>
<g id="pencil">
</g>
<g id="fill">
</g>
<g id="artist-mug">
</g>
<g id="pen">
</g>
<g id="calligraphy-pen-tip">
</g>
<g id="calligraphy-pen_1_">
</g>
<g id="paint-pallette">
</g>
<g id="tools-cross">
</g>
<g id="edit-tools">
</g>
<g id="pencil-ruler">
</g>
<g id="ruler-measure">
</g>
<g id="measure">
</g>
<g id="code">
</g>
<g id="move">
</g>
<g id="external">
</g>
<g id="terminal">
</g>
<g id="thumbnails">
</g>
</svg>
