<?xml version="1.0" encoding="utf-8"?>
<!-- Generator: Adobe Illustrator 20.1.0, SVG Export Plug-In . SVG Version: 6.00 Build 0)  -->
<!DOCTYPE svg PUBLIC "-//W3C//DTD SVG 1.1//EN" "http://www.w3.org/Graphics/SVG/1.1/DTD/svg11.dtd">
<svg version="1.1" xmlns="http://www.w3.org/2000/svg" xmlns:xlink="http://www.w3.org/1999/xlink" x="0px" y="0px"
	 viewBox="0 0 64 64" style="enable-background:new 0 0 64 64;" xml:space="preserve">
<g id="file">
</g>
<g id="copy">
</g>
<g id="file-edit">
</g>
<g id="folder">
</g>
<g id="subdirectory">
</g>
<g id="album">
</g>
<g id="push">
</g>
<g id="pull">
</g>
<g id="database">
</g>
<g id="server">
</g>
<g id="upload">
</g>
<g id="download">
</g>
<g id="cloud-download">
</g>
<g id="cloud-upload">
</g>
<g id="cloud">
</g>
<g id="cloud-no-access">
</g>
<g id="cloud-signal-up">
</g>
<g id="cloud-signal-down">
</g>
<g id="checklist">
</g>
<g id="file-folded">
</g>
<g id="file-folded-text">
</g>
<g id="inbox">
</g>
<g id="zip-folder">
</g>
<g id="image-folder">
</g>
<g id="image-album">
</g>
<g id="image">
</g>
<g id="images">
</g>
<g id="invoice">
</g>
<g id="book">
</g>
<g id="layers">
</g>
<g id="media-upload">
</g>
<g id="addresses">
</g>
<g id="floppy">
</g>
<g id="link">
</g>
<g id="link-add">
</g>
<g id="link-remove">
</g>
<g id="table">
</g>
<g id="download-book">
</g>
<g id="clipboard">
</g>
<g id="clipboard-chart">
</g>
<g id="clipboard-text">
</g>
<g id="clipboard-check">
</g>
<g id="clipboard-cross">
</g>
<g id="bookmark">
</g>
<g id="bookmark-add">
</g>
<g id="bookmark-remove">
</g>
<g id="clipboard-horizontal">
</g>
<g id="clipboard-text-horizontal">
</g>
<g id="trash">
</g>
<g id="unlock">
</g>
<g id="lock">
</g>
<g id="link-add-circle">
</g>
<g id="link-remove-circle">
</g>
<g id="sort-up">
	<g>
		<path d="M8.1,10.8c-0.3-0.3-0.7-0.5-1.1-0.5s-0.8,0.2-1.1,0.5l-5.5,6.4c-0.5,0.6-0.5,1.6,0.2,2.1c0.3,0.2,0.6,0.4,1,0.4
			c0.4,0,0.8-0.2,1.1-0.5l2.9-3.3v23.8c0,0.8,0.7,1.5,1.5,1.5s1.5-0.7,1.5-1.5V15.8l2.9,3.3c0.5,0.6,1.5,0.7,2.1,0.2
			c0.6-0.5,0.7-1.5,0.2-2.1L8.1,10.8z"/>
		<path d="M62.5,36.9H20.3c-0.8,0-1.5,0.7-1.5,1.5s0.7,1.5,1.5,1.5h42.2c0.8,0,1.5-0.7,1.5-1.5S63.3,36.9,62.5,36.9z"/>
		<path d="M20.3,27.2h28.5c0.8,0,1.5-0.7,1.5-1.5s-0.7-1.5-1.5-1.5H20.3c-0.8,0-1.5,0.7-1.5,1.5S19.5,27.2,20.3,27.2z"/>
		<path d="M48.8,50.7H20.3c-0.8,0-1.5,0.7-1.5,1.5s0.7,1.5,1.5,1.5h28.5c0.8,0,1.5-0.7,1.5-1.5S49.6,50.7,48.8,50.7z"/>
		<path d="M20.3,13.4h36.5c0.8,0,1.5-0.7,1.5-1.5s-0.7-1.5-1.5-1.5H20.3c-0.8,0-1.5,0.7-1.5,1.5S19.5,13.4,20.3,13.4z"/>
	</g>
</g>
<g id="sort-down">
</g>
<g id="list">
</g>
</svg>
