<?xml version="1.0" encoding="utf-8"?>
<!-- Generator: Adobe Illustrator 20.1.0, SVG Export Plug-In . SVG Version: 6.00 Build 0)  -->
<!DOCTYPE svg PUBLIC "-//W3C//DTD SVG 1.1//EN" "http://www.w3.org/Graphics/SVG/1.1/DTD/svg11.dtd">
<svg version="1.1" xmlns="http://www.w3.org/2000/svg" xmlns:xlink="http://www.w3.org/1999/xlink" x="0px" y="0px"
	 viewBox="0 0 64 64" style="enable-background:new 0 0 64 64;" xml:space="preserve">
<g id="fairground">
</g>
<g id="tent">
</g>
<g id="tree">
</g>
<g id="trees">
</g>
<g id="tree-alt">
</g>
<g id="butterfly">
</g>
<g id="sunrise">
</g>
<g id="waterdrop">
</g>
<g id="map">
</g>
<g id="map-alt">
</g>
<g id="earth">
</g>
<g id="earth-no">
</g>
<g id="meteor">
</g>
<g id="sun">
</g>
<g id="sun-dim">
</g>
<g id="umbrella">
</g>
<g id="umbrella-alt">
</g>
<g id="gps">
</g>
<g id="fire">
</g>
<g id="target-sight">
</g>
<g id="gps-area">
</g>
<g id="gps-alt">
</g>
<g id="target">
</g>
<g id="star">
	<path d="M63.9,24.8c-0.2-0.5-0.6-0.9-1.2-1l-20.3-2.9L33.3,2.6c-0.3-0.5-0.8-0.8-1.3-0.8s-1.1,0.3-1.3,0.8l-9.1,18.2L1.3,23.8
		c-0.6,0.1-1,0.5-1.2,1c-0.2,0.5,0,1.1,0.4,1.5l14.7,14.2l-3.5,20c-0.1,0.6,0.1,1.1,0.6,1.5c0.5,0.3,1.1,0.4,1.6,0.1L32,52.6
		l18.1,9.5c0.2,0.1,0.5,0.2,0.7,0.2c0.3,0,0.6-0.1,0.9-0.3c0.5-0.3,0.7-0.9,0.6-1.5l-3.5-20l14.7-14.2C64,25.9,64.1,25.3,63.9,24.8z
		 M46.2,38.9c-0.4,0.3-0.5,0.8-0.4,1.3L48.8,58l-16.2-8.4c-0.2-0.1-0.5-0.2-0.7-0.2s-0.5,0.1-0.7,0.2L15.2,58l3.1-17.8
		c0.1-0.5-0.1-1-0.4-1.3L4.7,26.3l18-2.6c0.5-0.1,0.9-0.4,1.1-0.8L32,6.6l8.1,16.2c0.2,0.4,0.6,0.7,1.1,0.8l18,2.6L46.2,38.9z"/>
</g>
<g id="lightning">
</g>
</svg>
