<?xml version="1.0" encoding="utf-8"?>
<!-- Generator: Adobe Illustrator 20.1.0, SVG Export Plug-In . SVG Version: 6.00 Build 0)  -->
<!DOCTYPE svg PUBLIC "-//W3C//DTD SVG 1.1//EN" "http://www.w3.org/Graphics/SVG/1.1/DTD/svg11.dtd">
<svg version="1.1" xmlns="http://www.w3.org/2000/svg" xmlns:xlink="http://www.w3.org/1999/xlink" x="0px" y="0px"
	 viewBox="0 0 64 64" style="enable-background:new 0 0 64 64;" xml:space="preserve">
<g id="bulb">
</g>
<g id="bulb-on">
</g>
<g id="bulb-alt">
</g>
<g id="bulb-on-alt">
</g>
<g id="energy-bulb">
</g>
<g id="toasting">
</g>
<g id="toasted">
</g>
<g id="binoculars">
</g>
<g id="gift">
</g>
<g id="shaver">
</g>
<g id="candle">
</g>
<g id="shower">
</g>
<g id="bomb">
</g>
<g id="joystick">
</g>
<g id="megaphone">
</g>
<g id="chestdraw">
</g>
<g id="armchair">
</g>
<g id="cardboard-box">
</g>
<g id="bath-shower">
</g>
<g id="diamond">
</g>
<g id="cassette">
</g>
<g id="iron">
</g>
<g id="wash">
</g>
<g id="keyboard-keys">
</g>
<g id="earphones">
</g>
<g id="lifebuoy">
</g>
<g id="calculator">
</g>
<g id="safe">
</g>
<g id="balloon">
</g>
<g id="cake">
</g>
<g id="baseball">
</g>
<g id="football-american">
</g>
<g id="football">
</g>
<g id="anchor">
</g>
<g id="compact-disc">
</g>
<g id="bbq">
</g>
<g id="coffee-machine">
</g>
<g id="teapot">
</g>
<g id="outdoor-stove">
</g>
<g id="pram">
</g>
<g id="paintbrush">
</g>
<g id="stamp">
	<path d="M57.5,41.9H44.1c-8.5-6.1-4.8-14.3-1.5-21.5c1.4-3,2.6-5.6,2.6-7.8C45.2,4.3,38.5,0,32,0S18.8,4.3,18.8,12.6
		c0,2.1,1.2,4.8,2.6,7.8c3.3,7.2,7,15.4-1.5,21.5H6.5c-4,0-6.4,3.7-6.4,7.3v9c0,0.8,0.7,1.5,1.5,1.5h0.6v2.7C2.3,63.3,3,64,3.8,64
		h56.4c0.8,0,1.5-0.7,1.5-1.5v-2.7h0.6c0.8,0,1.5-0.7,1.5-1.5v-9C63.8,45.6,61.4,41.9,57.5,41.9z M3.2,49.2c0-2.1,1.3-4.3,3.4-4.3
		h13.8c0.3,0,0.6-0.1,0.8-0.3c11.1-7.5,6.2-18.3,3-25.5c-1.2-2.6-2.3-5.1-2.3-6.5C21.8,6,27.1,3,32,3c2.7,0,5.2,0.9,7.1,2.4
		c2,1.7,3.1,4.2,3.1,7.2c0,1.5-1.1,3.9-2.3,6.5c-3.2,7.1-8.1,17.9,2.9,25.5c0.2,0.2,0.5,0.3,0.8,0.3h13.8c2.1,0,3.4,2.2,3.4,4.3v7.5
		H3.2V49.2z M58.7,61H5.3v-1.2h53.4V61z"/>
</g>
<g id="eyedrop">
</g>
<g id="musical-note">
</g>
<g id="magnet">
</g>
<g id="alarm-bell">
</g>
<g id="globe">
</g>
<g id="key">
</g>
<g id="ink">
</g>
<g id="paperclip">
</g>
<g id="paint-roller">
</g>
<g id="keyboard">
</g>
</svg>
