<?xml version="1.0" encoding="utf-8"?>
<!-- Generator: Adobe Illustrator 20.1.0, SVG Export Plug-In . SVG Version: 6.00 Build 0)  -->
<!DOCTYPE svg PUBLIC "-//W3C//DTD SVG 1.1//EN" "http://www.w3.org/Graphics/SVG/1.1/DTD/svg11.dtd">
<svg version="1.1" xmlns="http://www.w3.org/2000/svg" xmlns:xlink="http://www.w3.org/1999/xlink" x="0px" y="0px"
	 viewBox="0 0 64 64" style="enable-background:new 0 0 64 64;" xml:space="preserve">
<g id="refresh-double">
</g>
<g id="refresh">
</g>
<g id="spinner-notch">
	<path d="M46.6,11c-3.3-2.3-7.2-3.9-11.2-4.4c-0.8-0.1-1.6,0.5-1.7,1.3c-0.1,0.8,0.5,1.6,1.3,1.7c3.6,0.5,6.9,1.8,9.9,3.9
		c10.2,7.1,12.6,21.2,5.5,31.4c-3.5,4.9-8.6,8.2-14.5,9.2c-2.9,0.5-5.7,0.4-8.5-0.1c-0.3-0.1-0.5-0.1-0.8-0.2
		c-0.5-0.1-1-0.2-1.5-0.4c-0.2-0.1-0.3-0.1-0.5-0.2c-0.5-0.2-1-0.4-1.5-0.6c-0.1,0-0.2-0.1-0.3-0.1c-1.3-0.6-2.5-1.3-3.7-2.1
		c-3.2-2.2-5.6-5.1-7.2-8.4c0,0,0,0,0-0.1c-0.3-0.6-0.6-1.2-0.8-1.9c0,0,0-0.1-0.1-0.1c-1.5-4-1.9-8.4-1-12.6c0-0.1,0-0.1,0-0.2
		c0.1-0.6,0.3-1.2,0.5-1.8c0-0.1,0.1-0.3,0.1-0.4c0.2-0.5,0.4-1.1,0.6-1.6c0.1-0.2,0.1-0.4,0.2-0.5c0.2-0.5,0.5-1,0.7-1.5
		c0.1-0.2,0.2-0.4,0.4-0.7c0.3-0.5,0.5-0.9,0.8-1.3c0.2-0.2,0.3-0.5,0.5-0.7c0.2-0.3,0.5-0.7,0.8-1c0.2-0.2,0.4-0.5,0.6-0.7
		c0.3-0.3,0.5-0.6,0.8-0.9c0.2-0.2,0.5-0.4,0.7-0.7c0.3-0.3,0.6-0.5,0.9-0.8c0.2-0.2,0.4-0.4,0.7-0.5c0.4-0.3,0.7-0.5,1.1-0.8
		c0.2-0.1,0.3-0.2,0.5-0.3c0.5-0.3,0.9-0.6,1.4-0.8c0.1-0.1,0.2-0.1,0.4-0.2c0.5-0.3,1.1-0.5,1.6-0.8c0.1,0,0.2-0.1,0.3-0.1
		c0.6-0.2,1.2-0.4,1.7-0.6c0.1,0,0.2-0.1,0.3-0.1c0.6-0.2,1.2-0.3,1.8-0.5c0.2,0,0.5-0.1,0.7-0.1c0.8-0.1,1.4-0.9,1.2-1.7
		c-0.1-0.8-0.9-1.4-1.7-1.2c-0.2,0-0.4,0.1-0.5,0.1c0,0-0.1,0-0.1,0c-0.1,0-0.1,0-0.2,0c-0.7,0.1-1.4,0.3-2.1,0.5
		c-0.1,0-0.2,0.1-0.3,0.1c-0.7,0.2-1.3,0.4-2,0.7c-0.1,0-0.2,0.1-0.4,0.2c-0.6,0.3-1.2,0.5-1.8,0.8c-0.1,0.1-0.3,0.2-0.4,0.2
		c-0.5,0.3-1.1,0.6-1.6,0.9c-0.2,0.1-0.4,0.3-0.6,0.4c-0.4,0.3-0.8,0.6-1.2,0.9c-0.3,0.2-0.5,0.4-0.8,0.6c-0.3,0.3-0.7,0.6-1,0.9
		c-0.3,0.2-0.5,0.5-0.8,0.8c-0.3,0.3-0.6,0.6-0.9,1c-0.2,0.3-0.5,0.5-0.7,0.8c-0.3,0.4-0.6,0.7-0.9,1.1c-0.1,0.1-0.2,0.3-0.3,0.4
		c-1.7,2.4-2.9,4.9-3.6,7.6c0,0.1,0,0.2-0.1,0.2c-0.1,0.3-0.1,0.5-0.2,0.8c0,0.2-0.1,0.3-0.1,0.5c0,0.2-0.1,0.3-0.1,0.5
		c-0.1,0.3-0.1,0.5-0.2,0.8c0,0.1,0,0.1,0,0.2c-0.4,2.7-0.4,5.6,0.1,8.4C6.9,36.6,7,36.8,7,37c0,0.2,0.1,0.5,0.2,0.7
		c0.3,1.1,0.6,2.2,1,3.2c0,0.1,0.1,0.2,0.1,0.3c0.3,0.7,0.5,1.3,0.8,1.9c0,0.1,0.1,0.1,0.1,0.2c0.5,1.1,1.2,2.1,1.9,3.1c0,0,0,0,0,0
		c3,4.4,7.4,7.7,12.5,9.5c0.3,0.1,0.5,0.2,0.8,0.3c0.2,0.1,0.4,0.1,0.6,0.2c0.5,0.1,0.9,0.3,1.4,0.4c0.1,0,0.3,0,0.4,0.1
		c0.5,0.1,1.1,0.2,1.6,0.3c0,0,0.1,0,0.1,0c0.1,0,0.1,0,0.2,0c1.1,0.1,2.1,0.2,3.2,0.2c1.5,0,3-0.1,4.5-0.4
		c6.7-1.2,12.6-4.9,16.5-10.5C60.9,35,58.2,19.1,46.6,11z"/>
</g>
<g id="spinner-hex">
</g>
<g id="refresh-open">
</g>
</svg>
