<?xml version="1.0" encoding="utf-8"?>
<!-- Generator: Adobe Illustrator 20.1.0, SVG Export Plug-In . SVG Version: 6.00 Build 0)  -->
<!DOCTYPE svg PUBLIC "-//W3C//DTD SVG 1.1//EN" "http://www.w3.org/Graphics/SVG/1.1/DTD/svg11.dtd">
<svg version="1.1" xmlns="http://www.w3.org/2000/svg" xmlns:xlink="http://www.w3.org/1999/xlink" x="0px" y="0px"
	 viewBox="0 0 64 64" style="enable-background:new 0 0 64 64;" xml:space="preserve">
<g id="file">
</g>
<g id="copy">
</g>
<g id="file-edit">
</g>
<g id="folder">
</g>
<g id="subdirectory">
	<g>
		<path d="M14.9,48.2H3V9.3h19.6l2.8,5.6c0.3,0.5,0.8,0.8,1.3,0.8h27.8v6.6c0,0.8,0.7,1.5,1.5,1.5s1.5-0.7,1.5-1.5v-8.1
			c0-0.8-0.7-1.5-1.5-1.5H27.7l-2.8-5.6c-0.3-0.5-0.8-0.8-1.3-0.8H1.5C0.7,6.3,0,7,0,7.8v41.9c0,0.8,0.7,1.5,1.5,1.5h13.4
			c0.8,0,1.5-0.7,1.5-1.5S15.7,48.2,14.9,48.2z"/>
		<path d="M62.5,28.9H43.1l-1.9-3.5c-0.3-0.5-0.8-0.8-1.3-0.8H24c-0.8,0-1.5,0.7-1.5,1.5v30.1c0,0.8,0.7,1.5,1.5,1.5h38.5
			c0.8,0,1.5-0.7,1.5-1.5V30.4C64,29.6,63.3,28.9,62.5,28.9z M61,54.7H25.5V27.6H39l1.9,3.5c0.3,0.5,0.8,0.8,1.3,0.8H61V54.7z"/>
	</g>
</g>
<g id="album">
</g>
<g id="push">
</g>
<g id="pull">
</g>
<g id="database">
</g>
<g id="server">
</g>
<g id="upload">
</g>
<g id="download">
</g>
<g id="cloud-download">
</g>
<g id="cloud-upload">
</g>
<g id="cloud">
</g>
<g id="cloud-no-access">
</g>
<g id="cloud-signal-up">
</g>
<g id="cloud-signal-down">
</g>
<g id="checklist">
</g>
<g id="file-folded">
</g>
<g id="file-folded-text">
</g>
<g id="inbox">
</g>
<g id="zip-folder">
</g>
<g id="image-folder">
</g>
<g id="image-album">
</g>
<g id="image">
</g>
<g id="images">
</g>
<g id="invoice">
</g>
<g id="book">
</g>
<g id="layers">
</g>
<g id="media-upload">
</g>
<g id="addresses">
</g>
<g id="floppy">
</g>
<g id="link">
</g>
<g id="link-add">
</g>
<g id="link-remove">
</g>
<g id="table">
</g>
<g id="download-book">
</g>
<g id="clipboard">
</g>
<g id="clipboard-chart">
</g>
<g id="clipboard-text">
</g>
<g id="clipboard-check">
</g>
<g id="clipboard-cross">
</g>
<g id="bookmark">
</g>
<g id="bookmark-add">
</g>
<g id="bookmark-remove">
</g>
<g id="clipboard-horizontal">
</g>
<g id="clipboard-text-horizontal">
</g>
<g id="trash">
</g>
<g id="unlock">
</g>
<g id="lock">
</g>
<g id="link-add-circle">
</g>
<g id="link-remove-circle">
</g>
<g id="sort-up">
</g>
<g id="sort-down">
</g>
<g id="list">
</g>
</svg>
