<?xml version="1.0" encoding="utf-8"?>
<!-- Generator: Adobe Illustrator 20.1.0, SVG Export Plug-In . SVG Version: 6.00 Build 0)  -->
<!DOCTYPE svg PUBLIC "-//W3C//DTD SVG 1.1//EN" "http://www.w3.org/Graphics/SVG/1.1/DTD/svg11.dtd">
<svg version="1.1" xmlns="http://www.w3.org/2000/svg" xmlns:xlink="http://www.w3.org/1999/xlink" x="0px" y="0px"
	 viewBox="0 0 64 64" style="enable-background:new 0 0 64 64;" xml:space="preserve">
<g id="desktop">
</g>
<g id="tablet">
</g>
<g id="tablet-landscape">
</g>
<g id="desktop-alt">
</g>
<g id="smartphone">
</g>
<g id="smartphone-landscape">
</g>
<g id="laptop">
</g>
<g id="laptops">
</g>
<g id="desktops">
</g>
<g id="printer">
</g>
<g id="smartphones">
</g>
<g id="smartphone-mail">
	<g>
		<path d="M59.3,18.7c-0.3-0.3-0.7-0.5-1.2-0.5H29.4c-0.1,0-0.1,0-0.2,0c-0.1,0-0.2,0-0.3,0h-9.7c-0.8,0-1.5,0.7-1.5,1.5
			s0.7,1.5,1.5,1.5h8.3l-0.3,1.6c-0.1,0.2-0.2,0.5-0.1,0.8l-0.2,1.1h-9.8c-0.8,0-1.5,0.7-1.5,1.5s0.7,1.5,1.5,1.5h9.3L25.7,31
			c0,0,0,0,0,0H16c-0.8,0-1.5,0.7-1.5,1.5S15.2,34,16,34h9.1l-0.9,4.6c-0.1,0.4,0,0.9,0.3,1.2c0.3,0.3,0.7,0.5,1.2,0.5h28.8
			c0.7,0,1.3-0.5,1.5-1.2L59.6,20C59.7,19.5,59.6,19.1,59.3,18.7z M56.4,21.2l-0.2,1.1l-14.4,6.9l-11.4-6.6l0.3-1.5H56.4z
			 M53.3,37.5H27.6l2.2-11.7l11.2,6.5c0.2,0.1,0.5,0.2,0.8,0.2c0.2,0,0.4,0,0.7-0.1L55.5,26L53.3,37.5z"/>
		<path d="M42.4,44.4c-0.8,0-1.5,0.7-1.5,1.5V57c0,2-2.1,4-4.2,4H11.5c-2.1,0-4.2-2-4.2-4V7c0-2,2.1-4,4.2-4h25.1c2.1,0,4.2,2,4.2,4
			v5.7c0,0.8,0.7,1.5,1.5,1.5s1.5-0.7,1.5-1.5V7c0-3.6-3.5-7-7.2-7H11.5C7.8,0,4.3,3.3,4.3,7v50c0,3.7,3.4,7,7.2,7h25.1
			c3.7,0,7.2-3.4,7.2-7V45.9C43.9,45.1,43.2,44.4,42.4,44.4z"/>
		<ellipse cx="24.1" cy="55.2" rx="2.9" ry="2.9"/>
	</g>
</g>
<g id="smartphone-search">
</g>
<g id="desktop-chart">
</g>
<g id="pc">
</g>
<g id="remote-control-alt">
</g>
<g id="remote-control">
</g>
<g id="smartphone-signal">
</g>
<g id="battery-charge">
</g>
<g id="battery-charge-half">
</g>
<g id="battery-charge-full">
</g>
<g id="battery-charging">
</g>
<g id="filter">
</g>
<g id="network-web">
</g>
<g id="chip">
</g>
<g id="preferences-box">
</g>
<g id="preferences-vertical-box">
</g>
<g id="preferences-vertical-box-alt">
</g>
<g id="preferences-box-alt">
</g>
<g id="preferences">
</g>
<g id="preferences-vertical">
</g>
<g id="preferences-vertical-alt">
</g>
<g id="preferences-alt">
</g>
<g id="bluetooth">
</g>
<g id="signal-strength">
</g>
<g id="signal-no">
</g>
<g id="signal-tower-no">
</g>
<g id="signal-tower">
</g>
<g id="signal-no-alt">
</g>
<g id="nut">
</g>
<g id="cogs">
</g>
<g id="cog">
</g>
<g id="cog-dash-left">
</g>
<g id="cog-dash-right">
</g>
<g id="cog-fall">
</g>
<g id="io">
</g>
<g id="browser">
</g>
<g id="browser-add">
</g>
<g id="rss">
</g>
<g id="no-access">
</g>
<g id="notification">
</g>
<g id="devices">
</g>
<g id="notification-alert">
</g>
</svg>
