<?xml version="1.0" encoding="utf-8"?>
<!-- Generator: Adobe Illustrator 20.1.0, SVG Export Plug-In . SVG Version: 6.00 Build 0)  -->
<!DOCTYPE svg PUBLIC "-//W3C//DTD SVG 1.1//EN" "http://www.w3.org/Graphics/SVG/1.1/DTD/svg11.dtd">
<svg version="1.1" xmlns="http://www.w3.org/2000/svg" xmlns:xlink="http://www.w3.org/1999/xlink" x="0px" y="0px"
	 viewBox="0 0 64 64" style="enable-background:new 0 0 64 64;" xml:space="preserve">
<g id="desktop">
</g>
<g id="tablet">
</g>
<g id="tablet-landscape">
</g>
<g id="desktop-alt">
</g>
<g id="smartphone">
</g>
<g id="smartphone-landscape">
</g>
<g id="laptop">
</g>
<g id="laptops">
</g>
<g id="desktops">
</g>
<g id="printer">
</g>
<g id="smartphones">
</g>
<g id="smartphone-mail">
</g>
<g id="smartphone-search">
</g>
<g id="desktop-chart">
</g>
<g id="pc">
</g>
<g id="remote-control-alt">
</g>
<g id="remote-control">
</g>
<g id="smartphone-signal">
</g>
<g id="battery-charge">
</g>
<g id="battery-charge-half">
</g>
<g id="battery-charge-full">
</g>
<g id="battery-charging">
</g>
<g id="filter">
</g>
<g id="network-web">
</g>
<g id="chip">
</g>
<g id="preferences-box">
</g>
<g id="preferences-vertical-box">
</g>
<g id="preferences-vertical-box-alt">
</g>
<g id="preferences-box-alt">
</g>
<g id="preferences">
</g>
<g id="preferences-vertical">
</g>
<g id="preferences-vertical-alt">
</g>
<g id="preferences-alt">
</g>
<g id="bluetooth">
</g>
<g id="signal-strength">
</g>
<g id="signal-no">
</g>
<g id="signal-tower-no">
	<g>
		<path d="M34.6,16.9c-0.8-0.1-1.6,0.5-1.7,1.3c-0.1,0.8,0.5,1.6,1.3,1.7c1.8,0.2,3.5,1.2,4.3,2c0.3,0.3,0.7,0.4,1.1,0.4
			c0.4,0,0.8-0.1,1.1-0.4c0.6-0.6,0.6-1.5,0-2.1C39.2,18.3,36.9,17.2,34.6,16.9z"/>
		<path d="M43,16.9c0.6-0.6,0.6-1.5,0-2.1c-1.6-1.6-3.1-2.6-4.8-3.2c-0.8-0.3-1.6,0.1-1.9,0.9c-0.3,0.8,0.1,1.6,0.9,1.9
			c1.3,0.5,2.5,1.2,3.8,2.5c0.3,0.3,0.7,0.4,1.1,0.4C42.3,17.4,42.7,17.2,43,16.9z"/>
		<path d="M24.9,15.4c0.7-0.5,0.9-1.4,0.4-2.1c-0.5-0.7-1.4-0.9-2.1-0.4c-0.7,0.5-1.5,1.1-2.2,1.9c-0.6,0.6-0.6,1.5,0,2.1
			c0.3,0.3,0.7,0.4,1.1,0.4c0.4,0,0.8-0.1,1.1-0.4C23.7,16.3,24.3,15.8,24.9,15.4z"/>
		<path d="M40.3,8.9c1.5,0.7,2.9,1.7,4.3,3.1c0.3,0.3,0.7,0.4,1.1,0.4c0.4,0,0.8-0.1,1.1-0.4c0.6-0.6,0.6-1.5,0-2.1
			c-1.7-1.7-3.4-2.9-5.2-3.7c-0.8-0.3-1.6,0-2,0.7C39.2,7.7,39.5,8.5,40.3,8.9z"/>
		<path d="M18.3,12.4c0.4,0,0.8-0.1,1.1-0.4c2.8-2.8,5.5-4,9.6-4.4c0.8-0.1,1.4-0.8,1.4-1.6c-0.1-0.8-0.8-1.4-1.6-1.4
			C24,5,20.5,6.6,17.3,9.9c-0.6,0.6-0.6,1.5,0,2.1C17.5,12.3,17.9,12.4,18.3,12.4z"/>
		<path d="M47.5,61.5c-0.1-0.2-14-16.6-14-33c0-0.8-0.7-1.5-1.5-1.5s-1.5,0.7-1.5,1.5c0,16.4-13.7,32.8-13.9,33
			c-0.5,0.6-0.5,1.6,0.2,2.1c0.3,0.2,0.6,0.4,1,0.4c0.4,0,0.8-0.2,1.1-0.5c0.3-0.3,3.1-3.7,6.3-9h13.7c3.2,5.2,6.1,8.7,6.3,9
			c0.5,0.6,1.5,0.7,2.1,0.2C47.9,63.1,48,62.2,47.5,61.5z M26.8,51.5c2-3.7,3.9-8,5.1-12.5c1.3,4.6,3.2,8.9,5.2,12.5H26.8z"/>
		<path d="M22.6,27.2c0.2,0.1,0.5,0.2,0.8,0.2c0.5,0,1-0.3,1.3-0.7L39.3,2.3c0.4-0.7,0.2-1.6-0.5-2.1C38-0.2,37.1,0,36.7,0.7
			L22.1,25.2C21.7,25.9,21.9,26.8,22.6,27.2z"/>
	</g>
</g>
<g id="signal-tower">
</g>
<g id="signal-no-alt">
</g>
<g id="nut">
</g>
<g id="cogs">
</g>
<g id="cog">
</g>
<g id="cog-dash-left">
</g>
<g id="cog-dash-right">
</g>
<g id="cog-fall">
</g>
<g id="io">
</g>
<g id="browser">
</g>
<g id="browser-add">
</g>
<g id="rss">
</g>
<g id="no-access">
</g>
<g id="notification">
</g>
<g id="devices">
</g>
<g id="notification-alert">
</g>
</svg>
