<?xml version="1.0" encoding="utf-8"?>
<!-- Generator: Adobe Illustrator 20.1.0, SVG Export Plug-In . SVG Version: 6.00 Build 0)  -->
<!DOCTYPE svg PUBLIC "-//W3C//DTD SVG 1.1//EN" "http://www.w3.org/Graphics/SVG/1.1/DTD/svg11.dtd">
<svg version="1.1" xmlns="http://www.w3.org/2000/svg" xmlns:xlink="http://www.w3.org/1999/xlink" x="0px" y="0px"
	 viewBox="0 0 64 64" style="enable-background:new 0 0 64 64;" xml:space="preserve">
<g id="file">
</g>
<g id="copy">
</g>
<g id="file-edit">
</g>
<g id="folder">
</g>
<g id="subdirectory">
</g>
<g id="album">
</g>
<g id="push">
</g>
<g id="pull">
</g>
<g id="database">
</g>
<g id="server">
	<g>
		<rect x="7.4" y="6.7" width="3.5" height="8.1"/>
		<rect x="14.4" y="6.7" width="3.5" height="8.1"/>
		<rect x="21.5" y="6.7" width="3.5" height="8.1"/>
		<rect x="53.1" y="6.7" width="3.5" height="4.6"/>
		<path d="M61.9,0H2.1C1.3,0,0.6,0.7,0.6,1.5v18.6c0,0.8,0.7,1.5,1.5,1.5h59.7c0.8,0,1.5-0.7,1.5-1.5V1.5C63.4,0.7,62.7,0,61.9,0z
			 M60.4,18.6H3.6V3h56.7V18.6z"/>
		<rect x="53.1" y="32.3" width="3.5" height="3.5"/>
		<rect x="7.4" y="32.3" width="3.5" height="7"/>
		<rect x="14.4" y="32.3" width="3.5" height="7"/>
		<path d="M61.9,25.6H2.1c-0.8,0-1.5,0.7-1.5,1.5v17.4c0,0.8,0.7,1.5,1.5,1.5h28.4v5.4c-2.2,0.5-4,2.2-4.7,4.4H9.2
			c-0.8,0-1.5,0.7-1.5,1.5s0.7,1.5,1.5,1.5h16.5c0.5,3,3.2,5.2,6.3,5.2s5.8-2.3,6.3-5.2h16.5c0.8,0,1.5-0.7,1.5-1.5
			s-0.7-1.5-1.5-1.5H38.2c-0.7-2.2-2.4-3.8-4.7-4.4V46h28.4c0.8,0,1.5-0.7,1.5-1.5V27.1C63.4,26.2,62.7,25.6,61.9,25.6z M35.4,57.6
			c0,1.9-1.5,3.4-3.4,3.4s-3.4-1.5-3.4-3.4s1.5-3.4,3.4-3.4S35.4,55.7,35.4,57.6z M60.4,43H3.6V28.6h56.7V43z"/>
	</g>
</g>
<g id="upload">
</g>
<g id="download">
</g>
<g id="cloud-download">
</g>
<g id="cloud-upload">
</g>
<g id="cloud">
</g>
<g id="cloud-no-access">
</g>
<g id="cloud-signal-up">
</g>
<g id="cloud-signal-down">
</g>
<g id="checklist">
</g>
<g id="file-folded">
</g>
<g id="file-folded-text">
</g>
<g id="inbox">
</g>
<g id="zip-folder">
</g>
<g id="image-folder">
</g>
<g id="image-album">
</g>
<g id="image">
</g>
<g id="images">
</g>
<g id="invoice">
</g>
<g id="book">
</g>
<g id="layers">
</g>
<g id="media-upload">
</g>
<g id="addresses">
</g>
<g id="floppy">
</g>
<g id="link">
</g>
<g id="link-add">
</g>
<g id="link-remove">
</g>
<g id="table">
</g>
<g id="download-book">
</g>
<g id="clipboard">
</g>
<g id="clipboard-chart">
</g>
<g id="clipboard-text">
</g>
<g id="clipboard-check">
</g>
<g id="clipboard-cross">
</g>
<g id="bookmark">
</g>
<g id="bookmark-add">
</g>
<g id="bookmark-remove">
</g>
<g id="clipboard-horizontal">
</g>
<g id="clipboard-text-horizontal">
</g>
<g id="trash">
</g>
<g id="unlock">
</g>
<g id="lock">
</g>
<g id="link-add-circle">
</g>
<g id="link-remove-circle">
</g>
<g id="sort-up">
</g>
<g id="sort-down">
</g>
<g id="list">
</g>
</svg>
