<?xml version="1.0" encoding="utf-8"?>
<!-- Generator: Adobe Illustrator 20.1.0, SVG Export Plug-In . SVG Version: 6.00 Build 0)  -->
<!DOCTYPE svg PUBLIC "-//W3C//DTD SVG 1.1//EN" "http://www.w3.org/Graphics/SVG/1.1/DTD/svg11.dtd">
<svg version="1.1" xmlns="http://www.w3.org/2000/svg" xmlns:xlink="http://www.w3.org/1999/xlink" x="0px" y="0px"
	 viewBox="0 0 64.1 64" style="enable-background:new 0 0 64.1 64;" xml:space="preserve">
<g id="truck">
</g>
<g id="car">
</g>
<g id="taxi">
</g>
<g id="rocket">
</g>
<g id="tardis">
</g>
<g id="bus">
</g>
<g id="tram">
</g>
<g id="speedo">
	<g>
		<path d="M32,0C14.4,0,0,14.4,0,32s14.4,32,32,32s32-14.4,32-32S49.7,0,32,0z M32,61C16,61,3,48,3,32S16,3,32,3s29,13,29,29
			S48,61,32,61z"/>
		<path d="M48.4,15.7c-0.6-0.6-1.5-0.6-2.1,0L35,26.9c-0.9-0.5-1.9-0.8-2.9-0.8c-3.2,0-5.9,2.6-5.9,5.9s2.6,5.9,5.9,5.9
			s5.9-2.6,5.9-5.9c0-1.1-0.3-2.1-0.8-2.9l11.3-11.3C48.9,17.2,48.9,16.3,48.4,15.7z M32,34.9c-1.6,0-2.9-1.3-2.9-2.9
			s1.3-2.9,2.9-2.9s2.9,1.3,2.9,2.9S33.6,34.9,32,34.9z"/>
		<path d="M13.5,32.5c0-0.8-0.7-1.5-1.5-1.5H8c-0.8,0-1.5,0.7-1.5,1.5S7.2,34,8,34h4C12.9,34,13.5,33.3,13.5,32.5z"/>
		<path d="M14.5,23.1l-4-1.7c-0.8-0.3-1.6,0-2,0.8c-0.3,0.8,0,1.6,0.8,2l4,1.7c0.2,0.1,0.4,0.1,0.6,0.1c0.6,0,1.1-0.3,1.4-0.9
			C15.6,24.3,15.2,23.4,14.5,23.1z"/>
		<path d="M16.1,14c-0.6-0.6-1.5-0.6-2.1,0c-0.6,0.6-0.6,1.5,0,2.1l3.1,3.1c0.3,0.3,0.7,0.4,1.1,0.4s0.8-0.1,1.1-0.4
			c0.6-0.6,0.6-1.5,0-2.1L16.1,14z"/>
		<path d="M23.1,14.5c0.2,0.6,0.8,0.9,1.4,0.9c0.2,0,0.4,0,0.6-0.1c0.8-0.3,1.1-1.2,0.8-2l-1.7-4c-0.3-0.8-1.2-1.1-2-0.8
			c-0.8,0.3-1.1,1.2-0.8,2L23.1,14.5z"/>
		<path d="M32,13.9L32,13.9c0.8,0,1.5-0.7,1.5-1.5l0-4.4c0-0.8-0.7-1.5-1.5-1.5h0c-0.8,0-1.5,0.7-1.5,1.5l0,4.4
			C30.5,13.2,31.2,13.9,32,13.9z"/>
		<path d="M39,15.3c0.2,0.1,0.4,0.1,0.6,0.1c0.6,0,1.1-0.3,1.4-0.9l1.7-4c0.3-0.8,0-1.6-0.8-2c-0.8-0.3-1.6,0-2,0.8l-1.7,4
			C37.8,14.1,38.2,15,39,15.3z"/>
		<path d="M48.8,25.1c0.2,0.6,0.8,0.9,1.4,0.9c0.2,0,0.4,0,0.6-0.1l4-1.7c0.8-0.3,1.1-1.2,0.8-2c-0.3-0.8-1.2-1.1-2-0.8l-4,1.7
			C48.8,23.4,48.5,24.3,48.8,25.1z"/>
		<path d="M56,30.5l-4.4,0c0,0,0,0,0,0c-0.8,0-1.5,0.7-1.5,1.5c0,0.8,0.7,1.5,1.5,1.5l4.4,0c0,0,0,0,0,0c0.8,0,1.5-0.7,1.5-1.5
			C57.5,31.2,56.8,30.5,56,30.5z"/>
		<path d="M54.8,39.8l-4-1.7c-0.8-0.3-1.6,0-2,0.8s0,1.6,0.8,2l4,1.7c0.2,0.1,0.4,0.1,0.6,0.1c0.6,0,1.1-0.3,1.4-0.9
			C55.9,41,55.5,40.1,54.8,39.8z"/>
		<path d="M13.3,38.1l-4,1.7c-0.8,0.3-1.1,1.2-0.8,2c0.2,0.6,0.8,0.9,1.4,0.9c0.2,0,0.4,0,0.6-0.1l4-1.7c0.8-0.3,1.1-1.2,0.8-2
			C15,38.2,14.1,37.8,13.3,38.1z"/>
		<path d="M42.5,44h-21c-0.8,0-1.5,0.7-1.5,1.5v6c0,0.8,0.7,1.5,1.5,1.5h21c0.8,0,1.5-0.7,1.5-1.5v-6C44,44.7,43.4,44,42.5,44z
			 M41,50H23v-3h18V50z"/>
	</g>
</g>
<g id="air-machine">
</g>
<g id="speedo-alt">
</g>
<g id="motorcycle">
</g>
<g id="car-battery">
</g>
<g id="ufo">
</g>
<g id="arrivals">
</g>
<g id="petrol-pump">
</g>
<g id="gear-shift">
</g>
<g id="car-battery-alt">
</g>
<g id="road">
</g>
<g id="siren">
</g>
<g id="plane">
</g>
<g id="lorry">
</g>
<g id="train">
</g>
<g id="forklift">
</g>
<g id="bicycle">
</g>
<g id="underground">
</g>
<g id="paper-plane">
</g>
<g id="hotair-balloon">
</g>
</svg>
