<?xml version="1.0" encoding="utf-8"?>
<!-- Generator: Adobe Illustrator 20.1.0, SVG Export Plug-In . SVG Version: 6.00 Build 0)  -->
<!DOCTYPE svg PUBLIC "-//W3C//DTD SVG 1.1//EN" "http://www.w3.org/Graphics/SVG/1.1/DTD/svg11.dtd">
<svg version="1.1" xmlns="http://www.w3.org/2000/svg" xmlns:xlink="http://www.w3.org/1999/xlink" x="0px" y="0px"
	 viewBox="0 0 64 64" style="enable-background:new 0 0 64 64;" xml:space="preserve">
<g id="home">
</g>
<g id="shop">
</g>
<g id="buildings">
</g>
<g id="solar-panel">
</g>
<g id="towers">
</g>
<g id="stadium">
</g>
<g id="station">
	<g>
		<path d="M64,32C64,14.4,49.7,0.1,32,0.1S0.1,14.4,0.1,32c0,0,0,0,0,0.1C0,32.2,0,32.3,0,32.5c0,0.2,0,0.3,0.1,0.5v29.5
			c0,0.8,0.7,1.5,1.5,1.5H21h8h7h8h18.5c0.8,0,1.5-0.7,1.5-1.5V32.1C64,32.1,64,32,64,32z M38.6,31c-0.1-0.7-0.2-1.3-0.5-1.9
			l15.9-15.9c4.1,4.8,6.7,11,6.9,17.7H38.6z M36.4,26.6c-0.8-0.7-1.8-1.2-2.9-1.5V3.1c7.1,0.4,13.6,3.3,18.5,8L36.4,26.6z
			 M30.5,25.2c-0.8,0.2-1.6,0.5-2.3,1L12.6,10.6c4.8-4.3,11.1-7.1,18-7.5V25.2z M32,28c2,0,3.6,1.6,3.6,3.6S34,35.3,32,35.3
			s-3.6-1.6-3.6-3.6S30,28,32,28z M10.5,12.7l15.8,15.7c-0.4,0.8-0.7,1.6-0.8,2.5H3.1C3.3,24,6.1,17.6,10.5,12.7z M22.5,60.9v-9.9
			c0-1.4,1.2-2.1,2.4-2.1h0c1.2,0,2.6,0.8,2.6,2.1v9.9H22.5z M37.5,60.9v-9.9c0-1.3,1.3-2.1,2.5-2.1h0.2c1.4,0,2.3,0.8,2.3,2.1v9.9
			H37.5z M45.5,60.9v-9.9c0-2.9-2.3-5.1-5.3-5.1h-0.2c-3.1,0-5.5,2.2-5.5,5.1v9.9h-4v-9.9c0-2.9-2.4-5.1-5.6-5.1h0
			c-3,0-5.4,2.2-5.4,5.1v9.9H3.1V34h22.7c0.9,2.5,3.4,4.3,6.2,4.3s5.3-1.8,6.2-4.3H61v27H45.5z"/>
		<path d="M12.7,37h-5c-0.8,0-1.5,0.7-1.5,1.5S6.9,40,7.7,40h5c0.8,0,1.5-0.7,1.5-1.5S13.6,37,12.7,37z"/>
		<path d="M56.5,37h-5c-0.8,0-1.5,0.7-1.5,1.5s0.7,1.5,1.5,1.5h5c0.8,0,1.5-0.7,1.5-1.5S57.3,37,56.5,37z"/>
		<path d="M12.7,43h-5c-0.8,0-1.5,0.7-1.5,1.5S6.9,46,7.7,46h5c0.8,0,1.5-0.7,1.5-1.5S13.6,43,12.7,43z"/>
		<path d="M56.5,43h-5c-0.8,0-1.5,0.7-1.5,1.5s0.7,1.5,1.5,1.5h5c0.8,0,1.5-0.7,1.5-1.5S57.3,43,56.5,43z"/>
	</g>
</g>
<g id="shop-alt">
</g>
<g id="home-alt">
</g>
<g id="factory">
</g>
<g id="rig">
</g>
<g id="shipping-container">
</g>
<g id="official-building">
</g>
</svg>
