<?xml version="1.0" encoding="utf-8"?>
<!-- Generator: Adobe Illustrator 20.1.0, SVG Export Plug-In . SVG Version: 6.00 Build 0)  -->
<!DOCTYPE svg PUBLIC "-//W3C//DTD SVG 1.1//EN" "http://www.w3.org/Graphics/SVG/1.1/DTD/svg11.dtd">
<svg version="1.1" xmlns="http://www.w3.org/2000/svg" xmlns:xlink="http://www.w3.org/1999/xlink" x="0px" y="0px"
	 viewBox="0 0 64 64" style="enable-background:new 0 0 64 64;" xml:space="preserve">
<g id="camera">
</g>
<g id="video">
</g>
<g id="step-backward">
</g>
<g id="fast-backward">
</g>
<g id="backward">
</g>
<g id="play">
</g>
<g id="stop">
</g>
<g id="pause">
</g>
<g id="record">
</g>
<g id="eject">
</g>
<g id="forward">
</g>
<g id="fast-forward">
</g>
<g id="step-forward">
</g>
<g id="repeat">
</g>
<g id="repeat-one">
</g>
<g id="shuffle">
	<g>
		<path d="M47,18h11.1l-4.2,3.7c-0.6,0.5-0.7,1.5-0.1,2.1c0.3,0.3,0.7,0.5,1.1,0.5c0.4,0,0.7-0.1,1-0.4l7.3-6.4
			c0.3-0.3,0.5-0.7,0.5-1.1s-0.2-0.8-0.5-1.1l-7.3-6.4c-0.6-0.5-1.6-0.5-2.1,0.1c-0.5,0.6-0.5,1.6,0.1,2.1l4.5,3.9H47
			c-5.3,0-9.7,7-14.8,15.1C27.2,38,21.5,47,15.7,47H2c-0.8,0-1.5,0.7-1.5,1.5S1.2,50,2,50h13.7c7.5,0,13.4-9.3,19.1-18.3
			C39,25,43.4,18,47,18z"/>
		<path d="M2,17h13.7c3.3,0,6.9,2.8,11.1,8.4c0.3,0.4,0.7,0.6,1.2,0.6c0.3,0,0.6-0.1,0.9-0.3c0.7-0.5,0.8-1.4,0.3-2.1
			C24.3,17.1,20,14,15.7,14H2c-0.8,0-1.5,0.7-1.5,1.5S1.2,17,2,17z"/>
		<path d="M55.9,40.1c-0.6-0.5-1.6-0.5-2.1,0.1c-0.5,0.6-0.5,1.6,0.1,2.1l4.2,3.7H47c-3.1,0-6.8-4.9-9.6-9.3
			c-0.5-0.7-1.4-0.9-2.1-0.4s-0.9,1.4-0.4,2.1C38.6,43.9,42.6,49,47,49h11.3l-4.5,3.9c-0.6,0.5-0.7,1.5-0.1,2.1
			c0.3,0.3,0.7,0.5,1.1,0.5c0.4,0,0.7-0.1,1-0.4l7.3-6.4c0.3-0.3,0.5-0.7,0.5-1.1s-0.2-0.8-0.5-1.1L55.9,40.1z"/>
	</g>
</g>
<g id="mute">
</g>
<g id="sound-none">
</g>
<g id="sound-low">
</g>
<g id="sound-high">
</g>
<g id="step-backward-circle">
</g>
<g id="fast-backward-circle">
</g>
<g id="backward-circle">
</g>
<g id="play-circle">
</g>
<g id="stop-circle">
</g>
<g id="pause-circle">
</g>
<g id="record-circle">
</g>
<g id="eject-circle">
</g>
<g id="forward-circle">
</g>
<g id="fast-forward-circle">
</g>
<g id="step-forward-circle">
</g>
</svg>
