<?xml version="1.0" encoding="utf-8"?>
<!-- Generator: Adobe Illustrator 20.1.0, SVG Export Plug-In . SVG Version: 6.00 Build 0)  -->
<!DOCTYPE svg PUBLIC "-//W3C//DTD SVG 1.1//EN" "http://www.w3.org/Graphics/SVG/1.1/DTD/svg11.dtd">
<svg version="1.1" xmlns="http://www.w3.org/2000/svg" xmlns:xlink="http://www.w3.org/1999/xlink" x="0px" y="0px"
	 viewBox="0 0 64 64" style="enable-background:new 0 0 64 64;" xml:space="preserve">
<g id="desktop">
</g>
<g id="tablet">
</g>
<g id="tablet-landscape">
</g>
<g id="desktop-alt">
</g>
<g id="smartphone">
</g>
<g id="smartphone-landscape">
</g>
<g id="laptop">
</g>
<g id="laptops">
</g>
<g id="desktops">
</g>
<g id="printer">
</g>
<g id="smartphones">
</g>
<g id="smartphone-mail">
</g>
<g id="smartphone-search">
</g>
<g id="desktop-chart">
</g>
<g id="pc">
</g>
<g id="remote-control-alt">
</g>
<g id="remote-control">
</g>
<g id="smartphone-signal">
	<g>
		<path d="M40.5,19H23.5c-2.8,0-5.5,2.7-5.5,5.5v34.3c0,2.7,2.6,5.2,5.5,5.2h17.1c2.9,0,5.5-2.5,5.5-5.2V24.5
			C46,21.7,43.3,19,40.5,19z M43,58.8c0,1.1-1.3,2.2-2.5,2.2H23.5c-1.2,0-2.5-1.1-2.5-2.2V24.5c0-1.1,1.4-2.5,2.5-2.5h17.1
			c1.1,0,2.5,1.4,2.5,2.5V58.8z"/>
		<ellipse cx="32" cy="57.6" rx="2" ry="2"/>
		<path d="M38,10.8c0.5,0,1-0.2,1.2-0.7c0.5-0.7,0.3-1.6-0.4-2.1c-4.1-2.8-9.7-2.8-13.8,0c-0.7,0.5-0.9,1.4-0.4,2.1
			c0.5,0.7,1.4,0.9,2.1,0.4c3.1-2.1,7.3-2.1,10.4,0C37.5,10.7,37.8,10.8,38,10.8z"/>
		<path d="M23,5.9c0.3,0,0.6-0.1,0.9-0.3c4.9-3.4,11.4-3.4,16.3,0c0.7,0.5,1.6,0.3,2.1-0.4c0.5-0.7,0.3-1.6-0.4-2.1
			C36-1,28-1,22.1,3.1c-0.7,0.5-0.8,1.4-0.4,2.1C22.1,5.6,22.5,5.9,23,5.9z"/>
		<path d="M28.2,12.9c-0.7,0.4-0.9,1.4-0.5,2.1c0.3,0.5,0.8,0.7,1.3,0.7c0.3,0,0.5-0.1,0.8-0.2c1.4-0.9,3.1-0.9,4.5,0
			c0.7,0.4,1.6,0.2,2.1-0.5c0.4-0.7,0.2-1.6-0.5-2.1C33.5,11.5,30.5,11.5,28.2,12.9z"/>
	</g>
</g>
<g id="battery-charge">
</g>
<g id="battery-charge-half">
</g>
<g id="battery-charge-full">
</g>
<g id="battery-charging">
</g>
<g id="filter">
</g>
<g id="network-web">
</g>
<g id="chip">
</g>
<g id="preferences-box">
</g>
<g id="preferences-vertical-box">
</g>
<g id="preferences-vertical-box-alt">
</g>
<g id="preferences-box-alt">
</g>
<g id="preferences">
</g>
<g id="preferences-vertical">
</g>
<g id="preferences-vertical-alt">
</g>
<g id="preferences-alt">
</g>
<g id="bluetooth">
</g>
<g id="signal-strength">
</g>
<g id="signal-no">
</g>
<g id="signal-tower-no">
</g>
<g id="signal-tower">
</g>
<g id="signal-no-alt">
</g>
<g id="nut">
</g>
<g id="cogs">
</g>
<g id="cog">
</g>
<g id="cog-dash-left">
</g>
<g id="cog-dash-right">
</g>
<g id="cog-fall">
</g>
<g id="io">
</g>
<g id="browser">
</g>
<g id="browser-add">
</g>
<g id="rss">
</g>
<g id="no-access">
</g>
<g id="notification">
</g>
<g id="devices">
</g>
<g id="notification-alert">
</g>
</svg>
