<?xml version="1.0" encoding="utf-8"?>
<!-- Generator: Adobe Illustrator 20.1.0, SVG Export Plug-In . SVG Version: 6.00 Build 0)  -->
<!DOCTYPE svg PUBLIC "-//W3C//DTD SVG 1.1//EN" "http://www.w3.org/Graphics/SVG/1.1/DTD/svg11.dtd">
<svg version="1.1" id="Layer_1" xmlns="http://www.w3.org/2000/svg" xmlns:xlink="http://www.w3.org/1999/xlink" x="0px" y="0px"
	 viewBox="0 0 64 64" style="enable-background:new 0 0 64 64;" xml:space="preserve">
<g>
	<path d="M59,2.2c-0.6-0.2-1.2-0.1-1.7,0.3c-3,2.8-5.5,3.8-10,3.8C42,6.3,36,3.9,33.2,0.5c-0.6-0.7-1.8-0.7-2.3,0
		C28,3.9,22,6.3,16.6,6.3c-4.5,0-7-1-10-3.8C6.2,2.1,5.5,2,5,2.2C4.4,2.5,4,3,4,3.6v37.9c0,0.1,0.1,0.2,0.1,0.3
		c0.1,0.6,3.2,15.7,27.5,22.2c0.1,0,0.3,0.1,0.4,0.1s0.3,0,0.4-0.1c24.3-6.5,27.4-21.6,27.5-22.2c0-0.1,0.1-0.2,0.1-0.3V3.6
		C60,3,59.6,2.5,59,2.2z M57,41.3c0,1.3-3.9,13.8-25,19.6C10.8,55.1,7,42.7,7,41.3V6.8c3,1.8,5.6,2.5,9.6,2.5
		c5.7,0,11.8-2.3,15.4-5.7c3.6,3.4,9.8,5.7,15.5,5.7c4,0,6.6-0.7,9.6-2.5V41.3z"/>
	<path d="M45.4,29H33V18.1c0-0.8-0.7-1.5-1.5-1.5S30,17.3,30,18.1V29H18.6c-0.8,0-1.5,0.7-1.5,1.5s0.7,1.5,1.5,1.5H30v11.8
		c0,0.8,0.7,1.5,1.5,1.5s1.5-0.7,1.5-1.5V32h12.4c0.8,0,1.5-0.7,1.5-1.5S46.2,29,45.4,29z"/>
</g>
</svg>
