<?xml version="1.0" encoding="utf-8"?>
<!-- Generator: Adobe Illustrator 20.1.0, SVG Export Plug-In . SVG Version: 6.00 Build 0)  -->
<!DOCTYPE svg PUBLIC "-//W3C//DTD SVG 1.1//EN" "http://www.w3.org/Graphics/SVG/1.1/DTD/svg11.dtd">
<svg version="1.1" xmlns="http://www.w3.org/2000/svg" xmlns:xlink="http://www.w3.org/1999/xlink" x="0px" y="0px"
	 viewBox="0 0 64 64" style="enable-background:new 0 0 64 64;" xml:space="preserve">
<g id="fairground">
</g>
<g id="tent">
</g>
<g id="tree">
</g>
<g id="trees">
</g>
<g id="tree-alt">
</g>
<g id="butterfly">
</g>
<g id="sunrise">
</g>
<g id="waterdrop">
</g>
<g id="map">
</g>
<g id="map-alt">
</g>
<g id="earth">
</g>
<g id="earth-no">
</g>
<g id="meteor">
</g>
<g id="sun">
</g>
<g id="sun-dim">
</g>
<g id="umbrella">
</g>
<g id="umbrella-alt">
</g>
<g id="gps">
</g>
<g id="fire">
</g>
<g id="target-sight">
</g>
<g id="gps-area">
</g>
<g id="gps-alt">
</g>
<g id="target">
	<path d="M63.7,6.6C63.4,6.2,63,6,62.5,6H58V1.5c0-0.5-0.2-0.9-0.6-1.2C57,0,56.5,0,56,0.1c-1.4,0.4-13.7,4.5-15.4,11.7
		c-0.6,2.5,0.1,4.9,2.1,7.3L41,20.9c-4.3-3.9-10.1-6.2-16.3-6.2C11.1,14.7,0,25.8,0,39.4c0,6.2,2.3,12,6.2,16.3l-5.8,5.8
		c-0.6,0.6-0.6,1.5,0,2.1C0.7,63.8,1.1,64,1.5,64c0.4,0,0.8-0.1,1.1-0.4l5.8-5.8c4.3,3.8,10.1,6.2,16.3,6.2c6.3,0,12-2.3,16.3-6.2
		l5.8,5.8c0.3,0.3,0.7,0.4,1.1,0.4c0.4,0,0.8-0.1,1.1-0.4c0.6-0.6,0.6-1.5,0-2.1l-5.8-5.8c3.9-4.3,6.2-10.1,6.2-16.3
		c0-6.2-2.3-12-6.2-16.3l1.8-1.8c1.8,1.5,3.7,2.3,5.6,2.3c0.6,0,1.2-0.1,1.7-0.2C59.5,21.6,63.8,8.5,63.9,8C64.1,7.5,64,7,63.7,6.6z
		 M55,6.9l-4,4V5.5c1.4-0.7,2.8-1.4,4-1.8V6.9z M43.5,12.5c0.5-1.9,2.3-3.7,4.5-5.2v6.6L44.8,17C43.6,15.5,43.2,14,43.5,12.5z
		 M46.3,39.4c0,11.9-9.7,21.6-21.6,21.6S3,51.3,3,39.4s9.7-21.6,21.6-21.6c5.4,0,10.4,2,14.2,5.3L35,26.9c-2.8-2.3-6.4-3.7-10.4-3.7
		c-8.9,0-16.2,7.3-16.2,16.2c0,8.9,7.3,16.2,16.2,16.2c8.9,0,16.2-7.3,16.2-16.2c0-3.9-1.4-7.5-3.7-10.3l3.8-3.8
		C44.3,29,46.3,33.9,46.3,39.4z M29.4,39.4c0,2.6-2.2,4.8-4.8,4.8s-4.8-2.2-4.8-4.8c0-2.6,2.2-4.8,4.8-4.8c0.8,0,1.5,0.2,2.2,0.5
		l-3.2,3.2c-0.6,0.6-0.6,1.5,0,2.1c0.3,0.3,0.7,0.4,1.1,0.4c0.4,0,0.8-0.1,1.1-0.4l3.2-3.2C29.2,37.9,29.4,38.6,29.4,39.4z M29,32.9
		c-1.2-0.8-2.7-1.3-4.4-1.3c-4.3,0-7.8,3.5-7.8,7.8c0,4.3,3.5,7.8,7.8,7.8s7.8-3.5,7.8-7.8c0-1.6-0.5-3.1-1.3-4.4l3.9-3.9
		c1.8,2.3,2.9,5.1,2.9,8.2c0,7.3-5.9,13.2-13.2,13.2s-13.2-5.9-13.2-13.2c0-7.3,5.9-13.2,13.2-13.2c3.1,0,6,1.1,8.2,2.9L29,32.9z
		 M51.5,20.5c-1.5,0.4-2.9-0.1-4.5-1.3L57.1,9h3.2C58.8,13,55.4,19.5,51.5,20.5z"/>
</g>
<g id="star">
</g>
<g id="lightning">
</g>
</svg>
