<?xml version="1.0" encoding="utf-8"?>
<!-- Generator: Adobe Illustrator 20.1.0, SVG Export Plug-In . SVG Version: 6.00 Build 0)  -->
<!DOCTYPE svg PUBLIC "-//W3C//DTD SVG 1.1//EN" "http://www.w3.org/Graphics/SVG/1.1/DTD/svg11.dtd">
<svg version="1.1" xmlns="http://www.w3.org/2000/svg" xmlns:xlink="http://www.w3.org/1999/xlink" x="0px" y="0px"
	 viewBox="0 0 64 64" style="enable-background:new 0 0 64 64;" xml:space="preserve">
<g id="text-height">
</g>
<g id="font">
</g>
<g id="text">
</g>
<g id="italic">
</g>
<g id="strikethrough">
</g>
<g id="paragraph">
</g>
<g id="bold">
</g>
<g id="quote-right">
</g>
<g id="hashtag">
</g>
<g id="anchor-handle">
</g>
<g id="box">
</g>
<g id="fullscreen">
</g>
<g id="fullscreen-alt">
</g>
<g id="golden-ratio">
</g>
<g id="hexgrid">
</g>
<g id="box-points">
</g>
<g id="box-points-move">
</g>
<g id="box-points-move-alt">
</g>
<g id="hex_1_">
</g>
<g id="hex-diamond">
</g>
<g id="artboards-vertical">
</g>
<g id="artboards">
</g>
<g id="artboards-alt-vertical">
</g>
<g id="artboards-alt">
</g>
<g id="scale">
</g>
<g id="pencil">
</g>
<g id="fill">
</g>
<g id="artist-mug">
</g>
<g id="pen">
</g>
<g id="calligraphy-pen-tip">
</g>
<g id="calligraphy-pen_1_">
</g>
<g id="paint-pallette">
</g>
<g id="tools-cross">
	<path d="M47.5,32.1l5.3,5.4c0.3,0.3,0.7,0.4,1.1,0.4c0,0,0,0,0,0c0.4,0,0.8-0.2,1.1-0.4l8.6-8.6c0.3-0.3,0.4-0.7,0.4-1.1
		s-0.2-0.8-0.4-1.1L58,21.2c-0.3-0.3-0.8-0.5-1.2-0.4l-2.5,0.3l-1.2-1.2l0.6-1.8c0.2-0.5,0-1.1-0.4-1.5L42.4,5.6
		c-3-3-6.2-4.4-9.5-4.3c-5.1,0.3-8.5,4.3-8.6,4.5c-0.5,0.6-0.5,1.5,0.1,2.1s1.5,0.6,2,0c0.8-0.6,3.2-0.8,6.9,2.9
		c3.6,3.6,3.9,5.7,3.6,6.3L27.9,26l-6.4-6.4c1.2-3.9,0.2-8.2-2.7-11.1c-3.2-3.2-7.9-4.1-12.1-2.3C6.2,6.4,5.9,6.9,5.8,7.4
		s0.1,1,0.5,1.4l4.6,4.1V17H7.5L3.4,12c-0.3-0.4-0.9-0.6-1.4-0.5c-0.5,0.1-1,0.4-1.2,0.9c-1.8,4.1-0.9,8.7,2.3,11.9
		c2.9,2.9,7.2,3.9,11.1,2.6l6.2,6.2L2,51.2c-2.6,2.6-2.6,6.9,0,9.5c1.3,1.3,3,2,4.8,2c1.7,0,3.4-0.7,4.7-2l18.6-18.1l5.7,5.7
		c-1.2,3.9-0.2,8.2,2.7,11.1c2.1,2.1,4.8,3.2,7.6,3.2c1.4,0,2.9-0.3,4.3-0.9c0.5-0.2,0.8-0.6,0.9-1.2c0.1-0.5-0.1-1-0.5-1.4L46,55.2
		v-3.1h3.8l4.1,4.5c0.3,0.4,0.9,0.5,1.4,0.5c0.5-0.1,0.9-0.4,1.1-0.9c1.7-4.1,0.8-9-2.3-12.2c-3-3-7.2-4-11.1-2.8l-5.6-5.7l2.9-2.8
		c0,0,0.1-0.1,0.1-0.1c0,0,0.1-0.1,0.1-0.1l5.3-5.2l1.3,1.3v2.4C47.1,31.5,47.2,31.9,47.5,32.1z M15.8,24.1
		c-0.4-0.4-1.1-0.6-1.6-0.3c-3.1,1.3-6.5,0.7-8.8-1.6c-1.6-1.6-2.4-3.8-2.3-5.9l2.6,3.2C5.9,19.8,6.4,20,6.8,20h5.6
		c0.8,0,1.5-0.7,1.5-1.5v-6.3c0-0.4-0.2-0.8-0.5-1.1l-3-2.7c2.3-0.2,4.6,0.6,6.2,2.3c2.3,2.3,3,5.8,1.7,8.8
		c-0.2,0.6-0.1,1.2,0.3,1.6l7,7l-3,2.9L15.8,24.1z M9.4,58.6C8,60,5.6,60,4.1,58.6c-1.5-1.5-1.5-3.8,0-5.3l27.7-27l5.2,5.2L9.4,58.6
		z M41.5,44c0.4,0.4,1.1,0.6,1.6,0.3c3-1.3,6.4-0.6,8.8,1.8c1.7,1.7,2.5,4.1,2.3,6.4l-2.7-2.9c-0.3-0.3-0.7-0.5-1.1-0.5h-6
		c-0.8,0-1.5,0.7-1.5,1.5v5.3c0,0.4,0.2,0.9,0.5,1.1l3.1,2.6c-2.2,0.1-4.4-0.7-6-2.3c-2.3-2.3-3-5.8-1.7-8.8
		c0.2-0.6,0.1-1.2-0.3-1.6l-6.4-6.4l2.9-2.9L41.5,44z M46.8,24.2c-0.6-0.6-1.5-0.6-2.1,0l-5.4,5.3L34,24.2l5.2-5
		c0,0,0.1-0.1,0.1-0.1c0.5-0.6,2.8-3.8-3.8-10.4c-2-2-3.8-3.1-5.2-3.7c0.8-0.4,1.8-0.7,2.9-0.7c2.4-0.1,4.8,1,7.2,3.4L50.6,18
		L50,19.8c-0.2,0.5,0,1.1,0.4,1.5l2.4,2.4c0.3,0.3,0.8,0.5,1.2,0.4l2.5-0.3l4,4l-6.5,6.5l-3.8-3.9v-2.4c0-0.4-0.2-0.8-0.4-1.1
		L46.8,24.2z"/>
</g>
<g id="edit-tools">
</g>
<g id="pencil-ruler">
</g>
<g id="ruler-measure">
</g>
<g id="measure">
</g>
<g id="code">
</g>
<g id="move">
</g>
<g id="external">
</g>
<g id="terminal">
</g>
<g id="thumbnails">
</g>
</svg>
