<?xml version="1.0" encoding="utf-8"?>
<!-- Generator: Adobe Illustrator 20.1.0, SVG Export Plug-In . SVG Version: 6.00 Build 0)  -->
<!DOCTYPE svg PUBLIC "-//W3C//DTD SVG 1.1//EN" "http://www.w3.org/Graphics/SVG/1.1/DTD/svg11.dtd">
<svg version="1.1" xmlns="http://www.w3.org/2000/svg" xmlns:xlink="http://www.w3.org/1999/xlink" x="0px" y="0px"
	 viewBox="0 0 64.1 64" style="enable-background:new 0 0 64.1 64;" xml:space="preserve">
<g id="calendar">
</g>
<g id="calendar-check">
</g>
<g id="day">
</g>
<g id="week">
</g>
<g id="time-forward">
</g>
<g id="time-reverse">
</g>
<g id="time">
	<g>
		<path d="M32.1,0C14.4,0,0,14.4,0,32s14.4,32,32.1,32s32.1-14.4,32.1-32S49.8,0,32.1,0z M32.1,61C16,61,3,48,3,32S16,3,32.1,3
			s29.1,13,29.1,29S48.1,61,32.1,61z"/>
		<path d="M33.5,31.4V10.1c0-0.8-0.7-1.5-1.5-1.5s-1.5,0.7-1.5,1.5V32c0,0,0,0,0,0c0,0,0,0,0,0c0,0.2,0,0.4,0.1,0.5c0,0,0,0,0,0
			c0.1,0.2,0.2,0.4,0.3,0.5L43,45.1c0.3,0.3,0.7,0.4,1.1,0.4c0.4,0,0.8-0.1,1.1-0.4c0.6-0.6,0.6-1.5,0-2.1L33.5,31.4z"/>
	</g>
</g>
<g id="clock">
</g>
<g id="clocks">
</g>
<g id="alarm-clock">
</g>
<g id="alarm-clock-add">
</g>
<g id="alarm-clock-off">
</g>
<g id="alarm-clock-set">
</g>
</svg>
