<?xml version="1.0" encoding="utf-8"?>
<!-- Generator: Adobe Illustrator 20.1.0, SVG Export Plug-In . SVG Version: 6.00 Build 0)  -->
<!DOCTYPE svg PUBLIC "-//W3C//DTD SVG 1.1//EN" "http://www.w3.org/Graphics/SVG/1.1/DTD/svg11.dtd">
<svg version="1.1" xmlns="http://www.w3.org/2000/svg" xmlns:xlink="http://www.w3.org/1999/xlink" x="0px" y="0px"
	 viewBox="0 0 64 64" style="enable-background:new 0 0 64 64;" xml:space="preserve">
<g id="truck">
</g>
<g id="car">
</g>
<g id="taxi">
</g>
<g id="rocket">
</g>
<g id="tardis">
	<g>
		<path d="M50,20c0.8,0,1.5-0.7,1.5-1.5c0-0.4-0.2-0.8-0.5-1.1v-4.2C51,9.7,48.2,7,44.4,7H36V1.5C36,0.7,35.3,0,34.5,0h-5
			C28.7,0,28,0.7,28,1.5V7h-8.4C15.8,7,13,9.7,13,13.2v4.2c-0.3,0.3-0.5,0.7-0.5,1.1c0,0.8,0.7,1.5,1.5,1.5h1v36h-0.5
			c-0.8,0-1.5,0.7-1.5,1.5v5c0,0.8,0.7,1.5,1.5,1.5h35c0.8,0,1.5-0.7,1.5-1.5v-5c0-0.8-0.7-1.5-1.5-1.5H49V20H50z M31,3h2v4h-2V3z
			 M19.6,10h9.9h5h9.9c2.1,0,3.6,1.3,3.6,3.2V17h-0.5h-31H16v-3.8C16,11.3,17.5,10,19.6,10z M48,61H16v-2h0.5h31H48V61z M46,56H18
			V20h28V56z"/>
		<rect x="23" y="24" width="5" height="8"/>
		<rect x="36" y="24" width="5" height="8"/>
		<rect x="23" y="36" width="5" height="9"/>
		<rect x="36" y="36" width="5" height="9"/>
	</g>
</g>
<g id="bus">
</g>
<g id="tram">
</g>
<g id="speedo">
</g>
<g id="air-machine">
</g>
<g id="speedo-alt">
</g>
<g id="motorcycle">
</g>
<g id="car-battery">
</g>
<g id="ufo">
</g>
<g id="arrivals">
</g>
<g id="petrol-pump">
</g>
<g id="gear-shift">
</g>
<g id="car-battery-alt">
</g>
<g id="road">
</g>
<g id="siren">
</g>
<g id="plane">
</g>
<g id="lorry">
</g>
<g id="train">
</g>
<g id="forklift">
</g>
<g id="bicycle">
</g>
<g id="underground">
</g>
<g id="paper-plane">
</g>
<g id="hotair-balloon">
</g>
</svg>
