<?xml version="1.0" encoding="utf-8"?>
<!-- Generator: Adobe Illustrator 20.1.0, SVG Export Plug-In . SVG Version: 6.00 Build 0)  -->
<!DOCTYPE svg PUBLIC "-//W3C//DTD SVG 1.1//EN" "http://www.w3.org/Graphics/SVG/1.1/DTD/svg11.dtd">
<svg version="1.1" xmlns="http://www.w3.org/2000/svg" xmlns:xlink="http://www.w3.org/1999/xlink" x="0px" y="0px"
	 viewBox="0 0 64 64" style="enable-background:new 0 0 64 64;" xml:space="preserve">
<g id="fairground">
</g>
<g id="tent">
</g>
<g id="tree">
</g>
<g id="trees">
	<path d="M59.5,29.3c0-5.1-3-9.7-7.5-12.5C50.2,7.2,40.1,0,28.4,0C15.2,0,4.5,8.9,4.5,19.8c0,10.1,9.1,18.5,21.1,19.7
		c0,0,0.1,0,0.1,0c0.1,0,0.3,0,0.4-0.1c0.3,0.3,0.6,0.5,0.9,0.8V61h-9c-0.8,0-1.5,0.7-1.5,1.5S17.2,64,18,64h15h6h10
		c0.8,0,1.5-0.7,1.5-1.5S49.8,61,49,61h-7V45C51.8,44.4,59.5,37.6,59.5,29.3z M56.5,29.3c0,7-7.1,12.7-15.9,12.7
		s-15.9-5.7-15.9-12.7c0-7,7.1-12.7,15.9-12.7S56.5,22.3,56.5,29.3z M7.5,19.8C7.5,10.5,16.9,3,28.4,3c9.3,0,17.4,5,20,12
		c-2.4-0.9-5-1.4-7.7-1.4c-10.4,0-18.9,7.1-18.9,15.7c0,2.5,0.7,4.8,1.9,6.9C14.3,34.4,7.5,27.7,7.5,19.8z M33,61h-3V42.3
		c2.6,1.5,5.7,2.4,9,2.7v16H33z"/>
</g>
<g id="tree-alt">
</g>
<g id="butterfly">
</g>
<g id="sunrise">
</g>
<g id="waterdrop">
</g>
<g id="map">
</g>
<g id="map-alt">
</g>
<g id="earth">
</g>
<g id="earth-no">
</g>
<g id="meteor">
</g>
<g id="sun">
</g>
<g id="sun-dim">
</g>
<g id="umbrella">
</g>
<g id="umbrella-alt">
</g>
<g id="gps">
</g>
<g id="fire">
</g>
<g id="target-sight">
</g>
<g id="gps-area">
</g>
<g id="gps-alt">
</g>
<g id="target">
</g>
<g id="star">
</g>
<g id="lightning">
</g>
</svg>
