<?xml version="1.0" encoding="utf-8"?>
<!-- Generator: Adobe Illustrator 20.1.0, SVG Export Plug-In . SVG Version: 6.00 Build 0)  -->
<!DOCTYPE svg PUBLIC "-//W3C//DTD SVG 1.1//EN" "http://www.w3.org/Graphics/SVG/1.1/DTD/svg11.dtd">
<svg version="1.1" xmlns="http://www.w3.org/2000/svg" xmlns:xlink="http://www.w3.org/1999/xlink" x="0px" y="0px"
	 viewBox="0 0 64 64" style="enable-background:new 0 0 64 64;" xml:space="preserve">
<g id="bulb">
</g>
<g id="bulb-on">
</g>
<g id="bulb-alt">
</g>
<g id="bulb-on-alt">
</g>
<g id="energy-bulb">
</g>
<g id="toasting">
</g>
<g id="toasted">
	<path d="M62.5,24.4h-7.9c-2.3-2.4-5.5-4-9-4.2l-0.3-4c0.6-0.2,1.1-0.6,1.5-1c0.8-0.9,1.3-2,1.3-3.2V9.4c0-1.2-0.5-2.3-1.3-3.2
		c-0.8-0.8-1.9-1.3-3-1.3l-3.9-0.6c-6.5-1-13-1-19.5,0l-3.9,0.6c-1.2,0-2.3,0.5-3.1,1.3c-0.9,0.9-1.4,2-1.4,3.2v2.5
		c0,1.1,0.5,2.3,1.4,3.2c0.4,0.5,1,0.8,1.6,1l-0.3,4C8.4,20.6,3.1,25.4,2.3,31.5L0,49c-0.2,1.3,0.2,2.5,1.1,3.5
		C2,53.5,3.2,54,4.5,54h3.9l0.7,5.1c0.1,0.7,0.7,1.3,1.5,1.3H17c0.8,0,1.4-0.6,1.5-1.3l0.7-5.1h21.9l0.7,5.1
		c0.1,0.7,0.7,1.3,1.5,1.3h6.4c0.8,0,1.4-0.6,1.5-1.3L52,54h3.9c1.3,0,2.5-0.6,3.4-1.5c0.9-1,1.2-2.2,1.1-3.5l-1.9-14.9l4.4-0.8
		c0.7-0.1,1.2-0.8,1.2-1.5v-6C64,25.1,63.3,24.4,62.5,24.4z M15.1,9.4c0-0.4,0.2-0.7,0.5-1.1c0.2-0.3,0.7-0.4,1-0.4
		c0.1,0,0.2,0,0.2,0l4-0.6c6.2-1,12.4-1,18.6,0l4,0.6c0.1,0,0.2,0,0.2,0c0.4,0,0.7,0.2,1,0.4c0.3,0.3,0.4,0.7,0.4,1.1v2.5
		c0,0.4-0.2,0.8-0.4,1.1c-0.3,0.3-0.6,0.4-1,0.4c-0.4,0-0.8,0.2-1.1,0.5s-0.4,0.7-0.4,1.1l0.4,5.1H17.8l0.4-5.1
		c0-0.4-0.1-0.8-0.4-1.1c-0.3-0.3-0.7-0.5-1.1-0.5c-0.4,0-0.8-0.2-1-0.4c-0.3-0.3-0.5-0.7-0.5-1.1V9.4z M15.7,23.1h28.9
		c5.3,0,9.8,3.8,10.4,8.7l1,7.5H4.3l1-7.4C5.9,26.9,10.4,23.1,15.7,23.1z M15.7,57.4h-3.8L11.4,54h4.8L15.7,57.4z M48.5,57.4h-3.8
		L44.2,54h4.8L48.5,57.4z M57,50.5c-0.3,0.3-0.7,0.5-1.1,0.5h-5.1c-0.1,0-0.1,0-0.2,0H17.9c-0.1,0-0.1,0-0.2,0H4.5
		c-0.6,0-0.9-0.3-1.1-0.5C3.1,50.2,3,49.8,3,49.4l0.9-7h52.5l0.9,7.1C57.4,49.8,57.2,50.2,57,50.5z M61,30.6l-3,0.5
		c-0.2-1.3-0.6-2.6-1.2-3.8H61V30.6z"/>
</g>
<g id="binoculars">
</g>
<g id="gift">
</g>
<g id="shaver">
</g>
<g id="candle">
</g>
<g id="shower">
</g>
<g id="bomb">
</g>
<g id="joystick">
</g>
<g id="megaphone">
</g>
<g id="chestdraw">
</g>
<g id="armchair">
</g>
<g id="cardboard-box">
</g>
<g id="bath-shower">
</g>
<g id="diamond">
</g>
<g id="cassette">
</g>
<g id="iron">
</g>
<g id="wash">
</g>
<g id="keyboard-keys">
</g>
<g id="earphones">
</g>
<g id="lifebuoy">
</g>
<g id="calculator">
</g>
<g id="safe">
</g>
<g id="balloon">
</g>
<g id="cake">
</g>
<g id="baseball">
</g>
<g id="football-american">
</g>
<g id="football">
</g>
<g id="anchor">
</g>
<g id="compact-disc">
</g>
<g id="bbq">
</g>
<g id="coffee-machine">
</g>
<g id="teapot">
</g>
<g id="outdoor-stove">
</g>
<g id="pram">
</g>
<g id="paintbrush">
</g>
<g id="stamp">
</g>
<g id="eyedrop">
</g>
<g id="musical-note">
</g>
<g id="magnet">
</g>
<g id="alarm-bell">
</g>
<g id="globe">
</g>
<g id="key">
</g>
<g id="ink">
</g>
<g id="paperclip">
</g>
<g id="paint-roller">
</g>
<g id="keyboard">
</g>
</svg>
