<?xml version="1.0" encoding="utf-8"?>
<!-- Generator: Adobe Illustrator 20.1.0, SVG Export Plug-In . SVG Version: 6.00 Build 0)  -->
<!DOCTYPE svg PUBLIC "-//W3C//DTD SVG 1.1//EN" "http://www.w3.org/Graphics/SVG/1.1/DTD/svg11.dtd">
<svg version="1.1" xmlns="http://www.w3.org/2000/svg" xmlns:xlink="http://www.w3.org/1999/xlink" x="0px" y="0px"
	 viewBox="0 0 64.6 64" style="enable-background:new 0 0 64.6 64;" xml:space="preserve">
<g id="calendar">
</g>
<g id="calendar-check">
</g>
<g id="day">
</g>
<g id="week">
</g>
<g id="time-forward">
</g>
<g id="time-reverse">
	<g>
		<path d="M30.5,32c0,0.2,0,0.4,0.1,0.5c0,0,0,0,0,0c0.1,0.2,0.2,0.4,0.3,0.5L43,45.1c0.3,0.3,0.7,0.4,1.1,0.4
			c0.4,0,0.8-0.1,1.1-0.4c0.6-0.6,0.6-1.5,0-2.1L33.5,31.4V10.1c0-0.8-0.7-1.5-1.5-1.5s-1.5,0.7-1.5,1.5L30.5,32
			C30.5,32,30.5,32,30.5,32C30.5,32,30.5,32,30.5,32z"/>
		<path d="M32,0.1C19.5,0.1,8.2,7.3,3,18.5V7.5C3,6.6,2.3,6,1.5,6S0,6.6,0,7.5v15c0,0.8,0.7,1.5,1.5,1.5h15c0.8,0,1.5-0.7,1.5-1.5
			s-0.7-1.5-1.5-1.5H5.2c0.1-0.1,0.1-0.2,0.2-0.3C9.9,10,20.4,3.1,32,3.1c16,0,29,13,29,28.9S48,60.9,32,60.9S3,48,3,32
			c0-0.8-0.7-1.5-1.5-1.5S0,31.2,0,32c0,17.6,14.4,31.9,32,31.9S64,49.6,64,32S49.6,0.1,32,0.1z"/>
	</g>
</g>
<g id="time">
</g>
<g id="clock">
</g>
<g id="clocks">
</g>
<g id="alarm-clock">
</g>
<g id="alarm-clock-add">
</g>
<g id="alarm-clock-off">
</g>
<g id="alarm-clock-set">
</g>
</svg>
