<?xml version="1.0" encoding="utf-8"?>
<!-- Generator: Adobe Illustrator 20.1.0, SVG Export Plug-In . SVG Version: 6.00 Build 0)  -->
<!DOCTYPE svg PUBLIC "-//W3C//DTD SVG 1.1//EN" "http://www.w3.org/Graphics/SVG/1.1/DTD/svg11.dtd">
<svg version="1.1" xmlns="http://www.w3.org/2000/svg" xmlns:xlink="http://www.w3.org/1999/xlink" x="0px" y="0px"
	 viewBox="0 0 64.6 64" style="enable-background:new 0 0 64.6 64;" xml:space="preserve">
<g id="calendar">
</g>
<g id="calendar-check">
</g>
<g id="day">
</g>
<g id="week">
</g>
<g id="time-forward">
	<g>
		<path d="M46,22.4c0,0.8,0.7,1.5,1.5,1.5h15c0.8,0,1.5-0.7,1.5-1.5v-15C64,6.6,63.3,6,62.5,6S61,6.6,61,7.5v11.1
			C55.8,7.3,44.5,0.1,32,0.1C14.4,0.1,0,14.4,0,32s14.4,31.9,32,31.9S64,49.6,64,32c0-0.8-0.7-1.5-1.5-1.5S61,31.2,61,32
			c0,16-13,28.9-29,28.9S3,48,3,32S16,3.1,32,3.1c11.6,0,22.1,6.9,26.7,17.5c0,0.1,0.1,0.2,0.2,0.3H47.5C46.7,20.9,46,21.6,46,22.4z
			"/>
		<path d="M30.5,32c0,0.2,0,0.4,0.1,0.5c0,0,0,0,0,0c0.1,0.2,0.2,0.4,0.3,0.5L43,45.1c0.3,0.3,0.7,0.4,1.1,0.4
			c0.4,0,0.8-0.1,1.1-0.4c0.6-0.6,0.6-1.5,0-2.1L33.5,31.4V10.1c0-0.8-0.7-1.5-1.5-1.5s-1.5,0.7-1.5,1.5L30.5,32
			C30.5,32,30.5,32,30.5,32C30.5,32,30.5,32,30.5,32z"/>
	</g>
</g>
<g id="time-reverse">
</g>
<g id="time">
</g>
<g id="clock">
</g>
<g id="clocks">
</g>
<g id="alarm-clock">
</g>
<g id="alarm-clock-add">
</g>
<g id="alarm-clock-off">
</g>
<g id="alarm-clock-set">
</g>
</svg>
