<?xml version="1.0" encoding="utf-8"?>
<!-- Generator: Adobe Illustrator 20.1.0, SVG Export Plug-In . SVG Version: 6.00 Build 0)  -->
<!DOCTYPE svg PUBLIC "-//W3C//DTD SVG 1.1//EN" "http://www.w3.org/Graphics/SVG/1.1/DTD/svg11.dtd">
<svg version="1.1" xmlns="http://www.w3.org/2000/svg" xmlns:xlink="http://www.w3.org/1999/xlink" x="0px" y="0px"
	 viewBox="0 0 64 64" style="enable-background:new 0 0 64 64;" xml:space="preserve">
<g id="credit-card">
</g>
<g id="tag">
</g>
<g id="trolley">
	<g>
		<ellipse cx="26.2" cy="56.3" rx="4.7" ry="4.7"/>
		<ellipse cx="46.6" cy="56.3" rx="4.7" ry="4.7"/>
		<path d="M63.7,18.6C63.5,18.2,63,18,62.5,18H29c-0.8,0-1.5,0.7-1.5,1.5S28.2,21,29,21h31.5l-5.8,18h-34l-6.7-27.9
			c-0.1-0.4-0.3-0.7-0.6-0.9L2.5,3.1C1.8,2.6,0.9,2.8,0.4,3.5C0,4.2,0.1,5.1,0.8,5.6l10.3,6.7L18,40.9c0.2,0.7,0.8,1.1,1.5,1.1h36.3
			c0.7,0,1.2-0.4,1.4-1L64,20C64.1,19.5,64,19,63.7,18.6z"/>
	</g>
</g>
<g id="trolley-out">
</g>
<g id="trolley-in">
</g>
<g id="wallet">
</g>
<g id="shopping-bag">
</g>
<g id="basket">
</g>
<g id="dollar-circle">
</g>
<g id="pound-circle">
</g>
<g id="euro-circle">
</g>
<g id="yen-circle">
</g>
<g id="purse">
</g>
<g id="banknote">
</g>
</svg>
