<?xml version="1.0" encoding="utf-8"?>
<!-- Generator: Adobe Illustrator 20.1.0, SVG Export Plug-In . SVG Version: 6.00 Build 0)  -->
<!DOCTYPE svg PUBLIC "-//W3C//DTD SVG 1.1//EN" "http://www.w3.org/Graphics/SVG/1.1/DTD/svg11.dtd">
<svg version="1.1" xmlns="http://www.w3.org/2000/svg" xmlns:xlink="http://www.w3.org/1999/xlink" x="0px" y="0px"
	 viewBox="0 0 64 64" style="enable-background:new 0 0 64 64;" xml:space="preserve">
<g id="file">
</g>
<g id="copy">
</g>
<g id="file-edit">
</g>
<g id="folder">
</g>
<g id="subdirectory">
</g>
<g id="album">
</g>
<g id="push">
</g>
<g id="pull">
</g>
<g id="database">
</g>
<g id="server">
</g>
<g id="upload">
</g>
<g id="download">
</g>
<g id="cloud-download">
</g>
<g id="cloud-upload">
</g>
<g id="cloud">
</g>
<g id="cloud-no-access">
</g>
<g id="cloud-signal-up">
</g>
<g id="cloud-signal-down">
</g>
<g id="checklist">
</g>
<g id="file-folded">
</g>
<g id="file-folded-text">
</g>
<g id="inbox">
</g>
<g id="zip-folder">
</g>
<g id="image-folder">
</g>
<g id="image-album">
</g>
<g id="image">
</g>
<g id="images">
</g>
<g id="invoice">
</g>
<g id="book">
</g>
<g id="layers">
</g>
<g id="media-upload">
</g>
<g id="addresses">
</g>
<g id="floppy">
</g>
<g id="link">
</g>
<g id="link-add">
</g>
<g id="link-remove">
</g>
<g id="table">
</g>
<g id="download-book">
</g>
<g id="clipboard">
</g>
<g id="clipboard-chart">
</g>
<g id="clipboard-text">
</g>
<g id="clipboard-check">
</g>
<g id="clipboard-cross">
</g>
<g id="bookmark">
</g>
<g id="bookmark-add">
</g>
<g id="bookmark-remove">
</g>
<g id="clipboard-horizontal">
</g>
<g id="clipboard-text-horizontal">
</g>
<g id="trash">
	<g>
		<path d="M26.6,53.8c0.8,0,1.5-0.7,1.5-1.5V22.4c0-0.8-0.7-1.5-1.5-1.5s-1.5,0.7-1.5,1.5v29.9C25.1,53.2,25.7,53.8,26.6,53.8z"/>
		<path d="M37.4,53.8c0.8,0,1.5-0.7,1.5-1.5V22.4c0-0.8-0.7-1.5-1.5-1.5s-1.5,0.7-1.5,1.5v29.9C35.9,53.2,36.6,53.8,37.4,53.8z"/>
		<path d="M59.8,7.2H46.2c0-0.1,0-0.2,0-0.3V1.5c0-0.8-0.7-1.5-1.5-1.5H19.3c-0.8,0-1.5,0.7-1.5,1.5v5.4c0,0.1,0,0.2,0,0.3H4.2
			c-0.8,0-1.5,0.7-1.5,1.5s0.7,1.5,1.5,1.5h6.4c0,0.1,0,0.2,0,0.3v52c0,0.8,0.7,1.5,1.5,1.5h39.9c0.8,0,1.5-0.7,1.5-1.5v-52
			c0-0.1,0-0.2,0-0.3h6.4c0.8,0,1.5-0.7,1.5-1.5S60.6,7.2,59.8,7.2z M20.8,6.9V3h22.4v3.9c0,0.1,0,0.2,0,0.3H20.8
			C20.8,7.1,20.8,7,20.8,6.9z M50.4,10.5V61H13.6V10.5c0-0.1,0-0.2,0-0.3h37C50.5,10.3,50.4,10.4,50.4,10.5z"/>
	</g>
</g>
<g id="unlock">
</g>
<g id="lock">
</g>
<g id="link-add-circle">
</g>
<g id="link-remove-circle">
</g>
<g id="sort-up">
</g>
<g id="sort-down">
</g>
<g id="list">
</g>
</svg>
