<?xml version="1.0" encoding="utf-8"?>
<!-- Generator: Adobe Illustrator 20.1.0, SVG Export Plug-In . SVG Version: 6.00 Build 0)  -->
<!DOCTYPE svg PUBLIC "-//W3C//DTD SVG 1.1//EN" "http://www.w3.org/Graphics/SVG/1.1/DTD/svg11.dtd">
<svg version="1.1" xmlns="http://www.w3.org/2000/svg" xmlns:xlink="http://www.w3.org/1999/xlink" x="0px" y="0px"
	 viewBox="0 0 64 64" style="enable-background:new 0 0 64 64;" xml:space="preserve">
<g id="bulb">
</g>
<g id="bulb-on">
</g>
<g id="bulb-alt">
</g>
<g id="bulb-on-alt">
</g>
<g id="energy-bulb">
</g>
<g id="toasting">
	<g>
		<path d="M59.5,17.3h-55c-2.5,0-4.5,2-4.5,4.5v30.9c0,2.5,2,4.5,4.5,4.5h1.8V61c0,0.8,0.7,1.5,1.5,1.5h6.3c0.8,0,1.5-0.7,1.5-1.5
			v-3.8h31.7V61c0,0.8,0.7,1.5,1.5,1.5h6.3c0.8,0,1.5-0.7,1.5-1.5v-3.8h2.9c2.5,0,4.5-2,4.5-4.5V21.8C64,19.3,62,17.3,59.5,17.3z
			 M12.6,59.5H9.3v-2.3h3.3V59.5z M53.6,59.5h-3.3v-2.3h3.3V59.5z M61,52.7c0,0.8-0.7,1.5-1.5,1.5h-55c-0.8,0-1.5-0.7-1.5-1.5V21.8
			c0-0.8,0.7-1.5,1.5-1.5h55c0.8,0,1.5,0.7,1.5,1.5V52.7z"/>
		<path d="M50.9,24.7H13.1c-0.8,0-1.5,0.7-1.5,1.5s0.7,1.5,1.5,1.5h37.9c0.8,0,1.5-0.7,1.5-1.5S51.8,24.7,50.9,24.7z"/>
		<path d="M50.9,30.5H13.1c-0.8,0-1.5,0.7-1.5,1.5s0.7,1.5,1.5,1.5h37.9c0.8,0,1.5-0.7,1.5-1.5S51.8,30.5,50.9,30.5z"/>
		<path d="M18.1,9.5c0.9,1.6,1,1.9,0.3,2.6c-0.6,0.6-0.5,1.6,0.1,2.1c0.3,0.3,0.7,0.4,1,0.4c0.4,0,0.8-0.2,1.1-0.5
			c2.2-2.4,0.9-4.6,0.1-6.1c-0.3-0.5-0.6-1-0.7-1.5c-0.2-0.6-0.3-1.6,0.6-2.4c0.6-0.5,0.7-1.5,0.2-2.1c-0.5-0.6-1.5-0.7-2.1-0.2
			c-1.6,1.3-2.2,3.4-1.5,5.6C17.3,8.2,17.7,8.9,18.1,9.5z"/>
		<path d="M30.2,9.5c0.9,1.6,1,1.9,0.3,2.6c-0.6,0.6-0.5,1.6,0.1,2.1c0.3,0.3,0.7,0.4,1,0.4c0.4,0,0.8-0.2,1.1-0.5
			c2.2-2.4,0.9-4.6,0.1-6.1c-0.3-0.5-0.6-1-0.7-1.5c-0.2-0.6-0.3-1.6,0.6-2.4c0.6-0.5,0.7-1.5,0.2-2.1c-0.5-0.6-1.5-0.7-2.1-0.2
			c-1.6,1.3-2.2,3.4-1.5,5.6C29.5,8.2,29.9,8.9,30.2,9.5z"/>
		<path d="M42.4,9.5c0.9,1.6,1,1.9,0.3,2.6c-0.6,0.6-0.5,1.6,0.1,2.1c0.3,0.3,0.7,0.4,1,0.4c0.4,0,0.8-0.2,1.1-0.5
			c2.2-2.4,0.9-4.6,0.1-6.1c-0.3-0.5-0.6-1-0.7-1.5c-0.2-0.6-0.3-1.6,0.6-2.4c0.6-0.5,0.7-1.5,0.2-2.1c-0.5-0.6-1.5-0.7-2.1-0.2
			c-1.6,1.3-2.2,3.4-1.5,5.6C41.6,8.2,42,8.9,42.4,9.5z"/>
	</g>
</g>
<g id="toasted">
</g>
<g id="binoculars">
</g>
<g id="gift">
</g>
<g id="shaver">
</g>
<g id="candle">
</g>
<g id="shower">
</g>
<g id="bomb">
</g>
<g id="joystick">
</g>
<g id="megaphone">
</g>
<g id="chestdraw">
</g>
<g id="armchair">
</g>
<g id="cardboard-box">
</g>
<g id="bath-shower">
</g>
<g id="diamond">
</g>
<g id="cassette">
</g>
<g id="iron">
</g>
<g id="wash">
</g>
<g id="keyboard-keys">
</g>
<g id="earphones">
</g>
<g id="lifebuoy">
</g>
<g id="calculator">
</g>
<g id="safe">
</g>
<g id="balloon">
</g>
<g id="cake">
</g>
<g id="baseball">
</g>
<g id="football-american">
</g>
<g id="football">
</g>
<g id="anchor">
</g>
<g id="compact-disc">
</g>
<g id="bbq">
</g>
<g id="coffee-machine">
</g>
<g id="teapot">
</g>
<g id="outdoor-stove">
</g>
<g id="pram">
</g>
<g id="paintbrush">
</g>
<g id="stamp">
</g>
<g id="eyedrop">
</g>
<g id="musical-note">
</g>
<g id="magnet">
</g>
<g id="alarm-bell">
</g>
<g id="globe">
</g>
<g id="key">
</g>
<g id="ink">
</g>
<g id="paperclip">
</g>
<g id="paint-roller">
</g>
<g id="keyboard">
</g>
</svg>
