<?xml version="1.0" encoding="utf-8"?>
<!-- Generator: Adobe Illustrator 20.1.0, SVG Export Plug-In . SVG Version: 6.00 Build 0)  -->
<!DOCTYPE svg PUBLIC "-//W3C//DTD SVG 1.1//EN" "http://www.w3.org/Graphics/SVG/1.1/DTD/svg11.dtd">
<svg version="1.1" xmlns="http://www.w3.org/2000/svg" xmlns:xlink="http://www.w3.org/1999/xlink" x="0px" y="0px"
	 viewBox="0 0 64 64" style="enable-background:new 0 0 64 64;" xml:space="preserve">
<g id="credit-card">
</g>
<g id="tag">
	<g>
		<path d="M61.9,1.8c-1.3-1.3-3.1-2-4.8-2H41.5c-1.5,0-2.9,0.6-4,1.7L1.7,37.6c-2.2,2.2-2.2,5.9,0,8.1l16.8,16.9
			c1.1,1.1,2.5,1.7,4,1.7c1.5,0,3-0.6,4-1.7l35.8-36.1c1.1-1.1,1.6-2.4,1.6-3.8V6.3C64,4.7,63.2,3,61.9,1.8z M61,22.7
			c0,0.6-0.3,1.2-0.8,1.7L24.4,60.5c-1,1-2.8,1-3.8,0L3.8,43.6c-1-1-1-2.8,0-3.9L39.6,3.6c0.5-0.5,1.2-0.8,1.9-0.8h15.6
			c1,0,2,0.4,2.7,1.2C60.6,4.6,61,5.5,61,6.3V22.7z"/>
		<ellipse cx="48.2" cy="15.7" rx="4.1" ry="4.1"/>
	</g>
</g>
<g id="trolley">
</g>
<g id="trolley-out">
</g>
<g id="trolley-in">
</g>
<g id="wallet">
</g>
<g id="shopping-bag">
</g>
<g id="basket">
</g>
<g id="dollar-circle">
</g>
<g id="pound-circle">
</g>
<g id="euro-circle">
</g>
<g id="yen-circle">
</g>
<g id="purse">
</g>
<g id="banknote">
</g>
</svg>
