<?xml version="1.0" encoding="utf-8"?>
<!-- Generator: Adobe Illustrator 20.1.0, SVG Export Plug-In . SVG Version: 6.00 Build 0)  -->
<!DOCTYPE svg PUBLIC "-//W3C//DTD SVG 1.1//EN" "http://www.w3.org/Graphics/SVG/1.1/DTD/svg11.dtd">
<svg version="1.1" xmlns="http://www.w3.org/2000/svg" xmlns:xlink="http://www.w3.org/1999/xlink" x="0px" y="0px"
	 viewBox="0 0 64 64" style="enable-background:new 0 0 64 64;" xml:space="preserve">
<g id="behance">
</g>
<g id="twitter">
	<path d="M62.3,13.2c-2.2,1-4.6,1.6-7.1,2c2.6-1.5,4.5-4,5.5-6.9c-2.4,1.4-5.1,2.5-7.9,3c-2.3-2.4-5.5-3.9-9.1-3.9
		c-6.9,0-12.4,5.6-12.4,12.5c0,1,0.1,1.9,0.3,2.8c-10.3-0.5-19.5-5.5-25.6-13c-1.1,1.8-1.7,4-1.7,6.3c0,4.3,2.1,8.1,5.5,10.3
		c-2-0.1-3.7-0.6-5.7-1.6v0.1c0,6,4.4,11.1,10,12.2c-1,0.3-2.1,0.4-3.2,0.4c-0.8,0-1.6-0.1-2.3-0.2c1.6,4.9,6.2,8.5,11.6,8.6
		c-4.3,3.3-9.6,5.3-15.4,5.3c-1,0-2,0-3-0.2c5.5,3.5,12,5.6,19.1,5.6c22.9,0,35.4-19,35.4-35.4c0-0.5,0-1.1,0-1.6
		C58.5,17.9,60.6,15.7,62.3,13.2z"/>
</g>
<g id="vimeo">
</g>
<g id="wordpress">
</g>
<g id="Layer_179">
</g>
<g id="xing">
</g>
<g id="youtube">
</g>
<g id="whatsapp">
</g>
<g id="flickr">
</g>
<g id="dribbble">
</g>
<g id="facebook">
</g>
<g id="foursquare">
</g>
<g id="github">
</g>
<g id="github-alt">
</g>
<g id="google-plus">
</g>
<g id="google">
</g>
<g id="joomla">
</g>
<g id="soundcloud">
</g>
<g id="instagram">
</g>
<g id="linkedin">
</g>
<g id="pagekit">
</g>
<g id="pinterest">
</g>
<g id="windows">
</g>
<g id="bronzelabs">
</g>
<g id="apple">
</g>
<g id="android">
</g>
<g id="mwkr-alt">
</g>
<g id="mwkr">
</g>
<g id="deviantart">
</g>
<g id="deviantart-alt">
</g>
</svg>
