<?xml version="1.0" encoding="utf-8"?>
<!-- Generator: Adobe Illustrator 20.1.0, SVG Export Plug-In . SVG Version: 6.00 Build 0)  -->
<!DOCTYPE svg PUBLIC "-//W3C//DTD SVG 1.1//EN" "http://www.w3.org/Graphics/SVG/1.1/DTD/svg11.dtd">
<svg version="1.1" xmlns="http://www.w3.org/2000/svg" xmlns:xlink="http://www.w3.org/1999/xlink" x="0px" y="0px"
	 viewBox="0 0 64.1 64" style="enable-background:new 0 0 64.1 64;" xml:space="preserve">
<g id="bulb">
</g>
<g id="bulb-on">
</g>
<g id="bulb-alt">
</g>
<g id="bulb-on-alt">
</g>
<g id="energy-bulb">
</g>
<g id="toasting">
</g>
<g id="toasted">
</g>
<g id="binoculars">
</g>
<g id="gift">
</g>
<g id="shaver">
</g>
<g id="candle">
</g>
<g id="shower">
</g>
<g id="bomb">
</g>
<g id="joystick">
</g>
<g id="megaphone">
</g>
<g id="chestdraw">
</g>
<g id="armchair">
</g>
<g id="cardboard-box">
</g>
<g id="bath-shower">
</g>
<g id="diamond">
</g>
<g id="cassette">
</g>
<g id="iron">
</g>
<g id="wash">
</g>
<g id="keyboard-keys">
</g>
<g id="earphones">
</g>
<g id="lifebuoy">
</g>
<g id="calculator">
</g>
<g id="safe">
</g>
<g id="balloon">
</g>
<g id="cake">
</g>
<g id="baseball">
</g>
<g id="football-american">
</g>
<g id="football">
</g>
<g id="anchor">
</g>
<g id="compact-disc">
</g>
<g id="bbq">
</g>
<g id="coffee-machine">
</g>
<g id="teapot">
	<path d="M54.1,27.5c-1.5,0-2.9,0.3-4.3,1c-3-4.4-7.6-7.6-13-8.8c0.6-0.9,1-2,1-3.1c0-3.1-2.6-5.7-5.7-5.7c-3.1,0-5.7,2.5-5.7,5.7
		c0,1.2,0.4,2.2,1,3.1c-9.1,2-16,9.8-16.6,19.2c-3-0.7-5.6-3.6-5.6-6.7V28c0-2.7-1.5-4.6-3.6-4.6C0.7,23.4,0,24,0,24.9
		s0.7,1.5,1.5,1.5c0.3,0,0.6,0.8,0.6,1.6v4.2c0,4.7,3.9,9,8.6,9.7c0.3,3.9,1.7,7.8,4,10.7c0.3,0.4,0.7,0.6,1.2,0.6h32.5
		c0.5,0,0.9-0.2,1.2-0.6c1.3-1.6,2.2-3.5,2.9-5.5c0.6,0.1,1.1,0.2,1.7,0.2c5.5,0,9.9-4.4,9.9-9.8S59.6,27.5,54.1,27.5z M32,22.2
		c0.2,0,0.5,0,0.7,0c4.7,0.2,8.9,2,12,5H19.3c3.2-3,7.4-4.8,12-5C31.6,22.2,31.8,22.2,32,22.2z M29.3,16.5c0-1.5,1.2-2.7,2.7-2.7
		c1.5,0,2.7,1.2,2.7,2.7c0,1.3-0.9,2.4-2.2,2.6c-0.2,0-0.4,0-0.5,0s-0.4,0-0.5,0C30.3,18.9,29.3,17.8,29.3,16.5z M47.5,50.1h-31
		c-1.9-2.7-3-6.3-3-9.8c0-3.7,1.2-7.2,3.1-10.1h30.6c0.2,0.3,0.3,0.5,0.5,0.8c0,0.2,0.1,0.3,0.2,0.4c0.1,0.1,0.1,0.2,0.2,0.2
		c1.4,2.6,2.2,5.5,2.2,8.7C50.5,44,49.4,47.4,47.5,50.1z M54.1,44.2c-0.3,0-0.6,0-1-0.1c0.2-1.2,0.4-2.5,0.4-3.8
		c0-3.3-0.8-6.4-2.2-9.2c0.9-0.4,1.8-0.6,2.8-0.6c3.8,0,6.9,3.1,6.9,6.8S57.9,44.2,54.1,44.2z"/>
</g>
<g id="outdoor-stove">
</g>
<g id="pram">
</g>
<g id="paintbrush">
</g>
<g id="stamp">
</g>
<g id="eyedrop">
</g>
<g id="musical-note">
</g>
<g id="magnet">
</g>
<g id="alarm-bell">
</g>
<g id="globe">
</g>
<g id="key">
</g>
<g id="ink">
</g>
<g id="paperclip">
</g>
<g id="paint-roller">
</g>
<g id="keyboard">
</g>
</svg>
