<?xml version="1.0" encoding="utf-8"?>
<!-- Generator: Adobe Illustrator 20.1.0, SVG Export Plug-In . SVG Version: 6.00 Build 0)  -->
<!DOCTYPE svg PUBLIC "-//W3C//DTD SVG 1.1//EN" "http://www.w3.org/Graphics/SVG/1.1/DTD/svg11.dtd">
<svg version="1.1" xmlns="http://www.w3.org/2000/svg" xmlns:xlink="http://www.w3.org/1999/xlink" x="0px" y="0px"
	 viewBox="0 0 64 64" style="enable-background:new 0 0 64 64;" xml:space="preserve">
<g id="fairground">
</g>
<g id="tent">
</g>
<g id="tree">
</g>
<g id="trees">
</g>
<g id="tree-alt">
</g>
<g id="butterfly">
</g>
<g id="sunrise">
</g>
<g id="waterdrop">
</g>
<g id="map">
</g>
<g id="map-alt">
</g>
<g id="earth">
</g>
<g id="earth-no">
</g>
<g id="meteor">
</g>
<g id="sun">
</g>
<g id="sun-dim">
</g>
<g id="umbrella">
</g>
<g id="umbrella-alt">
</g>
<g id="gps">
</g>
<g id="fire">
</g>
<g id="target-sight">
	<g>
		<path d="M62.4,30.5h-2.5C59.3,16.2,47.8,4.6,33.5,3.9V1.6c0-0.8-0.7-1.5-1.5-1.5s-1.5,0.7-1.5,1.5v2.3C16.2,4.6,4.7,16.2,4.1,30.5
			H1.6c-0.8,0-1.5,0.7-1.5,1.5s0.7,1.5,1.5,1.5h2.5C5,47.6,16.4,58.9,30.5,59.6v2.8c0,0.8,0.7,1.5,1.5,1.5s1.5-0.7,1.5-1.5v-2.8
			c14.1-0.8,25.5-12,26.4-26.1h2.5c0.8,0,1.5-0.7,1.5-1.5S63.2,30.5,62.4,30.5z M33.5,56.6v-2.1c0-0.8-0.7-1.5-1.5-1.5
			s-1.5,0.7-1.5,1.5v2.1C18,55.9,8,45.9,7.1,33.5h2.4c0.8,0,1.5-0.7,1.5-1.5s-0.7-1.5-1.5-1.5H7.1C7.7,17.8,17.8,7.6,30.5,6.9v2.6
			c0,0.8,0.7,1.5,1.5,1.5s1.5-0.7,1.5-1.5V6.9c12.7,0.8,22.8,11,23.4,23.6h-2.4c-0.8,0-1.5,0.7-1.5,1.5s0.7,1.5,1.5,1.5h2.4
			C56,45.9,46,55.9,33.5,56.6z"/>
		<path d="M36,30.5h-2.5V28c0-0.8-0.7-1.5-1.5-1.5s-1.5,0.7-1.5,1.5v2.5H28c-0.8,0-1.5,0.7-1.5,1.5s0.7,1.5,1.5,1.5h2.5V36
			c0,0.8,0.7,1.5,1.5,1.5s1.5-0.7,1.5-1.5v-2.5H36c0.8,0,1.5-0.7,1.5-1.5S36.8,30.5,36,30.5z"/>
	</g>
</g>
<g id="gps-area">
</g>
<g id="gps-alt">
</g>
<g id="target">
</g>
<g id="star">
</g>
<g id="lightning">
</g>
</svg>
