<?xml version="1.0" encoding="utf-8"?>
<!-- Generator: Adobe Illustrator 20.1.0, SVG Export Plug-In . SVG Version: 6.00 Build 0)  -->
<!DOCTYPE svg PUBLIC "-//W3C//DTD SVG 1.1//EN" "http://www.w3.org/Graphics/SVG/1.1/DTD/svg11.dtd">
<svg version="1.1" xmlns="http://www.w3.org/2000/svg" xmlns:xlink="http://www.w3.org/1999/xlink" x="0px" y="0px"
	 viewBox="0 0 64 64" style="enable-background:new 0 0 64 64;" xml:space="preserve">
<g id="text-height">
</g>
<g id="font">
</g>
<g id="text">
</g>
<g id="italic">
</g>
<g id="strikethrough">
</g>
<g id="paragraph">
</g>
<g id="bold">
</g>
<g id="quote-right">
</g>
<g id="hashtag">
</g>
<g id="anchor-handle">
</g>
<g id="box">
</g>
<g id="fullscreen">
</g>
<g id="fullscreen-alt">
</g>
<g id="golden-ratio">
</g>
<g id="hexgrid">
</g>
<g id="box-points">
</g>
<g id="box-points-move">
</g>
<g id="box-points-move-alt">
</g>
<g id="hex_1_">
</g>
<g id="hex-diamond">
</g>
<g id="artboards-vertical">
</g>
<g id="artboards">
</g>
<g id="artboards-alt-vertical">
</g>
<g id="artboards-alt">
</g>
<g id="scale">
</g>
<g id="pencil">
</g>
<g id="fill">
</g>
<g id="artist-mug">
</g>
<g id="pen">
</g>
<g id="calligraphy-pen-tip">
</g>
<g id="calligraphy-pen_1_">
</g>
<g id="paint-pallette">
</g>
<g id="tools-cross">
</g>
<g id="edit-tools">
</g>
<g id="pencil-ruler">
</g>
<g id="ruler-measure">
</g>
<g id="measure">
</g>
<g id="code">
</g>
<g id="move">
</g>
<g id="external">
</g>
<g id="terminal">
</g>
<g id="thumbnails">
	<g>
		<path d="M24.2,0.6H1.5C0.7,0.6,0,1.3,0,2.1v22.2c0,0.8,0.7,1.5,1.5,1.5h22.7c0.8,0,1.5-0.7,1.5-1.5V2.1C25.7,1.3,25,0.6,24.2,0.6z
			 M22.7,22.9H3V3.6h19.7V22.9z"/>
		<path d="M62.5,0.6H39.8c-0.8,0-1.5,0.7-1.5,1.5v22.2c0,0.8,0.7,1.5,1.5,1.5h22.7c0.8,0,1.5-0.7,1.5-1.5V2.1
			C64,1.3,63.3,0.6,62.5,0.6z M61,22.9H41.3V3.6H61V22.9z"/>
		<path d="M62.5,38.1H39.8c-0.8,0-1.5,0.7-1.5,1.5v22.2c0,0.8,0.7,1.5,1.5,1.5h22.7c0.8,0,1.5-0.7,1.5-1.5V39.6
			C64,38.8,63.3,38.1,62.5,38.1z M61,60.4H41.3V41.1H61V60.4z"/>
		<path d="M24.2,38.1H1.5c-0.8,0-1.5,0.7-1.5,1.5v22.2c0,0.8,0.7,1.5,1.5,1.5h22.7c0.8,0,1.5-0.7,1.5-1.5V39.6
			C25.7,38.8,25,38.1,24.2,38.1z M22.7,60.4H3V41.1h19.7V60.4z"/>
	</g>
</g>
</svg>
