<?xml version="1.0" encoding="utf-8"?>
<!-- Generator: Adobe Illustrator 20.1.0, SVG Export Plug-In . SVG Version: 6.00 Build 0)  -->
<!DOCTYPE svg PUBLIC "-//W3C//DTD SVG 1.1//EN" "http://www.w3.org/Graphics/SVG/1.1/DTD/svg11.dtd">
<svg version="1.1" xmlns="http://www.w3.org/2000/svg" xmlns:xlink="http://www.w3.org/1999/xlink" x="0px" y="0px"
	 viewBox="0 0 64 64" style="enable-background:new 0 0 64 64;" xml:space="preserve">
<g id="fairground">
</g>
<g id="tent">
	<path d="M63.7,58.6L33.8,16.2l7.5-10.7c0.5-0.7,0.3-1.6-0.4-2.1c-0.7-0.5-1.6-0.3-2.1,0.4L32,13.6l-6.9-9.8
		c-0.5-0.7-1.4-0.8-2.1-0.4c-0.7,0.5-0.8,1.4-0.4,2.1l7.5,10.7L0.3,58.6c-0.3,0.5-0.4,1.1-0.1,1.6C0.4,60.7,0.9,61,1.5,61h61
		c0.6,0,1.1-0.3,1.3-0.8C64.1,59.7,64,59.1,63.7,58.6z M29.9,21.7L21.6,51H9.3L29.9,21.7z M32,25.5L41.3,58H22.7L32,25.5z M34,21.7
		L54.7,51H42.4L34,21.7z M7.2,54h13.5l-1.1,4H4.4L7.2,54z M44.4,58l-1.1-4h13.5l2.8,4H44.4z"/>
</g>
<g id="tree">
</g>
<g id="trees">
</g>
<g id="tree-alt">
</g>
<g id="butterfly">
</g>
<g id="sunrise">
</g>
<g id="waterdrop">
</g>
<g id="map">
</g>
<g id="map-alt">
</g>
<g id="earth">
</g>
<g id="earth-no">
</g>
<g id="meteor">
</g>
<g id="sun">
</g>
<g id="sun-dim">
</g>
<g id="umbrella">
</g>
<g id="umbrella-alt">
</g>
<g id="gps">
</g>
<g id="fire">
</g>
<g id="target-sight">
</g>
<g id="gps-area">
</g>
<g id="gps-alt">
</g>
<g id="target">
</g>
<g id="star">
</g>
<g id="lightning">
</g>
</svg>
