<?xml version="1.0" encoding="utf-8"?>
<!-- Generator: Adobe Illustrator 20.1.0, SVG Export Plug-In . SVG Version: 6.00 Build 0)  -->
<!DOCTYPE svg PUBLIC "-//W3C//DTD SVG 1.1//EN" "http://www.w3.org/Graphics/SVG/1.1/DTD/svg11.dtd">
<svg version="1.1" xmlns="http://www.w3.org/2000/svg" xmlns:xlink="http://www.w3.org/1999/xlink" x="0px" y="0px"
	 viewBox="0 0 64 64" style="enable-background:new 0 0 64 64;" xml:space="preserve">
<g id="truck">
	<path d="M64,34.7C63.9,34.6,63.9,34.6,64,34.7c-0.1-0.2-0.1-0.3-0.2-0.4c0,0,0,0,0,0c-0.1-0.1-0.2-0.2-0.3-0.3c0,0,0,0-0.1-0.1
		c-0.1-0.1-0.2-0.2-0.3-0.2l-3.4-1.4L57,23.1c-0.2-0.6-0.8-1.1-1.4-1.1h-15c-0.8,0-1.5,0.7-1.5,1.5V37H9v-8c2.6,1.1,5.3,2.1,8,2.9
		c5.6,1.6,11.4,2.5,17.2,2.7l0.3,0c0,0,0,0,0,0c0.7,0,1.3-0.5,1.4-1.1l3.5-12.8c0.2-0.7-0.1-1.3-0.7-1.7l-0.2-0.1
		c-5.1-3-10.5-5.3-16.1-6.9C17,10.2,11.2,9.3,5.3,9.2l-0.3,0c-0.7,0-1.3,0.4-1.5,1.1L0.1,23.1c-0.2,0.7,0.1,1.3,0.7,1.7L1,24.9
		c1.6,1,3.3,1.9,5.1,2.7v10.9C6,39.3,6.7,40,7.5,40h8c-2.4,0.7-4.2,2.6-5,5H4c-0.8,0-1.5,0.7-1.5,1.5S3.2,48,4,48h6.2
		c0.4,3.8,3.6,6.8,7.6,6.8s7.2-3,7.6-6.8h13.4c0.4,3.8,3.6,6.8,7.6,6.8s7.2-3,7.6-6.8h8.7c0.8,0,1.5-0.7,1.5-1.5V35.1
		C64,34.9,64,34.8,64,34.7z M6.2,12.2c5.3,0.2,10.5,1.1,15.6,2.5c5.1,1.5,10,3.5,14.6,6.2l-2.9,10.6C28.2,31.3,23,30.4,17.9,29
		c-5.1-1.5-10-3.5-14.6-6.2L6.2,12.2z M57,33.6h-4.9L48.5,25h5.9L57,33.6z M17.8,51.8c-2.5,0-4.6-2.1-4.6-4.6c0-2.5,2.1-4.6,4.6-4.6
		c2.5,0,4.6,2.1,4.6,4.6C22.4,49.8,20.3,51.8,17.8,51.8z M46.3,51.8c-2.5,0-4.6-2.1-4.6-4.6c0-2.5,2.1-4.6,4.6-4.6
		c2.5,0,4.6,2.1,4.6,4.6C50.9,49.8,48.8,51.8,46.3,51.8z M53.5,45c-1-3.1-3.9-5.3-7.3-5.3S40,41.9,39,45h-14c-0.7-2.4-2.6-4.2-5-5
		h20.5c0.8,0,1.5-0.7,1.5-1.5V25h3.2l4.5,10.6c0.2,0.6,0.8,0.9,1.4,0.9H61V45H53.5z"/>
</g>
<g id="car">
</g>
<g id="taxi">
</g>
<g id="rocket">
</g>
<g id="tardis">
</g>
<g id="bus">
</g>
<g id="tram">
</g>
<g id="speedo">
</g>
<g id="air-machine">
</g>
<g id="speedo-alt">
</g>
<g id="motorcycle">
</g>
<g id="car-battery">
</g>
<g id="ufo">
</g>
<g id="arrivals">
</g>
<g id="petrol-pump">
</g>
<g id="gear-shift">
</g>
<g id="car-battery-alt">
</g>
<g id="road">
</g>
<g id="siren">
</g>
<g id="plane">
</g>
<g id="lorry">
</g>
<g id="train">
</g>
<g id="forklift">
</g>
<g id="bicycle">
</g>
<g id="underground">
</g>
<g id="paper-plane">
</g>
<g id="hotair-balloon">
</g>
</svg>
