<?xml version="1.0" encoding="utf-8"?>
<!-- Generator: Adobe Illustrator 20.1.0, SVG Export Plug-In . SVG Version: 6.00 Build 0)  -->
<!DOCTYPE svg PUBLIC "-//W3C//DTD SVG 1.1//EN" "http://www.w3.org/Graphics/SVG/1.1/DTD/svg11.dtd">
<svg version="1.1" xmlns="http://www.w3.org/2000/svg" xmlns:xlink="http://www.w3.org/1999/xlink" x="0px" y="0px"
	 viewBox="0 0 64 64" style="enable-background:new 0 0 64 64;" xml:space="preserve">
<g id="suitcase">
</g>
<g id="backpack">
</g>
<g id="chef-hat">
</g>
<g id="work-jacket">
</g>
<g id="tshirt">
	<path d="M63.7,25L51.6,8.4c-0.2-0.3-0.4-0.6-0.8-0.7l-14-5.6C36.7,2,36.5,2,36.3,2h-8.6c-0.2,0-0.4,0-0.5,0.1l-14,5.5
		c-0.4,0.2-0.7,0.4-0.8,0.8L0.3,25C0,25.4-0.1,25.8,0,26.2c0.1,0.4,0.3,0.8,0.7,1L11,33.3c0.2,0.1,0.5,0.2,0.8,0.2
		c0.4,0,0.9-0.2,1.2-0.6l3.3-4.2c0.6,5.4,0.9,10.9,0.7,16.4l0,1.2c-0.1,4.7-0.2,9.1-2.5,13.4c-0.2,0.5-0.2,1,0,1.5
		c0.3,0.5,0.8,0.7,1.3,0.7h32.5c0.5,0,1-0.3,1.3-0.7c0.3-0.5,0.3-1,0-1.5c-2.3-4.3-2.4-8.7-2.5-13.4l0-1.2c-0.2-5.5,0.1-11,0.7-16.5
		l3.3,4.2c0.3,0.4,0.7,0.6,1.2,0.6c0.3,0,0.5-0.1,0.8-0.2l10.2-6.1c0.4-0.2,0.6-0.6,0.7-1C64.1,25.8,64,25.4,63.7,25z M28,5h8
		l0.7,0.3c0,0.1-0.1,0.3-0.1,0.4c0,6.1-2.4,10.7-4.6,10.7s-4.6-4.6-4.6-10.7c0-0.1,0-0.3-0.1-0.4L28,5z M11.4,30l-7.7-4.6l9.4-13
		c1.1,4,2,8.1,2.6,12.2L11.4,30z M18.1,59c1.7-4.2,1.8-8.4,1.9-12.5l0-1.2c0.2-6.8-0.2-13.6-1.2-20.3c0-0.1,0-0.1,0-0.2
		c-0.8-5-1.8-10-3.2-14.8l8.9-3.5c0.2,7.4,3.4,12.9,7.6,12.9c4.2,0,7.4-5.5,7.6-12.9l8.9,3.5c-1.4,4.8-2.5,9.8-3.2,14.7
		c0,0.1,0,0.2,0,0.3c-1,6.7-1.4,13.5-1.2,20.3l0,1.2c0.1,4.1,0.2,8.3,1.9,12.5H18.1z M52.6,30l-4.3-5.4c0.6-4.1,1.5-8.2,2.6-12.2
		l9.4,13L52.6,30z"/>
</g>
<g id="handbag">
</g>
<g id="coat-hanger">
</g>
<g id="measuring-tape">
</g>
<g id="pants">
</g>
<g id="t-shirt-ale">
</g>
<g id="watch">
</g>
<g id="glasses">
</g>
<g id="graduation-hat">
</g>
<g id="scuba-gear">
</g>
<g id="shoe">
</g>
<g id="crown">
</g>
<g id="wand">
</g>
<g id="crown-alt">
</g>
</svg>
