<?xml version="1.0" encoding="utf-8"?>
<!-- Generator: Adobe Illustrator 20.1.0, SVG Export Plug-In . SVG Version: 6.00 Build 0)  -->
<!DOCTYPE svg PUBLIC "-//W3C//DTD SVG 1.1//EN" "http://www.w3.org/Graphics/SVG/1.1/DTD/svg11.dtd">
<svg version="1.1" xmlns="http://www.w3.org/2000/svg" xmlns:xlink="http://www.w3.org/1999/xlink" x="0px" y="0px"
	 viewBox="0 0 64 64" style="enable-background:new 0 0 64 64;" xml:space="preserve">
<style type="text/css">
	.st0{fill:none;stroke:#000000;stroke-width:3;stroke-linecap:round;stroke-linejoin:round;}
</style>
<g id="cupcake">
</g>
<g id="turkey">
	<g>
		<path d="M62.4,36.7c-1.8-4.1-4.5-7.4-8.3-10.3c-3.5-2.6-7.3-4.5-11.5-5.7c-8.4-2.4-18.7-0.3-22.3,8.6c-0.1,0.3-0.2,0.6-0.4,0.9
			c-0.4,0.9-0.8,1.8-1.3,2.7c-1.9-0.1-3.6-0.4-5.2-0.9c-0.6-0.2-1.2-0.4-1.8-0.7c-1.1-0.4-2.1-0.9-3.3-1.1c-2.4-0.6-4.7-0.2-6.3,1
			c-1.9,1.5-3,4.6-1.5,7c1.3,2.1,3.6,2.4,5.4,2.7c1.7,0.2,3.4,0.6,5.2,1.1c-0.6,0.5-1.1,1-1.6,1.7c-2.1,3.1-2,7.6,0.2,10.9
			c3.9,5.7,11.2,7.5,16.3,8.3c2.2,0.4,4.5,0.5,6.8,0.5c3.7,0,7.5-0.4,11.2-1.3c5.7-1.3,11-4.2,15.3-8.2c2.6-2.4,3.9-4.9,4.3-8
			C64.2,42.9,63.7,39.7,62.4,36.7z M3.2,36.7c-0.5-0.8-0.1-2.3,0.8-3c1.2-0.9,2.9-0.7,3.8-0.5c0.9,0.2,1.9,0.6,2.9,1
			c0.6,0.3,1.3,0.5,1.9,0.7c2.1,0.7,4.5,1.1,7,1.1c0.7,0,1.4,0,2.1,0c1.7-0.1,3.5-0.3,5.2-0.6c1.9-0.3,3.7-0.5,5.5-0.6
			c3.9-0.1,7,0.7,9.2,2.5c2.2,1.8,4,5.4,2.8,8.7c-0.8,2.2-2.9,3.9-5.4,4.3c-2.2,0.3-4.6-0.2-7.4-1.5c-1.6-0.8-3.1-1.8-4.8-2.8
			c-0.9-0.6-1.7-1.1-2.6-1.6c-2.9-1.7-6-3.1-9.3-4.2c-2.9-1-5.7-1.7-8.5-2.1C4.9,37.7,3.7,37.5,3.2,36.7z M60.9,45.5
			c-0.3,2.4-1.3,4.3-3.4,6.2c-4,3.7-8.8,6.3-14,7.5C37.8,60.6,32,60.8,26.7,60c-4.6-0.7-11.1-2.3-14.3-7c-1.6-2.3-1.7-5.4-0.2-7.5
			c0.5-0.7,1.2-1.2,2-1.9c0.2-0.1,0.4-0.3,0.6-0.4c2.8,1,5.5,2.2,8,3.7c0.9,0.5,1.7,1,2.5,1.6c1.6,1,3.3,2.1,5,2.9
			c2.6,1.3,5.1,1.9,7.4,1.9c0.6,0,1.2,0,1.8-0.1c3.6-0.6,6.6-3,7.7-6.2c1.6-4.6-0.7-9.5-3.8-12c-2.8-2.2-6.6-3.3-11.2-3.1
			c-2,0.1-3.9,0.3-5.8,0.6c-1.4,0.2-2.9,0.4-4.3,0.5c0.2-0.5,0.5-1,0.7-1.5c0.1-0.3,0.2-0.6,0.4-0.9c2.9-7.2,11.6-8.9,18.7-6.9
			c3.8,1.1,7.3,2.9,10.5,5.2c3.5,2.6,5.8,5.4,7.4,9.1C60.8,40.4,61.2,43.1,60.9,45.5z"/>
		<path d="M23.5,17.4c0.3,0.2,0.6,0.3,0.9,0.3c0.5,0,0.9-0.2,1.2-0.6c0.5-0.7,0.4-1.6-0.3-2.1c-0.4-0.3-0.7-0.8-0.8-1.5
			c-0.2-0.7-0.1-1.6,0.1-2.2c0.1-0.5,0.4-0.9,0.7-1.4c0.3-0.5,0.6-1.1,0.8-1.7c0.8-2.4,0.3-5.5-1.2-7.2c-0.6-0.6-1.5-0.6-2.1-0.1
			C22,1.5,22,2.4,22.5,3.1c0.8,0.9,1.1,2.8,0.6,4.2c-0.1,0.4-0.4,0.9-0.6,1.3c-0.3,0.6-0.6,1.2-0.9,1.9c-0.4,1.2-0.4,2.6-0.1,3.8
			C21.9,15.6,22.5,16.7,23.5,17.4z"/>
		<path d="M31.6,17.4c0.3,0.2,0.6,0.3,0.9,0.3c0.5,0,0.9-0.2,1.2-0.6c0.5-0.7,0.4-1.6-0.3-2.1c-0.4-0.3-0.7-0.8-0.8-1.5
			c-0.2-0.7-0.1-1.6,0.1-2.2c0.1-0.5,0.4-0.9,0.7-1.4c0.3-0.5,0.6-1.1,0.8-1.7C35,5.8,34.4,2.7,32.9,1c-0.6-0.6-1.5-0.6-2.1-0.1
			c-0.6,0.6-0.6,1.5-0.1,2.1c0.8,0.9,1.1,2.8,0.6,4.2c-0.1,0.4-0.4,0.9-0.6,1.3c-0.3,0.6-0.6,1.2-0.9,1.9c-0.4,1.2-0.4,2.6-0.1,3.8
			C30,15.6,30.7,16.7,31.6,17.4z"/>
		<path d="M39.7,17.4c0.3,0.2,0.6,0.3,0.9,0.3c0.5,0,0.9-0.2,1.2-0.6c0.5-0.7,0.4-1.6-0.3-2.1c-0.4-0.3-0.7-0.8-0.8-1.5
			c-0.2-0.7-0.1-1.6,0.1-2.2c0.1-0.5,0.4-0.9,0.7-1.4c0.3-0.5,0.6-1.1,0.8-1.7C43.1,5.8,42.6,2.7,41,1c-0.6-0.6-1.5-0.6-2.1-0.1
			c-0.6,0.6-0.6,1.5-0.1,2.1c0.8,0.9,1.1,2.8,0.6,4.2c-0.1,0.4-0.4,0.9-0.6,1.3c-0.3,0.6-0.6,1.2-0.9,1.9c-0.4,1.2-0.4,2.6-0.1,3.8
			C38.1,15.6,38.8,16.7,39.7,17.4z"/>
	</g>
</g>
<g id="hot-service">
</g>
<g id="mug">
</g>
<g id="mug-hot">
</g>
<g id="bottle">
</g>
<g id="cherries">
</g>
<g id="cocktail">
</g>
<g id="cocktail-alt">
</g>
<g id="wine-glass">
</g>
<g id="wine-glass-alt">
</g>
<g id="aubergine">
</g>
<g id="lettuce-leaf">
</g>
<g id="cup">
</g>
<g id="noodles">
</g>
<g id="icelolly">
</g>
<g id="cutlery">
</g>
<g id="hotdog">
</g>
</svg>
