<?xml version="1.0" encoding="utf-8"?>
<!-- Generator: Adobe Illustrator 20.1.0, SVG Export Plug-In . SVG Version: 6.00 Build 0)  -->
<!DOCTYPE svg PUBLIC "-//W3C//DTD SVG 1.1//EN" "http://www.w3.org/Graphics/SVG/1.1/DTD/svg11.dtd">
<svg version="1.1" xmlns="http://www.w3.org/2000/svg" xmlns:xlink="http://www.w3.org/1999/xlink" x="0px" y="0px"
	 viewBox="0 0 64 64" style="enable-background:new 0 0 64 64;" xml:space="preserve">
<g id="text-height">
	<g>
		<path d="M51.1,13.2c0.4,0,0.8-0.1,1.1-0.4l3.1-3.1l-0.1,14.7c0,0.8,0.7,1.5,1.5,1.5c0,0,0,0,0,0c0.8,0,1.5-0.7,1.5-1.5l0.1-14.7
			l3.2,3.2c0.3,0.3,0.7,0.4,1.1,0.4s0.8-0.1,1.1-0.4c0.6-0.6,0.6-1.5,0-2.1l-5.7-5.7c0,0,0,0,0,0c-0.1-0.1-0.3-0.2-0.5-0.3
			c0,0,0,0,0,0c-0.2-0.1-0.3-0.1-0.5-0.1c0,0,0,0,0,0c-0.2,0-0.4,0-0.5,0.1c0,0,0,0,0,0c-0.2,0.1-0.4,0.2-0.5,0.3c0,0,0,0,0,0
			L50,10.6c-0.6,0.6-0.6,1.5,0,2.1C50.3,13,50.7,13.2,51.1,13.2z"/>
		<path d="M61.4,44.2l-3.1,3.1l0.1-14.7c0-0.8-0.7-1.5-1.5-1.5c0,0,0,0,0,0c-0.8,0-1.5,0.7-1.5,1.5l-0.1,14.7l-3.2-3.2
			c-0.6-0.6-1.5-0.6-2.1,0c-0.6,0.6-0.6,1.5,0,2.1l5.7,5.7c0,0,0,0,0,0c0.1,0.1,0.3,0.2,0.5,0.3c0,0,0,0,0,0c0,0,0,0,0,0
			c0.2,0.1,0.3,0.1,0.5,0.1c0,0,0,0,0,0c0.2,0,0.4,0,0.5-0.1c0,0,0,0,0,0c0,0,0,0,0,0c0.2-0.1,0.4-0.2,0.5-0.3c0,0,0,0,0,0l5.7-5.7
			c0.6-0.6,0.6-1.5,0-2.1C63,43.6,62,43.6,61.4,44.2z"/>
		<path d="M0,16.1h2.5c0.1-2.5,0.7-4.6,1.6-5.9C5,8.9,6.1,8.3,7.3,8c1.2-0.3,2.7-0.5,4.6-0.5h4.1v44.3c0,1.9-0.3,3.2-1,4
			c-0.8,0.8-2.6,1.2-5.1,1.2v3.2h22.1V57c-1.2,0-3.1-0.2-4-0.6c-1-0.4-1.4-0.9-1.7-1.6c-0.3-0.7-0.4-1.7-0.4-3V7.5h5.6
			c1.4,0,2.6,0.1,3.7,0.4c1.1,0.3,2,1.1,3,2.4c0.9,1.3,1.5,3.4,1.8,5.8h3.1V3.8H0V16.1z"/>
	</g>
</g>
<g id="font">
</g>
<g id="text">
</g>
<g id="italic">
</g>
<g id="strikethrough">
</g>
<g id="paragraph">
</g>
<g id="bold">
</g>
<g id="quote-right">
</g>
<g id="hashtag">
</g>
<g id="anchor-handle">
</g>
<g id="box">
</g>
<g id="fullscreen">
</g>
<g id="fullscreen-alt">
</g>
<g id="golden-ratio">
</g>
<g id="hexgrid">
</g>
<g id="box-points">
</g>
<g id="box-points-move">
</g>
<g id="box-points-move-alt">
</g>
<g id="hex_1_">
</g>
<g id="hex-diamond">
</g>
<g id="artboards-vertical">
</g>
<g id="artboards">
</g>
<g id="artboards-alt-vertical">
</g>
<g id="artboards-alt">
</g>
<g id="scale">
</g>
<g id="pencil">
</g>
<g id="fill">
</g>
<g id="artist-mug">
</g>
<g id="pen">
</g>
<g id="calligraphy-pen-tip">
</g>
<g id="calligraphy-pen_1_">
</g>
<g id="paint-pallette">
</g>
<g id="tools-cross">
</g>
<g id="edit-tools">
</g>
<g id="pencil-ruler">
</g>
<g id="ruler-measure">
</g>
<g id="measure">
</g>
<g id="code">
</g>
<g id="move">
</g>
<g id="external">
</g>
<g id="terminal">
</g>
<g id="thumbnails">
</g>
</svg>
