<?xml version="1.0" encoding="utf-8"?>
<!-- Generator: Adobe Illustrator 20.1.0, SVG Export Plug-In . SVG Version: 6.00 Build 0)  -->
<!DOCTYPE svg PUBLIC "-//W3C//DTD SVG 1.1//EN" "http://www.w3.org/Graphics/SVG/1.1/DTD/svg11.dtd">
<svg version="1.1" xmlns="http://www.w3.org/2000/svg" xmlns:xlink="http://www.w3.org/1999/xlink" x="0px" y="0px"
	 viewBox="0 0 64.5 64" style="enable-background:new 0 0 64.5 64;" xml:space="preserve">
<g id="home">
</g>
<g id="shop">
</g>
<g id="buildings">
</g>
<g id="solar-panel">
</g>
<g id="towers">
	<path d="M62.5,55.8h-13v-25c0-0.7-0.5-1.3-1.2-1.5c-0.1,0-1.1-0.2-2.8-0.4V18.8c0-0.8-0.7-1.5-1.5-1.5s-1.5,0.7-1.5,1.5v9.9
		c-0.6,0-1.3,0-2-0.1v-4.8c0-0.8-0.7-1.5-1.5-1.5s-1.5,0.7-1.5,1.5v4.9c-1.7,0.1-3,0.2-4,0.3V17.8c0-0.7-0.5-1.3-1.1-1.5
		c-0.1,0-2.1-0.5-5.9-0.7V6.8c0-0.8-0.7-1.5-1.5-1.5s-1.5,0.7-1.5,1.5v8.9c-0.7,0-1.4,0-2,0.1v-4c0-0.8-0.7-1.5-1.5-1.5
		s-1.5,0.7-1.5,1.5V16c-1.3,0.2-1.9,0.4-1.9,0.4c-0.6,0.2-1.1,0.8-1.1,1.4v37.9h-14c-0.8,0-1.5,0.7-1.5,1.5s0.7,1.5,1.5,1.5H17h15
		h16h14.5c0.8,0,1.5-0.7,1.5-1.5S63.3,55.8,62.5,55.8z M18.5,19c1.1-0.2,3-0.4,5.8-0.4c2.9,0,5,0.2,6.2,0.4v11.7v25h-12V19z
		 M33.5,55.8V32c1.2-0.2,3.4-0.4,6.3-0.4c3,0,5.4,0.3,6.7,0.4v23.7H33.5z"/>
</g>
<g id="stadium">
</g>
<g id="station">
</g>
<g id="shop-alt">
</g>
<g id="home-alt">
</g>
<g id="factory">
</g>
<g id="rig">
</g>
<g id="shipping-container">
</g>
<g id="official-building">
</g>
</svg>
