<?xml version="1.0" encoding="utf-8"?>
<!-- Generator: Adobe Illustrator 20.1.0, SVG Export Plug-In . SVG Version: 6.00 Build 0)  -->
<!DOCTYPE svg PUBLIC "-//W3C//DTD SVG 1.1//EN" "http://www.w3.org/Graphics/SVG/1.1/DTD/svg11.dtd">
<svg version="1.1" xmlns="http://www.w3.org/2000/svg" xmlns:xlink="http://www.w3.org/1999/xlink" x="0px" y="0px"
	 viewBox="0 0 64 64" style="enable-background:new 0 0 64 64;" xml:space="preserve">
<g id="truck">
</g>
<g id="car">
</g>
<g id="taxi">
</g>
<g id="rocket">
</g>
<g id="tardis">
</g>
<g id="bus">
</g>
<g id="tram">
</g>
<g id="speedo">
</g>
<g id="air-machine">
</g>
<g id="speedo-alt">
</g>
<g id="motorcycle">
</g>
<g id="car-battery">
</g>
<g id="ufo">
</g>
<g id="arrivals">
</g>
<g id="petrol-pump">
</g>
<g id="gear-shift">
</g>
<g id="car-battery-alt">
</g>
<g id="road">
</g>
<g id="siren">
</g>
<g id="plane">
</g>
<g id="lorry">
</g>
<g id="train">
	<g>
		<path d="M52.1,30.5V15.3c0-1.4-1.1-2.5-2.5-2.5H14.4c-1.4,0-2.5,1.1-2.5,2.5v15.1c0,1.4,1.1,2.5,2.5,2.5h35.3
			C51,33,52.1,31.8,52.1,30.5z M49.1,30H14.9V15.8h34.3V30z"/>
		<ellipse cx="19" cy="40.9" rx="3.5" ry="3.5"/>
		<ellipse cx="45" cy="40.9" rx="3.5" ry="3.5"/>
		<path d="M63.4,61.3L50,51.7c4.7-1.4,8.2-5.8,8.2-11V11.5C58.2,5.2,53,0,46.7,0H17.3C11,0,5.8,5.2,5.8,11.5v29.2
			c0,5.2,3.4,9.6,8.2,11L0.6,61.3C0,61.7-0.2,62.3,0,63c0.2,0.6,0.8,1,1.4,1h61.1c0.7,0,1.2-0.4,1.4-1C64.2,62.3,64,61.7,63.4,61.3z
			 M48.9,54.6H15.1l3.3-2.4h27.2L48.9,54.6z M8.8,40.7V11.5c0-4.7,3.8-8.5,8.5-8.5h29.4c4.7,0,8.5,3.8,8.5,8.5v29.2
			c0,4.7-3.8,8.5-8.5,8.5h-0.6H17.9h-0.6C12.6,49.2,8.8,45.4,8.8,40.7z M6.1,61l4.8-3.4h42.2l4.8,3.4H6.1z"/>
	</g>
</g>
<g id="forklift">
</g>
<g id="bicycle">
</g>
<g id="underground">
</g>
<g id="paper-plane">
</g>
<g id="hotair-balloon">
</g>
</svg>
