<?xml version="1.0" encoding="utf-8"?>
<!-- Generator: Adobe Illustrator 20.1.0, SVG Export Plug-In . SVG Version: 6.00 Build 0)  -->
<!DOCTYPE svg PUBLIC "-//W3C//DTD SVG 1.1//EN" "http://www.w3.org/Graphics/SVG/1.1/DTD/svg11.dtd">
<svg version="1.1" xmlns="http://www.w3.org/2000/svg" xmlns:xlink="http://www.w3.org/1999/xlink" x="0px" y="0px"
	 viewBox="0 0 64 64" style="enable-background:new 0 0 64 64;" xml:space="preserve">
<g id="suitcase">
</g>
<g id="backpack">
</g>
<g id="chef-hat">
</g>
<g id="work-jacket">
</g>
<g id="tshirt">
</g>
<g id="handbag">
</g>
<g id="coat-hanger">
</g>
<g id="measuring-tape">
</g>
<g id="pants">
</g>
<g id="t-shirt-ale">
	<path d="M62,12.7C62,12.7,62,12.7,62,12.7l-9.5-7.6C51.6,4.4,50.4,4,49.2,4H43c-0.1,0-0.2,0-0.3,0L32,6.1L21.3,4
		c-0.1,0-0.2,0-0.3,0h-6.2c-1.3,0-2.4,0.4-3.3,1.1L2,12.7c-1.7,1.4-2.4,3.7-1.7,5.8l3.8,11.4c0.5,1.6,1.8,2.8,3.3,3.3
		c0.6,0.2,1.4,0.3,2,0.3c0.2,0,0.4,0,0.6,0v21.3c0,3.1,2,5.2,4.8,5.2h34.3c2.9,0,4.8-2.1,4.8-5.2V33.5c0.8,0.1,1.8,0,2.5-0.2
		c1.6-0.5,2.9-1.8,3.4-3.3l3.8-11.4C64.4,16.4,63.8,14,62,12.7z M31.7,9.1c0.2,0,0.4,0,0.6,0l8.3-1.6c-1.8,3.9-5.3,11.3-8.6,11.3
		c-3.2,0-6.9-7.6-8.6-11.3L31.7,9.1z M60.9,17.5L57,28.9c-0.2,0.7-0.8,1.2-1.5,1.5c-0.2,0.1-0.6,0.1-0.9,0.1c-0.4,0-0.7-0.1-1.6-0.4
		c-0.5-0.2-1-0.1-1.4,0.2C51.3,30.5,51,31,51,31.5v23.3c0,0.5-0.1,2.2-1.8,2.2H14.9c-1.7,0-1.8-1.5-1.8-2.2V31.5
		c0-0.5-0.2-0.9-0.6-1.2c-0.3-0.2-0.6-0.3-0.9-0.3c-0.2,0-0.3,0-0.5,0.1c-0.9,0.3-1.2,0.4-1.6,0.4c-0.4,0-0.8-0.1-1-0.1
		c-0.7-0.2-1.2-0.8-1.4-1.4L3.1,17.5c-0.3-0.9,0-1.9,0.8-2.5l9.5-7.6c0.5-0.4,1-0.5,1.4-0.5h5.1c0.1,0.3,0.3,0.6,0.5,1
		c3,6.7,6.6,13.8,11.6,13.8c5,0,8.6-7.1,11.6-13.7c0.2-0.4,0.3-0.8,0.5-1.1h5.1c0.4,0,1,0.1,1.5,0.5l9.5,7.6
		C60.9,15.6,61.2,16.6,60.9,17.5z"/>
</g>
<g id="watch">
</g>
<g id="glasses">
</g>
<g id="graduation-hat">
</g>
<g id="scuba-gear">
</g>
<g id="shoe">
</g>
<g id="crown">
</g>
<g id="wand">
</g>
<g id="crown-alt">
</g>
</svg>
