<?xml version="1.0" encoding="utf-8"?>
<!-- Generator: Adobe Illustrator 20.1.0, SVG Export Plug-In . SVG Version: 6.00 Build 0)  -->
<!DOCTYPE svg PUBLIC "-//W3C//DTD SVG 1.1//EN" "http://www.w3.org/Graphics/SVG/1.1/DTD/svg11.dtd">
<svg version="1.1" xmlns="http://www.w3.org/2000/svg" xmlns:xlink="http://www.w3.org/1999/xlink" x="0px" y="0px"
	 viewBox="0 0 64.1 64" style="enable-background:new 0 0 64.1 64;" xml:space="preserve">
<g id="credit-card">
</g>
<g id="tag">
</g>
<g id="trolley">
</g>
<g id="trolley-out">
</g>
<g id="trolley-in">
	<g>
		<ellipse cx="26.3" cy="58" rx="4.7" ry="4.7"/>
		<ellipse cx="46.6" cy="58" rx="4.7" ry="4.7"/>
		<path d="M63,19.9c-0.8-0.3-1.6,0.2-1.9,0.9L54.7,40h-34l-6.8-27.6c-0.1-0.4-0.3-0.7-0.7-0.9L2.3,4.9C1.6,4.4,0.7,4.6,0.2,5.4
			C-0.2,6.1,0,7,0.7,7.4L11,13.8l7,28.1c0.2,0.7,0.8,1.1,1.5,1.1h36.3c0.6,0,1.2-0.4,1.4-1L64,21.8C64.3,21,63.8,20.1,63,19.9z"/>
		<path d="M36.5,33.2c0.3,0.3,0.7,0.5,1.1,0.5s0.8-0.2,1.1-0.5l11.5-13.1c0.5-0.6,0.5-1.6-0.1-2.1c-0.6-0.5-1.6-0.5-2.1,0.1
			l-8.8,10.1V3c0-0.8-0.7-1.5-1.5-1.5S36.1,2.2,36.1,3v25.2l-8.8-10.1c-0.5-0.6-1.5-0.7-2.1-0.1c-0.6,0.5-0.7,1.5-0.1,2.1L36.5,33.2
			z"/>
	</g>
</g>
<g id="wallet">
</g>
<g id="shopping-bag">
</g>
<g id="basket">
</g>
<g id="dollar-circle">
</g>
<g id="pound-circle">
</g>
<g id="euro-circle">
</g>
<g id="yen-circle">
</g>
<g id="purse">
</g>
<g id="banknote">
</g>
</svg>
