<?xml version="1.0" encoding="utf-8"?>
<!-- Generator: Adobe Illustrator 20.1.0, SVG Export Plug-In . SVG Version: 6.00 Build 0)  -->
<!DOCTYPE svg PUBLIC "-//W3C//DTD SVG 1.1//EN" "http://www.w3.org/Graphics/SVG/1.1/DTD/svg11.dtd">
<svg version="1.1" xmlns="http://www.w3.org/2000/svg" xmlns:xlink="http://www.w3.org/1999/xlink" x="0px" y="0px"
	 viewBox="0 0 64 64" style="enable-background:new 0 0 64 64;" xml:space="preserve">
<g id="fairground">
</g>
<g id="tent">
</g>
<g id="tree">
</g>
<g id="trees">
</g>
<g id="tree-alt">
	<path d="M64,30.5c0-5.3-3.5-9.8-8.6-11.2c-1.3-4.6-5.1-7.9-9.8-8.5C44.9,5,40,0.6,34,0.6c-4.4,0-8.3,2.4-10.3,6.3
		c-0.7-0.1-1.3-0.2-1.9-0.2c-1.8,0-3.5,0.4-5.1,1.2c-1.6-0.8-3.3-1.2-5.1-1.2C5.2,6.6,0,11.9,0,18.3c0,3.6,1.7,6.9,4.5,9.1
		c-1.6,2-2.5,4.5-2.5,7.1c0,6,4.6,11,10.5,11.6c0.4,2.9,1.9,5.4,4.3,7c1.7,1.1,3.7,1.7,5.8,1.7c0.8,0,1.5-0.1,2.3-0.3
		c-0.1,2.3-0.1,4.6,0,7c0,0.8,0.7,1.4,1.5,1.4h12.5c0.4,0,0.9-0.2,1.2-0.5s0.4-0.8,0.3-1.2c-0.6-2.8-1.1-6.1-1.5-8.9
		c2.2,1.1,5,2,7.4,2c6.7,0,11.7-5,11.7-11.7c0-0.6-0.1-1.2-0.2-1.9C61.6,38.8,64,34.9,64,30.5z M27.9,60c-0.1-5.2,0.2-10.1,0.8-14.2
		c0.1-0.5-0.1-0.9-0.4-1.2c-1.2-1.3-2.6-2.9-4.2-4c-1.4-1-2.9-1.9-4.4-2.8c1.5-0.1,3-0.1,4.5,0.3c1.2,0.3,2.5,0.8,3.5,1.6
		c0.4,0.3,0.9,0.4,1.4,0.2c0.5-0.2,0.8-0.6,0.9-1c1.2-4.6,2.8-9,4.9-13.1c-0.5,5.1-0.6,10.4-0.2,15.8c0,0.4,0.2,0.8,0.6,1.1
		c0.3,0.3,0.8,0.4,1.2,0.3c2.4-0.5,4.9-0.6,7.3-0.3c-3.4,1.7-6.1,3.9-7.9,5.7c-0.3,0.3-0.5,0.8-0.4,1.3l0.2,1.4c0.4,2.7,0.9,6,1.4,9
		H27.9z M55.4,38.5c-0.7,0.3-1.1,1.1-0.9,1.8c0.2,0.9,0.4,1.6,0.4,2.3c0,4.9-3.7,8.7-8.7,8.7c-2.2,0-5.1-1.2-6.9-2.2
		c2.4-2.1,5.9-4.4,10.1-5.5c0.6-0.2,1.1-0.7,1.1-1.4c0-0.7-0.4-1.3-1-1.5c-3.9-1.3-8-1.7-12-1.1C37.2,32.2,37.7,25,39,18.4
		c0.1-0.7-0.2-1.4-0.9-1.7c-0.7-0.3-1.4,0-1.8,0.6c-3.8,5.7-6.7,12-8.7,18.8c-0.9-0.4-1.8-0.8-2.8-1c-3.3-0.8-6.5-0.3-9.6,0.3
		l-0.5,0.1c-0.6,0.1-1.1,0.6-1.2,1.2c-0.1,0.6,0.2,1.3,0.8,1.6c2.7,1.4,5.6,2.9,8.1,4.7c1.1,0.8,2.3,2,3.3,3.1
		c-0.2,1.7-0.4,3.5-0.6,5.4c-2.2,0.8-4.6,0.5-6.6-0.8c-2-1.3-3.1-3.4-3.1-5.9c0-0.4-0.2-0.8-0.5-1.1c-0.3-0.3-0.7-0.4-1-0.4
		c-0.1,0-0.2,0-0.3,0c-4.8,0-8.6-3.9-8.6-8.7c0-2.4,1-4.6,2.8-6.3c0.4-0.3,0.5-0.8,0.5-1.3s-0.3-0.9-0.8-1.1C4.7,24.3,3,21.4,3,18.3
		c0-4.8,3.9-8.7,8.7-8.7c1.5,0,3,0.4,4.3,1.2c0.5,0.3,1,0.3,1.5,0c1.4-0.8,2.8-1.2,4.3-1.2c0.7,0,1.4,0.1,2.3,0.4
		c0.7,0.2,1.5-0.2,1.8-0.9c1.3-3.4,4.5-5.6,8.1-5.6c4.8,0,8.7,3.9,8.7,8.7c0,0.8,0.7,1.5,1.5,1.5c4.2,0,7.7,3,8.5,7.1
		c0.1,0.6,0.6,1.1,1.2,1.2c4.1,0.8,7.1,4.3,7.1,8.5C61,34.1,58.8,37.2,55.4,38.5z"/>
</g>
<g id="butterfly">
</g>
<g id="sunrise">
</g>
<g id="waterdrop">
</g>
<g id="map">
</g>
<g id="map-alt">
</g>
<g id="earth">
</g>
<g id="earth-no">
</g>
<g id="meteor">
</g>
<g id="sun">
</g>
<g id="sun-dim">
</g>
<g id="umbrella">
</g>
<g id="umbrella-alt">
</g>
<g id="gps">
</g>
<g id="fire">
</g>
<g id="target-sight">
</g>
<g id="gps-area">
</g>
<g id="gps-alt">
</g>
<g id="target">
</g>
<g id="star">
</g>
<g id="lightning">
</g>
</svg>
