<?xml version="1.0" encoding="utf-8"?>
<!-- Generator: Adobe Illustrator 20.1.0, SVG Export Plug-In . SVG Version: 6.00 Build 0)  -->
<!DOCTYPE svg PUBLIC "-//W3C//DTD SVG 1.1//EN" "http://www.w3.org/Graphics/SVG/1.1/DTD/svg11.dtd">
<svg version="1.1" xmlns="http://www.w3.org/2000/svg" xmlns:xlink="http://www.w3.org/1999/xlink" x="0px" y="0px"
	 viewBox="0 0 64 64.3" style="enable-background:new 0 0 64 64.3;" xml:space="preserve">
<g id="fairground">
</g>
<g id="tent">
</g>
<g id="tree">
</g>
<g id="trees">
</g>
<g id="tree-alt">
</g>
<g id="butterfly">
</g>
<g id="sunrise">
</g>
<g id="waterdrop">
</g>
<g id="map">
</g>
<g id="map-alt">
</g>
<g id="earth">
</g>
<g id="earth-no">
</g>
<g id="meteor">
</g>
<g id="sun">
</g>
<g id="sun-dim">
</g>
<g id="umbrella">
	<path d="M32,0C15,0,1.1,13.9,1.1,31.1c0,0.8,0.7,1.5,1.5,1.5s1.5-0.7,1.5-1.5c0-1.8,2.7-3.4,5.8-3.4c3.1,0,5.8,1.6,5.8,3.4
		c0,0.8,0.7,1.5,1.5,1.5s1.5-0.7,1.5-1.5c0-1.8,2.7-3.4,5.8-3.4s5.8,1.6,5.8,3.4c0,0.2,0,0.3,0.1,0.4v25.8c0,2.1-1.5,3.6-3.5,3.6
		s-3.5-1.6-3.5-3.7c0-0.8-0.7-1.5-1.5-1.5s-1.5,0.7-1.5,1.5c0,3.7,2.9,6.6,6.5,6.6s6.5-2.9,6.5-6.6V30.6c0.4-1.6,2.9-2.9,5.8-2.9
		c3.1,0,5.8,1.6,5.8,3.4c0,0.8,0.7,1.5,1.5,1.5s1.5-0.7,1.5-1.5c0-1.8,2.7-3.4,5.8-3.4c3.1,0,5.8,1.6,5.8,3.4c0,0.8,0.7,1.5,1.5,1.5
		s1.5-0.7,1.5-1.5C62.9,13.9,49,0,32,0z M54,24.6c-3.1,0-5.8,1.1-7.3,2.8c-1.6-1.7-4.3-2.8-7.3-2.8s-5.8,1.1-7.3,2.8
		c-1.6-1.7-4.3-2.8-7.3-2.8s-5.8,1.1-7.3,2.8c-1.6-1.7-4.3-2.8-7.3-2.8c-2,0-3.9,0.5-5.4,1.3C7,12.9,18.4,3,32,3s25,9.9,27.4,22.9
		C57.9,25.1,56.1,24.6,54,24.6z"/>
</g>
<g id="umbrella-alt">
</g>
<g id="gps">
</g>
<g id="fire">
</g>
<g id="target-sight">
</g>
<g id="gps-area">
</g>
<g id="gps-alt">
</g>
<g id="target">
</g>
<g id="star">
</g>
<g id="lightning">
</g>
</svg>
