<?xml version="1.0" encoding="utf-8"?>
<!-- Generator: Adobe Illustrator 20.1.0, SVG Export Plug-In . SVG Version: 6.00 Build 0)  -->
<!DOCTYPE svg PUBLIC "-//W3C//DTD SVG 1.1//EN" "http://www.w3.org/Graphics/SVG/1.1/DTD/svg11.dtd">
<svg version="1.1" xmlns="http://www.w3.org/2000/svg" xmlns:xlink="http://www.w3.org/1999/xlink" x="0px" y="0px"
	 viewBox="0 0 64 64" style="enable-background:new 0 0 64 64;" xml:space="preserve">
<g id="user">
</g>
<g id="users">
</g>
<g id="comment">
</g>
<g id="commenting">
</g>
<g id="comments">
</g>
<g id="comments-alt">
</g>
<g id="commenting-alt">
</g>
<g id="comment-alt">
</g>
<g id="face-happy">
</g>
<g id="face-ok">
</g>
<g id="face-unhappy">
</g>
<g id="mail">
</g>
<g id="phone">
</g>
<g id="fingerprint">
</g>
<g id="info">
</g>
<g id="question">
</g>
<g id="warning">
</g>
<g id="alert">
</g>
<g id="headset">
</g>
<g id="skull">
</g>
<g id="baby">
</g>
<g id="eye">
</g>
<g id="id-card">
</g>
<g id="microphone">
</g>
<g id="eye-cross">
</g>
<g id="user-commenting">
</g>
<g id="user-commenting-alt">
</g>
<g id="user-file">
</g>
<g id="user-check">
	<g>
		<path d="M30.7,39.5c4.8-2.2,8.1-6.9,8.1-12.5c0-7.6-6.2-13.7-13.7-13.7c-7.6,0-13.7,6.2-13.7,13.7c0,5.6,3.4,10.5,8.3,12.6
			C10,42,2.2,50.6,0.3,61.7c-0.1,0.8,0.4,1.6,1.2,1.7c0.8,0.1,1.6-0.4,1.7-1.2c2.1-11.8,11.4-20.4,22.1-20.4c10.7,0,20,8.8,22.1,21
			c0.1,0.7,0.8,1.2,1.5,1.2c0.1,0,0.2,0,0.3,0c0.8-0.1,1.4-0.9,1.2-1.7C48.4,50.7,40.5,41.9,30.7,39.5z M14.3,27
			c0-5.9,4.8-10.7,10.7-10.7c5.9,0,10.7,4.8,10.7,10.7S31,37.7,25.1,37.7C19.2,37.7,14.3,32.9,14.3,27z"/>
		<path d="M41.3,12h13c0.8,0,1.5-0.7,1.5-1.5v-4c0-0.8-0.7-1.5-1.5-1.5H51c0.2-0.4,0.3-0.9,0.3-1.4c0-2-1.6-3.6-3.6-3.6
			c-2,0-3.6,1.6-3.6,3.6c0,0.5,0.1,1,0.3,1.4h-3.1c-0.8,0-1.5,0.7-1.5,1.5v4C39.8,11.3,40.4,12,41.3,12z M47.7,3
			c0.3,0,0.6,0.3,0.6,0.6S48,4.2,47.7,4.2c-0.3,0-0.6-0.3-0.6-0.6S47.4,3,47.7,3z M42.8,8h10v1h-10V8z"/>
		<path d="M33.8,9h3c0.8,0,1.5-0.7,1.5-1.5S37.6,6,36.8,6h-3c-0.8,0-1.5,0.7-1.5,1.5S32.9,9,33.8,9z"/>
		<path d="M62.3,6h-3.5c-0.8,0-1.5,0.7-1.5,1.5S57.9,9,58.8,9h2v33h-12c-0.8,0-1.5,0.7-1.5,1.5s0.7,1.5,1.5,1.5h13.5
			c0.8,0,1.5-0.7,1.5-1.5v-36C63.8,6.7,63.1,6,62.3,6z"/>
		<path d="M53.7,20.8l-6.6,6.6l-1.7-1.7c-0.6-0.6-1.5-0.6-2.1,0c-0.6,0.6-0.6,1.5,0,2.1l2.7,2.7c0.1,0.1,0.2,0.1,0.3,0.2
			c0.1,0,0.1,0.1,0.2,0.1c0.2,0.1,0.4,0.1,0.6,0.1s0.4,0,0.6-0.1c0,0,0.1,0,0.1-0.1c0.1-0.1,0.3-0.1,0.4-0.3l7.6-7.6
			c0.6-0.6,0.6-1.5,0-2.1C55.2,20.2,54.3,20.2,53.7,20.8z"/>
	</g>
</g>
<g id="tap">
</g>
<g id="swipe">
</g>
<g id="slide">
</g>
<g id="foot">
</g>
<g id="share-social">
</g>
<g id="ghost">
</g>
</svg>
