<?xml version="1.0" encoding="utf-8"?>
<!-- Generator: Adobe Illustrator 20.1.0, SVG Export Plug-In . SVG Version: 6.00 Build 0)  -->
<!DOCTYPE svg PUBLIC "-//W3C//DTD SVG 1.1//EN" "http://www.w3.org/Graphics/SVG/1.1/DTD/svg11.dtd">
<svg version="1.1" xmlns="http://www.w3.org/2000/svg" xmlns:xlink="http://www.w3.org/1999/xlink" x="0px" y="0px"
	 viewBox="0 0 64 64" style="enable-background:new 0 0 64 64;" xml:space="preserve">
<g id="truck">
</g>
<g id="car">
</g>
<g id="taxi">
</g>
<g id="rocket">
</g>
<g id="tardis">
</g>
<g id="bus">
</g>
<g id="tram">
</g>
<g id="speedo">
</g>
<g id="air-machine">
</g>
<g id="speedo-alt">
</g>
<g id="motorcycle">
</g>
<g id="car-battery">
</g>
<g id="ufo">
	<g>
		<path d="M50.8,27.6c0.7-2,1-4.1,1-6.3c0-10.9-8.9-19.8-19.8-19.8c-10.9,0-19.8,8.9-19.8,19.8c0,2.2,0.4,4.3,1,6.3
			C6.8,28.9,0,31.3,0,35.6c0,3.3,3.3,7.6,32,7.6s32-4.3,32-7.6C64,31.3,57.2,28.9,50.8,27.6z M32,4.6c9.3,0,16.8,7.5,16.8,16.8
			c0,2-0.4,3.9-1,5.8C43,26.3,37.6,25.9,32,25.9c-5.6,0-11,0.4-15.8,1.2c-0.7-1.9-1-3.8-1-5.8C15.2,12.1,22.7,4.6,32,4.6z M32,40.1
			c-22.9,0-29-3-29-4.6c0-1.3,3.3-3.7,12.5-5.3c4.9-0.9,10.6-1.3,16.5-1.3s11.6,0.5,16.5,1.3c9.2,1.6,12.5,4.1,12.5,5.3
			C61,37.1,54.9,40.1,32,40.1z"/>
		<path d="M6.5,45.5C5.7,45.5,5,46.2,5,47v10c0,0.8,0.7,1.5,1.5,1.5S8,57.8,8,57V47C8,46.2,7.4,45.5,6.5,45.5z"/>
		<path d="M18.5,45.5c-0.8,0-1.5,0.7-1.5,1.5v10c0,0.8,0.7,1.5,1.5,1.5S20,57.8,20,57V47C20,46.2,19.3,45.5,18.5,45.5z"/>
		<path d="M12.5,45.5c-0.8,0-1.5,0.7-1.5,1.5v14c0,0.8,0.7,1.5,1.5,1.5S14,61.8,14,61V47C14,46.2,13.3,45.5,12.5,45.5z"/>
		<path d="M45.5,45.5c-0.8,0-1.5,0.7-1.5,1.5v10c0,0.8,0.7,1.5,1.5,1.5S47,57.8,47,57V47C47,46.2,46.3,45.5,45.5,45.5z"/>
		<path d="M57.5,45.5c-0.8,0-1.5,0.7-1.5,1.5v10c0,0.8,0.7,1.5,1.5,1.5S59,57.8,59,57V47C59,46.2,58.3,45.5,57.5,45.5z"/>
		<path d="M51.5,45.5c-0.8,0-1.5,0.7-1.5,1.5v14c0,0.8,0.7,1.5,1.5,1.5S53,61.8,53,61V47C53,46.2,52.3,45.5,51.5,45.5z"/>
	</g>
</g>
<g id="arrivals">
</g>
<g id="petrol-pump">
</g>
<g id="gear-shift">
</g>
<g id="car-battery-alt">
</g>
<g id="road">
</g>
<g id="siren">
</g>
<g id="plane">
</g>
<g id="lorry">
</g>
<g id="train">
</g>
<g id="forklift">
</g>
<g id="bicycle">
</g>
<g id="underground">
</g>
<g id="paper-plane">
</g>
<g id="hotair-balloon">
</g>
</svg>
