<?xml version="1.0" encoding="utf-8"?>
<!-- Generator: Adobe Illustrator 20.1.0, SVG Export Plug-In . SVG Version: 6.00 Build 0)  -->
<!DOCTYPE svg PUBLIC "-//W3C//DTD SVG 1.1//EN" "http://www.w3.org/Graphics/SVG/1.1/DTD/svg11.dtd">
<svg version="1.1" xmlns="http://www.w3.org/2000/svg" xmlns:xlink="http://www.w3.org/1999/xlink" x="0px" y="0px"
	 viewBox="0 0 64 64" style="enable-background:new 0 0 64 64;" xml:space="preserve">
<g id="user">
</g>
<g id="users">
</g>
<g id="comment">
</g>
<g id="commenting">
</g>
<g id="comments">
</g>
<g id="comments-alt">
</g>
<g id="commenting-alt">
</g>
<g id="comment-alt">
</g>
<g id="face-happy">
</g>
<g id="face-ok">
</g>
<g id="face-unhappy">
</g>
<g id="mail">
</g>
<g id="phone">
</g>
<g id="fingerprint">
</g>
<g id="info">
</g>
<g id="question">
</g>
<g id="warning">
</g>
<g id="alert">
</g>
<g id="headset">
</g>
<g id="skull">
</g>
<g id="baby">
</g>
<g id="eye">
</g>
<g id="id-card">
</g>
<g id="microphone">
</g>
<g id="eye-cross">
</g>
<g id="user-commenting">
</g>
<g id="user-commenting-alt">
</g>
<g id="user-file">
	<g>
		<path d="M30.7,39.5c4.7-2.2,8.1-6.9,8.1-12.5c0-7.6-6.2-13.7-13.7-13.7S11.3,19.4,11.3,27c0,5.6,3.4,10.5,8.3,12.6
			C10,42,2.2,50.6,0.3,61.7c-0.1,0.8,0.4,1.6,1.2,1.7c0.8,0.1,1.6-0.4,1.7-1.2c2.1-11.8,11.4-20.4,22.1-20.4c10.7,0,20,8.8,22.1,21
			c0.1,0.7,0.8,1.2,1.5,1.2c0.1,0,0.2,0,0.3,0c0.8-0.1,1.4-0.9,1.2-1.7C48.4,50.7,40.5,41.9,30.7,39.5z M14.3,27
			c0-5.9,4.8-10.7,10.7-10.7S35.8,21.1,35.8,27S31,37.7,25.1,37.7S14.3,32.9,14.3,27z"/>
		<path d="M63.3,10.6L52.6,0.4c-0.3-0.3-0.6-0.4-1-0.4H33.3c-0.8,0-1.5,0.7-1.5,1.5V7c0,0.8,0.7,1.5,1.5,1.5s1.5-0.7,1.5-1.5V3h15
			v8.5c0,0.8,0.7,1.5,1.5,1.5h9.5v24h-18c-0.8,0-1.5,0.7-1.5,1.5s0.7,1.5,1.5,1.5h19.5c0.8,0,1.5-0.7,1.5-1.5V11.7
			C63.8,11.3,63.6,10.9,63.3,10.6z M52.8,4.7l5.5,5.3h-5.5V4.7z"/>
	</g>
</g>
<g id="user-check">
</g>
<g id="tap">
</g>
<g id="swipe">
</g>
<g id="slide">
</g>
<g id="foot">
</g>
<g id="share-social">
</g>
<g id="ghost">
</g>
</svg>
