<?xml version="1.0" encoding="utf-8"?>
<!-- Generator: Adobe Illustrator 20.1.0, SVG Export Plug-In . SVG Version: 6.00 Build 0)  -->
<!DOCTYPE svg PUBLIC "-//W3C//DTD SVG 1.1//EN" "http://www.w3.org/Graphics/SVG/1.1/DTD/svg11.dtd">
<svg version="1.1" xmlns="http://www.w3.org/2000/svg" xmlns:xlink="http://www.w3.org/1999/xlink" x="0px" y="0px"
	 viewBox="0 0 64 64" style="enable-background:new 0 0 64 64;" xml:space="preserve">
<g id="truck">
</g>
<g id="car">
</g>
<g id="taxi">
</g>
<g id="rocket">
</g>
<g id="tardis">
</g>
<g id="bus">
</g>
<g id="tram">
</g>
<g id="speedo">
</g>
<g id="air-machine">
</g>
<g id="speedo-alt">
</g>
<g id="motorcycle">
</g>
<g id="car-battery">
</g>
<g id="ufo">
</g>
<g id="arrivals">
</g>
<g id="petrol-pump">
</g>
<g id="gear-shift">
</g>
<g id="car-battery-alt">
</g>
<g id="road">
</g>
<g id="siren">
</g>
<g id="plane">
</g>
<g id="lorry">
</g>
<g id="train">
</g>
<g id="forklift">
</g>
<g id="bicycle">
</g>
<g id="underground">
	<path d="M62.5,31h-7.6c-0.2-5.9-2.7-11.4-6.9-15.5C43.6,11.2,37.9,8.9,31.7,9C19.4,9.1,9.5,18.9,9,31H1.5C0.7,31,0,31.7,0,32.5
		S0.7,34,1.5,34h7.6C10.1,45.8,20,55,32,55c0.1,0,0.2,0,0.3,0c11.9-0.2,21.6-9.4,22.6-21h7.6c0.8,0,1.5-0.7,1.5-1.5S63.3,31,62.5,31
		z M31.7,12c5.4-0.1,10.4,1.9,14.2,5.7c3.7,3.6,5.8,8.3,6,13.4H12.1C12.6,20.5,21.1,12.1,31.7,12z M32.3,52c-0.1,0-0.2,0-0.3,0
		c-10.3,0-18.9-7.9-19.9-18h39.8C50.9,44,42.5,51.9,32.3,52z"/>
</g>
<g id="paper-plane">
</g>
<g id="hotair-balloon">
</g>
</svg>
