<?xml version="1.0" encoding="utf-8"?>
<!-- Generator: Adobe Illustrator 20.1.0, SVG Export Plug-In . SVG Version: 6.00 Build 0)  -->
<!DOCTYPE svg PUBLIC "-//W3C//DTD SVG 1.1//EN" "http://www.w3.org/Graphics/SVG/1.1/DTD/svg11.dtd">
<svg version="1.1" xmlns="http://www.w3.org/2000/svg" xmlns:xlink="http://www.w3.org/1999/xlink" x="0px" y="0px"
	 viewBox="0 0 64 64" style="enable-background:new 0 0 64 64;" xml:space="preserve">
<g id="user">
</g>
<g id="users">
</g>
<g id="comment">
</g>
<g id="commenting">
</g>
<g id="comments">
</g>
<g id="comments-alt">
</g>
<g id="commenting-alt">
</g>
<g id="comment-alt">
</g>
<g id="face-happy">
</g>
<g id="face-ok">
</g>
<g id="face-unhappy">
</g>
<g id="mail">
</g>
<g id="phone">
</g>
<g id="fingerprint">
</g>
<g id="info">
</g>
<g id="question">
</g>
<g id="warning">
</g>
<g id="alert">
</g>
<g id="headset">
</g>
<g id="skull">
</g>
<g id="baby">
</g>
<g id="eye">
</g>
<g id="id-card">
</g>
<g id="microphone">
</g>
<g id="eye-cross">
</g>
<g id="user-commenting">
	<g>
		<ellipse cx="45.5" cy="18.4" rx="2" ry="2"/>
		<ellipse cx="37.5" cy="18.4" rx="2" ry="2"/>
		<ellipse cx="53.5" cy="18.4" rx="2" ry="2"/>
		<path d="M60.5,5H30.4c-1.9,0-3.5,1.5-3.5,3.4c0,0.8,0.7,1.5,1.5,1.5s1.5-0.7,1.5-1.5c0-0.2,0.2-0.4,0.5-0.4h30.1
			C60.7,8,61,8.1,61,8.4v19.8c0,0.4-0.4,0.8-0.5,0.8H46.2c-0.4,0-0.8,0.2-1.1,0.5L40,34.7l0-4.4c0-0.8-0.7-1.5-1.5-1.5c0,0,0,0,0,0
			c-0.8,0-1.5,0.7-1.5,1.5l0,8.1c0,0.6,0.4,1.2,0.9,1.4c0.2,0.1,0.4,0.1,0.6,0.1c0.4,0,0.8-0.2,1.1-0.5l7.3-7.4h13.7
			c2.1,0,3.5-2,3.5-3.8V8.4C64,6.5,62.5,5,60.5,5z"/>
		<path d="M26.7,38.2c3.8-2,6.4-5.9,6.4-10.4c0-6.5-5.3-11.7-11.8-11.7c-6.5,0-11.8,5.3-11.8,11.7c0,4.6,2.7,8.5,6.5,10.5
			C8,40.5,1.7,47.6,0,56.8c-0.1,0.8,0.4,1.6,1.2,1.7C2,58.7,2.8,58.2,3,57.3c1.8-9.8,9.5-16.9,18.5-16.9c9,0,16.7,7.3,18.5,17.4
			c0.1,0.7,0.8,1.2,1.5,1.2c0.1,0,0.2,0,0.3,0c0.8-0.1,1.4-0.9,1.2-1.7C41.3,47.8,34.8,40.4,26.7,38.2z M12.4,27.7
			c0-4.8,4-8.7,8.8-8.7s8.8,3.9,8.8,8.7s-4,8.7-8.8,8.7S12.4,32.6,12.4,27.7z"/>
	</g>
</g>
<g id="user-commenting-alt">
</g>
<g id="user-file">
</g>
<g id="user-check">
</g>
<g id="tap">
</g>
<g id="swipe">
</g>
<g id="slide">
</g>
<g id="foot">
</g>
<g id="share-social">
</g>
<g id="ghost">
</g>
</svg>
