<?xml version="1.0" encoding="utf-8"?>
<!-- Generator: Adobe Illustrator 20.1.0, SVG Export Plug-In . SVG Version: 6.00 Build 0)  -->
<!DOCTYPE svg PUBLIC "-//W3C//DTD SVG 1.1//EN" "http://www.w3.org/Graphics/SVG/1.1/DTD/svg11.dtd">
<svg version="1.1" xmlns="http://www.w3.org/2000/svg" xmlns:xlink="http://www.w3.org/1999/xlink" x="0px" y="0px"
	 viewBox="0 0 64 64" style="enable-background:new 0 0 64 64;" xml:space="preserve">
<g id="fairground">
</g>
<g id="tent">
</g>
<g id="tree">
</g>
<g id="trees">
</g>
<g id="tree-alt">
</g>
<g id="butterfly">
</g>
<g id="sunrise">
</g>
<g id="waterdrop">
</g>
<g id="map">
</g>
<g id="map-alt">
</g>
<g id="earth">
</g>
<g id="earth-no">
</g>
<g id="meteor">
</g>
<g id="sun">
</g>
<g id="sun-dim">
</g>
<g id="umbrella">
</g>
<g id="umbrella-alt">
	<g>
		<path d="M32,11.8c-13.9,0-25.2,11.4-25.2,25.3c0,0.8,0.7,1.5,1.5,1.5s1.5-0.7,1.5-1.5c0-1.2,1.8-2.5,4.4-2.5
			c2.6,0,4.4,1.3,4.4,2.5c0,0.8,0.7,1.5,1.5,1.5s1.5-0.7,1.5-1.5c0-1.2,1.8-2.5,4.4-2.5c2.6,0,4.4,1.3,4.4,2.5v21.2
			c0,1.3-0.9,2.7-2.5,2.7s-2.5-1.3-2.5-2.7V58c0-0.8-0.7-1.5-1.5-1.5s-1.5,0.7-1.5,1.5v0.3c0,3.2,2.4,5.7,5.5,5.7s5.5-2.5,5.5-5.7
			V37.1c0-1.2,1.8-2.5,4.4-2.5c2.6,0,4.4,1.3,4.4,2.5c0,0.8,0.7,1.5,1.5,1.5s1.5-0.7,1.5-1.5c0-1.2,1.8-2.5,4.4-2.5
			c2.6,0,4.4,1.3,4.4,2.5c0,0.8,0.7,1.5,1.5,1.5s1.5-0.7,1.5-1.5C57.2,23.1,45.9,11.8,32,11.8z M49.8,31.6c-2.4,0-4.6,0.8-5.9,2.1
			c-1.3-1.3-3.5-2.1-5.9-2.1c-2.4,0-4.6,0.8-5.9,2.1c-1.3-1.3-3.5-2.1-5.9-2.1c-2.4,0-4.6,0.8-5.9,2.1c-1.3-1.3-3.5-2.1-5.9-2.1
			c-1.5,0-2.8,0.3-3.9,0.8C12.4,22.4,21.3,14.8,32,14.8s19.6,7.6,21.7,17.7C52.6,31.9,51.2,31.6,49.8,31.6z"/>
		<path d="M27.7,9c0.3,0.3,0.7,0.4,1.1,0.4c0.4,0,0.8-0.1,1.1-0.4l6.4-6.4c0.6-0.6,0.6-1.5,0-2.1c-0.6-0.6-1.5-0.6-2.1,0l-6.4,6.4
			C27.1,7.4,27.1,8.4,27.7,9z"/>
		<path d="M36.3,9c0.3,0.3,0.7,0.4,1.1,0.4c0.4,0,0.8-0.1,1.1-0.4l6.4-6.4c0.6-0.6,0.6-1.5,0-2.1c-0.6-0.6-1.5-0.6-2.1,0l-6.4,6.4
			C35.7,7.4,35.7,8.4,36.3,9z"/>
		<path d="M44.9,9c0.3,0.3,0.7,0.4,1.1,0.4c0.4,0,0.8-0.1,1.1-0.4l6.4-6.4C54,2,54,1,53.4,0.4c-0.6-0.6-1.5-0.6-2.1,0l-6.4,6.4
			C44.3,7.4,44.3,8.4,44.9,9z"/>
		<path d="M19.2,9c0.3,0.3,0.7,0.4,1.1,0.4c0.4,0,0.8-0.1,1.1-0.4l6.4-6.4c0.6-0.6,0.6-1.5,0-2.1c-0.6-0.6-1.5-0.6-2.1,0l-6.4,6.4
			C18.6,7.4,18.6,8.4,19.2,9z"/>
		<path d="M11.6,9.4c0.4,0,0.8-0.1,1.1-0.4l6.4-6.4c0.6-0.6,0.6-1.5,0-2.1c-0.6-0.6-1.5-0.6-2.1,0l-6.4,6.4C10,7.4,10,8.4,10.6,9
			C10.9,9.3,11.3,9.4,11.6,9.4z"/>
	</g>
</g>
<g id="gps">
</g>
<g id="fire">
</g>
<g id="target-sight">
</g>
<g id="gps-area">
</g>
<g id="gps-alt">
</g>
<g id="target">
</g>
<g id="star">
</g>
<g id="lightning">
</g>
</svg>
