<?xml version="1.0" encoding="utf-8"?>
<!-- Generator: Adobe Illustrator 20.1.0, SVG Export Plug-In . SVG Version: 6.00 Build 0)  -->
<!DOCTYPE svg PUBLIC "-//W3C//DTD SVG 1.1//EN" "http://www.w3.org/Graphics/SVG/1.1/DTD/svg11.dtd">
<svg version="1.1" xmlns="http://www.w3.org/2000/svg" xmlns:xlink="http://www.w3.org/1999/xlink" x="0px" y="0px"
	 viewBox="0 0 64 64" style="enable-background:new 0 0 64 64;" xml:space="preserve">
<g id="user">
	<path d="M37.8,33.1c6.6-2.4,11.3-8.7,11.3-16C49.1,7.7,41.4,0,32,0S14.9,7.7,14.9,17.1c0,7.4,4.7,13.7,11.3,16
		C11.9,35.8,0.7,48.2,0.7,62.5c0,0.8,0.7,1.5,1.5,1.5s1.5-0.7,1.5-1.5c0-14.6,13-26.9,28.3-26.9s28.3,12.3,28.3,26.9
		c0,0.8,0.7,1.5,1.5,1.5s1.5-0.7,1.5-1.5C63.3,48.2,52.1,35.8,37.8,33.1z M17.9,17.1C17.9,9.3,24.2,3,32,3s14.1,6.3,14.1,14.1
		S39.8,31.2,32,31.2S17.9,24.9,17.9,17.1z"/>
</g>
<g id="users">
</g>
<g id="comment">
</g>
<g id="commenting">
</g>
<g id="comments">
</g>
<g id="comments-alt">
</g>
<g id="commenting-alt">
</g>
<g id="comment-alt">
</g>
<g id="face-happy">
</g>
<g id="face-ok">
</g>
<g id="face-unhappy">
</g>
<g id="mail">
</g>
<g id="phone">
</g>
<g id="fingerprint">
</g>
<g id="info">
</g>
<g id="question">
</g>
<g id="warning">
</g>
<g id="alert">
</g>
<g id="headset">
</g>
<g id="skull">
</g>
<g id="baby">
</g>
<g id="eye">
</g>
<g id="id-card">
</g>
<g id="microphone">
</g>
<g id="eye-cross">
</g>
<g id="user-commenting">
</g>
<g id="user-commenting-alt">
</g>
<g id="user-file">
</g>
<g id="user-check">
</g>
<g id="tap">
</g>
<g id="swipe">
</g>
<g id="slide">
</g>
<g id="foot">
</g>
<g id="share-social">
</g>
<g id="ghost">
</g>
</svg>
