<?xml version="1.0" encoding="utf-8"?>
<!-- Generator: Adobe Illustrator 20.1.0, SVG Export Plug-In . SVG Version: 6.00 Build 0)  -->
<!DOCTYPE svg PUBLIC "-//W3C//DTD SVG 1.1//EN" "http://www.w3.org/Graphics/SVG/1.1/DTD/svg11.dtd">
<svg version="1.1" xmlns="http://www.w3.org/2000/svg" xmlns:xlink="http://www.w3.org/1999/xlink" x="0px" y="0px"
	 viewBox="0 0 64 64" style="enable-background:new 0 0 64 64;" xml:space="preserve">
<g id="user">
</g>
<g id="users">
	<g>
		<path d="M29.7,35.9c4.5-2.1,7.7-6.7,7.7-12c0-7.3-6-13.3-13.3-13.3s-13.3,6-13.3,13.3c0,5.3,3.1,9.9,7.7,12C8,38.4,0,47.6,0,58.2
			c0,0.8,0.7,1.5,1.5,1.5S3,59,3,58.2c0-10.8,9.6-20,21-20s21,9.2,21,20c0,0.8,0.7,1.5,1.5,1.5S48,59,48,58.2
			C48,47.6,40.1,38.4,29.7,35.9z M13.7,23.8c0-5.7,4.6-10.3,10.3-10.3s10.3,4.6,10.3,10.3c0,5.7-4.6,10.3-10.3,10.3
			S13.7,29.5,13.7,23.8z"/>
		<path d="M48.8,26.5c3.4-2.1,5.7-5.9,5.7-10.2c0-6.6-5.4-12-12-12c-3.3,0-6.5,1.4-8.8,3.8c-0.6,0.6-0.5,1.6,0.1,2.1
			s1.6,0.5,2.1-0.1c1.7-1.8,4.1-2.9,6.6-2.9c5,0,9,4,9,9c0,5-4.1,9-9,9c-0.8,0-1.5,0.7-1.5,1.5c0,0,0,0.1,0,0.1c0,0,0,0.1,0,0.1
			c0,0.8,0.7,1.5,1.5,1.5c10.1,0,18.6,8.1,18.6,17.7c0,0.8,0.7,1.5,1.5,1.5s1.5-0.7,1.5-1.5C64,37.2,57.5,29.2,48.8,26.5z"/>
	</g>
</g>
<g id="comment">
</g>
<g id="commenting">
</g>
<g id="comments">
</g>
<g id="comments-alt">
</g>
<g id="commenting-alt">
</g>
<g id="comment-alt">
</g>
<g id="face-happy">
</g>
<g id="face-ok">
</g>
<g id="face-unhappy">
</g>
<g id="mail">
</g>
<g id="phone">
</g>
<g id="fingerprint">
</g>
<g id="info">
</g>
<g id="question">
</g>
<g id="warning">
</g>
<g id="alert">
</g>
<g id="headset">
</g>
<g id="skull">
</g>
<g id="baby">
</g>
<g id="eye">
</g>
<g id="id-card">
</g>
<g id="microphone">
</g>
<g id="eye-cross">
</g>
<g id="user-commenting">
</g>
<g id="user-commenting-alt">
</g>
<g id="user-file">
</g>
<g id="user-check">
</g>
<g id="tap">
</g>
<g id="swipe">
</g>
<g id="slide">
</g>
<g id="foot">
</g>
<g id="share-social">
</g>
<g id="ghost">
</g>
</svg>
