<?xml version="1.0" encoding="utf-8"?>
<!-- Generator: Adobe Illustrator 20.1.0, SVG Export Plug-In . SVG Version: 6.00 Build 0)  -->
<!DOCTYPE svg PUBLIC "-//W3C//DTD SVG 1.1//EN" "http://www.w3.org/Graphics/SVG/1.1/DTD/svg11.dtd">
<svg version="1.1" xmlns="http://www.w3.org/2000/svg" xmlns:xlink="http://www.w3.org/1999/xlink" x="0px" y="0px"
	 viewBox="0 0 64 64" style="enable-background:new 0 0 64 64;" xml:space="preserve">
<g id="user">
</g>
<g id="users">
</g>
<g id="comment">
</g>
<g id="commenting">
</g>
<g id="comments">
</g>
<g id="comments-alt">
</g>
<g id="commenting-alt">
</g>
<g id="comment-alt">
</g>
<g id="face-happy">
</g>
<g id="face-ok">
</g>
<g id="face-unhappy">
</g>
<g id="mail">
</g>
<g id="phone">
</g>
<g id="fingerprint">
</g>
<g id="info">
</g>
<g id="question">
</g>
<g id="warning">
</g>
<g id="alert">
</g>
<g id="headset">
</g>
<g id="skull">
</g>
<g id="baby">
</g>
<g id="eye">
</g>
<g id="id-card">
</g>
<g id="microphone">
</g>
<g id="eye-cross">
</g>
<g id="user-commenting">
</g>
<g id="user-commenting-alt">
	<g>
		<ellipse cx="18.5" cy="18.4" rx="2" ry="2"/>
		<ellipse cx="26.5" cy="18.4" rx="2" ry="2"/>
		<ellipse cx="10.5" cy="18.4" rx="2" ry="2"/>
		<path d="M25.5,39.8c0.2,0,0.4,0,0.6-0.1c0.6-0.2,0.9-0.8,0.9-1.4l0-8.1c0-0.8-0.7-1.5-1.5-1.5c0,0,0,0,0,0c-0.8,0-1.5,0.7-1.5,1.5
			l0,4.4l-5.1-5.3c-0.3-0.3-0.7-0.5-1.1-0.5H3.5c-0.1,0-0.5-0.4-0.5-0.8V8.4C3,8.1,3.3,8,3.5,8h30.1c0.3,0,0.5,0.2,0.5,0.4
			c0,0.8,0.7,1.5,1.5,1.5s1.5-0.7,1.5-1.5c0-1.9-1.6-3.4-3.5-3.4H3.5C1.5,5,0,6.5,0,8.4v19.8C0,29.9,1.4,32,3.5,32h13.7l7.3,7.4
			C24.7,39.7,25.1,39.8,25.5,39.8z"/>
		<path d="M64,56.8c-1.6-9.2-8-16.3-15.9-18.6c3.9-1.9,6.5-5.9,6.5-10.5c0-6.5-5.3-11.7-11.8-11.7c-6.5,0-11.8,5.3-11.8,11.7
			c0,4.5,2.6,8.4,6.4,10.4c-8.1,2.3-14.6,9.6-16.2,19.1c-0.1,0.8,0.4,1.6,1.2,1.7c0.1,0,0.2,0,0.3,0c0.7,0,1.3-0.5,1.5-1.2
			c1.8-10.1,9.5-17.4,18.5-17.4c9,0,16.7,7.1,18.5,16.9c0.1,0.8,0.9,1.4,1.7,1.2C63.6,58.4,64.1,57.6,64,56.8z M33.9,27.7
			c0-4.8,4-8.7,8.8-8.7s8.8,3.9,8.8,8.7s-4,8.7-8.8,8.7S33.9,32.6,33.9,27.7z"/>
	</g>
</g>
<g id="user-file">
</g>
<g id="user-check">
</g>
<g id="tap">
</g>
<g id="swipe">
</g>
<g id="slide">
</g>
<g id="foot">
</g>
<g id="share-social">
</g>
<g id="ghost">
</g>
</svg>
