<?xml version="1.0" encoding="utf-8"?>
<!-- Generator: Adobe Illustrator 20.1.0, SVG Export Plug-In . SVG Version: 6.00 Build 0)  -->
<!DOCTYPE svg PUBLIC "-//W3C//DTD SVG 1.1//EN" "http://www.w3.org/Graphics/SVG/1.1/DTD/svg11.dtd">
<svg version="1.1" xmlns="http://www.w3.org/2000/svg" xmlns:xlink="http://www.w3.org/1999/xlink" x="0px" y="0px"
	 viewBox="0 0 64 64" style="enable-background:new 0 0 64 64;" xml:space="preserve">
<g id="behance">
</g>
<g id="twitter">
</g>
<g id="vimeo">
	<path d="M61.2,10.6C58.7,5,51.3,5,46.3,7c-4.7,2-9.5,7.8-10,13.1c3.1-1.1,8.1-2,8.6,2.7c0.4,4.4-2.8,9-5.2,12.4
		c-0.9,1.3-2.9,4.7-4.8,4.4c-1.5-0.2-2.4-2.5-2.8-3.7c-1.6-4.3-2.3-8.9-3-13.4C28.3,18,28.2,12.6,25.3,9C22.1,5.1,17.5,6.7,14,9.1
		c-3.9,2.7-7.2,6.1-10.8,9.3c-1.4,1.2-2.1,1.2-0.9,2.7c0.6,0.8,1.3,1.8,2.1,2.6c2.3-1.5,4.8-4.2,7.1-1.4c1.8,2.2,2.6,5.3,3.4,8
		c1.8,6.4,3,13.2,5.4,19.4c2.2,5.6,6.1,10.5,12.6,8c5.7-2.2,10.3-7.2,14.1-11.8c4.3-5.2,8.4-10.7,11.6-16.6
		C61.4,23.7,63.8,16.6,61.2,10.6z"/>
</g>
<g id="wordpress">
</g>
<g id="Layer_179">
</g>
<g id="xing">
</g>
<g id="youtube">
</g>
<g id="whatsapp">
</g>
<g id="flickr">
</g>
<g id="dribbble">
</g>
<g id="facebook">
</g>
<g id="foursquare">
</g>
<g id="github">
</g>
<g id="github-alt">
</g>
<g id="google-plus">
</g>
<g id="google">
</g>
<g id="joomla">
</g>
<g id="soundcloud">
</g>
<g id="instagram">
</g>
<g id="linkedin">
</g>
<g id="pagekit">
</g>
<g id="pinterest">
</g>
<g id="windows">
</g>
<g id="bronzelabs">
</g>
<g id="apple">
</g>
<g id="android">
</g>
<g id="mwkr-alt">
</g>
<g id="mwkr">
</g>
<g id="deviantart">
</g>
<g id="deviantart-alt">
</g>
</svg>
