<?xml version="1.0" encoding="utf-8"?>
<!-- Generator: Adobe Illustrator 20.1.0, SVG Export Plug-In . SVG Version: 6.00 Build 0)  -->
<!DOCTYPE svg PUBLIC "-//W3C//DTD SVG 1.1//EN" "http://www.w3.org/Graphics/SVG/1.1/DTD/svg11.dtd">
<svg version="1.1" xmlns="http://www.w3.org/2000/svg" xmlns:xlink="http://www.w3.org/1999/xlink" x="0px" y="0px"
	 viewBox="0 0 64 64" style="enable-background:new 0 0 64 64;" xml:space="preserve">
<g id="camera">
</g>
<g id="video">
	<path d="M63.2,14c-0.5-0.3-1.1-0.2-1.6,0.1L49,23.5v-12c0-0.8-0.7-1.5-1.5-1.5h-46C0.7,10,0,10.7,0,11.5v41C0,53.3,0.7,54,1.5,54
		h46c0.8,0,1.5-0.7,1.5-1.5v-12l12.6,9.4c0.5,0.3,1.1,0.4,1.6,0.1c0.5-0.3,0.8-0.8,0.8-1.3V15.3C64,14.7,63.7,14.2,63.2,14z
		 M61,45.7l-12.6-9.4c-0.5-0.3-1.1-0.4-1.6-0.1C46.3,36.5,46,37,46,37.6V51H3V13h43v13.4c0,0.6,0.3,1.1,0.8,1.3
		c0.5,0.3,1.1,0.2,1.6-0.1L61,18.3V45.7z"/>
</g>
<g id="step-backward">
</g>
<g id="fast-backward">
</g>
<g id="backward">
</g>
<g id="play">
</g>
<g id="stop">
</g>
<g id="pause">
</g>
<g id="record">
</g>
<g id="eject">
</g>
<g id="forward">
</g>
<g id="fast-forward">
</g>
<g id="step-forward">
</g>
<g id="repeat">
</g>
<g id="repeat-one">
</g>
<g id="shuffle">
</g>
<g id="mute">
</g>
<g id="sound-none">
</g>
<g id="sound-low">
</g>
<g id="sound-high">
</g>
<g id="step-backward-circle">
</g>
<g id="fast-backward-circle">
</g>
<g id="backward-circle">
</g>
<g id="play-circle">
</g>
<g id="stop-circle">
</g>
<g id="pause-circle">
</g>
<g id="record-circle">
</g>
<g id="eject-circle">
</g>
<g id="forward-circle">
</g>
<g id="fast-forward-circle">
</g>
<g id="step-forward-circle">
</g>
</svg>
