<?xml version="1.0" encoding="utf-8"?>
<!-- Generator: Adobe Illustrator 20.1.0, SVG Export Plug-In . SVG Version: 6.00 Build 0)  -->
<!DOCTYPE svg PUBLIC "-//W3C//DTD SVG 1.1//EN" "http://www.w3.org/Graphics/SVG/1.1/DTD/svg11.dtd">
<svg version="1.1" xmlns="http://www.w3.org/2000/svg" xmlns:xlink="http://www.w3.org/1999/xlink" x="0px" y="0px"
	 viewBox="0 0 64 64.5" style="enable-background:new 0 0 64 64.5;" xml:space="preserve">
<g id="suitcase">
</g>
<g id="backpack">
</g>
<g id="chef-hat">
</g>
<g id="work-jacket">
	<g>
		<path d="M59.6,30.7c-3.9-4.3-6.3-11.4-6.3-19c0-3.1,0.4-4.4,1.1-7L54.7,4c0.1-0.4,0.1-0.9-0.2-1.2c-0.2-0.4-0.6-0.6-1-0.7L41.4,0
			c-0.8-0.1-1.5,0.4-1.7,1.2L35,22.2c-0.4,1.6-1.5,2.2-2.4,2.2c-0.9,0-2.1-0.5-2.5-2L24.3,1.1c-0.2-0.7-0.9-1.2-1.7-1.1l-12.1,2
			c-0.4,0.1-0.8,0.3-1,0.7C9.3,3.1,9.2,3.5,9.3,4l0.2,0.6c0.8,2.6,1.2,4,1.2,7.2c0,7.6-2.3,14.7-6.3,19c-0.3,0.3-0.4,0.6-0.4,1v30.8
			C4,63.3,4.7,64,5.5,64h53c0.8,0,1.5-0.7,1.5-1.5V31.7C60,31.3,59.9,30.9,59.6,30.7z M7,32.2c4.2-4.9,6.6-12.5,6.6-20.6
			c0-3.1-0.4-4.8-1-6.9l9.1-1.5l5.4,19.9c0.5,1.9,1.8,3.2,3.4,3.9v17H13c-0.8,0-1.5,0.7-1.5,1.5S12.2,47,13,47h17.5v4H13
			c-0.8,0-1.5,0.7-1.5,1.5S12.2,54,13,54h17.5v7H7V32.2z M57,61H33.5v-7H51c0.8,0,1.5-0.7,1.5-1.5S51.8,51,51,51H33.5v-4H51
			c0.8,0,1.5-0.7,1.5-1.5S51.8,44,51,44H33.5V27.3c2.2-0.4,3.9-2.1,4.4-4.4l4.4-19.7l9,1.5c-0.6,2.2-1,3.8-1,6.9
			c0,8.1,2.5,15.7,6.6,20.6V61z"/>
		<path d="M18.5,34.5c0.8,0,1.5-0.7,1.5-1.5V9c0-0.8-0.7-1.5-1.5-1.5S17,8.2,17,9v24C17,33.8,17.7,34.5,18.5,34.5z"/>
		<path d="M45.5,7.5C44.7,7.5,44,8.2,44,9v24c0,0.8,0.7,1.5,1.5,1.5S47,33.8,47,33V9C47,8.2,46.3,7.5,45.5,7.5z"/>
	</g>
</g>
<g id="tshirt">
</g>
<g id="handbag">
</g>
<g id="coat-hanger">
</g>
<g id="measuring-tape">
</g>
<g id="pants">
</g>
<g id="t-shirt-ale">
</g>
<g id="watch">
</g>
<g id="glasses">
</g>
<g id="graduation-hat">
</g>
<g id="scuba-gear">
</g>
<g id="shoe">
</g>
<g id="crown">
</g>
<g id="wand">
</g>
<g id="crown-alt">
</g>
</svg>
