<?xml version="1.0" encoding="utf-8"?>
<!-- Generator: Adobe Illustrator 20.1.0, SVG Export Plug-In . SVG Version: 6.00 Build 0)  -->
<!DOCTYPE svg PUBLIC "-//W3C//DTD SVG 1.1//EN" "http://www.w3.org/Graphics/SVG/1.1/DTD/svg11.dtd">
<svg version="1.1" xmlns="http://www.w3.org/2000/svg" xmlns:xlink="http://www.w3.org/1999/xlink" x="0px" y="0px"
	 viewBox="0 0 64 64" style="enable-background:new 0 0 64 64;" xml:space="preserve">
<style type="text/css">
	.st0{fill:none;stroke:#000000;stroke-width:3;stroke-linecap:round;stroke-linejoin:round;}
</style>
<g id="cupcake">
</g>
<g id="turkey">
</g>
<g id="hot-service">
</g>
<g id="mug">
</g>
<g id="mug-hot">
</g>
<g id="bottle">
</g>
<g id="cherries">
</g>
<g id="cocktail">
</g>
<g id="cocktail-alt">
</g>
<g id="wine-glass">
	<path d="M47.4,0H16.6c-0.8,0-1.5,0.7-1.5,1.5v27.1c0,0.2,0,0.4,0.1,0.6c0.1,0.3,3,6.7,15.2,7.1V61h-9.4c-0.8,0-1.5,0.7-1.5,1.5
		s0.7,1.5,1.5,1.5h21.8c0.8,0,1.5-0.7,1.5-1.5S43.7,61,42.9,61h-9.4V36.3c12.2-0.5,15.1-6.9,15.2-7.1c0.1-0.2,0.1-0.4,0.1-0.6V1.5
		C48.9,0.7,48.2,0,47.4,0z M45.9,28.2c-0.6,1-3.7,5-13.4,5.1c-0.1,0-0.3-0.1-0.5-0.1c-0.2,0-0.3,0-0.5,0.1
		c-9.7-0.1-12.8-4.1-13.4-5.1V3h27.7V28.2z"/>
</g>
<g id="wine-glass-alt">
</g>
<g id="aubergine">
</g>
<g id="lettuce-leaf">
</g>
<g id="cup">
</g>
<g id="noodles">
</g>
<g id="icelolly">
</g>
<g id="cutlery">
</g>
<g id="hotdog">
</g>
</svg>
