<?xml version="1.0" encoding="utf-8"?>
<!-- Generator: Adobe Illustrator 20.1.0, SVG Export Plug-In . SVG Version: 6.00 Build 0)  -->
<!DOCTYPE svg PUBLIC "-//W3C//DTD SVG 1.1//EN" "http://www.w3.org/Graphics/SVG/1.1/DTD/svg11.dtd">
<svg version="1.1" xmlns="http://www.w3.org/2000/svg" xmlns:xlink="http://www.w3.org/1999/xlink" x="0px" y="0px"
	 viewBox="0 0 64 64" style="enable-background:new 0 0 64 64;" xml:space="preserve">
<g id="suitcase">
</g>
<g id="backpack">
</g>
<g id="chef-hat">
</g>
<g id="work-jacket">
</g>
<g id="tshirt">
</g>
<g id="handbag">
</g>
<g id="coat-hanger">
</g>
<g id="measuring-tape">
</g>
<g id="pants">
</g>
<g id="t-shirt-ale">
</g>
<g id="watch">
	<g>
		<circle cx="30.1" cy="23.3" r="1.5"/>
		<path d="M30.1,39.3c-0.8,0-1.5,0.6-1.5,1.5c0,0.8,0.7,1.4,1.5,1.4s1.5-0.6,1.5-1.4C31.6,39.9,30.9,39.3,30.1,39.3z"/>
		<circle cx="21.4" cy="32" r="1.5"/>
		<circle cx="38.8" cy="32" r="1.5"/>
		<ellipse cx="23.9" cy="38.2" rx="1.5" ry="1.5"/>
		<ellipse cx="23.9" cy="25.8" rx="1.5" ry="1.5"/>
		<ellipse cx="36.3" cy="38.2" rx="1.5" ry="1.5"/>
		<path d="M50.1,26.8c-0.7-2.8-2-5.3-4.3-7.9L43.1,4.3C42.7,1.8,40.5,0,37.9,0H22.7c-2.5,0-4.7,1.8-5.2,4.3l-2.6,14
			C11.4,22.1,9.5,27,9.5,32c0,4.9,1.8,9.6,5.1,13.4l2.6,14.2c0.5,2.5,2.7,4.3,5.2,4.3h15.2c2.6,0,4.8-1.8,5.2-4.3l2.6-14.2
			c2.1-2.4,3.6-5.2,4.4-8.2c2.5-0.4,4.5-2.6,4.5-5.2C54.5,29.4,52.6,27.2,50.1,26.8z M49.3,34.3c-0.1,0-0.2,0-0.3-0.1
			c-0.8-0.1-1.5,0.4-1.7,1.2c-0.6,3-2.1,5.9-4.2,8.3c-0.2,0.2-0.3,0.5-0.4,0.7L40,59.1c-0.2,1.1-1.2,1.9-2.3,1.9H22.5
			c-1.1,0-2.1-0.8-2.3-1.9l-2.7-14.7c-0.1-0.3-0.2-0.5-0.4-0.7c-3-3.3-4.6-7.4-4.6-11.7c0-4.4,1.7-8.7,4.8-12
			c0.2-0.2,0.3-0.5,0.4-0.8l2.7-14.4C20.6,3.8,21.6,3,22.7,3h15.2C39,3,40,3.8,40.2,4.9l2.7,14.9c0,0.3,0.2,0.5,0.3,0.7
			c2.3,2.6,3.5,4.9,4,7.6c0,0,0,0.1,0,0.1c0.4,1.3,1.4,1.5,1.8,1.5c1.3,0,2.3,1,2.3,2.3C51.5,33.2,50.5,34.2,49.3,34.3z"/>
		<path d="M37.3,24.7c-0.2-0.2-0.5-0.2-0.7,0L29.1,31c-0.3,0.3-0.4,0.7-0.4,1c0,0.4,0.1,0.7,0.4,1c0.3,0.3,0.6,0.4,1,0.4
			c0.4,0,0.7-0.1,1-0.4l2.7-3.2l3.5-4.4C37.5,25.2,37.5,24.9,37.3,24.7z"/>
		<path d="M30.1,17.1c-8.2,0-14.8,6.7-14.8,14.9c0,8.2,6.7,14.8,14.8,14.8S44.9,40.2,44.9,32C44.9,23.8,38.3,17.1,30.1,17.1z
			 M30.1,43.8c-6.5,0-11.8-5.3-11.8-11.8c0-6.5,5.3-11.9,11.8-11.9S41.9,25.5,41.9,32C41.9,38.5,36.6,43.8,30.1,43.8z"/>
	</g>
</g>
<g id="glasses">
</g>
<g id="graduation-hat">
</g>
<g id="scuba-gear">
</g>
<g id="shoe">
</g>
<g id="crown">
</g>
<g id="wand">
</g>
<g id="crown-alt">
</g>
</svg>
