<?xml version="1.0" encoding="utf-8"?>
<!-- Generator: Adobe Illustrator 20.1.0, SVG Export Plug-In . SVG Version: 6.00 Build 0)  -->
<!DOCTYPE svg PUBLIC "-//W3C//DTD SVG 1.1//EN" "http://www.w3.org/Graphics/SVG/1.1/DTD/svg11.dtd">
<svg version="1.1" xmlns="http://www.w3.org/2000/svg" xmlns:xlink="http://www.w3.org/1999/xlink" x="0px" y="0px"
	 viewBox="0 0 64 64" style="enable-background:new 0 0 64 64;" xml:space="preserve">
<g id="credit-card">
</g>
<g id="tag">
</g>
<g id="trolley">
</g>
<g id="trolley-out">
</g>
<g id="trolley-in">
</g>
<g id="wallet">
	<path d="M61.5,18.4H47.7c0,0,0,0,0,0v-10c0-1.5-0.7-2.9-1.9-3.7c-1.2-0.8-2.6-1-4-0.6L2,18c-0.4,0.1-0.7,0.4-0.9,0.8
		C0.5,19.3,0,20.1,0,20.9v36.7c0,1.4,1.1,2.5,2.5,2.5h59c1.4,0,2.5-1.1,2.5-2.5V20.9C64,19.6,62.9,18.4,61.5,18.4z M61,43.9h-9.9
		c-2.4,0-4.4-2.1-4.4-4.6s2-4.6,4.4-4.6H61V43.9z M42.8,7c0.6-0.2,1,0,1.2,0.2c0.4,0.3,0.6,0.8,0.6,1.3v10c0,0,0,0,0,0H9.9L42.8,7z
		 M3,57.1V21.4h58v10.2h-9.9c-4.1,0-7.4,3.4-7.4,7.6s3.3,7.6,7.4,7.6H61v10.2H3z"/>
</g>
<g id="shopping-bag">
</g>
<g id="basket">
</g>
<g id="dollar-circle">
</g>
<g id="pound-circle">
</g>
<g id="euro-circle">
</g>
<g id="yen-circle">
</g>
<g id="purse">
</g>
<g id="banknote">
</g>
</svg>
