<?xml version="1.0" encoding="utf-8"?>
<!-- Generator: Adobe Illustrator 20.1.0, SVG Export Plug-In . SVG Version: 6.00 Build 0)  -->
<!DOCTYPE svg PUBLIC "-//W3C//DTD SVG 1.1//EN" "http://www.w3.org/Graphics/SVG/1.1/DTD/svg11.dtd">
<svg version="1.1" id="Layer_1" xmlns="http://www.w3.org/2000/svg" xmlns:xlink="http://www.w3.org/1999/xlink" x="0px" y="0px"
	 viewBox="0 0 64 64" style="enable-background:new 0 0 64 64;" xml:space="preserve">
<g>
	<path d="M60.8,50c-0.3-0.8-1.2-1.1-2-0.8l-7.6,3.3L43.9,34c-0.2-0.6-0.8-1-1.4-1H21.9l-0.4-6H35c0.8,0,1.5-0.7,1.5-1.5
		S35.9,24,35,24H21.3l-0.9-12.8c3-0.2,5.3-2.7,5.3-5.6c0-3.1-2.6-5.6-5.8-5.6c-3.2,0-5.8,2.5-5.8,5.6c0,2.2,1.3,4.1,3.3,5.1l1.7,24
		c0.1,0.8,0.7,1.4,1.5,1.4h21L49,55c0.1,0.4,0.4,0.7,0.8,0.9c0.2,0.1,0.4,0.1,0.6,0.1c0.2,0,0.4,0,0.6-0.1l9-3.9
		C60.7,51.7,61.1,50.8,60.8,50z M19.9,3c1.6,0,2.8,1.2,2.8,2.6s-1.3,2.6-2.8,2.6c-1.6,0-2.8-1.2-2.8-2.6S18.3,3,19.9,3z"/>
	<path d="M43.4,49.3c-0.8-0.3-1.6,0-2,0.8c-2.8,6.6-9.5,10.9-17,10.9C14.3,61,6.1,53.2,6.1,43.5c0-5.8,3-11.2,8.1-14.5
		c0.7-0.5,0.9-1.4,0.4-2.1c-0.5-0.7-1.4-0.9-2.1-0.4c-5.9,3.8-9.4,10.2-9.4,17C3.1,54.8,12.7,64,24.4,64c8.7,0,16.4-5,19.7-12.7
		C44.5,50.5,44.1,49.7,43.4,49.3z"/>
</g>
</svg>
