<?xml version="1.0" encoding="utf-8"?>
<!-- Generator: Adobe Illustrator 20.1.0, SVG Export Plug-In . SVG Version: 6.00 Build 0)  -->
<!DOCTYPE svg PUBLIC "-//W3C//DTD SVG 1.1//EN" "http://www.w3.org/Graphics/SVG/1.1/DTD/svg11.dtd">
<svg version="1.1" xmlns="http://www.w3.org/2000/svg" xmlns:xlink="http://www.w3.org/1999/xlink" x="0px" y="0px"
	 viewBox="0 0 64 64" style="enable-background:new 0 0 64 64;" xml:space="preserve">
<g id="fairground">
</g>
<g id="tent">
</g>
<g id="tree">
</g>
<g id="trees">
</g>
<g id="tree-alt">
</g>
<g id="butterfly">
</g>
<g id="sunrise">
</g>
<g id="waterdrop">
	<g>
		<path d="M33.2,0.6c-0.6-0.8-1.9-0.8-2.5,0C30,1.8,10.9,29.4,10.9,41.4C10.9,53.9,20.4,64,32,64s21.1-10.1,21.1-22.6
			C53.1,29.4,34,1.8,33.2,0.6z M32,61c-10,0-18.1-8.8-18.1-19.6C13.9,32,27.7,10.5,32,4.2c4.3,6.4,18.1,27.8,18.1,37.2
			C50.1,52.2,42,61,32,61z"/>
		<path d="M28,52.5c-1.2-0.6-2.4-1.4-3.3-2.4c-1-1-1.7-2.3-2.3-3.6c-0.6-1.4-0.8-2.9-0.8-4.4c0-1,0.3-2.8,1.8-6.2
			c0.3-0.8,0-1.6-0.8-2c-0.8-0.3-1.6,0-2,0.8c-1.3,3.1-2,5.5-2,7.4c0,1.9,0.4,3.8,1,5.5c0.7,1.7,1.6,3.2,2.9,4.5
			c1.2,1.3,2.7,2.4,4.3,3.1c0.2,0.1,0.4,0.1,0.6,0.1c0.6,0,1.1-0.3,1.4-0.9C29,53.7,28.7,52.8,28,52.5z"/>
	</g>
</g>
<g id="map">
</g>
<g id="map-alt">
</g>
<g id="earth">
</g>
<g id="earth-no">
</g>
<g id="meteor">
</g>
<g id="sun">
</g>
<g id="sun-dim">
</g>
<g id="umbrella">
</g>
<g id="umbrella-alt">
</g>
<g id="gps">
</g>
<g id="fire">
</g>
<g id="target-sight">
</g>
<g id="gps-area">
</g>
<g id="gps-alt">
</g>
<g id="target">
</g>
<g id="star">
</g>
<g id="lightning">
</g>
</svg>
