<?xml version="1.0" encoding="utf-8"?>
<!-- Generator: Adobe Illustrator 20.1.0, SVG Export Plug-In . SVG Version: 6.00 Build 0)  -->
<!DOCTYPE svg PUBLIC "-//W3C//DTD SVG 1.1//EN" "http://www.w3.org/Graphics/SVG/1.1/DTD/svg11.dtd">
<svg version="1.1" xmlns="http://www.w3.org/2000/svg" xmlns:xlink="http://www.w3.org/1999/xlink" x="0px" y="0px"
	 viewBox="0 0 64 64" style="enable-background:new 0 0 64 64;" xml:space="preserve">
<g id="bulb">
</g>
<g id="bulb-on">
</g>
<g id="bulb-alt">
</g>
<g id="bulb-on-alt">
</g>
<g id="energy-bulb">
</g>
<g id="toasting">
</g>
<g id="toasted">
</g>
<g id="binoculars">
</g>
<g id="gift">
</g>
<g id="shaver">
</g>
<g id="candle">
</g>
<g id="shower">
</g>
<g id="bomb">
</g>
<g id="joystick">
</g>
<g id="megaphone">
</g>
<g id="chestdraw">
</g>
<g id="armchair">
</g>
<g id="cardboard-box">
</g>
<g id="bath-shower">
</g>
<g id="diamond">
</g>
<g id="cassette">
</g>
<g id="iron">
</g>
<g id="wash">
	<path d="M62.9,14.1c-0.8-0.2-1.6,0.3-1.8,1.1l-0.6,2.2c-1.7,0.2-2.7,0.8-3.5,1.3c-0.9,0.5-1.5,0.9-2.9,0.9s-2.1-0.4-2.9-0.9
		c-1-0.6-2.2-1.3-4.4-1.3c-2.3,0-3.5,0.7-4.4,1.3c-0.9,0.5-1.5,0.9-2.9,0.9c-1.4,0-2-0.4-2.9-0.9c-1-0.6-2.2-1.3-4.4-1.3
		c-2.2,0-3.5,0.7-4.4,1.3c-0.9,0.5-1.5,0.9-2.9,0.9c-1.4,0-2-0.4-2.9-0.9c-1-0.6-2.2-1.3-4.4-1.3c-2.2,0-3.5,0.7-4.4,1.3
		c-0.9,0.5-1.5,0.9-2.9,0.9s-2-0.4-2.9-0.9c-0.8-0.5-1.8-1.1-3.5-1.3l-0.6-2.2c-0.2-0.8-1-1.3-1.8-1.1c-0.8,0.2-1.3,1-1.1,1.8
		l8.7,32.8c0.2,0.7,0.8,1.1,1.4,1.1h43.6c0.7,0,1.3-0.5,1.4-1.1L63.9,16C64.2,15.2,63.7,14.3,62.9,14.1z M52.6,46.9H11.4l-7-26.3
		c0.4,0.2,0.7,0.3,1.1,0.6c1,0.6,2.2,1.3,4.4,1.3s3.5-0.7,4.4-1.3c0.9-0.5,1.5-0.9,2.9-0.9c1.4,0,2,0.4,2.9,0.9
		c1,0.6,2.2,1.3,4.4,1.3c2.2,0,3.5-0.7,4.4-1.3c0.9-0.5,1.5-0.9,2.9-0.9s2,0.4,2.9,0.9c1,0.6,2.2,1.3,4.4,1.3c2.3,0,3.5-0.7,4.4-1.3
		c0.9-0.5,1.5-0.9,2.9-0.9c1.4,0,2.1,0.4,2.9,0.9c1,0.6,2.2,1.3,4.4,1.3s3.5-0.7,4.4-1.3c0.4-0.2,0.7-0.4,1.1-0.6L52.6,46.9z"/>
</g>
<g id="keyboard-keys">
</g>
<g id="earphones">
</g>
<g id="lifebuoy">
</g>
<g id="calculator">
</g>
<g id="safe">
</g>
<g id="balloon">
</g>
<g id="cake">
</g>
<g id="baseball">
</g>
<g id="football-american">
</g>
<g id="football">
</g>
<g id="anchor">
</g>
<g id="compact-disc">
</g>
<g id="bbq">
</g>
<g id="coffee-machine">
</g>
<g id="teapot">
</g>
<g id="outdoor-stove">
</g>
<g id="pram">
</g>
<g id="paintbrush">
</g>
<g id="stamp">
</g>
<g id="eyedrop">
</g>
<g id="musical-note">
</g>
<g id="magnet">
</g>
<g id="alarm-bell">
</g>
<g id="globe">
</g>
<g id="key">
</g>
<g id="ink">
</g>
<g id="paperclip">
</g>
<g id="paint-roller">
</g>
<g id="keyboard">
</g>
</svg>
