<?xml version="1.0" encoding="utf-8"?>
<!-- Generator: Adobe Illustrator 20.1.0, SVG Export Plug-In . SVG Version: 6.00 Build 0)  -->
<!DOCTYPE svg PUBLIC "-//W3C//DTD SVG 1.1//EN" "http://www.w3.org/Graphics/SVG/1.1/DTD/svg11.dtd">
<svg version="1.1" xmlns="http://www.w3.org/2000/svg" xmlns:xlink="http://www.w3.org/1999/xlink" x="0px" y="0px"
	 viewBox="0 0 64 64" style="enable-background:new 0 0 64 64;" xml:space="preserve">
<g id="user">
</g>
<g id="users">
</g>
<g id="comment">
</g>
<g id="commenting">
</g>
<g id="comments">
</g>
<g id="comments-alt">
</g>
<g id="commenting-alt">
</g>
<g id="comment-alt">
</g>
<g id="face-happy">
</g>
<g id="face-ok">
</g>
<g id="face-unhappy">
</g>
<g id="mail">
</g>
<g id="phone">
</g>
<g id="fingerprint">
</g>
<g id="info">
</g>
<g id="question">
</g>
<g id="warning">
	<g>
		<ellipse cx="32" cy="45.6" rx="3.4" ry="3.4"/>
		<path d="M32,0C14.4,0,0,14.4,0,32s14.4,32,32,32s32-14.4,32-32S49.7,0,32,0z M32,61C16,61,3,48,3,32S16,3,32,3s29,13,29,29
			S48,61,32,61z"/>
		<path d="M32,15.1c-1.8,0.1-3.3,1.5-3.3,3.4c0,0-0.2,1.8,0,5.8c0.4,6.2,1.4,12.1,1.4,12.1c0.2,2,0.9,2.4,1.9,2.4
			c0.9,0,1.8-0.4,1.9-2.4c0,0,1-5.9,1.4-12.1c0.2-4,0-5.8,0-5.8C35.3,16.5,33.8,15.1,32,15.1z"/>
	</g>
</g>
<g id="alert">
</g>
<g id="headset">
</g>
<g id="skull">
</g>
<g id="baby">
</g>
<g id="eye">
</g>
<g id="id-card">
</g>
<g id="microphone">
</g>
<g id="eye-cross">
</g>
<g id="user-commenting">
</g>
<g id="user-commenting-alt">
</g>
<g id="user-file">
</g>
<g id="user-check">
</g>
<g id="tap">
</g>
<g id="swipe">
</g>
<g id="slide">
</g>
<g id="foot">
</g>
<g id="share-social">
</g>
<g id="ghost">
</g>
</svg>
