<?xml version="1.0" encoding="utf-8"?>
<!-- Generator: Adobe Illustrator 20.1.0, SVG Export Plug-In . SVG Version: 6.00 Build 0)  -->
<!DOCTYPE svg PUBLIC "-//W3C//DTD SVG 1.1//EN" "http://www.w3.org/Graphics/SVG/1.1/DTD/svg11.dtd">
<svg version="1.1" xmlns="http://www.w3.org/2000/svg" xmlns:xlink="http://www.w3.org/1999/xlink" x="0px" y="0px"
	 viewBox="0 0 64 64" style="enable-background:new 0 0 64 64;" xml:space="preserve">
<g id="suitcase">
</g>
<g id="backpack">
</g>
<g id="chef-hat">
</g>
<g id="work-jacket">
</g>
<g id="tshirt">
</g>
<g id="handbag">
</g>
<g id="coat-hanger">
</g>
<g id="measuring-tape">
</g>
<g id="pants">
</g>
<g id="t-shirt-ale">
</g>
<g id="watch">
</g>
<g id="glasses">
</g>
<g id="graduation-hat">
</g>
<g id="scuba-gear">
</g>
<g id="shoe">
</g>
<g id="crown">
</g>
<g id="wand">
	<path d="M63.5,23.9L56,16.4l5.4-12c0.3-0.6,0.1-1.2-0.3-1.7c-0.4-0.4-1.1-0.6-1.7-0.3L47.5,7.9l-7.5-7.5c-0.5-0.5-1.2-0.6-1.8-0.3
		c-0.6,0.3-0.9,1-0.8,1.6l2.1,10.5l-12.9,5.4c-0.6,0.3-1,0.9-0.9,1.6c0.1,0.7,0.6,1.2,1.3,1.3l12.3,1.9l-1,1l-37.9,38
		c-0.6,0.6-0.6,1.5,0,2.1C0.8,63.9,1.2,64,1.6,64c0.4,0,0.8-0.1,1.1-0.4l37.9-38l1-1l1.9,12.3c0.1,0.7,0.6,1.2,1.3,1.3
		c0.1,0,0.1,0,0.2,0c0.6,0,1.1-0.3,1.4-0.9l5.4-11.9l10.6,1.1c0.6,0.1,1.2-0.3,1.5-0.8C64.1,25,63.9,24.4,63.5,23.9z M50.9,22.3
		c-0.6-0.1-1.2,0.3-1.5,0.9l-3.8,8.3L44,21.2c0-0.1,0-0.1-0.1-0.2c0-0.1,0-0.1-0.1-0.2c-0.1-0.2-0.2-0.3-0.3-0.4c0,0,0,0,0,0
		c0,0,0,0,0,0c-0.1-0.1-0.3-0.2-0.4-0.3c-0.1,0-0.1,0-0.2-0.1c-0.1,0-0.1-0.1-0.2-0.1l-9.9-1.5l9.1-3.8c0.7-0.3,1-1,0.9-1.7
		l-1.4-6.9l4.7,4.7c0.4,0.4,1.1,0.6,1.7,0.3l9.2-4.2l-4.2,9.3c-0.3,0.6-0.1,1.2,0.3,1.7l5.2,5.2L50.9,22.3z"/>
</g>
<g id="crown-alt">
</g>
</svg>
