<?xml version="1.0" encoding="utf-8"?>
<!-- Generator: Adobe Illustrator 20.1.0, SVG Export Plug-In . SVG Version: 6.00 Build 0)  -->
<!DOCTYPE svg PUBLIC "-//W3C//DTD SVG 1.1//EN" "http://www.w3.org/Graphics/SVG/1.1/DTD/svg11.dtd">
<svg version="1.1" xmlns="http://www.w3.org/2000/svg" xmlns:xlink="http://www.w3.org/1999/xlink" x="0px" y="0px"
	 viewBox="0 0 64 64" style="enable-background:new 0 0 64 64;" xml:space="preserve">
<g id="calendar">
</g>
<g id="calendar-check">
</g>
<g id="day">
</g>
<g id="week">
	<g>
		<path d="M32,36.6c-3.1,0-5.7,2.6-5.7,5.7s2.6,5.7,5.7,5.7s5.7-2.6,5.7-5.7S35.1,36.6,32,36.6z M32,45.1c-1.5,0-2.7-1.2-2.7-2.7
			s1.2-2.7,2.7-2.7s2.7,1.2,2.7,2.7S33.5,45.1,32,45.1z"/>
		<path d="M46.4,36.6c-3.1,0-5.7,2.6-5.7,5.7s2.6,5.7,5.7,5.7c3.1,0,5.7-2.6,5.7-5.7S49.5,36.6,46.4,36.6z M46.4,45.1
			c-1.5,0-2.7-1.2-2.7-2.7s1.2-2.7,2.7-2.7c1.5,0,2.7,1.2,2.7,2.7S47.8,45.1,46.4,45.1z"/>
		<path d="M17.6,36.6c-3.1,0-5.7,2.6-5.7,5.7s2.6,5.7,5.7,5.7c3.1,0,5.7-2.6,5.7-5.7S20.8,36.6,17.6,36.6z M17.6,45.1
			c-1.5,0-2.7-1.2-2.7-2.7s1.2-2.7,2.7-2.7c1.5,0,2.7,1.2,2.7,2.7S19.1,45.1,17.6,45.1z"/>
		<path d="M62.5,6H47.9V3.3c0-0.8-0.7-1.5-1.5-1.5s-1.5,0.7-1.5,1.5V6H33.5V3.3c0-0.8-0.7-1.5-1.5-1.5s-1.5,0.7-1.5,1.5V6H19.1V3.3
			c0-0.8-0.7-1.5-1.5-1.5s-1.5,0.7-1.5,1.5V6H1.5C0.7,6,0,6.7,0,7.5v53.2c0,0.8,0.7,1.5,1.5,1.5h61c0.8,0,1.5-0.7,1.5-1.5V7.5
			C64,6.7,63.3,6,62.5,6z M16.1,9V13c0,0.8,0.7,1.5,1.5,1.5s1.5-0.7,1.5-1.5V9h11.4V13c0,0.8,0.7,1.5,1.5,1.5s1.5-0.7,1.5-1.5V9
			h11.4V13c0,0.8,0.7,1.5,1.5,1.5s1.5-0.7,1.5-1.5V9H61v13.9H3V9H16.1z M3,59.2V25.9h58v33.3H3z"/>
	</g>
</g>
<g id="time-forward">
</g>
<g id="time-reverse">
</g>
<g id="time">
</g>
<g id="clock">
</g>
<g id="clocks">
</g>
<g id="alarm-clock">
</g>
<g id="alarm-clock-add">
</g>
<g id="alarm-clock-off">
</g>
<g id="alarm-clock-set">
</g>
</svg>
