<?xml version="1.0" encoding="utf-8"?>
<!-- Generator: Adobe Illustrator 20.1.0, SVG Export Plug-In . SVG Version: 6.00 Build 0)  -->
<!DOCTYPE svg PUBLIC "-//W3C//DTD SVG 1.1//EN" "http://www.w3.org/Graphics/SVG/1.1/DTD/svg11.dtd">
<svg version="1.1" xmlns="http://www.w3.org/2000/svg" xmlns:xlink="http://www.w3.org/1999/xlink" x="0px" y="0px"
	 viewBox="0 0 64 64" style="enable-background:new 0 0 64 64;" xml:space="preserve">
<g id="behance">
</g>
<g id="twitter">
</g>
<g id="vimeo">
</g>
<g id="wordpress">
</g>
<g id="Layer_179">
</g>
<g id="xing">
</g>
<g id="youtube">
</g>
<g id="whatsapp">
	<g>
		<path d="M46.6,38.4c-0.7-0.3-4.7-2.4-5.4-2.7s-1.3-0.3-1.7,0.3c-0.7,0.7-2,2.7-2.7,3c-0.3,0.7-1,0.7-1.7,0.3
			c-0.7-0.3-3.4-1.3-6.4-4c-2.4-2-4-4.7-4.4-5.4s0-1.3,0.3-1.7s0.7-0.7,1-1.3c0.3-0.3,0.7-0.7,0.7-1.3c0.3-0.7,0-1,0-1.3
			c0-0.3-1.7-4.1-2.4-5.8c-0.7-1.7-1.3-1.4-1.7-1.4s-1,0-1.3,0c-0.7,0-1.3,0.4-2,1.1c-0.7,0.7-2.7,2.7-2.7,6.8s2.7,7.8,3.4,8.1
			c0.3,0.7,5.7,8.4,13.5,11.8c2,0.7,3.4,1.4,4.4,1.7c2,0.7,3.7,0.7,5.1,0.3c1.7-0.3,4.7-2,5.4-3.7c0.7-1.7,0.7-3.4,0.3-3.7
			C48,39.1,47.3,38.7,46.6,38.4z"/>
		<path d="M54.4,9.4C48.3,3.4,40.6,0,31.8,0C14.3,0,0.2,14.2,0.2,31.7c0,5.7,1.3,11.1,4.4,15.8L0.2,64L17,59.6c4.7,2.7,9.8,4,15.1,4
			c17.5,0,31.6-14.1,31.6-31.6C63.8,23.2,60.4,15.2,54.4,9.4z M32.2,57.9c-4.7,0-9.4-1.3-13.5-3.7l-1-0.7L7.6,56.2l2.7-9.8l-0.7-1
			c-2.7-4-4-9.1-4-14.1c0-14.5,11.8-26.3,26.3-26.3c7.1,0,13.8,2.7,18.5,7.7c5.1,5.1,7.7,11.4,7.7,18.5
			C58.4,46.1,46.6,57.9,32.2,57.9z"/>
	</g>
</g>
<g id="flickr">
</g>
<g id="dribbble">
</g>
<g id="facebook">
</g>
<g id="foursquare">
</g>
<g id="github">
</g>
<g id="github-alt">
</g>
<g id="google-plus">
</g>
<g id="google">
</g>
<g id="joomla">
</g>
<g id="soundcloud">
</g>
<g id="instagram">
</g>
<g id="linkedin">
</g>
<g id="pagekit">
</g>
<g id="pinterest">
</g>
<g id="windows">
</g>
<g id="bronzelabs">
</g>
<g id="apple">
</g>
<g id="android">
</g>
<g id="mwkr-alt">
</g>
<g id="mwkr">
</g>
<g id="deviantart">
</g>
<g id="deviantart-alt">
</g>
</svg>
