<?xml version="1.0" encoding="utf-8"?>
<!-- Generator: Adobe Illustrator 20.1.0, SVG Export Plug-In . SVG Version: 6.00 Build 0)  -->
<!DOCTYPE svg PUBLIC "-//W3C//DTD SVG 1.1//EN" "http://www.w3.org/Graphics/SVG/1.1/DTD/svg11.dtd">
<svg version="1.1" xmlns="http://www.w3.org/2000/svg" xmlns:xlink="http://www.w3.org/1999/xlink" x="0px" y="0px"
	 viewBox="0 0 64 64" style="enable-background:new 0 0 64 64;" xml:space="preserve">
<g id="behance">
</g>
<g id="twitter">
</g>
<g id="vimeo">
</g>
<g id="wordpress">
	<path d="M32,0C14.5,0,0,14.5,0,32s14.5,32,32,32s32-14.5,32-32S49.5,0,32,0z M4.4,32c0-4,0.7-8.1,2.4-11.4l13.1,36.4
		C10.8,52.5,4.4,42.8,4.4,32z M32,59.6c-2.7,0-5.4-0.3-7.7-1l8.4-24.2l8.4,23.2c0,0,0,0.3,0.3,0.3C38.4,58.9,35.4,59.6,32,59.6z
		 M35.7,18.9c1.7,0,3-0.3,3-0.3c1.7,0,1.7-2.4,0-2c0,0-4.4,0.3-7.4,0.3c-2.7,0-7.1-0.3-7.1-0.3c-1.7-0.3-1.7,2-0.3,2
		c0,0,1.3,0.3,3,0.3l4.4,11.8l-6.1,18.2l-10.1-30c1.7,0,3-0.3,3-0.3c1.7,0,1.3-2.3,0-1.9c0,0-4.4,0.4-7.4,0.4c-0.7,0-1,0-1.7,0
		c5-8,13.5-12.8,23.2-12.8C39.4,3.9,45.8,7,50.9,11h-0.3c-2.7,0-4.7,2.6-4.7,5.3c0,2.4,1.3,4.5,2.7,6.5c1,2,2.4,4.4,2.4,7.8
		c0,2.4-1,5.1-2,9.1l-3,9.1L35.7,18.9z M46.1,55.9l8.4-24.6c1.7-4,2-7.1,2-9.8c0-1,0-2-0.3-2.7c2,4,3.4,8.4,3.4,13.5
		C59.9,42.1,54.2,51.2,46.1,55.9z"/>
</g>
<g id="Layer_179">
</g>
<g id="xing">
</g>
<g id="youtube">
</g>
<g id="whatsapp">
</g>
<g id="flickr">
</g>
<g id="dribbble">
</g>
<g id="facebook">
</g>
<g id="foursquare">
</g>
<g id="github">
</g>
<g id="github-alt">
</g>
<g id="google-plus">
</g>
<g id="google">
</g>
<g id="joomla">
</g>
<g id="soundcloud">
</g>
<g id="instagram">
</g>
<g id="linkedin">
</g>
<g id="pagekit">
</g>
<g id="pinterest">
</g>
<g id="windows">
</g>
<g id="bronzelabs">
</g>
<g id="apple">
</g>
<g id="android">
</g>
<g id="mwkr-alt">
</g>
<g id="mwkr">
</g>
<g id="deviantart">
</g>
<g id="deviantart-alt">
</g>
</svg>
