<?xml version="1.0" encoding="utf-8"?>
<!-- Generator: Adobe Illustrator 20.1.0, SVG Export Plug-In . SVG Version: 6.00 Build 0)  -->
<!DOCTYPE svg PUBLIC "-//W3C//DTD SVG 1.1//EN" "http://www.w3.org/Graphics/SVG/1.1/DTD/svg11.dtd">
<svg version="1.1" xmlns="http://www.w3.org/2000/svg" xmlns:xlink="http://www.w3.org/1999/xlink" x="0px" y="0px"
	 viewBox="0 0 64 64" style="enable-background:new 0 0 64 64;" xml:space="preserve">
<g id="behance">
</g>
<g id="twitter">
</g>
<g id="vimeo">
</g>
<g id="wordpress">
</g>
<g id="Layer_179">
</g>
<g id="xing">
	<g>
		<path d="M22.1,15.4C21.6,14.7,21,14,19.7,14h-8.7c-0.5,0-1,0-1.2,0.4c-0.2,0.4-0.1,0.8,0.2,1.3l6,10.2v0L6.6,42.2
			c-0.2,0.5-0.3,0.9-0.1,1.3C6.7,43.9,7,44,7.6,44h8.8c1.3,0,1.9-0.8,2.4-1.6c0,0,9.1-16,9.4-16.7C28.1,25.7,22.1,15.4,22.1,15.4z"
			/>
		<path d="M57.5,3.6c0.2-0.5,0.3-0.8,0.1-1.2C57.4,2.1,57,2,56.5,2h-8.9c-1.3,0-1.9,0.7-2.4,1.5c0,0-18.8,33.3-19.5,34.4
			c0,0.1,12.4,22.6,12.4,22.6c0.4,0.8,1.1,1.5,2.4,1.5h8.7c0.5,0,0.9-0.1,1.1-0.4c0.2-0.4,0.1-0.8-0.1-1.3L38,37.9v-0.1L57.5,3.6z"
			/>
	</g>
</g>
<g id="youtube">
</g>
<g id="whatsapp">
</g>
<g id="flickr">
</g>
<g id="dribbble">
</g>
<g id="facebook">
</g>
<g id="foursquare">
</g>
<g id="github">
</g>
<g id="github-alt">
</g>
<g id="google-plus">
</g>
<g id="google">
</g>
<g id="joomla">
</g>
<g id="soundcloud">
</g>
<g id="instagram">
</g>
<g id="linkedin">
</g>
<g id="pagekit">
</g>
<g id="pinterest">
</g>
<g id="windows">
</g>
<g id="bronzelabs">
</g>
<g id="apple">
</g>
<g id="android">
</g>
<g id="mwkr-alt">
</g>
<g id="mwkr">
</g>
<g id="deviantart">
</g>
<g id="deviantart-alt">
</g>
</svg>
