<?xml version="1.0" encoding="utf-8"?>
<!-- Generator: Adobe Illustrator 20.1.0, SVG Export Plug-In . SVG Version: 6.00 Build 0)  -->
<!DOCTYPE svg PUBLIC "-//W3C//DTD SVG 1.1//EN" "http://www.w3.org/Graphics/SVG/1.1/DTD/svg11.dtd">
<svg version="1.1" xmlns="http://www.w3.org/2000/svg" xmlns:xlink="http://www.w3.org/1999/xlink" x="0px" y="0px"
	 viewBox="0 0 64 64" style="enable-background:new 0 0 64 64;" xml:space="preserve">
<g id="behance">
</g>
<g id="twitter">
</g>
<g id="vimeo">
</g>
<g id="wordpress">
</g>
<g id="Layer_179">
</g>
<g id="xing">
</g>
<g id="youtube">
	<path d="M62,23.4c0-3.4-0.3-7.7-3-10.4c-2.4-2.7-6.7-2.4-10.1-2.7c-8.1-0.3-32.6,0-36.6,0.3c-3.7,0.3-7,1-8.7,4.4S2,22.7,2,26.4
		c0,4,0,9.8,0,13.8c0,3.4,0.2,7.4,2.5,10.1c2.7,3,6.9,3,10.6,3.4c8.1,0.3,33,0.3,37,0c3.7-0.3,6.7-1.7,8.4-5.4
		c1.7-3.4,1.3-7.7,1.7-11.4C62.3,33.1,62.3,27.4,62,23.4z M25,41.9V21.7l18.5,10.1L25,41.9z"/>
</g>
<g id="whatsapp">
</g>
<g id="flickr">
</g>
<g id="dribbble">
</g>
<g id="facebook">
</g>
<g id="foursquare">
</g>
<g id="github">
</g>
<g id="github-alt">
</g>
<g id="google-plus">
</g>
<g id="google">
</g>
<g id="joomla">
</g>
<g id="soundcloud">
</g>
<g id="instagram">
</g>
<g id="linkedin">
</g>
<g id="pagekit">
</g>
<g id="pinterest">
</g>
<g id="windows">
</g>
<g id="bronzelabs">
</g>
<g id="apple">
</g>
<g id="android">
</g>
<g id="mwkr-alt">
</g>
<g id="mwkr">
</g>
<g id="deviantart">
</g>
<g id="deviantart-alt">
</g>
</svg>
