<?xml version="1.0" encoding="utf-8"?>
<!-- Generator: Adobe Illustrator 20.1.0, SVG Export Plug-In . SVG Version: 6.00 Build 0)  -->
<!DOCTYPE svg PUBLIC "-//W3C//DTD SVG 1.1//EN" "http://www.w3.org/Graphics/SVG/1.1/DTD/svg11.dtd">
<svg version="1.1" xmlns="http://www.w3.org/2000/svg" xmlns:xlink="http://www.w3.org/1999/xlink" x="0px" y="0px"
	 viewBox="0 0 64 64" style="enable-background:new 0 0 64 64;" xml:space="preserve">
<g id="credit-card">
</g>
<g id="tag">
</g>
<g id="trolley">
</g>
<g id="trolley-out">
</g>
<g id="trolley-in">
</g>
<g id="wallet">
</g>
<g id="shopping-bag">
</g>
<g id="basket">
</g>
<g id="dollar-circle">
</g>
<g id="pound-circle">
</g>
<g id="euro-circle">
</g>
<g id="yen-circle">
	<g>
		<path d="M32,0C14.4,0,0,14.4,0,32s14.4,32,32,32s32-14.3,32-32S49.6,0,32,0z M32,61C16,61,3,48,3,32S16,3,32,3s29,13,29,29
			S48,61,32,61z"/>
		<path d="M40.4,20h-1.6c-0.4,0-0.7,0.3-0.9,0.7L32,30.9l-5.9-10.2c-0.2-0.4-0.5-0.7-0.9-0.7h-1.7c-0.2,0-0.3,0.2-0.5,0.4
			c-0.1,0.1-0.2,0.4-0.2,0.6c0,0.1,0,0.2,0.1,0.4L29.8,33h-4.1c-0.2,0-0.4,0.2-0.5,0.3C25,33.4,25,33.7,25,33.9V35
			c0,0.2,0,0.5,0.2,0.7c0.1,0.1,0.3,0.3,0.5,0.3H30v1h-4.4c-0.2,0-0.4,0.3-0.5,0.4C25,37.6,25,38,25,38.2v1.1c0,0.2,0,0.4,0.2,0.5
			c0.1,0.1,0.3,0.2,0.5,0.2H30v2.9c0,0.2,0.3,0.6,0.4,0.7c0.1,0.1,0.5,0.4,0.8,0.4h1.6c0.2,0,0.6-0.3,0.8-0.4
			c0.1-0.1,0.4-0.5,0.4-0.7V40h4.3c0.2,0,0.4,0,0.5-0.2c0.1-0.1,0.2-0.3,0.2-0.5v-1.1c0-0.2,0-0.6-0.2-0.8c-0.1-0.1-0.3-0.4-0.5-0.4
			H34v-1h4.3c0.2,0,0.4-0.2,0.5-0.3C39,35.5,39,35.2,39,35v-1.1c0-0.2,0-0.5-0.2-0.6c-0.1-0.1-0.3-0.3-0.5-0.3h-4.1l6.8-11.6
			c0.1-0.2,0.1-0.4,0.1-0.5c0-0.2-0.1-0.4-0.2-0.5C40.7,20.3,40.6,20,40.4,20z"/>
	</g>
</g>
<g id="purse">
</g>
<g id="banknote">
</g>
</svg>
